0
SECTION
2
HEADER
9
$INSUNITS
70
5
9
$ACADVER
1
AC1014
9
$HANDSEED
5
FFFF
0
ENDSEC
0
SECTION
2
TABLES
0
TABLE
2
VPORT
5
8
100
AcDbSymbolTable
0
ENDTAB
0
TABLE
2
LTYPE
5
5
100
AcDbSymbolTable
0
LTYPE
5
14
100
AcDbSymbolTableRecord
100
AcDbLinetypeTableRecord
2
BYBLOCK
70
0
0
LTYPE
5
15
100
AcDbSymbolTableRecord
100
AcDbLinetypeTableRecord
2
BYLAYER
70
0
0
ENDTAB
0
TABLE
2
LAYER
5
2
100
AcDbSymbolTable
70
2
0
LAYER
5
50
100
AcDbSymbolTableRecord
100
AcDbLayerTableRecord
2
0
70
0
6
CONTINUOUS
0
ENDTAB
0
TABLE
2
STYLE
5
3
100
AcDbSymbolTable
70
1
0
STYLE
5
11
100
AcDbSymbolTableRecord
100
AcDbTextStyleTableRecord
2
STANDARD
70
0
0
ENDTAB
0
TABLE
2
VIEW
5
6
100
AcDbSymbolTable
70
0
0
ENDTAB
0
TABLE
2
UCS
5
7
100
AcDbSymbolTable
70
0
0
ENDTAB
0
TABLE
2
APPID
5
9
100
AcDbSymbolTable
70
2
0
APPID
5
12
100
AcDbSymbolTableRecord
100
AcDbRegAppTableRecord
2
ACAD
70
0
0
ENDTAB
0
TABLE
2
DIMSTYLE
5
A
100
AcDbSymbolTable
70
1
0
ENDTAB
0
TABLE
2
BLOCK_RECORD
5
1
100
AcDbSymbolTable
70
1
0
BLOCK_RECORD
5
1F
100
AcDbSymbolTableRecord
100
AcDbBlockTableRecord
2
*MODEL_SPACE
0
BLOCK_RECORD
5
1B
100
AcDbSymbolTableRecord
100
AcDbBlockTableRecord
2
*PAPER_SPACE
0
ENDTAB
0
ENDSEC
0
SECTION
2
BLOCKS
0
BLOCK
5
20
100
AcDbEntity
100
AcDbBlockBegin
2
*MODEL_SPACE
0
ENDBLK
5
21
100
AcDbEntity
100
AcDbBlockEnd
0
BLOCK
5
1C
100
AcDbEntity
100
AcDbBlockBegin
2
*PAPER_SPACE
0
ENDBLK
5
1D
100
AcDbEntity
100
AcDbBlockEnd
0
ENDSEC
0
SECTION
2
ENTITIES
0
LWPOLYLINE
5
100
100
AcDbEntity
8
0
100
AcDbPolyline
90
4
70
1
43
0.0
10
3.6836473568415995
20
9.9754021502306003
42
0.99999999999999989
10
-3.7121516166393524
20
9.9754021502306038
10
-3.712151616639352
20
-9.8522189919770629
42
0.99999999999999989
10
3.6836473568416008
20
-9.8522189919770682
0
CIRCLE
5
101
100
AcDbEntity
8
0
100
AcDbCircle
10
3.1886407677824908
20
-10.585003115244618
30
0
40
0.11000000000000076
210
0
220
0
230
1
0
CIRCLE
5
102
100
AcDbEntity
8
0
100
AcDbCircle
10
-3.2155244488378685
20
-10.595019009554251
30
0
40
0.10999999999999986
210
0
220
0
230
1
0
CIRCLE
5
103
100
AcDbEntity
8
0
100
AcDbCircle
10
-3.2140155145983549
20
10.704365258359847
30
0
40
0.10999999999999986
210
0
220
0
230
1
0
CIRCLE
5
104
100
AcDbEntity
8
0
100
AcDbCircle
10
3.1921708489202678
20
10.698657405807033
30
0
40
0.10999999999999943
210
0
220
0
230
1
0
LWPOLYLINE
5
105
100
AcDbEntity
8
0
100
AcDbPolyline
90
6
70
1
43
0.0
10
2.1772525135014802
20
-6.0610014514889592
10
2.0416040677553755
20
-6.295951451488957
10
2.1772525135014802
20
-6.5309014514889618
10
2.4485494049936807
20
-6.5309014514889618
10
2.5841978507397849
20
-6.2959514514889605
10
2.4485494049936842
20
-6.0610014514889592
0
LWPOLYLINE
5
106
100
AcDbEntity
8
0
100
AcDbPolyline
90
6
70
1
43
0.0
10
3.0292713997553742
20
-6.1956214514889574
10
2.7579745082631701
20
-6.1956214514889574
10
2.6223260625170672
20
-5.960671451488964
10
2.7579745082631666
20
-5.7257214514889663
10
3.0292713997553742
20
-5.7257214514889663
10
3.164919845501478
20
-5.960671451488964
0
LWPOLYLINE
5
107
100
AcDbEntity
8
0
100
AcDbPolyline
90
6
70
1
43
0.0
10
3.0292713997553742
20
-6.3962814514889601
10
3.1649198455014744
20
-6.6312314514889614
10
3.0292713997553777
20
-6.8661814514889592
10
2.7579745082631719
20
-6.8661814514889592
10
2.6223260625170672
20
-6.6312314514889579
10
2.7579745082631648
20
-6.3962814514889601
0
LWPOLYLINE
5
108
100
AcDbEntity
8
0
100
AcDbPolyline
90
6
70
1
43
0.0
10
0.4350865292163969
20
-6.3962814514889601
10
0.2994380834702941
20
-6.6312314514889614
10
0.43508652921639684
20
-6.8661814514889592
10
0.70638342070860261
20
-6.8661814514889592
10
0.84203186645470884
20
-6.6312314514889579
10
0.70638342070860438
20
-6.3962814514889601
0
LWPOLYLINE
5
109
100
AcDbEntity
8
0
100
AcDbPolyline
90
6
70
1
43
0.0
10
1.2871054154702941
20
-6.5309014514889618
10
1.0158085239780903
20
-6.5309014514889618
10
0.88016007823198938
20
-6.2959514514889605
10
1.0158085239780903
20
-6.0610014514889592
10
1.2871054154702941
20
-6.0610014514889592
10
1.4227538612163988
20
-6.295951451488957
0
LWPOLYLINE
5
110
100
AcDbEntity
8
0
100
AcDbPolyline
90
6
70
1
43
0.0
10
0.70638342070860616
20
-5.7257214514889663
10
0.43508652921640045
20
-5.7257214514889663
10
0.29943808347029416
20
-5.960671451488964
10
0.4350865292163969
20
-6.1956214514889574
10
0.70638342070860261
20
-6.1956214514889574
10
0.84203186645470884
20
-5.960671451488964
0
LWPOLYLINE
5
111
100
AcDbEntity
8
0
100
AcDbPolyline
90
6
70
1
43
0.0
10
1.8678274102319892
20
-6.8661814514889592
10
1.5965305187397871
20
-6.8661814514889592
10
1.4608820729936829
20
-6.6312314514889579
10
1.5965305187397818
20
-6.3962814514889601
10
1.8678274102319874
20
-6.3962814514889601
10
2.0034758559780883
20
-6.6312314514889614
0
LWPOLYLINE
5
112
100
AcDbEntity
8
0
100
AcDbPolyline
90
6
70
1
43
0.0
10
0.26130987169301367
20
-6.295951451488957
10
0.12566142594691093
20
-6.0610014514889592
10
-0.14563546554529463
20
-6.0610014514889592
10
-0.28128391129139918
20
-6.295951451488957
10
-0.14563546554529289
20
-6.5309014514889583
10
0.12566142594691088
20
-6.5309014514889618
0
LWPOLYLINE
5
113
100
AcDbEntity
8
0
100
AcDbPolyline
90
6
70
1
43
0.0
10
-2.06157810735376
20
-6.9665114514889623
10
-2.1972265530998629
20
-7.2014614514889601
10
-2.4685234445920687
20
-7.2014614514889601
10
-2.6041718903381716
20
-6.9665114514889623
10
-2.4685234445920705
20
-6.731561451488961
10
-2.1972265530998647
20
-6.731561451488961
0
LWPOLYLINE
5
114
100
AcDbEntity
8
0
100
AcDbPolyline
90
6
70
1
43
0.0
10
-1.0357825635764759
20
-7.2014614514889601
10
-0.90013411783037478
20
-6.9665114514889623
10
-1.0357825635764759
20
-6.731561451488961
10
-1.3070794550686815
20
-6.731561451488961
10
-1.442727900814786
20
-6.9665114514889588
10
-1.3070794550686815
20
-7.2014614514889601
0
LWPOLYLINE
5
115
100
AcDbEntity
8
0
100
AcDbPolyline
90
6
70
1
43
0.0
10
2.0416040677553755
20
-6.9665114514889623
10
2.1772525135014802
20
-6.731561451488961
10
2.4485494049936825
20
-6.731561451488961
10
2.5841978507397849
20
-6.9665114514889588
10
2.4485494049936825
20
-7.2014614514889601
10
2.1772525135014802
20
-7.2014614514889601
0
LWPOLYLINE
5
116
100
AcDbEntity
8
0
100
AcDbPolyline
90
6
70
1
43
0.0
10
-3.184893885099862
20
-3.9489914514889586
10
-3.0492454393537582
20
-4.1839414514889599
10
-2.7779485478615582
20
-4.1839414514889635
10
-2.6423001021154531
20
-3.9489914514889621
10
-2.777948547861556
20
-3.7140414514889608
10
-3.0492454393537596
20
-3.7140414514889608
0
LWPOLYLINE
5
117
100
AcDbEntity
8
0
100
AcDbPolyline
90
6
70
1
43
0.0
10
1.4227538612163988
20
-6.9665114514889623
10
1.2871054154702959
20
-6.731561451488961
10
1.0158085239780921
20
-6.731561451488961
10
0.88016007823198761
20
-6.9665114514889623
10
1.0158085239780901
20
-7.2014614514889601
10
1.2871054154702941
20
-7.2014614514889601
0
LWPOLYLINE
5
118
100
AcDbEntity
8
0
100
AcDbPolyline
90
6
70
1
43
0.0
10
-0.2812839112913974
20
-6.9665114514889623
10
-0.14563546554529289
20
-6.731561451488961
10
0.12566142594691088
20
-6.731561451488961
10
0.26130987169301367
20
-6.9665114514889623
10
0.12566142594691088
20
-7.2014614514889601
10
-0.14563546554529469
20
-7.2014614514889601
0
LWPOLYLINE
5
119
100
AcDbEntity
8
0
100
AcDbPolyline
90
6
70
1
43
0.0
10
0.12566142594691104
20
-3.848661451488959
10
0.26130987169301384
20
-3.6137114514889648
10
0.12566142594691107
20
-3.3787614514889635
10
-0.1456354655452945
20
-3.3787614514889635
10
-0.28128391129139729
20
-3.6137114514889648
10
-0.14563546554529275
20
-3.848661451488959
0
LWPOLYLINE
5
120
100
AcDbEntity
8
0
100
AcDbPolyline
90
6
70
1
43
0.0
10
0.70638342070860616
20
-3.7140414514889608
10
0.43508652921640056
20
-3.7140414514889608
10
0.29943808347029427
20
-3.9489914514889621
10
0.43508652921639701
20
-4.1839414514889635
10
0.70638342070860261
20
-4.1839414514889635
10
0.84203186645470884
20
-3.9489914514889621
0
LWPOLYLINE
5
121
100
AcDbEntity
8
0
100
AcDbPolyline
90
6
70
1
43
0.0
10
-0.72635746030698611
20
-4.1839414514889635
10
-0.86200590605309069
20
-3.9489914514889621
10
-0.72635746030698967
20
-3.7140414514889608
10
-0.45506056881478407
20
-3.7140414514889608
10
-0.31941212306868488
20
-3.9489914514889621
10
-0.45506056881478407
20
-4.1839414514889635
0
LWPOLYLINE
5
122
100
AcDbEntity
8
0
100
AcDbPolyline
90
6
70
1
43
0.0
10
-1.0357825635764757
20
-3.848661451488959
10
-1.3070794550686777
20
-3.848661451488959
10
-1.442727900814784
20
-3.6137114514889648
10
-1.3070794550686813
20
-3.3787614514889635
10
-1.0357825635764757
20
-3.3787614514889635
10
-0.90013411783037656
20
-3.6137114514889648
0
LWPOLYLINE
5
123
100
AcDbEntity
8
0
100
AcDbPolyline
90
6
70
1
43
0.0
10
1.8678274102319894
20
-3.7140414514889608
10
2.0034758559780901
20
-3.9489914514889621
10
1.8678274102319876
20
-4.1839414514889599
10
1.5965305187397874
20
-4.1839414514889635
10
1.4608820729936831
20
-3.9489914514889621
10
1.596530518739782
20
-3.7140414514889608
0
LWPOLYLINE
5
124
100
AcDbEntity
8
0
100
AcDbPolyline
90
6
70
1
43
0.0
10
-2.0234498955764773
20
-3.9489914514889586
10
-1.8878014498303763
20
-3.7140414514889608
10
-1.6165045583381705
20
-3.7140414514889608
10
-1.4808561125920678
20
-3.9489914514889586
10
-1.6165045583381705
20
-4.1839414514889599
10
-1.8878014498303728
20
-4.1839414514889635
0
LWPOLYLINE
5
125
100
AcDbEntity
8
0
100
AcDbPolyline
90
6
70
1
43
0.0
10
-2.6041718903381712
20
-3.6137114514889648
10
-2.4685234445920683
20
-3.848661451488959
10
-2.1972265530998643
20
-3.848661451488959
10
-2.0615781073537596
20
-3.6137114514889648
10
-2.1972265530998607
20
-3.3787614514889635
10
-2.4685234445920683
20
-3.3787614514889635
0
LWPOLYLINE
5
126
100
AcDbEntity
8
0
100
AcDbPolyline
90
6
70
1
43
0.0
10
0.88016007823198761
20
-3.6137114514889648
10
1.0158085239780905
20
-3.3787614514889635
10
1.2871054154702961
20
-3.3787614514889635
10
1.4227538612163972
20
-3.6137114514889683
10
1.2871054154702943
20
-3.848661451488959
10
1.0158085239780923
20
-3.848661451488959
0
LWPOLYLINE
5
127
100
AcDbEntity
8
0
100
AcDbPolyline
90
6
70
1
43
0.0
10
-2.0234498955764773
20
1.4154885485110373
10
-1.8878014498303761
20
1.6504385485110382
10
-1.6165045583381703
20
1.6504385485110382
10
-1.4808561125920676
20
1.4154885485110371
10
-1.6165045583381703
20
1.1805385485110393
10
-1.8878014498303726
20
1.1805385485110429
0
LWPOLYLINE
5
128
100
AcDbEntity
8
0
100
AcDbPolyline
90
6
70
1
43
0.0
10
-0.72635746030698578
20
1.8510985485110445
10
-0.86200590605309035
20
2.0860485485110387
10
-0.72635746030698933
20
2.3209985485110365
10
-0.45506056881478207
20
2.3209985485110365
10
-0.31941212306868111
20
2.0860485485110423
10
-0.45506056881478385
20
1.8510985485110445
0
LWPOLYLINE
5
129
100
AcDbEntity
8
0
100
AcDbPolyline
90
6
70
1
43
0.0
10
-0.45506056881478385
20
1.6504385485110382
10
-0.31941212306868472
20
1.4154885485110371
10
-0.45506056881478391
20
1.1805385485110429
10
-0.72635746030698756
20
1.1805385485110429
10
-0.86200590605309035
20
1.4154885485110407
10
-0.72635746030698933
20
1.6504385485110382
0
LWPOLYLINE
5
130
100
AcDbEntity
8
0
100
AcDbPolyline
90
6
70
1
43
0.0
10
-2.0234498955764773
20
2.0860485485110423
10
-1.8878014498303759
20
2.3209985485110436
10
-1.6165045583381701
20
2.3209985485110365
10
-1.4808561125920674
20
2.0860485485110387
10
-1.6165045583381703
20
1.8510985485110445
10
-1.8878014498303726
20
1.8510985485110445
0
LWPOLYLINE
5
131
100
AcDbEntity
8
0
100
AcDbPolyline
90
6
70
1
43
0.0
10
1.5965305187397825
20
2.3209985485110365
10
1.8678274102319881
20
2.3209985485110365
10
2.0034758559780887
20
2.0860485485110423
10
1.8678274102319878
20
1.851098548511048
10
1.5965305187397876
20
1.8510985485110445
10
1.4608820729936818
20
2.0860485485110423
0
LWPOLYLINE
5
132
100
AcDbEntity
8
0
100
AcDbPolyline
90
6
70
1
43
0.0
10
-1.3070794550686811
20
1.9857185485110391
10
-1.0357825635764755
20
1.9857185485110391
10
-0.90013411783037622
20
1.7507685485110343
10
-1.0357825635764755
20
1.51581854851104
10
-1.3070794550686775
20
1.51581854851104
10
-1.4427279008147837
20
1.7507685485110343
0
LWPOLYLINE
5
133
100
AcDbEntity
8
0
100
AcDbPolyline
90
6
70
1
43
0.0
10
-3.0492454393537596
20
2.3209985485110365
10
-3.1848938850998638
20
2.0860485485110387
10
-3.0492454393537578
20
1.8510985485110483
10
-2.7779485478615578
20
1.8510985485110447
10
-2.6423001021154513
20
2.0860485485110423
10
-2.7779485478615542
20
2.3209985485110436
0
LWPOLYLINE
5
134
100
AcDbEntity
8
0
100
AcDbPolyline
90
6
70
1
43
0.0
10
-2.1972265530998643
20
1.5158185485110403
10
-2.0615781073537596
20
1.7507685485110345
10
-2.1972265530998625
20
1.9857185485110393
10
-2.4685234445920701
20
1.9857185485110393
10
-2.6041718903381712
20
1.7507685485110345
10
-2.4685234445920683
20
1.5158185485110438
0
LWPOLYLINE
5
135
100
AcDbEntity
8
0
100
AcDbPolyline
90
6
70
1
43
0.0
10
-2.777948547861556
20
1.6504385485110384
10
-3.0492454393537596
20
1.6504385485110384
10
-3.184893885099862
20
1.4154885485110373
10
-3.0492454393537578
20
1.1805385485110396
10
-2.777948547861556
20
1.1805385485110431
10
-2.6423001021154531
20
1.4154885485110409
0
LWPOLYLINE
5
136
100
AcDbEntity
8
0
100
AcDbPolyline
90
6
70
1
43
0.0
10
1.2871054154702946
20
0.1746985485110332
10
1.0158085239780905
20
0.1746985485110332
10
0.88016007823198783
20
0.40964854851103089
10
1.0158085239780905
20
0.64459854851102871
10
1.2871054154702963
20
0.64459854851103215
10
1.4227538612163992
20
0.40964854851103089
0
LWPOLYLINE
5
137
100
AcDbEntity
8
0
100
AcDbPolyline
90
6
70
1
43
0.0
10
0.26130987169301401
20
0.40964854851103094
10
0.12566142594691126
20
0.64459854851102871
10
-0.14563546554529433
20
0.64459854851103227
10
-0.2812839112913989
20
0.40964854851103094
10
-0.14563546554529436
20
0.17469854851103325
10
0.12566142594690946
20
0.17469854851103325
0
LWPOLYLINE
5
138
100
AcDbEntity
8
0
100
AcDbPolyline
90
6
70
1
43
0.0
10
2.5841978507397854
20
0.40964854851103077
10
2.4485494049936829
20
0.6445985485110286
10
2.1772525135014806
20
0.64459854851103215
10
2.041604067755376
20
0.40964854851103083
10
2.1772525135014806
20
0.17469854851103314
10
2.4485494049936811
20
0.17469854851103311
0
LWPOLYLINE
5
139
100
AcDbEntity
8
0
100
AcDbPolyline
90
6
70
1
43
0.0
10
1.2871054154702946
20
1.51581854851104
10
1.0158085239780907
20
1.51581854851104
10
0.88016007823198972
20
1.7507685485110343
10
1.0158085239780925
20
1.9857185485110391
10
1.2871054154702963
20
1.9857185485110391
10
1.4227538612163975
20
1.7507685485110343
0
LWPOLYLINE
5
140
100
AcDbEntity
8
0
100
AcDbPolyline
90
6
70
1
43
0.0
10
0.2994380834702946
20
2.0860485485110423
10
0.43508652921639734
20
1.851098548511048
10
0.70638342070859939
20
1.8510985485110445
10
0.8420318664547074
20
2.0860485485110423
10
0.70638342070860471
20
2.3209985485110436
10
0.43508652921639734
20
2.3209985485110365
0
LWPOLYLINE
5
141
100
AcDbEntity
8
0
100
AcDbPolyline
90
6
70
1
43
0.0
10
1.5965305187397822
20
1.6504385485110382
10
1.8678274102319878
20
1.6504385485110382
10
2.0034758559780901
20
1.4154885485110371
10
1.8678274102319896
20
1.1805385485110429
10
1.5965305187397876
20
1.1805385485110429
10
1.4608820729936816
20
1.4154885485110371
0
LWPOLYLINE
5
142
100
AcDbEntity
8
0
100
AcDbPolyline
90
6
70
1
43
0.0
10
-0.14563546554529427
20
1.51581854851104
10
0.12566142594690949
20
1.51581854851104
10
0.26130987169301412
20
1.7507685485110343
10
0.12566142594691132
20
1.9857185485110391
10
-0.14563546554529425
20
1.9857185485110391
10
-0.28128391129139879
20
1.7507685485110343
0
LWPOLYLINE
5
143
100
AcDbEntity
8
0
100
AcDbPolyline
90
6
70
1
43
0.0
10
0.8420318664547074
20
1.4154885485110371
10
0.70638342070860471
20
1.6504385485110382
10
0.4350865292164009
20
1.6504385485110382
10
0.29943808347029455
20
1.4154885485110371
10
0.43508652921639729
20
1.1805385485110429
10
0.70638342070859939
20
1.1805385485110429
0
LWPOLYLINE
5
144
100
AcDbEntity
8
0
100
AcDbPolyline
90
6
70
1
43
0.0
10
2.041604067755376
20
-3.6137114514889648
10
2.1772525135014806
20
-3.848661451488959
10
2.4485494049936811
20
-3.848661451488959
10
2.5841978507397854
20
-3.6137114514889648
10
2.4485494049936829
20
-3.3787614514889635
10
2.1772525135014806
20
-3.3787614514889635
0
LWPOLYLINE
5
145
100
AcDbEntity
8
0
100
AcDbPolyline
90
6
70
1
43
0.0
10
3.1649198455014784
20
-3.9489914514889586
10
3.0292713997553777
20
-4.1839414514889599
10
2.7579745082631701
20
-4.1839414514889635
10
2.6223260625170677
20
-3.9489914514889586
10
2.757974508263167
20
-3.7140414514889608
10
3.0292713997553746
20
-3.7140414514889608
0
LWPOLYLINE
5
146
100
AcDbEntity
8
0
100
AcDbPolyline
90
6
70
1
43
0.0
10
-1.8878014498303728
20
-4.3846014514889626
10
-2.0234498955764777
20
-4.6195514514889604
10
-1.8878014498303763
20
-4.8545014514889617
10
-1.6165045583381705
20
-4.8545014514889653
10
-1.4808561125920678
20
-4.6195514514889604
10
-1.6165045583381705
20
-4.3846014514889626
0
LWPOLYLINE
5
147
100
AcDbEntity
8
0
100
AcDbPolyline
90
6
70
1
43
0.0
10
-2.6423001021154517
20
-4.6195514514889604
10
-2.7779485478615547
20
-4.8545014514889617
10
-3.04924543935376
20
-4.8545014514889653
10
-3.1848938850998643
20
-4.6195514514889604
10
-3.04924543935376
20
-4.3846014514889626
10
-2.7779485478615582
20
-4.3846014514889626
0
LWPOLYLINE
5
148
100
AcDbEntity
8
0
100
AcDbPolyline
90
6
70
1
43
0.0
10
-2.4685234445920705
20
-4.0493214514889653
10
-2.1972265530998647
20
-4.0493214514889653
10
-2.06157810735376
20
-4.2842714514889595
10
-2.1972265530998611
20
-4.5192214514889608
10
-2.4685234445920687
20
-4.5192214514889608
10
-2.6041718903381716
20
-4.284271451488963
0
LWPOLYLINE
5
149
100
AcDbEntity
8
0
100
AcDbPolyline
90
6
70
1
43
0.0
10
0.29943808347029444
20
-0.59619145148896802
10
0.43508652921639723
20
-0.36124145148896675
10
0.70638342070860283
20
-0.3612414514889668
10
0.84203186645470907
20
-0.59619145148896802
10
0.70638342070860638
20
-0.83114145148896923
10
0.43508652921640073
20
-0.83114145148896923
0
LWPOLYLINE
5
150
100
AcDbEntity
8
0
100
AcDbPolyline
90
6
70
1
43
0.0
10
1.2871054154702946
20
-0.02596145148897306
10
1.0158085239780905
20
-0.025961451488973046
10
0.88016007823198961
20
-0.26091145148896366
10
1.0158085239780923
20
-0.49586145148896849
10
1.2871054154702946
20
-0.49586145148896849
10
1.4227538612163975
20
-0.26091145148896366
0
LWPOLYLINE
5
151
100
AcDbEntity
8
0
100
AcDbPolyline
90
6
70
1
43
0.0
10
1.8678274102319896
20
0.30931854851103485
10
1.5965305187397876
20
0.30931854851103485
10
1.4608820729936833
20
0.074368548511033597
10
1.5965305187397822
20
-0.16058145148897124
10
1.8678274102319896
20
-0.16058145148896416
10
2.0034758559780883
20
0.074368548511030017
0
LWPOLYLINE
5
152
100
AcDbEntity
8
0
100
AcDbPolyline
90
6
70
1
43
0.0
10
1.8678274102319896
20
-0.83114145148896934
10
2.0034758559780901
20
-0.59619145148896813
10
1.8678274102319878
20
-0.36124145148896686
10
1.5965305187397876
20
-0.36124145148896686
10
1.4608820729936816
20
-0.59619145148896813
10
1.5965305187397822
20
-0.83114145148896579
0
LWPOLYLINE
5
153
100
AcDbEntity
8
0
100
AcDbPolyline
90
6
70
1
43
0.0
10
-1.0357825635764755
20
-0.025961451488972935
10
-1.3070794550686775
20
-0.025961451488972914
10
-1.4427279008147855
20
-0.26091145148896355
10
-1.3070794550686811
20
-0.49586145148896837
10
-1.0357825635764755
20
-0.49586145148896837
10
-0.90013411783037633
20
-0.26091145148896355
0
LWPOLYLINE
5
154
100
AcDbEntity
8
0
100
AcDbPolyline
90
6
70
1
43
0.0
10
-0.14563546554529436
20
-0.49586145148896843
10
-0.2812839112913989
20
-0.26091145148896361
10
-0.14563546554529255
20
-0.025961451488969431
10
0.12566142594691121
20
-0.025961451488972997
10
0.26130987169301395
20
-0.26091145148896361
10
0.12566142594691121
20
-0.49586145148896843
0
LWPOLYLINE
5
155
100
AcDbEntity
8
0
100
AcDbPolyline
90
6
70
1
43
0.0
10
0.29943808347029449
20
0.074368548511030114
10
0.43508652921639723
20
0.30931854851103141
10
0.70638342070859927
20
0.30931854851103491
10
0.84203186645470907
20
0.074368548511033639
10
0.70638342070860638
20
-0.16058145148896408
10
0.43508652921639723
20
-0.16058145148896408
0
LWPOLYLINE
5
156
100
AcDbEntity
8
0
100
AcDbPolyline
90
6
70
1
43
0.0
10
-1.4427279008147837
20
0.409648548511031
10
-1.3070794550686811
20
0.64459854851102882
10
-1.0357825635764755
20
0.64459854851103238
10
-0.90013411783037633
20
0.409648548511031
10
-1.0357825635764755
20
0.17469854851103331
10
-1.3070794550686775
20
0.17469854851103334
0
LWPOLYLINE
5
157
100
AcDbEntity
8
0
100
AcDbPolyline
90
6
70
1
43
0.0
10
-2.1972265530998607
20
0.64459854851103238
10
-2.4685234445920683
20
0.64459854851103238
10
-2.6041718903381712
20
0.40964854851103111
10
-2.4685234445920683
20
0.17469854851103339
10
-2.1972265530998643
20
0.17469854851103336
10
-2.0615781073537596
20
0.40964854851103105
0
LWPOLYLINE
5
158
100
AcDbEntity
8
0
100
AcDbPolyline
90
6
70
1
43
0.0
10
2.6223260625170677
20
-0.59619145148896813
10
2.757974508263167
20
-0.83114145148896579
10
3.0292713997553746
20
-0.83114145148896934
10
3.1649198455014784
20
-0.59619145148896824
10
3.0292713997553782
20
-0.36124145148896691
10
2.7579745082631724
20
-0.36124145148896691
0
LWPOLYLINE
5
159
100
AcDbEntity
8
0
100
AcDbPolyline
90
6
70
1
43
0.0
10
3.1649198455014784
20
0.074368548511029947
10
3.0292713997553782
20
0.30931854851103124
10
2.7579745082631706
20
0.3093185485110348
10
2.6223260625170677
20
0.074368548511029989
10
2.7579745082631653
20
-0.16058145148896419
10
3.0292713997553746
20
-0.16058145148896422
0
LWPOLYLINE
5
160
100
AcDbEntity
8
0
100
AcDbPolyline
90
6
70
1
43
0.0
10
2.4485494049936847
20
-0.49586145148896854
10
2.1772525135014806
20
-0.49586145148896854
10
2.041604067755376
20
-0.26091145148896372
10
2.1772525135014806
20
-0.025961451488973109
10
2.4485494049936811
20
-0.025961451488973129
10
2.5841978507397854
20
-0.26091145148896377
0
LWPOLYLINE
5
161
100
AcDbEntity
8
0
100
AcDbPolyline
90
6
70
1
43
0.0
10
-2.777948547861556
20
0.30931854851103513
10
-2.6423001021154531
20
0.074368548511033833
10
-2.777948547861556
20
-0.16058145148896388
10
-3.0492454393537596
20
-0.16058145148896388
10
-3.1848938850998638
20
0.074368548511033861
10
-3.0492454393537578
20
0.30931854851103158
0
LWPOLYLINE
5
162
100
AcDbEntity
8
0
100
AcDbPolyline
90
6
70
1
43
0.0
10
0.26130987169301401
20
1.0802085485110362
10
0.12566142594691126
20
0.84525854851103488
10
-0.1456354655452943
20
0.84525854851104198
10
-0.28128391129139885
20
1.0802085485110398
10
-0.14563546554529427
20
1.315158548511034
10
0.12566142594691126
20
1.315158548511034
0
LWPOLYLINE
5
163
100
AcDbEntity
8
0
100
AcDbPolyline
90
6
70
1
43
0.0
10
-3.0492454393537596
20
-0.83114145148896901
10
-3.1848938850998638
20
-0.59619145148896779
10
-3.0492454393537578
20
-0.36124145148896658
10
-2.777948547861556
20
-0.36124145148896658
10
-2.6423001021154531
20
-0.59619145148896791
10
-2.7779485478615542
20
-0.83114145148896557
0
LWPOLYLINE
5
164
100
AcDbEntity
8
0
100
AcDbPolyline
90
6
70
1
43
0.0
10
1.0158085239780923
20
0.84525854851104198
10
1.2871054154702963
20
0.84525854851104187
10
1.4227538612163992
20
1.0802085485110362
10
1.2871054154702963
20
1.3151585485110304
10
1.0158085239780925
20
1.315158548511034
10
0.88016007823198972
20
1.0802085485110398
0
LWPOLYLINE
5
165
100
AcDbEntity
8
0
100
AcDbPolyline
90
6
70
1
43
0.0
10
2.1772525135014806
20
0.84525854851104187
10
2.041604067755376
20
1.0802085485110395
10
2.1772525135014806
20
1.3151585485110338
10
2.4485494049936811
20
1.3151585485110338
10
2.5841978507397854
20
1.0802085485110395
10
2.4485494049936829
20
0.84525854851103477
0
LWPOLYLINE
5
166
100
AcDbEntity
8
0
100
AcDbPolyline
90
6
70
1
43
0.0
10
-1.6165045583381703
20
0.30931854851103507
10
-1.8878014498303726
20
0.30931854851103507
10
-2.0234498955764773
20
0.074368548511033791
10
-1.8878014498303761
20
-0.16058145148897104
10
-1.6165045583381703
20
-0.16058145148896397
10
-1.4808561125920676
20
0.074368548511030211
0
LWPOLYLINE
5
167
100
AcDbEntity
8
0
100
AcDbPolyline
90
6
70
1
43
0.0
10
-0.86200590605309046
20
0.074368548511030183
10
-0.72635746030698944
20
-0.1605814514889711
10
-0.45506056881478218
20
-0.16058145148896402
10
-0.31941212306868122
20
0.074368548511030141
10
-0.45506056881478041
20
0.30931854851103141
10
-0.72635746030698589
20
0.30931854851103502
0
LWPOLYLINE
5
168
100
AcDbEntity
8
0
100
AcDbPolyline
90
6
70
1
43
0.0
10
-2.1972265530998643
20
1.3151585485110342
10
-2.0615781073537596
20
1.08020854851104
10
-2.1972265530998625
20
0.84525854851103499
10
-2.4685234445920701
20
0.8452585485110421
10
-2.6041718903381712
20
1.08020854851104
10
-2.4685234445920701
20
1.3151585485110342
0
LWPOLYLINE
5
169
100
AcDbEntity
8
0
100
AcDbPolyline
90
6
70
1
43
0.0
10
2.6223260625170677
20
0.74492854851103163
10
2.757974508263167
20
0.50997854851103042
10
3.0292713997553746
20
0.50997854851103042
10
3.1649198455014784
20
0.74492854851103152
10
3.0292713997553746
20
0.97987854851103295
10
2.7579745082631706
20
0.97987854851103295
0
LWPOLYLINE
5
170
100
AcDbEntity
8
0
100
AcDbPolyline
90
6
70
1
43
0.0
10
-1.6165045583381703
20
0.50997854851103064
10
-1.4808561125920676
20
0.74492854851103185
10
-1.6165045583381703
20
0.97987854851103318
10
-1.8878014498303726
20
0.97987854851103318
10
-2.0234498955764773
20
0.7449285485110354
10
-1.8878014498303761
20
0.50997854851103064
0
LWPOLYLINE
5
171
100
AcDbEntity
8
0
100
AcDbPolyline
90
6
70
1
43
0.0
10
0.84203186645470729
20
0.74492854851103174
10
0.7063834207086046
20
0.50997854851103053
10
0.43508652921639729
20
0.50997854851103053
10
0.29943808347029455
20
0.74492854851103174
10
0.43508652921639729
20
0.97987854851103307
10
0.70638342070859927
20
0.97987854851103307
0
LWPOLYLINE
5
172
100
AcDbEntity
8
0
100
AcDbPolyline
90
6
70
1
43
0.0
10
-0.72635746030698589
20
-0.36124145148896669
10
-0.86200590605309046
20
-0.59619145148896802
10
-0.72635746030698944
20
-0.83114145148896568
10
-0.45506056881478402
20
-0.83114145148896923
10
-0.31941212306868128
20
-0.59619145148896802
10
-0.45506056881478041
20
-0.36124145148896675
0
LWPOLYLINE
5
173
100
AcDbEntity
8
0
100
AcDbPolyline
90
6
70
1
43
0.0
10
1.8678274102319896
20
0.50997854851103042
10
2.0034758559780901
20
0.74492854851103163
10
1.8678274102319878
20
0.97987854851103295
10
1.5965305187397876
20
0.97987854851103295
10
1.4608820729936816
20
0.74492854851103163
10
1.5965305187397822
20
0.50997854851103042
0
LWPOLYLINE
5
174
100
AcDbEntity
8
0
100
AcDbPolyline
90
6
70
1
43
0.0
10
-2.4685234445920701
20
-0.49586145148896826
10
-2.6041718903381712
20
-0.26091145148896344
10
-2.4685234445920683
20
-0.025961451488969299
10
-2.1972265530998643
20
-0.025961451488972866
10
-2.0615781073537596
20
-0.2609114514889635
10
-2.1972265530998625
20
-0.49586145148896832
0
LWPOLYLINE
5
175
100
AcDbEntity
8
0
100
AcDbPolyline
90
6
70
1
43
0.0
10
-3.184893885099862
20
0.74492854851103196
10
-3.0492454393537578
20
0.97987854851103329
10
-2.777948547861556
20
0.97987854851103318
10
-2.6423001021154531
20
0.7449285485110354
10
-2.7779485478615542
20
0.50997854851103064
10
-3.0492454393537596
20
0.50997854851103075
0
LWPOLYLINE
5
176
100
AcDbEntity
8
0
100
AcDbPolyline
90
6
70
1
43
0.0
10
-2.0234498955764773
20
-0.59619145148896791
10
-1.8878014498303761
20
-0.83114145148896557
10
-1.6165045583381703
20
-0.83114145148896912
10
-1.4808561125920676
20
-0.59619145148896791
10
-1.6165045583381703
20
-0.36124145148896664
10
-1.8878014498303726
20
-0.36124145148896664
0
LWPOLYLINE
5
177
100
AcDbEntity
8
0
100
AcDbPolyline
90
6
70
1
43
0.0
10
-1.3070794550686811
20
0.8452585485110421
10
-1.0357825635764755
20
0.8452585485110421
10
-0.90013411783037622
20
1.0802085485110362
10
-1.0357825635764772
20
1.3151585485110304
10
-1.3070794550686811
20
1.315158548511034
10
-1.4427279008147855
20
1.0802085485110398
0
LWPOLYLINE
5
178
100
AcDbEntity
8
0
100
AcDbPolyline
90
6
70
1
43
0.0
10
-0.86200590605309046
20
0.74492854851103174
10
-0.72635746030698944
20
0.50997854851103053
10
-0.45506056881478213
20
0.50997854851103053
10
-0.31941212306868116
20
0.74492854851103174
10
-0.45506056881478391
20
0.97987854851103307
10
-0.72635746030698589
20
0.97987854851103307
0
LWPOLYLINE
5
179
100
AcDbEntity
8
0
100
AcDbPolyline
90
6
70
1
43
0.0
10
3.1649198455014784
20
2.0860485485110423
10
3.0292713997553782
20
1.8510985485110478
10
2.7579745082631706
20
1.8510985485110443
10
2.6223260625170677
20
2.0860485485110423
10
2.757974508263167
20
2.3209985485110436
10
3.0292713997553746
20
2.3209985485110365
0
LWPOLYLINE
5
180
100
AcDbEntity
8
0
100
AcDbPolyline
90
6
70
1
43
0.0
10
3.0292713997553746
20
1.1805385485110427
10
2.7579745082631706
20
1.1805385485110427
10
2.6223260625170677
20
1.4154885485110404
10
2.7579745082631653
20
1.650438548511038
10
3.0292713997553746
20
1.650438548511038
10
3.1649198455014749
20
1.4154885485110369
0
LWPOLYLINE
5
181
100
AcDbEntity
8
0
100
AcDbPolyline
90
6
70
1
43
0.0
10
2.4485494049936811
20
1.5158185485110398
10
2.5841978507397854
20
1.750768548511034
10
2.4485494049936847
20
1.9857185485110389
10
2.1772525135014806
20
1.9857185485110389
10
2.041604067755376
20
1.750768548511034
10
2.1772525135014806
20
1.5158185485110398
0
LWPOLYLINE
5
182
100
AcDbEntity
8
0
100
AcDbPolyline
90
6
70
1
43
0.0
10
0.12566142594691071
20
-10.084361451488963
10
-0.1456354655452948
20
-10.084361451488963
10
-0.28128391129139757
20
-10.319311451488961
10
-0.14563546554529305
20
-10.554261451488955
10
0.12566142594691071
20
-10.554261451488955
10
0.26130987169301351
20
-10.319311451488961
0
LWPOLYLINE
5
183
100
AcDbEntity
8
0
100
AcDbPolyline
90
6
70
1
43
0.0
10
0.88016007823198739
20
-10.319311451488961
10
1.0158085239780901
20
-10.084361451488963
10
1.2871054154702957
20
-10.084361451488963
10
1.4227538612163986
20
-10.319311451488961
10
1.2871054154702957
20
-10.554261451488955
10
1.0158085239780901
20
-10.554261451488955
0
LWPOLYLINE
5
184
100
AcDbEntity
8
0
100
AcDbPolyline
90
6
70
1
43
0.0
10
-2.4685234445920705
20
-11.895381451488959
10
-2.1972265530998647
20
-11.895381451488959
10
-2.06157810735376
20
-11.660431451488961
10
-2.1972265530998629
20
-11.42548145148896
10
-2.4685234445920687
20
-11.42548145148896
10
-2.6041718903381716
20
-11.660431451488961
0
LWPOLYLINE
5
185
100
AcDbEntity
8
0
100
AcDbPolyline
90
6
70
1
43
0.0
10
1.2871054154702939
20
-11.895381451488959
10
1.0158085239780901
20
-11.895381451488959
10
0.88016007823198728
20
-11.660431451488961
10
1.0158085239780901
20
-11.42548145148896
10
1.2871054154702939
20
-11.42548145148896
10
1.4227538612163968
20
-11.660431451488961
0
LWPOLYLINE
5
186
100
AcDbEntity
8
0
100
AcDbPolyline
90
6
70
1
43
0.0
10
-0.14563546554529491
20
-11.895381451488959
10
0.12566142594690888
20
-11.895381451488959
10
0.26130987169301345
20
-11.660431451488961
10
0.12566142594691065
20
-11.42548145148896
10
-0.14563546554529488
20
-11.42548145148896
10
-0.28128391129139946
20
-11.660431451488961
0
LWPOLYLINE
5
187
100
AcDbEntity
8
0
100
AcDbPolyline
90
6
70
1
43
0.0
10
-0.90013411783037689
20
-11.660431451488961
10
-1.0357825635764779
20
-11.895381451488959
10
-1.3070794550686817
20
-11.895381451488959
10
-1.4427279008147844
20
-11.660431451488961
10
-1.3070794550686817
20
-11.42548145148896
10
-1.0357825635764761
20
-11.42548145148896
0
LWPOLYLINE
5
188
100
AcDbEntity
8
0
100
AcDbPolyline
90
6
70
1
43
0.0
10
2.1772525135014802
20
-10.554261451488955
10
2.4485494049936825
20
-10.554261451488955
10
2.5841978507397849
20
-10.319311451488961
10
2.4485494049936825
20
-10.084361451488963
10
2.1772525135014802
20
-10.084361451488963
10
2.0416040677553755
20
-10.319311451488961
0
LWPOLYLINE
5
189
100
AcDbEntity
8
0
100
AcDbPolyline
90
6
70
1
43
0.0
10
2.4485494049936807
20
-11.895381451488959
10
2.5841978507397849
20
-11.660431451488961
10
2.4485494049936842
20
-11.42548145148896
10
2.1772525135014802
20
-11.42548145148896
10
2.0416040677553755
20
-11.660431451488961
10
2.1772525135014802
20
-11.895381451488959
0
LWPOLYLINE
5
190
100
AcDbEntity
8
0
100
AcDbPolyline
90
6
70
1
43
0.0
10
-1.3070794550686817
20
-10.554261451488955
10
-1.4427279008147862
20
-10.319311451488961
10
-1.3070794550686817
20
-10.084361451488963
10
-1.0357825635764761
20
-10.084361451488963
10
-0.900134117830375
20
-10.319311451488961
10
-1.0357825635764761
20
-10.554261451488955
0
LWPOLYLINE
5
191
100
AcDbEntity
8
0
100
AcDbPolyline
90
6
70
1
43
0.0
10
-2.4685234445920705
20
-10.554261451488955
10
-2.1972265530998647
20
-10.554261451488955
10
-2.06157810735376
20
-10.319311451488961
10
-2.1972265530998611
20
-10.084361451488963
10
-2.4685234445920687
20
-10.084361451488963
10
-2.6041718903381716
20
-10.319311451488961
0
LWPOLYLINE
5
192
100
AcDbEntity
8
0
100
AcDbPolyline
90
6
70
1
43
0.0
10
2.4485494049936842
20
-11.224821451488957
10
2.1772525135014802
20
-11.224821451488957
10
2.0416040677553755
20
-10.989871451488959
10
2.1772525135014802
20
-10.754921451488961
10
2.4485494049936807
20
-10.754921451488961
10
2.5841978507397849
20
-10.989871451488959
0
LWPOLYLINE
5
193
100
AcDbEntity
8
0
100
AcDbPolyline
90
6
70
1
43
0.0
10
1.4227538612163986
20
-10.989871451488959
10
1.2871054154702957
20
-10.754921451488961
10
1.0158085239780901
20
-10.754921451488961
10
0.88016007823198739
20
-10.989871451488959
10
1.0158085239780901
20
-11.224821451488957
10
1.2871054154702957
20
-11.224821451488957
0
LWPOLYLINE
5
194
100
AcDbEntity
8
0
100
AcDbPolyline
90
6
70
1
43
0.0
10
0.29943808347029399
20
-10.654591451488962
10
0.43508652921639679
20
-10.419641451488964
10
0.70638342070859883
20
-10.41964145148896
10
0.84203186645470685
20
-10.654591451488962
10
0.70638342070860416
20
-10.889541451488959
10
0.43508652921640029
20
-10.889541451488959
0
LWPOLYLINE
5
195
100
AcDbEntity
8
0
100
AcDbPolyline
90
6
70
1
43
0.0
10
0.12566142594691068
20
-10.754921451488961
10
0.26130987169301345
20
-10.989871451488959
10
0.12566142594691068
20
-11.224821451488957
10
-0.14563546554529486
20
-11.224821451488957
10
-0.2812839112913994
20
-10.989871451488959
10
-0.14563546554529483
20
-10.754921451488961
0
LWPOLYLINE
5
196
100
AcDbEntity
8
0
100
AcDbPolyline
90
6
70
1
43
0.0
10
0.84203186645470673
20
-11.325151451488956
10
0.70638342070860405
20
-11.560101451488961
10
0.43508652921640023
20
-11.560101451488961
10
0.29943808347029399
20
-11.325151451488956
10
0.43508652921639673
20
-11.090201451488959
10
0.70638342070859872
20
-11.090201451488959
0
LWPOLYLINE
5
197
100
AcDbEntity
8
0
100
AcDbPolyline
90
6
70
1
43
0.0
10
1.8678274102319894
20
-2.3729214514889612
10
1.5965305187397874
20
-2.3729214514889612
10
1.4608820729936831
20
-2.6078714514889625
10
1.596530518739782
20
-2.8428214514889603
10
1.8678274102319876
20
-2.8428214514889603
10
2.0034758559780883
20
-2.6078714514889625
0
LWPOLYLINE
5
198
100
AcDbEntity
8
0
100
AcDbPolyline
90
6
70
1
43
0.0
10
0.29943808347029433
20
-2.6078714514889625
10
0.43508652921639712
20
-2.3729214514889612
10
0.70638342070860272
20
-2.3729214514889612
10
0.84203186645470718
20
-2.6078714514889625
10
0.70638342070860449
20
-2.8428214514889603
10
0.43508652921640062
20
-2.8428214514889603
0
LWPOLYLINE
5
199
100
AcDbEntity
8
0
100
AcDbPolyline
90
6
70
1
43
0.0
10
0.12566142594691107
20
-2.7082014514889656
10
0.2613098716930139
20
-2.9431514514889634
10
0.12566142594691107
20
-3.1781014514889607
10
-0.14563546554529447
20
-3.1781014514889607
10
-0.28128391129139724
20
-2.9431514514889598
10
-0.14563546554529266
20
-2.7082014514889656
0
LWPOLYLINE
5
200
100
AcDbEntity
8
0
100
AcDbPolyline
90
6
70
1
43
0.0
10
0.43508652921639707
20
-3.0434814514889661
10
0.70638342070859905
20
-3.0434814514889661
10
0.84203186645470707
20
-3.2784314514889639
10
0.70638342070860438
20
-3.5133814514889616
10
0.43508652921639701
20
-3.5133814514889616
10
0.29943808347029433
20
-3.2784314514889639
0
LWPOLYLINE
5
201
100
AcDbEntity
8
0
100
AcDbPolyline
90
6
70
1
43
0.0
10
1.2871054154702943
20
-3.1781014514889607
10
1.4227538612163972
20
-2.9431514514889598
10
1.2871054154702943
20
-2.7082014514889656
10
1.0158085239780905
20
-2.7082014514889656
10
0.88016007823198772
20
-2.9431514514889598
10
1.0158085239780923
20
-3.1781014514889607
0
LWPOLYLINE
5
202
100
AcDbEntity
8
0
100
AcDbPolyline
90
6
70
1
43
0.0
10
-0.72635746030698989
20
-10.889541451488959
10
-0.45506056881478268
20
-10.889541451488959
10
-0.31941212306868172
20
-10.654591451488962
10
-0.45506056881478085
20
-10.419641451488964
10
-0.72635746030698634
20
-10.41964145148896
10
-0.86200590605309091
20
-10.654591451488958
0
LWPOLYLINE
5
203
100
AcDbEntity
8
0
100
AcDbPolyline
90
6
70
1
43
0.0
10
2.1772525135014802
20
-9.8837014514889603
10
2.0416040677553755
20
-9.6487514514889625
10
2.1772525135014802
20
-9.4138014514889612
10
2.4485494049936807
20
-9.4138014514889612
10
2.5841978507397849
20
-9.6487514514889625
10
2.4485494049936842
20
-9.8837014514889603
0
LWPOLYLINE
5
204
100
AcDbEntity
8
0
100
AcDbPolyline
90
6
70
1
43
0.0
10
-1.0357825635764761
20
-11.224821451488957
10
-0.900134117830375
20
-10.989871451488959
10
-1.0357825635764779
20
-10.754921451488961
10
-1.3070794550686817
20
-10.754921451488961
10
-1.4427279008147844
20
-10.989871451488959
10
-1.3070794550686817
20
-11.224821451488957
0
LWPOLYLINE
5
205
100
AcDbEntity
8
0
100
AcDbPolyline
90
6
70
1
43
0.0
10
2.7579745082631719
20
-9.7490814514889621
10
2.6223260625170672
20
-9.9840314514889599
10
2.7579745082631666
20
-10.218981451488965
10
3.0292713997553742
20
-10.218981451488965
10
3.164919845501478
20
-9.9840314514889634
10
3.0292713997553777
20
-9.7490814514889657
0
LWPOLYLINE
5
206
100
AcDbEntity
8
0
100
AcDbPolyline
90
6
70
1
43
0.0
10
-2.1972265530998611
20
-11.224821451488957
10
-2.4685234445920687
20
-11.224821451488957
10
-2.6041718903381716
20
-10.989871451488959
10
-2.4685234445920687
20
-10.754921451488961
10
-2.1972265530998647
20
-10.754921451488961
10
-2.06157810735376
20
-10.989871451488959
0
LWPOLYLINE
5
207
100
AcDbEntity
8
0
100
AcDbPolyline
90
6
70
1
43
0.0
10
1.4608820729936809
20
-11.325151451488956
10
1.5965305187397816
20
-11.560101451488961
10
1.8678274102319889
20
-11.560101451488961
10
2.0034758559780896
20
-11.325151451488956
10
1.8678274102319889
20
-11.090201451488959
10
1.5965305187397869
20
-11.090201451488959
0
LWPOLYLINE
5
208
100
AcDbEntity
8
0
100
AcDbPolyline
90
6
70
1
43
0.0
10
-0.45506056881478446
20
-11.090201451488959
10
-0.72635746030698822
20
-11.090201451488959
10
-0.86200590605309102
20
-11.325151451488956
10
-0.72635746030699
20
-11.560101451488961
10
-0.45506056881478452
20
-11.560101451488961
10
-0.31941212306868172
20
-11.325151451488956
0
LWPOLYLINE
5
209
100
AcDbEntity
8
0
100
AcDbPolyline
90
6
70
1
43
0.0
10
1.8678274102319889
20
-10.889541451488959
10
2.0034758559780896
20
-10.654591451488962
10
1.8678274102319889
20
-10.41964145148896
10
1.5965305187397869
20
-10.41964145148896
10
1.4608820729936809
20
-10.654591451488962
10
1.5965305187397816
20
-10.889541451488959
0
LWPOLYLINE
5
210
100
AcDbEntity
8
0
100
AcDbPolyline
90
6
70
1
43
0.0
10
-1.8878014498303768
20
-11.560101451488961
10
-1.616504558338171
20
-11.560101451488961
10
-1.4808561125920683
20
-11.325151451488956
10
-1.616504558338171
20
-11.090201451488959
10
-1.8878014498303732
20
-11.090201451488959
10
-2.0234498955764777
20
-11.325151451488956
0
LWPOLYLINE
5
211
100
AcDbEntity
8
0
100
AcDbPolyline
90
6
70
1
43
0.0
10
-1.616504558338171
20
-10.41964145148896
10
-1.8878014498303732
20
-10.41964145148896
10
-2.0234498955764777
20
-10.654591451488962
10
-1.8878014498303768
20
-10.889541451488959
10
-1.616504558338171
20
-10.889541451488959
10
-1.4808561125920683
20
-10.654591451488962
0
LWPOLYLINE
5
212
100
AcDbEntity
8
0
100
AcDbPolyline
90
6
70
1
43
0.0
10
-2.4685234445920705
20
-9.4138014514889612
10
-2.1972265530998647
20
-9.4138014514889612
10
-2.06157810735376
20
-9.6487514514889625
10
-2.1972265530998611
20
-9.8837014514889603
10
-2.4685234445920705
20
-9.8837014514889603
10
-2.6041718903381716
20
-9.6487514514889625
0
LWPOLYLINE
5
213
100
AcDbEntity
8
0
100
AcDbPolyline
90
6
70
1
43
0.0
10
-0.90013411783037667
20
-8.9781914514889607
10
-1.0357825635764777
20
-9.213141451488962
10
-1.3070794550686815
20
-9.213141451488962
10
-1.442727900814786
20
-8.9781914514889607
10
-1.3070794550686815
20
-8.7432414514889594
10
-1.0357825635764759
20
-8.7432414514889594
0
LWPOLYLINE
5
214
100
AcDbEntity
8
0
100
AcDbPolyline
90
6
70
1
43
0.0
10
1.0158085239780918
20
-9.213141451488962
10
0.88016007823198927
20
-8.9781914514889607
10
1.0158085239780901
20
-8.7432414514889594
10
1.2871054154702941
20
-8.7432414514889594
10
1.422753861216397
20
-8.9781914514889607
10
1.2871054154702959
20
-9.213141451488962
0
LWPOLYLINE
5
215
100
AcDbEntity
8
0
100
AcDbPolyline
90
6
70
1
43
0.0
10
1.0158085239780918
20
-9.4138014514889612
10
0.88016007823198916
20
-9.6487514514889625
10
1.0158085239780901
20
-9.8837014514889603
10
1.2871054154702959
20
-9.8837014514889603
10
1.4227538612163988
20
-9.648751451488959
10
1.2871054154702959
20
-9.4138014514889612
0
LWPOLYLINE
5
216
100
AcDbEntity
8
0
100
AcDbPolyline
90
6
70
1
43
0.0
10
-0.72635746030698634
20
-9.7490814514889621
10
-0.86200590605309091
20
-9.9840314514889599
10
-0.72635746030698989
20
-10.218981451488965
10
-0.45506056881478263
20
-10.218981451488965
10
-0.31941212306868166
20
-9.9840314514889634
10
-0.45506056881478441
20
-9.7490814514889621
0
LWPOLYLINE
5
217
100
AcDbEntity
8
0
100
AcDbPolyline
90
6
70
1
43
0.0
10
2.0034758559780883
20
-9.9840314514889634
10
1.8678274102319874
20
-9.7490814514889657
10
1.5965305187397871
20
-9.7490814514889621
10
1.4608820729936829
20
-9.9840314514889599
10
1.5965305187397816
20
-10.218981451488965
10
1.8678274102319889
20
-10.218981451488965
0
LWPOLYLINE
5
218
100
AcDbEntity
8
0
100
AcDbPolyline
90
6
70
1
43
0.0
10
-0.1456354655452948
20
-9.4138014514889612
10
0.12566142594690899
20
-9.4138014514889612
10
0.26130987169301356
20
-9.6487514514889625
10
0.12566142594691074
20
-9.8837014514889603
10
-0.1456354655452948
20
-9.8837014514889603
10
-0.28128391129139757
20
-9.648751451488959
0
LWPOLYLINE
5
219
100
AcDbEntity
8
0
100
AcDbPolyline
90
6
70
1
43
0.0
10
1.5965305187397818
20
-9.0785214514889603
10
1.8678274102319874
20
-9.0785214514889603
10
2.0034758559780883
20
-9.3134714514889616
10
1.8678274102319874
20
-9.5484214514889594
10
1.5965305187397871
20
-9.5484214514889594
10
1.4608820729936811
20
-9.3134714514889616
0
LWPOLYLINE
5
220
100
AcDbEntity
8
0
100
AcDbPolyline
90
6
70
1
43
0.0
10
-1.6165045583381707
20
-9.0785214514889603
10
-1.4808561125920681
20
-9.3134714514889616
10
-1.6165045583381707
20
-9.5484214514889594
10
-1.887801449830373
20
-9.5484214514889594
10
-2.0234498955764777
20
-9.3134714514889616
10
-1.8878014498303766
20
-9.0785214514889603
0
LWPOLYLINE
5
221
100
AcDbEntity
8
0
100
AcDbPolyline
90
6
70
1
43
0.0
10
-1.4808561125920681
20
-9.9840314514889634
10
-1.6165045583381707
20
-9.7490814514889657
10
-1.887801449830373
20
-9.7490814514889621
10
-2.0234498955764777
20
-9.9840314514889599
10
-1.8878014498303768
20
-10.218981451488965
10
-1.616504558338171
20
-10.218981451488965
0
LWPOLYLINE
5
222
100
AcDbEntity
8
0
100
AcDbPolyline
90
6
70
1
43
0.0
10
-2.7779485478615564
20
-9.5484214514889594
10
-2.6423001021154535
20
-9.3134714514889616
10
-2.7779485478615564
20
-9.0785214514889603
10
-3.04924543935376
20
-9.0785214514889603
10
-3.1848938850998643
20
-9.3134714514889616
10
-3.0492454393537582
20
-9.5484214514889594
0
LWPOLYLINE
5
223
100
AcDbEntity
8
0
100
AcDbPolyline
90
6
70
1
43
0.0
10
2.4485494049936807
20
-9.213141451488962
10
2.5841978507397849
20
-8.9781914514889607
10
2.4485494049936842
20
-8.7432414514889594
10
2.1772525135014802
20
-8.7432414514889594
10
2.0416040677553755
20
-8.9781914514889607
10
2.1772525135014802
20
-9.213141451488962
0
LWPOLYLINE
5
224
100
AcDbEntity
8
0
100
AcDbPolyline
90
6
70
1
43
0.0
10
-0.45506056881478435
20
-9.0785214514889603
10
-0.31941212306868516
20
-9.3134714514889616
10
-0.45506056881478441
20
-9.5484214514889594
10
-0.72635746030698811
20
-9.5484214514889594
10
-0.86200590605309091
20
-9.3134714514889616
10
-0.72635746030698989
20
-9.0785214514889603
0
LWPOLYLINE
5
225
100
AcDbEntity
8
0
100
AcDbPolyline
90
6
70
1
43
0.0
10
-2.4685234445920705
20
-8.7432414514889594
10
-2.6041718903381716
20
-8.9781914514889607
10
-2.4685234445920705
20
-9.213141451488962
10
-2.1972265530998647
20
-9.213141451488962
10
-2.06157810735376
20
-8.9781914514889607
10
-2.1972265530998611
20
-8.7432414514889594
0
LWPOLYLINE
5
226
100
AcDbEntity
8
0
100
AcDbPolyline
90
6
70
1
43
0.0
10
-3.1848938850998625
20
-9.9840314514889634
10
-3.0492454393537582
20
-9.7490814514889657
10
-2.7779485478615582
20
-9.7490814514889621
10
-2.6423001021154535
20
-9.9840314514889599
10
-2.7779485478615564
20
-10.218981451488965
10
-3.04924543935376
20
-10.218981451488965
0
LWPOLYLINE
5
227
100
AcDbEntity
8
0
100
AcDbPolyline
90
6
70
1
43
0.0
10
-1.3070794550686815
20
-9.4138014514889612
10
-1.442727900814786
20
-9.6487514514889625
10
-1.3070794550686815
20
-9.8837014514889603
10
-1.0357825635764759
20
-9.8837014514889603
10
-0.900134117830375
20
-9.6487514514889625
10
-1.0357825635764759
20
-9.4138014514889612
0
LWPOLYLINE
5
228
100
AcDbEntity
8
0
100
AcDbPolyline
90
6
70
1
43
0.0
10
-0.14563546554529477
20
-9.213141451488962
10
0.12566142594690899
20
-9.213141451488962
10
0.26130987169301356
20
-8.9781914514889607
10
0.12566142594691079
20
-8.7432414514889594
10
-0.14563546554529475
20
-8.7432414514889594
10
-0.28128391129139751
20
-8.9781914514889607
0
LWPOLYLINE
5
229
100
AcDbEntity
8
0
100
AcDbPolyline
90
6
70
1
43
0.0
10
0.70638342070860238
20
-9.7490814514889621
10
0.84203186645470862
20
-9.9840314514889599
10
0.70638342070860594
20
-10.218981451488965
10
0.43508652921640034
20
-10.218981451488965
10
0.29943808347029405
20
-9.9840314514889634
10
0.43508652921639679
20
-9.7490814514889621
0
LWPOLYLINE
5
230
100
AcDbEntity
8
0
100
AcDbPolyline
90
6
70
1
43
0.0
10
0.2994380834702941
20
-9.3134714514889616
10
0.43508652921639679
20
-9.5484214514889594
10
0.70638342070860238
20
-9.5484214514889594
10
0.84203186645470862
20
-9.3134714514889616
10
0.70638342070860594
20
-9.0785214514889603
10
0.4350865292164004
20
-9.0785214514889603
0
LWPOLYLINE
5
231
100
AcDbEntity
8
0
100
AcDbPolyline
90
6
70
1
43
0.0
10
2.7579745082631719
20
-9.5484214514889594
10
2.6223260625170672
20
-9.3134714514889616
10
2.7579745082631666
20
-9.0785214514889603
10
3.0292713997553742
20
-9.0785214514889603
10
3.1649198455014744
20
-9.3134714514889616
10
3.0292713997553742
20
-9.5484214514889594
0
LWPOLYLINE
5
232
100
AcDbEntity
8
0
100
AcDbPolyline
90
6
70
1
43
0.0
10
-1.442727900814784
20
-2.9431514514889598
10
-1.3070794550686813
20
-3.1781014514889607
10
-1.0357825635764757
20
-3.1781014514889607
10
-0.90013411783037467
20
-2.9431514514889598
10
-1.0357825635764757
20
-2.7082014514889656
10
-1.3070794550686813
20
-2.7082014514889656
0
LWPOLYLINE
5
233
100
AcDbEntity
8
0
100
AcDbPolyline
90
6
70
1
43
0.0
10
1.8678274102319894
20
-3.0434814514889661
10
1.5965305187397874
20
-3.0434814514889661
10
1.4608820729936813
20
-3.2784314514889639
10
1.596530518739782
20
-3.5133814514889616
10
1.8678274102319894
20
-3.5133814514889616
10
2.0034758559780901
20
-3.2784314514889603
0
LWPOLYLINE
5
234
100
AcDbEntity
8
0
100
AcDbPolyline
90
6
70
1
43
0.0
10
-2.6423001021154513
20
-3.2784314514889639
10
-2.7779485478615542
20
-3.5133814514889616
10
-3.0492454393537596
20
-3.5133814514889616
10
-3.184893885099862
20
-3.2784314514889639
10
-3.0492454393537578
20
-3.0434814514889661
10
-2.777948547861556
20
-3.0434814514889661
0
LWPOLYLINE
5
235
100
AcDbEntity
8
0
100
AcDbPolyline
90
6
70
1
43
0.0
10
-2.777948547861556
20
-2.3729214514889612
10
-2.6423001021154531
20
-2.6078714514889625
10
-2.7779485478615542
20
-2.8428214514889603
10
-3.0492454393537596
20
-2.8428214514889603
10
-3.1848938850998638
20
-2.6078714514889625
10
-3.0492454393537596
20
-2.3729214514889612
0
LWPOLYLINE
5
236
100
AcDbEntity
8
0
100
AcDbPolyline
90
6
70
1
43
0.0
10
3.0292713997553742
20
-8.8778614514889611
10
3.1649198455014744
20
-8.6429114514889598
10
3.0292713997553742
20
-8.407961451488962
10
2.7579745082631719
20
-8.407961451488962
10
2.6223260625170672
20
-8.6429114514889598
10
2.7579745082631666
20
-8.8778614514889611
0
LWPOLYLINE
5
237
100
AcDbEntity
8
0
100
AcDbPolyline
90
6
70
1
43
0.0
10
2.4485494049936842
20
-8.5425814514889602
10
2.1772525135014802
20
-8.5425814514889602
10
2.0416040677553755
20
-8.3076314514889589
10
2.1772525135014802
20
-8.0726814514889611
10
2.4485494049936807
20
-8.0726814514889611
10
2.5841978507397849
20
-8.3076314514889589
0
LWPOLYLINE
5
238
100
AcDbEntity
8
0
100
AcDbPolyline
90
6
70
1
43
0.0
10
2.7579745082631648
20
-8.2073014514889628
10
3.0292713997553742
20
-8.2073014514889628
10
3.164919845501478
20
-7.9723514514889651
10
3.0292713997553742
20
-7.7374014514889602
10
2.7579745082631701
20
-7.7374014514889602
10
2.6223260625170672
20
-7.9723514514889615
0
LWPOLYLINE
5
239
100
AcDbEntity
8
0
100
AcDbPolyline
90
6
70
1
43
0.0
10
-0.726357460306986
20
-2.3729214514889612
10
-0.86200590605309058
20
-2.6078714514889625
10
-0.72635746030698956
20
-2.8428214514889603
10
-0.45506056881478224
20
-2.8428214514889603
10
-0.31941212306868128
20
-2.6078714514889625
10
-0.45506056881478041
20
-2.3729214514889612
0
LWPOLYLINE
5
240
100
AcDbEntity
8
0
100
AcDbPolyline
90
6
70
1
43
0.0
10
-0.45506056881478402
20
-3.0434814514889661
10
-0.72635746030698789
20
-3.0434814514889661
10
-0.86200590605309069
20
-3.2784314514889639
10
-0.72635746030698967
20
-3.5133814514889616
10
-0.4550605688147823
20
-3.5133814514889616
10
-0.31941212306868128
20
-3.2784314514889639
0
LWPOLYLINE
5
241
100
AcDbEntity
8
0
100
AcDbPolyline
90
6
70
1
43
0.0
10
-1.8878014498303728
20
-3.0434814514889661
10
-2.0234498955764773
20
-3.2784314514889639
10
-1.8878014498303763
20
-3.5133814514889616
10
-1.6165045583381705
20
-3.5133814514889616
10
-1.4808561125920678
20
-3.2784314514889639
10
-1.6165045583381705
20
-3.0434814514889661
0
LWPOLYLINE
5
242
100
AcDbEntity
8
0
100
AcDbPolyline
90
6
70
1
43
0.0
10
-2.0234498955764773
20
-2.6078714514889625
10
-1.8878014498303763
20
-2.8428214514889603
10
-1.6165045583381705
20
-2.8428214514889603
10
-1.4808561125920678
20
-2.6078714514889625
10
-1.6165045583381705
20
-2.3729214514889612
10
-1.8878014498303728
20
-2.3729214514889612
0
LWPOLYLINE
5
243
100
AcDbEntity
8
0
100
AcDbPolyline
90
6
70
1
43
0.0
10
-2.4685234445920701
20
-2.7082014514889656
10
-2.1972265530998643
20
-2.7082014514889656
10
-2.0615781073537596
20
-2.9431514514889598
10
-2.1972265530998625
20
-3.1781014514889607
10
-2.4685234445920683
20
-3.1781014514889607
10
-2.6041718903381712
20
-2.9431514514889598
0
LWPOLYLINE
5
244
100
AcDbEntity
8
0
100
AcDbPolyline
90
6
70
1
43
0.0
10
2.7579745082631653
20
-1.7023614514889631
10
3.0292713997553746
20
-1.7023614514889631
10
3.1649198455014749
20
-1.9373114514889644
10
3.0292713997553746
20
-2.172261451488962
10
2.7579745082631706
20
-2.172261451488962
10
2.6223260625170677
20
-1.9373114514889644
0
LWPOLYLINE
5
245
100
AcDbEntity
8
0
100
AcDbPolyline
90
6
70
1
43
0.0
10
-0.28128391129139724
20
-2.2725914514889651
10
-0.14563546554529266
20
-2.5075414514889629
10
0.1256614259469111
20
-2.5075414514889593
10
0.2613098716930139
20
-2.2725914514889616
10
0.1256614259469111
20
-2.0376414514889674
10
-0.14563546554529441
20
-2.0376414514889638
0
LWPOLYLINE
5
246
100
AcDbEntity
8
0
100
AcDbPolyline
90
6
70
1
43
0.0
10
-0.72635746030698956
20
-1.7023614514889629
10
-0.45506056881478218
20
-1.7023614514889629
10
-0.31941212306868122
20
-1.9373114514889642
10
-0.45506056881478396
20
-2.172261451488962
10
-0.72635746030698778
20
-2.172261451488962
10
-0.86200590605309058
20
-1.9373114514889642
0
LWPOLYLINE
5
247
100
AcDbEntity
8
0
100
AcDbPolyline
90
6
70
1
43
0.0
10
1.5965305187397874
20
-2.172261451488962
10
1.4608820729936833
20
-1.9373114514889642
10
1.5965305187397822
20
-1.7023614514889629
10
1.8678274102319896
20
-1.7023614514889629
10
2.0034758559780901
20
-1.9373114514889642
10
1.8678274102319876
20
-2.172261451488962
0
LWPOLYLINE
5
248
100
AcDbEntity
8
0
100
AcDbPolyline
90
6
70
1
43
0.0
10
0.43508652921639712
20
-2.172261451488962
10
0.70638342070859916
20
-2.172261451488962
10
0.84203186645470718
20
-1.9373114514889642
10
0.70638342070860627
20
-1.7023614514889629
10
0.43508652921640067
20
-1.7023614514889629
10
0.29943808347029438
20
-1.9373114514889642
0
LWPOLYLINE
5
249
100
AcDbEntity
8
0
100
AcDbPolyline
90
6
70
1
43
0.0
10
1.0158085239780923
20
-2.0376414514889638
10
1.2871054154702961
20
-2.0376414514889638
10
1.422753861216399
20
-2.2725914514889651
10
1.2871054154702943
20
-2.5075414514889593
10
1.0158085239780905
20
-2.5075414514889593
10
0.88016007823198772
20
-2.2725914514889651
0
LWPOLYLINE
5
250
100
AcDbEntity
8
0
100
AcDbPolyline
90
6
70
1
43
0.0
10
-1.0357825635764757
20
-2.0376414514889638
10
-0.90013411783037467
20
-2.2725914514889616
10
-1.0357825635764757
20
-2.5075414514889593
10
-1.3070794550686777
20
-2.5075414514889593
10
-1.442727900814784
20
-2.2725914514889651
10
-1.3070794550686813
20
-2.0376414514889674
0
LWPOLYLINE
5
251
100
AcDbEntity
8
0
100
AcDbPolyline
90
6
70
1
43
0.0
10
-2.0615781073537596
20
-2.2725914514889651
10
-2.1972265530998625
20
-2.0376414514889674
10
-2.4685234445920683
20
-2.0376414514889638
10
-2.6041718903381712
20
-2.2725914514889651
10
-2.4685234445920701
20
-2.5075414514889593
10
-2.1972265530998643
20
-2.5075414514889593
0
LWPOLYLINE
5
252
100
AcDbEntity
8
0
100
AcDbPolyline
90
6
70
1
43
0.0
10
2.5841978507397854
20
-2.2725914514889651
10
2.4485494049936829
20
-2.0376414514889674
10
2.1772525135014806
20
-2.0376414514889638
10
2.041604067755376
20
-2.2725914514889616
10
2.1772525135014806
20
-2.5075414514889629
10
2.4485494049936829
20
-2.5075414514889593
0
LWPOLYLINE
5
253
100
AcDbEntity
8
0
100
AcDbPolyline
90
6
70
1
43
0.0
10
-1.4808561125920676
20
-1.9373114514889642
10
-1.6165045583381705
20
-2.172261451488962
10
-1.8878014498303728
20
-2.172261451488962
10
-2.0234498955764773
20
-1.937311451488964
10
-1.8878014498303761
20
-1.7023614514889629
10
-1.6165045583381703
20
-1.7023614514889629
0
LWPOLYLINE
5
254
100
AcDbEntity
8
0
100
AcDbPolyline
90
6
70
1
43
0.0
10
0.29943808347029444
20
-1.2667514514889626
10
0.43508652921639718
20
-1.5017014514889604
10
0.70638342070859916
20
-1.5017014514889639
10
0.84203186645470718
20
-1.2667514514889626
10
0.70638342070860449
20
-1.0318014514889648
10
0.43508652921639718
20
-1.0318014514889648
0
LWPOLYLINE
5
255
100
AcDbEntity
8
0
100
AcDbPolyline
90
6
70
1
43
0.0
10
1.8678274102319896
20
-1.5017014514889639
10
1.5965305187397876
20
-1.5017014514889639
10
1.4608820729936833
20
-1.2667514514889662
10
1.5965305187397822
20
-1.0318014514889648
10
1.8678274102319878
20
-1.0318014514889648
10
2.0034758559780883
20
-1.2667514514889626
0
LWPOLYLINE
5
256
100
AcDbEntity
8
0
100
AcDbPolyline
90
6
70
1
43
0.0
10
-0.86200590605309058
20
-1.2667514514889626
10
-0.72635746030698956
20
-1.0318014514889648
10
-0.45506056881478213
20
-1.0318014514889648
10
-0.31941212306868116
20
-1.2667514514889626
10
-0.45506056881478035
20
-1.5017014514889604
10
-0.726357460306986
20
-1.5017014514889639
0
LWPOLYLINE
5
257
100
AcDbEntity
8
0
100
AcDbPolyline
90
6
70
1
43
0.0
10
-2.4685234445920701
20
-1.1664214514889699
10
-2.1972265530998643
20
-1.1664214514889699
10
-2.0615781073537596
20
-0.93147145148896515
10
-2.1972265530998607
20
-0.69652145148896749
10
-2.4685234445920701
20
-0.69652145148896749
10
-2.6041718903381712
20
-0.93147145148896515
0
LWPOLYLINE
5
258
100
AcDbEntity
8
0
100
AcDbPolyline
90
6
70
1
43
0.0
10
-3.0492454393537596
20
-1.5017014514889637
10
-2.7779485478615578
20
-1.5017014514889637
10
-2.6423001021154513
20
-1.2667514514889624
10
-2.7779485478615542
20
-1.0318014514889646
10
-3.0492454393537596
20
-1.0318014514889646
10
-3.1848938850998638
20
-1.2667514514889624
0
LWPOLYLINE
5
259
100
AcDbEntity
8
0
100
AcDbPolyline
90
6
70
1
43
0.0
10
1.2871054154702946
20
-1.1664214514889701
10
1.0158085239780905
20
-1.1664214514889701
10
0.88016007823198783
20
-0.93147145148896526
10
1.0158085239780905
20
-0.6965214514889676
10
1.2871054154702963
20
-0.69652145148896771
10
1.4227538612163992
20
-0.93147145148896537
0
LWPOLYLINE
5
260
100
AcDbEntity
8
0
100
AcDbPolyline
90
6
70
1
43
0.0
10
-1.3070794550686811
20
-0.69652145148896749
10
-1.0357825635764755
20
-0.69652145148896749
10
-0.90013411783037633
20
-0.93147145148896526
10
-1.0357825635764755
20
-1.1664214514889701
10
-1.3070794550686775
20
-1.1664214514889701
10
-1.4427279008147855
20
-0.93147145148896515
0
LWPOLYLINE
5
261
100
AcDbEntity
8
0
100
AcDbPolyline
90
6
70
1
43
0.0
10
-1.6165045583381703
20
-1.5017014514889639
10
-1.8878014498303726
20
-1.5017014514889639
10
-2.0234498955764773
20
-1.266751451488966
10
-1.8878014498303761
20
-1.0318014514889648
10
-1.6165045583381703
20
-1.0318014514889648
10
-1.4808561125920676
20
-1.2667514514889626
0
LWPOLYLINE
5
262
100
AcDbEntity
8
0
100
AcDbPolyline
90
6
70
1
43
0.0
10
-2.777948547861556
20
-2.172261451488962
10
-2.6423001021154531
20
-1.937311451488964
10
-2.777948547861556
20
-1.7023614514889627
10
-3.0492454393537596
20
-1.7023614514889627
10
-3.1848938850998638
20
-1.937311451488964
10
-3.0492454393537578
20
-2.172261451488962
0
LWPOLYLINE
5
263
100
AcDbEntity
8
0
100
AcDbPolyline
90
6
70
1
43
0.0
10
3.0292713997553746
20
-3.0434814514889661
10
2.7579745082631706
20
-3.0434814514889661
10
2.6223260625170677
20
-3.2784314514889639
10
2.757974508263167
20
-3.5133814514889616
10
3.0292713997553746
20
-3.5133814514889616
10
3.1649198455014784
20
-3.2784314514889639
0
LWPOLYLINE
5
264
100
AcDbEntity
8
0
100
AcDbPolyline
90
6
70
1
43
0.0
10
2.7579745082631724
20
-2.3729214514889612
10
2.6223260625170677
20
-2.6078714514889625
10
2.757974508263167
20
-2.8428214514889603
10
3.0292713997553746
20
-2.8428214514889603
10
3.1649198455014784
20
-2.6078714514889625
10
3.0292713997553782
20
-2.3729214514889612
0
LWPOLYLINE
5
265
100
AcDbEntity
8
0
100
AcDbPolyline
90
6
70
1
43
0.0
10
2.4485494049936811
20
-2.7082014514889656
10
2.5841978507397854
20
-2.9431514514889634
10
2.4485494049936847
20
-3.1781014514889607
10
2.1772525135014806
20
-3.1781014514889607
10
2.041604067755376
20
-2.9431514514889598
10
2.1772525135014806
20
-2.7082014514889656
0
LWPOLYLINE
5
266
100
AcDbEntity
8
0
100
AcDbPolyline
90
6
70
1
43
0.0
10
-0.14563546554529436
20
-0.6965214514889676
10
-0.28128391129139896
20
-0.93147145148896526
10
-0.14563546554529261
20
-1.1664214514889701
10
0.12566142594690938
20
-1.1664214514889701
10
0.26130987169301401
20
-0.93147145148896526
10
0.12566142594691118
20
-0.6965214514889676
0
LWPOLYLINE
5
267
100
AcDbEntity
8
0
100
AcDbPolyline
90
6
70
1
43
0.0
10
-2.4685234445920701
20
-1.367081451488962
10
-2.1972265530998643
20
-1.367081451488962
10
-2.0615781073537596
20
-1.6020314514889631
10
-2.1972265530998607
20
-1.8369814514889609
10
-2.4685234445920683
20
-1.8369814514889609
10
-2.6041718903381712
20
-1.6020314514889631
0
LWPOLYLINE
5
268
100
AcDbEntity
8
0
100
AcDbPolyline
90
6
70
1
43
0.0
10
-0.45506056881478429
20
-8.2073014514889628
10
-0.31941212306868511
20
-7.9723514514889615
10
-0.45506056881478074
20
-7.7374014514889637
10
-0.72635746030698622
20
-7.7374014514889602
10
-0.8620059060530908
20
-7.9723514514889615
10
-0.72635746030698978
20
-8.2073014514889628
0
LWPOLYLINE
5
269
100
AcDbEntity
8
0
100
AcDbPolyline
90
6
70
1
43
0.0
10
2.7579745082631724
20
-1.5017014514889642
10
2.6223260625170677
20
-1.2667514514889664
10
2.757974508263167
20
-1.0318014514889651
10
3.0292713997553746
20
-1.0318014514889651
10
3.1649198455014749
20
-1.2667514514889628
10
3.0292713997553746
20
-1.5017014514889642
0
LWPOLYLINE
5
270
100
AcDbEntity
8
0
100
AcDbPolyline
90
6
70
1
43
0.0
10
0.43508652921639679
20
-8.2073014514889628
10
0.29943808347029405
20
-7.9723514514889615
10
0.43508652921639679
20
-7.7374014514889637
10
0.70638342070859894
20
-7.7374014514889602
10
0.84203186645470696
20
-7.9723514514889651
10
0.70638342070860427
20
-8.2073014514889628
0
LWPOLYLINE
5
271
100
AcDbEntity
8
0
100
AcDbPolyline
90
6
70
1
43
0.0
10
1.0158085239780923
20
-1.3670814514889622
10
0.8801600782319895
20
-1.6020314514889598
10
1.0158085239780905
20
-1.8369814514889611
10
1.2871054154702946
20
-1.8369814514889611
10
1.4227538612163975
20
-1.6020314514889633
10
1.2871054154702946
20
-1.3670814514889622
0
LWPOLYLINE
5
272
100
AcDbEntity
8
0
100
AcDbPolyline
90
6
70
1
43
0.0
10
-1.8878014498303766
20
-8.8778614514889611
10
-1.6165045583381707
20
-8.8778614514889611
10
-1.4808561125920681
20
-8.6429114514889598
10
-1.6165045583381707
20
-8.407961451488962
10
-1.887801449830373
20
-8.407961451488962
10
-2.0234498955764777
20
-8.6429114514889633
0
LWPOLYLINE
5
273
100
AcDbEntity
8
0
100
AcDbPolyline
90
6
70
1
43
0.0
10
-2.6423001021154517
20
-7.9723514514889651
10
-2.7779485478615547
20
-8.2073014514889628
10
-3.04924543935376
20
-8.2073014514889628
10
-3.1848938850998643
20
-7.9723514514889615
10
-3.04924543935376
20
-7.7374014514889602
10
-2.7779485478615564
20
-7.7374014514889602
0
LWPOLYLINE
5
274
100
AcDbEntity
8
0
100
AcDbPolyline
90
6
70
1
43
0.0
10
0.84203186645470696
20
-8.6429114514889598
10
0.70638342070860427
20
-8.8778614514889611
10
0.4350865292164004
20
-8.8778614514889611
10
0.29943808347029399
20
-8.6429114514889598
10
0.43508652921639679
20
-8.407961451488962
10
0.70638342070860249
20
-8.407961451488962
0
LWPOLYLINE
5
275
100
AcDbEntity
8
0
100
AcDbPolyline
90
6
70
1
43
0.0
10
0.12566142594691082
20
-8.0726814514889611
10
0.26130987169301356
20
-8.3076314514889589
10
0.12566142594691082
20
-8.5425814514889602
10
-0.14563546554529475
20
-8.5425814514889602
10
-0.28128391129139746
20
-8.3076314514889624
10
-0.14563546554529294
20
-8.0726814514889611
0
LWPOLYLINE
5
276
100
AcDbEntity
8
0
100
AcDbPolyline
90
6
70
1
43
0.0
10
0.12566142594691113
20
-1.8369814514889611
10
-0.14563546554529444
20
-1.8369814514889611
10
-0.28128391129139724
20
-1.6020314514889633
10
-0.14563546554529441
20
-1.3670814514889622
10
0.12566142594691115
20
-1.3670814514889622
10
0.26130987169301395
20
-1.6020314514889598
0
LWPOLYLINE
5
277
100
AcDbEntity
8
0
100
AcDbPolyline
90
6
70
1
43
0.0
10
-3.1848938850998625
20
-8.6429114514889598
10
-3.0492454393537582
20
-8.407961451488962
10
-2.7779485478615582
20
-8.407961451488962
10
-2.6423001021154535
20
-8.6429114514889633
10
-2.7779485478615564
20
-8.8778614514889611
10
-3.04924543935376
20
-8.8778614514889611
0
LWPOLYLINE
5
278
100
AcDbEntity
8
0
100
AcDbPolyline
90
6
70
1
43
0.0
10
-0.72635746030698622
20
-8.407961451488962
10
-0.8620059060530908
20
-8.6429114514889633
10
-0.72635746030698978
20
-8.8778614514889611
10
-0.45506056881478435
20
-8.8778614514889611
10
-0.31941212306868516
20
-8.6429114514889598
10
-0.45506056881478074
20
-8.407961451488962
0
LWPOLYLINE
5
279
100
AcDbEntity
8
0
100
AcDbPolyline
90
6
70
1
43
0.0
10
-1.4427279008147842
20
-8.3076314514889624
10
-1.3070794550686815
20
-8.5425814514889602
10
-1.0357825635764759
20
-8.5425814514889602
10
-0.90013411783037667
20
-8.3076314514889624
10
-1.0357825635764777
20
-8.0726814514889611
10
-1.3070794550686815
20
-8.0726814514889611
0
LWPOLYLINE
5
280
100
AcDbEntity
8
0
100
AcDbPolyline
90
6
70
1
43
0.0
10
2.4485494049936811
20
-1.3670814514889624
10
2.5841978507397854
20
-1.60203145148896
10
2.4485494049936829
20
-1.8369814514889613
10
2.1772525135014806
20
-1.8369814514889613
10
2.041604067755376
20
-1.6020314514889635
10
2.1772525135014806
20
-1.3670814514889695
0
LWPOLYLINE
5
281
100
AcDbEntity
8
0
100
AcDbPolyline
90
6
70
1
43
0.0
10
-2.1972265530998611
20
-8.5425814514889602
10
-2.4685234445920687
20
-8.5425814514889602
10
-2.6041718903381716
20
-8.3076314514889589
10
-2.4685234445920687
20
-8.0726814514889611
10
-2.1972265530998647
20
-8.0726814514889611
10
-2.06157810735376
20
-8.3076314514889624
0
LWPOLYLINE
5
282
100
AcDbEntity
8
0
100
AcDbPolyline
90
6
70
1
43
0.0
10
1.8678274102319892
20
-8.407961451488962
10
1.5965305187397871
20
-8.407961451488962
10
1.4608820729936829
20
-8.6429114514889633
10
1.5965305187397818
20
-8.8778614514889611
10
1.8678274102319892
20
-8.8778614514889611
10
2.0034758559780883
20
-8.6429114514889598
0
LWPOLYLINE
5
283
100
AcDbEntity
8
0
100
AcDbPolyline
90
6
70
1
43
0.0
10
-2.0234498955764777
20
-7.9723514514889651
10
-1.8878014498303766
20
-8.2073014514889628
10
-1.6165045583381707
20
-8.2073014514889628
10
-1.4808561125920681
20
-7.9723514514889651
10
-1.6165045583381707
20
-7.7374014514889637
10
-1.887801449830373
20
-7.7374014514889602
0
LWPOLYLINE
5
284
100
AcDbEntity
8
0
100
AcDbPolyline
90
6
70
1
43
0.0
10
-1.0357825635764755
20
-1.3670814514889622
10
-1.3070794550686775
20
-1.3670814514889622
10
-1.4427279008147837
20
-1.6020314514889633
10
-1.3070794550686811
20
-1.8369814514889611
10
-1.0357825635764755
20
-1.8369814514889611
10
-0.90013411783037467
20
-1.6020314514889633
0
LWPOLYLINE
5
285
100
AcDbEntity
8
0
100
AcDbPolyline
90
6
70
1
43
0.0
10
2.041604067755376
20
-0.93147145148896537
10
2.1772525135014806
20
-1.1664214514889704
10
2.4485494049936829
20
-1.1664214514889704
10
2.5841978507397854
20
-0.93147145148896537
10
2.4485494049936829
20
-0.69652145148896771
10
2.1772525135014806
20
-0.69652145148896771
0
LWPOLYLINE
5
286
100
AcDbEntity
8
0
100
AcDbPolyline
90
6
70
1
43
0.0
10
1.5965305187397871
20
-7.7374014514889602
10
1.4608820729936829
20
-7.9723514514889615
10
1.5965305187397818
20
-8.2073014514889628
10
1.8678274102319874
20
-8.2073014514889628
10
2.0034758559780883
20
-7.9723514514889651
10
1.8678274102319892
20
-7.7374014514889602
0
LWPOLYLINE
5
287
100
AcDbEntity
8
0
100
AcDbPolyline
90
6
70
1
43
0.0
10
1.2871054154702941
20
-8.5425814514889602
10
1.422753861216397
20
-8.3076314514889589
10
1.2871054154702959
20
-8.0726814514889611
10
1.0158085239780901
20
-8.0726814514889611
10
0.8801600782319875
20
-8.3076314514889624
10
1.0158085239780901
20
-8.5425814514889602
0
LWPOLYLINE
5
288
100
AcDbEntity
8
0
100
AcDbPolyline
90
6
70
1
43
0.0
10
2.1772525135014802
20
-5.1897814514889626
10
2.4485494049936825
20
-5.1897814514889626
10
2.5841978507397849
20
-4.9548314514889649
10
2.4485494049936842
20
-4.7198814514889635
10
2.1772525135014802
20
-4.7198814514889635
10
2.0416040677553755
20
-4.9548314514889649
0
LWPOLYLINE
5
289
100
AcDbEntity
8
0
100
AcDbPolyline
90
6
70
1
43
0.0
10
-1.442727900814784
20
-4.9548314514889649
10
-1.3070794550686813
20
-4.71988145148896
10
-1.0357825635764757
20
-4.7198814514889635
10
-0.90013411783037645
20
-4.9548314514889649
10
-1.0357825635764775
20
-5.1897814514889591
10
-1.3070794550686813
20
-5.1897814514889626
0
LWPOLYLINE
5
290
100
AcDbEntity
8
0
100
AcDbPolyline
90
6
70
1
43
0.0
10
0.88016007823198772
20
-4.9548314514889649
10
1.0158085239780905
20
-4.71988145148896
10
1.2871054154702961
20
-4.7198814514889635
10
1.422753861216399
20
-4.9548314514889649
10
1.2871054154702961
20
-5.1897814514889591
10
1.0158085239780921
20
-5.1897814514889626
0
LWPOLYLINE
5
291
100
AcDbEntity
8
0
100
AcDbPolyline
90
6
70
1
43
0.0
10
-0.28128391129139735
20
-4.9548314514889649
10
-0.1456354655452928
20
-5.1897814514889591
10
0.12566142594691096
20
-5.1897814514889626
10
0.26130987169301378
20
-4.9548314514889649
10
0.12566142594691099
20
-4.71988145148896
10
-0.14563546554529455
20
-4.7198814514889635
0
LWPOLYLINE
5
292
100
AcDbEntity
8
0
100
AcDbPolyline
90
6
70
1
43
0.0
10
-2.06157810735376
20
-4.9548314514889649
10
-2.1972265530998629
20
-4.71988145148896
10
-2.4685234445920687
20
-4.7198814514889635
10
-2.6041718903381716
20
-4.9548314514889649
10
-2.4685234445920687
20
-5.1897814514889591
10
-2.1972265530998647
20
-5.1897814514889626
0
LWPOLYLINE
5
293
100
AcDbEntity
8
0
100
AcDbPolyline
90
6
70
1
43
0.0
10
2.1772525135014802
20
-5.8603414514889645
10
2.0416040677553755
20
-5.6253914514889596
10
2.1772525135014802
20
-5.3904414514889689
10
2.4485494049936825
20
-5.3904414514889618
10
2.5841978507397849
20
-5.6253914514889596
10
2.4485494049936825
20
-5.8603414514889645
0
LWPOLYLINE
5
294
100
AcDbEntity
8
0
100
AcDbPolyline
90
6
70
1
43
0.0
10
-1.0357825635764759
20
-7.8720214514889584
10
-1.307079455068678
20
-7.8720214514889584
10
-1.442727900814786
20
-7.6370714514889606
10
-1.3070794550686815
20
-7.4021214514889628
10
-1.0357825635764759
20
-7.4021214514889628
10
-0.90013411783037667
20
-7.6370714514889606
0
LWPOLYLINE
5
295
100
AcDbEntity
8
0
100
AcDbPolyline
90
6
70
1
43
0.0
10
-2.7779485478615564
20
-7.536741451488961
10
-2.6423001021154535
20
-7.3017914514889597
10
-2.7779485478615564
20
-7.0668414514889584
10
-3.04924543935376
20
-7.0668414514889584
10
-3.1848938850998625
20
-7.3017914514889597
10
-3.0492454393537582
20
-7.536741451488961
0
LWPOLYLINE
5
296
100
AcDbEntity
8
0
100
AcDbPolyline
90
6
70
1
43
0.0
10
-2.4685234445920705
20
-7.8720214514889584
10
-2.1972265530998647
20
-7.8720214514889584
10
-2.06157810735376
20
-7.6370714514889606
10
-2.1972265530998629
20
-7.4021214514889628
10
-2.4685234445920705
20
-7.4021214514889628
10
-2.6041718903381716
20
-7.6370714514889606
0
LWPOLYLINE
5
297
100
AcDbEntity
8
0
100
AcDbPolyline
90
6
70
1
43
0.0
10
1.8678274102319892
20
-7.536741451488961
10
1.5965305187397871
20
-7.536741451488961
10
1.4608820729936811
20
-7.3017914514889597
10
1.5965305187397818
20
-7.0668414514889584
10
1.8678274102319874
20
-7.0668414514889584
10
2.0034758559780883
20
-7.3017914514889597
0
LWPOLYLINE
5
298
100
AcDbEntity
8
0
100
AcDbPolyline
90
6
70
1
43
0.0
10
-0.8620059060530908
20
-7.3017914514889597
10
-0.72635746030698978
20
-7.0668414514889584
10
-0.45506056881478424
20
-7.0668414514889584
10
-0.3194121230686815
20
-7.3017914514889597
10
-0.45506056881478074
20
-7.536741451488961
10
-0.72635746030698622
20
-7.536741451488961
0
LWPOLYLINE
5
299
100
AcDbEntity
8
0
100
AcDbPolyline
90
6
70
1
43
0.0
10
1.2871054154702941
20
-7.4021214514889628
10
1.422753861216397
20
-7.6370714514889606
10
1.2871054154702959
20
-7.8720214514889584
10
1.0158085239780901
20
-7.8720214514889584
10
0.88016007823198927
20
-7.6370714514889606
10
1.0158085239780918
20
-7.4021214514889628
0
LWPOLYLINE
5
300
100
AcDbEntity
8
0
100
AcDbPolyline
90
6
70
1
43
0.0
10
-2.0234498955764777
20
-7.3017914514889597
10
-1.8878014498303766
20
-7.0668414514889584
10
-1.6165045583381707
20
-7.0668414514889584
10
-1.4808561125920681
20
-7.3017914514889597
10
-1.6165045583381707
20
-7.536741451488961
10
-1.887801449830373
20
-7.536741451488961
0
LWPOLYLINE
5
301
100
AcDbEntity
8
0
100
AcDbPolyline
90
6
70
1
43
0.0
10
1.2871054154702943
20
-4.0493214514889653
10
1.0158085239780905
20
-4.0493214514889653
10
0.88016007823198938
20
-4.2842714514889595
10
1.0158085239780923
20
-4.5192214514889608
10
1.2871054154702943
20
-4.5192214514889608
10
1.4227538612163972
20
-4.284271451488963
0
LWPOLYLINE
5
302
100
AcDbEntity
8
0
100
AcDbPolyline
90
6
70
1
43
0.0
10
0.26130987169301373
20
-5.6253914514889631
10
0.12566142594691093
20
-5.8603414514889645
10
-0.14563546554529463
20
-5.8603414514889645
10
-0.2812839112913974
20
-5.6253914514889631
10
-0.14563546554529283
20
-5.3904414514889689
10
0.12566142594690916
20
-5.3904414514889618
0
LWPOLYLINE
5
303
100
AcDbEntity
8
0
100
AcDbPolyline
90
6
70
1
43
0.0
10
-0.45506056881478418
20
-5.5250614514889635
10
-0.31941212306868494
20
-5.2901114514889622
10
-0.45506056881478413
20
-5.0551614514889645
10
-0.72635746030698789
20
-5.0551614514889645
10
-0.86200590605309069
20
-5.2901114514889622
10
-0.72635746030698967
20
-5.5250614514889671
0
LWPOLYLINE
5
304
100
AcDbEntity
8
0
100
AcDbPolyline
90
6
70
1
43
0.0
10
-2.1972265530998647
20
-5.3904414514889618
10
-2.06157810735376
20
-5.6253914514889596
10
-2.1972265530998611
20
-5.8603414514889645
10
-2.4685234445920687
20
-5.8603414514889645
10
-2.6041718903381716
20
-5.6253914514889631
10
-2.4685234445920687
20
-5.3904414514889689
0
LWPOLYLINE
5
305
100
AcDbEntity
8
0
100
AcDbPolyline
90
6
70
1
43
0.0
10
-1.0357825635764757
20
-4.5192214514889608
10
-0.90013411783037478
20
-4.284271451488963
10
-1.0357825635764757
20
-4.0493214514889653
10
-1.3070794550686777
20
-4.0493214514889653
10
-1.442727900814784
20
-4.284271451488963
10
-1.3070794550686813
20
-4.5192214514889608
0
LWPOLYLINE
5
306
100
AcDbEntity
8
0
100
AcDbPolyline
90
6
70
1
43
0.0
10
-3.1848938850998625
20
-5.2901114514889622
10
-3.0492454393537582
20
-5.0551614514889645
10
-2.7779485478615564
20
-5.0551614514889645
10
-2.6423001021154517
20
-5.2901114514889622
10
-2.7779485478615564
20
-5.5250614514889635
10
-3.04924543935376
20
-5.5250614514889635
0
LWPOLYLINE
5
307
100
AcDbEntity
8
0
100
AcDbPolyline
90
6
70
1
43
0.0
10
-0.45506056881478413
20
-4.8545014514889653
10
-0.31941212306868494
20
-4.6195514514889604
10
-0.45506056881478407
20
-4.3846014514889626
10
-0.72635746030698789
20
-4.3846014514889626
10
-0.86200590605309069
20
-4.6195514514889604
10
-0.72635746030698956
20
-4.8545014514889653
0
LWPOLYLINE
5
308
100
AcDbEntity
8
0
100
AcDbPolyline
90
6
70
1
43
0.0
10
-2.0234498955764777
20
-5.2901114514889622
10
-1.8878014498303763
20
-5.5250614514889671
10
-1.6165045583381705
20
-5.5250614514889635
10
-1.4808561125920678
20
-5.2901114514889622
10
-1.6165045583381705
20
-5.0551614514889645
10
-1.8878014498303728
20
-5.0551614514889645
0
LWPOLYLINE
5
309
100
AcDbEntity
8
0
100
AcDbPolyline
90
6
70
1
43
0.0
10
3.0292713997553742
20
-4.8545014514889653
10
3.1649198455014744
20
-4.6195514514889604
10
3.0292713997553777
20
-4.3846014514889626
10
2.7579745082631719
20
-4.3846014514889626
10
2.6223260625170672
20
-4.6195514514889604
10
2.7579745082631648
20
-4.8545014514889653
0
LWPOLYLINE
5
310
100
AcDbEntity
8
0
100
AcDbPolyline
90
6
70
1
43
0.0
10
2.4485494049936807
20
-4.0493214514889653
10
2.5841978507397849
20
-4.2842714514889595
10
2.4485494049936825
20
-4.5192214514889608
10
2.1772525135014802
20
-4.5192214514889608
10
2.0416040677553755
20
-4.284271451488963
10
2.1772525135014802
20
-4.0493214514889653
0
LWPOLYLINE
5
311
100
AcDbEntity
8
0
100
AcDbPolyline
90
6
70
1
43
0.0
10
0.84203186645470707
20
-5.2901114514889622
10
0.70638342070860438
20
-5.5250614514889671
10
0.4350865292163969
20
-5.5250614514889635
10
0.29943808347029421
20
-5.2901114514889622
10
0.43508652921639696
20
-5.0551614514889645
10
0.70638342070860261
20
-5.0551614514889645
0
LWPOLYLINE
5
312
100
AcDbEntity
8
0
100
AcDbPolyline
90
6
70
1
43
0.0
10
1.422753861216399
20
-5.6253914514889631
10
1.2871054154702961
20
-5.3904414514889689
10
1.0158085239780903
20
-5.3904414514889618
10
0.88016007823198938
20
-5.6253914514889596
10
1.0158085239780921
20
-5.8603414514889645
10
1.2871054154702961
20
-5.8603414514889645
0
LWPOLYLINE
5
313
100
AcDbEntity
8
0
100
AcDbPolyline
90
6
70
1
43
0.0
10
-0.90013411783037656
20
-5.6253914514889631
10
-1.0357825635764775
20
-5.3904414514889689
10
-1.3070794550686813
20
-5.3904414514889618
10
-1.442727900814784
20
-5.6253914514889631
10
-1.3070794550686813
20
-5.8603414514889645
10
-1.0357825635764757
20
-5.8603414514889645
0
LWPOLYLINE
5
314
100
AcDbEntity
8
0
100
AcDbPolyline
90
6
70
1
43
0.0
10
1.5965305187397874
20
-5.0551614514889645
10
1.4608820729936831
20
-5.2901114514889622
10
1.596530518739782
20
-5.5250614514889635
10
1.8678274102319876
20
-5.5250614514889635
10
2.0034758559780883
20
-5.2901114514889622
10
1.8678274102319876
20
-5.0551614514889645
0
LWPOLYLINE
5
315
100
AcDbEntity
8
0
100
AcDbPolyline
90
6
70
1
43
0.0
10
0.43508652921639701
20
-4.3846014514889626
10
0.70638342070859905
20
-4.3846014514889626
10
0.84203186645470707
20
-4.6195514514889604
10
0.70638342070860627
20
-4.8545014514889653
10
0.43508652921640051
20
-4.8545014514889653
10
0.29943808347029421
20
-4.6195514514889604
0
LWPOLYLINE
5
316
100
AcDbEntity
8
0
100
AcDbPolyline
90
6
70
1
43
0.0
10
-0.14563546554529455
20
-4.5192214514889608
10
-0.28128391129139907
20
-4.284271451488963
10
-0.14563546554529452
20
-4.0493214514889653
10
0.12566142594691104
20
-4.0493214514889653
10
0.26130987169301378
20
-4.2842714514889595
10
0.12566142594691099
20
-4.5192214514889608
0
LWPOLYLINE
5
317
100
AcDbEntity
8
0
100
AcDbPolyline
90
6
70
1
43
0.0
10
1.5965305187397874
20
-4.3846014514889626
10
1.4608820729936831
20
-4.6195514514889604
10
1.596530518739782
20
-4.8545014514889653
10
1.8678274102319876
20
-4.8545014514889653
10
2.0034758559780883
20
-4.6195514514889604
10
1.8678274102319876
20
-4.3846014514889626
0
LWPOLYLINE
5
318
100
AcDbEntity
8
0
100
AcDbPolyline
90
6
70
1
43
0.0
10
2.6223260625170672
20
-5.2901114514889622
10
2.7579745082631666
20
-5.5250614514889671
10
3.0292713997553742
20
-5.5250614514889635
10
3.164919845501478
20
-5.2901114514889622
10
3.0292713997553777
20
-5.0551614514889645
10
2.7579745082631701
20
-5.0551614514889645
0
LWPOLYLINE
5
319
100
AcDbEntity
8
0
100
AcDbPolyline
90
6
70
1
43
0.0
10
3.0292713997553742
20
-7.0668414514889584
10
3.1649198455014744
20
-7.3017914514889597
10
3.0292713997553742
20
-7.536741451488961
10
2.7579745082631701
20
-7.536741451488961
10
2.6223260625170672
20
-7.3017914514889597
10
2.7579745082631666
20
-7.0668414514889584
0
LWPOLYLINE
5
320
100
AcDbEntity
8
0
100
AcDbPolyline
90
6
70
1
43
0.0
10
2.1772525135014802
20
-7.4021214514889628
10
2.0416040677553755
20
-7.6370714514889606
10
2.1772525135014802
20
-7.8720214514889584
10
2.4485494049936825
20
-7.8720214514889584
10
2.5841978507397849
20
-7.6370714514889606
10
2.4485494049936842
20
-7.4021214514889628
0
LWPOLYLINE
5
321
100
AcDbEntity
8
0
100
AcDbPolyline
90
6
70
1
43
0.0
10
-2.7779485478615564
20
-6.3962814514889601
10
-3.04924543935376
20
-6.3962814514889601
10
-3.1848938850998625
20
-6.6312314514889614
10
-3.0492454393537582
20
-6.8661814514889592
10
-2.7779485478615564
20
-6.8661814514889592
10
-2.6423001021154517
20
-6.6312314514889614
0
LWPOLYLINE
5
322
100
AcDbEntity
8
0
100
AcDbPolyline
90
6
70
1
43
0.0
10
-1.6165045583381707
20
-6.8661814514889592
10
-1.887801449830373
20
-6.8661814514889592
10
-2.0234498955764777
20
-6.6312314514889614
10
-1.8878014498303766
20
-6.3962814514889601
10
-1.6165045583381707
20
-6.3962814514889601
10
-1.4808561125920681
20
-6.6312314514889614
0
LWPOLYLINE
5
323
100
AcDbEntity
8
0
100
AcDbPolyline
90
6
70
1
43
0.0
10
-0.90013411783037656
20
-6.295951451488957
10
-1.0357825635764777
20
-6.5309014514889583
10
-1.3070794550686815
20
-6.5309014514889618
10
-1.442727900814786
20
-6.2959514514889605
10
-1.3070794550686815
20
-6.0610014514889592
10
-1.0357825635764759
20
-6.0610014514889592
0
LWPOLYLINE
5
324
100
AcDbEntity
8
0
100
AcDbPolyline
90
6
70
1
43
0.0
10
-0.72635746030698611
20
-6.8661814514889592
10
-0.86200590605309069
20
-6.6312314514889579
10
-0.72635746030698967
20
-6.3962814514889601
10
-0.45506056881478241
20
-6.3962814514889601
10
-0.3194121230686815
20
-6.6312314514889614
10
-0.45506056881478424
20
-6.8661814514889592
0
LWPOLYLINE
5
325
100
AcDbEntity
8
0
100
AcDbPolyline
90
6
70
1
43
0.0
10
-2.4685234445920705
20
-6.0610014514889592
10
-2.6041718903381716
20
-6.295951451488957
10
-2.4685234445920705
20
-6.5309014514889618
10
-2.1972265530998647
20
-6.5309014514889618
10
-2.06157810735376
20
-6.295951451488957
10
-2.1972265530998629
20
-6.0610014514889592
0
LWPOLYLINE
5
326
100
AcDbEntity
8
0
100
AcDbPolyline
90
6
70
1
43
0.0
10
1.8678274102319892
20
-6.1956214514889574
10
1.5965305187397871
20
-6.1956214514889574
10
1.4608820729936831
20
-5.960671451488964
10
1.596530518739782
20
-5.7257214514889663
10
1.8678274102319894
20
-5.7257214514889663
10
2.0034758559780901
20
-5.960671451488964
0
LWPOLYLINE
5
327
100
AcDbEntity
8
0
100
AcDbPolyline
90
6
70
1
43
0.0
10
-1.6165045583381707
20
-6.1956214514889574
10
-1.887801449830373
20
-6.1956214514889574
10
-2.0234498955764777
20
-5.960671451488964
10
-1.8878014498303763
20
-5.7257214514889663
10
-1.6165045583381705
20
-5.7257214514889663
10
-1.4808561125920678
20
-5.960671451488964
0
LWPOLYLINE
5
328
100
AcDbEntity
8
0
100
AcDbPolyline
90
6
70
1
43
0.0
10
-0.31941212306868144
20
-5.960671451488964
10
-0.45506056881478063
20
-6.1956214514889574
10
-0.72635746030698611
20
-6.1956214514889574
10
-0.86200590605309069
20
-5.960671451488964
10
-0.72635746030698967
20
-5.7257214514889663
10
-0.45506056881478418
20
-5.7257214514889663
0
LWPOLYLINE
5
329
100
AcDbEntity
8
0
100
AcDbPolyline
90
6
70
1
43
0.0
10
-3.1848938850998625
20
-5.960671451488964
10
-3.0492454393537582
20
-6.1956214514889574
10
-2.7779485478615564
20
-6.1956214514889574
10
-2.6423001021154517
20
-5.960671451488964
10
-2.7779485478615547
20
-5.7257214514889663
10
-3.04924543935376
20
-5.7257214514889663
0
LWPOLYLINE
5
330
100
AcDbEntity
8
0
100
AcDbPolyline
90
6
70
1
43
0.0
10
-0.14563546554529472
20
-7.4021214514889628
10
-0.28128391129139924
20
-7.6370714514889606
10
-0.14563546554529472
20
-7.8720214514889584
10
0.12566142594690907
20
-7.8720214514889584
10
0.26130987169301362
20
-7.6370714514889606
10
0.12566142594691088
20
-7.4021214514889628
0
LWPOLYLINE
5
331
100
AcDbEntity
8
0
100
AcDbPolyline
90
6
70
1
43
0.0
10
0.2994380834702941
20
-7.3017914514889597
10
0.43508652921639679
20
-7.536741451488961
10
0.70638342070859894
20
-7.536741451488961
10
0.84203186645470696
20
-7.3017914514889597
10
0.70638342070860605
20
-7.0668414514889584
10
0.4350865292164004
20
-7.0668414514889584
0
LINE
5
332
100
AcDbEntity
8
0
100
AcDbLine
10
3.2747688149095073
20
-9.85221899197707
30
0
11
3.274768814909506
21
9.9754021502305985
31
0
0
LINE
5
333
100
AcDbEntity
8
0
100
AcDbLine
10
-3.3032730747072589
20
9.9754021502306038
30
0
11
-3.3032730747072585
21
-9.8522189919770646
31
0
0
LWPOLYLINE
5
334
100
AcDbEntity
8
0
100
AcDbPolyline
90
4
70
1
43
0.0
10
0.55364370321867806
20
9.5048951652696214
10
0.55364370321867629
20
12.599371027223192
10
-0.39902100121875334
20
12.599371027223194
10
-0.39902100121875145
20
9.5048951652696214
0
LWPOLYLINE
5
335
100
AcDbEntity
8
0
100
AcDbPolyline
90
6
70
1
43
0.0
10
-1.0357825635764755
20
5.5458185485110398
10
-1.3070794550686775
20
5.5458185485110398
10
-1.4427279008147837
20
5.7807685485110341
10
-1.3070794550686811
20
6.0157185485110389
10
-1.0357825635764755
20
6.0157185485110389
10
-0.90013411783037622
20
5.7807685485110341
0
LWPOLYLINE
5
336
100
AcDbEntity
8
0
100
AcDbPolyline
90
6
70
1
43
0.0
10
-1.0357825635764755
20
4.8752585485110425
10
-0.90013411783037622
20
5.1102085485110367
10
-1.0357825635764772
20
5.3451585485110309
10
-1.3070794550686811
20
5.3451585485110344
10
-1.4427279008147855
20
5.1102085485110402
10
-1.3070794550686811
20
4.8752585485110425
0
LWPOLYLINE
5
337
100
AcDbEntity
8
0
100
AcDbPolyline
90
6
70
1
43
0.0
10
-0.72635746030698589
20
5.0098785485110335
10
-0.86200590605309046
20
4.7749285485110322
10
-0.72635746030698944
20
4.5399785485110309
10
-0.45506056881478213
20
4.5399785485110309
10
-0.31941212306868116
20
4.7749285485110322
10
-0.45506056881478391
20
5.0098785485110335
0
LWPOLYLINE
5
338
100
AcDbEntity
8
0
100
AcDbPolyline
90
6
70
1
43
0.0
10
-1.8878014498303759
20
6.3509985485110434
10
-1.6165045583381701
20
6.3509985485110363
10
-1.4808561125920674
20
6.1160485485110385
10
-1.6165045583381703
20
5.8810985485110443
10
-1.8878014498303726
20
5.8810985485110443
10
-2.0234498955764773
20
6.1160485485110421
0
LWPOLYLINE
5
339
100
AcDbEntity
8
0
100
AcDbPolyline
90
6
70
1
43
0.0
10
-0.72635746030698578
20
5.8810985485110443
10
-0.86200590605309035
20
6.1160485485110385
10
-0.72635746030698933
20
6.3509985485110363
10
-0.45506056881478207
20
6.3509985485110363
10
-0.31941212306868111
20
6.1160485485110421
10
-0.45506056881478385
20
5.8810985485110443
0
LWPOLYLINE
5
340
100
AcDbEntity
8
0
100
AcDbPolyline
90
6
70
1
43
0.0
10
1.2871054154702963
20
4.6745985485110326
10
1.4227538612163992
20
4.4396485485110313
10
1.2871054154702946
20
4.2046985485110335
10
1.0158085239780905
20
4.2046985485110335
10
0.88016007823198783
20
4.4396485485110313
10
1.0158085239780905
20
4.6745985485110291
0
LWPOLYLINE
5
341
100
AcDbEntity
8
0
100
AcDbPolyline
90
6
70
1
43
0.0
10
-2.4685234445920683
20
4.6745985485110326
10
-2.6041718903381712
20
4.4396485485110313
10
-2.4685234445920683
20
4.2046985485110335
10
-2.1972265530998643
20
4.2046985485110335
10
-2.0615781073537596
20
4.4396485485110313
10
-2.1972265530998607
20
4.6745985485110326
0
LWPOLYLINE
5
342
100
AcDbEntity
8
0
100
AcDbPolyline
90
6
70
1
43
0.0
10
-1.4808561125920676
20
5.4454885485110376
10
-1.6165045583381703
20
5.2105385485110398
10
-1.8878014498303726
20
5.2105385485110434
10
-2.0234498955764773
20
5.4454885485110376
10
-1.8878014498303761
20
5.680438548511038
10
-1.6165045583381703
20
5.680438548511038
0
LWPOLYLINE
5
343
100
AcDbEntity
8
0
100
AcDbPolyline
90
6
70
1
43
0.0
10
-1.4808561125920676
20
4.7749285485110322
10
-1.6165045583381703
20
5.0098785485110335
10
-1.8878014498303726
20
5.0098785485110335
10
-2.0234498955764773
20
4.7749285485110358
10
-1.8878014498303761
20
4.5399785485110309
10
-1.6165045583381703
20
4.5399785485110309
0
LWPOLYLINE
5
344
100
AcDbEntity
8
0
100
AcDbPolyline
90
6
70
1
43
0.0
10
-0.45506056881478391
20
5.2105385485110434
10
-0.72635746030698756
20
5.2105385485110434
10
-0.86200590605309035
20
5.4454885485110411
10
-0.72635746030698933
20
5.680438548511038
10
-0.45506056881478385
20
5.680438548511038
10
-0.31941212306868472
20
5.4454885485110376
0
LWPOLYLINE
5
345
100
AcDbEntity
8
0
100
AcDbPolyline
90
6
70
1
43
0.0
10
-1.3070794550686811
20
4.6745985485110291
10
-1.0357825635764755
20
4.6745985485110326
10
-0.90013411783037633
20
4.4396485485110313
10
-1.0357825635764755
20
4.2046985485110335
10
-1.3070794550686775
20
4.2046985485110335
10
-1.4427279008147837
20
4.4396485485110313
0
LWPOLYLINE
5
346
100
AcDbEntity
8
0
100
AcDbPolyline
90
6
70
1
43
0.0
10
0.84203186645470729
20
4.7749285485110322
10
0.7063834207086046
20
4.5399785485110309
10
0.43508652921639729
20
4.5399785485110309
10
0.29943808347029455
20
4.7749285485110322
10
0.43508652921639729
20
5.0098785485110335
10
0.70638342070859927
20
5.0098785485110335
0
LWPOLYLINE
5
347
100
AcDbEntity
8
0
100
AcDbPolyline
90
6
70
1
43
0.0
10
-3.0492454393537596
20
4.5399785485110309
10
-3.184893885099862
20
4.7749285485110322
10
-3.0492454393537578
20
5.0098785485110335
10
-2.777948547861556
20
5.0098785485110335
10
-2.6423001021154531
20
4.7749285485110358
10
-2.7779485478615542
20
4.5399785485110309
0
LWPOLYLINE
5
348
100
AcDbEntity
8
0
100
AcDbPolyline
90
6
70
1
43
0.0
10
0.26130987169301401
20
4.4396485485110313
10
0.12566142594691126
20
4.6745985485110291
10
-0.14563546554529433
20
4.6745985485110326
10
-0.2812839112913989
20
4.4396485485110313
10
-0.14563546554529436
20
4.2046985485110335
10
0.12566142594690946
20
4.2046985485110335
0
LWPOLYLINE
5
349
100
AcDbEntity
8
0
100
AcDbPolyline
90
6
70
1
43
0.0
10
1.4608820729936816
20
4.7749285485110322
10
1.5965305187397822
20
4.5399785485110309
10
1.8678274102319896
20
4.5399785485110309
10
2.0034758559780901
20
4.7749285485110322
10
1.8678274102319878
20
5.0098785485110335
10
1.5965305187397876
20
5.0098785485110335
0
LWPOLYLINE
5
350
100
AcDbEntity
8
0
100
AcDbPolyline
90
6
70
1
43
0.0
10
2.6223260625170677
20
4.7749285485110322
10
2.757974508263167
20
4.5399785485110309
10
3.0292713997553746
20
4.5399785485110309
10
3.1649198455014784
20
4.7749285485110313
10
3.0292713997553746
20
5.0098785485110335
10
2.7579745082631706
20
5.0098785485110335
0
LWPOLYLINE
5
351
100
AcDbEntity
8
0
100
AcDbPolyline
90
6
70
1
43
0.0
10
2.5841978507397854
20
4.4396485485110313
10
2.4485494049936829
20
4.6745985485110291
10
2.1772525135014806
20
4.6745985485110326
10
2.041604067755376
20
4.4396485485110313
10
2.1772525135014806
20
4.2046985485110335
10
2.4485494049936811
20
4.2046985485110335
0
LWPOLYLINE
5
352
100
AcDbEntity
8
0
100
AcDbPolyline
90
6
70
1
43
0.0
10
1.5965305187397876
20
5.8810985485110443
10
1.4608820729936818
20
6.1160485485110421
10
1.5965305187397825
20
6.3509985485110363
10
1.8678274102319881
20
6.3509985485110363
10
2.0034758559780887
20
6.1160485485110421
10
1.8678274102319878
20
5.8810985485110479
0
LWPOLYLINE
5
353
100
AcDbEntity
8
0
100
AcDbPolyline
90
6
70
1
43
0.0
10
1.4608820729936816
20
5.4454885485110376
10
1.5965305187397822
20
5.680438548511038
10
1.8678274102319878
20
5.680438548511038
10
2.0034758559780901
20
5.4454885485110376
10
1.8678274102319896
20
5.2105385485110434
10
1.5965305187397876
20
5.2105385485110434
0
LWPOLYLINE
5
354
100
AcDbEntity
8
0
100
AcDbPolyline
90
6
70
1
43
0.0
10
-2.6423001021154513
20
6.1160485485110421
10
-2.7779485478615542
20
6.3509985485110434
10
-3.0492454393537596
20
6.3509985485110363
10
-3.1848938850998638
20
6.1160485485110385
10
-3.0492454393537578
20
5.8810985485110487
10
-2.7779485478615578
20
5.8810985485110452
0
LWPOLYLINE
5
355
100
AcDbEntity
8
0
100
AcDbPolyline
90
6
70
1
43
0.0
10
-2.4685234445920701
20
5.3451585485110344
10
-2.1972265530998643
20
5.3451585485110344
10
-2.0615781073537596
20
5.1102085485110402
10
-2.1972265530998625
20
4.8752585485110354
10
-2.4685234445920701
20
4.8752585485110425
10
-2.6041718903381712
20
5.1102085485110402
0
LWPOLYLINE
5
356
100
AcDbEntity
8
0
100
AcDbPolyline
90
6
70
1
43
0.0
10
-3.0492454393537578
20
5.2105385485110398
10
-2.777948547861556
20
5.2105385485110434
10
-2.6423001021154531
20
5.4454885485110411
10
-2.777948547861556
20
5.6804385485110389
10
-3.0492454393537596
20
5.6804385485110389
10
-3.184893885099862
20
5.4454885485110376
0
LWPOLYLINE
5
357
100
AcDbEntity
8
0
100
AcDbPolyline
90
6
70
1
43
0.0
10
0.43508652921639734
20
5.8810985485110479
10
0.70638342070859939
20
5.8810985485110443
10
0.8420318664547074
20
6.1160485485110421
10
0.70638342070860471
20
6.3509985485110434
10
0.43508652921639734
20
6.3509985485110363
10
0.2994380834702946
20
6.1160485485110421
0
LWPOLYLINE
5
358
100
AcDbEntity
8
0
100
AcDbPolyline
90
6
70
1
43
0.0
10
0.70638342070860471
20
5.680438548511038
10
0.4350865292164009
20
5.680438548511038
10
0.29943808347029455
20
5.4454885485110376
10
0.43508652921639729
20
5.2105385485110434
10
0.70638342070859939
20
5.2105385485110434
10
0.8420318664547074
20
5.4454885485110376
0
LWPOLYLINE
5
359
100
AcDbEntity
8
0
100
AcDbPolyline
90
6
70
1
43
0.0
10
0.12566142594691132
20
6.0157185485110389
10
-0.14563546554529425
20
6.0157185485110389
10
-0.28128391129139879
20
5.7807685485110341
10
-0.14563546554529427
20
5.5458185485110398
10
0.12566142594690949
20
5.5458185485110398
10
0.26130987169301412
20
5.7807685485110341
0
LWPOLYLINE
5
360
100
AcDbEntity
8
0
100
AcDbPolyline
90
6
70
1
43
0.0
10
0.12566142594691126
20
5.3451585485110344
10
0.26130987169301401
20
5.1102085485110367
10
0.12566142594691126
20
4.8752585485110354
10
-0.1456354655452943
20
4.8752585485110425
10
-0.28128391129139885
20
5.1102085485110402
10
-0.14563546554529427
20
5.3451585485110344
0
LWPOLYLINE
5
361
100
AcDbEntity
8
0
100
AcDbPolyline
90
6
70
1
43
0.0
10
-2.1972265530998643
20
5.5458185485110407
10
-2.0615781073537596
20
5.7807685485110349
10
-2.1972265530998625
20
6.0157185485110398
10
-2.4685234445920701
20
6.0157185485110398
10
-2.6041718903381712
20
5.7807685485110349
10
-2.4685234445920683
20
5.5458185485110443
0
LWPOLYLINE
5
362
100
AcDbEntity
8
0
100
AcDbPolyline
90
6
70
1
43
0.0
10
1.2871054154702963
20
6.0157185485110389
10
1.4227538612163975
20
5.7807685485110341
10
1.2871054154702946
20
5.5458185485110398
10
1.0158085239780907
20
5.5458185485110398
10
0.88016007823198972
20
5.7807685485110341
10
1.0158085239780925
20
6.0157185485110389
0
LWPOLYLINE
5
363
100
AcDbEntity
8
0
100
AcDbPolyline
90
6
70
1
43
0.0
10
-0.31941212306868116
20
2.7632485485110374
10
-0.45506056881478035
20
2.5282985485110396
10
-0.726357460306986
20
2.5282985485110361
10
-0.86200590605309058
20
2.7632485485110374
10
-0.72635746030698956
20
2.9981985485110352
10
-0.45506056881478213
20
2.9981985485110352
0
LWPOLYLINE
5
364
100
AcDbEntity
8
0
100
AcDbPolyline
90
6
70
1
43
0.0
10
-0.45506056881478218
20
3.8694185485110362
10
-0.31941212306868122
20
4.1043685485110304
10
-0.45506056881478041
20
4.3393185485110317
10
-0.72635746030698589
20
4.3393185485110353
10
-0.86200590605309046
20
4.1043685485110304
10
-0.72635746030698944
20
3.8694185485110291
0
LWPOLYLINE
5
365
100
AcDbEntity
8
0
100
AcDbPolyline
90
6
70
1
43
0.0
10
-0.31941212306868128
20
3.4338085485110321
10
-0.45506056881478041
20
3.6687585485110334
10
-0.72635746030698589
20
3.6687585485110334
10
-0.86200590605309046
20
3.4338085485110321
10
-0.72635746030698944
20
3.1988585485110343
10
-0.45506056881478402
20
3.1988585485110308
0
LWPOLYLINE
5
366
100
AcDbEntity
8
0
100
AcDbPolyline
90
6
70
1
43
0.0
10
0.88016007823198972
20
5.1102085485110402
10
1.0158085239780923
20
4.8752585485110425
10
1.2871054154702963
20
4.8752585485110425
10
1.4227538612163992
20
5.1102085485110367
10
1.2871054154702963
20
5.3451585485110309
10
1.0158085239780925
20
5.3451585485110344
0
LWPOLYLINE
5
367
100
AcDbEntity
8
0
100
AcDbPolyline
90
6
70
1
43
0.0
10
2.6223260625170677
20
5.4454885485110402
10
2.7579745082631653
20
5.680438548511038
10
3.0292713997553746
20
5.680438548511038
10
3.1649198455014749
20
5.4454885485110367
10
3.0292713997553746
20
5.2105385485110425
10
2.7579745082631706
20
5.2105385485110425
0
LWPOLYLINE
5
368
100
AcDbEntity
8
0
100
AcDbPolyline
90
6
70
1
43
0.0
10
-1.4808561125920676
20
4.1043685485110304
10
-1.6165045583381703
20
4.3393185485110353
10
-1.8878014498303726
20
4.3393185485110353
10
-2.0234498955764773
20
4.1043685485110339
10
-1.8878014498303761
20
3.8694185485110291
10
-1.6165045583381703
20
3.8694185485110362
0
LWPOLYLINE
5
369
100
AcDbEntity
8
0
100
AcDbPolyline
90
6
70
1
43
0.0
10
2.5841978507397854
20
5.7807685485110341
10
2.4485494049936847
20
6.0157185485110389
10
2.1772525135014806
20
6.0157185485110389
10
2.041604067755376
20
5.7807685485110341
10
2.1772525135014806
20
5.5458185485110398
10
2.4485494049936811
20
5.5458185485110398
0
LWPOLYLINE
5
370
100
AcDbEntity
8
0
100
AcDbPolyline
90
6
70
1
43
0.0
10
3.0292713997553746
20
6.3509985485110363
10
3.1649198455014784
20
6.1160485485110421
10
3.0292713997553782
20
5.8810985485110479
10
2.7579745082631706
20
5.8810985485110443
10
2.6223260625170677
20
6.1160485485110421
10
2.757974508263167
20
6.3509985485110434
0
LWPOLYLINE
5
371
100
AcDbEntity
8
0
100
AcDbPolyline
90
6
70
1
43
0.0
10
-1.4427279008147855
20
3.7690885485110366
10
-1.3070794550686811
20
3.5341385485110317
10
-1.0357825635764755
20
3.5341385485110317
10
-0.90013411783037633
20
3.7690885485110366
10
-1.0357825635764755
20
4.0040385485110273
10
-1.3070794550686775
20
4.0040385485110273
0
LWPOLYLINE
5
372
100
AcDbEntity
8
0
100
AcDbPolyline
90
6
70
1
43
0.0
10
1.5965305187397876
20
4.3393185485110353
10
1.4608820729936833
20
4.1043685485110339
10
1.5965305187397822
20
3.8694185485110291
10
1.8678274102319896
20
3.8694185485110362
10
2.0034758559780883
20
4.1043685485110304
10
1.8678274102319896
20
4.3393185485110353
0
LWPOLYLINE
5
373
100
AcDbEntity
8
0
100
AcDbPolyline
90
6
70
1
43
0.0
10
1.5965305187397876
20
3.6687585485110334
10
1.4608820729936816
20
3.4338085485110321
10
1.5965305187397822
20
3.1988585485110343
10
1.8678274102319896
20
3.1988585485110308
10
2.0034758559780901
20
3.4338085485110321
10
1.8678274102319878
20
3.6687585485110334
0
LWPOLYLINE
5
374
100
AcDbEntity
8
0
100
AcDbPolyline
90
6
70
1
43
0.0
10
-2.4685234445920701
20
3.3334785485110325
10
-2.6041718903381712
20
3.0985285485110352
10
-2.4685234445920701
20
2.8635785485110303
10
-2.1972265530998643
20
2.8635785485110303
10
-2.0615781073537596
20
3.0985285485110352
10
-2.1972265530998607
20
3.3334785485110325
0
LWPOLYLINE
5
375
100
AcDbEntity
8
0
100
AcDbPolyline
90
6
70
1
43
0.0
10
1.5965305187397876
20
2.5282985485110361
10
1.4608820729936833
20
2.7632485485110339
10
1.5965305187397822
20
2.9981985485110352
10
1.8678274102319878
20
2.9981985485110352
10
2.0034758559780883
20
2.7632485485110374
10
1.8678274102319896
20
2.5282985485110361
0
LWPOLYLINE
5
376
100
AcDbEntity
8
0
100
AcDbPolyline
90
6
70
1
43
0.0
10
2.5841978507397854
20
5.1102085485110393
10
2.4485494049936829
20
4.8752585485110354
10
2.1772525135014806
20
4.8752585485110425
10
2.041604067755376
20
5.1102085485110393
10
2.1772525135014806
20
5.3451585485110336
10
2.4485494049936811
20
5.3451585485110336
0
LWPOLYLINE
5
377
100
AcDbEntity
8
0
100
AcDbPolyline
90
6
70
1
43
0.0
10
-1.0357825635764755
20
3.3334785485110325
10
-0.90013411783037633
20
3.0985285485110348
10
-1.0357825635764755
20
2.8635785485110299
10
-1.3070794550686775
20
2.8635785485110299
10
-1.4427279008147855
20
3.0985285485110352
10
-1.3070794550686811
20
3.3334785485110325
0
LWPOLYLINE
5
378
100
AcDbEntity
8
0
100
AcDbPolyline
90
6
70
1
43
0.0
10
-2.0234498955764773
20
3.4338085485110321
10
-1.8878014498303761
20
3.1988585485110348
10
-1.6165045583381703
20
3.1988585485110312
10
-1.4808561125920676
20
3.4338085485110321
10
-1.6165045583381703
20
3.6687585485110334
10
-1.8878014498303726
20
3.6687585485110334
0
LWPOLYLINE
5
379
100
AcDbEntity
8
0
100
AcDbPolyline
90
6
70
1
43
0.0
10
-1.8878014498303726
20
2.5282985485110361
10
-2.0234498955764773
20
2.7632485485110343
10
-1.8878014498303761
20
2.9981985485110352
10
-1.6165045583381703
20
2.9981985485110352
10
-1.4808561125920676
20
2.7632485485110374
10
-1.6165045583381703
20
2.5282985485110361
0
LWPOLYLINE
5
380
100
AcDbEntity
8
0
100
AcDbPolyline
90
6
70
1
43
0.0
10
-0.28128391129139896
20
3.0985285485110348
10
-0.14563546554529261
20
2.8635785485110299
10
0.12566142594690938
20
2.8635785485110299
10
0.26130987169301401
20
3.0985285485110348
10
0.12566142594691118
20
3.3334785485110325
10
-0.14563546554529436
20
3.3334785485110325
0
LWPOLYLINE
5
381
100
AcDbEntity
8
0
100
AcDbPolyline
90
6
70
1
43
0.0
10
2.1772525135014806
20
3.3334785485110325
10
2.041604067755376
20
3.0985285485110348
10
2.1772525135014806
20
2.8635785485110299
10
2.4485494049936829
20
2.8635785485110299
10
2.5841978507397854
20
3.0985285485110348
10
2.4485494049936829
20
3.3334785485110325
0
LWPOLYLINE
5
382
100
AcDbEntity
8
0
100
AcDbPolyline
90
6
70
1
43
0.0
10
1.4227538612163992
20
3.0985285485110348
10
1.2871054154702946
20
2.8635785485110299
10
1.0158085239780905
20
2.8635785485110299
10
0.88016007823198783
20
3.0985285485110348
10
1.0158085239780905
20
3.3334785485110325
10
1.2871054154702963
20
3.3334785485110325
0
LWPOLYLINE
5
383
100
AcDbEntity
8
0
100
AcDbPolyline
90
6
70
1
43
0.0
10
0.70638342070860449
20
2.9981985485110352
10
0.43508652921639718
20
2.9981985485110352
10
0.29943808347029444
20
2.7632485485110374
10
0.43508652921639718
20
2.5282985485110396
10
0.70638342070859916
20
2.5282985485110361
10
0.84203186645470718
20
2.7632485485110374
0
LWPOLYLINE
5
384
100
AcDbEntity
8
0
100
AcDbPolyline
90
6
70
1
43
0.0
10
-0.90013411783037467
20
2.4279685485110369
10
-1.0357825635764755
20
2.6629185485110378
10
-1.3070794550686775
20
2.6629185485110378
10
-1.4427279008147837
20
2.4279685485110369
10
-1.3070794550686831
20
2.1930185485110427
10
-1.0357825635764755
20
2.1930185485110427
0
LWPOLYLINE
5
385
100
AcDbEntity
8
0
100
AcDbPolyline
90
6
70
1
43
0.0
10
-2.4685234445920701
20
2.6629185485110383
10
-2.1972265530998643
20
2.6629185485110383
10
-2.0615781073537596
20
2.4279685485110374
10
-2.2000000327825546
20
2.1930185485110427
10
-2.4685234445920701
20
2.1930185485110427
10
-2.6041718903381712
20
2.4279685485110374
0
LWPOLYLINE
5
386
100
AcDbEntity
8
0
100
AcDbPolyline
90
6
70
1
43
0.0
10
0.12566142594691115
20
2.6629185485110378
10
0.26130987169301395
20
2.4279685485110405
10
0.12566142594691132
20
2.1930185485110427
10
-0.1456354655452945
20
2.1930185485110427
10
-0.28128391129139724
20
2.4279685485110369
10
-0.14563546554529441
20
2.6629185485110378
0
LWPOLYLINE
5
387
100
AcDbEntity
8
0
100
AcDbPolyline
90
6
70
1
43
0.0
10
3.1649198455014784
20
4.1043685485110304
10
3.0292713997553782
20
4.3393185485110317
10
2.7579745082631706
20
4.3393185485110353
10
2.6223260625170677
20
4.1043685485110304
10
2.7579745082631653
20
3.8694185485110362
10
3.0292713997553746
20
3.8694185485110362
0
LWPOLYLINE
5
388
100
AcDbEntity
8
0
100
AcDbPolyline
90
6
70
1
43
0.0
10
1.0158085239780905
20
4.0040385485110273
10
0.88016007823198961
20
3.7690885485110366
10
1.0158085239780923
20
3.5341385485110317
10
1.2871054154702946
20
3.5341385485110317
10
1.4227538612163975
20
3.7690885485110366
10
1.2871054154702946
20
4.0040385485110273
0
LWPOLYLINE
5
389
100
AcDbEntity
8
0
100
AcDbPolyline
90
6
70
1
43
0.0
10
-2.6423001021154513
20
2.7632485485110378
10
-2.7779485478615542
20
2.9981985485110356
10
-3.0492454393537596
20
2.9981985485110356
10
-3.1848938850998638
20
2.7632485485110378
10
-3.0492454393537596
20
2.5282985485110365
10
-2.7779485478615578
20
2.5282985485110365
0
LWPOLYLINE
5
390
100
AcDbEntity
8
0
100
AcDbPolyline
90
6
70
1
43
0.0
10
1.4227538612163975
20
2.4279685485110369
10
1.2871054154702946
20
2.6629185485110378
10
1.0158085239780923
20
2.6629185485110378
10
0.8801600782319895
20
2.4279685485110405
10
1.0158085239780925
20
2.1930185485110427
10
1.2871054154702963
20
2.1930185485110427
0
LWPOLYLINE
5
391
100
AcDbEntity
8
0
100
AcDbPolyline
90
6
70
1
43
0.0
10
2.5841978507397854
20
3.7690885485110366
10
2.4485494049936847
20
3.5341385485110317
10
2.1772525135014806
20
3.5341385485110317
10
2.041604067755376
20
3.7690885485110366
10
2.1772525135014806
20
4.0040385485110273
10
2.4485494049936811
20
4.0040385485110273
0
LWPOLYLINE
5
392
100
AcDbEntity
8
0
100
AcDbPolyline
90
6
70
1
43
0.0
10
0.29943808347029449
20
4.1043685485110304
10
0.43508652921639723
20
4.3393185485110317
10
0.70638342070859927
20
4.3393185485110353
10
0.84203186645470907
20
4.1043685485110339
10
0.70638342070860638
20
3.8694185485110362
10
0.43508652921639723
20
3.8694185485110362
0
LWPOLYLINE
5
393
100
AcDbEntity
8
0
100
AcDbPolyline
90
6
70
1
43
0.0
10
-2.777948547861556
20
4.3393185485110353
10
-2.6423001021154531
20
4.1043685485110339
10
-2.777948547861556
20
3.8694185485110362
10
-3.0492454393537596
20
3.8694185485110362
10
-3.1848938850998638
20
4.1043685485110339
10
-3.0492454393537578
20
4.3393185485110317
0
LWPOLYLINE
5
394
100
AcDbEntity
8
0
100
AcDbPolyline
90
6
70
1
43
0.0
10
2.7579745082631724
20
2.5282985485110361
10
2.6223260625170677
20
2.7632485485110339
10
2.757974508263167
20
2.9981985485110352
10
3.0292713997553746
20
2.9981985485110352
10
3.1649198455014749
20
2.7632485485110374
10
3.0292713997553746
20
2.5282985485110361
0
LWPOLYLINE
5
395
100
AcDbEntity
8
0
100
AcDbPolyline
90
6
70
1
43
0.0
10
3.0292713997553782
20
3.6687585485110334
10
2.7579745082631724
20
3.6687585485110334
10
2.6223260625170677
20
3.4338085485110321
10
2.757974508263167
20
3.1988585485110343
10
3.0292713997553746
20
3.1988585485110308
10
3.1649198455014784
20
3.4338085485110321
0
LWPOLYLINE
5
396
100
AcDbEntity
8
0
100
AcDbPolyline
90
6
70
1
43
0.0
10
-3.0492454393537578
20
3.6687585485110334
10
-2.777948547861556
20
3.6687585485110334
10
-2.6423001021154531
20
3.4338085485110321
10
-2.7779485478615542
20
3.1988585485110348
10
-3.0492454393537596
20
3.1988585485110312
10
-3.1848938850998638
20
3.4338085485110326
0
LWPOLYLINE
5
397
100
AcDbEntity
8
0
100
AcDbPolyline
90
6
70
1
43
0.0
10
-2.4685234445920701
20
3.5341385485110322
10
-2.6041718903381712
20
3.7690885485110366
10
-2.4685234445920683
20
4.0040385485110308
10
-2.1972265530998643
20
4.0040385485110273
10
-2.0615781073537596
20
3.7690885485110366
10
-2.1972265530998625
20
3.5341385485110317
0
LWPOLYLINE
5
398
100
AcDbEntity
8
0
100
AcDbPolyline
90
6
70
1
43
0.0
10
2.1772525135014806
20
2.6629185485110307
10
2.4485494049936811
20
2.6629185485110378
10
2.5841978507397854
20
2.42796854851104
10
2.4485494049936847
20
2.1930185485110427
10
2.1772525135014784
20
2.1930185485110427
10
2.041604067755376
20
2.4279685485110365
0
LWPOLYLINE
5
399
100
AcDbEntity
8
0
100
AcDbPolyline
90
6
70
1
43
0.0
10
-0.14563546554529255
20
4.0040385485110308
10
0.12566142594691121
20
4.0040385485110273
10
0.26130987169301395
20
3.7690885485110366
10
0.12566142594691121
20
3.5341385485110317
10
-0.14563546554529436
20
3.5341385485110317
10
-0.2812839112913989
20
3.7690885485110366
0
LWPOLYLINE
5
400
100
AcDbEntity
8
0
100
AcDbPolyline
90
6
70
1
43
0.0
10
0.84203186645470907
20
3.4338085485110321
10
0.70638342070860638
20
3.1988585485110308
10
0.43508652921640073
20
3.1988585485110308
10
0.29943808347029444
20
3.4338085485110321
10
0.43508652921639723
20
3.6687585485110334
10
0.70638342070860283
20
3.6687585485110334
0
LWPOLYLINE
5
401
100
AcDbEntity
8
0
100
AcDbPolyline
90
6
70
1
43
0.0
10
-1.0357825635764755
20
9.5658185485110412
10
-1.3070794550686775
20
9.5658185485110412
10
-1.4427279008147837
20
9.8007685485110354
10
-1.3070794550686811
20
10.03571854851104
10
-1.0357825635764755
20
10.03571854851104
10
-0.90013411783037622
20
9.8007685485110354
0
LWPOLYLINE
5
402
100
AcDbEntity
8
0
100
AcDbPolyline
90
6
70
1
43
0.0
10
-1.0357825635764755
20
8.8952585485110429
10
-0.90013411783037622
20
9.1302085485110371
10
-1.0357825635764772
20
9.3651585485110314
10
-1.3070794550686811
20
9.3651585485110349
10
-1.4427279008147855
20
9.1302085485110407
10
-1.3070794550686811
20
8.8952585485110429
0
LWPOLYLINE
5
403
100
AcDbEntity
8
0
100
AcDbPolyline
90
6
70
1
43
0.0
10
-0.72635746030698589
20
9.029878548511034
10
-0.86200590605309046
20
8.7949285485110327
10
-0.72635746030698944
20
8.5599785485110313
10
-0.45506056881478213
20
8.5599785485110313
10
-0.31941212306868116
20
8.7949285485110327
10
-0.45506056881478391
20
9.029878548511034
0
LWPOLYLINE
5
404
100
AcDbEntity
8
0
100
AcDbPolyline
90
6
70
1
43
0.0
10
-1.8878014498303759
20
10.370998548511045
10
-1.6165045583381701
20
10.370998548511038
10
-1.4808561125920674
20
10.13604854851104
10
-1.6165045583381703
20
9.9010985485110456
10
-1.8878014498303726
20
9.9010985485110456
10
-2.0234498955764773
20
10.136048548511043
0
LWPOLYLINE
5
405
100
AcDbEntity
8
0
100
AcDbPolyline
90
6
70
1
43
0.0
10
-0.72635746030698578
20
9.9010985485110456
10
-0.86200590605309035
20
10.13604854851104
10
-0.72635746030698933
20
10.370998548511038
10
-0.45506056881478207
20
10.370998548511038
10
-0.31941212306868111
20
10.136048548511043
10
-0.45506056881478385
20
9.9010985485110456
0
LWPOLYLINE
5
406
100
AcDbEntity
8
0
100
AcDbPolyline
90
6
70
1
43
0.0
10
1.2871054154702963
20
8.6945985485110331
10
1.4227538612163992
20
8.4596485485110318
10
1.2871054154702946
20
8.224698548511034
10
1.0158085239780905
20
8.224698548511034
10
0.88016007823198783
20
8.4596485485110318
10
1.0158085239780905
20
8.6945985485110295
0
LWPOLYLINE
5
407
100
AcDbEntity
8
0
100
AcDbPolyline
90
6
70
1
43
0.0
10
-2.4685234445920683
20
8.6945985485110331
10
-2.6041718903381712
20
8.4596485485110318
10
-2.4685234445920683
20
8.224698548511034
10
-2.1972265530998643
20
8.224698548511034
10
-2.0615781073537596
20
8.4596485485110318
10
-2.1972265530998607
20
8.6945985485110331
0
LWPOLYLINE
5
408
100
AcDbEntity
8
0
100
AcDbPolyline
90
6
70
1
43
0.0
10
-1.4808561125920676
20
9.465488548511038
10
-1.6165045583381703
20
9.2305385485110403
10
-1.8878014498303726
20
9.2305385485110438
10
-2.0234498955764773
20
9.465488548511038
10
-1.8878014498303761
20
9.7004385485110394
10
-1.6165045583381703
20
9.7004385485110394
0
LWPOLYLINE
5
409
100
AcDbEntity
8
0
100
AcDbPolyline
90
6
70
1
43
0.0
10
-1.4808561125920676
20
8.7949285485110327
10
-1.6165045583381703
20
9.029878548511034
10
-1.8878014498303726
20
9.029878548511034
10
-2.0234498955764773
20
8.7949285485110362
10
-1.8878014498303761
20
8.5599785485110313
10
-1.6165045583381703
20
8.5599785485110313
0
LWPOLYLINE
5
410
100
AcDbEntity
8
0
100
AcDbPolyline
90
6
70
1
43
0.0
10
-0.45506056881478391
20
9.2305385485110438
10
-0.72635746030698756
20
9.2305385485110438
10
-0.86200590605309035
20
9.4654885485110416
10
-0.72635746030698933
20
9.7004385485110394
10
-0.45506056881478385
20
9.7004385485110394
10
-0.31941212306868472
20
9.465488548511038
0
LWPOLYLINE
5
411
100
AcDbEntity
8
0
100
AcDbPolyline
90
6
70
1
43
0.0
10
-1.3070794550686811
20
8.6945985485110295
10
-1.0357825635764755
20
8.6945985485110331
10
-0.90013411783037633
20
8.4596485485110318
10
-1.0357825635764755
20
8.224698548511034
10
-1.3070794550686775
20
8.224698548511034
10
-1.4427279008147837
20
8.4596485485110318
0
LWPOLYLINE
5
412
100
AcDbEntity
8
0
100
AcDbPolyline
90
6
70
1
43
0.0
10
0.84203186645470729
20
8.7949285485110327
10
0.7063834207086046
20
8.5599785485110313
10
0.43508652921639729
20
8.5599785485110313
10
0.29943808347029455
20
8.7949285485110327
10
0.43508652921639729
20
9.029878548511034
10
0.70638342070859927
20
9.029878548511034
0
LWPOLYLINE
5
413
100
AcDbEntity
8
0
100
AcDbPolyline
90
6
70
1
43
0.0
10
-3.0492454393537596
20
8.5599785485110313
10
-3.184893885099862
20
8.7949285485110327
10
-3.0492454393537578
20
9.029878548511034
10
-2.777948547861556
20
9.029878548511034
10
-2.6423001021154531
20
8.7949285485110362
10
-2.7779485478615542
20
8.5599785485110313
0
LWPOLYLINE
5
414
100
AcDbEntity
8
0
100
AcDbPolyline
90
6
70
1
43
0.0
10
0.26130987169301401
20
8.4596485485110318
10
0.12566142594691126
20
8.6945985485110295
10
-0.14563546554529433
20
8.6945985485110331
10
-0.2812839112913989
20
8.4596485485110318
10
-0.14563546554529436
20
8.224698548511034
10
0.12566142594690946
20
8.224698548511034
0
LWPOLYLINE
5
415
100
AcDbEntity
8
0
100
AcDbPolyline
90
6
70
1
43
0.0
10
1.4608820729936816
20
8.7949285485110327
10
1.5965305187397822
20
8.5599785485110313
10
1.8678274102319896
20
8.5599785485110313
10
2.0034758559780901
20
8.7949285485110327
10
1.8678274102319878
20
9.029878548511034
10
1.5965305187397876
20
9.029878548511034
0
LWPOLYLINE
5
416
100
AcDbEntity
8
0
100
AcDbPolyline
90
6
70
1
43
0.0
10
2.6223260625170677
20
8.7949285485110327
10
2.757974508263167
20
8.5599785485110313
10
3.0292713997553746
20
8.5599785485110313
10
3.1649198455014784
20
8.7949285485110327
10
3.0292713997553746
20
9.029878548511034
10
2.7579745082631706
20
9.029878548511034
0
LWPOLYLINE
5
417
100
AcDbEntity
8
0
100
AcDbPolyline
90
6
70
1
43
0.0
10
2.5841978507397854
20
8.4596485485110318
10
2.4485494049936829
20
8.6945985485110295
10
2.1772525135014806
20
8.6945985485110331
10
2.041604067755376
20
8.4596485485110318
10
2.1772525135014806
20
8.224698548511034
10
2.4485494049936811
20
8.224698548511034
0
LWPOLYLINE
5
418
100
AcDbEntity
8
0
100
AcDbPolyline
90
6
70
1
43
0.0
10
1.5965305187397876
20
9.9010985485110456
10
1.4608820729936818
20
10.136048548511043
10
1.5965305187397825
20
10.370998548511038
10
1.8678274102319881
20
10.370998548511038
10
2.0034758559780887
20
10.136048548511043
10
1.8678274102319878
20
9.9010985485110492
0
LWPOLYLINE
5
419
100
AcDbEntity
8
0
100
AcDbPolyline
90
6
70
1
43
0.0
10
1.4608820729936816
20
9.465488548511038
10
1.5965305187397822
20
9.7004385485110394
10
1.8678274102319878
20
9.7004385485110394
10
2.0034758559780901
20
9.465488548511038
10
1.8678274102319896
20
9.2305385485110438
10
1.5965305187397876
20
9.2305385485110438
0
LWPOLYLINE
5
420
100
AcDbEntity
8
0
100
AcDbPolyline
90
6
70
1
43
0.0
10
-2.6423001021154513
20
10.136048548511043
10
-2.7779485478615542
20
10.370998548511045
10
-3.0492454393537596
20
10.370998548511038
10
-3.1848938850998638
20
10.13604854851104
10
-3.0492454393537578
20
9.9010985485110492
10
-2.7779485478615578
20
9.9010985485110456
0
LWPOLYLINE
5
421
100
AcDbEntity
8
0
100
AcDbPolyline
90
6
70
1
43
0.0
10
-2.4685234445920701
20
9.3651585485110349
10
-2.1972265530998643
20
9.3651585485110349
10
-2.0615781073537596
20
9.1302085485110407
10
-2.1972265530998625
20
8.8952585485110358
10
-2.4685234445920701
20
8.8952585485110429
10
-2.6041718903381712
20
9.1302085485110407
0
LWPOLYLINE
5
422
100
AcDbEntity
8
0
100
AcDbPolyline
90
6
70
1
43
0.0
10
-3.0492454393537578
20
9.2305385485110403
10
-2.777948547861556
20
9.2305385485110438
10
-2.6423001021154531
20
9.4654885485110416
10
-2.777948547861556
20
9.7004385485110394
10
-3.0492454393537596
20
9.7004385485110394
10
-3.184893885099862
20
9.465488548511038
0
LWPOLYLINE
5
423
100
AcDbEntity
8
0
100
AcDbPolyline
90
6
70
1
43
0.0
10
0.43508652921639734
20
9.9010985485110492
10
0.70638342070859939
20
9.9010985485110456
10
0.8420318664547074
20
10.136048548511043
10
0.70638342070860471
20
10.370998548511045
10
0.43508652921639734
20
10.370998548511038
10
0.2994380834702946
20
10.136048548511043
0
LWPOLYLINE
5
424
100
AcDbEntity
8
0
100
AcDbPolyline
90
6
70
1
43
0.0
10
0.70638342070860471
20
9.7004385485110394
10
0.4350865292164009
20
9.7004385485110394
10
0.29943808347029455
20
9.465488548511038
10
0.43508652921639729
20
9.2305385485110438
10
0.70638342070859939
20
9.2305385485110438
10
0.8420318664547074
20
9.465488548511038
0
LWPOLYLINE
5
425
100
AcDbEntity
8
0
100
AcDbPolyline
90
6
70
1
43
0.0
10
0.12566142594691126
20
9.3651585485110349
10
0.26130987169301401
20
9.1302085485110371
10
0.12566142594691126
20
8.8952585485110358
10
-0.1456354655452943
20
8.8952585485110429
10
-0.28128391129139885
20
9.1302085485110407
10
-0.14563546554529427
20
9.3651585485110349
0
LWPOLYLINE
5
426
100
AcDbEntity
8
0
100
AcDbPolyline
90
6
70
1
43
0.0
10
-2.1972265530998643
20
9.5658185485110412
10
-2.0615781073537596
20
9.8007685485110354
10
-2.1972265530998625
20
10.03571854851104
10
-2.4685234445920701
20
10.03571854851104
10
-2.6041718903381712
20
9.8007685485110354
10
-2.4685234445920683
20
9.5658185485110447
0
LWPOLYLINE
5
427
100
AcDbEntity
8
0
100
AcDbPolyline
90
6
70
1
43
0.0
10
1.2871054154702963
20
10.03571854851104
10
1.4227538612163975
20
9.8007685485110354
10
1.2871054154702946
20
9.5658185485110412
10
1.0158085239780907
20
9.5658185485110412
10
0.88016007823198972
20
9.8007685485110354
10
1.0158085239780925
20
10.03571854851104
0
LWPOLYLINE
5
428
100
AcDbEntity
8
0
100
AcDbPolyline
90
6
70
1
43
0.0
10
-0.31941212306868116
20
6.7832485485110379
10
-0.45506056881478035
20
6.5482985485110401
10
-0.726357460306986
20
6.5482985485110365
10
-0.86200590605309058
20
6.7832485485110379
10
-0.72635746030698956
20
7.0181985485110356
10
-0.45506056881478213
20
7.0181985485110356
0
LWPOLYLINE
5
429
100
AcDbEntity
8
0
100
AcDbPolyline
90
6
70
1
43
0.0
10
-0.45506056881478218
20
7.8894185485110366
10
-0.31941212306868122
20
8.1243685485110309
10
-0.45506056881478041
20
8.3593185485110322
10
-0.72635746030698589
20
8.3593185485110357
10
-0.86200590605309046
20
8.1243685485110309
10
-0.72635746030698944
20
7.8894185485110295
0
LWPOLYLINE
5
430
100
AcDbEntity
8
0
100
AcDbPolyline
90
6
70
1
43
0.0
10
-0.31941212306868128
20
7.4538085485110326
10
-0.45506056881478041
20
7.6887585485110339
10
-0.72635746030698589
20
7.6887585485110339
10
-0.86200590605309046
20
7.4538085485110326
10
-0.72635746030698944
20
7.2188585485110348
10
-0.45506056881478402
20
7.2188585485110313
0
LWPOLYLINE
5
431
100
AcDbEntity
8
0
100
AcDbPolyline
90
6
70
1
43
0.0
10
0.88016007823198972
20
9.1302085485110407
10
1.0158085239780923
20
8.8952585485110429
10
1.2871054154702963
20
8.8952585485110429
10
1.4227538612163992
20
9.1302085485110371
10
1.2871054154702963
20
9.3651585485110314
10
1.0158085239780925
20
9.3651585485110349
0
LWPOLYLINE
5
432
100
AcDbEntity
8
0
100
AcDbPolyline
90
6
70
1
43
0.0
10
2.6223260625170677
20
9.4654885485110416
10
2.7579745082631653
20
9.7004385485110394
10
3.0292713997553746
20
9.7004385485110394
10
3.1649198455014749
20
9.465488548511038
10
3.0292713997553746
20
9.2305385485110438
10
2.7579745082631706
20
9.2305385485110438
0
LWPOLYLINE
5
433
100
AcDbEntity
8
0
100
AcDbPolyline
90
6
70
1
43
0.0
10
-1.4808561125920676
20
8.1243685485110309
10
-1.6165045583381703
20
8.3593185485110357
10
-1.8878014498303726
20
8.3593185485110357
10
-2.0234498955764773
20
8.1243685485110344
10
-1.8878014498303761
20
7.8894185485110295
10
-1.6165045583381703
20
7.8894185485110366
0
LWPOLYLINE
5
434
100
AcDbEntity
8
0
100
AcDbPolyline
90
6
70
1
43
0.0
10
2.5841978507397854
20
9.8007685485110354
10
2.4485494049936847
20
10.03571854851104
10
2.1772525135014806
20
10.03571854851104
10
2.041604067755376
20
9.8007685485110354
10
2.1772525135014806
20
9.5658185485110412
10
2.4485494049936811
20
9.5658185485110412
0
LWPOLYLINE
5
435
100
AcDbEntity
8
0
100
AcDbPolyline
90
6
70
1
43
0.0
10
3.0292713997553746
20
10.370998548511038
10
3.1649198455014784
20
10.136048548511043
10
3.0292713997553782
20
9.9010985485110492
10
2.7579745082631706
20
9.9010985485110456
10
2.6223260625170677
20
10.136048548511043
10
2.757974508263167
20
10.370998548511045
0
LWPOLYLINE
5
436
100
AcDbEntity
8
0
100
AcDbPolyline
90
6
70
1
43
0.0
10
-1.4427279008147855
20
7.789088548511037
10
-1.3070794550686811
20
7.5541385485110322
10
-1.0357825635764755
20
7.5541385485110322
10
-0.90013411783037633
20
7.789088548511037
10
-1.0357825635764755
20
8.0240385485110277
10
-1.3070794550686775
20
8.0240385485110277
0
LWPOLYLINE
5
437
100
AcDbEntity
8
0
100
AcDbPolyline
90
6
70
1
43
0.0
10
1.5965305187397876
20
8.3593185485110357
10
1.4608820729936833
20
8.1243685485110344
10
1.5965305187397822
20
7.8894185485110295
10
1.8678274102319896
20
7.8894185485110366
10
2.0034758559780883
20
8.1243685485110309
10
1.8678274102319896
20
8.3593185485110357
0
LWPOLYLINE
5
438
100
AcDbEntity
8
0
100
AcDbPolyline
90
6
70
1
43
0.0
10
1.5965305187397876
20
7.6887585485110339
10
1.4608820729936816
20
7.4538085485110326
10
1.5965305187397822
20
7.2188585485110348
10
1.8678274102319896
20
7.2188585485110313
10
2.0034758559780901
20
7.4538085485110326
10
1.8678274102319878
20
7.6887585485110339
0
LWPOLYLINE
5
439
100
AcDbEntity
8
0
100
AcDbPolyline
90
6
70
1
43
0.0
10
-2.4685234445920701
20
7.353478548511033
10
-2.6041718903381712
20
7.1185285485110352
10
-2.4685234445920701
20
6.8835785485110303
10
-2.1972265530998643
20
6.8835785485110303
10
-2.0615781073537596
20
7.1185285485110352
10
-2.1972265530998607
20
7.353478548511033
0
LWPOLYLINE
5
440
100
AcDbEntity
8
0
100
AcDbPolyline
90
6
70
1
43
0.0
10
1.5965305187397876
20
6.5482985485110365
10
1.4608820729936833
20
6.7832485485110343
10
1.5965305187397822
20
7.0181985485110356
10
1.8678274102319878
20
7.0181985485110356
10
2.0034758559780883
20
6.7832485485110379
10
1.8678274102319896
20
6.5482985485110365
0
LWPOLYLINE
5
441
100
AcDbEntity
8
0
100
AcDbPolyline
90
6
70
1
43
0.0
10
2.5841978507397854
20
9.1302085485110407
10
2.4485494049936829
20
8.8952585485110358
10
2.1772525135014806
20
8.8952585485110429
10
2.041604067755376
20
9.1302085485110407
10
2.1772525135014806
20
9.3651585485110349
10
2.4485494049936811
20
9.3651585485110349
0
LWPOLYLINE
5
442
100
AcDbEntity
8
0
100
AcDbPolyline
90
6
70
1
43
0.0
10
-1.0357825635764755
20
7.353478548511033
10
-0.90013411783037633
20
7.1185285485110352
10
-1.0357825635764755
20
6.8835785485110303
10
-1.3070794550686775
20
6.8835785485110303
10
-1.4427279008147855
20
7.1185285485110352
10
-1.3070794550686811
20
7.353478548511033
0
LWPOLYLINE
5
443
100
AcDbEntity
8
0
100
AcDbPolyline
90
6
70
1
43
0.0
10
-2.0234498955764773
20
7.4538085485110326
10
-1.8878014498303761
20
7.2188585485110348
10
-1.6165045583381703
20
7.2188585485110313
10
-1.4808561125920676
20
7.4538085485110326
10
-1.6165045583381703
20
7.6887585485110339
10
-1.8878014498303726
20
7.6887585485110339
0
LWPOLYLINE
5
444
100
AcDbEntity
8
0
100
AcDbPolyline
90
6
70
1
43
0.0
10
-1.8878014498303726
20
6.5482985485110365
10
-2.0234498955764773
20
6.7832485485110343
10
-1.8878014498303761
20
7.0181985485110356
10
-1.6165045583381703
20
7.0181985485110356
10
-1.4808561125920676
20
6.7832485485110379
10
-1.6165045583381703
20
6.5482985485110365
0
LWPOLYLINE
5
445
100
AcDbEntity
8
0
100
AcDbPolyline
90
6
70
1
43
0.0
10
-0.28128391129139896
20
7.1185285485110352
10
-0.14563546554529261
20
6.8835785485110303
10
0.12566142594690938
20
6.8835785485110303
10
0.26130987169301401
20
7.1185285485110352
10
0.12566142594691118
20
7.353478548511033
10
-0.14563546554529436
20
7.353478548511033
0
LWPOLYLINE
5
446
100
AcDbEntity
8
0
100
AcDbPolyline
90
6
70
1
43
0.0
10
2.1772525135014806
20
7.353478548511033
10
2.041604067755376
20
7.1185285485110352
10
2.1772525135014806
20
6.8835785485110303
10
2.4485494049936829
20
6.8835785485110303
10
2.5841978507397854
20
7.1185285485110352
10
2.4485494049936829
20
7.353478548511033
0
LWPOLYLINE
5
447
100
AcDbEntity
8
0
100
AcDbPolyline
90
6
70
1
43
0.0
10
1.4227538612163992
20
7.1185285485110352
10
1.2871054154702946
20
6.8835785485110303
10
1.0158085239780905
20
6.8835785485110303
10
0.88016007823198783
20
7.1185285485110352
10
1.0158085239780905
20
7.353478548511033
10
1.2871054154702963
20
7.353478548511033
0
LWPOLYLINE
5
448
100
AcDbEntity
8
0
100
AcDbPolyline
90
6
70
1
43
0.0
10
0.70638342070860449
20
7.0181985485110356
10
0.43508652921639718
20
7.0181985485110356
10
0.29943808347029444
20
6.7832485485110379
10
0.43508652921639718
20
6.5482985485110401
10
0.70638342070859916
20
6.5482985485110365
10
0.84203186645470718
20
6.7832485485110379
0
LWPOLYLINE
5
449
100
AcDbEntity
8
0
100
AcDbPolyline
90
6
70
1
43
0.0
10
-0.90013411783037467
20
6.447968548511037
10
-1.0357825635764755
20
6.6829185485110383
10
-1.3070794550686775
20
6.6829185485110383
10
-1.4427279008147837
20
6.447968548511037
10
-1.3070794550686811
20
6.2130185485110427
10
-1.0357825635764755
20
6.2130185485110427
0
LWPOLYLINE
5
450
100
AcDbEntity
8
0
100
AcDbPolyline
90
6
70
1
43
0.0
10
-2.4685234445920701
20
6.6829185485110383
10
-2.1972265530998643
20
6.6829185485110383
10
-2.0615781073537596
20
6.4479685485110378
10
-2.1972265530998625
20
6.2130185485110463
10
-2.4685234445920701
20
6.2130185485110463
10
-2.6041718903381712
20
6.4479685485110378
0
LWPOLYLINE
5
451
100
AcDbEntity
8
0
100
AcDbPolyline
90
6
70
1
43
0.0
10
0.12566142594691115
20
6.6829185485110383
10
0.26130987169301395
20
6.4479685485110405
10
0.12566142594691132
20
6.2130185485110427
10
-0.14563546554529438
20
6.2130185485110427
10
-0.28128391129139724
20
6.447968548511037
10
-0.14563546554529441
20
6.6829185485110383
0
LWPOLYLINE
5
452
100
AcDbEntity
8
0
100
AcDbPolyline
90
6
70
1
43
0.0
10
3.1649198455014784
20
8.1243685485110309
10
3.0292713997553782
20
8.3593185485110322
10
2.7579745082631706
20
8.3593185485110357
10
2.6223260625170677
20
8.1243685485110309
10
2.7579745082631653
20
7.8894185485110366
10
3.0292713997553746
20
7.8894185485110366
0
LWPOLYLINE
5
453
100
AcDbEntity
8
0
100
AcDbPolyline
90
6
70
1
43
0.0
10
1.0158085239780905
20
8.0240385485110277
10
0.88016007823198961
20
7.789088548511037
10
1.0158085239780923
20
7.5541385485110322
10
1.2871054154702946
20
7.5541385485110322
10
1.4227538612163975
20
7.789088548511037
10
1.2871054154702946
20
8.0240385485110277
0
LWPOLYLINE
5
454
100
AcDbEntity
8
0
100
AcDbPolyline
90
6
70
1
43
0.0
10
-2.6423001021154513
20
6.7832485485110379
10
-2.7779485478615542
20
7.0181985485110356
10
-3.0492454393537596
20
7.0181985485110356
10
-3.1848938850998638
20
6.7832485485110379
10
-3.0492454393537596
20
6.5482985485110365
10
-2.7779485478615578
20
6.5482985485110365
0
LWPOLYLINE
5
455
100
AcDbEntity
8
0
100
AcDbPolyline
90
6
70
1
43
0.0
10
1.4227538612163975
20
6.447968548511037
10
1.2871054154702946
20
6.6829185485110383
10
1.0158085239780923
20
6.6829185485110383
10
0.8801600782319895
20
6.4479685485110405
10
1.0158085239780925
20
6.2130185485110454
10
1.2871054154702963
20
6.2130185485110454
0
LWPOLYLINE
5
456
100
AcDbEntity
8
0
100
AcDbPolyline
90
6
70
1
43
0.0
10
2.5841978507397854
20
7.789088548511037
10
2.4485494049936847
20
7.5541385485110322
10
2.1772525135014806
20
7.5541385485110322
10
2.041604067755376
20
7.789088548511037
10
2.1772525135014806
20
8.0240385485110277
10
2.4485494049936811
20
8.0240385485110277
0
LWPOLYLINE
5
457
100
AcDbEntity
8
0
100
AcDbPolyline
90
6
70
1
43
0.0
10
0.29943808347029449
20
8.1243685485110309
10
0.43508652921639723
20
8.3593185485110322
10
0.70638342070859927
20
8.3593185485110357
10
0.84203186645470907
20
8.1243685485110344
10
0.70638342070860638
20
7.8894185485110366
10
0.43508652921639723
20
7.8894185485110366
0
LWPOLYLINE
5
458
100
AcDbEntity
8
0
100
AcDbPolyline
90
6
70
1
43
0.0
10
-2.777948547861556
20
8.3593185485110357
10
-2.6423001021154531
20
8.1243685485110344
10
-2.777948547861556
20
7.8894185485110366
10
-3.0492454393537596
20
7.8894185485110366
10
-3.1848938850998638
20
8.1243685485110344
10
-3.0492454393537578
20
8.3593185485110322
0
LWPOLYLINE
5
459
100
AcDbEntity
8
0
100
AcDbPolyline
90
6
70
1
43
0.0
10
2.7579745082631724
20
6.5482985485110365
10
2.6223260625170677
20
6.7832485485110343
10
2.757974508263167
20
7.0181985485110356
10
3.0292713997553746
20
7.0181985485110356
10
3.1649198455014749
20
6.7832485485110379
10
3.0292713997553746
20
6.5482985485110365
0
LWPOLYLINE
5
460
100
AcDbEntity
8
0
100
AcDbPolyline
90
6
70
1
43
0.0
10
3.0292713997553782
20
7.6887585485110339
10
2.7579745082631724
20
7.6887585485110339
10
2.6223260625170677
20
7.4538085485110326
10
2.757974508263167
20
7.2188585485110348
10
3.0292713997553746
20
7.2188585485110313
10
3.1649198455014784
20
7.4538085485110326
0
LWPOLYLINE
5
461
100
AcDbEntity
8
0
100
AcDbPolyline
90
6
70
1
43
0.0
10
-3.0492454393537578
20
7.6887585485110339
10
-2.777948547861556
20
7.6887585485110339
10
-2.6423001021154531
20
7.4538085485110326
10
-2.7779485478615542
20
7.2188585485110348
10
-3.0492454393537596
20
7.2188585485110313
10
-3.1848938850998638
20
7.4538085485110326
0
LWPOLYLINE
5
462
100
AcDbEntity
8
0
100
AcDbPolyline
90
6
70
1
43
0.0
10
-2.4685234445920701
20
7.5541385485110322
10
-2.6041718903381712
20
7.789088548511037
10
-2.4685234445920683
20
8.0240385485110313
10
-2.1972265530998643
20
8.0240385485110277
10
-2.0615781073537596
20
7.789088548511037
10
-2.1972265530998625
20
7.5541385485110322
0
LWPOLYLINE
5
463
100
AcDbEntity
8
0
100
AcDbPolyline
90
6
70
1
43
0.0
10
2.1772525135014806
20
6.6829185485110312
10
2.4485494049936811
20
6.6829185485110383
10
2.5841978507397854
20
6.4479685485110405
10
2.4485494049936847
20
6.2130185485110454
10
2.1772525135014766
20
6.2130185485110454
10
2.041604067755376
20
6.447968548511037
0
LWPOLYLINE
5
464
100
AcDbEntity
8
0
100
AcDbPolyline
90
6
70
1
43
0.0
10
-0.14563546554529255
20
8.0240385485110313
10
0.12566142594691121
20
8.0240385485110277
10
0.26130987169301395
20
7.789088548511037
10
0.12566142594691121
20
7.5541385485110322
10
-0.14563546554529436
20
7.5541385485110322
10
-0.2812839112913989
20
7.789088548511037
0
LWPOLYLINE
5
465
100
AcDbEntity
8
0
100
AcDbPolyline
90
6
70
1
43
0.0
10
0.84203186645470907
20
7.4538085485110326
10
0.70638342070860638
20
7.2188585485110313
10
0.43508652921640073
20
7.2188585485110313
10
0.29943808347029444
20
7.4538085485110326
10
0.43508652921639723
20
7.6887585485110339
10
0.70638342070860283
20
7.6887585485110339
0
LWPOLYLINE
5
466
100
AcDbEntity
8
0
100
AcDbPolyline
90
6
70
1
43
0.0
10
-0.72635746030698589
20
13.014878548511033
10
-0.86200590605309046
20
12.779928548511032
10
-0.72635746030698944
20
12.544978548511031
10
-0.45506056881478213
20
12.544978548511031
10
-0.31941212306868116
20
12.779928548511032
10
-0.45506056881478391
20
13.014878548511033
0
LWPOLYLINE
5
467
100
AcDbEntity
8
0
100
AcDbPolyline
90
6
70
1
43
0.0
10
1.2871054154702963
20
12.679598548511033
10
1.4227538612163992
20
12.444648548511031
10
1.2871054154702946
20
12.209698548511033
10
1.0158085239780905
20
12.209698548511033
10
0.88016007823198783
20
12.444648548511031
10
1.0158085239780905
20
12.679598548511029
0
LWPOLYLINE
5
468
100
AcDbEntity
8
0
100
AcDbPolyline
90
6
70
1
43
0.0
10
-1.3070794550686811
20
12.679598548511029
10
-1.0357825635764755
20
12.679598548511033
10
-0.90013411783037633
20
12.444648548511031
10
-1.0357825635764755
20
12.209698548511033
10
-1.3070794550686775
20
12.209698548511033
10
-1.4427279008147837
20
12.444648548511031
0
LWPOLYLINE
5
469
100
AcDbEntity
8
0
100
AcDbPolyline
90
6
70
1
43
0.0
10
0.84203186645470729
20
12.779928548511032
10
0.7063834207086046
20
12.544978548511031
10
0.43508652921639729
20
12.544978548511031
10
0.29943808347029455
20
12.779928548511032
10
0.43508652921639729
20
13.014878548511033
10
0.70638342070859927
20
13.014878548511033
0
LWPOLYLINE
5
470
100
AcDbEntity
8
0
100
AcDbPolyline
90
6
70
1
43
0.0
10
0.26130987169301401
20
12.444648548511031
10
0.12566142594691126
20
12.679598548511029
10
-0.14563546554529433
20
12.679598548511033
10
-0.2812839112913989
20
12.444648548511031
10
-0.14563546554529436
20
12.209698548511033
10
0.12566142594690946
20
12.209698548511033
0
LWPOLYLINE
5
471
100
AcDbEntity
8
0
100
AcDbPolyline
90
6
70
1
43
0.0
10
-0.31941212306868116
20
10.768248548511037
10
-0.45506056881478035
20
10.53329854851104
10
-0.726357460306986
20
10.533298548511036
10
-0.86200590605309058
20
10.768248548511037
10
-0.72635746030698956
20
11.003198548511035
10
-0.45506056881478213
20
11.003198548511035
0
LWPOLYLINE
5
472
100
AcDbEntity
8
0
100
AcDbPolyline
90
6
70
1
43
0.0
10
0.26130987169301401
20
13.115208548511037
10
0.12566142594691126
20
12.880258548511035
10
-0.1456354655452943
20
12.880258548511042
10
-0.28128391129139885
20
13.11520854851104
10
-0.14563546554528661
20
13.350208548511038
10
0.12566142594692359
20
13.350208548511038
0
LWPOLYLINE
5
473
100
AcDbEntity
8
0
100
AcDbPolyline
90
6
70
1
43
0.0
10
-0.45506056881478218
20
11.874418548511036
10
-0.31941212306868122
20
12.10936854851103
10
-0.45506056881478041
20
12.344318548511032
10
-0.72635746030698589
20
12.344318548511035
10
-0.86200590605309046
20
12.10936854851103
10
-0.72635746030698944
20
11.874418548511029
0
LWPOLYLINE
5
474
100
AcDbEntity
8
0
100
AcDbPolyline
90
6
70
1
43
0.0
10
-0.31941212306868128
20
11.438808548511032
10
-0.45506056881478041
20
11.673758548511033
10
-0.72635746030698589
20
11.673758548511033
10
-0.86200590605309046
20
11.438808548511032
10
-0.72635746030698944
20
11.203858548511034
10
-0.45506056881478402
20
11.203858548511031
0
LWPOLYLINE
5
475
100
AcDbEntity
8
0
100
AcDbPolyline
90
6
70
1
43
0.0
10
-1.4808561125920676
20
12.10936854851103
10
-1.6165045583381703
20
12.344318548511035
10
-1.8878014498303726
20
12.344318548511035
10
-2.0234498955764773
20
12.109368548511034
10
-1.8878014498303761
20
11.874418548511029
10
-1.6165045583381703
20
11.874418548511036
0
LWPOLYLINE
5
476
100
AcDbEntity
8
0
100
AcDbPolyline
90
6
70
1
43
0.0
10
-1.4427279008147855
20
11.774088548511036
10
-1.3070794550686811
20
11.539138548511032
10
-1.0357825635764755
20
11.539138548511032
10
-0.90013411783037633
20
11.774088548511036
10
-1.0357825635764755
20
12.009038548511027
10
-1.3070794550686775
20
12.009038548511027
0
LWPOLYLINE
5
477
100
AcDbEntity
8
0
100
AcDbPolyline
90
6
70
1
43
0.0
10
1.5965305187397876
20
12.344318548511035
10
1.4608820729936833
20
12.109368548511034
10
1.5965305187397822
20
11.874418548511029
10
1.8678274102319896
20
11.874418548511036
10
2.0034758559780883
20
12.10936854851103
10
1.8678274102319896
20
12.344318548511035
0
LWPOLYLINE
5
478
100
AcDbEntity
8
0
100
AcDbPolyline
90
6
70
1
43
0.0
10
1.5965305187397876
20
11.673758548511033
10
1.4608820729936816
20
11.438808548511032
10
1.5965305187397822
20
11.203858548511034
10
1.8678274102319896
20
11.203858548511031
10
2.0034758559780901
20
11.438808548511032
10
1.8678274102319878
20
11.673758548511033
0
LWPOLYLINE
5
479
100
AcDbEntity
8
0
100
AcDbPolyline
90
6
70
1
43
0.0
10
-2.4685234445920701
20
11.338478548511032
10
-2.6041718903381712
20
11.103528548511035
10
-2.4685234445920701
20
10.86857854851103
10
-2.1972265530998643
20
10.86857854851103
10
-2.0615781073537596
20
11.103528548511035
10
-2.1972265530998607
20
11.338478548511032
0
LWPOLYLINE
5
480
100
AcDbEntity
8
0
100
AcDbPolyline
90
6
70
1
43
0.0
10
1.5965305187397876
20
10.533298548511036
10
1.4608820729936833
20
10.768248548511034
10
1.5965305187397822
20
11.003198548511035
10
1.8678274102319878
20
11.003198548511035
10
2.0034758559780883
20
10.768248548511037
10
1.8678274102319896
20
10.533298548511036
0
LWPOLYLINE
5
481
100
AcDbEntity
8
0
100
AcDbPolyline
90
6
70
1
43
0.0
10
-1.0357825635764755
20
11.338478548511032
10
-0.90013411783037633
20
11.103528548511035
10
-1.0357825635764755
20
10.86857854851103
10
-1.3070794550686775
20
10.86857854851103
10
-1.4427279008147855
20
11.103528548511035
10
-1.3070794550686811
20
11.338478548511032
0
LWPOLYLINE
5
482
100
AcDbEntity
8
0
100
AcDbPolyline
90
6
70
1
43
0.0
10
-2.0234498955764773
20
11.438808548511032
10
-1.8878014498303761
20
11.203858548511034
10
-1.6165045583381703
20
11.203858548511031
10
-1.4808561125920676
20
11.438808548511032
10
-1.6165045583381703
20
11.673758548511033
10
-1.8878014498303726
20
11.673758548511033
0
LWPOLYLINE
5
483
100
AcDbEntity
8
0
100
AcDbPolyline
90
6
70
1
43
0.0
10
-1.8878014498303726
20
10.533298548511036
10
-2.0234498955764773
20
10.768248548511034
10
-1.8878014498303761
20
11.003198548511035
10
-1.6165045583381703
20
11.003198548511035
10
-1.4808561125920676
20
10.768248548511037
10
-1.6165045583381703
20
10.533298548511036
0
LWPOLYLINE
5
484
100
AcDbEntity
8
0
100
AcDbPolyline
90
6
70
1
43
0.0
10
2.1772525135014806
20
11.338478548511032
10
2.041604067755376
20
11.103528548511035
10
2.1772525135014806
20
10.86857854851103
10
2.4485494049936829
20
10.86857854851103
10
2.5841978507397854
20
11.103528548511035
10
2.4485494049936829
20
11.338478548511032
0
LWPOLYLINE
5
485
100
AcDbEntity
8
0
100
AcDbPolyline
90
6
70
1
43
0.0
10
1.4227538612163992
20
11.103528548511035
10
1.2871054154702946
20
10.86857854851103
10
1.0158085239780905
20
10.86857854851103
10
0.88016007823198783
20
11.103528548511035
10
1.0158085239780905
20
11.338478548511032
10
1.2871054154702963
20
11.338478548511032
0
LWPOLYLINE
5
486
100
AcDbEntity
8
0
100
AcDbPolyline
90
6
70
1
43
0.0
10
0.70638342070860449
20
11.003198548511035
10
0.43508652921639718
20
11.003198548511035
10
0.29943808347029444
20
10.768248548511037
10
0.43508652921639718
20
10.53329854851104
10
0.70638342070859916
20
10.533298548511036
10
0.84203186645470718
20
10.768248548511037
0
LWPOLYLINE
5
487
100
AcDbEntity
8
0
100
AcDbPolyline
90
6
70
1
43
0.0
10
-0.90013411783037467
20
10.432968548511036
10
-1.0357825635764755
20
10.667918548511038
10
-1.3070794550686775
20
10.667918548511038
10
-1.4427279008147837
20
10.432968548511036
10
-1.3070794550686793
20
10.198018548511037
10
-1.0357825635764755
20
10.198018548511037
0
LWPOLYLINE
5
488
100
AcDbEntity
8
0
100
AcDbPolyline
90
6
70
1
43
0.0
10
-2.4685234445920701
20
10.667918548511038
10
-2.1972265530998643
20
10.667918548511038
10
-2.0615781073537596
20
10.432968548511036
10
-2.1972265530998625
20
10.198018548511037
10
-2.4685234445920692
20
10.198018548511037
10
-2.6041718903381712
20
10.432968548511036
0
LWPOLYLINE
5
489
100
AcDbEntity
8
0
100
AcDbPolyline
90
6
70
1
43
0.0
10
1.0158085239780905
20
12.009038548511027
10
0.88016007823198961
20
11.774088548511036
10
1.0158085239780923
20
11.539138548511032
10
1.2871054154702946
20
11.539138548511032
10
1.4227538612163975
20
11.774088548511036
10
1.2871054154702946
20
12.009038548511027
0
LWPOLYLINE
5
490
100
AcDbEntity
8
0
100
AcDbPolyline
90
6
70
1
43
0.0
10
1.4227538612163975
20
10.432968548511036
10
1.2871054154702946
20
10.667918548511038
10
1.0158085239780923
20
10.667918548511038
10
0.8801600782319895
20
10.43296854851104
10
1.0158085239780961
20
10.198018548511037
10
1.2871054154702963
20
10.198018548511037
0
LWPOLYLINE
5
491
100
AcDbEntity
8
0
100
AcDbPolyline
90
6
70
1
43
0.0
10
2.5841978507397854
20
11.774088548511036
10
2.4485494049936847
20
11.539138548511032
10
2.1772525135014806
20
11.539138548511032
10
2.041604067755376
20
11.774088548511036
10
2.1772525135014806
20
12.009038548511027
10
2.4485494049936811
20
12.009038548511027
0
LWPOLYLINE
5
492
100
AcDbEntity
8
0
100
AcDbPolyline
90
6
70
1
43
0.0
10
0.29943808347029449
20
12.10936854851103
10
0.43508652921639723
20
12.344318548511032
10
0.70638342070859927
20
12.344318548511035
10
0.84203186645470907
20
12.109368548511034
10
0.70638342070860638
20
11.874418548511036
10
0.43508652921639723
20
11.874418548511036
0
LINE
5
493
100
AcDbEntity
8
0
100
AcDbLine
10
2.7579745082631724
20
11.673758548511033
30
0
11
2.7795140379009422
21
11.711066108214791
31
0
0
LWPOLYLINE
5
494
100
AcDbEntity
8
0
100
AcDbPolyline
90
6
70
1
43
0.0
10
-2.4685234445920701
20
11.539138548511032
10
-2.6041718903381712
20
11.774088548511036
10
-2.4685234445920683
20
12.009038548511031
10
-2.1972265530998643
20
12.009038548511027
10
-2.0615781073537596
20
11.774088548511036
10
-2.1972265530998625
20
11.539138548511032
0
LWPOLYLINE
5
495
100
AcDbEntity
8
0
100
AcDbPolyline
90
6
70
1
43
0.0
10
2.1772525135014806
20
10.667918548511031
10
2.4485494049936811
20
10.667918548511038
10
2.5841978507397854
20
10.43296854851104
10
2.4485494049936847
20
10.198018548511037
10
2.1772525135014806
20
10.198018548511037
10
2.041604067755376
20
10.432968548511036
0
LWPOLYLINE
5
496
100
AcDbEntity
8
0
100
AcDbPolyline
90
6
70
1
43
0.0
10
0.84203186645470907
20
11.438808548511032
10
0.70638342070860638
20
11.203858548511031
10
0.43508652921640073
20
11.203858548511031
10
0.29943808347029444
20
11.438808548511032
10
0.43508652921639723
20
11.673758548511033
10
0.70638342070860283
20
11.673758548511033
0
LINE
5
497
100
AcDbEntity
8
0
100
AcDbLine
10
2.7579745082631706
20
12.344318548511035
30
0
11
2.7852087960338148
21
12.391489718637745
31
0
0
LWPOLYLINE
5
498
100
AcDbEntity
8
0
100
AcDbPolyline
90
6
70
1
43
0.0
10
-1.0357825635764755
20
-12.55418145148896
10
-1.3070794550686775
20
-12.55418145148896
10
-1.4427279008147837
20
-12.319231451488966
10
-1.3070794550686811
20
-12.084281451488961
10
-1.0357825635764755
20
-12.084281451488961
10
-0.90013411783037622
20
-12.319231451488966
0
LWPOLYLINE
5
499
100
AcDbEntity
8
0
100
AcDbPolyline
90
6
70
1
43
0.0
10
-1.8878014498303759
20
-11.749001451488956
10
-1.6165045583381701
20
-11.749001451488963
10
-1.4808561125920674
20
-11.983951451488961
10
-1.6165045583381703
20
-12.218901451488955
10
-1.8878014498303726
20
-12.218901451488955
10
-2.0234498955764773
20
-11.983951451488958
0
LWPOLYLINE
5
500
100
AcDbEntity
8
0
100
AcDbPolyline
90
6
70
1
43
0.0
10
-0.72635746030698578
20
-12.218901451488955
10
-0.86200590605309035
20
-11.983951451488961
10
-0.72635746030698933
20
-11.749001451488963
10
-0.45506056881478207
20
-11.749001451488963
10
-0.31941212306868111
20
-11.983951451488958
10
-0.45506056881478385
20
-12.218901451488955
0
LWPOLYLINE
5
501
100
AcDbEntity
8
0
100
AcDbPolyline
90
6
70
1
43
0.0
10
-0.45506056881478391
20
-12.889461451488957
10
-0.72635746030698756
20
-12.889461451488957
10
-0.86200590605309035
20
-12.654511451488959
10
-0.72635746030698933
20
-12.419561451488962
10
-0.45506056881478385
20
-12.419561451488962
10
-0.31941212306868472
20
-12.654511451488963
0
LWPOLYLINE
5
502
100
AcDbEntity
8
0
100
AcDbPolyline
90
6
70
1
43
0.0
10
1.5965305187397876
20
-12.218901451488955
10
1.4608820729936818
20
-11.983951451488958
10
1.5965305187397825
20
-11.749001451488963
10
1.8678274102319881
20
-11.749001451488963
10
2.0034758559780887
20
-11.983951451488958
10
1.8678274102319878
20
-12.218901451488952
0
LWPOLYLINE
5
503
100
AcDbEntity
8
0
100
AcDbPolyline
90
6
70
1
43
0.0
10
0.43508652921639734
20
-12.218901451488952
10
0.70638342070859939
20
-12.218901451488955
10
0.8420318664547074
20
-11.983951451488958
10
0.70638342070860471
20
-11.749001451488956
10
0.43508652921639734
20
-11.749001451488963
10
0.2994380834702946
20
-11.983951451488958
0
LWPOLYLINE
5
504
100
AcDbEntity
8
0
100
AcDbPolyline
90
6
70
1
43
0.0
10
0.70638342070860471
20
-12.419561451488962
10
0.4350865292164009
20
-12.419561451488962
10
0.29943808347029455
20
-12.654511451488963
10
0.43508652921639729
20
-12.889461451488957
10
0.70638342070859939
20
-12.889461451488957
10
0.8420318664547074
20
-12.654511451488963
0
LWPOLYLINE
5
505
100
AcDbEntity
8
0
100
AcDbPolyline
90
6
70
1
43
0.0
10
0.12566142594691132
20
-12.084281451488961
10
-0.14563546554529425
20
-12.084281451488961
10
-0.28128391129139879
20
-12.319231451488966
10
-0.14563546554529427
20
-12.55418145148896
10
0.12566142594690949
20
-12.55418145148896
10
0.26130987169301412
20
-12.319231451488966
0
LWPOLYLINE
5
506
100
AcDbEntity
8
0
100
AcDbPolyline
90
6
70
1
43
0.0
10
0.12566142594691126
20
-12.754841451488966
10
0.26130987169301401
20
-12.989791451488964
10
0.12566142594691126
20
-13.224741451488965
10
-0.1456354655452943
20
-13.224741451488958
10
-0.28128391129139885
20
-12.98979145148896
10
-0.14563546554529427
20
-12.754841451488966
0
LWPOLYLINE
5
507
100
AcDbEntity
8
0
100
AcDbPolyline
90
6
70
1
43
0.0
10
1.2871054154702963
20
-12.084281451488961
10
1.4227538612163975
20
-12.319231451488966
10
1.2871054154702946
20
-12.55418145148896
10
1.0158085239780907
20
-12.55418145148896
10
0.88016007823198972
20
-12.319231451488966
10
1.0158085239780925
20
-12.084281451488961
0
ARC
5
508
100
AcDbEntity
8
0
100
AcDbCircle
10
-0.014252129898875587
20
-9.8522189919770664
30
0
40
3.2890209448083829
210
0
220
0
230
1
100
AcDbArc
50
180
51
191.14679842280569
0
ARC
5
509
100
AcDbEntity
8
0
100
AcDbCircle
10
-0.014252129898875587
20
-9.8522189919770664
30
0
40
3.2890209448083829
210
0
220
0
230
1
100
AcDbArc
50
194.97986484310664
51
345.1967889933548
0
ARC
5
510
100
AcDbEntity
8
0
100
AcDbCircle
10
-0.014252129898875587
20
-9.8522189919770664
30
0
40
3.2890209448083825
210
0
220
0
230
1
100
AcDbArc
50
349.02960139819999
51
360
0
ARC
5
511
100
AcDbEntity
8
0
100
AcDbCircle
10
-0.014252129898876253
20
9.9754021502306021
30
0
40
3.2890209448083825
210
0
220
0
230
1
100
AcDbArc
50
0
51
10.794576900803458
0
ARC
5
512
100
AcDbEntity
8
0
100
AcDbCircle
10
-0.014252129898876253
20
9.9754021502306021
30
0
40
3.2890209448083834
210
0
220
-0
230
1
100
AcDbArc
50
14.627754616389788
51
165.25179154298567
0
ARC
5
513
100
AcDbEntity
8
0
100
AcDbCircle
10
-0.014252129898876253
20
9.9754021502306021
30
0
40
3.2890209448083829
210
0
220
0
230
1
100
AcDbArc
50
169.08028859470789
51
180
0
LINE
5
514
100
AcDbEntity
8
0
100
AcDbLine
10
0.23467036926846152
20
9.5544557121446214
30
0
11
-0.26640382563968057
21
9.5544557121446232
31
0
0
LINE
5
515
100
AcDbEntity
8
0
100
AcDbLine
10
-0.26640382563968057
20
9.5544557121446232
30
0
11
-0.26640382563968068
21
9.7058717307498554
31
0
0
LINE
5
516
100
AcDbEntity
8
0
100
AcDbLine
10
-0.26640382563968068
20
9.7058717307498554
30
0
11
0.075393049360319264
21
9.7967896905591587
31
0
0
LINE
5
517
100
AcDbEntity
8
0
100
AcDbLine
10
0.075393049360319264
20
9.7967896905591587
30
0
11
-0.26640382563968079
21
9.8866822567632298
31
0
0
LINE
5
518
100
AcDbEntity
8
0
100
AcDbLine
10
-0.26640382563968079
20
9.8866822567632298
30
0
11
-0.2664038256396809
21
10.038440063302765
31
0
0
LINE
5
519
100
AcDbEntity
8
0
100
AcDbLine
10
-0.2664038256396809
20
10.038440063302765
30
0
11
0.23467036926846119
21
10.038440063302764
31
0
0
LINE
5
520
100
AcDbEntity
8
0
100
AcDbLine
10
0.23467036926846119
20
10.038440063302764
30
0
11
0.23467036926846124
21
9.9444459524800859
31
0
0
LINE
5
521
100
AcDbEntity
8
0
100
AcDbLine
10
0.2346703692684613
20
9.9444459524800859
30
0
11
-0.15976321852107422
21
9.9444459524800859
31
0
0
LINE
5
522
100
AcDbEntity
8
0
100
AcDbLine
10
-0.15976321852107425
20
9.9444459524800877
30
0
11
0.23467036926846133
21
9.8449830558946232
31
0
0
LINE
5
523
100
AcDbEntity
8
0
100
AcDbLine
10
0.2346703692684613
20
9.8449830558946214
30
0
11
0.23467036926846135
21
9.7475709465196214
31
0
0
LINE
5
524
100
AcDbEntity
8
0
100
AcDbLine
10
0.23467036926846141
20
9.7475709465196214
30
0
11
-0.15976321852107406
21
9.6484498527696214
31
0
0
LINE
5
525
100
AcDbEntity
8
0
100
AcDbLine
10
-0.15976321852107409
20
9.6484498527696232
30
0
11
0.23467036926846144
21
9.6484498527696232
31
0
0
LINE
5
526
100
AcDbEntity
8
0
100
AcDbLine
10
0.23467036926846141
20
9.6484498527696214
30
0
11
0.23467036926846147
21
9.5544557121446214
31
0
0
SPLINE
5
527
100
AcDbEntity
8
0
100
AcDbSpline
70
0
71
2
72
6
73
3
74
0
42
0.000000001
43
0.0000000001
44
0.0000000001
40
0
40
0
40
0
40
1
40
1
40
1
10
0.048049299360319098
20
10.116027965848694
30
0
10
0.00019773686031909765
20
10.116027965848694
30
0
10
-0.044577659725145435
20
10.139611914460907
30
0
0
SPLINE
5
528
100
AcDbEntity
8
0
100
AcDbSpline
70
0
71
2
72
6
73
3
74
0
42
0.000000001
43
0.0000000001
44
0.0000000001
40
0
40
0
40
0
40
1
40
1
40
1
10
-0.044577659725145435
20
10.139611914460907
30
0
10
-0.089353056310609913
20
10.163195922677765
30
0
10
-0.11293703472514544
20
10.206262305085907
30
0
0
SPLINE
5
529
100
AcDbEntity
8
0
100
AcDbSpline
70
0
71
2
72
6
73
3
74
0
42
0.000000001
43
0.0000000001
44
0.0000000001
40
0
40
0
40
0
40
1
40
1
40
1
10
-0.11293703472514544
20
10.206262305085907
30
0
10
-0.13652101313968101
20
10.249670520131836
30
0
10
-0.13652101313968101
20
10.302990808789978
30
0
0
SPLINE
5
530
100
AcDbEntity
8
0
100
AcDbSpline
70
0
71
2
72
6
73
3
74
0
42
0.000000001
43
0.0000000001
44
0.0000000001
40
0
40
0
40
0
40
1
40
1
40
1
10
-0.13652101313968101
20
10.302990808789978
30
0
10
-0.13652101313968107
20
10.385363891427765
30
0
10
-0.082858921646074557
20
10.438000634019623
30
0
0
SPLINE
5
531
100
AcDbEntity
8
0
100
AcDbSpline
70
0
71
2
72
6
73
3
74
0
42
0.000000001
43
0.0000000001
44
0.0000000001
40
0
40
0
40
0
40
1
40
1
40
1
10
-0.082858921646074557
20
10.438000634019623
30
0
10
-0.029538603185610079
20
10.490637317006836
30
0
10
0.052150843978925443
20
10.490637317006836
30
0
0
SPLINE
5
532
100
AcDbEntity
8
0
100
AcDbSpline
70
0
71
2
72
6
73
3
74
0
42
0.000000001
43
0.0000000001
44
0.0000000001
40
0
40
0
40
0
40
1
40
1
40
1
10
0.052150843978925443
20
10.490637317006836
30
0
10
0.13452389681438992
20
10.490637317006835
30
0
10
0.18886956417660306
20
10.437316968744048
30
0
0
SPLINE
5
533
100
AcDbEntity
8
0
100
AcDbSpline
70
0
71
2
72
6
73
3
74
0
42
0.000000001
43
0.0000000001
44
0.0000000001
40
0
40
0
40
0
40
1
40
1
40
1
10
0.18886956417660306
20
10.437316968744048
30
0
10
0.24287351811031888
20
10.384338453119048
30
0
10
0.24287351811031899
20
10.303674414460906
30
0
0
SPLINE
5
534
100
AcDbEntity
8
0
100
AcDbSpline
70
0
71
2
72
6
73
3
74
0
42
0.000000001
43
0.0000000001
44
0.0000000001
40
0
40
0
40
0
40
1
40
1
40
1
10
0.24287351811031899
20
10.303674414460906
30
0
10
0.24287351811031899
20
10.253772094552764
30
0
10
0.22031488859753212
20
10.208313122098692
30
0
0
SPLINE
5
535
100
AcDbEntity
8
0
100
AcDbSpline
70
0
71
2
72
6
73
3
74
0
42
0.000000001
43
0.0000000001
44
0.0000000001
40
0
40
0
40
0
40
1
40
1
40
1
10
0.22031488859753212
20
10.208313122098692
30
0
10
0.19775631868939014
20
10.163195922677764
30
0
10
0.15434810364346119
20
10.139611914460906
30
0
0
SPLINE
5
536
100
AcDbEntity
8
0
100
AcDbSpline
70
0
71
2
72
6
73
3
74
0
42
0.000000001
43
0.0000000001
44
0.0000000001
40
0
40
0
40
0
40
1
40
1
40
1
10
0.15434810364346119
20
10.139611914460906
30
0
10
0.11059811556439014
20
10.116027965848692
30
0
10
0.048049299360319098
20
10.116027965848694
30
0
0
SPLINE
5
537
100
AcDbEntity
8
0
100
AcDbSpline
70
0
71
2
72
6
73
3
74
0
42
0.000000001
43
0.0000000001
44
0.0000000001
40
0
40
0
40
0
40
1
40
1
40
1
10
0.053176252485319042
20
10.214465453927765
30
0
10
0.10718014681439003
20
10.214465453927764
30
0
10
0.13589104855160317
20
10.240100219552764
30
0
0
SPLINE
5
538
100
AcDbEntity
8
0
100
AcDbSpline
70
0
71
2
72
6
73
3
74
0
42
0.000000001
43
0.0000000001
44
0.0000000001
40
0
40
0
40
0
40
1
40
1
40
1
10
0.13589104855160317
20
10.240100219552764
30
0
10
0.16460200989346108
20
10.265734985177764
30
0
10
0.16460200989346108
20
10.303332641427764
30
0
0
SPLINE
5
539
100
AcDbEntity
8
0
100
AcDbSpline
70
0
71
2
72
6
73
3
74
0
42
0.000000001
43
0.0000000001
44
0.0000000001
40
0
40
0
40
0
40
1
40
1
40
1
10
0.16460200989346108
20
10.303332641427764
30
0
10
0.16460200989346108
20
10.340930297677764
30
0
10
0.13589104855160317
20
10.366223290269621
30
0
0
SPLINE
5
540
100
AcDbEntity
8
0
100
AcDbSpline
70
0
71
2
72
6
73
3
74
0
42
0.000000001
43
0.0000000001
44
0.0000000001
40
0
40
0
40
0
40
1
40
1
40
1
10
0.13589104855160317
20
10.366223290269621
30
0
10
0.10718014681438992
20
10.391858055894621
30
0
10
0.052492646814389976
20
10.391858055894623
30
0
0
SPLINE
5
541
100
AcDbEntity
8
0
100
AcDbSpline
70
0
71
2
72
6
73
3
74
0
42
0.000000001
43
0.0000000001
44
0.0000000001
40
0
40
0
40
0
40
1
40
1
40
1
10
0.052492646814389976
20
10.391858055894623
30
0
10
-0.0008276716460745015
20
10.391858055894623
30
0
10
-0.029538603185610024
20
10.366223290269623
30
0
0
SPLINE
5
542
100
AcDbEntity
8
0
100
AcDbSpline
70
0
71
2
72
6
73
3
74
0
42
0.000000001
43
0.0000000001
44
0.0000000001
40
0
40
0
40
0
40
1
40
1
40
1
10
-0.029538603185610024
20
10.366223290269623
30
0
10
-0.058249534725145546
20
10.340930297677765
30
0
10
-0.058249534725145491
20
10.303332641427765
30
0
0
SPLINE
5
543
100
AcDbEntity
8
0
100
AcDbSpline
70
0
71
2
72
6
73
3
74
0
42
0.000000001
43
0.0000000001
44
0.0000000001
40
0
40
0
40
0
40
1
40
1
40
1
10
-0.058249534725145491
20
10.303332641427765
30
0
10
-0.058249534725145491
20
10.265734985177765
30
0
10
-0.029538603185609968
20
10.240100219552765
30
0
0
SPLINE
5
544
100
AcDbEntity
8
0
100
AcDbSpline
70
0
71
2
72
6
73
3
74
0
42
0.000000001
43
0.0000000001
44
0.0000000001
40
0
40
0
40
0
40
1
40
1
40
1
10
-0.029538603185609968
20
10.240100219552765
30
0
10
-0.00082767164607439048
20
10.214465453927765
30
0
10
0.053176252485319042
20
10.214465453927765
30
0
0
LINE
5
545
100
AcDbEntity
8
0
100
AcDbLine
10
0.23467036926846074
20
10.804748609369048
30
0
11
0.18032464230160283
21
10.804748609369048
31
0
0
SPLINE
5
546
100
AcDbEntity
8
0
100
AcDbSpline
70
0
71
2
72
6
73
3
74
0
42
0.000000001
43
0.0000000001
44
0.0000000001
40
0
40
0
40
0
40
1
40
1
40
1
10
0.18032464230160283
20
10.804748609369048
30
0
10
0.20937737667660283
20
10.784924462144621
30
0
10
0.22612544739346085
20
10.752453759019621
30
0
0
SPLINE
5
547
100
AcDbEntity
8
0
100
AcDbSpline
70
0
71
2
72
6
73
3
74
0
42
0.000000001
43
0.0000000001
44
0.0000000001
40
0
40
0
40
0
40
1
40
1
40
1
10
0.22612544739346085
20
10.752453759019621
30
0
10
0.24287351811031876
20
10.720324828927764
30
0
10
0.24287351811031876
20
10.684436157052764
30
0
0
SPLINE
5
548
100
AcDbEntity
8
0
100
AcDbSpline
70
0
71
2
72
6
73
3
74
0
42
0.000000001
43
0.0000000001
44
0.0000000001
40
0
40
0
40
0
40
1
40
1
40
1
10
0.24287351811031876
20
10.684436157052764
30
0
10
0.24287351811031876
20
10.647863939111479
30
0
10
0.22680905306438981
20
10.618811204736479
30
0
0
SPLINE
5
549
100
AcDbEntity
8
0
100
AcDbSpline
70
0
71
2
72
6
73
3
74
0
42
0.000000001
43
0.0000000001
44
0.0000000001
40
0
40
0
40
0
40
1
40
1
40
1
10
0.22680905306438981
20
10.618811204736479
30
0
10
0.21074458801846085
20
10.589758470361479
30
0
10
0.18169185364346085
20
10.576770141427764
30
0
0
SPLINE
5
550
100
AcDbEntity
8
0
100
AcDbSpline
70
0
71
2
72
6
73
3
74
0
42
0.000000001
43
0.0000000001
44
0.0000000001
40
0
40
0
40
0
40
1
40
1
40
1
10
0.18169185364346085
20
10.576770141427764
30
0
10
0.15263911926846097
20
10.563781812494048
30
0
10
0.10136958801846097
20
10.563781812494049
30
0
0
LINE
5
551
100
AcDbEntity
8
0
100
AcDbLine
10
0.10136958801846097
20
10.563781812494049
30
0
11
-0.1283178941001456
21
10.563781812494049
31
0
0
LINE
5
552
100
AcDbEntity
8
0
100
AcDbLine
10
-0.12831789410014566
20
10.563781812494049
30
0
11
-0.12831789410014571
21
10.659826829736481
31
0
0
LINE
5
553
100
AcDbEntity
8
0
100
AcDbLine
10
-0.12831789410014571
20
10.659826829736481
30
0
11
0.038478968978925332
21
10.659826829736481
31
0
0
SPLINE
5
554
100
AcDbEntity
8
0
100
AcDbSpline
70
0
71
2
72
6
73
3
74
0
42
0.000000001
43
0.0000000001
44
0.0000000001
40
0
40
0
40
0
40
1
40
1
40
1
10
0.038478968978925332
20
10.659826829736481
30
0
10
0.11504146301846085
20
10.659826829736481
30
0
10
0.13247307980160294
20
10.664953782861481
30
0
0
SPLINE
5
555
100
AcDbEntity
8
0
100
AcDbSpline
70
0
71
2
72
6
73
3
74
0
42
0.000000001
43
0.0000000001
44
0.0000000001
40
0
40
0
40
0
40
1
40
1
40
1
10
0.13247307980160294
20
10.664953782861481
30
0
10
0.14956292355160294
20
10.670422509019621
30
0
10
0.15981682980160294
20
10.684436157052764
30
0
0
SPLINE
5
556
100
AcDbEntity
8
0
100
AcDbSpline
70
0
71
2
72
6
73
3
74
0
42
0.000000001
43
0.0000000001
44
0.0000000001
40
0
40
0
40
0
40
1
40
1
40
1
10
0.15981682980160294
20
10.684436157052764
30
0
10
0.16972896301846085
20
10.698449805085906
30
0
10
0.16972896301846085
20
10.719983055894621
30
0
0
SPLINE
5
557
100
AcDbEntity
8
0
100
AcDbSpline
70
0
71
2
72
6
73
3
74
0
42
0.000000001
43
0.0000000001
44
0.0000000001
40
0
40
0
40
0
40
1
40
1
40
1
10
0.16972896301846085
20
10.719983055894621
30
0
10
0.16972896301846085
20
10.744592383210906
30
0
10
0.15639886105160283
20
10.764074876611479
30
0
0
SPLINE
5
558
100
AcDbEntity
8
0
100
AcDbSpline
70
0
71
2
72
6
73
3
74
0
42
0.000000001
43
0.0000000001
44
0.0000000001
40
0
40
0
40
0
40
1
40
1
40
1
10
0.15639886105160283
20
10.764074876611479
30
0
10
0.14272698605160283
20
10.783557250802764
30
0
10
0.12290277922253179
20
10.790734961335907
30
0
0
SPLINE
5
559
100
AcDbEntity
8
0
100
AcDbSpline
70
0
71
2
72
6
73
3
74
0
42
0.000000001
43
0.0000000001
44
0.0000000001
40
0
40
0
40
0
40
1
40
1
40
1
10
0.12290277922253179
20
10.790734961335907
30
0
10
0.10273679936031865
20
10.797912671869049
30
0
10
0.024807093978925276
20
10.797912671869049
30
0
0
LINE
5
560
100
AcDbEntity
8
0
100
AcDbLine
10
0.024807093978925276
20
10.797912671869049
30
0
11
-0.12831789410014577
21
10.797912671869049
31
0
0
LINE
5
561
100
AcDbEntity
8
0
100
AcDbLine
10
-0.12831789410014577
20
10.797912671869049
30
0
11
-0.12831789410014582
21
10.893957569902192
31
0
0
LINE
5
562
100
AcDbEntity
8
0
100
AcDbLine
10
-0.12831789410014582
20
10.893957569902192
30
0
11
0.23467036926846074
21
10.893957569902192
31
0
0
LINE
5
563
100
AcDbEntity
8
0
100
AcDbLine
10
0.23467036926846074
20
10.89395756990219
30
0
11
0.2346703692684608
21
10.804748609369048
31
0
0
LINE
5
564
100
AcDbEntity
8
0
100
AcDbLine
10
-0.26640382563968146
20
10.993762209718476
30
0
11
-0.26640382563968157
21
11.178674295251618
31
0
0
SPLINE
5
565
100
AcDbEntity
8
0
100
AcDbSpline
70
0
71
2
72
6
73
3
74
0
42
0.000000001
43
0.0000000001
44
0.0000000001
40
0
40
0
40
0
40
1
40
1
40
1
10
-0.26640382563968157
20
11.178674295251618
30
0
10
-0.26640382563968157
20
11.241223171060334
30
0
10
-0.25683352506061052
20
11.274035647218476
30
0
0
SPLINE
5
566
100
AcDbEntity
8
0
100
AcDbSpline
70
0
71
2
72
6
73
3
74
0
42
0.000000001
43
0.0000000001
44
0.0000000001
40
0
40
0
40
0
40
1
40
1
40
1
10
-0.25683352506061052
20
11.274035647218476
30
0
10
-0.24384525573153953
20
11.318127467935334
30
0
10
-0.21069094693561058
20
11.349572732751618
30
0
0
SPLINE
5
567
100
AcDbEntity
8
0
100
AcDbSpline
70
0
71
2
72
6
73
3
74
0
42
0.000000001
43
0.0000000001
44
0.0000000001
40
0
40
0
40
0
40
1
40
1
40
1
10
-0.21069094693561058
20
11.349572732751618
30
0
10
-0.17753666794200404
20
11.381018116777192
30
0
10
-0.12934330260653959
20
11.397424295251618
30
0
0
SPLINE
5
568
100
AcDbEntity
8
0
100
AcDbSpline
70
0
71
2
72
6
73
3
74
0
42
0.000000001
43
0.0000000001
44
0.0000000001
40
0
40
0
40
0
40
1
40
1
40
1
10
-0.12934330260653959
20
11.397424295251618
30
0
10
-0.08149174010653959
20
11.413830592935334
30
0
10
-0.011081577896075112
20
11.413830592935334
30
0
0
SPLINE
5
569
100
AcDbEntity
8
0
100
AcDbSpline
70
0
71
2
72
6
73
3
74
0
42
0.000000001
43
0.0000000001
44
0.0000000001
40
0
40
0
40
0
40
1
40
1
40
1
10
-0.011081577896075112
20
11.413830592935334
30
0
10
0.050783662439389365
20
11.413830592935334
30
0
10
0.095559029222531455
20
11.398449733560334
30
0
0
SPLINE
5
570
100
AcDbEntity
8
0
100
AcDbSpline
70
0
71
2
72
6
73
3
74
0
42
0.000000001
43
0.0000000001
44
0.0000000001
40
0
40
0
40
0
40
1
40
1
40
1
10
0.095559029222531455
20
11.398449733560334
30
0
10
0.15024652922253146
20
11.379650905435332
30
0
10
0.18408444368938937
20
11.344787552659758
30
0
0
SPLINE
5
571
100
AcDbEntity
8
0
100
AcDbSpline
70
0
71
2
72
6
73
3
74
0
42
0.000000001
43
0.0000000001
44
0.0000000001
40
0
40
0
40
0
40
1
40
1
40
1
10
0.18408444368938937
20
11.344787552659758
30
0
10
0.20971920931438948
20
11.318469240968474
30
0
10
0.22407468998531843
20
11.273693874185332
30
0
0
SPLINE
5
572
100
AcDbEntity
8
0
100
AcDbSpline
70
0
71
2
72
6
73
3
74
0
42
0.000000001
43
0.0000000001
44
0.0000000001
40
0
40
0
40
0
40
1
40
1
40
1
10
0.22407468998531843
20
11.273693874185332
30
0
10
0.23467036926846052
20
11.240197732751616
30
0
10
0.23467036926846052
20
11.184143140619048
30
0
0
LINE
5
573
100
AcDbEntity
8
0
100
AcDbLine
10
0.23467036926846052
20
11.184143140619048
30
0
11
0.23467036926846063
21
10.993762209718474
31
0
0
LINE
5
574
100
AcDbEntity
8
0
100
AcDbLine
10
0.23467036926846063
20
10.993762209718474
30
0
11
-0.26640382563968146
21
10.993762209718476
31
0
0
LINE
5
575
100
AcDbEntity
8
0
100
AcDbLine
10
-0.18163821256061044
20
11.094934060876618
30
0
11
0.15024652922253165
21
11.094934060876618
31
0
0
LINE
5
576
100
AcDbEntity
8
0
100
AcDbLine
10
0.15024652922253168
20
11.094934060876616
30
0
11
0.15024652922253162
21
11.170471265619048
31
0
0
SPLINE
5
577
100
AcDbEntity
8
0
100
AcDbSpline
70
0
71
2
72
6
73
3
74
0
42
0.000000001
43
0.0000000001
44
0.0000000001
40
0
40
0
40
0
40
1
40
1
40
1
10
0.15024652922253157
20
11.170471265619048
30
0
10
0.15024652922253157
20
11.212853982751616
30
0
10
0.14546140873531843
20
11.231652810876616
30
0
0
SPLINE
5
578
100
AcDbEntity
8
0
100
AcDbSpline
70
0
71
2
72
6
73
3
74
0
42
0.000000001
43
0.0000000001
44
0.0000000001
40
0
40
0
40
0
40
1
40
1
40
1
10
0.14546140873531843
20
11.231652810876616
30
0
10
0.13930901730160261
20
11.25626225740219
30
0
10
0.12461176359753157
20
11.272326662843476
30
0
0
SPLINE
5
579
100
AcDbEntity
8
0
100
AcDbSpline
70
0
71
2
72
6
73
3
74
0
42
0.000000001
43
0.0000000001
44
0.0000000001
40
0
40
0
40
0
40
1
40
1
40
1
10
0.12461176359753157
20
11.272326662843476
30
0
10
0.10991450989346052
20
11.288732960527192
30
0
10
0.076418428064389421
20
11.298986866777192
30
0
0
SPLINE
5
580
100
AcDbEntity
8
0
100
AcDbSpline
70
0
71
2
72
6
73
3
74
0
42
0.000000001
43
0.0000000001
44
0.0000000001
40
0
40
0
40
0
40
1
40
1
40
1
10
0.076418428064389421
20
11.298986866777192
30
0
10
0.042580513597531511
20
11.309240773027192
30
0
10
-0.015524925350146102
20
11.309240773027192
30
0
0
SPLINE
5
581
100
AcDbEntity
8
0
100
AcDbSpline
70
0
71
2
72
6
73
3
74
0
42
0.000000001
43
0.0000000001
44
0.0000000001
40
0
40
0
40
0
40
1
40
1
40
1
10
-0.015524925350146102
20
11.309240773027192
30
0
10
-0.073630394100146102
20
11.309240773027192
30
0
10
-0.10473391568561058
20
11.298986866777192
30
0
0
SPLINE
5
582
100
AcDbEntity
8
0
100
AcDbSpline
70
0
71
2
72
6
73
3
74
0
42
0.000000001
43
0.0000000001
44
0.0000000001
40
0
40
0
40
0
40
1
40
1
40
1
10
-0.10473391568561058
20
11.298986866777192
30
0
10
-0.135837437271075
20
11.288732960527192
30
0
10
-0.15326908385653951
20
11.270275905435334
30
0
0
SPLINE
5
583
100
AcDbEntity
8
0
100
AcDbSpline
70
0
71
2
72
6
73
3
74
0
42
0.000000001
43
0.0000000001
44
0.0000000001
40
0
40
0
40
0
40
1
40
1
40
1
10
-0.15326908385653951
20
11.270275905435334
30
0
10
-0.17070073044200396
20
11.251818850343476
30
0
10
-0.176853062271075
20
11.22344966203476
30
0
0
SPLINE
5
584
100
AcDbEntity
8
0
100
AcDbSpline
70
0
71
2
72
6
73
3
74
0
42
0.000000001
43
0.0000000001
44
0.0000000001
40
0
40
0
40
0
40
1
40
1
40
1
10
-0.176853062271075
20
11.22344966203476
30
0
10
-0.1816382125606105
20
11.202258303468476
30
0
10
-0.18163821256061047
20
11.140393092935334
30
0
0
LINE
5
585
100
AcDbEntity
8
0
100
AcDbLine
10
-0.18163821256061047
20
11.140393092935334
30
0
11
-0.18163821256061044
21
11.094934060876618
31
0
0
LINE
5
586
100
AcDbEntity
8
0
100
AcDbLine
10
-0.17753666794200409
20
11.498938157861481
30
0
11
-0.26640382563968168
21
11.498938157861481
31
0
0
LINE
5
587
100
AcDbEntity
8
0
100
AcDbLine
10
-0.26640382563968168
20
11.498938157861481
30
0
11
-0.26640382563968174
21
11.594983055894623
31
0
0
LINE
5
588
100
AcDbEntity
8
0
100
AcDbLine
10
-0.26640382563968179
20
11.594983055894623
30
0
11
-0.17753666794200418
21
11.594983055894623
31
0
0
LINE
5
589
100
AcDbEntity
8
0
100
AcDbLine
10
-0.17753666794200415
20
11.594983055894623
30
0
11
-0.17753666794200409
21
11.498938157861481
31
0
0
LINE
5
590
100
AcDbEntity
8
0
100
AcDbLine
10
0.23467036926846041
20
11.498938157861479
30
0
11
-0.12831789410014616
21
11.498938157861479
31
0
0
LINE
5
591
100
AcDbEntity
8
0
100
AcDbLine
10
-0.12831789410014621
20
11.498938157861481
30
0
11
-0.12831789410014627
21
11.594983055894623
31
0
0
LINE
5
592
100
AcDbEntity
8
0
100
AcDbLine
10
-0.12831789410014627
20
11.594983055894623
30
0
11
0.2346703692684603
21
11.594983055894623
31
0
0
LINE
5
593
100
AcDbEntity
8
0
100
AcDbLine
10
0.2346703692684603
20
11.594983055894621
30
0
11
0.23467036926846035
21
11.498938157861479
31
0
0
SPLINE
5
594
100
AcDbEntity
8
0
100
AcDbSpline
70
0
71
2
72
6
73
3
74
0
42
0.000000001
43
0.0000000001
44
0.0000000001
40
0
40
0
40
0
40
1
40
1
40
1
10
0.048049299360318209
20
11.67120356828476
30
0
10
0.00019773686031820947
20
11.67120356828476
30
0
10
-0.044577659725146324
20
11.694787695710907
30
0
0
SPLINE
5
595
100
AcDbEntity
8
0
100
AcDbSpline
70
0
71
2
72
6
73
3
74
0
42
0.000000001
43
0.0000000001
44
0.0000000001
40
0
40
0
40
0
40
1
40
1
40
1
10
-0.044577659725146324
20
11.694787695710907
30
0
10
-0.089353056310610801
20
11.718371584718476
30
0
10
-0.11293703472514632
20
11.761438086335907
30
0
0
SPLINE
5
596
100
AcDbEntity
8
0
100
AcDbSpline
70
0
71
2
72
6
73
3
74
0
42
0.000000001
43
0.0000000001
44
0.0000000001
40
0
40
0
40
0
40
1
40
1
40
1
10
-0.11293703472514632
20
11.761438086335907
30
0
10
-0.1365210131396819
20
11.804846241777192
30
0
10
-0.1365210131396819
20
11.858166649644623
30
0
0
SPLINE
5
597
100
AcDbEntity
8
0
100
AcDbSpline
70
0
71
2
72
6
73
3
74
0
42
0.000000001
43
0.0000000001
44
0.0000000001
40
0
40
0
40
0
40
1
40
1
40
1
10
-0.1365210131396819
20
11.858166649644623
30
0
10
-0.13652101313968196
20
11.940539553468476
30
0
10
-0.082858921646075445
20
11.993176415269623
30
0
0
SPLINE
5
598
100
AcDbEntity
8
0
100
AcDbSpline
70
0
71
2
72
6
73
3
74
0
42
0.000000001
43
0.0000000001
44
0.0000000001
40
0
40
0
40
0
40
1
40
1
40
1
10
-0.082858921646075445
20
11.993176415269623
30
0
10
-0.029538603185610968
20
12.045813038652192
30
0
10
0.052150843978924555
20
12.045813038652192
30
0
0
SPLINE
5
599
100
AcDbEntity
8
0
100
AcDbSpline
70
0
71
2
72
6
73
3
74
0
42
0.000000001
43
0.0000000001
44
0.0000000001
40
0
40
0
40
0
40
1
40
1
40
1
10
0.052150843978924555
20
12.045813038652192
30
0
10
0.13452389681438903
20
12.045813038652192
30
0
10
0.18886956417660217
20
11.99249263078476
30
0
0
SPLINE
5
600
100
AcDbEntity
8
0
100
AcDbSpline
70
0
71
2
72
6
73
3
74
0
42
0.000000001
43
0.0000000001
44
0.0000000001
40
0
40
0
40
0
40
1
40
1
40
1
10
0.18886956417660217
20
11.99249263078476
30
0
10
0.24287351811031799
20
11.939514115159758
30
0
10
0.2428735181103181
20
11.858850195710906
30
0
0
SPLINE
5
601
100
AcDbEntity
8
0
100
AcDbSpline
70
0
71
2
72
6
73
3
74
0
42
0.000000001
43
0.0000000001
44
0.0000000001
40
0
40
0
40
0
40
1
40
1
40
1
10
0.2428735181103181
20
11.858850195710906
30
0
10
0.2428735181103181
20
11.808947756593474
30
0
10
0.22031488859753123
20
11.763488724534758
30
0
0
SPLINE
5
602
100
AcDbEntity
8
0
100
AcDbSpline
70
0
71
2
72
6
73
3
74
0
42
0.000000001
43
0.0000000001
44
0.0000000001
40
0
40
0
40
0
40
1
40
1
40
1
10
0.22031488859753123
20
11.763488724534758
30
0
10
0.19775631868938925
20
11.718371584718474
30
0
10
0.1543481036434603
20
11.694787695710907
30
0
0
SPLINE
5
603
100
AcDbEntity
8
0
100
AcDbSpline
70
0
71
2
72
6
73
3
74
0
42
0.000000001
43
0.0000000001
44
0.0000000001
40
0
40
0
40
0
40
1
40
1
40
1
10
0.1543481036434603
20
11.694787695710907
30
0
10
0.11059811556438925
20
11.67120356828476
30
0
10
0.048049299360318209
20
11.67120356828476
30
0
0
SPLINE
5
604
100
AcDbEntity
8
0
100
AcDbSpline
70
0
71
2
72
6
73
3
74
0
42
0.000000001
43
0.0000000001
44
0.0000000001
40
0
40
0
40
0
40
1
40
1
40
1
10
0.053176252485318154
20
11.769641115968476
30
0
10
0.10718014681438914
20
11.769641115968476
30
0
10
0.13589104855160228
20
11.795275881593476
30
0
0
SPLINE
5
605
100
AcDbEntity
8
0
100
AcDbSpline
70
0
71
2
72
6
73
3
74
0
42
0.000000001
43
0.0000000001
44
0.0000000001
40
0
40
0
40
0
40
1
40
1
40
1
10
0.13589104855160228
20
11.795275881593476
30
0
10
0.16460200989346019
20
11.820910647218476
30
0
10
0.16460200989346019
20
11.858508303468476
30
0
0
SPLINE
5
606
100
AcDbEntity
8
0
100
AcDbSpline
70
0
71
2
72
6
73
3
74
0
42
0.000000001
43
0.0000000001
44
0.0000000001
40
0
40
0
40
0
40
1
40
1
40
1
10
0.16460200989346019
20
11.858508303468476
30
0
10
0.16460200989346019
20
11.896105959718476
30
0
10
0.13589104855160228
20
11.921399071519623
30
0
0
SPLINE
5
607
100
AcDbEntity
8
0
100
AcDbSpline
70
0
71
2
72
6
73
3
74
0
42
0.000000001
43
0.0000000001
44
0.0000000001
40
0
40
0
40
0
40
1
40
1
40
1
10
0.13589104855160228
20
11.921399071519623
30
0
10
0.10718014681438903
20
11.947033837144623
30
0
10
0.052492646814389088
20
11.947033837144623
30
0
0
SPLINE
5
608
100
AcDbEntity
8
0
100
AcDbSpline
70
0
71
2
72
6
73
3
74
0
42
0.000000001
43
0.0000000001
44
0.0000000001
40
0
40
0
40
0
40
1
40
1
40
1
10
0.052492646814389088
20
11.947033837144623
30
0
10
-0.00082767164607538968
20
11.947033837144623
30
0
10
-0.029538603185610912
20
11.921399071519623
30
0
0
SPLINE
5
609
100
AcDbEntity
8
0
100
AcDbSpline
70
0
71
2
72
6
73
3
74
0
42
0.000000001
43
0.0000000001
44
0.0000000001
40
0
40
0
40
0
40
1
40
1
40
1
10
-0.029538603185610912
20
11.921399071519623
30
0
10
-0.058249534725146435
20
11.896105959718476
30
0
10
-0.058249534725146379
20
11.858508303468476
30
0
0
SPLINE
5
610
100
AcDbEntity
8
0
100
AcDbSpline
70
0
71
2
72
6
73
3
74
0
42
0.000000001
43
0.0000000001
44
0.0000000001
40
0
40
0
40
0
40
1
40
1
40
1
10
-0.058249534725146379
20
11.858508303468476
30
0
10
-0.058249534725146379
20
11.820910647218476
30
0
10
-0.029538603185610857
20
11.795275881593476
30
0
0
SPLINE
5
611
100
AcDbEntity
8
0
100
AcDbSpline
70
0
71
2
72
6
73
3
74
0
42
0.000000001
43
0.0000000001
44
0.0000000001
40
0
40
0
40
0
40
1
40
1
40
1
10
-0.029538603185610857
20
11.795275881593476
30
0
10
-0.00082767164607527866
20
11.769641115968476
30
0
10
0.053176252485318154
20
11.769641115968476
30
0
0
ENDSEC
0
SECTION
2
OBJECTS
0
DICTIONARY
5
C
100
AcDbDictionary
3
ACAD_GROUP
350
D
3
ACAD_MLINESTYLE
350
17
0
DICTIONARY
5
D
100
AcDbDictionary
0
DICTIONARY
5
1A
330
C
100
AcDbDictionary
0
DICTIONARY
5
17
100
AcDbDictionary
0
ENDSEC
0
EOF
