<?xml version="1.0" encoding="utf-8"?>
<!-- Generator: Adobe Illustrator 26.0.2, SVG Export Plug-In . SVG Version: 6.00 Build 0)  -->
<svg version="1.1" id="_x30_" xmlns="http://www.w3.org/2000/svg" xmlns:xlink="http://www.w3.org/1999/xlink" x="0px" y="0px"
	 viewBox="0 0 960 560" style="enable-background:new 0 0 960 560;" xml:space="preserve">
<style type="text/css">
	.st0{fill:none;stroke:#000000;stroke-width:5.000000e-03;stroke-linecap:round;stroke-linejoin:round;stroke-miterlimit:10;}
	.st1{fill:#B32C39;}
	.st2{fill:none;stroke:#3700F4;stroke-width:5.000000e-03;stroke-miterlimit:10;}
	.st3{fill:none;stroke:#3579FF;stroke-width:5.000000e-03;stroke-miterlimit:10;}
</style>
<g id="LWPOLYLINE">
	<path class="st0" d="M480.48,281.88L480.48,281.88c0.11-0.05,0.22-0.14,0.3-0.23v-0.02c0.14-0.18,0.22-0.4,0.22-0.62v-2
		c0-0.23-0.08-0.44-0.22-0.62v-0.02c-0.08-0.1-0.19-0.18-0.3-0.24v0.01c-0.14-0.08-0.31-0.12-0.47-0.12c-0.56,0-1.01,0.45-1.01,1.01
		v1.98c0,0.56,0.45,1.01,1.01,1.01C480.18,282,480.34,281.96,480.48,281.88z"/>
</g>
<g id="LWPOLYLINE_00000063594108599665867540000003713146484474123413_">
	<path class="st0" d="M476.27,270.1C476.27,270.1,476.27,270.1,476.27,270.1c0-2.06,1.67-3.73,3.73-3.73s3.73,1.67,3.73,3.73v19.8
		c0,2.06-1.67,3.73-3.73,3.73s-3.73-1.67-3.73-3.73V270.1z"/>
</g>
<g id="LWPOLYLINE_00000139974613080452893920000012466133644811903389_">
	<path class="st0" d="M476.74,288.65v1.1c0,0.08,0.07,0.15,0.15,0.15c0.08,0,0.15-0.07,0.15-0.15v-1.1c0-0.08-0.07-0.15-0.15-0.15
		C476.81,288.5,476.74,288.56,476.74,288.65z"/>
</g>
<g id="LWPOLYLINE_00000010295961520898046560000003901812396792010381_">
	<path class="st0" d="M477.36,269.38v1.1c0,0.08,0.07,0.15,0.15,0.15c0.08,0,0.15-0.07,0.15-0.15v-1.1c0-0.08-0.07-0.15-0.15-0.15
		C477.43,269.23,477.36,269.29,477.36,269.38z"/>
</g>
<g id="LWPOLYLINE_00000012447539810338420630000002940541602405096603_">
	<path class="st0" d="M478.61,269.38v1.1c0,0.08,0.07,0.15,0.15,0.15c0.08,0,0.15-0.07,0.15-0.15v-1.1c0-0.08-0.07-0.15-0.15-0.15
		C478.68,269.23,478.61,269.29,478.61,269.38z"/>
</g>
<g id="LWPOLYLINE_00000088128786710202516710000007119500779541558415_">
	<path class="st0" d="M480.48,267v0.73c0,0.08,0.07,0.15,0.15,0.15s0.15-0.07,0.15-0.15V267c0-0.06-0.04-0.12-0.1-0.14
		c-0.02,0-0.03-0.01-0.05-0.01C480.56,266.84,480.49,266.91,480.48,267C480.48,266.99,480.48,266.99,480.48,267z"/>
</g>
<g id="LWPOLYLINE_00000098926956014231670780000015027503233450956201_">
	<path class="st0" d="M481.73,267.6v1.96c0,0.08,0.07,0.15,0.15,0.15c0.08,0,0.15-0.07,0.15-0.15v-1.96c0-0.08-0.07-0.15-0.15-0.15
		C481.8,267.45,481.73,267.51,481.73,267.6z"/>
</g>
<g id="LWPOLYLINE_00000081640281763175297750000003740401656180916902_">
	<path class="st0" d="M482.98,272.13v1.1c0,0.08,0.07,0.15,0.15,0.15c0.08,0,0.15-0.07,0.15-0.15v-1.1c0-0.08-0.07-0.15-0.15-0.15
		C483.05,271.98,482.98,272.05,482.98,272.13z"/>
</g>
<g id="LWPOLYLINE_00000098196141993573704190000008163592072280281248_">
	<path class="st0" d="M480.48,270.3v1.1c0,0.08,0.07,0.15,0.15,0.15s0.15-0.07,0.15-0.15v-1.1c0-0.08-0.07-0.15-0.15-0.15
		S480.48,270.21,480.48,270.3z"/>
</g>
<g id="LWPOLYLINE_00000133488605549229865810000002581444846122699965_">
	<path class="st0" d="M479.24,272.13v1.1c0,0.08,0.07,0.15,0.15,0.15c0.08,0,0.15-0.07,0.15-0.15v-1.1c0-0.08-0.07-0.15-0.15-0.15
		C479.3,271.98,479.24,272.05,479.24,272.13z"/>
</g>
<g id="LWPOLYLINE_00000024717909355195447810000000079289078562982590_">
	<path class="st0" d="M476.74,270.3v1.1c0,0.08,0.07,0.15,0.15,0.15c0.08,0,0.15-0.07,0.15-0.15v-1.1c0-0.08-0.07-0.15-0.15-0.15
		C476.81,270.15,476.74,270.21,476.74,270.3z"/>
</g>
<g id="LWPOLYLINE_00000159430434965295589380000006327098009920020156_">
	<path class="st0" d="M478.61,273.05v1.1c0,0.08,0.07,0.15,0.15,0.15c0.08,0,0.15-0.07,0.15-0.15v-1.1c0-0.08-0.07-0.15-0.15-0.15
		C478.68,272.9,478.61,272.97,478.61,273.05z"/>
</g>
<g id="LWPOLYLINE_00000036232356525964494790000010248592721092895153_">
	<path class="st0" d="M478.61,276.72v1.1c0,0.08,0.07,0.15,0.15,0.15c0.08,0,0.15-0.07,0.15-0.15v-1.1c0-0.08-0.07-0.15-0.15-0.15
		C478.68,276.57,478.61,276.64,478.61,276.72z"/>
</g>
<g id="LWPOLYLINE_00000045585844712375037390000006289518745502151613_">
	<path class="st0" d="M479.86,273.05v1.1c0,0.08,0.07,0.15,0.15,0.15c0.08,0,0.15-0.07,0.15-0.15v-1.1c0-0.08-0.07-0.15-0.15-0.15
		C479.93,272.9,479.86,272.97,479.86,273.05z"/>
</g>
<g id="LWPOLYLINE_00000122700466547490323670000007873378418363290241_">
	<path class="st0" d="M480.48,273.97v1.1c0,0.08,0.07,0.15,0.15,0.15s0.15-0.07,0.15-0.15v-1.1c0-0.08-0.07-0.15-0.15-0.15
		S480.48,273.88,480.48,273.97z"/>
</g>
<g id="LWPOLYLINE_00000142156352395209126300000010038200123008671155_">
	<path class="st0" d="M481.11,273.05v1.1c0,0.08,0.07,0.15,0.15,0.15c0.08,0,0.15-0.07,0.15-0.15v-1.1c0-0.08-0.07-0.15-0.15-0.15
		C481.17,272.9,481.11,272.97,481.11,273.05z"/>
</g>
<g id="LWPOLYLINE_00000070834885168757813630000013345409928404233108_">
	<path class="st0" d="M482.36,276.72v1.1c0,0.08,0.07,0.15,0.15,0.15c0.08,0,0.15-0.07,0.15-0.15v-1.1c0-0.08-0.07-0.15-0.15-0.15
		C482.42,276.57,482.36,276.64,482.36,276.72z"/>
</g>
<g id="LWPOLYLINE_00000096755861619595998460000018140012988007218328_">
	<path class="st0" d="M482.98,275.8v1.1c0,0.08,0.07,0.15,0.15,0.15c0.08,0,0.15-0.07,0.15-0.15v-1.1c0-0.08-0.07-0.15-0.15-0.15
		C483.05,275.65,482.98,275.72,482.98,275.8z"/>
</g>
<g id="LWPOLYLINE_00000124848740718651248900000008524365140363047347_">
	<path class="st0" d="M481.73,273.97v1.1c0,0.08,0.07,0.15,0.15,0.15c0.08,0,0.15-0.07,0.15-0.15v-1.1c0-0.08-0.07-0.15-0.15-0.15
		C481.8,273.82,481.73,273.88,481.73,273.97z"/>
</g>
<g id="LWPOLYLINE_00000127024878775278545530000008258206453907677331_">
	<path class="st0" d="M481.73,281.31v1.1c0,0.08,0.07,0.15,0.15,0.15c0.08,0,0.15-0.07,0.15-0.15v-1.1c0-0.08-0.07-0.15-0.15-0.15
		C481.8,281.16,481.73,281.22,481.73,281.31z"/>
</g>
<g id="LWPOLYLINE_00000069375650762195811180000016874374557525731254_">
	<path class="st0" d="M477.36,278.55v1.1c0,0.08,0.07,0.15,0.15,0.15c0.08,0,0.15-0.07,0.15-0.15v-1.1c0-0.08-0.07-0.15-0.15-0.15
		C477.43,278.4,477.36,278.47,477.36,278.55z"/>
</g>
<g id="LWPOLYLINE_00000023272067121512696970000017278521649289201563_">
	<path class="st0" d="M476.74,275.8v1.1c0,0.08,0.07,0.15,0.15,0.15c0.08,0,0.15-0.07,0.15-0.15v-1.1c0-0.08-0.07-0.15-0.15-0.15
		C476.81,275.65,476.74,275.72,476.74,275.8z"/>
</g>
<g id="LWPOLYLINE_00000003082150820074441010000011442752325320984970_">
	<path class="st0" d="M482.98,283.14v1.1c0,0.08,0.07,0.15,0.15,0.15c0.08,0,0.15-0.07,0.15-0.15v-1.1c0-0.08-0.07-0.15-0.15-0.15
		C483.05,282.99,482.98,283.06,482.98,283.14z"/>
</g>
<g id="LWPOLYLINE_00000171693767650426947000000007065010466280016826_">
	<path class="st0" d="M480.48,283.14v1.1c0,0.08,0.07,0.15,0.15,0.15s0.15-0.07,0.15-0.15v-1.1c0-0.08-0.07-0.15-0.15-0.15
		S480.48,283.06,480.48,283.14z"/>
</g>
<g id="LWPOLYLINE_00000155117365928537238020000014376869675173373058_">
	<path class="st0" d="M477.99,281.31v1.1c0,0.08,0.07,0.15,0.15,0.15s0.15-0.07,0.15-0.15v-1.1c0-0.08-0.07-0.15-0.15-0.15
		S477.99,281.22,477.99,281.31z"/>
</g>
<g id="LWPOLYLINE_00000172422763392055265580000013120818524056988054_">
	<path class="st0" d="M478.61,282.22v1.1c0,0.08,0.07,0.15,0.15,0.15c0.08,0,0.15-0.07,0.15-0.15v-1.1c0-0.08-0.07-0.15-0.15-0.15
		C478.68,282.07,478.61,282.14,478.61,282.22z"/>
</g>
<g id="LWPOLYLINE_00000054972166783074454820000007905335413192338867_">
	<path class="st0" d="M481.11,285.89v1.1c0,0.08,0.07,0.15,0.15,0.15c0.08,0,0.15-0.07,0.15-0.15v-1.1c0-0.08-0.07-0.15-0.15-0.15
		C481.17,285.74,481.11,285.81,481.11,285.89z"/>
</g>
<g id="LWPOLYLINE_00000078037012662547900280000015252719590613291424_">
	<path class="st0" d="M482.98,286.81v1.1c0,0.08,0.07,0.15,0.15,0.15c0.08,0,0.15-0.07,0.15-0.15v-1.1c0-0.08-0.07-0.15-0.15-0.15
		C483.05,286.66,482.98,286.73,482.98,286.81z"/>
</g>
<g id="LWPOLYLINE_00000083066291457198412080000008928509871691078330_">
	<path class="st0" d="M479.24,284.98v1.1c0,0.08,0.07,0.15,0.15,0.15c0.08,0,0.15-0.07,0.15-0.15v-1.1c0-0.08-0.07-0.15-0.15-0.15
		C479.3,284.83,479.24,284.89,479.24,284.98z"/>
</g>
<g id="LWPOLYLINE_00000173127976632176714230000007107955890562607533_">
	<path class="st0" d="M477.36,284.06v1.1c0,0.08,0.07,0.15,0.15,0.15c0.08,0,0.15-0.07,0.15-0.15v-1.1c0-0.08-0.07-0.15-0.15-0.15
		C477.43,283.91,477.36,283.97,477.36,284.06z"/>
</g>
<g id="LWPOLYLINE_00000006676183856510481490000006680730075862001052_">
	<path class="st0" d="M479.86,287.73v1.1c0,0.08,0.07,0.15,0.15,0.15c0.08,0,0.15-0.07,0.15-0.15v-1.1c0-0.08-0.07-0.15-0.15-0.15
		C479.93,287.58,479.86,287.64,479.86,287.73z"/>
</g>
<g id="LWPOLYLINE_00000132786931829830166980000016003585291315529358_">
	<path class="st0" d="M481.73,288.65v1.1c0,0.08,0.07,0.15,0.15,0.15c0.08,0,0.15-0.07,0.15-0.15v-1.1c0-0.08-0.07-0.15-0.15-0.15
		C481.8,288.5,481.73,288.56,481.73,288.65z"/>
</g>
<g id="LWPOLYLINE_00000134251502873831943850000007724900829991549334_">
	<path class="st0" d="M480.16,290.66v-1.1c0-0.08-0.07-0.15-0.15-0.15c-0.08,0-0.15,0.07-0.15,0.15v1.1c0,0.08,0.07,0.15,0.15,0.15
		C480.09,290.81,480.16,290.75,480.16,290.66z"/>
</g>
<g id="LWPOLYLINE_00000030479879706402375630000006499603405914112942_">
	<path class="st0" d="M477.36,285.89v1.1c0,0.08,0.07,0.15,0.15,0.15c0.08,0,0.15-0.07,0.15-0.15v-1.1c0-0.08-0.07-0.15-0.15-0.15
		C477.43,285.74,477.36,285.81,477.36,285.89z"/>
</g>
<g id="LWPOLYLINE_00000108997209917721206720000015237975822695301812_">
	<path class="st0" d="M477.99,288.65v1.1c0,0.08,0.07,0.15,0.15,0.15s0.15-0.07,0.15-0.15v-1.1c0-0.08-0.07-0.15-0.15-0.15
		S477.99,288.56,477.99,288.65z"/>
</g>
<g id="LWPOLYLINE_00000150062080223070152280000014845180781136337594_">
	<path class="st0" d="M481.41,290.66v-1.1c0-0.08-0.07-0.15-0.15-0.15c-0.08,0-0.15,0.07-0.15,0.15v1.1c0,0.08,0.07,0.15,0.15,0.15
		C481.34,290.81,481.41,290.75,481.41,290.66z"/>
</g>
<g id="LWPOLYLINE_00000182499917313363420740000009158007461608063669_">
	<path class="st0" d="M480.16,293.05v-1.65c0-0.08-0.07-0.15-0.15-0.15c-0.08,0-0.15,0.07-0.15,0.15v1.65
		c0,0.08,0.07,0.15,0.15,0.15C480.09,293.2,480.16,293.13,480.16,293.05z"/>
</g>
<g id="LWPOLYLINE_00000143585994727138713630000000164002869528594870_">
	<path class="st0" d="M477.66,290.66v-1.1c0-0.08-0.07-0.15-0.15-0.15s-0.15,0.07-0.15,0.15v1.1c0,0.08,0.07,0.15,0.15,0.15
		S477.66,290.75,477.66,290.66z"/>
</g>
<g id="LWPOLYLINE_00000181772345224188706030000006290951407435876241_">
	<path class="st0" d="M477.66,291.8v-0.4c0-0.08-0.07-0.15-0.15-0.15s-0.15,0.07-0.15,0.15v0.4c0,0.08,0.07,0.15,0.15,0.15
		S477.66,291.88,477.66,291.8z"/>
</g>
<g id="LWPOLYLINE_00000049198035927566282580000001538635955541907349_">
	<path class="st0" d="M479.54,293v-0.68c0-0.08-0.07-0.15-0.15-0.15c-0.08,0-0.15,0.07-0.15,0.15V293c0,0.08,0.07,0.15,0.15,0.15
		C479.47,293.15,479.54,293.08,479.54,293z"/>
</g>
<g id="LWPOLYLINE_00000178892480125908573510000008734259564570161801_">
	<path class="st0" d="M482.03,292.4v-1.92c0-0.08-0.07-0.15-0.15-0.15c-0.08,0-0.15,0.07-0.15,0.15v1.92c0,0.08,0.07,0.15,0.15,0.15
		C481.96,292.55,482.03,292.48,482.03,292.4z"/>
</g>
<g id="LWPOLYLINE_00000083047207433590090230000010906236404772247227_">
	<path class="st0" d="M478.91,290.66v-1.1c0-0.08-0.07-0.15-0.15-0.15c-0.08,0-0.15,0.07-0.15,0.15v1.1c0,0.08,0.07,0.15,0.15,0.15
		C478.84,290.81,478.91,290.75,478.91,290.66z"/>
</g>
<g id="LWPOLYLINE_00000086676393503644884510000002321128988540855171_">
	<path class="st0" d="M476.74,284.98v1.1c0,0.08,0.07,0.15,0.15,0.15c0.08,0,0.15-0.07,0.15-0.15v-1.1c0-0.08-0.07-0.15-0.15-0.15
		C476.81,284.83,476.74,284.89,476.74,284.98z"/>
</g>
<g id="LWPOLYLINE_00000104695523949704538490000001946950016501573556_">
	<path class="st0" d="M479.24,288.65v1.1c0,0.08,0.07,0.15,0.15,0.15c0.08,0,0.15-0.07,0.15-0.15v-1.1c0-0.08-0.07-0.15-0.15-0.15
		C479.3,288.5,479.24,288.56,479.24,288.65z"/>
</g>
<g id="LWPOLYLINE_00000137849155584657841080000017626963192405448122_">
	<path class="st0" d="M482.66,290.66v-1.1c0-0.08-0.07-0.15-0.15-0.15c-0.08,0-0.15,0.07-0.15,0.15v1.1c0,0.08,0.07,0.15,0.15,0.15
		C482.59,290.81,482.66,290.75,482.66,290.66z"/>
</g>
<g id="LWPOLYLINE_00000152261985668121658290000000248001321869321399_">
	<path class="st0" d="M481.11,287.73v1.1c0,0.08,0.07,0.15,0.15,0.15c0.08,0,0.15-0.07,0.15-0.15v-1.1c0-0.08-0.07-0.15-0.15-0.15
		C481.17,287.58,481.11,287.64,481.11,287.73z"/>
</g>
<g id="LWPOLYLINE_00000162314035054530594000000001604647340461072516_">
	<path class="st0" d="M477.99,284.98v1.1c0,0.08,0.07,0.15,0.15,0.15s0.15-0.07,0.15-0.15v-1.1c0-0.08-0.07-0.15-0.15-0.15
		S477.99,284.89,477.99,284.98z"/>
</g>
<g id="LWPOLYLINE_00000126319790985466998820000016485206569818288294_">
	<path class="st0" d="M478.61,284.06v1.1c0,0.08,0.07,0.15,0.15,0.15c0.08,0,0.15-0.07,0.15-0.15v-1.1c0-0.08-0.07-0.15-0.15-0.15
		C478.68,283.91,478.61,283.97,478.61,284.06z"/>
</g>
<g id="LWPOLYLINE_00000160886975352731911530000013622323839395433660_">
	<path class="st0" d="M481.73,286.81v1.1c0,0.08,0.07,0.15,0.15,0.15c0.08,0,0.15-0.07,0.15-0.15v-1.1c0-0.08-0.07-0.15-0.15-0.15
		C481.8,286.66,481.73,286.73,481.73,286.81z"/>
</g>
<g id="LWPOLYLINE_00000172421066423210215200000000344651730065306242_">
	<path class="st0" d="M481.73,284.98v1.1c0,0.08,0.07,0.15,0.15,0.15c0.08,0,0.15-0.07,0.15-0.15v-1.1c0-0.08-0.07-0.15-0.15-0.15
		C481.8,284.83,481.73,284.89,481.73,284.98z"/>
</g>
<g id="LWPOLYLINE_00000129205036838746425140000000535543308513186946_">
	<path class="st0" d="M479.24,283.14v1.1c0,0.08,0.07,0.15,0.15,0.15c0.08,0,0.15-0.07,0.15-0.15v-1.1c0-0.08-0.07-0.15-0.15-0.15
		C479.3,282.99,479.24,283.06,479.24,283.14z"/>
</g>
<g id="LWPOLYLINE_00000024684573072758576200000008522883431024810637_">
	<path class="st0" d="M477.36,280.39v1.1c0,0.08,0.07,0.15,0.15,0.15c0.08,0,0.15-0.07,0.15-0.15v-1.1c0-0.08-0.07-0.15-0.15-0.15
		C477.43,280.24,477.36,280.3,477.36,280.39z"/>
</g>
<g id="LWPOLYLINE_00000085240111310166680000000014534405646703219340_">
	<path class="st0" d="M482.36,284.06v1.1c0,0.08,0.07,0.15,0.15,0.15c0.08,0,0.15-0.07,0.15-0.15v-1.1c0-0.08-0.07-0.15-0.15-0.15
		C482.42,283.91,482.36,283.97,482.36,284.06z"/>
</g>
<g id="LWPOLYLINE_00000165202648174103565070000001232795232863525029_">
	<path class="st0" d="M476.74,279.47v1.1c0,0.08,0.07,0.15,0.15,0.15c0.08,0,0.15-0.07,0.15-0.15v-1.1c0-0.08-0.07-0.15-0.15-0.15
		C476.81,279.32,476.74,279.39,476.74,279.47z"/>
</g>
<g id="LWPOLYLINE_00000115488740936617894780000009379128964135324590_">
	<path class="st0" d="M477.36,276.72v1.1c0,0.08,0.07,0.15,0.15,0.15c0.08,0,0.15-0.07,0.15-0.15v-1.1c0-0.08-0.07-0.15-0.15-0.15
		C477.43,276.57,477.36,276.64,477.36,276.72z"/>
</g>
<g id="LWPOLYLINE_00000081616633760660360150000015434289962734467720_">
	<path class="st0" d="M481.11,282.22v1.1c0,0.08,0.07,0.15,0.15,0.15c0.08,0,0.15-0.07,0.15-0.15v-1.1c0-0.08-0.07-0.15-0.15-0.15
		C481.17,282.07,481.11,282.14,481.11,282.22z"/>
</g>
<g id="LWPOLYLINE_00000107578179232282853690000002280436042381970817_">
	<path class="st0" d="M481.73,275.8v1.1c0,0.08,0.07,0.15,0.15,0.15c0.08,0,0.15-0.07,0.15-0.15v-1.1c0-0.08-0.07-0.15-0.15-0.15
		C481.8,275.65,481.73,275.72,481.73,275.8z"/>
</g>
<g id="LWPOLYLINE_00000016764354728929485370000009902164696504288645_">
	<path class="st0" d="M482.98,277.64v1.1c0,0.08,0.07,0.15,0.15,0.15c0.08,0,0.15-0.07,0.15-0.15v-1.1c0-0.08-0.07-0.15-0.15-0.15
		C483.05,277.49,482.98,277.55,482.98,277.64z"/>
</g>
<g id="LWPOLYLINE_00000153700392946570295510000000662502347107685804_">
	<path class="st0" d="M482.36,278.55v1.1c0,0.08,0.07,0.15,0.15,0.15c0.08,0,0.15-0.07,0.15-0.15v-1.1c0-0.08-0.07-0.15-0.15-0.15
		C482.42,278.4,482.36,278.47,482.36,278.55z"/>
</g>
<g id="LWPOLYLINE_00000087387522250867025120000004104605940756536724_">
	<path class="st0" d="M481.73,272.13v1.1c0,0.08,0.07,0.15,0.15,0.15c0.08,0,0.15-0.07,0.15-0.15v-1.1c0-0.08-0.07-0.15-0.15-0.15
		C481.8,271.98,481.73,272.05,481.73,272.13z"/>
</g>
<g id="LWPOLYLINE_00000034048386450509615880000016854451660126944157_">
	<path class="st0" d="M480.48,275.8v1.1c0,0.08,0.07,0.15,0.15,0.15s0.15-0.07,0.15-0.15v-1.1c0-0.08-0.07-0.15-0.15-0.15
		S480.48,275.72,480.48,275.8z"/>
</g>
<g id="LWPOLYLINE_00000000931230138758626140000013145625591401599877_">
	<path class="st0" d="M479.86,274.88v1.1c0,0.08,0.07,0.15,0.15,0.15c0.08,0,0.15-0.07,0.15-0.15v-1.1c0-0.08-0.07-0.15-0.15-0.15
		C479.93,274.73,479.86,274.8,479.86,274.88z"/>
</g>
<g id="LWPOLYLINE_00000047747083357100301580000001136297823822269601_">
	<path class="st0" d="M477.99,273.97v1.1c0,0.08,0.07,0.15,0.15,0.15s0.15-0.07,0.15-0.15v-1.1c0-0.08-0.07-0.15-0.15-0.15
		S477.99,273.88,477.99,273.97z"/>
</g>
<g id="LWPOLYLINE_00000085251379605233957600000011384891268575798155_">
	<path class="st0" d="M477.99,272.13v1.1c0,0.08,0.07,0.15,0.15,0.15s0.15-0.07,0.15-0.15v-1.1c0-0.08-0.07-0.15-0.15-0.15
		S477.99,272.05,477.99,272.13z"/>
</g>
<g id="LWPOLYLINE_00000083070847050327661840000007116963474532060331_">
	<path class="st0" d="M478.61,271.21v1.1c0,0.08,0.07,0.15,0.15,0.15c0.08,0,0.15-0.07,0.15-0.15v-1.1c0-0.08-0.07-0.15-0.15-0.15
		C478.68,271.06,478.61,271.13,478.61,271.21z"/>
</g>
<g id="LWPOLYLINE_00000183226134399159854540000004319769176984678046_">
	<path class="st0" d="M480.48,272.13v1.1c0,0.08,0.07,0.15,0.15,0.15s0.15-0.07,0.15-0.15v-1.1c0-0.08-0.07-0.15-0.15-0.15
		S480.48,272.05,480.48,272.13z"/>
</g>
<g id="LWPOLYLINE_00000109018574190196639620000017175164574037288596_">
	<path class="st0" d="M482.36,271.21v1.1c0,0.08,0.07,0.15,0.15,0.15c0.08,0,0.15-0.07,0.15-0.15v-1.1c0-0.08-0.07-0.15-0.15-0.15
		C482.42,271.06,482.36,271.13,482.36,271.21z"/>
</g>
<g id="LWPOLYLINE_00000133517412925637539490000004454251119743049371_">
	<path class="st0" d="M482.36,269.38v1.1c0,0.08,0.07,0.15,0.15,0.15c0.08,0,0.15-0.07,0.15-0.15v-1.1c0-0.08-0.07-0.15-0.15-0.15
		C482.42,269.23,482.36,269.29,482.36,269.38z"/>
</g>
<g id="LWPOLYLINE_00000029758585029491021030000012930500708405442454_">
	<path class="st0" d="M480.48,268.46v1.1c0,0.08,0.07,0.15,0.15,0.15s0.15-0.07,0.15-0.15v-1.1c0-0.08-0.07-0.15-0.15-0.15
		S480.48,268.38,480.48,268.46z"/>
</g>
<g id="LWPOLYLINE_00000065783372828098730370000000857378374088624802_">
	<path class="st0" d="M479.24,268.46v1.1c0,0.08,0.07,0.15,0.15,0.15c0.08,0,0.15-0.07,0.15-0.15v-1.1c0-0.08-0.07-0.15-0.15-0.15
		C479.3,268.31,479.24,268.38,479.24,268.46z"/>
</g>
<g id="LWPOLYLINE_00000007425488712819256240000010598682577387020936_">
	<path class="st0" d="M477.36,268.25v0.39c0,0.08,0.07,0.15,0.15,0.15c0.08,0,0.15-0.07,0.15-0.15v-0.39c0-0.08-0.07-0.15-0.15-0.15
		C477.43,268.1,477.36,268.16,477.36,268.25z"/>
</g>
<g id="LWPOLYLINE_00000140706181314120393970000005811605946504544929_">
	<path class="st0" d="M478.61,267.2v1.45c0,0.08,0.07,0.15,0.15,0.15c0.08,0,0.15-0.07,0.15-0.15v-1.45c0-0.08-0.07-0.15-0.15-0.15
		c-0.01,0-0.03,0-0.04,0.01c-0.01,0.01-0.03,0.01-0.04,0.02C478.64,267.1,478.61,267.14,478.61,267.2z"/>
</g>
<g id="LWPOLYLINE_00000014593060064574302550000015034966889729294258_">
	<path class="st0" d="M479.86,266.95v0.8c0,0.08,0.07,0.15,0.15,0.15s0.15-0.07,0.15-0.15v-0.8c0-0.08-0.07-0.15-0.15-0.15
		S479.86,266.86,479.86,266.95z"/>
</g>
<g id="LWPOLYLINE_00000110444454141462852450000000515147719987685517_">
	<path class="st0" d="M481.11,267.2v1.45c0,0.08,0.07,0.15,0.15,0.15c0.08,0,0.15-0.07,0.15-0.15v-1.45c0-0.08-0.07-0.15-0.15-0.15
		C481.17,267.05,481.11,267.11,481.11,267.2z"/>
</g>
<g id="LWPOLYLINE_00000154419791277996601690000018078775409033194401_">
	<path class="st0" d="M482.98,270.3v1.1c0,0.08,0.07,0.15,0.15,0.15c0.08,0,0.15-0.07,0.15-0.15v-1.1c0-0.08-0.07-0.15-0.15-0.15
		C483.05,270.15,482.98,270.21,482.98,270.3z"/>
</g>
<g id="LWPOLYLINE_00000072958892121583728830000012555661198364027835_">
	<path class="st0" d="M481.11,271.21v1.1c0,0.08,0.07,0.15,0.15,0.15c0.08,0,0.15-0.07,0.15-0.15v-1.1c0-0.08-0.07-0.15-0.15-0.15
		C481.17,271.06,481.11,271.13,481.11,271.21z"/>
</g>
<g id="LWPOLYLINE_00000152984093433796608960000012411517561996485766_">
	<path class="st0" d="M479.86,271.21v1.1c0,0.08,0.07,0.15,0.15,0.15c0.08,0,0.15-0.07,0.15-0.15v-1.1c0-0.08-0.07-0.15-0.15-0.15
		C479.93,271.06,479.86,271.13,479.86,271.21z"/>
</g>
<g id="LWPOLYLINE_00000064336574836423195610000014568224963892009402_">
	<path class="st0" d="M477.36,271.21v1.1c0,0.08,0.07,0.15,0.15,0.15c0.08,0,0.15-0.07,0.15-0.15v-1.1c0-0.08-0.07-0.15-0.15-0.15
		C477.43,271.06,477.36,271.13,477.36,271.21z"/>
</g>
<g id="LWPOLYLINE_00000152252672798238021550000012292976559272629153_">
	<path class="st0" d="M477.36,273.05v1.1c0,0.08,0.07,0.15,0.15,0.15c0.08,0,0.15-0.07,0.15-0.15v-1.1c0-0.08-0.07-0.15-0.15-0.15
		C477.43,272.9,477.36,272.97,477.36,273.05z"/>
</g>
<g id="LWPOLYLINE_00000046331400643081715450000007839306184363710348_">
	<path class="st0" d="M478.61,274.88v1.1c0,0.08,0.07,0.15,0.15,0.15c0.08,0,0.15-0.07,0.15-0.15v-1.1c0-0.08-0.07-0.15-0.15-0.15
		C478.68,274.73,478.61,274.8,478.61,274.88z"/>
</g>
<g id="LWPOLYLINE_00000155832064311925383000000009934606999485239974_">
	<path class="st0" d="M479.24,273.97v1.1c0,0.08,0.07,0.15,0.15,0.15c0.08,0,0.15-0.07,0.15-0.15v-1.1c0-0.08-0.07-0.15-0.15-0.15
		C479.3,273.82,479.24,273.88,479.24,273.97z"/>
</g>
<g id="LWPOLYLINE_00000151519200404068807260000008062096061846754479_">
	<path class="st0" d="M481.11,274.88v1.1c0,0.08,0.07,0.15,0.15,0.15c0.08,0,0.15-0.07,0.15-0.15v-1.1c0-0.08-0.07-0.15-0.15-0.15
		C481.17,274.73,481.11,274.8,481.11,274.88z"/>
</g>
<g id="LWPOLYLINE_00000178898718811729437240000010146931916867666324_">
	<path class="st0" d="M482.36,274.88v1.1c0,0.08,0.07,0.15,0.15,0.15c0.08,0,0.15-0.07,0.15-0.15v-1.1c0-0.08-0.07-0.15-0.15-0.15
		C482.42,274.73,482.36,274.8,482.36,274.88z"/>
</g>
<g id="LWPOLYLINE_00000163053358419735325240000012448545728195032976_">
	<path class="st0" d="M482.98,273.97v1.1c0,0.08,0.07,0.15,0.15,0.15c0.08,0,0.15-0.07,0.15-0.15v-1.1c0-0.08-0.07-0.15-0.15-0.15
		C483.05,273.82,482.98,273.88,482.98,273.97z"/>
</g>
<g id="LWPOLYLINE_00000181085972573063120840000005565762752597837459_">
	<path class="st0" d="M482.98,281.31v1.1c0,0.08,0.07,0.15,0.15,0.15c0.08,0,0.15-0.07,0.15-0.15v-1.1c0-0.08-0.07-0.15-0.15-0.15
		C483.05,281.16,482.98,281.22,482.98,281.31z"/>
</g>
<g id="LWPOLYLINE_00000167380953868542537850000016963840387368178361_">
	<path class="st0" d="M481.73,279.47v1.1c0,0.08,0.07,0.15,0.15,0.15c0.08,0,0.15-0.07,0.15-0.15v-1.1c0-0.08-0.07-0.15-0.15-0.15
		C481.8,279.32,481.73,279.39,481.73,279.47z"/>
</g>
<g id="LWPOLYLINE_00000114758805134120255530000007706037558638548151_">
	<path class="st0" d="M477.99,279.47v1.1c0,0.08,0.07,0.15,0.15,0.15s0.15-0.07,0.15-0.15v-1.1c0-0.08-0.07-0.15-0.15-0.15
		S477.99,279.39,477.99,279.47z"/>
</g>
<g id="LWPOLYLINE_00000041256348256303733090000002283986195321046660_">
	<path class="st0" d="M476.74,273.97v1.1c0,0.08,0.07,0.15,0.15,0.15c0.08,0,0.15-0.07,0.15-0.15v-1.1c0-0.08-0.07-0.15-0.15-0.15
		C476.81,273.82,476.74,273.88,476.74,273.97z"/>
</g>
<g id="LWPOLYLINE_00000016766318899924092300000008148560020065101245_">
	<path class="st0" d="M482.36,282.22v1.1c0,0.08,0.07,0.15,0.15,0.15c0.08,0,0.15-0.07,0.15-0.15v-1.1c0-0.08-0.07-0.15-0.15-0.15
		C482.42,282.07,482.36,282.14,482.36,282.22z"/>
</g>
<g id="LWPOLYLINE_00000132769325080780734760000012464266235012242339_">
	<path class="st0" d="M481.11,284.06v1.1c0,0.08,0.07,0.15,0.15,0.15c0.08,0,0.15-0.07,0.15-0.15v-1.1c0-0.08-0.07-0.15-0.15-0.15
		C481.17,283.91,481.11,283.97,481.11,284.06z"/>
</g>
<g id="LWPOLYLINE_00000087392849401075116170000002548758891579371190_">
	<path class="st0" d="M477.36,282.22v1.1c0,0.08,0.07,0.15,0.15,0.15c0.08,0,0.15-0.07,0.15-0.15v-1.1c0-0.08-0.07-0.15-0.15-0.15
		C477.43,282.07,477.36,282.14,477.36,282.22z"/>
</g>
<g id="LWPOLYLINE_00000098218600064514991050000016541153204080148639_">
	<path class="st0" d="M480.48,284.98v1.1c0,0.08,0.07,0.15,0.15,0.15s0.15-0.07,0.15-0.15v-1.1c0-0.08-0.07-0.15-0.15-0.15
		S480.48,284.89,480.48,284.98z"/>
</g>
<g id="LWPOLYLINE_00000045612524668464040760000017337735002568139656_">
	<path class="st0" d="M482.98,284.98v1.1c0,0.08,0.07,0.15,0.15,0.15c0.08,0,0.15-0.07,0.15-0.15v-1.1c0-0.08-0.07-0.15-0.15-0.15
		C483.05,284.83,482.98,284.89,482.98,284.98z"/>
</g>
<g id="LWPOLYLINE_00000168106702929830239170000002866953484307420564_">
	<path class="st0" d="M479.86,285.89v1.1c0,0.08,0.07,0.15,0.15,0.15c0.08,0,0.15-0.07,0.15-0.15v-1.1c0-0.08-0.07-0.15-0.15-0.15
		C479.93,285.74,479.86,285.81,479.86,285.89z"/>
</g>
<g id="LWPOLYLINE_00000150805149418164219060000008397607554655782313_">
	<path class="st0" d="M476.74,283.14v1.1c0,0.08,0.07,0.15,0.15,0.15c0.08,0,0.15-0.07,0.15-0.15v-1.1c0-0.08-0.07-0.15-0.15-0.15
		C476.81,282.99,476.74,283.06,476.74,283.14z"/>
</g>
<g id="LWPOLYLINE_00000125568107752538440450000002286613820573332659_">
	<path class="st0" d="M479.24,286.81v1.1c0,0.08,0.07,0.15,0.15,0.15c0.08,0,0.15-0.07,0.15-0.15v-1.1c0-0.08-0.07-0.15-0.15-0.15
		C479.3,286.66,479.24,286.73,479.24,286.81z"/>
</g>
<g id="LWPOLYLINE_00000171707080359622168580000013388760934098183582_">
	<path class="st0" d="M482.98,288.65v1.1c0,0.08,0.07,0.15,0.15,0.15c0.08,0,0.15-0.07,0.15-0.15v-1.1c0-0.08-0.07-0.15-0.15-0.15
		C483.05,288.5,482.98,288.56,482.98,288.65z"/>
</g>
<g id="LWPOLYLINE_00000134928815414320531570000000367601012207358119_">
	<path class="st0" d="M480.48,288.65v1.1c0,0.08,0.07,0.15,0.15,0.15s0.15-0.07,0.15-0.15v-1.1c0-0.08-0.07-0.15-0.15-0.15
		S480.48,288.56,480.48,288.65z"/>
</g>
<g id="LWPOLYLINE_00000003827826895046611430000013356864600513551026_">
	<path class="st0" d="M477.99,286.81v1.1c0,0.08,0.07,0.15,0.15,0.15s0.15-0.07,0.15-0.15v-1.1c0-0.08-0.07-0.15-0.15-0.15
		S477.99,286.73,477.99,286.81z"/>
</g>
<g id="LWPOLYLINE_00000147921676706656310060000000241584568829841593_">
	<path class="st0" d="M477.36,287.73v1.1c0,0.08,0.07,0.15,0.15,0.15s0.15-0.07,0.15-0.15v-1.1c0-0.08-0.07-0.15-0.15-0.15
		S477.36,287.64,477.36,287.73z"/>
</g>
<g id="LWPOLYLINE_00000096758815523176798690000009143466684166196897_">
	<path class="st0" d="M480.78,291.58v-1.1c0-0.08-0.07-0.15-0.15-0.15s-0.15,0.07-0.15,0.15v1.1c0,0.08,0.07,0.15,0.15,0.15
		S480.78,291.66,480.78,291.58z"/>
</g>
<g id="LWPOLYLINE_00000080902423589658695110000006483175836432571789_">
	<path class="st0" d="M480.78,293v-0.68c0-0.08-0.07-0.15-0.15-0.15s-0.15,0.07-0.15,0.15V293c0,0.08,0.07,0.15,0.15,0.15
		S480.78,293.08,480.78,293z"/>
</g>
<g id="LWPOLYLINE_00000117641979839425065950000017434521282085971344_">
	<path class="st0" d="M478.29,292.4v-1.92c0-0.08-0.07-0.15-0.15-0.15s-0.15,0.07-0.15,0.15v1.92c0,0.08,0.07,0.15,0.15,0.15
		S478.29,292.48,478.29,292.4z"/>
</g>
<g id="LWPOLYLINE_00000139285124578268137460000008694190509575155645_">
	<path class="st0" d="M478.91,292.8v-1.4c0-0.08-0.07-0.15-0.15-0.15c-0.08,0-0.15,0.07-0.15,0.15v1.4c0,0.05,0.03,0.1,0.08,0.13
		c0.01,0,0.02,0.01,0.03,0.01c0.08,0.02,0.16-0.02,0.19-0.1C478.91,292.83,478.91,292.81,478.91,292.8z"/>
</g>
<g id="LWPOLYLINE_00000083800641783249096490000009164165532550765718_">
	<path class="st0" d="M481.41,292.75v-1.35c0-0.08-0.07-0.15-0.15-0.15c-0.08,0-0.15,0.07-0.15,0.15v1.35
		c0,0.08,0.07,0.15,0.15,0.15C481.34,292.9,481.41,292.83,481.41,292.75z"/>
</g>
<g id="LWPOLYLINE_00000005268364398489668200000010896998632071350423_">
	<path class="st0" d="M479.54,291.58v-1.1c0-0.08-0.07-0.15-0.15-0.15c-0.08,0-0.15,0.07-0.15,0.15v1.1c0,0.08,0.07,0.15,0.15,0.15
		C479.47,291.73,479.54,291.66,479.54,291.58z"/>
</g>
<g id="LWPOLYLINE_00000066492724714683556550000017231327091147417017_">
	<path class="st0" d="M476.74,286.81v1.1c0,0.08,0.07,0.15,0.15,0.15c0.08,0,0.15-0.07,0.15-0.15v-1.1c0-0.08-0.07-0.15-0.15-0.15
		C476.81,286.66,476.74,286.73,476.74,286.81z"/>
</g>
<g id="LWPOLYLINE_00000148629316150926760810000002072703555422038404_">
	<path class="st0" d="M478.61,287.73v1.1c0,0.08,0.07,0.15,0.15,0.15c0.08,0,0.15-0.07,0.15-0.15v-1.1c0-0.08-0.07-0.15-0.15-0.15
		C478.68,287.58,478.61,287.64,478.61,287.73z"/>
</g>
<g id="LWPOLYLINE_00000117661999228324443910000006538189843708820907_">
	<path class="st0" d="M482.66,291.8v-0.39c0-0.08-0.07-0.15-0.15-0.15c-0.08,0-0.15,0.07-0.15,0.15v0.39c0,0.08,0.07,0.15,0.15,0.15
		C482.59,291.95,482.66,291.88,482.66,291.8z"/>
</g>
<g id="LWPOLYLINE_00000003079713875670596590000016551936894369716117_">
	<path class="st0" d="M482.66,288.83v-1.1c0-0.08-0.07-0.15-0.15-0.15c-0.08,0-0.15,0.07-0.15,0.15v1.1c0,0.08,0.07,0.15,0.15,0.15
		C482.59,288.98,482.66,288.91,482.66,288.83z"/>
</g>
<g id="LWPOLYLINE_00000107568104602716740470000018248477787264082358_">
	<path class="st0" d="M478.61,285.89v1.1c0,0.08,0.07,0.15,0.15,0.15c0.08,0,0.15-0.07,0.15-0.15v-1.1c0-0.08-0.07-0.15-0.15-0.15
		C478.68,285.74,478.61,285.81,478.61,285.89z"/>
</g>
<g id="LWPOLYLINE_00000127045645325830644070000009491745831120653200_">
	<path class="st0" d="M477.99,283.14v1.1c0,0.08,0.07,0.15,0.15,0.15s0.15-0.07,0.15-0.15v-1.1c0-0.08-0.07-0.15-0.15-0.15
		S477.99,283.06,477.99,283.14z"/>
</g>
<g id="LWPOLYLINE_00000059303859665230374650000010124314407109933195_">
	<path class="st0" d="M480.48,286.81v1.1c0,0.08,0.07,0.15,0.15,0.15s0.15-0.07,0.15-0.15v-1.1c0-0.08-0.07-0.15-0.15-0.15
		S480.48,286.73,480.48,286.81z"/>
</g>
<g id="LWPOLYLINE_00000169540738085234219850000004649735600882353342_">
	<path class="st0" d="M482.36,285.89v1.1c0,0.08,0.07,0.15,0.15,0.15c0.08,0,0.15-0.07,0.15-0.15v-1.1c0-0.08-0.07-0.15-0.15-0.15
		C482.42,285.74,482.36,285.81,482.36,285.89z"/>
</g>
<g id="LWPOLYLINE_00000097482731329001538410000000411646837942655653_">
	<path class="st0" d="M479.86,284.06v1.1c0,0.08,0.07,0.15,0.15,0.15c0.08,0,0.15-0.07,0.15-0.15v-1.1c0-0.08-0.07-0.15-0.15-0.15
		C479.93,283.91,479.86,283.97,479.86,284.06z"/>
</g>
<g id="LWPOLYLINE_00000023968566007703196410000003126381991856659339_">
	<path class="st0" d="M476.74,281.31v1.1c0,0.08,0.07,0.15,0.15,0.15c0.08,0,0.15-0.07,0.15-0.15v-1.1c0-0.08-0.07-0.15-0.15-0.15
		C476.81,281.16,476.74,281.22,476.74,281.31z"/>
</g>
<g id="LWPOLYLINE_00000119097330975338634010000003353116591873426093_">
	<path class="st0" d="M481.73,283.14v1.1c0,0.08,0.07,0.15,0.15,0.15c0.08,0,0.15-0.07,0.15-0.15v-1.1c0-0.08-0.07-0.15-0.15-0.15
		C481.8,282.99,481.73,283.06,481.73,283.14z"/>
</g>
<g id="LWPOLYLINE_00000098920831289413294630000005763494642652027030_">
	<path class="st0" d="M476.74,277.64v1.1c0,0.08,0.07,0.15,0.15,0.15c0.08,0,0.15-0.07,0.15-0.15v-1.1c0-0.08-0.07-0.15-0.15-0.15
		C476.81,277.49,476.74,277.55,476.74,277.64z"/>
</g>
<g id="LWPOLYLINE_00000162311205200407098850000013299280081447069088_">
	<path class="st0" d="M477.36,274.88v1.1c0,0.08,0.07,0.15,0.15,0.15c0.08,0,0.15-0.07,0.15-0.15v-1.1c0-0.08-0.07-0.15-0.15-0.15
		C477.43,274.73,477.36,274.8,477.36,274.88z"/>
</g>
<g id="LWPOLYLINE_00000148630947086281441880000014155426705024553604_">
	<path class="st0" d="M477.99,277.64v1.1c0,0.08,0.07,0.15,0.15,0.15s0.15-0.07,0.15-0.15v-1.1c0-0.08-0.07-0.15-0.15-0.15
		S477.99,277.55,477.99,277.64z"/>
</g>
<g id="LWPOLYLINE_00000142133667482488824910000008918317225010135725_">
	<path class="st0" d="M481.73,277.64v1.1c0,0.08,0.07,0.15,0.15,0.15c0.08,0,0.15-0.07,0.15-0.15v-1.1c0-0.08-0.07-0.15-0.15-0.15
		C481.8,277.49,481.73,277.55,481.73,277.64z"/>
</g>
<g id="LWPOLYLINE_00000115505872545972726020000002244019796130914230_">
	<path class="st0" d="M482.98,279.47v1.1c0,0.08,0.07,0.15,0.15,0.15c0.08,0,0.15-0.07,0.15-0.15v-1.1c0-0.08-0.07-0.15-0.15-0.15
		C483.05,279.32,482.98,279.39,482.98,279.47z"/>
</g>
<g id="LWPOLYLINE_00000071556378347065054460000012957644850925675912_">
	<path class="st0" d="M482.36,280.39v1.1c0,0.08,0.07,0.15,0.15,0.15c0.08,0,0.15-0.07,0.15-0.15v-1.1c0-0.08-0.07-0.15-0.15-0.15
		C482.42,280.24,482.36,280.3,482.36,280.39z"/>
</g>
<g id="LWPOLYLINE_00000065069037822625710110000009917205869108239519_">
	<path class="st0" d="M482.36,273.05v1.1c0,0.08,0.07,0.15,0.15,0.15c0.08,0,0.15-0.07,0.15-0.15v-1.1c0-0.08-0.07-0.15-0.15-0.15
		C482.42,272.9,482.36,272.97,482.36,273.05z"/>
</g>
<g id="LWPOLYLINE_00000033359915339232724530000013955029061483022267_">
	<path class="st0" d="M481.11,276.72v1.1c0,0.08,0.07,0.15,0.15,0.15c0.08,0,0.15-0.07,0.15-0.15v-1.1c0-0.08-0.07-0.15-0.15-0.15
		C481.17,276.57,481.11,276.64,481.11,276.72z"/>
</g>
<g id="LWPOLYLINE_00000011742238137315628280000008390588634622089889_">
	<path class="st0" d="M479.24,275.8v1.1c0,0.08,0.07,0.15,0.15,0.15c0.08,0,0.15-0.07,0.15-0.15v-1.1c0-0.08-0.07-0.15-0.15-0.15
		C479.3,275.65,479.24,275.72,479.24,275.8z"/>
</g>
<g id="LWPOLYLINE_00000142859390540967799600000017954593132406212287_">
	<path class="st0" d="M477.99,275.8v1.1c0,0.08,0.07,0.15,0.15,0.15s0.15-0.07,0.15-0.15v-1.1c0-0.08-0.07-0.15-0.15-0.15
		S477.99,275.72,477.99,275.8z"/>
</g>
<g id="LWPOLYLINE_00000025442542718564080940000001797873688372755365_">
	<path class="st0" d="M476.74,272.13v1.1c0,0.08,0.07,0.15,0.15,0.15c0.08,0,0.15-0.07,0.15-0.15v-1.1c0-0.08-0.07-0.15-0.15-0.15
		C476.81,271.98,476.74,272.05,476.74,272.13z"/>
</g>
<g id="LWPOLYLINE_00000068664423005176486160000009950785175081569186_">
	<path class="st0" d="M477.99,270.3v1.1c0,0.08,0.07,0.15,0.15,0.15s0.15-0.07,0.15-0.15v-1.1c0-0.08-0.07-0.15-0.15-0.15
		S477.99,270.21,477.99,270.3z"/>
</g>
<g id="LWPOLYLINE_00000121240777198530729100000000116199306938546331_">
	<path class="st0" d="M479.24,270.3v1.1c0,0.08,0.07,0.15,0.15,0.15c0.08,0,0.15-0.07,0.15-0.15v-1.1c0-0.08-0.07-0.15-0.15-0.15
		C479.3,270.15,479.24,270.21,479.24,270.3z"/>
</g>
<g id="LWPOLYLINE_00000071538410203943898230000016207098150610331577_">
	<path class="st0" d="M481.73,270.3v1.1c0,0.08,0.07,0.15,0.15,0.15c0.08,0,0.15-0.07,0.15-0.15v-1.1c0-0.08-0.07-0.15-0.15-0.15
		C481.8,270.15,481.73,270.21,481.73,270.3z"/>
</g>
<g id="LWPOLYLINE_00000048459676347377645820000013470432435054869895_">
	<path class="st0" d="M482.36,268.2v0.45c0,0.08,0.07,0.15,0.15,0.15c0.08,0,0.15-0.07,0.15-0.15v-0.45c0-0.08-0.07-0.15-0.15-0.15
		C482.42,268.05,482.36,268.11,482.36,268.2z"/>
</g>
<g id="LWPOLYLINE_00000175282699934429882040000004155981126491279233_">
	<path class="st0" d="M481.11,269.38v1.1c0,0.08,0.07,0.15,0.15,0.15c0.08,0,0.15-0.07,0.15-0.15v-1.1c0-0.08-0.07-0.15-0.15-0.15
		C481.17,269.23,481.11,269.29,481.11,269.38z"/>
</g>
<g id="LWPOLYLINE_00000042003211205854646300000012112676732313765817_">
	<path class="st0" d="M479.24,267v0.73c0,0.08,0.07,0.15,0.15,0.15c0.08,0,0.15-0.07,0.15-0.15V267c0-0.08-0.06-0.15-0.14-0.15
		c-0.02,0-0.05,0.01-0.07,0.01C479.27,266.89,479.24,266.94,479.24,267z"/>
</g>
<g id="LWPOLYLINE_00000151513642734053052300000018354486423837541017_">
	<path class="st0" d="M477.99,267.6v1.96c0,0.08,0.07,0.15,0.15,0.15s0.15-0.07,0.15-0.15v-1.96c0-0.08-0.07-0.15-0.15-0.15
		S477.99,267.51,477.99,267.6z"/>
</g>
<g id="LWPOLYLINE_00000111157199484918295010000004329384951903947184_">
	<path class="st0" d="M479.86,277.62c0.1-0.01,0.2-0.01,0.3,0v-0.9c0-0.08-0.07-0.15-0.15-0.15c-0.08,0-0.15,0.07-0.15,0.15V277.62z
		"/>
</g>
<g id="LWPOLYLINE_00000019647969311163691620000004050407059203909044_">
	<path class="st0" d="M480.16,283.32v-0.93c-0.1,0.01-0.2,0.01-0.3,0v0.93c0,0.08,0.07,0.15,0.15,0.15
		C480.09,283.47,480.16,283.41,480.16,283.32z"/>
</g>
<g id="SPLINE_00000163053024186043779400000006380562463262931640_">
	<g id="XMLID_00000111882174568611965690000011161129059542304686_">
		<g>
			<path class="st1" d="M480.29,270.55c0.04,0.03,0.09,0.08,0.11,0.11C480.37,270.63,480.32,270.58,480.29,270.55z"/>
			<path class="st1" d="M480.4,270.66c0.01,0.01,0.01,0.01,0.01,0.01c0.02,0.02,0.02,0.02,0.02,0.02v0.01h-0.01
				c0,0-0.01,0-0.12-0.02c-0.06-0.02-0.12-0.03-0.12-0.03c-0.03-0.01-0.04-0.01-0.05,0c0,0.01,0-0.01-0.02,0.13
				c-0.01,0.08-0.02,0.1-0.02,0.1c0,0.01-0.01,0-0.01-0.02c0-0.02,0-0.22,0.01-0.27c0-0.03,0-0.03,0.05-0.02
				c0.09,0.03,0.11,0.03,0.11,0.02c0,0-0.02-0.03-0.16-0.17c-0.04-0.04-0.04-0.04-0.04-0.04c-0.01,0.01-0.01,0.04-0.01,0.25
				c0,0.17,0,0.23-0.01,0.25c-0.01,0.01-0.01,0.01-0.05-0.03c-0.24-0.25-0.38-0.4-0.38-0.41v-0.01c0.01,0,0.01,0,0.09,0.02
				c0.15,0.04,0.18,0.05,0.19,0.05c0.01,0,0.01-0.01,0.01-0.02c0,0,0.02-0.09,0.03-0.15c0.01-0.04,0.01-0.06,0.02-0.07
				c0,0.01,0,0.23,0,0.27c0,0.03,0,0.03-0.01,0.03c0,0-0.01,0-0.09-0.01c-0.03-0.01-0.05-0.01-0.06-0.01c0,0.01,0,0.02,0.01,0.03
				c0.05,0.05,0.17,0.18,0.18,0.18h0.01c0.01-0.01,0.01-0.04,0.01-0.17c0-0.17,0-0.31,0-0.32c0.01-0.01,0.01-0.01,0.02,0
				c0,0,0.15,0.15,0.22,0.22c0.02,0.02,0.05,0.05,0.06,0.07C480.32,270.58,480.37,270.63,480.4,270.66z"/>
		</g>
		<g>
			<path class="st2" d="M480.29,270.55c0.03,0.03,0.08,0.08,0.11,0.11"/>
			<path class="st3" d="M480.4,270.66c0.01,0.01,0.01,0.01,0.01,0.01c0.02,0.02,0.02,0.02,0.02,0.02v0.01"/>
			<path class="st3" d="M480.43,270.69c0,0-0.01-0.01-0.02-0.02c0,0,0,0-0.01-0.01c-0.02-0.03-0.07-0.08-0.11-0.11"/>
			<path class="st2" d="M480.29,270.55c-0.01-0.02-0.04-0.05-0.06-0.07"/>
			<path class="st2" d="M480.23,270.48c-0.07-0.07-0.22-0.22-0.22-0.22"/>
			<path class="st2" d="M480.01,270.26c-0.01-0.01-0.01-0.01-0.02,0"/>
			<path class="st2" d="M479.99,270.26c0,0.01,0,0.15,0,0.32"/>
			<path class="st2" d="M479.99,270.58c0,0.13,0,0.16-0.01,0.17"/>
			<line class="st2" x1="479.98" y1="270.75" x2="479.97" y2="270.75"/>
			<path class="st2" d="M479.97,270.75c-0.01,0-0.13-0.13-0.18-0.18"/>
			<path class="st2" d="M479.79,270.57c-0.01-0.01-0.01-0.02-0.01-0.03"/>
			<path class="st2" d="M479.77,270.54h0.01c0.01,0,0.03,0,0.06,0.01"/>
			<path class="st2" d="M479.84,270.55c0.08,0.01,0.09,0.01,0.09,0.01"/>
			<path class="st2" d="M479.93,270.56c0.01,0,0.01,0,0.01-0.03"/>
			<path class="st2" d="M479.94,270.53c0-0.04,0-0.26,0-0.27"/>
			<path class="st2" d="M479.94,270.25C479.94,270.25,479.94,270.25,479.94,270.25c-0.01,0.02-0.01,0.04-0.02,0.08"/>
			<path class="st2" d="M479.92,270.33c-0.01,0.06-0.03,0.15-0.03,0.15"/>
			<path class="st2" d="M479.89,270.48c0,0.01,0,0.02-0.01,0.02"/>
			<path class="st2" d="M479.88,270.5c-0.01,0-0.04-0.01-0.19-0.05"/>
			<path class="st2" d="M479.69,270.45c-0.08-0.02-0.08-0.02-0.09-0.02"/>
			<line class="st2" x1="479.6" y1="270.43" x2="479.6" y2="270.44"/>
			<line class="st2" x1="479.6" y1="270.43" x2="479.59" y2="270.43"/>
			<path class="st2" d="M479.6,270.44c0,0.01,0.14,0.16,0.38,0.41"/>
			<path class="st2" d="M479.98,270.85c0.04,0.04,0.04,0.04,0.05,0.03"/>
			<path class="st2" d="M480.03,270.89L480.03,270.89c0.01-0.03,0.01-0.09,0.01-0.26"/>
			<path class="st2" d="M480.04,270.63c0-0.21,0-0.24,0.01-0.25"/>
			<path class="st2" d="M480.05,270.38c0,0,0,0,0.04,0.04"/>
			<path class="st2" d="M480.09,270.42c0.14,0.14,0.16,0.17,0.16,0.17"/>
			<path class="st2" d="M480.25,270.59c0,0.01-0.02,0.01-0.11-0.02"/>
			<path class="st2" d="M480.14,270.57c-0.05-0.01-0.05-0.01-0.05,0.02"/>
			<path class="st2" d="M480.09,270.59c-0.01,0.05-0.01,0.25-0.01,0.27"/>
			<path class="st2" d="M480.08,270.86c0,0.02,0.01,0.03,0.01,0.02"/>
			<path class="st2" d="M480.09,270.88c0,0,0.01-0.02,0.02-0.1"/>
			<path class="st2" d="M480.11,270.78c0.02-0.14,0.02-0.12,0.02-0.13"/>
			<path class="st2" d="M480.13,270.65c0.01-0.01,0.02-0.01,0.05,0"/>
			<path class="st2" d="M480.18,270.65c0,0,0.06,0.01,0.12,0.03"/>
			<path class="st3" d="M480.3,270.68c0.11,0.02,0.12,0.02,0.12,0.02"/>
			<line class="st3" x1="480.42" y1="270.7" x2="480.43" y2="270.7"/>
		</g>
	</g>
</g>
<g id="SPLINE_00000147189585563958132220000009029884421145332132_">
	<g id="XMLID_00000041287984788808210450000018445108099381640082_">
		<g>
			<rect x="479.88" y="269.75" class="st1" width="0.25" height="0.05"/>
			<path class="st1" d="M479.93,270.02c0.02,0.01,0.04,0.02,0.08,0.02c0.03,0,0.05-0.01,0.07-0.02c0.02-0.02,0.02-0.03,0.02-0.05
				c0-0.03,0-0.04-0.02-0.06c-0.02-0.01-0.04-0.02-0.07-0.02c-0.04,0-0.06,0.01-0.08,0.02c-0.01,0.02-0.02,0.03-0.02,0.06
				C479.91,269.99,479.92,270,479.93,270.02z M480.14,269.97c0,0.03-0.01,0.06-0.04,0.08c-0.02,0.02-0.05,0.03-0.09,0.03
				c-0.03,0-0.06,0-0.08-0.01c-0.02-0.01-0.03-0.02-0.04-0.04c-0.01-0.02-0.02-0.04-0.02-0.06c0-0.04,0.02-0.07,0.04-0.09
				c0.02-0.02,0.05-0.03,0.1-0.03c0.04,0,0.08,0.01,0.1,0.04C480.13,269.91,480.14,269.93,480.14,269.97z"/>
			<path class="st1" d="M480.13,269.41h-0.25v-0.03h0.04c-0.03-0.02-0.05-0.05-0.05-0.08c0-0.02,0.01-0.03,0.01-0.05
				c0.01-0.01,0.02-0.02,0.02-0.03c0.01,0,0.02-0.01,0.04-0.01c0,0,0.02,0,0.04,0h0.15v0.04h-0.14c-0.02,0-0.03,0-0.04,0
				c-0.01,0.01-0.02,0.01-0.03,0.02c-0.01,0.01-0.01,0.02-0.01,0.03c0,0.02,0,0.03,0.01,0.04c0.01,0.01,0.02,0.02,0.03,0.02
				c0.01,0.01,0.03,0.01,0.05,0.01h0.13V269.41z"/>
			<path class="st1" d="M480,269.65c0.04,0,0.06-0.01,0.08-0.02c0.02-0.02,0.02-0.03,0.02-0.05c0-0.02,0-0.04-0.02-0.05
				c-0.02-0.01-0.04-0.02-0.07-0.02c-0.04,0-0.06,0.01-0.08,0.02c-0.01,0.01-0.02,0.03-0.02,0.05c0,0.02,0.01,0.03,0.02,0.05
				C479.95,269.64,479.97,269.65,480,269.65z M480.23,269.69h-0.35v-0.04h0.03c-0.02-0.02-0.04-0.04-0.04-0.07
				c0-0.02,0.01-0.04,0.02-0.06c0.01-0.02,0.03-0.03,0.05-0.04c0.02-0.01,0.04-0.01,0.07-0.01c0.02,0,0.04,0,0.07,0.01
				c0.02,0.01,0.03,0.02,0.04,0.04c0.01,0.01,0.02,0.03,0.02,0.05c0,0.02,0,0.03-0.01,0.04c-0.01,0.02-0.02,0.03-0.03,0.03h0.13
				V269.69z"/>
			<path class="st1" d="M480.1,268.58c0-0.02,0-0.04-0.02-0.05c-0.02-0.02-0.04-0.03-0.07-0.03c-0.04,0-0.06,0.01-0.08,0.03
				c-0.01,0.01-0.02,0.03-0.02,0.05c0,0.02,0.01,0.04,0.02,0.05c0.02,0.02,0.04,0.02,0.08,0.02c0.03,0,0.05,0,0.07-0.02
				C480.1,268.62,480.1,268.6,480.1,268.58z M480.01,268.46c0.04,0,0.08,0.01,0.1,0.04c0.02,0.02,0.03,0.05,0.03,0.08
				s-0.01,0.06-0.04,0.08c-0.02,0.03-0.05,0.04-0.09,0.04c-0.03,0-0.06-0.01-0.08-0.02s-0.03-0.02-0.04-0.04
				c-0.01-0.02-0.02-0.04-0.02-0.06c0-0.04,0.02-0.07,0.04-0.09C479.93,268.47,479.96,268.46,480.01,268.46z"/>
			<rect x="480.18" y="269.75" class="st1" width="0.05" height="0.05"/>
			<path class="st1" d="M480.23,268.41h-0.35v-0.05h0.29l-0.29-0.1v-0.04l0.3-0.1h-0.3v-0.05h0.35v0.07l-0.25,0.09
				c-0.02,0-0.04,0.01-0.05,0.01c0.01,0.01,0.03,0.01,0.06,0.02l0.24,0.08V268.41z"/>
			<path class="st1" d="M479.88,268.85l0.35,0.14v0.05l-0.35,0.14v-0.05l0.11-0.05v-0.14l-0.11-0.04V268.85z M480.19,269.01
				c-0.02-0.01-0.04-0.01-0.06-0.02l-0.11-0.04v0.12l0.1-0.04C480.15,269.02,480.17,269.01,480.19,269.01z"/>
		</g>
		<g>
			<line class="st2" x1="479.88" y1="268.07" x2="480.23" y2="268.07"/>
			<line class="st2" x1="480.23" y1="268.07" x2="480.23" y2="268.14"/>
			<line class="st2" x1="480.23" y1="268.14" x2="479.98" y2="268.23"/>
			<path class="st2" d="M479.98,268.23c-0.02,0-0.04,0.01-0.05,0.01"/>
			<path class="st2" d="M479.93,268.24c0.01,0.01,0.03,0.01,0.06,0.02"/>
			<line class="st2" x1="479.99" y1="268.26" x2="480.23" y2="268.34"/>
			<line class="st2" x1="480.23" y1="268.34" x2="480.23" y2="268.41"/>
			<line class="st2" x1="480.23" y1="268.41" x2="479.88" y2="268.41"/>
			<line class="st2" x1="479.88" y1="268.41" x2="479.88" y2="268.36"/>
			<line class="st2" x1="479.88" y1="268.36" x2="480.17" y2="268.36"/>
			<line class="st2" x1="480.17" y1="268.36" x2="479.88" y2="268.26"/>
			<line class="st2" x1="479.88" y1="268.26" x2="479.88" y2="268.22"/>
			<line class="st2" x1="479.88" y1="268.22" x2="480.18" y2="268.12"/>
			<line class="st2" x1="480.18" y1="268.12" x2="479.88" y2="268.12"/>
			<line class="st2" x1="479.88" y1="268.12" x2="479.88" y2="268.07"/>
			<path class="st2" d="M480.01,268.46c0.04,0,0.08,0.01,0.1,0.04"/>
			<path class="st2" d="M480.11,268.5c0.02,0.02,0.03,0.05,0.03,0.08"/>
			<path class="st2" d="M480.14,268.58c0,0.03-0.01,0.06-0.04,0.08"/>
			<path class="st2" d="M480.1,268.66c-0.02,0.03-0.05,0.04-0.09,0.04"/>
			<path class="st2" d="M480.01,268.7c-0.03,0-0.06-0.01-0.08-0.02"/>
			<path class="st2" d="M479.93,268.68c-0.02-0.01-0.03-0.02-0.04-0.04"/>
			<path class="st2" d="M479.89,268.64c-0.01-0.02-0.02-0.04-0.02-0.06"/>
			<path class="st2" d="M479.87,268.58c0-0.04,0.02-0.07,0.04-0.09"/>
			<path class="st2" d="M479.91,268.49c0.02-0.02,0.05-0.03,0.1-0.03"/>
			<path class="st2" d="M480.01,268.5c-0.04,0-0.06,0.01-0.08,0.03"/>
			<path class="st2" d="M479.93,268.53c-0.01,0.01-0.02,0.03-0.02,0.05"/>
			<path class="st2" d="M479.91,268.58c0,0.02,0.01,0.04,0.02,0.05"/>
			<path class="st2" d="M479.93,268.63c0.02,0.02,0.04,0.02,0.08,0.02"/>
			<path class="st2" d="M480.01,268.65c0.03,0,0.05,0,0.07-0.02"/>
			<path class="st2" d="M480.08,268.63c0.02-0.01,0.02-0.03,0.02-0.05"/>
			<path class="st2" d="M480.1,268.58c0-0.02,0-0.04-0.02-0.05"/>
			<path class="st2" d="M480.08,268.53c-0.02-0.02-0.04-0.03-0.07-0.03"/>
			<line class="st2" x1="479.88" y1="268.85" x2="480.23" y2="268.99"/>
			<line class="st2" x1="480.23" y1="268.99" x2="480.23" y2="269.04"/>
			<line class="st2" x1="480.23" y1="269.04" x2="479.88" y2="269.18"/>
			<line class="st2" x1="479.88" y1="269.18" x2="479.88" y2="269.13"/>
			<line class="st2" x1="479.88" y1="269.13" x2="479.99" y2="269.08"/>
			<line class="st2" x1="479.99" y1="269.08" x2="479.99" y2="268.94"/>
			<line class="st2" x1="479.99" y1="268.94" x2="479.88" y2="268.9"/>
			<line class="st2" x1="479.88" y1="268.9" x2="479.88" y2="268.85"/>
			<line class="st2" x1="480.02" y1="268.95" x2="480.02" y2="269.07"/>
			<line class="st2" x1="480.02" y1="269.07" x2="480.12" y2="269.03"/>
			<path class="st2" d="M480.12,269.03c0.03-0.01,0.05-0.02,0.07-0.02"/>
			<path class="st2" d="M480.19,269.01c-0.02-0.01-0.04-0.01-0.06-0.02"/>
			<line class="st2" x1="480.13" y1="268.99" x2="480.02" y2="268.95"/>
			<line class="st2" x1="479.88" y1="269.38" x2="479.92" y2="269.38"/>
			<path class="st2" d="M479.92,269.38c-0.03-0.02-0.05-0.05-0.05-0.08"/>
			<path class="st2" d="M479.87,269.3c0-0.02,0.01-0.03,0.01-0.05"/>
			<path class="st2" d="M479.88,269.25c0.01-0.01,0.02-0.02,0.02-0.03"/>
			<path class="st2" d="M479.9,269.22c0.01,0,0.02-0.01,0.04-0.01"/>
			<path class="st2" d="M479.94,269.21c0,0,0.02,0,0.04,0"/>
			<line class="st2" x1="479.98" y1="269.21" x2="480.13" y2="269.21"/>
			<line class="st2" x1="480.13" y1="269.21" x2="480.13" y2="269.25"/>
			<line class="st2" x1="480.13" y1="269.25" x2="479.99" y2="269.25"/>
			<path class="st2" d="M479.99,269.25c-0.02,0-0.03,0-0.04,0"/>
			<path class="st2" d="M479.95,269.25c-0.01,0.01-0.02,0.01-0.03,0.02"/>
			<path class="st2" d="M479.92,269.27c-0.01,0.01-0.01,0.02-0.01,0.03"/>
			<path class="st2" d="M479.91,269.3c0,0.02,0,0.03,0.01,0.04"/>
			<path class="st2" d="M479.92,269.34c0.01,0.01,0.02,0.02,0.03,0.02"/>
			<path class="st2" d="M479.95,269.36c0.01,0.01,0.03,0.01,0.05,0.01"/>
			<line class="st2" x1="480" y1="269.37" x2="480.13" y2="269.37"/>
			<line class="st2" x1="480.13" y1="269.37" x2="480.13" y2="269.41"/>
			<line class="st2" x1="480.13" y1="269.41" x2="479.88" y2="269.41"/>
			<line class="st2" x1="479.88" y1="269.41" x2="479.88" y2="269.38"/>
			<line class="st2" x1="479.88" y1="269.65" x2="479.91" y2="269.65"/>
			<path class="st2" d="M479.91,269.65c-0.02-0.02-0.04-0.04-0.04-0.07"/>
			<path class="st2" d="M479.87,269.58c0-0.02,0.01-0.04,0.02-0.06"/>
			<path class="st2" d="M479.89,269.52c0.01-0.02,0.03-0.03,0.05-0.04"/>
			<path class="st2" d="M479.94,269.48c0.02-0.01,0.04-0.01,0.07-0.01"/>
			<path class="st2" d="M480.01,269.47c0.02,0,0.04,0,0.07,0.01"/>
			<path class="st2" d="M480.08,269.48c0.02,0.01,0.03,0.02,0.04,0.04"/>
			<path class="st2" d="M480.12,269.52c0.01,0.01,0.02,0.03,0.02,0.05"/>
			<path class="st2" d="M480.14,269.57c0,0.02,0,0.03-0.01,0.04"/>
			<path class="st2" d="M480.13,269.61c-0.01,0.02-0.02,0.03-0.03,0.03"/>
			<line class="st2" x1="480.1" y1="269.64" x2="480.23" y2="269.64"/>
			<line class="st2" x1="480.23" y1="269.64" x2="480.23" y2="269.69"/>
			<line class="st2" x1="480.23" y1="269.69" x2="479.88" y2="269.69"/>
			<line class="st2" x1="479.88" y1="269.69" x2="479.88" y2="269.65"/>
			<path class="st2" d="M480.01,269.51c-0.04,0-0.06,0.01-0.08,0.02"/>
			<path class="st2" d="M479.93,269.53c-0.01,0.01-0.02,0.03-0.02,0.05"/>
			<path class="st2" d="M479.91,269.58c0,0.02,0.01,0.03,0.02,0.05"/>
			<path class="st2" d="M479.93,269.63c0.02,0.01,0.04,0.02,0.07,0.02"/>
			<path class="st2" d="M480,269.65c0.04,0,0.06-0.01,0.08-0.02"/>
			<path class="st2" d="M480.08,269.63c0.02-0.02,0.02-0.03,0.02-0.05"/>
			<path class="st2" d="M480.1,269.58c0-0.02,0-0.04-0.02-0.05"/>
			<path class="st2" d="M480.08,269.53c-0.02-0.01-0.04-0.02-0.07-0.02"/>
			<line class="st2" x1="480.18" y1="269.75" x2="480.23" y2="269.75"/>
			<line class="st2" x1="480.23" y1="269.75" x2="480.23" y2="269.8"/>
			<line class="st2" x1="480.23" y1="269.8" x2="480.18" y2="269.8"/>
			<line class="st2" x1="480.18" y1="269.8" x2="480.18" y2="269.75"/>
			<line class="st2" x1="479.88" y1="269.75" x2="480.13" y2="269.75"/>
			<line class="st2" x1="480.13" y1="269.75" x2="480.13" y2="269.8"/>
			<line class="st2" x1="480.13" y1="269.8" x2="479.88" y2="269.8"/>
			<line class="st2" x1="479.88" y1="269.8" x2="479.88" y2="269.75"/>
			<path class="st2" d="M480.01,269.85c0.04,0,0.08,0.01,0.1,0.04"/>
			<path class="st2" d="M480.11,269.89c0.02,0.02,0.03,0.04,0.03,0.08"/>
			<path class="st2" d="M480.14,269.97c0,0.03-0.01,0.06-0.04,0.08"/>
			<path class="st2" d="M480.1,270.05c-0.02,0.02-0.05,0.03-0.09,0.03"/>
			<path class="st2" d="M480.01,270.08c-0.03,0-0.06,0-0.08-0.01"/>
			<path class="st2" d="M479.93,270.07c-0.02-0.01-0.03-0.02-0.04-0.04"/>
			<path class="st2" d="M479.89,270.03c-0.01-0.02-0.02-0.04-0.02-0.06"/>
			<path class="st2" d="M479.87,269.97c0-0.04,0.02-0.07,0.04-0.09"/>
			<path class="st2" d="M479.91,269.88c0.02-0.02,0.05-0.03,0.1-0.03"/>
			<path class="st2" d="M480.01,269.89c-0.04,0-0.06,0.01-0.08,0.02"/>
			<path class="st2" d="M479.93,269.91c-0.01,0.02-0.02,0.03-0.02,0.06"/>
			<path class="st2" d="M479.91,269.97c0,0.02,0.01,0.03,0.02,0.05"/>
			<path class="st2" d="M479.93,270.02c0.02,0.01,0.04,0.02,0.08,0.02"/>
			<path class="st2" d="M480.01,270.04c0.03,0,0.05-0.01,0.07-0.02"/>
			<path class="st2" d="M480.08,270.02c0.02-0.02,0.02-0.03,0.02-0.05"/>
			<path class="st2" d="M480.1,269.97c0-0.03,0-0.04-0.02-0.06"/>
			<path class="st2" d="M480.08,269.91c-0.02-0.01-0.04-0.02-0.07-0.02"/>
		</g>
	</g>
</g>
</svg>
