0
SECTION
2
HEADER
9
$INSUNITS
70
5
9
$ACADVER
1
AC1014
9
$HANDSEED
5
FFFF
0
ENDSEC
0
SECTION
2
TABLES
0
TABLE
2
VPORT
5
8
100
AcDbSymbolTable
0
ENDTAB
0
TABLE
2
LTYPE
5
5
100
AcDbSymbolTable
0
LTYPE
5
14
100
AcDbSymbolTableRecord
100
AcDbLinetypeTableRecord
2
BYBLOCK
70
0
0
LTYPE
5
15
100
AcDbSymbolTableRecord
100
AcDbLinetypeTableRecord
2
BYLAYER
70
0
0
ENDTAB
0
TABLE
2
LAYER
5
2
100
AcDbSymbolTable
70
2
0
LAYER
5
50
100
AcDbSymbolTableRecord
100
AcDbLayerTableRecord
2
0
70
0
6
CONTINUOUS
0
ENDTAB
0
TABLE
2
STYLE
5
3
100
AcDbSymbolTable
70
1
0
STYLE
5
11
100
AcDbSymbolTableRecord
100
AcDbTextStyleTableRecord
2
STANDARD
70
0
0
ENDTAB
0
TABLE
2
VIEW
5
6
100
AcDbSymbolTable
70
0
0
ENDTAB
0
TABLE
2
UCS
5
7
100
AcDbSymbolTable
70
0
0
ENDTAB
0
TABLE
2
APPID
5
9
100
AcDbSymbolTable
70
2
0
APPID
5
12
100
AcDbSymbolTableRecord
100
AcDbRegAppTableRecord
2
ACAD
70
0
0
ENDTAB
0
TABLE
2
DIMSTYLE
5
A
100
AcDbSymbolTable
70
1
0
ENDTAB
0
TABLE
2
BLOCK_RECORD
5
1
100
AcDbSymbolTable
70
1
0
BLOCK_RECORD
5
1F
100
AcDbSymbolTableRecord
100
AcDbBlockTableRecord
2
*MODEL_SPACE
0
BLOCK_RECORD
5
1B
100
AcDbSymbolTableRecord
100
AcDbBlockTableRecord
2
*PAPER_SPACE
0
ENDTAB
0
ENDSEC
0
SECTION
2
BLOCKS
0
BLOCK
5
20
100
AcDbEntity
100
AcDbBlockBegin
2
*MODEL_SPACE
0
ENDBLK
5
21
100
AcDbEntity
100
AcDbBlockEnd
0
BLOCK
5
1C
100
AcDbEntity
100
AcDbBlockBegin
2
*PAPER_SPACE
0
ENDBLK
5
1D
100
AcDbEntity
100
AcDbBlockEnd
0
ENDSEC
0
SECTION
2
ENTITIES
0
LWPOLYLINE
5
100
100
AcDbEntity
8
0
100
AcDbPolyline
90
4
70
1
43
0.0
10
-3.5957989198367706
20
-9.9162257698302874
10
-3.5957989198367706
20
9.9113953723773829
42
-0.99999999999999989
10
3.6000000536441803
20
9.9113953723773793
10
3.6000000536441803
20
-9.9162257698302909
42
-0.99999999999999989
0
LWPOLYLINE
5
101
100
AcDbEntity
8
0
100
AcDbPolyline
90
4
70
1
43
0.0
10
3.3000000491738319
20
9.9113953768477323
10
3.3000000491738319
20
-9.9162257743006368
42
-0.99999999999999989
10
-3.2957989153664222
20
-9.9162257743006403
10
-3.2957989153664222
20
9.9113953768477288
42
-0.99999999999999989
0
LWPOLYLINE
5
102
100
AcDbEntity
8
0
100
AcDbPolyline
90
4
70
1
43
0.0
10
-3.2749826084457427
20
-9.7490035937338462
10
-3.2749826084457427
20
-8.6499998547136805
42
-0.99999999999999989
10
-2.9749826039753944
20
-8.6499998547136805
10
-2.9749826039753944
20
-9.7490035937338462
42
-0.99999999999999989
0
LINE
5
103
100
AcDbEntity
8
0
100
AcDbLine
10
-2.8812326062105686
20
11.512186058972144
30
0
11
-2.8812326062105682
21
11.450000147521495
31
0
0
LINE
5
104
100
AcDbEntity
8
0
100
AcDbLine
10
-2.4924826084457439
20
12.068522117774428
30
0
11
-2.4924826084457434
21
12.050996406266156
31
0
0
LINE
5
105
100
AcDbEntity
8
0
100
AcDbLine
10
-2.7312326062105683
20
11.214134639412602
30
0
11
-2.7312326062105683
21
11.600000147521495
31
0
0
LWPOLYLINE
5
106
100
AcDbEntity
8
0
100
AcDbPolyline
90
4
70
1
43
0.0
10
0.27892950820734935
20
12.556816601317834
10
0.27892950820735007
20
9.0568165491638162
10
-0.22107049924322433
20
9.0568165491638162
10
-0.22107049924322481
20
12.556816601317834
0
LWPOLYLINE
5
107
100
AcDbEntity
8
0
100
AcDbPolyline
90
4
70
1
43
0.0
10
-2.026982608445743
20
-9.7490035937338462
10
-2.026982608445743
20
-8.6499998547136805
42
-0.99999999999999989
10
-1.7269826039753944
20
-8.6499998547136805
10
-1.7269826039753942
20
-9.7490035937338462
42
-0.99999999999999989
0
LWPOLYLINE
5
108
100
AcDbEntity
8
0
100
AcDbPolyline
90
4
70
1
43
0.0
10
-0.77898260844574274
20
-9.7490035937338462
10
-0.77898260844574274
20
-8.6499998547136805
42
-0.99999999999999989
10
-0.47898260397539438
20
-8.6499998547136805
10
-0.47898260397539438
20
-9.7490035937338462
42
-0.99999999999999989
0
LWPOLYLINE
5
109
100
AcDbEntity
8
0
100
AcDbPolyline
90
4
70
1
43
0.0
10
0.46901739155425703
20
-9.7490035937338462
10
0.46901739155425703
20
-8.6499998547136805
42
-0.99999999999999989
10
0.76901739602460539
20
-8.6499998547136805
10
0.76901739602460539
20
-9.7490035937338462
42
-0.99999999999999989
0
LWPOLYLINE
5
110
100
AcDbEntity
8
0
100
AcDbPolyline
90
4
70
1
43
0.0
10
1.7170173915542573
20
-9.7490035937338462
10
1.7170173915542573
20
-8.6499998547136805
42
-0.99999999999999989
10
2.0170173960246056
20
-8.6499998547136805
10
2.0170173960246056
20
-9.7490035937338462
42
-0.99999999999999989
0
LWPOLYLINE
5
111
100
AcDbEntity
8
0
100
AcDbPolyline
90
4
70
1
43
0.0
10
2.9650173915542575
20
-9.7490035937338462
10
2.9650173915542575
20
-8.6499998547136805
42
-0.99999999999999989
10
3.2650173960246058
20
-8.6499998547136805
10
3.2650173960246058
20
-9.7490035937338462
42
-0.99999999999999989
0
LWPOLYLINE
5
112
100
AcDbEntity
8
0
100
AcDbPolyline
90
4
70
1
43
0.0
10
-3.2749826084457427
20
-7.9140035937338462
10
-3.2749826084457427
20
-6.8149998547136805
42
-0.99999999999999989
10
-2.9749826039753944
20
-6.8149998547136805
10
-2.9749826039753944
20
-7.9140035937338462
42
-0.99999999999999989
0
LWPOLYLINE
5
113
100
AcDbEntity
8
0
100
AcDbPolyline
90
4
70
1
43
0.0
10
-2.026982608445743
20
-7.9140035937338462
10
-2.026982608445743
20
-6.8149998547136805
42
-0.99999999999999989
10
-1.7269826039753944
20
-6.8149998547136805
10
-1.7269826039753942
20
-7.9140035937338462
42
-0.99999999999999989
0
LWPOLYLINE
5
114
100
AcDbEntity
8
0
100
AcDbPolyline
90
4
70
1
43
0.0
10
-0.77898260844574274
20
-7.9140035937338462
10
-0.77898260844574274
20
-6.8149998547136805
42
-0.99999999999999989
10
-0.47898260397539438
20
-6.8149998547136805
10
-0.47898260397539438
20
-7.9140035937338462
42
-0.99999999999999989
0
LWPOLYLINE
5
115
100
AcDbEntity
8
0
100
AcDbPolyline
90
4
70
1
43
0.0
10
0.46901739155425703
20
-7.9140035937338462
10
0.46901739155425703
20
-6.8149998547136805
42
-0.99999999999999989
10
0.76901739602460539
20
-6.8149998547136805
10
0.76901739602460539
20
-7.9140035937338462
42
-0.99999999999999989
0
LWPOLYLINE
5
116
100
AcDbEntity
8
0
100
AcDbPolyline
90
4
70
1
43
0.0
10
1.7170173915542573
20
-7.9140035937338462
10
1.7170173915542573
20
-6.8149998547136805
42
-0.99999999999999989
10
2.0170173960246056
20
-6.8149998547136805
10
2.0170173960246056
20
-7.9140035937338462
42
-0.99999999999999989
0
LWPOLYLINE
5
117
100
AcDbEntity
8
0
100
AcDbPolyline
90
4
70
1
43
0.0
10
2.9650173915542575
20
-7.9140035937338462
10
2.9650173915542575
20
-6.8149998547136805
42
-0.99999999999999989
10
3.2650173960246058
20
-6.8149998547136805
10
3.2650173960246058
20
-7.9140035937338462
42
-0.99999999999999989
0
LWPOLYLINE
5
118
100
AcDbEntity
8
0
100
AcDbPolyline
90
4
70
1
43
0.0
10
-3.2749826084457427
20
-6.0790035937338462
10
-3.2749826084457427
20
-4.9799998547136806
42
-0.99999999999999989
10
-2.9749826039753944
20
-4.9799998547136806
10
-2.9749826039753944
20
-6.0790035937338462
42
-0.99999999999999989
0
LWPOLYLINE
5
119
100
AcDbEntity
8
0
100
AcDbPolyline
90
4
70
1
43
0.0
10
-2.026982608445743
20
-6.0790035937338462
10
-2.026982608445743
20
-4.9799998547136806
42
-0.99999999999999989
10
-1.7269826039753944
20
-4.9799998547136806
10
-1.7269826039753942
20
-6.0790035937338462
42
-0.99999999999999989
0
LWPOLYLINE
5
120
100
AcDbEntity
8
0
100
AcDbPolyline
90
4
70
1
43
0.0
10
-0.77898260844574274
20
-6.0790035937338462
10
-0.77898260844574274
20
-4.9799998547136806
42
-0.99999999999999989
10
-0.47898260397539438
20
-4.9799998547136806
10
-0.47898260397539438
20
-6.0790035937338462
42
-0.99999999999999989
0
LWPOLYLINE
5
121
100
AcDbEntity
8
0
100
AcDbPolyline
90
4
70
1
43
0.0
10
0.46901739155425703
20
-6.0790035937338462
10
0.46901739155425703
20
-4.9799998547136806
42
-0.99999999999999989
10
0.76901739602460539
20
-4.9799998547136806
10
0.76901739602460539
20
-6.0790035937338462
42
-0.99999999999999989
0
LWPOLYLINE
5
122
100
AcDbEntity
8
0
100
AcDbPolyline
90
4
70
1
43
0.0
10
1.7170173915542573
20
-6.0790035937338462
10
1.7170173915542573
20
-4.9799998547136806
42
-0.99999999999999989
10
2.0170173960246056
20
-4.9799998547136806
10
2.0170173960246056
20
-6.0790035937338462
42
-0.99999999999999989
0
LWPOLYLINE
5
123
100
AcDbEntity
8
0
100
AcDbPolyline
90
4
70
1
43
0.0
10
2.9650173915542575
20
-6.0790035937338462
10
2.9650173915542575
20
-4.9799998547136806
42
-0.99999999999999989
10
3.2650173960246058
20
-4.9799998547136806
10
3.2650173960246058
20
-6.0790035937338462
42
-0.99999999999999989
0
LWPOLYLINE
5
124
100
AcDbEntity
8
0
100
AcDbPolyline
90
4
70
1
43
0.0
10
-3.2749826084457427
20
-4.2440035937338454
10
-3.2749826084457427
20
-3.1449998547136797
42
-0.99999999999999989
10
-2.9749826039753944
20
-3.1449998547136797
10
-2.9749826039753944
20
-4.2440035937338454
42
-0.99999999999999989
0
LWPOLYLINE
5
125
100
AcDbEntity
8
0
100
AcDbPolyline
90
4
70
1
43
0.0
10
-2.026982608445743
20
-4.2440035937338454
10
-2.026982608445743
20
-3.1449998547136797
42
-0.99999999999999989
10
-1.7269826039753944
20
-3.1449998547136797
10
-1.7269826039753942
20
-4.2440035937338454
42
-0.99999999999999989
0
LWPOLYLINE
5
126
100
AcDbEntity
8
0
100
AcDbPolyline
90
4
70
1
43
0.0
10
-0.77898260844574274
20
-4.2440035937338454
10
-0.77898260844574274
20
-3.1449998547136797
42
-0.99999999999999989
10
-0.47898260397539438
20
-3.1449998547136797
10
-0.47898260397539438
20
-4.2440035937338454
42
-0.99999999999999989
0
LWPOLYLINE
5
127
100
AcDbEntity
8
0
100
AcDbPolyline
90
4
70
1
43
0.0
10
0.46901739155425703
20
-4.2440035937338454
10
0.46901739155425703
20
-3.1449998547136797
42
-0.99999999999999989
10
0.76901739602460539
20
-3.1449998547136797
10
0.76901739602460539
20
-4.2440035937338454
42
-0.99999999999999989
0
LWPOLYLINE
5
128
100
AcDbEntity
8
0
100
AcDbPolyline
90
4
70
1
43
0.0
10
1.7170173915542573
20
-4.2440035937338454
10
1.7170173915542573
20
-3.1449998547136797
42
-0.99999999999999989
10
2.0170173960246056
20
-3.1449998547136797
10
2.0170173960246056
20
-4.2440035937338454
42
-0.99999999999999989
0
LWPOLYLINE
5
129
100
AcDbEntity
8
0
100
AcDbPolyline
90
4
70
1
43
0.0
10
2.9650173915542575
20
-4.2440035937338454
10
2.9650173915542575
20
-3.1449998547136797
42
-0.99999999999999989
10
3.2650173960246058
20
-3.1449998547136797
10
3.2650173960246058
20
-4.2440035937338454
42
-0.99999999999999989
0
LWPOLYLINE
5
130
100
AcDbEntity
8
0
100
AcDbPolyline
90
4
70
1
43
0.0
10
-3.2749826084457427
20
-2.4090035937338454
10
-3.2749826084457427
20
-1.3099998547136797
42
-0.99999999999999989
10
-2.9749826039753944
20
-1.3099998547136797
10
-2.9749826039753944
20
-2.4090035937338454
42
-0.99999999999999989
0
LWPOLYLINE
5
131
100
AcDbEntity
8
0
100
AcDbPolyline
90
4
70
1
43
0.0
10
-2.026982608445743
20
-2.4090035937338454
10
-2.026982608445743
20
-1.3099998547136797
42
-0.99999999999999989
10
-1.7269826039753944
20
-1.3099998547136797
10
-1.7269826039753942
20
-2.4090035937338454
42
-0.99999999999999989
0
LWPOLYLINE
5
132
100
AcDbEntity
8
0
100
AcDbPolyline
90
4
70
1
43
0.0
10
-0.77898260844574274
20
-2.4090035937338454
10
-0.77898260844574274
20
-1.3099998547136797
42
-0.99999999999999989
10
-0.47898260397539438
20
-1.3099998547136797
10
-0.47898260397539438
20
-2.4090035937338454
42
-0.99999999999999989
0
LWPOLYLINE
5
133
100
AcDbEntity
8
0
100
AcDbPolyline
90
4
70
1
43
0.0
10
0.46901739155425703
20
-2.4090035937338454
10
0.46901739155425703
20
-1.3099998547136797
42
-0.99999999999999989
10
0.76901739602460539
20
-1.3099998547136797
10
0.76901739602460539
20
-2.4090035937338454
42
-0.99999999999999989
0
LWPOLYLINE
5
134
100
AcDbEntity
8
0
100
AcDbPolyline
90
4
70
1
43
0.0
10
1.7170173915542573
20
-2.4090035937338454
10
1.7170173915542573
20
-1.3099998547136797
42
-0.99999999999999989
10
2.0170173960246056
20
-1.3099998547136797
10
2.0170173960246056
20
-2.4090035937338454
42
-0.99999999999999989
0
LWPOLYLINE
5
135
100
AcDbEntity
8
0
100
AcDbPolyline
90
4
70
1
43
0.0
10
2.9650173915542575
20
-2.4090035937338454
10
2.9650173915542575
20
-1.3099998547136797
42
-0.99999999999999989
10
3.2650173960246058
20
-1.3099998547136797
10
3.2650173960246058
20
-2.4090035937338454
42
-0.99999999999999989
0
LWPOLYLINE
5
136
100
AcDbEntity
8
0
100
AcDbPolyline
90
4
70
1
43
0.0
10
-3.2749826084457427
20
-0.57400359373384546
10
-3.2749826084457427
20
0.52500014528632022
42
-0.99999999999999989
10
-2.9749826039753944
20
0.52500014528632022
10
-2.9749826039753944
20
-0.57400359373384546
42
-0.99999999999999989
0
LWPOLYLINE
5
137
100
AcDbEntity
8
0
100
AcDbPolyline
90
4
70
1
43
0.0
10
-2.026982608445743
20
-0.57400359373384546
10
-2.026982608445743
20
0.52500014528632022
42
-0.99999999999999989
10
-1.7269826039753944
20
0.52500014528632022
10
-1.7269826039753942
20
-0.57400359373384546
42
-0.99999999999999989
0
LWPOLYLINE
5
138
100
AcDbEntity
8
0
100
AcDbPolyline
90
4
70
1
43
0.0
10
-0.77898260844574274
20
-0.57400359373384546
10
-0.77898260844574274
20
0.52500014528632022
42
-0.99999999999999989
10
-0.47898260397539438
20
0.52500014528632022
10
-0.47898260397539438
20
-0.57400359373384546
42
-0.99999999999999989
0
LWPOLYLINE
5
139
100
AcDbEntity
8
0
100
AcDbPolyline
90
4
70
1
43
0.0
10
0.46901739155425703
20
-0.57400359373384546
10
0.46901739155425703
20
0.52500014528632022
42
-0.99999999999999989
10
0.76901739602460539
20
0.52500014528632022
10
0.76901739602460539
20
-0.57400359373384546
42
-0.99999999999999989
0
LWPOLYLINE
5
140
100
AcDbEntity
8
0
100
AcDbPolyline
90
4
70
1
43
0.0
10
1.7170173915542573
20
-0.57400359373384546
10
1.7170173915542573
20
0.52500014528632022
42
-0.99999999999999989
10
2.0170173960246056
20
0.52500014528632022
10
2.0170173960246056
20
-0.57400359373384546
42
-0.99999999999999989
0
LWPOLYLINE
5
141
100
AcDbEntity
8
0
100
AcDbPolyline
90
4
70
1
43
0.0
10
2.9650173915542575
20
-0.57400359373384546
10
2.9650173915542575
20
0.52500014528632022
42
-0.99999999999999989
10
3.2650173960246058
20
0.52500014528632022
10
3.2650173960246058
20
-0.57400359373384546
42
-0.99999999999999989
0
LWPOLYLINE
5
142
100
AcDbEntity
8
0
100
AcDbPolyline
90
4
70
1
43
0.0
10
-3.2749826084457427
20
1.2609964062661554
10
-3.2749826084457427
20
2.3600001452863211
42
-0.99999999999999989
10
-2.9749826039753944
20
2.3600001452863211
10
-2.9749826039753944
20
1.2609964062661554
42
-0.99999999999999989
0
LWPOLYLINE
5
143
100
AcDbEntity
8
0
100
AcDbPolyline
90
4
70
1
43
0.0
10
-2.026982608445743
20
1.2609964062661554
10
-2.026982608445743
20
2.3600001452863211
42
-0.99999999999999989
10
-1.7269826039753944
20
2.3600001452863211
10
-1.7269826039753942
20
1.2609964062661554
42
-0.99999999999999989
0
LWPOLYLINE
5
144
100
AcDbEntity
8
0
100
AcDbPolyline
90
4
70
1
43
0.0
10
-0.77898260844574274
20
1.2609964062661554
10
-0.77898260844574274
20
2.3600001452863211
42
-0.99999999999999989
10
-0.47898260397539438
20
2.3600001452863211
10
-0.47898260397539438
20
1.2609964062661554
42
-0.99999999999999989
0
LWPOLYLINE
5
145
100
AcDbEntity
8
0
100
AcDbPolyline
90
4
70
1
43
0.0
10
0.46901739155425703
20
1.2609964062661554
10
0.46901739155425703
20
2.3600001452863211
42
-0.99999999999999989
10
0.76901739602460539
20
2.3600001452863211
10
0.76901739602460539
20
1.2609964062661554
42
-0.99999999999999989
0
LWPOLYLINE
5
146
100
AcDbEntity
8
0
100
AcDbPolyline
90
4
70
1
43
0.0
10
1.7170173915542573
20
1.2609964062661554
10
1.7170173915542573
20
2.3600001452863211
42
-0.99999999999999989
10
2.0170173960246056
20
2.3600001452863211
10
2.0170173960246056
20
1.2609964062661554
42
-0.99999999999999989
0
LWPOLYLINE
5
147
100
AcDbEntity
8
0
100
AcDbPolyline
90
4
70
1
43
0.0
10
2.9650173915542575
20
1.2609964062661554
10
2.9650173915542575
20
2.3600001452863211
42
-0.99999999999999989
10
3.2650173960246058
20
2.3600001452863211
10
3.2650173960246058
20
1.2609964062661554
42
-0.99999999999999989
0
LWPOLYLINE
5
148
100
AcDbEntity
8
0
100
AcDbPolyline
90
4
70
1
43
0.0
10
-3.2749826084457427
20
3.0959964062661545
10
-3.2749826084457427
20
4.1950001452863201
42
-0.99999999999999989
10
-2.9749826039753944
20
4.1950001452863201
10
-2.9749826039753944
20
3.0959964062661545
42
-0.99999999999999989
0
LWPOLYLINE
5
149
100
AcDbEntity
8
0
100
AcDbPolyline
90
4
70
1
43
0.0
10
-2.026982608445743
20
3.0959964062661545
10
-2.026982608445743
20
4.1950001452863201
42
-0.99999999999999989
10
-1.7269826039753944
20
4.1950001452863201
10
-1.7269826039753942
20
3.0959964062661545
42
-0.99999999999999989
0
LWPOLYLINE
5
150
100
AcDbEntity
8
0
100
AcDbPolyline
90
4
70
1
43
0.0
10
-0.77898260844574274
20
3.0959964062661545
10
-0.77898260844574274
20
4.1950001452863201
42
-0.99999999999999989
10
-0.47898260397539438
20
4.1950001452863201
10
-0.47898260397539438
20
3.0959964062661545
42
-0.99999999999999989
0
LWPOLYLINE
5
151
100
AcDbEntity
8
0
100
AcDbPolyline
90
4
70
1
43
0.0
10
0.46901739155425703
20
3.0959964062661545
10
0.46901739155425703
20
4.1950001452863201
42
-0.99999999999999989
10
0.76901739602460539
20
4.1950001452863201
10
0.76901739602460539
20
3.0959964062661545
42
-0.99999999999999989
0
LWPOLYLINE
5
152
100
AcDbEntity
8
0
100
AcDbPolyline
90
4
70
1
43
0.0
10
1.7170173915542573
20
3.0959964062661545
10
1.7170173915542573
20
4.1950001452863201
42
-0.99999999999999989
10
2.0170173960246056
20
4.1950001452863201
10
2.0170173960246056
20
3.0959964062661545
42
-0.99999999999999989
0
LWPOLYLINE
5
153
100
AcDbEntity
8
0
100
AcDbPolyline
90
4
70
1
43
0.0
10
2.9650173915542575
20
3.0959964062661545
10
2.9650173915542575
20
4.1950001452863201
42
-0.99999999999999989
10
3.2650173960246058
20
4.1950001452863201
10
3.2650173960246058
20
3.0959964062661545
42
-0.99999999999999989
0
LWPOLYLINE
5
154
100
AcDbEntity
8
0
100
AcDbPolyline
90
4
70
1
43
0.0
10
-3.2749826084457427
20
4.9309964062661553
10
-3.2749826084457427
20
6.030000145286321
42
-0.99999999999999989
10
-2.9749826039753944
20
6.030000145286321
10
-2.9749826039753944
20
4.9309964062661553
42
-0.99999999999999989
0
LWPOLYLINE
5
155
100
AcDbEntity
8
0
100
AcDbPolyline
90
4
70
1
43
0.0
10
-2.026982608445743
20
4.9309964062661553
10
-2.026982608445743
20
6.030000145286321
42
-0.99999999999999989
10
-1.7269826039753944
20
6.030000145286321
10
-1.7269826039753942
20
4.9309964062661553
42
-0.99999999999999989
0
LWPOLYLINE
5
156
100
AcDbEntity
8
0
100
AcDbPolyline
90
4
70
1
43
0.0
10
-0.77898260844574274
20
4.9309964062661553
10
-0.77898260844574274
20
6.030000145286321
42
-0.99999999999999989
10
-0.47898260397539438
20
6.030000145286321
10
-0.47898260397539438
20
4.9309964062661553
42
-0.99999999999999989
0
LWPOLYLINE
5
157
100
AcDbEntity
8
0
100
AcDbPolyline
90
4
70
1
43
0.0
10
0.46901739155425703
20
4.9309964062661553
10
0.46901739155425703
20
6.030000145286321
42
-0.99999999999999989
10
0.76901739602460539
20
6.030000145286321
10
0.76901739602460539
20
4.9309964062661553
42
-0.99999999999999989
0
LWPOLYLINE
5
158
100
AcDbEntity
8
0
100
AcDbPolyline
90
4
70
1
43
0.0
10
1.7170173915542573
20
4.9309964062661553
10
1.7170173915542573
20
6.030000145286321
42
-0.99999999999999989
10
2.0170173960246056
20
6.030000145286321
10
2.0170173960246056
20
4.9309964062661553
42
-0.99999999999999989
0
LWPOLYLINE
5
159
100
AcDbEntity
8
0
100
AcDbPolyline
90
4
70
1
43
0.0
10
2.9650173915542575
20
4.9309964062661553
10
2.9650173915542575
20
6.030000145286321
42
-0.99999999999999989
10
3.2650173960246058
20
6.030000145286321
10
3.2650173960246058
20
4.9309964062661553
42
-0.99999999999999989
0
LWPOLYLINE
5
160
100
AcDbEntity
8
0
100
AcDbPolyline
90
4
70
1
43
0.0
10
-3.2749826084457427
20
6.7659964062661544
10
-3.2749826084457427
20
7.8650001452863201
42
-0.99999999999999989
10
-2.9749826039753944
20
7.8650001452863201
10
-2.9749826039753944
20
6.7659964062661544
42
-0.99999999999999989
0
LWPOLYLINE
5
161
100
AcDbEntity
8
0
100
AcDbPolyline
90
4
70
1
43
0.0
10
-2.026982608445743
20
6.7659964062661544
10
-2.026982608445743
20
7.8650001452863201
42
-0.99999999999999989
10
-1.7269826039753944
20
7.8650001452863201
10
-1.7269826039753942
20
6.7659964062661544
42
-0.99999999999999989
0
LWPOLYLINE
5
162
100
AcDbEntity
8
0
100
AcDbPolyline
90
4
70
1
43
0.0
10
-0.77898260844574274
20
6.7659964062661544
10
-0.77898260844574274
20
7.8650001452863201
42
-0.99999999999999989
10
-0.47898260397539438
20
7.8650001452863201
10
-0.47898260397539438
20
6.7659964062661544
42
-0.99999999999999989
0
LWPOLYLINE
5
163
100
AcDbEntity
8
0
100
AcDbPolyline
90
4
70
1
43
0.0
10
0.46901739155425703
20
6.7659964062661544
10
0.46901739155425703
20
7.8650001452863201
42
-0.99999999999999989
10
0.76901739602460539
20
7.8650001452863201
10
0.76901739602460539
20
6.7659964062661544
42
-0.99999999999999989
0
LWPOLYLINE
5
164
100
AcDbEntity
8
0
100
AcDbPolyline
90
4
70
1
43
0.0
10
1.7170173915542573
20
6.7659964062661544
10
1.7170173915542573
20
7.8650001452863201
42
-0.99999999999999989
10
2.0170173960246056
20
7.8650001452863201
10
2.0170173960246056
20
6.7659964062661544
42
-0.99999999999999989
0
LWPOLYLINE
5
165
100
AcDbEntity
8
0
100
AcDbPolyline
90
4
70
1
43
0.0
10
2.9650173915542575
20
6.7659964062661544
10
2.9650173915542575
20
7.8650001452863201
42
-0.99999999999999989
10
3.2650173960246058
20
7.8650001452863201
10
3.2650173960246058
20
6.7659964062661544
42
-0.99999999999999989
0
LWPOLYLINE
5
166
100
AcDbEntity
8
0
100
AcDbPolyline
90
4
70
1
43
0.0
10
-3.2749826084457427
20
8.6009964062661552
10
-3.2749826084457427
20
9.7000001452863209
42
-0.99999999999999989
10
-2.9749826039753944
20
9.7000001452863209
10
-2.9749826039753944
20
8.6009964062661552
42
-0.99999999999999989
0
LWPOLYLINE
5
167
100
AcDbEntity
8
0
100
AcDbPolyline
90
4
70
1
43
0.0
10
-2.026982608445743
20
8.6009964062661552
10
-2.026982608445743
20
9.7000001452863209
42
-0.99999999999999989
10
-1.7269826039753944
20
9.7000001452863209
10
-1.7269826039753942
20
8.6009964062661552
42
-0.99999999999999989
0
LWPOLYLINE
5
168
100
AcDbEntity
8
0
100
AcDbPolyline
90
4
70
1
43
0.0
10
-0.77898260844574274
20
8.6009964062661552
10
-0.77898260844574274
20
9.7000001452863209
42
-0.99999999999999989
10
-0.47898260397539438
20
9.7000001452863209
10
-0.47898260397539438
20
8.6009964062661552
42
-0.99999999999999989
0
LWPOLYLINE
5
169
100
AcDbEntity
8
0
100
AcDbPolyline
90
4
70
1
43
0.0
10
0.46901739155425703
20
8.6009964062661552
10
0.46901739155425703
20
9.7000001452863209
42
-0.99999999999999989
10
0.76901739602460539
20
9.7000001452863209
10
0.76901739602460539
20
8.6009964062661552
42
-0.99999999999999989
0
LWPOLYLINE
5
170
100
AcDbEntity
8
0
100
AcDbPolyline
90
4
70
1
43
0.0
10
1.7170173915542573
20
8.6009964062661552
10
1.7170173915542573
20
9.7000001452863209
42
-0.99999999999999989
10
2.0170173960246056
20
9.7000001452863209
10
2.0170173960246056
20
8.6009964062661552
42
-0.99999999999999989
0
LWPOLYLINE
5
171
100
AcDbEntity
8
0
100
AcDbPolyline
90
4
70
1
43
0.0
10
2.9650173915542575
20
8.6009964062661552
10
2.9650173915542575
20
9.7000001452863209
42
-0.99999999999999989
10
3.2650173960246058
20
9.7000001452863209
10
3.2650173960246058
20
8.6009964062661552
42
-0.99999999999999989
0
LWPOLYLINE
5
172
100
AcDbEntity
8
0
100
AcDbPolyline
90
4
70
1
43
0.0
10
-2.3500000372529031
20
-7.7320017242237622
10
-2.3500000372529031
20
-8.8320017242237618
42
-0.99999999999999989
10
-2.6500000372529029
20
-8.8320017242237618
10
-2.6500000372529029
20
-7.7320017242237622
42
-0.99999999999999989
0
LINE
5
173
100
AcDbEntity
8
0
100
AcDbLine
10
-2.500000037252903
20
-8.2820017242237629
30
0
11
-2.500000037252903
21
-7.5820017242237618
31
0
0
LWPOLYLINE
5
174
100
AcDbEntity
8
0
100
AcDbPolyline
90
4
70
1
43
0.0
10
-1.4029826062105684
20
-8.8320017242237618
10
-1.4029826062105684
20
-7.7320017242237622
42
-0.99999999999999989
10
-1.1029826062105685
20
-7.7320017242237622
10
-1.1029826062105685
20
-8.8320017242237618
42
-0.99999999999999989
0
LWPOLYLINE
5
175
100
AcDbEntity
8
0
100
AcDbPolyline
90
4
70
1
43
0.0
10
-0.15498260621056836
20
-8.8320017242237618
10
-0.15498260621056836
20
-7.7320017242237622
42
-0.99999999999999989
10
0.14501739378943146
20
-7.7320017242237622
10
0.14501739378943146
20
-8.8320017242237618
42
-0.99999999999999989
0
LWPOLYLINE
5
176
100
AcDbEntity
8
0
100
AcDbPolyline
90
4
70
1
43
0.0
10
1.0930173937894314
20
-8.8320017242237618
10
1.0930173937894314
20
-7.7320017242237622
42
-0.99999999999999989
10
1.3930173937894312
20
-7.7320017242237622
10
1.3930173937894312
20
-8.8320017242237618
42
-0.99999999999999989
0
LWPOLYLINE
5
177
100
AcDbEntity
8
0
100
AcDbPolyline
90
4
70
1
43
0.0
10
-2.6509826062105684
20
-6.9971128353348728
10
-2.6509826062105684
20
-5.8971128353348732
42
-0.99999999999999989
10
-2.3509826062105685
20
-5.8971128353348732
10
-2.3509826062105685
20
-6.9971128353348728
42
-0.99999999999999989
0
LWPOLYLINE
5
178
100
AcDbEntity
8
0
100
AcDbPolyline
90
4
70
1
43
0.0
10
-1.4029826062105684
20
-6.9971128353348728
10
-1.4029826062105684
20
-5.8971128353348732
42
-0.99999999999999989
10
-1.1029826062105685
20
-5.8971128353348732
10
-1.1029826062105685
20
-6.9971128353348728
42
-0.99999999999999989
0
LWPOLYLINE
5
179
100
AcDbEntity
8
0
100
AcDbPolyline
90
4
70
1
43
0.0
10
-0.15498260621056836
20
-6.9971128353348728
10
-0.15498260621056836
20
-5.8971128353348732
42
-0.99999999999999989
10
0.14501739378943146
20
-5.8971128353348732
10
0.14501739378943146
20
-6.9971128353348728
42
-0.99999999999999989
0
LWPOLYLINE
5
180
100
AcDbEntity
8
0
100
AcDbPolyline
90
4
70
1
43
0.0
10
1.0930173937894314
20
-6.9971128353348728
10
1.0930173937894314
20
-5.8971128353348732
42
-0.99999999999999989
10
1.3930173937894312
20
-5.8971128353348732
10
1.3930173937894312
20
-6.9971128353348728
42
-0.99999999999999989
0
LWPOLYLINE
5
181
100
AcDbEntity
8
0
100
AcDbPolyline
90
4
70
1
43
0.0
10
2.3410173937894316
20
-6.9971128353348728
10
2.3410173937894316
20
-5.8971128353348732
42
-0.99999999999999989
10
2.6410173937894315
20
-5.8971128353348732
10
2.6410173937894315
20
-6.9971128353348728
42
-0.99999999999999989
0
LWPOLYLINE
5
182
100
AcDbEntity
8
0
100
AcDbPolyline
90
4
70
1
43
0.0
10
-2.6509826062105684
20
-5.1622239464459838
10
-2.6509826062105684
20
-4.0622239464459842
42
-0.99999999999999989
10
-2.3509826062105685
20
-4.0622239464459842
10
-2.3509826062105685
20
-5.1622239464459838
42
-0.99999999999999989
0
LWPOLYLINE
5
183
100
AcDbEntity
8
0
100
AcDbPolyline
90
4
70
1
43
0.0
10
-1.4029826062105684
20
-5.1622239464459838
10
-1.4029826062105684
20
-4.0622239464459842
42
-0.99999999999999989
10
-1.1029826062105685
20
-4.0622239464459842
10
-1.1029826062105685
20
-5.1622239464459838
42
-0.99999999999999989
0
LWPOLYLINE
5
184
100
AcDbEntity
8
0
100
AcDbPolyline
90
4
70
1
43
0.0
10
-0.15498260621056836
20
-5.1622239464459838
10
-0.15498260621056836
20
-4.0622239464459842
42
-0.99999999999999989
10
0.14501739378943146
20
-4.0622239464459842
10
0.14501739378943146
20
-5.1622239464459838
42
-0.99999999999999989
0
LWPOLYLINE
5
185
100
AcDbEntity
8
0
100
AcDbPolyline
90
4
70
1
43
0.0
10
1.0930173937894314
20
-5.1622239464459838
10
1.0930173937894314
20
-4.0622239464459842
42
-0.99999999999999989
10
1.3930173937894312
20
-4.0622239464459842
10
1.3930173937894312
20
-5.1622239464459838
42
-0.99999999999999989
0
LWPOLYLINE
5
186
100
AcDbEntity
8
0
100
AcDbPolyline
90
4
70
1
43
0.0
10
2.3410173937894316
20
-5.1622239464459838
10
2.3410173937894316
20
-4.0622239464459842
42
-0.99999999999999989
10
2.6410173937894315
20
-4.0622239464459842
10
2.6410173937894315
20
-5.1622239464459838
42
-0.99999999999999989
0
LWPOLYLINE
5
187
100
AcDbEntity
8
0
100
AcDbPolyline
90
4
70
1
43
0.0
10
-2.6509826062105684
20
-3.3273350575570957
10
-2.6509826062105684
20
-2.227335057557096
42
-0.99999999999999989
10
-2.3509826062105685
20
-2.227335057557096
10
-2.3509826062105685
20
-3.3273350575570957
42
-0.99999999999999989
0
LWPOLYLINE
5
188
100
AcDbEntity
8
0
100
AcDbPolyline
90
4
70
1
43
0.0
10
-1.4029826062105684
20
-3.3273350575570957
10
-1.4029826062105684
20
-2.227335057557096
42
-0.99999999999999989
10
-1.1029826062105685
20
-2.227335057557096
10
-1.1029826062105685
20
-3.3273350575570957
42
-0.99999999999999989
0
LWPOLYLINE
5
189
100
AcDbEntity
8
0
100
AcDbPolyline
90
4
70
1
43
0.0
10
-0.15498260621056836
20
-3.3273350575570957
10
-0.15498260621056836
20
-2.227335057557096
42
-0.99999999999999989
10
0.14501739378943146
20
-2.227335057557096
10
0.14501739378943146
20
-3.3273350575570957
42
-0.99999999999999989
0
LWPOLYLINE
5
190
100
AcDbEntity
8
0
100
AcDbPolyline
90
4
70
1
43
0.0
10
1.0930173937894314
20
-3.3273350575570957
10
1.0930173937894314
20
-2.227335057557096
42
-0.99999999999999989
10
1.3930173937894312
20
-2.227335057557096
10
1.3930173937894312
20
-3.3273350575570957
42
-0.99999999999999989
0
LWPOLYLINE
5
191
100
AcDbEntity
8
0
100
AcDbPolyline
90
4
70
1
43
0.0
10
2.3410173937894316
20
-3.3273350575570957
10
2.3410173937894316
20
-2.227335057557096
42
-0.99999999999999989
10
2.6410173937894315
20
-2.227335057557096
10
2.6410173937894315
20
-3.3273350575570957
42
-0.99999999999999989
0
LWPOLYLINE
5
192
100
AcDbEntity
8
0
100
AcDbPolyline
90
4
70
1
43
0.0
10
-2.6509826062105684
20
-1.4924461686682067
10
-2.6509826062105684
20
-0.39244616866820703
42
-0.99999999999999989
10
-2.3509826062105685
20
-0.39244616866820703
10
-2.3509826062105685
20
-1.4924461686682067
42
-0.99999999999999989
0
LWPOLYLINE
5
193
100
AcDbEntity
8
0
100
AcDbPolyline
90
4
70
1
43
0.0
10
-1.4029826062105684
20
-1.4924461686682067
10
-1.4029826062105684
20
-0.39244616866820703
42
-0.99999999999999989
10
-1.1029826062105685
20
-0.39244616866820703
10
-1.1029826062105685
20
-1.4924461686682067
42
-0.99999999999999989
0
LWPOLYLINE
5
194
100
AcDbEntity
8
0
100
AcDbPolyline
90
4
70
1
43
0.0
10
-0.15498260621056836
20
-1.4924461686682067
10
-0.15498260621056836
20
-0.39244616866820703
42
-0.99999999999999989
10
0.14501739378943146
20
-0.39244616866820703
10
0.14501739378943146
20
-1.4924461686682067
42
-0.99999999999999989
0
LWPOLYLINE
5
195
100
AcDbEntity
8
0
100
AcDbPolyline
90
4
70
1
43
0.0
10
1.0930173937894314
20
-1.4924461686682067
10
1.0930173937894314
20
-0.39244616866820703
42
-0.99999999999999989
10
1.3930173937894312
20
-0.39244616866820703
10
1.3930173937894312
20
-1.4924461686682067
42
-0.99999999999999989
0
LWPOLYLINE
5
196
100
AcDbEntity
8
0
100
AcDbPolyline
90
4
70
1
43
0.0
10
2.3410173937894316
20
-1.4924461686682067
10
2.3410173937894316
20
-0.39244616866820703
42
-0.99999999999999989
10
2.6410173937894315
20
-0.39244616866820703
10
2.6410173937894315
20
-1.4924461686682067
42
-0.99999999999999989
0
LWPOLYLINE
5
197
100
AcDbEntity
8
0
100
AcDbPolyline
90
4
70
1
43
0.0
10
-2.6509826062105684
20
0.34244272022068145
10
-2.6509826062105684
20
1.4424427202206811
42
-0.99999999999999989
10
-2.3509826062105685
20
1.4424427202206811
10
-2.3509826062105685
20
0.34244272022068145
42
-0.99999999999999989
0
LWPOLYLINE
5
198
100
AcDbEntity
8
0
100
AcDbPolyline
90
4
70
1
43
0.0
10
-1.4029826062105684
20
0.34244272022068145
10
-1.4029826062105684
20
1.4424427202206811
42
-0.99999999999999989
10
-1.1029826062105685
20
1.4424427202206811
10
-1.1029826062105685
20
0.34244272022068145
42
-0.99999999999999989
0
LWPOLYLINE
5
199
100
AcDbEntity
8
0
100
AcDbPolyline
90
4
70
1
43
0.0
10
-0.15498260621056836
20
0.34244272022068145
10
-0.15498260621056836
20
1.4424427202206811
42
-0.99999999999999989
10
0.14501739378943146
20
1.4424427202206811
10
0.14501739378943146
20
0.34244272022068145
42
-0.99999999999999989
0
LWPOLYLINE
5
200
100
AcDbEntity
8
0
100
AcDbPolyline
90
4
70
1
43
0.0
10
1.0930173937894314
20
0.34244272022068145
10
1.0930173937894314
20
1.4424427202206811
42
-0.99999999999999989
10
1.3930173937894312
20
1.4424427202206811
10
1.3930173937894312
20
0.34244272022068145
42
-0.99999999999999989
0
LWPOLYLINE
5
201
100
AcDbEntity
8
0
100
AcDbPolyline
90
4
70
1
43
0.0
10
2.3410173937894316
20
0.34244272022068145
10
2.3410173937894316
20
1.4424427202206811
42
-0.99999999999999989
10
2.6410173937894315
20
1.4424427202206811
10
2.6410173937894315
20
0.34244272022068145
42
-0.99999999999999989
0
LWPOLYLINE
5
202
100
AcDbEntity
8
0
100
AcDbPolyline
90
4
70
1
43
0.0
10
-2.6509826062105684
20
2.1773316091095705
10
-2.6509826062105684
20
3.2773316091095701
42
-0.99999999999999989
10
-2.3509826062105685
20
3.2773316091095701
10
-2.3509826062105685
20
2.1773316091095705
42
-0.99999999999999989
0
LWPOLYLINE
5
203
100
AcDbEntity
8
0
100
AcDbPolyline
90
4
70
1
43
0.0
10
-1.4029826062105684
20
2.1773316091095705
10
-1.4029826062105684
20
3.2773316091095701
42
-0.99999999999999989
10
-1.1029826062105685
20
3.2773316091095701
10
-1.1029826062105685
20
2.1773316091095705
42
-0.99999999999999989
0
LWPOLYLINE
5
204
100
AcDbEntity
8
0
100
AcDbPolyline
90
4
70
1
43
0.0
10
-0.15498260621056836
20
2.1773316091095705
10
-0.15498260621056836
20
3.2773316091095701
42
-0.99999999999999989
10
0.14501739378943146
20
3.2773316091095701
10
0.14501739378943146
20
2.1773316091095705
42
-0.99999999999999989
0
LWPOLYLINE
5
205
100
AcDbEntity
8
0
100
AcDbPolyline
90
4
70
1
43
0.0
10
1.0930173937894314
20
2.1773316091095705
10
1.0930173937894314
20
3.2773316091095701
42
-0.99999999999999989
10
1.3930173937894312
20
3.2773316091095701
10
1.3930173937894312
20
2.1773316091095705
42
-0.99999999999999989
0
LWPOLYLINE
5
206
100
AcDbEntity
8
0
100
AcDbPolyline
90
4
70
1
43
0.0
10
2.3410173937894316
20
2.1773316091095705
10
2.3410173937894316
20
3.2773316091095701
42
-0.99999999999999989
10
2.6410173937894315
20
3.2773316091095701
10
2.6410173937894315
20
2.1773316091095705
42
-0.99999999999999989
0
LWPOLYLINE
5
207
100
AcDbEntity
8
0
100
AcDbPolyline
90
4
70
1
43
0.0
10
-2.6509826062105684
20
4.0122204979984595
10
-2.6509826062105684
20
5.1122204979984591
42
-0.99999999999999989
10
-2.3509826062105685
20
5.1122204979984591
10
-2.3509826062105685
20
4.0122204979984595
42
-0.99999999999999989
0
LWPOLYLINE
5
208
100
AcDbEntity
8
0
100
AcDbPolyline
90
4
70
1
43
0.0
10
-1.4029826062105684
20
4.0122204979984595
10
-1.4029826062105684
20
5.1122204979984591
42
-0.99999999999999989
10
-1.1029826062105685
20
5.1122204979984591
10
-1.1029826062105685
20
4.0122204979984595
42
-0.99999999999999989
0
LWPOLYLINE
5
209
100
AcDbEntity
8
0
100
AcDbPolyline
90
4
70
1
43
0.0
10
-0.15498260621056836
20
4.0122204979984595
10
-0.15498260621056836
20
5.1122204979984591
42
-0.99999999999999989
10
0.14501739378943146
20
5.1122204979984591
10
0.14501739378943146
20
4.0122204979984595
42
-0.99999999999999989
0
LWPOLYLINE
5
210
100
AcDbEntity
8
0
100
AcDbPolyline
90
4
70
1
43
0.0
10
1.0930173937894314
20
4.0122204979984595
10
1.0930173937894314
20
5.1122204979984591
42
-0.99999999999999989
10
1.3930173937894312
20
5.1122204979984591
10
1.3930173937894312
20
4.0122204979984595
42
-0.99999999999999989
0
LWPOLYLINE
5
211
100
AcDbEntity
8
0
100
AcDbPolyline
90
4
70
1
43
0.0
10
2.3410173937894316
20
4.0122204979984595
10
2.3410173937894316
20
5.1122204979984591
42
-0.99999999999999989
10
2.6410173937894315
20
5.1122204979984591
10
2.6410173937894315
20
4.0122204979984595
42
-0.99999999999999989
0
LWPOLYLINE
5
212
100
AcDbEntity
8
0
100
AcDbPolyline
90
4
70
1
43
0.0
10
-2.6509826062105684
20
5.8471093868873485
10
-2.6509826062105684
20
6.9471093868873481
42
-0.99999999999999989
10
-2.3509826062105685
20
6.9471093868873481
10
-2.3509826062105685
20
5.8471093868873485
42
-0.99999999999999989
0
LWPOLYLINE
5
213
100
AcDbEntity
8
0
100
AcDbPolyline
90
4
70
1
43
0.0
10
-1.4029826062105684
20
5.8471093868873485
10
-1.4029826062105684
20
6.9471093868873481
42
-0.99999999999999989
10
-1.1029826062105685
20
6.9471093868873481
10
-1.1029826062105685
20
5.8471093868873485
42
-0.99999999999999989
0
LWPOLYLINE
5
214
100
AcDbEntity
8
0
100
AcDbPolyline
90
4
70
1
43
0.0
10
-0.15498260621056836
20
5.8471093868873485
10
-0.15498260621056836
20
6.9471093868873481
42
-0.99999999999999989
10
0.14501739378943146
20
6.9471093868873481
10
0.14501739378943146
20
5.8471093868873485
42
-0.99999999999999989
0
LWPOLYLINE
5
215
100
AcDbEntity
8
0
100
AcDbPolyline
90
4
70
1
43
0.0
10
1.0930173937894314
20
5.8471093868873485
10
1.0930173937894314
20
6.9471093868873481
42
-0.99999999999999989
10
1.3930173937894312
20
6.9471093868873481
10
1.3930173937894312
20
5.8471093868873485
42
-0.99999999999999989
0
LWPOLYLINE
5
216
100
AcDbEntity
8
0
100
AcDbPolyline
90
4
70
1
43
0.0
10
2.3410173937894316
20
5.8471093868873485
10
2.3410173937894316
20
6.9471093868873481
42
-0.99999999999999989
10
2.6410173937894315
20
6.9471093868873481
10
2.6410173937894315
20
5.8471093868873485
42
-0.99999999999999989
0
LWPOLYLINE
5
217
100
AcDbEntity
8
0
100
AcDbPolyline
90
4
70
1
43
0.0
10
-1.4029826062105684
20
7.6819982757762375
10
-1.4029826062105684
20
8.7819982757762372
42
-0.99999999999999989
10
-1.1029826062105685
20
8.7819982757762372
10
-1.1029826062105685
20
7.6819982757762375
42
-0.99999999999999989
0
LWPOLYLINE
5
218
100
AcDbEntity
8
0
100
AcDbPolyline
90
4
70
1
43
0.0
10
-0.15498260621056836
20
7.6819982757762375
10
-0.15498260621056836
20
8.7819982757762372
42
-0.99999999999999989
10
0.14501739378943146
20
8.7819982757762372
10
0.14501739378943146
20
7.6819982757762375
42
-0.99999999999999989
0
LWPOLYLINE
5
219
100
AcDbEntity
8
0
100
AcDbPolyline
90
4
70
1
43
0.0
10
1.0930173937894314
20
7.6819982757762375
10
1.0930173937894314
20
8.7819982757762372
42
-0.99999999999999989
10
1.3930173937894312
20
8.7819982757762372
10
1.3930173937894312
20
7.6819982757762375
42
-0.99999999999999989
0
LWPOLYLINE
5
220
100
AcDbEntity
8
0
100
AcDbPolyline
90
4
70
1
43
0.0
10
2.3410173937894316
20
7.6819982757762375
10
2.3410173937894316
20
8.7819982757762372
42
-0.99999999999999989
10
2.6410173937894315
20
8.7819982757762372
10
2.6410173937894315
20
7.6819982757762375
42
-0.99999999999999989
0
LWPOLYLINE
5
221
100
AcDbEntity
8
0
100
AcDbPolyline
90
4
70
1
43
0.0
10
-2.3509826062105685
20
8.7831093868873484
10
-2.3509826062105685
20
7.6831093868873479
42
-0.99999999999999989
10
-2.6509826062105684
20
7.6831093868873479
10
-2.6509826062105684
20
8.7831093868873484
42
-0.99999999999999989
0
LINE
5
222
100
AcDbEntity
8
0
100
AcDbLine
10
-2.5009826062105684
20
7.6831093868873479
30
0
11
-2.5009826062105684
21
8.7831093868873484
31
0
0
LWPOLYLINE
5
223
100
AcDbEntity
8
0
100
AcDbPolyline
90
4
70
1
43
0.0
10
-2.3509826062105685
20
10.619109386887349
10
-2.3509826062105685
20
9.5191093868873491
42
-0.99999999999999989
10
-2.6509826062105684
20
9.5191093868873491
10
-2.6509826062105684
20
10.619109386887349
42
-0.99999999999999989
0
LINE
5
224
100
AcDbEntity
8
0
100
AcDbLine
10
-2.5009826062105684
20
9.5191093868873491
30
0
11
-2.5009826062105684
21
10.619109386887349
31
0
0
LWPOLYLINE
5
225
100
AcDbEntity
8
0
100
AcDbPolyline
90
4
70
1
43
0.0
10
2.6410173937894315
20
10.617998275776237
10
2.6410173937894315
20
9.5179982757762378
42
-0.99999999999999989
10
2.3410173937894316
20
9.5179982757762378
10
2.3410173937894316
20
10.617998275776237
42
-0.99999999999999989
0
LINE
5
226
100
AcDbEntity
8
0
100
AcDbLine
10
2.4910173937894315
20
9.5179982757762378
30
0
11
2.4910173937894315
21
10.617998275776237
31
0
0
LWPOLYLINE
5
227
100
AcDbEntity
8
0
100
AcDbPolyline
90
4
70
1
43
0.0
10
1.3930173937894312
20
10.617998275776237
10
1.3930173937894312
20
9.5179982757762378
42
-0.99999999999999989
10
1.0930173937894314
20
9.5179982757762378
10
1.0930173937894314
20
10.617998275776237
42
-0.99999999999999989
0
LINE
5
228
100
AcDbEntity
8
0
100
AcDbLine
10
1.2430173937894313
20
9.5179982757762378
30
0
11
1.2430173937894313
21
10.617998275776237
31
0
0
LWPOLYLINE
5
229
100
AcDbEntity
8
0
100
AcDbPolyline
90
4
70
1
43
0.0
10
0.76901739378943113
20
11.536000145286321
10
0.76901739378943113
20
10.436000145286322
42
-0.99999999999999989
10
0.46901739378943125
20
10.436000145286322
10
0.4690173937894313
20
11.536000145286321
42
-0.99999999999999989
0
LINE
5
230
100
AcDbEntity
8
0
100
AcDbLine
10
0.61901739378943121
20
10.436000145286322
30
0
11
0.61901739378943121
21
11.536000145286321
31
0
0
LWPOLYLINE
5
231
100
AcDbEntity
8
0
100
AcDbPolyline
90
4
70
1
43
0.0
10
-0.47898260621056854
20
11.536000145286321
10
-0.47898260621056854
20
10.436000145286322
42
-0.99999999999999989
10
-0.77898260621056858
20
10.436000145286322
10
-0.77898260621056858
20
11.536000145286321
42
-0.99999999999999989
0
LINE
5
232
100
AcDbEntity
8
0
100
AcDbLine
10
-0.62898260621056856
20
10.436000145286322
30
0
11
-0.62898260621056856
21
11.536000145286321
31
0
0
LWPOLYLINE
5
233
100
AcDbEntity
8
0
100
AcDbPolyline
90
4
70
1
43
0.0
10
-1.1029826062105685
20
10.617998275776237
10
-1.1029826062105685
20
9.5179982757762378
42
-0.99999999999999989
10
-1.4029826062105684
20
9.5179982757762378
10
-1.4029826062105684
20
10.617998275776237
42
-0.99999999999999989
0
LINE
5
234
100
AcDbEntity
8
0
100
AcDbLine
10
-1.2529826062105685
20
9.5179982757762378
30
0
11
-1.2529826062105685
21
10.617998275776237
31
0
0
LINE
5
235
100
AcDbEntity
8
0
100
AcDbLine
10
-1.8769826062105686
20
10.436000145286322
30
0
11
-1.8769826062105686
21
11.536000145286321
31
0
0
LINE
5
236
100
AcDbEntity
8
0
100
AcDbLine
10
2.4910173937894315
20
-6.9971128353348728
30
0
11
2.4910173937894315
21
-7.7331128353348726
31
0
0
LWPOLYLINE
5
237
100
AcDbEntity
8
0
100
AcDbPolyline
90
4
70
1
43
0.0
10
2.3410173937894316
20
-8.8331128353348731
10
2.3410173937894316
20
-7.7331128353348726
42
-0.99999999999999989
10
2.6410173937894315
20
-7.7331128353348726
10
2.6410173937894315
20
-8.8331128353348731
42
-0.99999999999999989
0
LINE
5
238
100
AcDbEntity
8
0
100
AcDbLine
10
2.4910173937894315
20
-7.7331128353348726
30
0
11
2.4910173937894315
21
-8.8331128353348731
31
0
0
LWPOLYLINE
5
239
100
AcDbEntity
8
0
100
AcDbPolyline
90
4
70
1
43
0.0
10
1.0930173937894314
20
-10.668001724223762
10
1.0930173937894314
20
-9.5680017242237625
42
-0.99999999999999989
10
1.3930173937894312
20
-9.5680017242237625
10
1.3930173937894312
20
-10.668001724223762
42
-0.99999999999999989
0
LINE
5
240
100
AcDbEntity
8
0
100
AcDbLine
10
1.2430173937894313
20
-9.5680017242237625
30
0
11
1.2430173937894313
21
-10.668001724223762
31
0
0
LWPOLYLINE
5
241
100
AcDbEntity
8
0
100
AcDbPolyline
90
4
70
1
43
0.0
10
0.46901739378943119
20
-11.585003593733846
10
0.46901739378943119
20
-10.485003593733847
42
-0.99999999999999989
10
0.76901739378943124
20
-10.485003593733847
10
0.76901739378943124
20
-11.585003593733846
42
-0.99999999999999989
0
LINE
5
242
100
AcDbEntity
8
0
100
AcDbLine
10
0.61901739378943121
20
-10.485003593733847
30
0
11
0.61901739378943121
21
-11.585003593733846
31
0
0
LWPOLYLINE
5
243
100
AcDbEntity
8
0
100
AcDbPolyline
90
4
70
1
43
0.0
10
-0.15498260621056845
20
-10.668001724223762
10
-0.15498260621056845
20
-9.5680017242237625
42
-0.99999999999999989
10
0.14501739378943154
20
-9.5680017242237625
10
0.14501739378943154
20
-10.668001724223762
42
-0.99999999999999989
0
LINE
5
244
100
AcDbEntity
8
0
100
AcDbLine
10
-0.0049826062105684521
20
-9.5680017242237625
30
0
11
-0.0049826062105684521
21
-10.668001724223762
31
0
0
LWPOLYLINE
5
245
100
AcDbEntity
8
0
100
AcDbPolyline
90
4
70
1
43
0.0
10
-0.77898260621056858
20
-11.585003593733846
10
-0.77898260621056858
20
-10.485003593733847
42
-0.99999999999999989
10
-0.47898260621056854
20
-10.485003593733847
10
-0.47898260621056854
20
-11.585003593733846
42
-0.99999999999999989
0
LINE
5
246
100
AcDbEntity
8
0
100
AcDbLine
10
-0.62898260621056856
20
-10.485003593733847
30
0
11
-0.62898260621056856
21
-11.585003593733846
31
0
0
LWPOLYLINE
5
247
100
AcDbEntity
8
0
100
AcDbPolyline
90
4
70
1
43
0.0
10
-1.4029826062105684
20
-10.668001724223762
10
-1.4029826062105684
20
-9.5680017242237625
42
-0.99999999999999989
10
-1.1029826062105685
20
-9.5680017242237625
10
-1.1029826062105685
20
-10.668001724223762
42
-0.99999999999999989
0
LINE
5
248
100
AcDbEntity
8
0
100
AcDbLine
10
-1.2529826062105685
20
-9.5680017242237625
30
0
11
-1.2529826062105685
21
-10.668001724223762
31
0
0
LWPOLYLINE
5
249
100
AcDbEntity
8
0
100
AcDbPolyline
90
4
70
1
43
0.0
10
-2.6500000372529029
20
-10.668001724223762
10
-2.6500000372529029
20
-9.5680017242237625
42
-0.99999999999999989
10
-2.3500000372529031
20
-9.5680017242237625
10
-2.3500000372529031
20
-10.668001724223762
42
-0.99999999999999989
0
LINE
5
250
100
AcDbEntity
8
0
100
AcDbLine
10
-2.500000037252903
20
-9.5680017242237625
30
0
11
-2.500000037252903
21
-10.668001724223762
31
0
0
LINE
5
251
100
AcDbEntity
8
0
100
AcDbLine
10
2.4910173937894315
20
-8.8331128353348731
30
0
11
2.4910173937894315
21
-9.5691128353348738
31
0
0
LWPOLYLINE
5
252
100
AcDbEntity
8
0
100
AcDbPolyline
90
4
70
1
43
0.0
10
-2.6500000372529029
20
-11.800000175833702
10
-2.6500000372529029
20
-11.404001724223763
42
-0.99999999999999989
10
-2.3500000372529031
20
-11.404001724223763
10
-2.3500000372529031
20
-11.800000175833702
42
-0.99999999999999989
0
LINE
5
253
100
AcDbEntity
8
0
100
AcDbLine
10
-2.500000037252903
20
-11.404001724223763
30
0
11
-2.500000037252903
21
-11.800000175833702
31
0
0
LWPOLYLINE
5
254
100
AcDbEntity
8
0
100
AcDbPolyline
90
4
70
1
43
0.0
10
-2.0269826062105682
20
-12.400000184774399
10
-2.0269826062105682
20
-10.485003593733847
42
-0.99999999999999989
10
-1.7269826062105686
20
-10.485003593733847
10
-1.7269826062105689
20
-12.400000184774399
42
-0.99999999999999989
0
LINE
5
255
100
AcDbEntity
8
0
100
AcDbLine
10
-1.8769826062105686
20
-10.485003593733847
30
0
11
-1.8769826062105686
21
-12.400000184774399
31
0
0
LWPOLYLINE
5
256
100
AcDbEntity
8
0
100
AcDbPolyline
90
4
70
1
43
0.0
10
-1.4029826062105684
20
-12.804001724223763
10
-1.4029826062105684
20
-11.404001724223763
42
-0.99999999999999989
10
-1.1029826062105685
20
-11.404001724223763
10
-1.1029826062105685
20
-12.804001724223763
42
-0.99999999999999989
0
LINE
5
257
100
AcDbEntity
8
0
100
AcDbLine
10
-1.2529826062105685
20
-11.404001724223763
30
0
11
-1.2529826062105685
21
-12.804001724223763
31
0
0
LWPOLYLINE
5
258
100
AcDbEntity
8
0
100
AcDbPolyline
90
4
70
1
43
0.0
10
-0.77898260621056858
20
-13.000000193715096
10
-0.77898260621056858
20
-12.321003593733847
42
-0.99999999999999989
10
-0.47898260621056854
20
-12.321003593733847
10
-0.47898260621056854
20
-13.000000193715096
42
-0.99999999999999989
0
LINE
5
259
100
AcDbEntity
8
0
100
AcDbLine
10
-0.62898260621056856
20
-12.321003593733847
30
0
11
-0.62898260621056856
21
-13.000000193715096
31
0
0
LWPOLYLINE
5
260
100
AcDbEntity
8
0
100
AcDbPolyline
90
4
70
1
43
0.0
10
-0.15498260621056845
20
-13.054426865361691
10
-0.15498260621056845
20
-11.404001724223763
42
-0.99999999999999989
10
0.14501739378943154
20
-11.404001724223763
10
0.14501739378943154
20
-13.054426865361691
42
-0.99999999999999989
0
LINE
5
261
100
AcDbEntity
8
0
100
AcDbLine
10
-0.0049826062105684521
20
-11.404001724223763
30
0
11
-0.0049826062105684521
21
-13.054426865361691
31
0
0
LWPOLYLINE
5
262
100
AcDbEntity
8
0
100
AcDbPolyline
90
4
70
1
43
0.0
10
0.4690173937894313
20
-13.000000193715096
10
0.4690173937894313
20
-12.321003593733847
42
-0.99999999999999989
10
0.76901739378943113
20
-12.321003593733847
10
0.76901739378943113
20
-13.000000193715096
42
-0.99999999999999989
0
LINE
5
263
100
AcDbEntity
8
0
100
AcDbLine
10
0.61901739378943121
20
-12.321003593733847
30
0
11
0.61901739378943121
21
-13.000000193715096
31
0
0
LWPOLYLINE
5
264
100
AcDbEntity
8
0
100
AcDbPolyline
90
4
70
1
43
0.0
10
1.0930173937894314
20
-12.754733887943409
10
1.0930173937894314
20
-11.404001724223763
42
-0.99999999999999989
10
1.3930173937894312
20
-11.404001724223763
10
1.3930173937894312
20
-12.754733887943409
42
-0.99999999999999989
0
LINE
5
265
100
AcDbEntity
8
0
100
AcDbLine
10
1.2430173937894313
20
-11.404001724223763
30
0
11
1.2430173937894313
21
-12.754733887943409
31
0
0
LWPOLYLINE
5
266
100
AcDbEntity
8
0
100
AcDbPolyline
90
4
70
1
43
0.0
10
2.3410173937894316
20
-10.669112835334873
10
2.3410173937894316
20
-9.5691128353348738
42
-0.99999999999999989
10
2.6410173937894315
20
-9.5691128353348738
10
2.6410173937894315
20
-10.669112835334873
42
-0.99999999999999989
0
LINE
5
267
100
AcDbEntity
8
0
100
AcDbLine
10
2.4910173937894315
20
-9.5691128353348738
30
0
11
2.4910173937894315
21
-10.669112835334873
31
0
0
LWPOLYLINE
5
268
100
AcDbEntity
8
0
100
AcDbPolyline
90
4
70
1
43
0.0
10
2.3410173937894316
20
-11.800000175833702
10
2.3410173937894316
20
-11.405112835334874
42
-0.99999999999999989
10
2.6410173937894315
20
-11.405112835334874
10
2.6410173937894315
20
-11.800000175833702
42
-0.99999999999999989
0
LINE
5
269
100
AcDbEntity
8
0
100
AcDbLine
10
2.4910173937894315
20
-11.405112835334874
30
0
11
2.4910173937894315
21
-11.800000175833702
31
0
0
LWPOLYLINE
5
270
100
AcDbEntity
8
0
100
AcDbPolyline
90
4
70
1
43
0.0
10
1.7170173937894315
20
-12.400000184774399
10
1.7170173937894315
20
-10.485003593733847
42
-0.99999999999999989
10
2.0170173937894313
20
-10.485003593733847
10
2.0170173937894313
20
-12.400000184774399
42
-0.99999999999999989
0
LINE
5
271
100
AcDbEntity
8
0
100
AcDbLine
10
1.8670173937894314
20
-10.485003593733847
30
0
11
1.8670173937894314
21
-12.400000184774399
31
0
0
LWPOLYLINE
5
272
100
AcDbEntity
8
0
100
AcDbPolyline
90
4
70
1
43
0.0
10
2.6410173937894315
20
11.800000175833702
10
2.6410173937894315
20
11.353998275776238
42
-0.99999999999999989
10
2.3410173937894316
20
11.353998275776238
10
2.3410173937894316
20
11.800000175833702
42
-0.99999999999999989
0
LINE
5
273
100
AcDbEntity
8
0
100
AcDbLine
10
2.4910173937894315
20
11.353998275776238
30
0
11
2.4910173937894315
21
11.800000175833702
31
0
0
LWPOLYLINE
5
274
100
AcDbEntity
8
0
100
AcDbPolyline
90
4
70
1
43
0.0
10
2.0170173937894313
20
12.400000184774399
10
2.0170173937894313
20
10.436000145286322
42
-0.99999999999999989
10
1.7170173937894315
20
10.436000145286322
10
1.7170173937894315
20
12.400000184774399
42
-0.99999999999999989
0
LINE
5
275
100
AcDbEntity
8
0
100
AcDbLine
10
1.8670173937894314
20
10.436000145286322
30
0
11
1.8670173937894314
21
12.400000184774399
31
0
0
LWPOLYLINE
5
276
100
AcDbEntity
8
0
100
AcDbPolyline
90
4
70
1
43
0.0
10
1.3930173937894312
20
12.800000190734863
10
1.3930173937894312
20
11.353998275776238
42
-0.99999999999999989
10
1.0930173937894314
20
11.353998275776238
10
1.0930173937894314
20
12.800000190734863
42
-0.99999999999999989
0
LINE
5
277
100
AcDbEntity
8
0
100
AcDbLine
10
1.2430173937894313
20
11.353998275776238
30
0
11
1.2430173937894313
21
12.800000190734863
31
0
0
LWPOLYLINE
5
278
100
AcDbEntity
8
0
100
AcDbPolyline
90
4
70
1
43
0.0
10
0.76901739378943113
20
13.000000193715096
10
0.76901739378943113
20
12.272000145286322
42
-0.99999999999999989
10
0.46901739378943125
20
12.272000145286322
10
0.4690173937894313
20
13.000000193715096
42
-0.99999999999999989
0
LINE
5
279
100
AcDbEntity
8
0
100
AcDbLine
10
0.61901739378943121
20
12.272000145286322
30
0
11
0.61901739378943121
21
13.000000193715096
31
0
0
LWPOLYLINE
5
280
100
AcDbEntity
8
0
100
AcDbPolyline
90
4
70
1
43
0.0
10
-2.3509826062105685
20
11.750000175088644
10
-2.3509826062105685
20
11.355109386887349
42
-0.99999999999999989
10
-2.6509826062105684
20
11.355109386887349
10
-2.6509826062105684
20
11.750000175088644
42
-0.99999999999999989
0
LINE
5
281
100
AcDbEntity
8
0
100
AcDbLine
10
-2.5009826062105684
20
11.355109386887349
30
0
11
-2.5009826062105684
21
11.750000175088644
31
0
0
LWPOLYLINE
5
282
100
AcDbEntity
8
0
100
AcDbPolyline
90
4
70
1
43
0.0
10
-1.7269826062105684
20
12.400000184774399
10
-1.7269826062105684
20
10.436000145286322
42
-0.99999999999999989
10
-2.0269826062105687
20
10.436000145286322
10
-2.0269826062105687
20
12.400000184774399
42
-0.99999999999999989
0
LINE
5
283
100
AcDbEntity
8
0
100
AcDbLine
10
-1.8769826062105686
20
10.436000145286322
30
0
11
-1.8769826062105686
21
12.400000184774399
31
0
0
LWPOLYLINE
5
284
100
AcDbEntity
8
0
100
AcDbPolyline
90
4
70
1
43
0.0
10
-1.1029826062105685
20
12.800000190734863
10
-1.1029826062105685
20
11.353998275776238
42
-0.99999999999999989
10
-1.4029826062105684
20
11.353998275776238
10
-1.4029826062105684
20
12.800000190734863
42
-0.99999999999999989
0
LINE
5
285
100
AcDbEntity
8
0
100
AcDbLine
10
-1.2529826062105685
20
11.353998275776238
30
0
11
-1.2529826062105685
21
12.800000190734863
31
0
0
LWPOLYLINE
5
286
100
AcDbEntity
8
0
100
AcDbPolyline
90
4
70
1
43
0.0
10
-0.47898260621056854
20
13.000000193715096
10
-0.47898260621056854
20
12.272000145286322
42
-0.99999999999999989
10
-0.77898260621056858
20
12.272000145286322
10
-0.77898260621056858
20
13.000000193715096
42
-0.99999999999999989
0
LINE
5
287
100
AcDbEntity
8
0
100
AcDbLine
10
-0.62898260621056856
20
12.272000145286322
30
0
11
-0.62898260621056856
21
13.000000193715096
31
0
0
SPLINE
5
288
100
AcDbEntity
8
0
100
AcDbSpline
70
4
71
3
72
8
73
4
74
0
42
0.000000001
43
0.0000000001
44
0.0000000001
40
0
40
0
40
0
40
0
40
1
40
1
40
1
40
1
41
1
41
1
41
1
41
1
10
-0.424446052291511
20
11.684799710031211
30
0
10
-0.42327209596884097
20
11.687892944188773
30
0
10
-0.41879534569632854
20
11.689507416864096
30
0
10
-0.4132494155908808
20
11.688838307996452
30
0
0
SPLINE
5
289
100
AcDbEntity
8
0
100
AcDbSpline
70
4
71
3
72
8
73
4
74
0
42
0.000000001
43
0.0000000001
44
0.0000000001
40
0
40
0
40
0
40
0
40
1
40
1
40
1
40
1
41
1
41
1
41
1
41
1
10
-0.4132494155908808
20
11.688838307996452
30
0
10
-0.40668668935549107
20
11.688047731252372
30
0
10
-0.40391967983496035
20
11.687407181688011
30
0
10
-0.2867074075604662
20
11.659539405961691
30
0
0
SPLINE
5
290
100
AcDbEntity
8
0
100
AcDbSpline
70
4
71
3
72
8
73
4
74
0
42
0.000000001
43
0.0000000001
44
0.0000000001
40
0
40
0
40
0
40
0
40
1
40
1
40
1
40
1
41
1
41
1
41
1
41
1
10
-0.2867074075604662
20
11.659539405961691
30
0
10
-0.22751667093288744
20
11.645466209741294
30
0
10
-0.17475294026386579
20
11.633017042298972
30
0
10
-0.16945228270542467
20
11.631871654363334
30
0
0
SPLINE
5
291
100
AcDbEntity
8
0
100
AcDbSpline
70
4
71
3
72
8
73
4
74
0
42
0.000000001
43
0.0000000001
44
0.0000000001
40
0
40
0
40
0
40
0
40
1
40
1
40
1
40
1
41
1
41
1
41
1
41
1
10
-0.16945228270542467
20
11.631871654363334
30
0
10
-0.13882224825870831
20
11.625256542154014
30
0
10
-0.13007830523502667
20
11.625735182996451
30
0
10
-0.12355606526386581
20
11.634386253781974
30
0
0
SPLINE
5
292
100
AcDbEntity
8
0
100
AcDbSpline
70
4
71
3
72
8
73
4
74
0
42
0.000000001
43
0.0000000001
44
0.0000000001
40
0
40
0
40
0
40
0
40
1
40
1
40
1
40
1
41
1
41
1
41
1
41
1
10
-0.12355606526386581
20
11.634386253781974
30
0
10
-0.11979608401310288
20
11.639370215554893
30
0
10
-0.12191299695026714
20
11.627802098985374
30
0
10
-0.099131575002787908
20
11.767862445207298
30
0
0
SPLINE
5
293
100
AcDbEntity
8
0
100
AcDbSpline
70
4
71
3
72
8
73
4
74
0
42
0.000000001
43
0.0000000001
44
0.0000000001
40
0
40
0
40
0
40
0
40
1
40
1
40
1
40
1
41
1
41
1
41
1
41
1
10
-0.099131575002787908
20
11.767862445207298
30
0
10
-0.086761000146983402
20
11.843907658143699
30
0
10
-0.083577255525706551
20
11.859857265992821
30
0
10
-0.079814876165507587
20
11.864643601747215
30
0
0
SPLINE
5
294
100
AcDbEntity
8
0
100
AcDbSpline
70
4
71
3
72
8
73
4
74
0
42
0.000000001
43
0.0000000001
44
0.0000000001
40
0
40
0
40
0
40
0
40
1
40
1
40
1
40
1
41
1
41
1
41
1
41
1
10
-0.079814876165507587
20
11.864643601747215
30
0
10
-0.076123931398509259
20
11.869334667154014
30
0
10
-0.073664125146983395
20
11.862836226602257
30
0
10
-0.072761636629222193
20
11.846019883866965
30
0
0
SPLINE
5
295
100
AcDbEntity
8
0
100
AcDbSpline
70
4
71
3
72
8
73
4
74
0
42
0.000000001
43
0.0000000001
44
0.0000000001
40
0
40
0
40
0
40
0
40
1
40
1
40
1
40
1
41
1
41
1
41
1
41
1
10
-0.072761636629222193
20
11.846019883866965
30
0
10
-0.071328112211344996
20
11.819276022096336
30
0
10
-0.074876187791941939
20
11.619686787648856
30
0
10
-0.077524136629222251
20
11.57809590334481
30
0
0
SPLINE
5
296
100
AcDbEntity
8
0
100
AcDbSpline
70
4
71
3
72
8
73
4
74
0
42
0.000000001
43
0.0000000001
44
0.0000000001
40
0
40
0
40
0
40
0
40
1
40
1
40
1
40
1
41
1
41
1
41
1
41
1
10
-0.077524136629222251
20
11.57809590334481
30
0
10
-0.079545815553782762
20
11.546365718026816
30
0
10
-0.080855473985789628
20
11.545834718461691
30
0
10
-0.12648499259006818
20
11.55831248154229
30
0
0
SPLINE
5
297
100
AcDbEntity
8
0
100
AcDbSpline
70
4
71
3
72
8
73
4
74
0
42
0.000000001
43
0.0000000001
44
0.0000000001
40
0
40
0
40
0
40
0
40
1
40
1
40
1
40
1
41
1
41
1
41
1
41
1
10
-0.12648499259006818
20
11.55831248154229
30
0
10
-0.22562596148502673
20
11.585418239827812
30
0
10
-0.23894429825794544
20
11.587668502183616
30
0
10
-0.23891334084522572
20
11.57730532660073
30
0
0
SPLINE
5
298
100
AcDbEntity
8
0
100
AcDbSpline
70
4
71
3
72
8
73
4
74
0
42
0.000000001
43
0.0000000001
44
0.0000000001
40
0
40
0
40
0
40
0
40
1
40
1
40
1
40
1
41
1
41
1
41
1
41
1
10
-0.23891334084522572
20
11.57730532660073
30
0
10
-0.23888952325832691
20
11.56896619171685
30
0
10
-0.21745113343250599
20
11.545279883142173
30
0
10
-0.081958022966502564
20
11.403876504798591
30
0
0
SPLINE
5
299
100
AcDbEntity
8
0
100
AcDbSpline
70
4
71
3
72
8
73
4
74
0
42
0.000000001
43
0.0000000001
44
0.0000000001
40
0
40
0
40
0
40
0
40
1
40
1
40
1
40
1
41
1
41
1
41
1
41
1
10
-0.081958022966502564
20
11.403876504798591
30
0
10
-0.043917539682505946
20
11.364176293607413
30
0
10
-0.041436295786021593
20
11.36220462979859
30
0
10
-0.036152279653666852
20
11.367488609595954
30
0
0
SPLINE
5
300
100
AcDbEntity
8
0
100
AcDbSpline
70
4
71
3
72
8
73
4
74
0
42
0.000000001
43
0.0000000001
44
0.0000000001
40
0
40
0
40
0
40
0
40
1
40
1
40
1
40
1
41
1
41
1
41
1
41
1
10
-0.036152279653666852
20
11.367488609595954
30
0
10
-0.030787345495341678
20
11.37285358008927
30
0
10
-0.029796744623301841
20
11.40467184142655
30
0
10
-0.028506089391825973
20
11.613336012502371
30
0
0
SPLINE
5
301
100
AcDbEntity
8
0
100
AcDbSpline
70
4
71
3
72
8
73
4
74
0
42
0.000000001
43
0.0000000001
44
0.0000000001
40
0
40
0
40
0
40
0
40
1
40
1
40
1
40
1
41
1
41
1
41
1
41
1
10
-0.028506089391825973
20
11.613336012502371
30
0
10
-0.027153555669902074
20
11.832122912355125
30
0
10
-0.02618199433338475
20
11.865812789102256
30
0
10
-0.021064683141825913
20
11.871337306543051
30
0
0
SPLINE
5
302
100
AcDbEntity
8
0
100
AcDbSpline
70
4
71
3
72
8
73
4
74
0
42
0.000000001
43
0.0000000001
44
0.0000000001
40
0
40
0
40
0
40
0
40
1
40
1
40
1
40
1
41
1
41
1
41
1
41
1
10
-0.021064683141825913
20
11.871337306543051
30
0
10
-0.015873575582621813
20
11.876937982125938
30
0
10
-0.013287505235789532
20
11.874816309304892
30
0
10
0.03002503996837308
20
11.829382091279685
30
0
0
SPLINE
5
303
100
AcDbEntity
8
0
100
AcDbSpline
70
4
71
3
72
8
73
4
74
0
42
0.000000001
43
0.0000000001
44
0.0000000001
40
0
40
0
40
0
40
0
40
1
40
1
40
1
40
1
41
1
41
1
41
1
41
1
10
0.03002503996837308
20
11.829382091279685
30
0
10
0.26466148110377957
20
11.583248931832969
30
0
10
0.40710075188625033
20
11.432220523257911
30
0
10
0.41341344796168972
20
11.422874109740912
30
0
0
SPLINE
5
304
100
AcDbEntity
8
0
100
AcDbSpline
70
4
71
3
72
8
73
4
74
0
42
0.000000001
43
0.0000000001
44
0.0000000001
40
0
40
0
40
0
40
0
40
1
40
1
40
1
40
1
41
1
41
1
41
1
41
1
10
0.41341344796168972
20
11.422874109740912
30
0
10
0.41882837906825715
20
11.41485644869393
30
0
10
0.41706627732265161
20
11.410546373840033
30
0
10
0.40837233124721223
20
11.410546373840033
30
0
0
SPLINE
5
305
100
AcDbEntity
8
0
100
AcDbSpline
70
4
71
3
72
8
73
4
74
0
42
0.000000001
43
0.0000000001
44
0.0000000001
40
0
40
0
40
0
40
0
40
1
40
1
40
1
40
1
41
1
41
1
41
1
41
1
10
0.40837233124721223
20
11.410546373840033
30
0
10
0.40268830319392851
20
11.410546373840033
30
0
10
0.39546832238185575
20
11.412334691281973
30
0
10
0.31637751046168977
20
11.433327795787513
30
0
0
SPLINE
5
306
100
AcDbEntity
8
0
100
AcDbSpline
70
4
71
3
72
8
73
4
74
0
42
0.000000001
43
0.0000000001
44
0.0000000001
40
0
40
0
40
0
40
0
40
1
40
1
40
1
40
1
41
1
41
1
41
1
41
1
10
0.31637751046168977
20
11.433327795787513
30
0
10
0.17165226002681416
20
11.471742111631094
30
0
10
0.13974588633525536
20
11.479712155671775
30
0
10
0.13038759127605121
20
11.479793110032738
30
0
0
SPLINE
5
307
100
AcDbEntity
8
0
100
AcDbSpline
70
4
71
3
72
8
73
4
74
0
42
0.000000001
43
0.0000000001
44
0.0000000001
40
0
40
0
40
0
40
0
40
1
40
1
40
1
40
1
41
1
41
1
41
1
41
1
10
0.13038759127605121
20
11.479793110032738
30
0
10
0.12233655653941794
20
11.479862182851493
30
0
10
0.11795270348537129
20
11.476530809159934
30
0
10
0.11535951148021389
20
11.468372658868491
30
0
0
SPLINE
5
308
100
AcDbEntity
8
0
100
AcDbSpline
70
4
71
3
72
8
73
4
74
0
42
0.000000001
43
0.0000000001
44
0.0000000001
40
0
40
0
40
0
40
0
40
1
40
1
40
1
40
1
41
1
41
1
41
1
41
1
10
0.11535951148021389
20
11.468372658868491
30
0
10
0.1144951020334975
20
11.465650877328574
30
0
10
0.099152724561573591
20
11.373094081397712
30
0
10
0.089934900579334787
20
11.314974900003135
30
0
0
SPLINE
5
309
100
AcDbEntity
8
0
100
AcDbSpline
70
4
71
3
72
8
73
4
74
0
42
0.000000001
43
0.0000000001
44
0.0000000001
40
0
40
0
40
0
40
0
40
1
40
1
40
1
40
1
41
1
41
1
41
1
41
1
10
0.089934900579334787
20
11.314974900003135
30
0
10
0.079235953340412724
20
11.247523621078193
30
0
10
0.073487612352253484
20
11.228449812575041
30
0
10
0.069320424852253482
20
11.246571117444693
30
0
0
SPLINE
5
310
100
AcDbEntity
8
0
100
AcDbSpline
70
4
71
3
72
8
73
4
74
0
42
0.000000001
43
0.0000000001
44
0.0000000001
40
0
40
0
40
0
40
0
40
1
40
1
40
1
40
1
41
1
41
1
41
1
41
1
10
0.069320424852253482
20
11.246571117444693
30
0
10
0.068072644910694702
20
11.251993224712074
30
0
10
0.068025009736897235
20
11.474409136338888
30
0
10
0.069260908136250243
20
11.513394947095572
30
0
0
SPLINE
5
311
100
AcDbEntity
8
0
100
AcDbSpline
70
4
71
3
72
8
73
4
74
0
42
0.000000001
43
0.0000000001
44
0.0000000001
40
0
40
0
40
0
40
0
40
1
40
1
40
1
40
1
41
1
41
1
41
1
41
1
10
0.069260908136250243
20
11.513394947095572
30
0
10
0.070096721944691354
20
11.539664891572654
30
0
10
0.070622961625935232
20
11.541958029218375
30
0
10
0.076614202031971612
20
11.545322758432089
30
0
0
SPLINE
5
312
100
AcDbEntity
8
0
100
AcDbSpline
70
4
71
3
72
8
73
4
74
0
42
0.000000001
43
0.0000000001
44
0.0000000001
40
0
40
0
40
0
40
0
40
1
40
1
40
1
40
1
41
1
41
1
41
1
41
1
10
0.076614202031971612
20
11.545322758432089
30
0
10
0.082567327031971616
20
11.548670773549736
30
0
10
0.087067888078571964
20
11.547982588811577
30
0
10
0.17066881714809107
20
11.530980465264976
30
0
0
SPLINE
5
313
100
AcDbEntity
8
0
100
AcDbSpline
70
4
71
3
72
8
73
4
74
0
42
0.000000001
43
0.0000000001
44
0.0000000001
40
0
40
0
40
0
40
0
40
1
40
1
40
1
40
1
41
1
41
1
41
1
41
1
10
0.17066881714809107
20
11.530980465264976
30
0
10
0.22347300683009791
20
11.520241040845573
30
0
10
0.2307596260164993
20
11.519295677037894
30
0
10
0.23421006947505646
20
11.522729442735374
30
0
0
SPLINE
5
314
100
AcDbEntity
8
0
100
AcDbSpline
70
4
71
3
72
8
73
4
74
0
42
0.000000001
43
0.0000000001
44
0.0000000001
40
0
40
0
40
0
40
0
40
1
40
1
40
1
40
1
41
1
41
1
41
1
41
1
10
0.23421006947505646
20
11.522729442735374
30
0
10
0.23844869156825704
20
11.526949025293051
30
0
10
0.23566027165401143
20
11.53206157660073
30
0
10
0.2196201896761672
20
11.549487547822654
30
0
0
SPLINE
5
315
100
AcDbEntity
8
0
100
AcDbSpline
70
4
71
3
72
8
73
4
74
0
42
0.000000001
43
0.0000000001
44
0.0000000001
40
0
40
0
40
0
40
0
40
1
40
1
40
1
40
1
41
1
41
1
41
1
41
1
10
0.2196201896761672
20
11.549487547822654
30
0
10
0.1665230672930495
20
11.607163823838889
30
0
10
0.047453409299732907
20
11.728893312211692
30
0
10
0.037842695054890352
20
11.735327439828573
30
0
0
SPLINE
5
316
100
AcDbEntity
8
0
100
AcDbSpline
70
4
71
3
72
8
73
4
74
0
42
0.000000001
43
0.0000000001
44
0.0000000001
40
0
40
0
40
0
40
0
40
1
40
1
40
1
40
1
41
1
41
1
41
1
41
1
10
0.037842695054890352
20
11.735327439828573
30
0
10
0.032506283864857377
20
11.73889695305413
30
0
10
0.028365293893696519
20
11.737794404073417
30
0
10
0.025383971509815861
20
11.732010382123649
30
0
0
SPLINE
5
317
100
AcDbEntity
8
0
100
AcDbSpline
70
4
71
3
72
8
73
4
74
0
42
0.000000001
43
0.0000000001
44
0.0000000001
40
0
40
0
40
0
40
0
40
1
40
1
40
1
40
1
41
1
41
1
41
1
41
1
10
0.025383971509815861
20
11.732010382123649
30
0
10
0.022650308427693056
20
11.726702566571891
30
0
10
0.021626352033497498
20
11.690774272676169
30
0
10
0.020495280084492362
20
11.560329400582969
30
0
0
SPLINE
5
318
100
AcDbEntity
8
0
100
AcDbSpline
70
4
71
3
72
8
73
4
74
0
42
0.000000001
43
0.0000000001
44
0.0000000001
40
0
40
0
40
0
40
0
40
1
40
1
40
1
40
1
41
1
41
1
41
1
41
1
10
0.020495280084492362
20
11.560329400582969
30
0
10
0.01903079825389542
20
11.391139182706535
30
0
10
0.016523356828571867
20
11.251395532270132
30
0
10
0.014827893457295016
20
11.244301788302122
30
0
0
SPLINE
5
319
100
AcDbEntity
8
0
100
AcDbSpline
70
4
71
3
72
8
73
4
74
0
42
0.000000001
43
0.0000000001
44
0.0000000001
40
0
40
0
40
0
40
0
40
1
40
1
40
1
40
1
41
1
41
1
41
1
41
1
10
0.014827893457295016
20
11.244301788302122
30
0
10
0.013058633718372903
20
11.236905628200233
30
0
10
0.0084056837176099686
20
11.235145888229072
30
0
10
0.0019524802302137156
20
11.239429756470381
30
0
0
SPLINE
5
320
100
AcDbEntity
8
0
100
AcDbSpline
70
4
71
3
72
8
73
4
74
0
42
0.000000001
43
0.0000000001
44
0.0000000001
40
0
40
0
40
0
40
0
40
1
40
1
40
1
40
1
41
1
41
1
41
1
41
1
10
0.0019524802302137156
20
11.239429756470381
30
0
10
-0.002198029508708399
20
11.242184857197463
30
0
10
-0.14664706133854238
20
11.389031789537132
30
0
10
-0.22245651468288746
20
11.467565404363334
30
0
0
SPLINE
5
321
100
AcDbEntity
8
0
100
AcDbSpline
70
4
71
3
72
8
73
4
74
0
42
0.000000001
43
0.0000000001
44
0.0000000001
40
0
40
0
40
0
40
0
40
1
40
1
40
1
40
1
41
1
41
1
41
1
41
1
10
-0.22245651468288746
20
11.467565404363334
30
0
10
-0.24012540349018421
20
11.485867702909172
30
0
10
-0.26705019535076469
20
11.513692603345573
30
0
10
-0.28229019898426377
20
11.529396950002372
30
0
0
SPLINE
5
322
100
AcDbEntity
8
0
100
AcDbSpline
70
4
71
3
72
8
73
4
74
0
42
0.000000001
43
0.0000000001
44
0.0000000001
40
0
40
0
40
0
40
0
40
1
40
1
40
1
40
1
41
1
41
1
41
1
41
1
10
-0.28229019898426377
20
11.529396950002372
30
0
10
-0.31227250770580617
20
11.560293646951378
30
0
10
-0.36469334506046619
20
11.614602831979454
30
0
10
-0.39432086075794548
20
11.645459088082969
30
0
0
SPLINE
5
323
100
AcDbEntity
8
0
100
AcDbSpline
70
4
71
3
72
8
73
4
74
0
42
0.000000001
43
0.0000000001
44
0.0000000001
40
0
40
0
40
0
40
0
40
1
40
1
40
1
40
1
41
1
41
1
41
1
41
1
10
-0.39432086075794548
20
11.645459088082969
30
0
10
-0.42512470817816106
20
11.677544048257529
30
0
10
-0.42651535957705822
20
11.679358545060813
30
0
10
-0.424446052291511
20
11.684799710031211
30
0
0
SPLINE
5
324
100
AcDbEntity
8
0
100
AcDbSpline
70
4
71
3
72
8
73
4
74
0
42
0.000000001
43
0.0000000001
44
0.0000000001
40
0
40
0
40
0
40
0
40
1
40
1
40
1
40
1
41
1
41
1
41
1
41
1
10
-0.42350545972239817
20
11.678089327474297
30
0
10
-0.42255057841789573
20
11.676160520787894
30
0
10
-0.41975737136852587
20
11.672364822240532
30
0
10
-0.41729754240763034
20
11.669657320352256
30
0
0
SPLINE
5
325
100
AcDbEntity
8
0
100
AcDbSpline
70
4
71
3
72
8
73
4
74
0
42
0.000000001
43
0.0000000001
44
0.0000000001
40
0
40
0
40
0
40
0
40
1
40
1
40
1
40
1
41
1
41
1
41
1
41
1
10
-0.41729754240763034
20
11.669657320352256
30
0
10
-0.40991328655731529
20
11.661525367589652
30
0
10
-0.33733039862167685
20
11.586118306108176
30
0
10
-0.28229019898426377
20
11.529396950002372
30
0
0
SPLINE
5
326
100
AcDbEntity
8
0
100
AcDbSpline
70
4
71
3
72
8
73
4
74
0
42
0.000000001
43
0.0000000001
44
0.0000000001
40
0
40
0
40
0
40
0
40
1
40
1
40
1
40
1
41
1
41
1
41
1
41
1
10
-0.28229019898426377
20
11.529396950002372
30
0
10
-0.26705019535076469
20
11.513692603345573
30
0
10
-0.24012540349018421
20
11.485867702909172
30
0
10
-0.22245651468288746
20
11.467565404363334
30
0
0
SPLINE
5
327
100
AcDbEntity
8
0
100
AcDbSpline
70
4
71
3
72
8
73
4
74
0
42
0.000000001
43
0.0000000001
44
0.0000000001
40
0
40
0
40
0
40
0
40
1
40
1
40
1
40
1
41
1
41
1
41
1
41
1
10
-0.22245651468288746
20
11.467565404363334
30
0
10
-0.14664706133854238
20
11.389031789537132
30
0
10
-0.002198029508708399
20
11.242184857197463
30
0
10
0.0019524802302137156
20
11.239429756470381
30
0
0
SPLINE
5
328
100
AcDbEntity
8
0
100
AcDbSpline
70
4
71
3
72
8
73
4
74
0
42
0.000000001
43
0.0000000001
44
0.0000000001
40
0
40
0
40
0
40
0
40
1
40
1
40
1
40
1
41
1
41
1
41
1
41
1
10
0.0019524802302137156
20
11.239429756470381
30
0
10
0.0084056837176099686
20
11.235145888229072
30
0
10
0.013058633718372903
20
11.236905628200233
30
0
10
0.014827893457295016
20
11.244301788302122
30
0
0
SPLINE
5
329
100
AcDbEntity
8
0
100
AcDbSpline
70
4
71
3
72
8
73
4
74
0
42
0.000000001
43
0.0000000001
44
0.0000000001
40
0
40
0
40
0
40
0
40
1
40
1
40
1
40
1
41
1
41
1
41
1
41
1
10
0.014827893457295016
20
11.244301788302122
30
0
10
0.016523356828571867
20
11.251395532270132
30
0
10
0.01903079825389542
20
11.391139182706535
30
0
10
0.020495280084492362
20
11.560329400582969
30
0
0
SPLINE
5
330
100
AcDbEntity
8
0
100
AcDbSpline
70
4
71
3
72
8
73
4
74
0
42
0.000000001
43
0.0000000001
44
0.0000000001
40
0
40
0
40
0
40
0
40
1
40
1
40
1
40
1
41
1
41
1
41
1
41
1
10
0.020495280084492362
20
11.560329400582969
30
0
10
0.021626352033497498
20
11.690774272676169
30
0
10
0.022650308427693056
20
11.726702566571891
30
0
10
0.025383971509815861
20
11.732010382123649
30
0
0
SPLINE
5
331
100
AcDbEntity
8
0
100
AcDbSpline
70
4
71
3
72
8
73
4
74
0
42
0.000000001
43
0.0000000001
44
0.0000000001
40
0
40
0
40
0
40
0
40
1
40
1
40
1
40
1
41
1
41
1
41
1
41
1
10
0.025383971509815861
20
11.732010382123649
30
0
10
0.028365293893696519
20
11.737794404073417
30
0
10
0.032506283864857377
20
11.73889695305413
30
0
10
0.037842695054890352
20
11.735327439828573
30
0
0
SPLINE
5
332
100
AcDbEntity
8
0
100
AcDbSpline
70
4
71
3
72
8
73
4
74
0
42
0.000000001
43
0.0000000001
44
0.0000000001
40
0
40
0
40
0
40
0
40
1
40
1
40
1
40
1
41
1
41
1
41
1
41
1
10
0.037842695054890352
20
11.735327439828573
30
0
10
0.047453409299732907
20
11.728893312211692
30
0
10
0.1665230672930495
20
11.607163823838889
30
0
10
0.2196201896761672
20
11.549487547822654
30
0
0
SPLINE
5
333
100
AcDbEntity
8
0
100
AcDbSpline
70
4
71
3
72
8
73
4
74
0
42
0.000000001
43
0.0000000001
44
0.0000000001
40
0
40
0
40
0
40
0
40
1
40
1
40
1
40
1
41
1
41
1
41
1
41
1
10
0.2196201896761672
20
11.549487547822654
30
0
10
0.23566027165401143
20
11.53206157660073
30
0
10
0.23844869156825704
20
11.526949025293051
30
0
10
0.23421006947505646
20
11.522729442735374
30
0
0
SPLINE
5
334
100
AcDbEntity
8
0
100
AcDbSpline
70
4
71
3
72
8
73
4
74
0
42
0.000000001
43
0.0000000001
44
0.0000000001
40
0
40
0
40
0
40
0
40
1
40
1
40
1
40
1
41
1
41
1
41
1
41
1
10
0.23421006947505646
20
11.522729442735374
30
0
10
0.2307596260164993
20
11.519295677037894
30
0
10
0.22347300683009791
20
11.520241040845573
30
0
10
0.17066881714809107
20
11.530980465264976
30
0
0
SPLINE
5
335
100
AcDbEntity
8
0
100
AcDbSpline
70
4
71
3
72
8
73
4
74
0
42
0.000000001
43
0.0000000001
44
0.0000000001
40
0
40
0
40
0
40
0
40
1
40
1
40
1
40
1
41
1
41
1
41
1
41
1
10
0.17066881714809107
20
11.530980465264976
30
0
10
0.087067888078571964
20
11.547982588811577
30
0
10
0.082567327031971616
20
11.548670773549736
30
0
10
0.076614202031971612
20
11.545322758432089
30
0
0
SPLINE
5
336
100
AcDbEntity
8
0
100
AcDbSpline
70
4
71
3
72
8
73
4
74
0
42
0.000000001
43
0.0000000001
44
0.0000000001
40
0
40
0
40
0
40
0
40
1
40
1
40
1
40
1
41
1
41
1
41
1
41
1
10
0.076614202031971612
20
11.545322758432089
30
0
10
0.070622961625935232
20
11.541958029218375
30
0
10
0.070096721944691354
20
11.539664891572654
30
0
10
0.069260908136250243
20
11.513394947095572
30
0
0
SPLINE
5
337
100
AcDbEntity
8
0
100
AcDbSpline
70
4
71
3
72
8
73
4
74
0
42
0.000000001
43
0.0000000001
44
0.0000000001
40
0
40
0
40
0
40
0
40
1
40
1
40
1
40
1
41
1
41
1
41
1
41
1
10
0.069260908136250243
20
11.513394947095572
30
0
10
0.068025009736897235
20
11.474409136338888
30
0
10
0.068072644910694702
20
11.251993224712074
30
0
10
0.069320424852253482
20
11.246571117444693
30
0
0
SPLINE
5
338
100
AcDbEntity
8
0
100
AcDbSpline
70
4
71
3
72
8
73
4
74
0
42
0.000000001
43
0.0000000001
44
0.0000000001
40
0
40
0
40
0
40
0
40
1
40
1
40
1
40
1
41
1
41
1
41
1
41
1
10
0.069320424852253482
20
11.246571117444693
30
0
10
0.073487612352253484
20
11.228449812575041
30
0
10
0.079235953340412724
20
11.247523621078193
30
0
10
0.089934900579334787
20
11.314974900003135
30
0
0
SPLINE
5
339
100
AcDbEntity
8
0
100
AcDbSpline
70
4
71
3
72
8
73
4
74
0
42
0.000000001
43
0.0000000001
44
0.0000000001
40
0
40
0
40
0
40
0
40
1
40
1
40
1
40
1
41
1
41
1
41
1
41
1
10
0.089934900579334787
20
11.314974900003135
30
0
10
0.099152724561573591
20
11.373094081397712
30
0
10
0.1144951020334975
20
11.465650877328574
30
0
10
0.11535951148021389
20
11.468372658868491
30
0
0
SPLINE
5
340
100
AcDbEntity
8
0
100
AcDbSpline
70
4
71
3
72
8
73
4
74
0
42
0.000000001
43
0.0000000001
44
0.0000000001
40
0
40
0
40
0
40
0
40
1
40
1
40
1
40
1
41
1
41
1
41
1
41
1
10
0.11535951148021389
20
11.468372658868491
30
0
10
0.11795270348537129
20
11.476530809159934
30
0
10
0.12233655653941794
20
11.479862182851493
30
0
10
0.13038759127605121
20
11.479793110032738
30
0
0
SPLINE
5
341
100
AcDbEntity
8
0
100
AcDbSpline
70
4
71
3
72
8
73
4
74
0
42
0.000000001
43
0.0000000001
44
0.0000000001
40
0
40
0
40
0
40
0
40
1
40
1
40
1
40
1
41
1
41
1
41
1
41
1
10
0.13038759127605121
20
11.479793110032738
30
0
10
0.13974588633525536
20
11.479712155671775
30
0
10
0.17165226002681416
20
11.471742111631094
30
0
10
0.31637751046168977
20
11.433327795787513
30
0
0
SPLINE
5
342
100
AcDbEntity
8
0
100
AcDbSpline
70
4
71
3
72
8
73
4
74
0
42
0.000000001
43
0.0000000001
44
0.0000000001
40
0
40
0
40
0
40
0
40
1
40
1
40
1
40
1
41
1
41
1
41
1
41
1
10
0.31637751046168977
20
11.433327795787513
30
0
10
0.39546832238185575
20
11.412334691281973
30
0
10
0.40268830319392851
20
11.410546373840033
30
0
10
0.40837233124721223
20
11.410546373840033
30
0
0
SPLINE
5
343
100
AcDbEntity
8
0
100
AcDbSpline
70
4
71
3
72
8
73
4
74
0
42
0.000000001
43
0.0000000001
44
0.0000000001
40
0
40
0
40
0
40
0
40
1
40
1
40
1
40
1
41
1
41
1
41
1
41
1
10
0.40837233124721223
20
11.410546373840033
30
0
10
0.41706627732265161
20
11.410546373840033
30
0
10
0.41882837906825715
20
11.41485644869393
30
0
10
0.41341344796168972
20
11.422874109740912
30
0
0
SPLINE
5
344
100
AcDbEntity
8
0
100
AcDbSpline
70
4
71
3
72
8
73
4
74
0
42
0.000000001
43
0.0000000001
44
0.0000000001
40
0
40
0
40
0
40
0
40
1
40
1
40
1
40
1
41
1
41
1
41
1
41
1
10
0.41341344796168972
20
11.422874109740912
30
0
10
0.40710075188625033
20
11.432220523257911
30
0
10
0.26466148110377957
20
11.583248931832969
30
0
10
0.03002503996837308
20
11.829382091279685
30
0
0
SPLINE
5
345
100
AcDbEntity
8
0
100
AcDbSpline
70
4
71
3
72
8
73
4
74
0
42
0.000000001
43
0.0000000001
44
0.0000000001
40
0
40
0
40
0
40
0
40
1
40
1
40
1
40
1
41
1
41
1
41
1
41
1
10
0.03002503996837308
20
11.829382091279685
30
0
10
-0.013287505235789532
20
11.874816309304892
30
0
10
-0.015873575582621813
20
11.876937982125938
30
0
10
-0.021064683141825913
20
11.871337306543051
30
0
0
SPLINE
5
346
100
AcDbEntity
8
0
100
AcDbSpline
70
4
71
3
72
8
73
4
74
0
42
0.000000001
43
0.0000000001
44
0.0000000001
40
0
40
0
40
0
40
0
40
1
40
1
40
1
40
1
41
1
41
1
41
1
41
1
10
-0.021064683141825913
20
11.871337306543051
30
0
10
-0.02618199433338475
20
11.865812789102256
30
0
10
-0.027153555669902074
20
11.832122912355125
30
0
10
-0.028506089391825973
20
11.613336012502371
30
0
0
SPLINE
5
347
100
AcDbEntity
8
0
100
AcDbSpline
70
4
71
3
72
8
73
4
74
0
42
0.000000001
43
0.0000000001
44
0.0000000001
40
0
40
0
40
0
40
0
40
1
40
1
40
1
40
1
41
1
41
1
41
1
41
1
10
-0.028506089391825973
20
11.613336012502371
30
0
10
-0.029796744623301841
20
11.40467184142655
30
0
10
-0.030787345495341678
20
11.37285358008927
30
0
10
-0.036152279653666852
20
11.367488609595954
30
0
0
SPLINE
5
348
100
AcDbEntity
8
0
100
AcDbSpline
70
4
71
3
72
8
73
4
74
0
42
0.000000001
43
0.0000000001
44
0.0000000001
40
0
40
0
40
0
40
0
40
1
40
1
40
1
40
1
41
1
41
1
41
1
41
1
10
-0.036152279653666852
20
11.367488609595954
30
0
10
-0.041436295786021593
20
11.36220462979859
30
0
10
-0.043917539682505946
20
11.364176293607413
30
0
10
-0.081958022966502564
20
11.403876504798591
30
0
0
SPLINE
5
349
100
AcDbEntity
8
0
100
AcDbSpline
70
4
71
3
72
8
73
4
74
0
42
0.000000001
43
0.0000000001
44
0.0000000001
40
0
40
0
40
0
40
0
40
1
40
1
40
1
40
1
41
1
41
1
41
1
41
1
10
-0.081958022966502564
20
11.403876504798591
30
0
10
-0.21745113343250599
20
11.545279883142173
30
0
10
-0.23888952325832691
20
11.56896619171685
30
0
10
-0.23891334084522572
20
11.57730532660073
30
0
0
SPLINE
5
350
100
AcDbEntity
8
0
100
AcDbSpline
70
4
71
3
72
8
73
4
74
0
42
0.000000001
43
0.0000000001
44
0.0000000001
40
0
40
0
40
0
40
0
40
1
40
1
40
1
40
1
41
1
41
1
41
1
41
1
10
-0.23891334084522572
20
11.57730532660073
30
0
10
-0.23894429825794544
20
11.587668502183616
30
0
10
-0.22562596148502673
20
11.585418239827812
30
0
10
-0.12648499259006818
20
11.55831248154229
30
0
0
SPLINE
5
351
100
AcDbEntity
8
0
100
AcDbSpline
70
4
71
3
72
8
73
4
74
0
42
0.000000001
43
0.0000000001
44
0.0000000001
40
0
40
0
40
0
40
0
40
1
40
1
40
1
40
1
41
1
41
1
41
1
41
1
10
-0.12648499259006818
20
11.55831248154229
30
0
10
-0.080855473985789628
20
11.545834718461691
30
0
10
-0.079545815553782762
20
11.546365718026816
30
0
10
-0.077524136629222251
20
11.57809590334481
30
0
0
SPLINE
5
352
100
AcDbEntity
8
0
100
AcDbSpline
70
4
71
3
72
8
73
4
74
0
42
0.000000001
43
0.0000000001
44
0.0000000001
40
0
40
0
40
0
40
0
40
1
40
1
40
1
40
1
41
1
41
1
41
1
41
1
10
-0.077524136629222251
20
11.57809590334481
30
0
10
-0.074876187791941939
20
11.619686787648856
30
0
10
-0.071328112211344996
20
11.819276022096336
30
0
10
-0.072761636629222193
20
11.846019883866965
30
0
0
SPLINE
5
353
100
AcDbEntity
8
0
100
AcDbSpline
70
4
71
3
72
8
73
4
74
0
42
0.000000001
43
0.0000000001
44
0.0000000001
40
0
40
0
40
0
40
0
40
1
40
1
40
1
40
1
41
1
41
1
41
1
41
1
10
-0.072761636629222193
20
11.846019883866965
30
0
10
-0.073664125146983395
20
11.862836226602257
30
0
10
-0.076123931398509259
20
11.869334667154014
30
0
10
-0.079814876165507587
20
11.864643601747215
30
0
0
SPLINE
5
354
100
AcDbEntity
8
0
100
AcDbSpline
70
4
71
3
72
8
73
4
74
0
42
0.000000001
43
0.0000000001
44
0.0000000001
40
0
40
0
40
0
40
0
40
1
40
1
40
1
40
1
41
1
41
1
41
1
41
1
10
-0.079814876165507587
20
11.864643601747215
30
0
10
-0.083577255525706551
20
11.859857265992821
30
0
10
-0.086761000146983402
20
11.843907658143699
30
0
10
-0.099131575002787908
20
11.767862445207298
30
0
0
SPLINE
5
355
100
AcDbEntity
8
0
100
AcDbSpline
70
4
71
3
72
8
73
4
74
0
42
0.000000001
43
0.0000000001
44
0.0000000001
40
0
40
0
40
0
40
0
40
1
40
1
40
1
40
1
41
1
41
1
41
1
41
1
10
-0.099131575002787908
20
11.767862445207298
30
0
10
-0.12191299695026714
20
11.627802098985374
30
0
10
-0.11979608401310288
20
11.639370215554893
30
0
10
-0.12355606526386581
20
11.634386253781974
30
0
0
SPLINE
5
356
100
AcDbEntity
8
0
100
AcDbSpline
70
4
71
3
72
8
73
4
74
0
42
0.000000001
43
0.0000000001
44
0.0000000001
40
0
40
0
40
0
40
0
40
1
40
1
40
1
40
1
41
1
41
1
41
1
41
1
10
-0.12355606526386581
20
11.634386253781974
30
0
10
-0.13007830523502667
20
11.625735182996451
30
0
10
-0.13882224825870831
20
11.625256542154014
30
0
10
-0.16945228270542467
20
11.631871654363334
30
0
0
SPLINE
5
357
100
AcDbEntity
8
0
100
AcDbSpline
70
4
71
3
72
8
73
4
74
0
42
0.000000001
43
0.0000000001
44
0.0000000001
40
0
40
0
40
0
40
0
40
1
40
1
40
1
40
1
41
1
41
1
41
1
41
1
10
-0.16945228270542467
20
11.631871654363334
30
0
10
-0.17475294026386579
20
11.633017042298972
30
0
10
-0.22751667093288744
20
11.645466209741294
30
0
10
-0.2867074075604662
20
11.659539405961691
30
0
0
SPLINE
5
358
100
AcDbEntity
8
0
100
AcDbSpline
70
4
71
3
72
8
73
4
74
0
42
0.000000001
43
0.0000000001
44
0.0000000001
40
0
40
0
40
0
40
0
40
1
40
1
40
1
40
1
41
1
41
1
41
1
41
1
10
-0.2867074075604662
20
11.659539405961691
30
0
10
-0.40391967983496035
20
11.687407181688011
30
0
10
-0.40668668935549107
20
11.688047731252372
30
0
10
-0.4132494155908808
20
11.688838307996452
30
0
0
SPLINE
5
359
100
AcDbEntity
8
0
100
AcDbSpline
70
4
71
3
72
8
73
4
74
0
42
0.000000001
43
0.0000000001
44
0.0000000001
40
0
40
0
40
0
40
0
40
1
40
1
40
1
40
1
41
1
41
1
41
1
41
1
10
-0.4132494155908808
20
11.688838307996452
30
0
10
-0.41879534569632854
20
11.689507416864096
30
0
10
-0.42327209596884097
20
11.687892944188773
30
0
10
-0.424446052291511
20
11.684799710031211
30
0
0
SPLINE
5
360
100
AcDbEntity
8
0
100
AcDbSpline
70
4
71
3
72
8
73
4
74
0
42
0.000000001
43
0.0000000001
44
0.0000000001
40
0
40
0
40
0
40
0
40
1
40
1
40
1
40
1
41
1
41
1
41
1
41
1
10
-0.424446052291511
20
11.684799710031211
30
0
10
-0.42549618350517598
20
11.682037451310814
30
0
10
-0.42551285218250601
20
11.68214224142617
30
0
10
-0.42350545972239817
20
11.678089327474297
30
0
0
LWPOLYLINE
5
361
100
AcDbEntity
8
0
100
AcDbPolyline
90
4
70
1
43
0.0
10
0.14999999999999997
20
13.049799002557357
10
0.14999999999999997
20
12.250000180304051
42
-0.99999999999999989
10
-0.14999999999999997
20
12.250000180304051
10
-0.14999999999999997
20
13.049799002557357
42
-0.99999999999999989
0
LINE
5
362
100
AcDbEntity
8
0
100
AcDbLine
10
0
20
12.10000018030405
30
0
11
0
21
13.199799002557357
31
0
0
LINE
5
363
100
AcDbEntity
8
0
100
AcDbLine
10
0.12892949479631138
20
9.0568165491638162
30
0
11
-0.22107049924322414
21
9.0568165491638162
31
0
0
LINE
5
364
100
AcDbEntity
8
0
100
AcDbLine
10
-0.22107049924322414
20
9.0568165491638162
30
0
11
-0.22107049924322414
21
9.1265300522861459
31
0
0
LINE
5
365
100
AcDbEntity
8
0
100
AcDbLine
10
-0.22107049924322414
20
9.1265300522861459
30
0
11
0.026746689258133866
21
9.2093745257077195
31
0
0
SPLINE
5
366
100
AcDbEntity
8
0
100
AcDbSpline
70
0
71
2
72
6
73
3
74
0
42
0.000000001
43
0.0000000001
44
0.0000000001
40
0
40
0
40
0
40
1
40
1
40
1
10
0.026746689258133838
20
9.2093745257077195
30
0
10
0.061364679513489673
20
9.2208342786250093
30
0
10
0.078554331241166064
20
9.2260866697249391
30
0
0
SPLINE
5
367
100
AcDbEntity
8
0
100
AcDbSpline
70
0
71
2
72
6
73
3
74
0
42
0.000000001
43
0.0000000001
44
0.0000000001
40
0
40
0
40
0
40
1
40
1
40
1
10
0.078554331241166064
20
9.2260866697249391
30
0
10
0.059454738078629443
20
9.2320552851376512
30
0
10
0.022449283776795337
20
9.24470877007818
30
0
0
LINE
5
368
100
AcDbEntity
8
0
100
AcDbLine
10
0.022449283776795337
20
9.24470877007818
30
0
11
-0.22107049924322422
21
9.3285082216677644
31
0
0
LINE
5
369
100
AcDbEntity
8
0
100
AcDbLine
10
-0.22107049924322419
20
9.3285082216677644
30
0
11
-0.22107049924322419
21
9.3908206160483338
31
0
0
LINE
5
370
100
AcDbEntity
8
0
100
AcDbLine
10
-0.22107049924322419
20
9.3908206160483338
30
0
11
0.12892949479631133
21
9.3908206160483338
31
0
0
LINE
5
371
100
AcDbEntity
8
0
100
AcDbLine
10
0.12892949479631133
20
9.3908206160483338
30
0
11
0.12892949479631133
21
9.346175336402414
31
0
0
LINE
5
372
100
AcDbEntity
8
0
100
AcDbLine
10
0.12892949479631133
20
9.346175336402414
30
0
11
-0.16401046616026216
21
9.346175336402414
31
0
0
LINE
5
373
100
AcDbEntity
8
0
100
AcDbLine
10
-0.16401046616026216
20
9.346175336402414
30
0
11
0.12892949479631133
21
9.2444700236735322
31
0
0
LINE
5
374
100
AcDbEntity
8
0
100
AcDbLine
10
0.12892949479631133
20
9.2444700236735322
30
0
11
0.12892949479631133
21
9.2026896710810639
31
0
0
LINE
5
375
100
AcDbEntity
8
0
100
AcDbLine
10
0.12892949479631133
20
9.2026896710810639
30
0
11
-0.16902411085554414
21
9.1014618362603166
31
0
0
LINE
5
376
100
AcDbEntity
8
0
100
AcDbLine
10
-0.16902411085554411
20
9.1014618362603166
30
0
11
0.12892949479631136
21
9.1014618362603166
31
0
0
LINE
5
377
100
AcDbEntity
8
0
100
AcDbLine
10
0.12892949479631138
20
9.1014618362603166
30
0
11
0.12892949479631138
21
9.0568165491638162
31
0
0
SPLINE
5
378
100
AcDbEntity
8
0
100
AcDbSpline
70
0
71
2
72
6
73
3
74
0
42
0.000000001
43
0.0000000001
44
0.0000000001
40
0
40
0
40
0
40
1
40
1
40
1
10
0.00215595859101958
20
9.4440607662615754
30
0
10
-0.068273783745253641
20
9.4440607662615754
30
0
10
-0.10217554968782719
20
9.48321493820524
30
0
0
SPLINE
5
379
100
AcDbEntity
8
0
100
AcDbSpline
70
0
71
2
72
6
73
3
74
0
42
0.000000001
43
0.0000000001
44
0.0000000001
40
0
40
0
40
0
40
1
40
1
40
1
10
-0.10217554968782719
20
9.48321493820524
30
0
10
-0.13034743172117527
20
9.5159229870257356
30
0
10
-0.1303474317211753
20
9.5629557009158113
30
0
0
SPLINE
5
380
100
AcDbEntity
8
0
100
AcDbSpline
70
0
71
2
72
6
73
3
74
0
42
0.000000001
43
0.0000000001
44
0.0000000001
40
0
40
0
40
0
40
1
40
1
40
1
10
-0.1303474317211753
20
9.5629557009158113
30
0
10
-0.1303474317211753
20
9.6152408357081391
30
0
10
-0.095968187870467292
20
9.6484263773379304
30
0
0
SPLINE
5
381
100
AcDbEntity
8
0
100
AcDbSpline
70
0
71
2
72
6
73
3
74
0
42
0.000000001
43
0.0000000001
44
0.0000000001
40
0
40
0
40
0
40
1
40
1
40
1
10
-0.095968187870467292
20
9.6484263773379304
30
0
10
-0.061827660622084724
20
9.6816119189677217
30
0
10
-0.0014252076763754951
20
9.6816119189677217
30
0
0
SPLINE
5
382
100
AcDbEntity
8
0
100
AcDbSpline
70
0
71
2
72
6
73
3
74
0
42
0.000000001
43
0.0000000001
44
0.0000000001
40
0
40
0
40
0
40
1
40
1
40
1
10
-0.0014252076763754951
20
9.6816119189677217
30
0
10
0.047517507253205193
20
9.6816119189677217
30
0
10
0.075689404187714471
20
9.6668097610888459
30
0
0
SPLINE
5
383
100
AcDbEntity
8
0
100
AcDbSpline
70
0
71
2
72
6
73
3
74
0
42
0.000000001
43
0.0000000001
44
0.0000000001
40
0
40
0
40
0
40
1
40
1
40
1
10
0.075689404187714471
20
9.6668097610888459
30
0
10
0.10362252491525353
20
9.6522463198122956
30
0
10
0.11914095181039513
20
9.6240744228777864
30
0
0
SPLINE
5
384
100
AcDbEntity
8
0
100
AcDbSpline
70
0
71
2
72
6
73
3
74
0
42
0.000000001
43
0.0000000001
44
0.0000000001
40
0
40
0
40
0
40
1
40
1
40
1
10
0.11914095181039513
20
9.6240744228777864
30
0
10
0.13465937870553674
20
9.5961412425456025
30
0
10
0.13465937870553674
20
9.5629557009158113
30
0
0
SPLINE
5
385
100
AcDbEntity
8
0
100
AcDbSpline
70
0
71
2
72
6
73
3
74
0
42
0.000000001
43
0.0000000001
44
0.0000000001
40
0
40
0
40
0
40
1
40
1
40
1
10
0.13465937870553674
20
9.5629557009158113
30
0
10
0.13465937870553674
20
9.5097156103072145
30
0
10
0.10051885145715417
20
9.476768815082071
30
0
0
SPLINE
5
386
100
AcDbEntity
8
0
100
AcDbSpline
70
0
71
2
72
6
73
3
74
0
42
0.000000001
43
0.0000000001
44
0.0000000001
40
0
40
0
40
0
40
1
40
1
40
1
10
0.10051885145715417
20
9.476768815082071
30
0
10
0.066378324208771655
20
9.4440607662615754
30
0
10
0.00215595859101958
20
9.4440607662615754
30
0
0
SPLINE
5
387
100
AcDbEntity
8
0
100
AcDbSpline
70
0
71
2
72
6
73
3
74
0
42
0.000000001
43
0.0000000001
44
0.0000000001
40
0
40
0
40
0
40
1
40
1
40
1
10
0.0021559585910195245
20
9.4882285530981996
30
0
10
0.050859927115952386
20
9.4882285530981996
30
0
10
0.075211911378418816
20
9.5094768639025666
30
0
0
SPLINE
5
388
100
AcDbEntity
8
0
100
AcDbSpline
70
0
71
2
72
6
73
3
74
0
42
0.000000001
43
0.0000000001
44
0.0000000001
40
0
40
0
40
0
40
1
40
1
40
1
10
0.075211911378418816
20
9.5094768639025666
30
0
10
0.099325119433915032
20
9.5307251449046113
30
0
10
0.099325119433915032
20
9.5629557009158113
30
0
0
SPLINE
5
389
100
AcDbEntity
8
0
100
AcDbSpline
70
0
71
2
72
6
73
3
74
0
42
0.000000001
43
0.0000000001
44
0.0000000001
40
0
40
0
40
0
40
1
40
1
40
1
10
0.099325119433915032
20
9.5629557009158113
30
0
10
0.099325119433915032
20
9.5949475403246858
30
0
10
0.074973164973770989
20
9.6161958213267305
30
0
0
SPLINE
5
390
100
AcDbEntity
8
0
100
AcDbSpline
70
0
71
2
72
6
73
3
74
0
42
0.000000001
43
0.0000000001
44
0.0000000001
40
0
40
0
40
0
40
1
40
1
40
1
10
0.074973164973770989
20
9.6161958213267305
30
0
10
0.050621180711304559
20
9.6374441023287751
30
0
10
0.00072350996545494928
20
9.6374441023287751
30
0
0
SPLINE
5
391
100
AcDbEntity
8
0
100
AcDbSpline
70
0
71
2
72
6
73
3
74
0
42
0.000000001
43
0.0000000001
44
0.0000000001
40
0
40
0
40
0
40
1
40
1
40
1
10
0.00072350996545494928
20
9.6374441023287751
30
0
10
-0.04630926352926551
20
9.6374441023287751
30
0
10
-0.070422486485922919
20
9.615957104724405
30
0
0
SPLINE
5
392
100
AcDbEntity
8
0
100
AcDbSpline
70
0
71
2
72
6
73
3
74
0
42
0.000000001
43
0.0000000001
44
0.0000000001
40
0
40
0
40
0
40
1
40
1
40
1
10
-0.070422486485922919
20
9.615957104724405
30
0
10
-0.094774455847228156
20
9.5947087641177156
30
0
10
-0.094774455847228156
20
9.5629557009158113
30
0
0
SPLINE
5
393
100
AcDbEntity
8
0
100
AcDbSpline
70
0
71
2
72
6
73
3
74
0
42
0.000000001
43
0.0000000001
44
0.0000000001
40
0
40
0
40
0
40
1
40
1
40
1
10
-0.094774455847228156
20
9.5629557009158113
30
0
10
-0.094774455847228128
20
9.5307251449046113
30
0
10
-0.070661217989409525
20
9.5094768639025666
30
0
0
SPLINE
5
394
100
AcDbEntity
8
0
100
AcDbSpline
70
0
71
2
72
6
73
3
74
0
42
0.000000001
43
0.0000000001
44
0.0000000001
40
0
40
0
40
0
40
1
40
1
40
1
10
-0.070661217989409525
20
9.5094768639025666
30
0
10
-0.046547980131590949
20
9.4882285530981996
30
0
10
0.0021559585910195245
20
9.4882285530981996
30
0
0
LINE
5
395
100
AcDbEntity
8
0
100
AcDbLine
10
0.12892949479631122
20
9.8348860378680207
30
0
11
-0.22107049924322431
21
9.9692993994173982
31
0
0
LINE
5
396
100
AcDbEntity
8
0
100
AcDbLine
10
-0.22107049924322431
20
9.9692993994173982
30
0
11
-0.22107049924322431
21
10.019197129767893
31
0
0
LINE
5
397
100
AcDbEntity
8
0
100
AcDbLine
10
-0.22107049924322433
20
10.019197129767893
30
0
11
0.12892949479631119
21
10.162444078486917
31
0
0
LINE
5
398
100
AcDbEntity
8
0
100
AcDbLine
10
0.12892949479631116
20
10.162444078486917
30
0
11
0.12892949479631116
21
10.109681450885294
31
0
0
LINE
5
399
100
AcDbEntity
8
0
100
AcDbLine
10
0.12892949479631116
20
10.109681450885294
30
0
11
0.022926776586090838
21
10.068856083911417
31
0
0
LINE
5
400
100
AcDbEntity
8
0
100
AcDbLine
10
0.022926776586090825
20
10.068856083911417
30
0
11
0.022926776586090852
21
9.9225054617342927
31
0
0
LINE
5
401
100
AcDbEntity
8
0
100
AcDbLine
10
0.02292677658609088
20
9.9225054617342927
30
0
11
0.12892949479631122
21
9.8840674992022493
31
0
0
LINE
5
402
100
AcDbEntity
8
0
100
AcDbLine
10
0.12892949479631122
20
9.8840674992022493
30
0
11
0.12892949479631122
21
9.8348860378680207
31
0
0
LINE
5
403
100
AcDbEntity
8
0
100
AcDbLine
10
-0.014794916929686708
20
9.9358751411852815
30
0
11
-0.01479491692968673
21
10.054531299632547
31
0
0
LINE
5
404
100
AcDbEntity
8
0
100
AcDbLine
10
-0.014794916929686763
20
10.054531299632547
30
0
11
-0.11172534626909562
21
10.018003367942331
31
0
0
SPLINE
5
405
100
AcDbEntity
8
0
100
AcDbSpline
70
0
71
2
72
6
73
3
74
0
42
0.000000001
43
0.0000000001
44
0.0000000001
40
0
40
0
40
0
40
1
40
1
40
1
10
-0.11172534626909561
20
10.018003367942331
30
0
10
-0.15589314800688095
20
10.001291238826273
30
0
10
-0.18430379134603805
20
9.9931739206728913
30
0
0
SPLINE
5
406
100
AcDbEntity
8
0
100
AcDbSpline
70
0
71
2
72
6
73
3
74
0
42
0.000000001
43
0.0000000001
44
0.0000000001
40
0
40
0
40
0
40
1
40
1
40
1
10
-0.18430379134603805
20
9.9931739206728913
30
0
10
-0.15064075690695114
20
9.986489080947397
30
0
10
-0.11745521527715988
20
9.9743131037173249
30
0
0
LINE
5
407
100
AcDbEntity
8
0
100
AcDbLine
10
-0.11745521527715988
20
9.9743131037173249
30
0
11
-0.014794916929686722
21
9.9358751411852815
31
0
0
LINE
5
408
100
AcDbEntity
8
0
100
AcDbLine
10
0.12892949479631111
20
10.360124790233133
30
0
11
0.091685294089829172
21
10.360124790233133
31
0
0
SPLINE
5
409
100
AcDbEntity
8
0
100
AcDbSpline
70
0
71
2
72
6
73
3
74
0
42
0.000000001
43
0.0000000001
44
0.0000000001
40
0
40
0
40
0
40
1
40
1
40
1
10
0.091685294089829172
20
10.360124790233133
30
0
10
0.13465937870553663
20
10.330520474475382
30
0
10
0.13465937870553663
20
10.279667818110941
30
0
0
SPLINE
5
410
100
AcDbEntity
8
0
100
AcDbSpline
70
0
71
2
72
6
73
3
74
0
42
0.000000001
43
0.0000000001
44
0.0000000001
40
0
40
0
40
0
40
1
40
1
40
1
10
0.13465937870553663
20
10.279667818110941
30
0
10
0.13465937870553663
20
10.25722571567869
30
0
10
0.12606456774285962
20
10.237648689311502
30
0
0
SPLINE
5
411
100
AcDbEntity
8
0
100
AcDbSpline
70
0
71
2
72
6
73
3
74
0
42
0.000000001
43
0.0000000001
44
0.0000000001
40
0
40
0
40
0
40
1
40
1
40
1
10
0.12606456774285962
20
10.237648689311502
30
0
10
0.11746972697786023
20
10.218310319941995
30
0
10
0.10457751053384473
20
10.208760582965372
30
0
0
SPLINE
5
412
100
AcDbEntity
8
0
100
AcDbSpline
70
0
71
2
72
6
73
3
74
0
42
0.000000001
43
0.0000000001
44
0.0000000001
40
0
40
0
40
0
40
1
40
1
40
1
10
0.10457751053384473
20
10.208760582965372
30
0
10
0.091446547685181401
20
10.199449502986429
30
0
10
0.072585700927292607
20
10.195629560512064
30
0
0
SPLINE
5
413
100
AcDbEntity
8
0
100
AcDbSpline
70
0
71
2
72
6
73
3
74
0
42
0.000000001
43
0.0000000001
44
0.0000000001
40
0
40
0
40
0
40
1
40
1
40
1
10
0.072585700927292607
20
10.195629560512064
30
0
10
0.059932230887924931
20
10.19300337986326
30
0
10
0.032476573167359135
20
10.19300337986326
30
0
0
LINE
5
414
100
AcDbEntity
8
0
100
AcDbLine
10
0.032476573167359135
20
10.19300337986326
30
0
11
-0.12461754781194995
21
10.19300337986326
31
0
0
LINE
5
415
100
AcDbEntity
8
0
100
AcDbLine
10
-0.12461754781194995
20
10.19300337986326
30
0
11
-0.12461754781194996
21
10.23597749428129
31
0
0
LINE
5
416
100
AcDbEntity
8
0
100
AcDbLine
10
-0.12461754781194995
20
10.23597749428129
30
0
11
0.016003160653626225
21
10.23597749428129
31
0
0
SPLINE
5
417
100
AcDbEntity
8
0
100
AcDbSpline
70
0
71
2
72
6
73
3
74
0
42
0.000000001
43
0.0000000001
44
0.0000000001
40
0
40
0
40
0
40
1
40
1
40
1
10
0.016003160653626225
20
10.23597749428129
30
0
10
0.049666195092713139
20
10.23597749428129
30
0
10
0.061364679513489506
20
10.238603674930093
30
0
0
SPLINE
5
418
100
AcDbEntity
8
0
100
AcDbSpline
70
0
71
2
72
6
73
3
74
0
42
0.000000001
43
0.0000000001
44
0.0000000001
40
0
40
0
40
0
40
1
40
1
40
1
10
0.061364679513489506
20
10.238603674930093
30
0
10
0.078315584836518071
20
10.242662393611429
30
0
10
0.088104127822434208
20
10.255793296855447
30
0
0
SPLINE
5
419
100
AcDbEntity
8
0
100
AcDbSpline
70
0
71
2
72
6
73
3
74
0
42
0.000000001
43
0.0000000001
44
0.0000000001
40
0
40
0
40
0
40
1
40
1
40
1
10
0.088104127822434208
20
10.255793296855447
30
0
10
0.097653924403702519
20
10.268924319308756
30
0
10
0.097653924403702519
20
10.288262569468973
30
0
0
SPLINE
5
420
100
AcDbEntity
8
0
100
AcDbSpline
70
0
71
2
72
6
73
3
74
0
42
0.000000001
43
0.0000000001
44
0.0000000001
40
0
40
0
40
0
40
1
40
1
40
1
10
0.097653924403702519
20
10.288262569468973
30
0
10
0.097653924403702519
20
10.30760093883848
30
0
10
0.087865381417786381
20
10.324551784556864
30
0
0
SPLINE
5
421
100
AcDbEntity
8
0
100
AcDbSpline
70
0
71
2
72
6
73
3
74
0
42
0.000000001
43
0.0000000001
44
0.0000000001
40
0
40
0
40
0
40
1
40
1
40
1
10
0.087865381417786381
20
10.324551784556864
30
0
10
0.077838092027222361
20
10.341502749484537
30
0
10
0.060887216506516184
20
10.348426305812357
30
0
0
SPLINE
5
422
100
AcDbEntity
8
0
100
AcDbSpline
70
0
71
2
72
6
73
3
74
0
42
0.000000001
43
0.0000000001
44
0.0000000001
40
0
40
0
40
0
40
1
40
1
40
1
10
0.060887216506516184
20
10.348426305812357
30
0
10
0.043697564778839793
20
10.355588638347147
30
0
10
0.011228292165314402
20
10.355588638347147
30
0
0
LINE
5
423
100
AcDbEntity
8
0
100
AcDbLine
10
0.011228292165314402
20
10.355588638347147
30
0
11
-0.12461754781195
21
10.355588638347147
31
0
0
LINE
5
424
100
AcDbEntity
8
0
100
AcDbLine
10
-0.12461754781194997
20
10.355588638347147
30
0
11
-0.12461754781194999
21
10.398562752765176
31
0
0
LINE
5
425
100
AcDbEntity
8
0
100
AcDbLine
10
-0.12461754781194997
20
10.398562752765176
30
0
11
0.12892949479631113
21
10.398562752765176
31
0
0
LINE
5
426
100
AcDbEntity
8
0
100
AcDbLine
10
0.12892949479631111
20
10.398562752765176
30
0
11
0.12892949479631111
21
10.360124790233133
31
0
0
LINE
5
427
100
AcDbEntity
8
0
100
AcDbLine
10
0.12892949479631105
20
10.63038393215513
30
0
11
0.096937685189758926
21
10.63038393215513
31
0
0
SPLINE
5
428
100
AcDbEntity
8
0
100
AcDbSpline
70
0
71
2
72
6
73
3
74
0
42
0.000000001
43
0.0000000001
44
0.0000000001
40
0
40
0
40
0
40
1
40
1
40
1
10
0.096937685189758926
20
10.63038393215513
30
0
10
0.13465937870553657
20
10.606270753901956
30
0
10
0.13465937870553657
20
10.559476697009561
30
0
0
SPLINE
5
429
100
AcDbEntity
8
0
100
AcDbSpline
70
0
71
2
72
6
73
3
74
0
42
0.000000001
43
0.0000000001
44
0.0000000001
40
0
40
0
40
0
40
1
40
1
40
1
10
0.13465937870553657
20
10.559476697009561
30
0
10
0.13465937870553657
20
10.529156052630899
30
0
10
0.11794721978715583
20
10.503610336345194
30
0
0
SPLINE
5
430
100
AcDbEntity
8
0
100
AcDbSpline
70
0
71
2
72
6
73
3
74
0
42
0.000000001
43
0.0000000001
44
0.0000000001
40
0
40
0
40
0
40
1
40
1
40
1
10
0.11794721978715583
20
10.503610336345194
30
0
10
0.10123509067109748
20
10.478303396266458
30
0
10
0.071391968904053416
20
10.464217507403848
30
0
0
SPLINE
5
431
100
AcDbEntity
8
0
100
AcDbSpline
70
0
71
2
72
6
73
3
74
0
42
0.000000001
43
0.0000000001
44
0.0000000001
40
0
40
0
40
0
40
1
40
1
40
1
10
0.071391968904053416
20
10.464217507403848
30
0
10
0.041310100732361521
20
10.450370275538919
30
0
10
0.0023947049956671851
20
10.450370275538919
30
0
0
SPLINE
5
432
100
AcDbEntity
8
0
100
AcDbSpline
70
0
71
2
72
6
73
3
74
0
42
0.000000001
43
0.0000000001
44
0.0000000001
40
0
40
0
40
0
40
1
40
1
40
1
10
0.0023947049956671851
20
10.450370275538919
30
0
10
-0.03556573492475823
20
10.450370275538919
30
0
10
-0.066363827409232412
20
10.463023745578287
30
0
0
SPLINE
5
433
100
AcDbEntity
8
0
100
AcDbSpline
70
0
71
2
72
6
73
3
74
0
42
0.000000001
43
0.0000000001
44
0.0000000001
40
0
40
0
40
0
40
1
40
1
40
1
10
-0.066363827409232412
20
10.463023745578287
30
0
10
-0.097400666298354421
20
10.475677215617655
30
0
10
-0.11387406391092614
20
10.50098415569639
30
0
0
SPLINE
5
434
100
AcDbEntity
8
0
100
AcDbSpline
70
0
71
2
72
6
73
3
74
0
42
0.000000001
43
0.0000000001
44
0.0000000001
40
0
40
0
40
0
40
1
40
1
40
1
10
-0.11387406391092614
20
10.50098415569639
30
0
10
-0.13034746152349785
20
10.526291214984415
30
0
10
-0.13034746152349788
20
10.557566725772379
30
0
0
SPLINE
5
435
100
AcDbEntity
8
0
100
AcDbSpline
70
0
71
2
72
6
73
3
74
0
42
0.000000001
43
0.0000000001
44
0.0000000001
40
0
40
0
40
0
40
1
40
1
40
1
10
-0.13034746152349788
20
10.557566725772379
30
0
10
-0.13034746152349788
20
10.580486261409281
30
0
10
-0.12055891853758174
20
10.598392092746256
30
0
0
SPLINE
5
436
100
AcDbEntity
8
0
100
AcDbSpline
70
0
71
2
72
6
73
3
74
0
42
0.000000001
43
0.0000000001
44
0.0000000001
40
0
40
0
40
0
40
1
40
1
40
1
10
-0.12055891853758174
20
10.598392092746256
30
0
10
-0.11100912195631343
20
10.616297924083231
30
0
10
-0.095490709962333026
20
10.627518975299356
30
0
0
LINE
5
437
100
AcDbEntity
8
0
100
AcDbLine
10
-0.095490709962333026
20
10.627518975299356
30
0
11
-0.22107052904554683
21
10.627518975299356
31
0
0
LINE
5
438
100
AcDbEntity
8
0
100
AcDbLine
10
-0.22107052904554683
20
10.627518975299356
30
0
11
-0.22107052904554683
21
10.670254313510416
31
0
0
LINE
5
439
100
AcDbEntity
8
0
100
AcDbLine
10
-0.22107052904554686
20
10.670254313510416
30
0
11
0.12892949479631105
21
10.670254313510416
31
0
0
LINE
5
440
100
AcDbEntity
8
0
100
AcDbLine
10
0.12892949479631105
20
10.670254313510416
30
0
11
0.12892949479631105
21
10.63038393215513
31
0
0
SPLINE
5
441
100
AcDbEntity
8
0
100
AcDbSpline
70
0
71
2
72
6
73
3
74
0
42
0.000000001
43
0.0000000001
44
0.0000000001
40
0
40
0
40
0
40
1
40
1
40
1
10
0.0023947049956671851
20
10.494538032573221
30
0
10
0.051098673520600046
20
10.494538032573221
30
0
10
0.07521191137841865
20
10.515070163768289
30
0
0
SPLINE
5
442
100
AcDbEntity
8
0
100
AcDbSpline
70
0
71
2
72
6
73
3
74
0
42
0.000000001
43
0.0000000001
44
0.0000000001
40
0
40
0
40
0
40
1
40
1
40
1
10
0.07521191137841865
20
10.515070163768289
30
0
10
0.099325119433914866
20
10.535602175754068
30
0
10
0.099325119433914866
20
10.563535415690897
30
0
0
SPLINE
5
443
100
AcDbEntity
8
0
100
AcDbSpline
70
0
71
2
72
6
73
3
74
0
42
0.000000001
43
0.0000000001
44
0.0000000001
40
0
40
0
40
0
40
1
40
1
40
1
10
0.099325119433914866
20
10.563535415690897
30
0
10
0.099325119433914866
20
10.591707193416116
30
0
10
0.076405613599335398
20
10.611284338992593
30
0
0
SPLINE
5
444
100
AcDbEntity
8
0
100
AcDbSpline
70
0
71
2
72
6
73
3
74
0
42
0.000000001
43
0.0000000001
44
0.0000000001
40
0
40
0
40
0
40
1
40
1
40
1
10
0.076405613599335398
20
10.611284338992593
30
0
10
0.053247361360108048
20
10.631100141566751
30
0
10
0.0059758712630621491
20
10.631100141566751
30
0
0
SPLINE
5
445
100
AcDbEntity
8
0
100
AcDbSpline
70
0
71
2
72
6
73
3
74
0
42
0.000000001
43
0.0000000001
44
0.0000000001
40
0
40
0
40
0
40
1
40
1
40
1
10
0.0059758712630621491
20
10.631100141566751
30
0
10
-0.046070517124617905
20
10.631100141566751
30
0
10
-0.070422486485923114
20
10.611045562785623
30
0
0
SPLINE
5
446
100
AcDbEntity
8
0
100
AcDbSpline
70
0
71
2
72
6
73
3
74
0
42
0.000000001
43
0.0000000001
44
0.0000000001
40
0
40
0
40
0
40
1
40
1
40
1
10
-0.070422486485923114
20
10.611045562785623
30
0
10
-0.094774470748389544
20
10.590990984004495
30
0
10
-0.094774470748389544
20
10.561625444453714
30
0
0
SPLINE
5
447
100
AcDbEntity
8
0
100
AcDbSpline
70
0
71
2
72
6
73
3
74
0
42
0.000000001
43
0.0000000001
44
0.0000000001
40
0
40
0
40
0
40
1
40
1
40
1
10
-0.094774470748389544
20
10.561625444453714
30
0
10
-0.094774470748389517
20
10.532975995105264
30
0
10
-0.071377472104514395
20
10.513637625735758
30
0
0
SPLINE
5
448
100
AcDbEntity
8
0
100
AcDbSpline
70
0
71
2
72
6
73
3
74
0
42
0.000000001
43
0.0000000001
44
0.0000000001
40
0
40
0
40
0
40
1
40
1
40
1
10
-0.071377472104514395
20
10.513637625735758
30
0
10
-0.047980458559478079
20
10.494538032573221
30
0
10
0.0023947049956671851
20
10.494538032573221
30
0
0
LINE
5
449
100
AcDbEntity
8
0
100
AcDbLine
10
-0.17165029150434813
20
10.73805793480253
30
0
11
-0.22107049924322447
21
10.73805793480253
31
0
0
LINE
5
450
100
AcDbEntity
8
0
100
AcDbLine
10
-0.22107049924322447
20
10.73805793480253
30
0
11
-0.22107049924322447
21
10.78103204922056
31
0
0
LINE
5
451
100
AcDbEntity
8
0
100
AcDbLine
10
-0.22107049924322447
20
10.78103204922056
30
0
11
-0.17165029150434813
21
10.78103204922056
31
0
0
LINE
5
452
100
AcDbEntity
8
0
100
AcDbLine
10
-0.17165029150434813
20
10.78103204922056
30
0
11
-0.17165029150434813
21
10.73805793480253
31
0
0
LINE
5
453
100
AcDbEntity
8
0
100
AcDbLine
10
0.12892949479631105
20
10.73805793480253
30
0
11
-0.12461757761427245
21
10.73805793480253
31
0
0
LINE
5
454
100
AcDbEntity
8
0
100
AcDbLine
10
-0.12461757761427245
20
10.73805793480253
30
0
11
-0.12461757761427246
21
10.78103204922056
31
0
0
LINE
5
455
100
AcDbEntity
8
0
100
AcDbLine
10
-0.12461757761427245
20
10.78103204922056
30
0
11
0.12892949479631105
21
10.78103204922056
31
0
0
LINE
5
456
100
AcDbEntity
8
0
100
AcDbLine
10
0.12892949479631105
20
10.78103204922056
30
0
11
0.12892949479631105
21
10.73805793480253
31
0
0
SPLINE
5
457
100
AcDbEntity
8
0
100
AcDbSpline
70
0
71
2
72
6
73
3
74
0
42
0.000000001
43
0.0000000001
44
0.0000000001
40
0
40
0
40
0
40
1
40
1
40
1
10
0.0021559585910193024
20
10.830452167552469
30
0
10
-0.068273783745253891
20
10.830452167552469
30
0
10
-0.10217554968782747
20
10.869606339496134
30
0
0
SPLINE
5
458
100
AcDbEntity
8
0
100
AcDbSpline
70
0
71
2
72
6
73
3
74
0
42
0.000000001
43
0.0000000001
44
0.0000000001
40
0
40
0
40
0
40
1
40
1
40
1
10
-0.10217554968782747
20
10.869606339496134
30
0
10
-0.13034743172117555
20
10.902314388316629
30
0
10
-0.13034743172117555
20
10.949347102206705
30
0
0
SPLINE
5
459
100
AcDbEntity
8
0
100
AcDbSpline
70
0
71
2
72
6
73
3
74
0
42
0.000000001
43
0.0000000001
44
0.0000000001
40
0
40
0
40
0
40
1
40
1
40
1
10
-0.13034743172117555
20
10.949347102206705
30
0
10
-0.13034743172117558
20
11.001632296603677
30
0
10
-0.095968187870467569
20
11.034817897838114
30
0
0
SPLINE
5
460
100
AcDbEntity
8
0
100
AcDbSpline
70
0
71
2
72
6
73
3
74
0
42
0.000000001
43
0.0000000001
44
0.0000000001
40
0
40
0
40
0
40
1
40
1
40
1
10
-0.095968187870467569
20
11.034817897838114
30
0
10
-0.061827660622085001
20
11.06800337986326
30
0
10
-0.0014252076763757726
20
11.06800337986326
30
0
0
SPLINE
5
461
100
AcDbEntity
8
0
100
AcDbSpline
70
0
71
2
72
6
73
3
74
0
42
0.000000001
43
0.0000000001
44
0.0000000001
40
0
40
0
40
0
40
1
40
1
40
1
10
-0.0014252076763757726
20
11.06800337986326
30
0
10
0.047517507253204916
20
11.06800337986326
30
0
10
0.075689404187714193
20
11.053201162379739
30
0
0
SPLINE
5
462
100
AcDbEntity
8
0
100
AcDbSpline
70
0
71
2
72
6
73
3
74
0
42
0.000000001
43
0.0000000001
44
0.0000000001
40
0
40
0
40
0
40
1
40
1
40
1
10
0.075689404187714193
20
11.053201162379739
30
0
10
0.10362252491525326
20
11.0386376018939
30
0
10
0.11914095181039486
20
11.01046582416868
30
0
0
SPLINE
5
463
100
AcDbEntity
8
0
100
AcDbSpline
70
0
71
2
72
6
73
3
74
0
42
0.000000001
43
0.0000000001
44
0.0000000001
40
0
40
0
40
0
40
1
40
1
40
1
10
0.11914095181039486
20
11.01046582416868
30
0
10
0.13465937870553646
20
10.982532703441141
30
0
10
0.13465937870553646
20
10.949347102206705
30
0
0
SPLINE
5
464
100
AcDbEntity
8
0
100
AcDbSpline
70
0
71
2
72
6
73
3
74
0
42
0.000000001
43
0.0000000001
44
0.0000000001
40
0
40
0
40
0
40
1
40
1
40
1
10
0.13465937870553646
20
10.949347102206705
30
0
10
0.13465937870553651
20
10.89610704140043
30
0
10
0.10051885145715395
20
10.863160216372965
30
0
0
SPLINE
5
465
100
AcDbEntity
8
0
100
AcDbSpline
70
0
71
2
72
6
73
3
74
0
42
0.000000001
43
0.0000000001
44
0.0000000001
40
0
40
0
40
0
40
1
40
1
40
1
10
0.10051885145715395
20
10.863160216372965
30
0
10
0.066378324208771378
20
10.830452167552469
30
0
10
0.0021559585910193024
20
10.830452167552469
30
0
0
SPLINE
5
466
100
AcDbEntity
8
0
100
AcDbSpline
70
0
71
2
72
6
73
3
74
0
42
0.000000001
43
0.0000000001
44
0.0000000001
40
0
40
0
40
0
40
1
40
1
40
1
10
0.0021559585910193024
20
10.87462004379606
30
0
10
0.050859927115952164
20
10.87462004379606
30
0
10
0.075211911378418594
20
10.89586826519346
30
0
0
SPLINE
5
467
100
AcDbEntity
8
0
100
AcDbSpline
70
0
71
2
72
6
73
3
74
0
42
0.000000001
43
0.0000000001
44
0.0000000001
40
0
40
0
40
0
40
1
40
1
40
1
10
0.075211911378418594
20
10.89586826519346
30
0
10
0.099325119433914755
20
10.91711660580015
30
0
10
0.099325119433914755
20
10.949347102206705
30
0
0
SPLINE
5
468
100
AcDbEntity
8
0
100
AcDbSpline
70
0
71
2
72
6
73
3
74
0
42
0.000000001
43
0.0000000001
44
0.0000000001
40
0
40
0
40
0
40
1
40
1
40
1
10
0.099325119433914755
20
10.949347102206705
30
0
10
0.099325119433914755
20
10.981338941615579
30
0
10
0.074973164973770712
20
11.002587282222269
30
0
0
SPLINE
5
469
100
AcDbEntity
8
0
100
AcDbSpline
70
0
71
2
72
6
73
3
74
0
42
0.000000001
43
0.0000000001
44
0.0000000001
40
0
40
0
40
0
40
1
40
1
40
1
10
0.074973164973770712
20
11.002587282222269
30
0
10
0.050621180711304281
20
11.023835622828958
30
0
10
0.00072350996545467172
20
11.023835622828958
30
0
0
SPLINE
5
470
100
AcDbEntity
8
0
100
AcDbSpline
70
0
71
2
72
6
73
3
74
0
42
0.000000001
43
0.0000000001
44
0.0000000001
40
0
40
0
40
0
40
1
40
1
40
1
10
0.00072350996545467172
20
11.023835622828958
30
0
10
-0.046309263529265787
20
11.023835622828958
30
0
10
-0.070422486485923197
20
11.002348506015299
30
0
0
SPLINE
5
471
100
AcDbEntity
8
0
100
AcDbSpline
70
0
71
2
72
6
73
3
74
0
42
0.000000001
43
0.0000000001
44
0.0000000001
40
0
40
0
40
0
40
1
40
1
40
1
10
-0.070422486485923197
20
11.002348506015299
30
0
10
-0.094774455847228406
20
10.981100165408609
30
0
10
-0.094774455847228406
20
10.949347102206705
30
0
0
SPLINE
5
472
100
AcDbEntity
8
0
100
AcDbSpline
70
0
71
2
72
6
73
3
74
0
42
0.000000001
43
0.0000000001
44
0.0000000001
40
0
40
0
40
0
40
1
40
1
40
1
10
-0.094774455847228406
20
10.949347102206705
30
0
10
-0.094774455847228406
20
10.91711660580015
30
0
10
-0.070661217989409802
20
10.89586826519346
30
0
0
SPLINE
5
473
100
AcDbEntity
8
0
100
AcDbSpline
70
0
71
2
72
6
73
3
74
0
42
0.000000001
43
0.0000000001
44
0.0000000001
40
0
40
0
40
0
40
1
40
1
40
1
10
-0.070661217989409802
20
10.89586826519346
30
0
10
-0.046547980131591171
20
10.87462004379606
30
0
10
0.0021559585910193024
20
10.87462004379606
30
0
0
ENDSEC
0
SECTION
2
OBJECTS
0
DICTIONARY
5
C
100
AcDbDictionary
3
ACAD_GROUP
350
D
3
ACAD_MLINESTYLE
350
17
0
DICTIONARY
5
D
100
AcDbDictionary
0
DICTIONARY
5
1A
330
C
100
AcDbDictionary
0
DICTIONARY
5
17
100
AcDbDictionary
0
ENDSEC
0
EOF
