<?xml version="1.0" encoding="utf-8"?>
<!-- Generator: Adobe Illustrator 26.0.2, SVG Export Plug-In . SVG Version: 6.00 Build 0)  -->
<svg version="1.1" id="_x30_" xmlns="http://www.w3.org/2000/svg" xmlns:xlink="http://www.w3.org/1999/xlink" x="0px" y="0px"
	 viewBox="0 0 960 560" style="enable-background:new 0 0 960 560;" xml:space="preserve">
<style type="text/css">
	.st0{fill:none;stroke:#000000;stroke-width:5.000000e-03;stroke-miterlimit:10;}
	.st1{fill:#B32C39;}
	.st2{fill:none;stroke:#7FB8FF;stroke-width:5.000000e-03;stroke-miterlimit:10;}
	.st3{fill:none;stroke:#3700F4;stroke-width:5.000000e-03;stroke-miterlimit:10;}
</style>
<g id="LWPOLYLINE">
	<path class="st0" d="M476.4,289.91v-19.83c0-1.99,1.61-3.6,3.6-3.6s3.6,1.61,3.6,3.6v19.83c0,1.99-1.61,3.6-3.6,3.6
		S476.4,291.9,476.4,289.91z"/>
</g>
<g id="LWPOLYLINE_00000138556058776404736580000009990528139157932935_">
	<path class="st0" d="M476.72,289.75v-1.1c0-0.08,0.07-0.15,0.15-0.15c0.08,0,0.15,0.07,0.15,0.15v1.1c0,0.08-0.07,0.15-0.15,0.15
		C476.79,289.9,476.72,289.83,476.72,289.75z"/>
</g>
<g id="LWPOLYLINE_00000123424411971120322680000018091144377220841377_">
	<path class="st0" d="M477.97,289.75v-1.1c0-0.08,0.07-0.15,0.15-0.15c0.08,0,0.15,0.07,0.15,0.15v1.1c0,0.08-0.07,0.15-0.15,0.15
		C478.04,289.9,477.97,289.83,477.97,289.75z"/>
</g>
<g id="LWPOLYLINE_00000154383604447660847250000015002505815268230277_">
	<path class="st0" d="M479.22,289.75v-1.1c0-0.08,0.07-0.15,0.15-0.15c0.08,0,0.15,0.07,0.15,0.15v1.1c0,0.08-0.07,0.15-0.15,0.15
		C479.29,289.9,479.22,289.83,479.22,289.75z"/>
</g>
<g id="LWPOLYLINE_00000016798032486446229380000005143034467454237861_">
	<path class="st0" d="M480.47,289.75v-1.1c0-0.08,0.07-0.15,0.15-0.15c0.08,0,0.15,0.07,0.15,0.15v1.1c0,0.08-0.07,0.15-0.15,0.15
		C480.53,289.9,480.47,289.83,480.47,289.75z"/>
</g>
<g id="LWPOLYLINE_00000052800859004571242290000004340857411446656929_">
	<path class="st0" d="M481.71,289.75v-1.1c0-0.08,0.07-0.15,0.15-0.15c0.08,0,0.15,0.07,0.15,0.15v1.1c0,0.08-0.07,0.15-0.15,0.15
		C481.78,289.9,481.71,289.83,481.71,289.75z"/>
</g>
<g id="LWPOLYLINE_00000121267206904101201900000015292258020319517859_">
	<path class="st0" d="M482.96,289.75v-1.1c0-0.08,0.07-0.15,0.15-0.15s0.15,0.07,0.15,0.15v1.1c0,0.08-0.07,0.15-0.15,0.15
		S482.96,289.83,482.96,289.75z"/>
</g>
<g id="LWPOLYLINE_00000182506440724691581160000012813910446713086366_">
	<path class="st0" d="M476.72,287.91v-1.1c0-0.08,0.07-0.15,0.15-0.15c0.08,0,0.15,0.07,0.15,0.15v1.1c0,0.08-0.07,0.15-0.15,0.15
		C476.79,288.06,476.72,287.99,476.72,287.91z"/>
</g>
<g id="LWPOLYLINE_00000010312288755352035280000016549721148800039845_">
	<path class="st0" d="M477.97,287.91v-1.1c0-0.08,0.07-0.15,0.15-0.15c0.08,0,0.15,0.07,0.15,0.15v1.1c0,0.08-0.07,0.15-0.15,0.15
		C478.04,288.06,477.97,287.99,477.97,287.91z"/>
</g>
<g id="LWPOLYLINE_00000018935371604675681340000003309224216222732935_">
	<path class="st0" d="M479.22,287.91v-1.1c0-0.08,0.07-0.15,0.15-0.15c0.08,0,0.15,0.07,0.15,0.15v1.1c0,0.08-0.07,0.15-0.15,0.15
		C479.29,288.06,479.22,287.99,479.22,287.91z"/>
</g>
<g id="LWPOLYLINE_00000100345565719879794390000013414706247392340871_">
	<path class="st0" d="M480.47,287.91v-1.1c0-0.08,0.07-0.15,0.15-0.15c0.08,0,0.15,0.07,0.15,0.15v1.1c0,0.08-0.07,0.15-0.15,0.15
		C480.53,288.06,480.47,287.99,480.47,287.91z"/>
</g>
<g id="LWPOLYLINE_00000117664624338337767730000006039550700632365708_">
	<path class="st0" d="M481.71,287.91v-1.1c0-0.08,0.07-0.15,0.15-0.15c0.08,0,0.15,0.07,0.15,0.15v1.1c0,0.08-0.07,0.15-0.15,0.15
		C481.78,288.06,481.71,287.99,481.71,287.91z"/>
</g>
<g id="LWPOLYLINE_00000178198543698104325900000013320429469062891688_">
	<path class="st0" d="M482.96,287.91v-1.1c0-0.08,0.07-0.15,0.15-0.15s0.15,0.07,0.15,0.15v1.1c0,0.08-0.07,0.15-0.15,0.15
		S482.96,287.99,482.96,287.91z"/>
</g>
<g id="LWPOLYLINE_00000154417281036493237180000009523558288342953876_">
	<path class="st0" d="M476.72,286.08v-1.1c0-0.08,0.07-0.15,0.15-0.15c0.08,0,0.15,0.07,0.15,0.15v1.1c0,0.08-0.07,0.15-0.15,0.15
		C476.79,286.23,476.72,286.16,476.72,286.08z"/>
</g>
<g id="LWPOLYLINE_00000050663003222167021120000011254355489601176986_">
	<path class="st0" d="M477.97,286.08v-1.1c0-0.08,0.07-0.15,0.15-0.15c0.08,0,0.15,0.07,0.15,0.15v1.1c0,0.08-0.07,0.15-0.15,0.15
		C478.04,286.23,477.97,286.16,477.97,286.08z"/>
</g>
<g id="LWPOLYLINE_00000142874710740653051930000013283987564661371524_">
	<path class="st0" d="M479.22,286.08v-1.1c0-0.08,0.07-0.15,0.15-0.15c0.08,0,0.15,0.07,0.15,0.15v1.1c0,0.08-0.07,0.15-0.15,0.15
		C479.29,286.23,479.22,286.16,479.22,286.08z"/>
</g>
<g id="LWPOLYLINE_00000139272808131561024180000016135219351649106834_">
	<path class="st0" d="M480.47,286.08v-1.1c0-0.08,0.07-0.15,0.15-0.15c0.08,0,0.15,0.07,0.15,0.15v1.1c0,0.08-0.07,0.15-0.15,0.15
		C480.53,286.23,480.47,286.16,480.47,286.08z"/>
</g>
<g id="LWPOLYLINE_00000041288520235358046670000011134511590359253635_">
	<path class="st0" d="M481.71,286.08v-1.1c0-0.08,0.07-0.15,0.15-0.15c0.08,0,0.15,0.07,0.15,0.15v1.1c0,0.08-0.07,0.15-0.15,0.15
		C481.78,286.23,481.71,286.16,481.71,286.08z"/>
</g>
<g id="LWPOLYLINE_00000175323827233056714390000013945845574652290715_">
	<path class="st0" d="M482.96,286.08v-1.1c0-0.08,0.07-0.15,0.15-0.15s0.15,0.07,0.15,0.15v1.1c0,0.08-0.07,0.15-0.15,0.15
		S482.96,286.16,482.96,286.08z"/>
</g>
<g id="LWPOLYLINE_00000040547795791403268060000009260521963333855393_">
	<path class="st0" d="M476.72,284.24v-1.1c0-0.08,0.07-0.15,0.15-0.15c0.08,0,0.15,0.07,0.15,0.15v1.1c0,0.08-0.07,0.15-0.15,0.15
		C476.79,284.39,476.72,284.32,476.72,284.24z"/>
</g>
<g id="LWPOLYLINE_00000183957940526214756680000016885208818224284807_">
	<path class="st0" d="M477.97,284.24v-1.1c0-0.08,0.07-0.15,0.15-0.15c0.08,0,0.15,0.07,0.15,0.15v1.1c0,0.08-0.07,0.15-0.15,0.15
		C478.04,284.39,477.97,284.32,477.97,284.24z"/>
</g>
<g id="LWPOLYLINE_00000163792508781382553100000006298766979558087318_">
	<path class="st0" d="M479.22,284.24v-1.1c0-0.08,0.07-0.15,0.15-0.15c0.08,0,0.15,0.07,0.15,0.15v1.1c0,0.08-0.07,0.15-0.15,0.15
		C479.29,284.39,479.22,284.32,479.22,284.24z"/>
</g>
<g id="LWPOLYLINE_00000041977233941844004060000001792635003037184646_">
	<path class="st0" d="M480.47,284.24v-1.1c0-0.08,0.07-0.15,0.15-0.15c0.08,0,0.15,0.07,0.15,0.15v1.1c0,0.08-0.07,0.15-0.15,0.15
		C480.53,284.39,480.47,284.32,480.47,284.24z"/>
</g>
<g id="LWPOLYLINE_00000088132141209458415360000010100744761146032274_">
	<path class="st0" d="M481.71,284.24v-1.1c0-0.08,0.07-0.15,0.15-0.15c0.08,0,0.15,0.07,0.15,0.15v1.1c0,0.08-0.07,0.15-0.15,0.15
		C481.78,284.39,481.71,284.32,481.71,284.24z"/>
</g>
<g id="LWPOLYLINE_00000010300875227431694090000014908251111240962457_">
	<path class="st0" d="M482.96,284.24v-1.1c0-0.08,0.07-0.15,0.15-0.15s0.15,0.07,0.15,0.15v1.1c0,0.08-0.07,0.15-0.15,0.15
		S482.96,284.32,482.96,284.24z"/>
</g>
<g id="LWPOLYLINE_00000114786822701167313900000000473545404065684150_">
	<path class="st0" d="M476.72,282.41v-1.1c0-0.08,0.07-0.15,0.15-0.15c0.08,0,0.15,0.07,0.15,0.15v1.1c0,0.08-0.07,0.15-0.15,0.15
		C476.79,282.56,476.72,282.49,476.72,282.41z"/>
</g>
<g id="LWPOLYLINE_00000016783418923158324490000000305726004420353699_">
	<path class="st0" d="M477.97,282.41v-1.1c0-0.08,0.07-0.15,0.15-0.15c0.08,0,0.15,0.07,0.15,0.15v1.1c0,0.08-0.07,0.15-0.15,0.15
		C478.04,282.56,477.97,282.49,477.97,282.41z"/>
</g>
<g id="LWPOLYLINE_00000121250552346328112340000017089330470046232450_">
	<path class="st0" d="M479.22,282.41v-1.1c0-0.08,0.07-0.15,0.15-0.15c0.08,0,0.15,0.07,0.15,0.15v1.1c0,0.08-0.07,0.15-0.15,0.15
		C479.29,282.56,479.22,282.49,479.22,282.41z"/>
</g>
<g id="LWPOLYLINE_00000167389145474885141460000016973366526986154385_">
	<path class="st0" d="M480.47,282.41v-1.1c0-0.08,0.07-0.15,0.15-0.15c0.08,0,0.15,0.07,0.15,0.15v1.1c0,0.08-0.07,0.15-0.15,0.15
		C480.53,282.56,480.47,282.49,480.47,282.41z"/>
</g>
<g id="LWPOLYLINE_00000149346186362225039860000003227045132001022621_">
	<path class="st0" d="M481.71,282.41v-1.1c0-0.08,0.07-0.15,0.15-0.15c0.08,0,0.15,0.07,0.15,0.15v1.1c0,0.08-0.07,0.15-0.15,0.15
		C481.78,282.56,481.71,282.49,481.71,282.41z"/>
</g>
<g id="LWPOLYLINE_00000048503094915620827750000005893856081480018088_">
	<path class="st0" d="M482.96,282.41v-1.1c0-0.08,0.07-0.15,0.15-0.15s0.15,0.07,0.15,0.15v1.1c0,0.08-0.07,0.15-0.15,0.15
		S482.96,282.49,482.96,282.41z"/>
</g>
<g id="LWPOLYLINE_00000042708657087920487930000014783905534113494694_">
	<path class="st0" d="M476.72,280.57v-1.1c0-0.08,0.07-0.15,0.15-0.15c0.08,0,0.15,0.07,0.15,0.15v1.1c0,0.08-0.07,0.15-0.15,0.15
		C476.79,280.72,476.72,280.65,476.72,280.57z"/>
</g>
<g id="LWPOLYLINE_00000119083437405159992190000007552208069573562551_">
	<path class="st0" d="M477.97,280.57v-1.1c0-0.08,0.07-0.15,0.15-0.15c0.08,0,0.15,0.07,0.15,0.15v1.1c0,0.08-0.07,0.15-0.15,0.15
		C478.04,280.72,477.97,280.65,477.97,280.57z"/>
</g>
<g id="LWPOLYLINE_00000158711134007424596970000014628089631723708082_">
	<path class="st0" d="M479.22,280.57v-1.1c0-0.08,0.07-0.15,0.15-0.15c0.08,0,0.15,0.07,0.15,0.15v1.1c0,0.08-0.07,0.15-0.15,0.15
		C479.29,280.72,479.22,280.65,479.22,280.57z"/>
</g>
<g id="LWPOLYLINE_00000042714686683551522810000000162670563159652280_">
	<path class="st0" d="M480.47,280.57v-1.1c0-0.08,0.07-0.15,0.15-0.15c0.08,0,0.15,0.07,0.15,0.15v1.1c0,0.08-0.07,0.15-0.15,0.15
		C480.53,280.72,480.47,280.65,480.47,280.57z"/>
</g>
<g id="LWPOLYLINE_00000119093788325646934310000013717316620830834825_">
	<path class="st0" d="M481.71,280.57v-1.1c0-0.08,0.07-0.15,0.15-0.15c0.08,0,0.15,0.07,0.15,0.15v1.1c0,0.08-0.07,0.15-0.15,0.15
		C481.78,280.72,481.71,280.65,481.71,280.57z"/>
</g>
<g id="LWPOLYLINE_00000014598169229229116570000013688053050166876840_">
	<path class="st0" d="M482.96,280.57v-1.1c0-0.08,0.07-0.15,0.15-0.15s0.15,0.07,0.15,0.15v1.1c0,0.08-0.07,0.15-0.15,0.15
		S482.96,280.65,482.96,280.57z"/>
</g>
<g id="LWPOLYLINE_00000003801787995295742360000010462794609527778969_">
	<path class="st0" d="M476.72,278.74v-1.1c0-0.08,0.07-0.15,0.15-0.15c0.08,0,0.15,0.07,0.15,0.15v1.1c0,0.08-0.07,0.15-0.15,0.15
		C476.79,278.89,476.72,278.82,476.72,278.74z"/>
</g>
<g id="LWPOLYLINE_00000164481044291249344430000005503112835653606027_">
	<path class="st0" d="M477.97,278.74v-1.1c0-0.08,0.07-0.15,0.15-0.15c0.08,0,0.15,0.07,0.15,0.15v1.1c0,0.08-0.07,0.15-0.15,0.15
		C478.04,278.89,477.97,278.82,477.97,278.74z"/>
</g>
<g id="LWPOLYLINE_00000173162540233437946100000004952758574069790105_">
	<path class="st0" d="M479.22,278.74v-1.1c0-0.08,0.07-0.15,0.15-0.15c0.08,0,0.15,0.07,0.15,0.15v1.1c0,0.08-0.07,0.15-0.15,0.15
		C479.29,278.89,479.22,278.82,479.22,278.74z"/>
</g>
<g id="LWPOLYLINE_00000010296209266005419320000016295277377499910558_">
	<path class="st0" d="M480.47,278.74v-1.1c0-0.08,0.07-0.15,0.15-0.15c0.08,0,0.15,0.07,0.15,0.15v1.1c0,0.08-0.07,0.15-0.15,0.15
		C480.53,278.89,480.47,278.82,480.47,278.74z"/>
</g>
<g id="LWPOLYLINE_00000164482135571351931670000000527891317413468593_">
	<path class="st0" d="M481.71,278.74v-1.1c0-0.08,0.07-0.15,0.15-0.15c0.08,0,0.15,0.07,0.15,0.15v1.1c0,0.08-0.07,0.15-0.15,0.15
		C481.78,278.89,481.71,278.82,481.71,278.74z"/>
</g>
<g id="LWPOLYLINE_00000161607760843141109700000008955489082851975821_">
	<path class="st0" d="M482.96,278.74v-1.1c0-0.08,0.07-0.15,0.15-0.15s0.15,0.07,0.15,0.15v1.1c0,0.08-0.07,0.15-0.15,0.15
		S482.96,278.82,482.96,278.74z"/>
</g>
<g id="LWPOLYLINE_00000097482382116985148740000003545532393197104798_">
	<path class="st0" d="M476.72,276.9v-1.1c0-0.08,0.07-0.15,0.15-0.15c0.08,0,0.15,0.07,0.15,0.15v1.1c0,0.08-0.07,0.15-0.15,0.15
		C476.79,277.05,476.72,276.98,476.72,276.9z"/>
</g>
<g id="LWPOLYLINE_00000157274934338490192850000001302309473674698393_">
	<path class="st0" d="M477.97,276.9v-1.1c0-0.08,0.07-0.15,0.15-0.15c0.08,0,0.15,0.07,0.15,0.15v1.1c0,0.08-0.07,0.15-0.15,0.15
		C478.04,277.05,477.97,276.98,477.97,276.9z"/>
</g>
<g id="LWPOLYLINE_00000132788728641685785410000018215161677292411568_">
	<path class="st0" d="M479.22,276.9v-1.1c0-0.08,0.07-0.15,0.15-0.15c0.08,0,0.15,0.07,0.15,0.15v1.1c0,0.08-0.07,0.15-0.15,0.15
		C479.29,277.05,479.22,276.98,479.22,276.9z"/>
</g>
<g id="LWPOLYLINE_00000033329551125600841350000008620183837399861399_">
	<path class="st0" d="M480.47,276.9v-1.1c0-0.08,0.07-0.15,0.15-0.15c0.08,0,0.15,0.07,0.15,0.15v1.1c0,0.08-0.07,0.15-0.15,0.15
		C480.53,277.05,480.47,276.98,480.47,276.9z"/>
</g>
<g id="LWPOLYLINE_00000000217053209579937030000015005415584819011713_">
	<path class="st0" d="M481.71,276.9v-1.1c0-0.08,0.07-0.15,0.15-0.15c0.08,0,0.15,0.07,0.15,0.15v1.1c0,0.08-0.07,0.15-0.15,0.15
		C481.78,277.05,481.71,276.98,481.71,276.9z"/>
</g>
<g id="LWPOLYLINE_00000054951967868898435600000008136748609011866794_">
	<path class="st0" d="M482.96,276.9v-1.1c0-0.08,0.07-0.15,0.15-0.15s0.15,0.07,0.15,0.15v1.1c0,0.08-0.07,0.15-0.15,0.15
		S482.96,276.98,482.96,276.9z"/>
</g>
<g id="LWPOLYLINE_00000049217556066976807560000001839992357687054743_">
	<path class="st0" d="M476.72,275.07v-1.1c0-0.08,0.07-0.15,0.15-0.15c0.08,0,0.15,0.07,0.15,0.15v1.1c0,0.08-0.07,0.15-0.15,0.15
		C476.79,275.22,476.72,275.15,476.72,275.07z"/>
</g>
<g id="LWPOLYLINE_00000125569876135087483110000001461195261567952530_">
	<path class="st0" d="M477.97,275.07v-1.1c0-0.08,0.07-0.15,0.15-0.15c0.08,0,0.15,0.07,0.15,0.15v1.1c0,0.08-0.07,0.15-0.15,0.15
		C478.04,275.22,477.97,275.15,477.97,275.07z"/>
</g>
<g id="LWPOLYLINE_00000018237139256889193330000001520820636239980203_">
	<path class="st0" d="M479.22,275.07v-1.1c0-0.08,0.07-0.15,0.15-0.15c0.08,0,0.15,0.07,0.15,0.15v1.1c0,0.08-0.07,0.15-0.15,0.15
		C479.29,275.22,479.22,275.15,479.22,275.07z"/>
</g>
<g id="LWPOLYLINE_00000076589103349298068890000002813073106712770470_">
	<path class="st0" d="M480.47,275.07v-1.1c0-0.08,0.07-0.15,0.15-0.15c0.08,0,0.15,0.07,0.15,0.15v1.1c0,0.08-0.07,0.15-0.15,0.15
		C480.53,275.22,480.47,275.15,480.47,275.07z"/>
</g>
<g id="LWPOLYLINE_00000100342920690513082460000000095108043233189289_">
	<path class="st0" d="M481.71,275.07v-1.1c0-0.08,0.07-0.15,0.15-0.15c0.08,0,0.15,0.07,0.15,0.15v1.1c0,0.08-0.07,0.15-0.15,0.15
		C481.78,275.22,481.71,275.15,481.71,275.07z"/>
</g>
<g id="LWPOLYLINE_00000070095767011231346630000009086764548076368297_">
	<path class="st0" d="M482.96,275.07v-1.1c0-0.08,0.07-0.15,0.15-0.15s0.15,0.07,0.15,0.15v1.1c0,0.08-0.07,0.15-0.15,0.15
		S482.96,275.15,482.96,275.07z"/>
</g>
<g id="LWPOLYLINE_00000159448385928937018530000016741617608014962352_">
	<path class="st0" d="M476.72,273.23v-1.1c0-0.08,0.07-0.15,0.15-0.15c0.08,0,0.15,0.07,0.15,0.15v1.1c0,0.08-0.07,0.15-0.15,0.15
		C476.79,273.38,476.72,273.31,476.72,273.23z"/>
</g>
<g id="LWPOLYLINE_00000084507853085015319910000014655395622029275280_">
	<path class="st0" d="M477.97,273.23v-1.1c0-0.08,0.07-0.15,0.15-0.15c0.08,0,0.15,0.07,0.15,0.15v1.1c0,0.08-0.07,0.15-0.15,0.15
		C478.04,273.38,477.97,273.31,477.97,273.23z"/>
</g>
<g id="LWPOLYLINE_00000060732792229385022400000005531256298716582323_">
	<path class="st0" d="M479.22,273.23v-1.1c0-0.08,0.07-0.15,0.15-0.15c0.08,0,0.15,0.07,0.15,0.15v1.1c0,0.08-0.07,0.15-0.15,0.15
		C479.29,273.38,479.22,273.31,479.22,273.23z"/>
</g>
<g id="LWPOLYLINE_00000059304570265425726540000006324470991432321711_">
	<path class="st0" d="M480.47,273.23v-1.1c0-0.08,0.07-0.15,0.15-0.15c0.08,0,0.15,0.07,0.15,0.15v1.1c0,0.08-0.07,0.15-0.15,0.15
		C480.53,273.38,480.47,273.31,480.47,273.23z"/>
</g>
<g id="LWPOLYLINE_00000084522686778926805020000002434063478624206015_">
	<path class="st0" d="M481.71,273.23v-1.1c0-0.08,0.07-0.15,0.15-0.15c0.08,0,0.15,0.07,0.15,0.15v1.1c0,0.08-0.07,0.15-0.15,0.15
		C481.78,273.38,481.71,273.31,481.71,273.23z"/>
</g>
<g id="LWPOLYLINE_00000153687681039193038370000017091655436397272729_">
	<path class="st0" d="M482.96,273.23v-1.1c0-0.08,0.07-0.15,0.15-0.15s0.15,0.07,0.15,0.15v1.1c0,0.08-0.07,0.15-0.15,0.15
		S482.96,273.31,482.96,273.23z"/>
</g>
<g id="LWPOLYLINE_00000165203928274638145950000017764514576513393339_">
	<path class="st0" d="M476.72,271.4v-1.1c0-0.08,0.07-0.15,0.15-0.15c0.08,0,0.15,0.07,0.15,0.15v1.1c0,0.08-0.07,0.15-0.15,0.15
		C476.79,271.55,476.72,271.48,476.72,271.4z"/>
</g>
<g id="LWPOLYLINE_00000005253963106794416920000000732593848387974304_">
	<path class="st0" d="M477.97,271.4v-1.1c0-0.08,0.07-0.15,0.15-0.15c0.08,0,0.15,0.07,0.15,0.15v1.1c0,0.08-0.07,0.15-0.15,0.15
		C478.04,271.55,477.97,271.48,477.97,271.4z"/>
</g>
<g id="LWPOLYLINE_00000036214616086132446510000006802323234376120977_">
	<path class="st0" d="M479.22,271.4v-1.1c0-0.08,0.07-0.15,0.15-0.15c0.08,0,0.15,0.07,0.15,0.15v1.1c0,0.08-0.07,0.15-0.15,0.15
		C479.29,271.55,479.22,271.48,479.22,271.4z"/>
</g>
<g id="LWPOLYLINE_00000005970287959334834190000017297587074886919845_">
	<path class="st0" d="M480.47,271.4v-1.1c0-0.08,0.07-0.15,0.15-0.15c0.08,0,0.15,0.07,0.15,0.15v1.1c0,0.08-0.07,0.15-0.15,0.15
		C480.53,271.55,480.47,271.48,480.47,271.4z"/>
</g>
<g id="LWPOLYLINE_00000016785223288021263440000013950562201867827627_">
	<path class="st0" d="M481.71,271.4v-1.1c0-0.08,0.07-0.15,0.15-0.15c0.08,0,0.15,0.07,0.15,0.15v1.1c0,0.08-0.07,0.15-0.15,0.15
		C481.78,271.55,481.71,271.48,481.71,271.4z"/>
</g>
<g id="LWPOLYLINE_00000048468978087846541310000015843436515862540972_">
	<path class="st0" d="M482.96,271.4v-1.1c0-0.08,0.07-0.15,0.15-0.15s0.15,0.07,0.15,0.15v1.1c0,0.08-0.07,0.15-0.15,0.15
		S482.96,271.48,482.96,271.4z"/>
</g>
<g id="LWPOLYLINE_00000011008495373852838520000003017032327794375315_">
	<path class="st0" d="M477.65,287.73v1.1c0,0.08-0.07,0.15-0.15,0.15c-0.08,0-0.15-0.07-0.15-0.15v-1.1c0-0.08,0.07-0.15,0.15-0.15
		C477.58,287.58,477.65,287.65,477.65,287.73z"/>
</g>
<g id="LINE_00000001645385121394836300000014331369567884741050_">
	<path class="st0" d="M477.5,287.58"/>
	<path class="st0" d="M477.5,288.28"/>
</g>
<g id="LWPOLYLINE_00000018931687767606512160000014952191377728672655_">
	<path class="st0" d="M478.59,288.83v-1.1c0-0.08,0.07-0.15,0.15-0.15c0.08,0,0.15,0.07,0.15,0.15v1.1c0,0.08-0.07,0.15-0.15,0.15
		C478.66,288.98,478.59,288.91,478.59,288.83z"/>
</g>
<g id="LWPOLYLINE_00000036960329477963615110000013463495282409649556_">
	<path class="st0" d="M479.84,288.83v-1.1c0-0.08,0.07-0.15,0.15-0.15c0.08,0,0.15,0.07,0.15,0.15v1.1c0,0.08-0.07,0.15-0.15,0.15
		C479.91,288.98,479.84,288.91,479.84,288.83z"/>
</g>
<g id="LWPOLYLINE_00000089546712752263506290000009572798001911425962_">
	<path class="st0" d="M481.09,288.83v-1.1c0-0.08,0.07-0.15,0.15-0.15c0.08,0,0.15,0.07,0.15,0.15v1.1c0,0.08-0.07,0.15-0.15,0.15
		C481.16,288.98,481.09,288.91,481.09,288.83z"/>
</g>
<g id="LWPOLYLINE_00000011745715567475235180000006779989193397847217_">
	<path class="st0" d="M477.35,286.99v-1.1c0-0.08,0.07-0.15,0.15-0.15s0.15,0.07,0.15,0.15v1.1c0,0.08-0.07,0.15-0.15,0.15
		S477.35,287.08,477.35,286.99z"/>
</g>
<g id="LWPOLYLINE_00000134954417612905049520000001348556519261105541_">
	<path class="st0" d="M478.59,286.99v-1.1c0-0.08,0.07-0.15,0.15-0.15c0.08,0,0.15,0.07,0.15,0.15v1.1c0,0.08-0.07,0.15-0.15,0.15
		C478.66,287.14,478.59,287.08,478.59,286.99z"/>
</g>
<g id="LWPOLYLINE_00000025444734239745130250000014766318559506924672_">
	<path class="st0" d="M479.84,286.99v-1.1c0-0.08,0.07-0.15,0.15-0.15c0.08,0,0.15,0.07,0.15,0.15v1.1c0,0.08-0.07,0.15-0.15,0.15
		C479.91,287.14,479.84,287.08,479.84,286.99z"/>
</g>
<g id="LWPOLYLINE_00000017499362936552573470000004598481347341162145_">
	<path class="st0" d="M481.09,286.99v-1.1c0-0.08,0.07-0.15,0.15-0.15c0.08,0,0.15,0.07,0.15,0.15v1.1c0,0.08-0.07,0.15-0.15,0.15
		C481.16,287.14,481.09,287.08,481.09,286.99z"/>
</g>
<g id="LWPOLYLINE_00000000909200638170028870000015480455813930336437_">
	<path class="st0" d="M482.34,286.99v-1.1c0-0.08,0.07-0.15,0.15-0.15c0.08,0,0.15,0.07,0.15,0.15v1.1c0,0.08-0.07,0.15-0.15,0.15
		C482.41,287.14,482.34,287.08,482.34,286.99z"/>
</g>
<g id="LWPOLYLINE_00000067914832934968392710000009983689613829647510_">
	<path class="st0" d="M477.35,285.16v-1.1c0-0.08,0.07-0.15,0.15-0.15s0.15,0.07,0.15,0.15v1.1c0,0.08-0.07,0.15-0.15,0.15
		S477.35,285.24,477.35,285.16z"/>
</g>
<g id="LWPOLYLINE_00000086693974554455483410000009650709005491105702_">
	<path class="st0" d="M478.59,285.16v-1.1c0-0.08,0.07-0.15,0.15-0.15c0.08,0,0.15,0.07,0.15,0.15v1.1c0,0.08-0.07,0.15-0.15,0.15
		C478.66,285.31,478.59,285.24,478.59,285.16z"/>
</g>
<g id="LWPOLYLINE_00000065070518811982574260000005665034593486577806_">
	<path class="st0" d="M479.84,285.16v-1.1c0-0.08,0.07-0.15,0.15-0.15c0.08,0,0.15,0.07,0.15,0.15v1.1c0,0.08-0.07,0.15-0.15,0.15
		C479.91,285.31,479.84,285.24,479.84,285.16z"/>
</g>
<g id="LWPOLYLINE_00000151538176523511119670000005413361673848149427_">
	<path class="st0" d="M481.09,285.16v-1.1c0-0.08,0.07-0.15,0.15-0.15c0.08,0,0.15,0.07,0.15,0.15v1.1c0,0.08-0.07,0.15-0.15,0.15
		C481.16,285.31,481.09,285.24,481.09,285.16z"/>
</g>
<g id="LWPOLYLINE_00000070822340619277943360000018080033712650501280_">
	<path class="st0" d="M482.34,285.16v-1.1c0-0.08,0.07-0.15,0.15-0.15c0.08,0,0.15,0.07,0.15,0.15v1.1c0,0.08-0.07,0.15-0.15,0.15
		C482.41,285.31,482.34,285.24,482.34,285.16z"/>
</g>
<g id="LWPOLYLINE_00000060013924379438772000000015536226696692059271_">
	<path class="st0" d="M477.35,283.32v-1.1c0-0.08,0.07-0.15,0.15-0.15s0.15,0.07,0.15,0.15v1.1c0,0.08-0.07,0.15-0.15,0.15
		S477.35,283.41,477.35,283.32z"/>
</g>
<g id="LWPOLYLINE_00000053521270524699976470000005084511203928679313_">
	<path class="st0" d="M478.59,283.32v-1.1c0-0.08,0.07-0.15,0.15-0.15c0.08,0,0.15,0.07,0.15,0.15v1.1c0,0.08-0.07,0.15-0.15,0.15
		C478.66,283.47,478.59,283.41,478.59,283.32z"/>
</g>
<g id="LWPOLYLINE_00000047047979586246087890000013289853930658157969_">
	<path class="st0" d="M479.84,283.32v-1.1c0-0.08,0.07-0.15,0.15-0.15c0.08,0,0.15,0.07,0.15,0.15v1.1c0,0.08-0.07,0.15-0.15,0.15
		C479.91,283.47,479.84,283.41,479.84,283.32z"/>
</g>
<g id="LWPOLYLINE_00000145748330891024213100000018066866719524265407_">
	<path class="st0" d="M481.09,283.32v-1.1c0-0.08,0.07-0.15,0.15-0.15c0.08,0,0.15,0.07,0.15,0.15v1.1c0,0.08-0.07,0.15-0.15,0.15
		C481.16,283.47,481.09,283.41,481.09,283.32z"/>
</g>
<g id="LWPOLYLINE_00000078035243818786451020000006822659447404766347_">
	<path class="st0" d="M482.34,283.32v-1.1c0-0.08,0.07-0.15,0.15-0.15c0.08,0,0.15,0.07,0.15,0.15v1.1c0,0.08-0.07,0.15-0.15,0.15
		C482.41,283.47,482.34,283.41,482.34,283.32z"/>
</g>
<g id="LWPOLYLINE_00000003823112965577412330000016936523904875284145_">
	<path class="st0" d="M477.35,281.49v-1.1c0-0.08,0.07-0.15,0.15-0.15s0.15,0.07,0.15,0.15v1.1c0,0.08-0.07,0.15-0.15,0.15
		S477.35,281.57,477.35,281.49z"/>
</g>
<g id="LWPOLYLINE_00000148645228091211184580000007428421117591178157_">
	<path class="st0" d="M478.59,281.49v-1.1c0-0.08,0.07-0.15,0.15-0.15c0.08,0,0.15,0.07,0.15,0.15v1.1c0,0.08-0.07,0.15-0.15,0.15
		C478.66,281.64,478.59,281.57,478.59,281.49z"/>
</g>
<g id="LWPOLYLINE_00000067208844393067650380000002331281547798493607_">
	<path class="st0" d="M479.84,281.49v-1.1c0-0.08,0.07-0.15,0.15-0.15c0.08,0,0.15,0.07,0.15,0.15v1.1c0,0.08-0.07,0.15-0.15,0.15
		C479.91,281.64,479.84,281.57,479.84,281.49z"/>
</g>
<g id="LWPOLYLINE_00000144332635429409510930000016418508570914450860_">
	<path class="st0" d="M481.09,281.49v-1.1c0-0.08,0.07-0.15,0.15-0.15c0.08,0,0.15,0.07,0.15,0.15v1.1c0,0.08-0.07,0.15-0.15,0.15
		C481.16,281.64,481.09,281.57,481.09,281.49z"/>
</g>
<g id="LWPOLYLINE_00000134214653213621300800000012067152550817295784_">
	<path class="st0" d="M482.34,281.49v-1.1c0-0.08,0.07-0.15,0.15-0.15c0.08,0,0.15,0.07,0.15,0.15v1.1c0,0.08-0.07,0.15-0.15,0.15
		C482.41,281.64,482.34,281.57,482.34,281.49z"/>
</g>
<g id="LWPOLYLINE_00000070108780366740773730000009875665315267463576_">
	<path class="st0" d="M477.35,279.66v-1.1c0-0.08,0.07-0.15,0.15-0.15s0.15,0.07,0.15,0.15v1.1c0,0.08-0.07,0.15-0.15,0.15
		S477.35,279.74,477.35,279.66z"/>
</g>
<g id="LWPOLYLINE_00000018225307394667441720000016253212030445073056_">
	<path class="st0" d="M478.59,279.66v-1.1c0-0.08,0.07-0.15,0.15-0.15c0.08,0,0.15,0.07,0.15,0.15v1.1c0,0.08-0.07,0.15-0.15,0.15
		C478.66,279.81,478.59,279.74,478.59,279.66z"/>
</g>
<g id="LWPOLYLINE_00000039103720060217479610000005045462740544575146_">
	<path class="st0" d="M479.84,279.66v-1.1c0-0.08,0.07-0.15,0.15-0.15c0.08,0,0.15,0.07,0.15,0.15v1.1c0,0.08-0.07,0.15-0.15,0.15
		C479.91,279.81,479.84,279.74,479.84,279.66z"/>
</g>
<g id="LWPOLYLINE_00000072252847032024597770000013340546147168659900_">
	<path class="st0" d="M481.09,279.66v-1.1c0-0.08,0.07-0.15,0.15-0.15c0.08,0,0.15,0.07,0.15,0.15v1.1c0,0.08-0.07,0.15-0.15,0.15
		C481.16,279.81,481.09,279.74,481.09,279.66z"/>
</g>
<g id="LWPOLYLINE_00000146482533629512603310000011364247312285503144_">
	<path class="st0" d="M482.34,279.66v-1.1c0-0.08,0.07-0.15,0.15-0.15c0.08,0,0.15,0.07,0.15,0.15v1.1c0,0.08-0.07,0.15-0.15,0.15
		C482.41,279.81,482.34,279.74,482.34,279.66z"/>
</g>
<g id="LWPOLYLINE_00000134972695825826176140000005751990347182433445_">
	<path class="st0" d="M477.35,277.82v-1.1c0-0.08,0.07-0.15,0.15-0.15s0.15,0.07,0.15,0.15v1.1c0,0.08-0.07,0.15-0.15,0.15
		S477.35,277.9,477.35,277.82z"/>
</g>
<g id="LWPOLYLINE_00000034059024054737533000000000828732380735677857_">
	<path class="st0" d="M478.59,277.82v-1.1c0-0.08,0.07-0.15,0.15-0.15c0.08,0,0.15,0.07,0.15,0.15v1.1c0,0.08-0.07,0.15-0.15,0.15
		C478.66,277.97,478.59,277.9,478.59,277.82z"/>
</g>
<g id="LWPOLYLINE_00000072240604422459220350000012996237553362290823_">
	<path class="st0" d="M479.84,277.82v-1.1c0-0.08,0.07-0.15,0.15-0.15c0.08,0,0.15,0.07,0.15,0.15v1.1c0,0.08-0.07,0.15-0.15,0.15
		C479.91,277.97,479.84,277.9,479.84,277.82z"/>
</g>
<g id="LWPOLYLINE_00000113353345856807726550000009633028533709360008_">
	<path class="st0" d="M481.09,277.82v-1.1c0-0.08,0.07-0.15,0.15-0.15c0.08,0,0.15,0.07,0.15,0.15v1.1c0,0.08-0.07,0.15-0.15,0.15
		C481.16,277.97,481.09,277.9,481.09,277.82z"/>
</g>
<g id="LWPOLYLINE_00000063617212759183013800000010515495676158796980_">
	<path class="st0" d="M482.34,277.82v-1.1c0-0.08,0.07-0.15,0.15-0.15c0.08,0,0.15,0.07,0.15,0.15v1.1c0,0.08-0.07,0.15-0.15,0.15
		C482.41,277.97,482.34,277.9,482.34,277.82z"/>
</g>
<g id="LWPOLYLINE_00000176726561784728620020000006677592947124219266_">
	<path class="st0" d="M477.35,275.99v-1.1c0-0.08,0.07-0.15,0.15-0.15s0.15,0.07,0.15,0.15v1.1c0,0.08-0.07,0.15-0.15,0.15
		S477.35,276.07,477.35,275.99z"/>
</g>
<g id="LWPOLYLINE_00000152952064142504001290000012709396309559649171_">
	<path class="st0" d="M478.59,275.99v-1.1c0-0.08,0.07-0.15,0.15-0.15c0.08,0,0.15,0.07,0.15,0.15v1.1c0,0.08-0.07,0.15-0.15,0.15
		C478.66,276.14,478.59,276.07,478.59,275.99z"/>
</g>
<g id="LWPOLYLINE_00000114056947532647358560000015711488658047361414_">
	<path class="st0" d="M479.84,275.99v-1.1c0-0.08,0.07-0.15,0.15-0.15c0.08,0,0.15,0.07,0.15,0.15v1.1c0,0.08-0.07,0.15-0.15,0.15
		C479.91,276.14,479.84,276.07,479.84,275.99z"/>
</g>
<g id="LWPOLYLINE_00000109006065815186794160000010489561233530879912_">
	<path class="st0" d="M481.09,275.99v-1.1c0-0.08,0.07-0.15,0.15-0.15c0.08,0,0.15,0.07,0.15,0.15v1.1c0,0.08-0.07,0.15-0.15,0.15
		C481.16,276.14,481.09,276.07,481.09,275.99z"/>
</g>
<g id="LWPOLYLINE_00000121996162973895522170000010130511279082358712_">
	<path class="st0" d="M482.34,275.99v-1.1c0-0.08,0.07-0.15,0.15-0.15c0.08,0,0.15,0.07,0.15,0.15v1.1c0,0.08-0.07,0.15-0.15,0.15
		C482.41,276.14,482.34,276.07,482.34,275.99z"/>
</g>
<g id="LWPOLYLINE_00000098182547581916319030000004848483130624132234_">
	<path class="st0" d="M477.35,274.15v-1.1c0-0.08,0.07-0.15,0.15-0.15s0.15,0.07,0.15,0.15v1.1c0,0.08-0.07,0.15-0.15,0.15
		S477.35,274.23,477.35,274.15z"/>
</g>
<g id="LWPOLYLINE_00000028307552171176106340000001730530314177639847_">
	<path class="st0" d="M478.59,274.15v-1.1c0-0.08,0.07-0.15,0.15-0.15c0.08,0,0.15,0.07,0.15,0.15v1.1c0,0.08-0.07,0.15-0.15,0.15
		C478.66,274.3,478.59,274.23,478.59,274.15z"/>
</g>
<g id="LWPOLYLINE_00000059297872514485338580000008521961662881230267_">
	<path class="st0" d="M479.84,274.15v-1.1c0-0.08,0.07-0.15,0.15-0.15c0.08,0,0.15,0.07,0.15,0.15v1.1c0,0.08-0.07,0.15-0.15,0.15
		C479.91,274.3,479.84,274.23,479.84,274.15z"/>
</g>
<g id="LWPOLYLINE_00000095308856417317758920000011632156783317116050_">
	<path class="st0" d="M481.09,274.15v-1.1c0-0.08,0.07-0.15,0.15-0.15c0.08,0,0.15,0.07,0.15,0.15v1.1c0,0.08-0.07,0.15-0.15,0.15
		C481.16,274.3,481.09,274.23,481.09,274.15z"/>
</g>
<g id="LWPOLYLINE_00000155107404174628567580000006966347946192176573_">
	<path class="st0" d="M482.34,274.15v-1.1c0-0.08,0.07-0.15,0.15-0.15c0.08,0,0.15,0.07,0.15,0.15v1.1c0,0.08-0.07,0.15-0.15,0.15
		C482.41,274.3,482.34,274.23,482.34,274.15z"/>
</g>
<g id="LWPOLYLINE_00000163053472504429369890000003626624434847755401_">
	<path class="st0" d="M478.59,272.32v-1.1c0-0.08,0.07-0.15,0.15-0.15c0.08,0,0.15,0.07,0.15,0.15v1.1c0,0.08-0.07,0.15-0.15,0.15
		C478.66,272.47,478.59,272.4,478.59,272.32z"/>
</g>
<g id="LWPOLYLINE_00000036951862020756408000000004483567200266156711_">
	<path class="st0" d="M479.84,272.32v-1.1c0-0.08,0.07-0.15,0.15-0.15c0.08,0,0.15,0.07,0.15,0.15v1.1c0,0.08-0.07,0.15-0.15,0.15
		C479.91,272.47,479.84,272.4,479.84,272.32z"/>
</g>
<g id="LWPOLYLINE_00000138543133488905165890000010593174662944418227_">
	<path class="st0" d="M481.09,272.32v-1.1c0-0.08,0.07-0.15,0.15-0.15c0.08,0,0.15,0.07,0.15,0.15v1.1c0,0.08-0.07,0.15-0.15,0.15
		C481.16,272.47,481.09,272.4,481.09,272.32z"/>
</g>
<g id="LWPOLYLINE_00000058573036447490302660000014068257827482594475_">
	<path class="st0" d="M482.34,272.32v-1.1c0-0.08,0.07-0.15,0.15-0.15c0.08,0,0.15,0.07,0.15,0.15v1.1c0,0.08-0.07,0.15-0.15,0.15
		C482.41,272.47,482.34,272.4,482.34,272.32z"/>
</g>
<g id="LWPOLYLINE_00000043448799531568303540000001238952311172814248_">
	<path class="st0" d="M477.65,271.21v1.1c0,0.08-0.07,0.15-0.15,0.15s-0.15-0.07-0.15-0.15v-1.1c0-0.08,0.07-0.15,0.15-0.15
		S477.65,271.13,477.65,271.21z"/>
</g>
<g id="LINE_00000023266741752152983940000001534855525877887649_">
	<path class="st0" d="M477.5,271.21"/>
	<path class="st0" d="M477.5,272.31"/>
</g>
<g id="LWPOLYLINE_00000178902464239134903470000007468599552275049390_">
	<path class="st0" d="M477.65,269.38v1.1c0,0.08-0.07,0.15-0.15,0.15s-0.15-0.07-0.15-0.15v-1.1c0-0.08,0.07-0.15,0.15-0.15
		S477.65,269.3,477.65,269.38z"/>
</g>
<g id="LINE_00000100367014704255864920000008943184148177226919_">
	<path class="st0" d="M477.5,269.38"/>
	<path class="st0" d="M477.5,270.48"/>
</g>
<g id="LWPOLYLINE_00000058590147796121491430000002674566321745441664_">
	<path class="st0" d="M482.64,269.38v1.1c0,0.08-0.07,0.15-0.15,0.15c-0.08,0-0.15-0.07-0.15-0.15v-1.1c0-0.08,0.07-0.15,0.15-0.15
		C482.57,269.23,482.64,269.3,482.64,269.38z"/>
</g>
<g id="LINE_00000022526591306156610760000002495306540032540833_">
	<path class="st0" d="M482.49,269.38"/>
	<path class="st0" d="M482.49,270.48"/>
</g>
<g id="LWPOLYLINE_00000075146053246613351120000008510544888154752173_">
	<path class="st0" d="M481.39,269.38v1.1c0,0.08-0.07,0.15-0.15,0.15c-0.08,0-0.15-0.07-0.15-0.15v-1.1c0-0.08,0.07-0.15,0.15-0.15
		C481.32,269.23,481.39,269.3,481.39,269.38z"/>
</g>
<g id="LINE_00000026149389646707608410000007732429642010796702_">
	<path class="st0" d="M481.24,269.38"/>
	<path class="st0" d="M481.24,270.48"/>
</g>
<g id="LWPOLYLINE_00000171681071983839167820000000894043406848348092_">
	<path class="st0" d="M480.77,268.46v1.1c0,0.08-0.07,0.15-0.15,0.15c-0.08,0-0.15-0.07-0.15-0.15v-1.1c0-0.08,0.07-0.15,0.15-0.15
		C480.7,268.31,480.77,268.38,480.77,268.46z"/>
</g>
<g id="LINE_00000147926839289852260570000015289299582341532093_">
	<path class="st0" d="M480.62,268.46"/>
	<path class="st0" d="M480.62,269.56"/>
</g>
<g id="LWPOLYLINE_00000000909098252800511640000000220612882215469987_">
	<path class="st0" d="M479.52,268.46v1.1c0,0.08-0.07,0.15-0.15,0.15c-0.08,0-0.15-0.07-0.15-0.15v-1.1c0-0.08,0.07-0.15,0.15-0.15
		C479.45,268.31,479.52,268.38,479.52,268.46z"/>
</g>
<g id="LINE_00000114071816854856848140000005536882580881959565_">
	<path class="st0" d="M479.37,268.46"/>
	<path class="st0" d="M479.37,269.56"/>
</g>
<g id="LWPOLYLINE_00000101808262288129223960000013367046120810356641_">
	<path class="st0" d="M478.89,269.38v1.1c0,0.08-0.07,0.15-0.15,0.15c-0.08,0-0.15-0.07-0.15-0.15v-1.1c0-0.08,0.07-0.15,0.15-0.15
		C478.83,269.23,478.89,269.3,478.89,269.38z"/>
</g>
<g id="LINE_00000033364132655608232020000012247919088714831015_">
	<path class="st0" d="M478.74,269.38"/>
	<path class="st0" d="M478.74,270.48"/>
</g>
<g id="LINE_00000000198800250994289290000010083102339780476290_">
	<path class="st0" d="M478.12,268.46"/>
	<path class="st0" d="M478.12,269.56"/>
</g>
<g id="LINE_00000023965177824529008710000006413231496097690518_">
	<path class="st0" d="M482.49,287.73"/>
	<path class="st0" d="M482.49,286.99"/>
</g>
<g id="LWPOLYLINE_00000042724129623784988490000018281769321725745087_">
	<path class="st0" d="M482.34,288.83v-1.1c0-0.08,0.07-0.15,0.15-0.15c0.08,0,0.15,0.07,0.15,0.15v1.1c0,0.08-0.07,0.15-0.15,0.15
		C482.41,288.98,482.34,288.91,482.34,288.83z"/>
</g>
<g id="LINE_00000139983161104396587840000012667500686216041099_">
	<path class="st0" d="M482.49,288.83"/>
	<path class="st0" d="M482.49,287.73"/>
</g>
<g id="LWPOLYLINE_00000106141070164429313860000006033682530499684000_">
	<path class="st0" d="M481.09,290.67v-1.1c0-0.08,0.07-0.15,0.15-0.15c0.08,0,0.15,0.07,0.15,0.15v1.1c0,0.08-0.07,0.15-0.15,0.15
		C481.16,290.82,481.09,290.75,481.09,290.67z"/>
</g>
<g id="LINE_00000145043550626895748150000013900901804417927322_">
	<path class="st0" d="M481.24,290.67"/>
	<path class="st0" d="M481.24,289.57"/>
</g>
<g id="LWPOLYLINE_00000062163716341443661560000005718127213062782639_">
	<path class="st0" d="M480.47,291.58v-1.1c0-0.08,0.07-0.15,0.15-0.15c0.08,0,0.15,0.07,0.15,0.15v1.1c0,0.08-0.07,0.15-0.15,0.15
		C480.53,291.73,480.47,291.67,480.47,291.58z"/>
</g>
<g id="LINE_00000177453911281827132990000009372703083965107383_">
	<path class="st0" d="M480.62,291.58"/>
	<path class="st0" d="M480.62,290.48"/>
</g>
<g id="LWPOLYLINE_00000086679132214479982290000004119803652279145890_">
	<path class="st0" d="M479.84,290.67v-1.1c0-0.08,0.07-0.15,0.15-0.15c0.08,0,0.15,0.07,0.15,0.15v1.1c0,0.08-0.07,0.15-0.15,0.15
		C479.91,290.82,479.84,290.75,479.84,290.67z"/>
</g>
<g id="LINE_00000096757628944010391900000004135929207385367714_">
	<path class="st0" d="M479.99,290.67"/>
	<path class="st0" d="M479.99,289.57"/>
</g>
<g id="LWPOLYLINE_00000028316037493506313130000004681128637954058146_">
	<path class="st0" d="M479.22,291.58v-1.1c0-0.08,0.07-0.15,0.15-0.15c0.08,0,0.15,0.07,0.15,0.15v1.1c0,0.08-0.07,0.15-0.15,0.15
		C479.29,291.73,479.22,291.67,479.22,291.58z"/>
</g>
<g id="LINE_00000114044135787585140750000018386540302635326624_">
	<path class="st0" d="M479.37,291.58"/>
	<path class="st0" d="M479.37,290.48"/>
</g>
<g id="LWPOLYLINE_00000113333379331617735830000006452446325646282147_">
	<path class="st0" d="M478.59,290.67v-1.1c0-0.08,0.07-0.15,0.15-0.15c0.08,0,0.15,0.07,0.15,0.15v1.1c0,0.08-0.07,0.15-0.15,0.15
		C478.66,290.82,478.59,290.75,478.59,290.67z"/>
</g>
<g id="LINE_00000070809821548831854270000007451483494202726310_">
	<path class="st0" d="M478.74,290.67"/>
	<path class="st0" d="M478.74,289.57"/>
</g>
<g id="LWPOLYLINE_00000111175952534051682150000000267424042828575113_">
	<path class="st0" d="M477.35,290.67v-1.1c0-0.08,0.07-0.15,0.15-0.15c0.08,0,0.15,0.07,0.15,0.15v1.1c0,0.08-0.07,0.15-0.15,0.15
		C477.42,290.82,477.35,290.75,477.35,290.67z"/>
</g>
<g id="LINE_00000101102164435251159150000007226249164144183185_">
	<path class="st0" d="M477.5,290.67"/>
	<path class="st0" d="M477.5,289.57"/>
</g>
<g id="LINE_00000120557305592899516530000015098143457037605808_">
	<path class="st0" d="M482.49,289.57"/>
	<path class="st0" d="M482.49,288.83"/>
</g>
<g id="LWPOLYLINE_00000023273521124454061480000009412846043697081275_">
	<path class="st0" d="M477.35,291.8v-0.4c0-0.08,0.07-0.15,0.15-0.15c0.08,0,0.15,0.07,0.15,0.15v0.4c0,0.08-0.07,0.15-0.15,0.15
		C477.42,291.95,477.35,291.88,477.35,291.8z"/>
</g>
<g id="LINE_00000137098444725222551270000009500315006757434521_">
	<path class="st0" d="M477.5,291.8"/>
	<path class="st0" d="M477.5,291.4"/>
</g>
<g id="LWPOLYLINE_00000026858233647215776630000008842787690558574726_">
	<path class="st0" d="M477.97,292.4v-1.92c0-0.08,0.07-0.15,0.15-0.15c0.08,0,0.15,0.07,0.15,0.15v1.92c0,0.08-0.07,0.15-0.15,0.15
		C478.04,292.55,477.97,292.48,477.97,292.4z"/>
</g>
<g id="LINE_00000045600037623841156780000013696795628145950604_">
	<path class="st0" d="M478.12,292.4"/>
	<path class="st0" d="M478.12,290.48"/>
</g>
<g id="LWPOLYLINE_00000175290102955734932230000004324984986740297112_">
	<path class="st0" d="M478.59,292.8v-1.4c0-0.08,0.07-0.15,0.15-0.15c0.08,0,0.15,0.07,0.15,0.15v1.4c0,0.08-0.07,0.15-0.15,0.15
		C478.66,292.95,478.59,292.88,478.59,292.8z"/>
</g>
<g id="LINE_00000061445095794998775180000013581654897675669898_">
	<path class="st0" d="M478.74,292.8"/>
	<path class="st0" d="M478.74,291.4"/>
</g>
<g id="LWPOLYLINE_00000152266312413474826520000000957623730935886748_">
	<path class="st0" d="M479.22,293v-0.68c0-0.08,0.07-0.15,0.15-0.15c0.08,0,0.15,0.07,0.15,0.15V293c0,0.08-0.07,0.15-0.15,0.15
		C479.29,293.15,479.22,293.08,479.22,293z"/>
</g>
<g id="LINE_00000012436600437267736540000017970425199278867081_">
	<path class="st0" d="M479.37,293"/>
	<path class="st0" d="M479.37,292.32"/>
</g>
<g id="LWPOLYLINE_00000023242038669849004650000005147236585529622401_">
	<path class="st0" d="M479.84,293.05v-1.65c0-0.08,0.07-0.15,0.15-0.15c0.08,0,0.15,0.07,0.15,0.15v1.65c0,0.08-0.07,0.15-0.15,0.15
		C479.91,293.2,479.84,293.13,479.84,293.05z"/>
</g>
<g id="LINE_00000134947716773527747620000001506302072306027922_">
	<path class="st0" d="M479.99,293.05"/>
	<path class="st0" d="M479.99,291.4"/>
</g>
<g id="LWPOLYLINE_00000032629638268487076280000008150459465505910926_">
	<path class="st0" d="M480.47,293v-0.68c0-0.08,0.07-0.15,0.15-0.15c0.08,0,0.15,0.07,0.15,0.15V293c0,0.08-0.07,0.15-0.15,0.15
		C480.53,293.15,480.47,293.08,480.47,293z"/>
</g>
<g id="LINE_00000093860938193986756890000014703913789474009777_">
	<path class="st0" d="M480.62,293"/>
	<path class="st0" d="M480.62,292.32"/>
</g>
<g id="LWPOLYLINE_00000176010839669957230830000009013299270379815864_">
	<path class="st0" d="M481.09,292.75v-1.35c0-0.08,0.07-0.15,0.15-0.15c0.08,0,0.15,0.07,0.15,0.15v1.35c0,0.08-0.07,0.15-0.15,0.15
		C481.16,292.9,481.09,292.84,481.09,292.75z"/>
</g>
<g id="LINE_00000073712831461243122380000014102995846562176153_">
	<path class="st0" d="M481.24,292.75"/>
	<path class="st0" d="M481.24,291.4"/>
</g>
<g id="LWPOLYLINE_00000097484110332975438220000015133988447378960304_">
	<path class="st0" d="M482.34,290.67v-1.1c0-0.08,0.07-0.15,0.15-0.15c0.08,0,0.15,0.07,0.15,0.15v1.1c0,0.08-0.07,0.15-0.15,0.15
		C482.41,290.82,482.34,290.75,482.34,290.67z"/>
</g>
<g id="LINE_00000037652033748044480610000001515255028549871781_">
	<path class="st0" d="M482.49,290.67"/>
	<path class="st0" d="M482.49,289.57"/>
</g>
<g id="LWPOLYLINE_00000134972666004437154250000002456406146560903812_">
	<path class="st0" d="M482.34,291.8v-0.39c0-0.08,0.07-0.15,0.15-0.15c0.08,0,0.15,0.07,0.15,0.15v0.39c0,0.08-0.07,0.15-0.15,0.15
		C482.41,291.95,482.34,291.88,482.34,291.8z"/>
</g>
<g id="LINE_00000060726032299828048210000005641186177409718659_">
	<path class="st0" d="M482.49,291.8"/>
	<path class="st0" d="M482.49,291.4"/>
</g>
<g id="LWPOLYLINE_00000088114827725742135390000000076202785971324822_">
	<path class="st0" d="M481.71,292.4v-1.92c0-0.08,0.07-0.15,0.15-0.15c0.08,0,0.15,0.07,0.15,0.15v1.92c0,0.08-0.07,0.15-0.15,0.15
		C481.78,292.55,481.71,292.48,481.71,292.4z"/>
</g>
<g id="LINE_00000005227923866796708120000015344161805804657313_">
	<path class="st0" d="M481.86,292.4"/>
	<path class="st0" d="M481.86,290.48"/>
</g>
<g id="LWPOLYLINE_00000119093675885869883630000014185597164742133429_">
	<path class="st0" d="M482.64,268.2v0.45c0,0.08-0.07,0.15-0.15,0.15c-0.08,0-0.15-0.07-0.15-0.15v-0.45c0-0.08,0.07-0.15,0.15-0.15
		C482.57,268.05,482.64,268.11,482.64,268.2z"/>
</g>
<g id="LINE_00000142862736308927152040000013921386572915825550_">
	<path class="st0" d="M482.49,268.2"/>
	<path class="st0" d="M482.49,268.64"/>
</g>
<g id="LWPOLYLINE_00000134248041224690270590000006988245893590637185_">
	<path class="st0" d="M482.01,267.6v1.96c0,0.08-0.07,0.15-0.15,0.15c-0.08,0-0.15-0.07-0.15-0.15v-1.96c0-0.08,0.07-0.15,0.15-0.15
		C481.95,267.45,482.01,267.51,482.01,267.6z"/>
</g>
<g id="LINE_00000101801295023760481200000009823592422317289119_">
	<path class="st0" d="M481.86,267.6"/>
	<path class="st0" d="M481.86,269.56"/>
</g>
<g id="LWPOLYLINE_00000054253490035601834070000007646904896740854940_">
	<path class="st0" d="M481.39,267.2v1.45c0,0.08-0.07,0.15-0.15,0.15c-0.08,0-0.15-0.07-0.15-0.15v-1.45c0-0.08,0.07-0.15,0.15-0.15
		C481.32,267.05,481.39,267.11,481.39,267.2z"/>
</g>
<g id="LINE_00000139996433966635003490000006015764650930286228_">
	<path class="st0" d="M481.24,267.2"/>
	<path class="st0" d="M481.24,268.64"/>
</g>
<g id="LWPOLYLINE_00000158026434816819814080000013322338435700372891_">
	<path class="st0" d="M480.77,267v0.73c0,0.08-0.07,0.15-0.15,0.15c-0.08,0-0.15-0.07-0.15-0.15V267c0-0.08,0.07-0.15,0.15-0.15
		C480.7,266.85,480.77,266.91,480.77,267z"/>
</g>
<g id="LINE_00000052813019907024791700000010261191097765941673_">
	<path class="st0" d="M480.62,267"/>
	<path class="st0" d="M480.62,267.73"/>
</g>
<g id="LWPOLYLINE_00000179617157563882614430000007372795054197441152_">
	<path class="st0" d="M477.65,268.25v0.39c0,0.08-0.07,0.15-0.15,0.15s-0.15-0.07-0.15-0.15v-0.39c0-0.08,0.07-0.15,0.15-0.15
		S477.65,268.16,477.65,268.25z"/>
</g>
<g id="LINE_00000086679816769623538710000016092849108298911908_">
	<path class="st0" d="M477.5,268.25"/>
	<path class="st0" d="M477.5,268.64"/>
</g>
<g id="LWPOLYLINE_00000170260021404056263160000001332316634417873594_">
	<path class="st0" d="M478.27,267.6v1.96c0,0.08-0.07,0.15-0.15,0.15c-0.08,0-0.15-0.07-0.15-0.15v-1.96c0-0.08,0.07-0.15,0.15-0.15
		C478.2,267.45,478.27,267.51,478.27,267.6z"/>
</g>
<g id="LINE_00000145015924600723001100000009513210393372502935_">
	<path class="st0" d="M478.12,267.6"/>
	<path class="st0" d="M478.12,269.56"/>
</g>
<g id="LWPOLYLINE_00000170969393035875326340000011267501062103552920_">
	<path class="st0" d="M478.89,267.2v1.45c0,0.08-0.07,0.15-0.15,0.15c-0.08,0-0.15-0.07-0.15-0.15v-1.45c0-0.08,0.07-0.15,0.15-0.15
		C478.83,267.05,478.89,267.11,478.89,267.2z"/>
</g>
<g id="LINE_00000124870388417500589880000018190528422767175591_">
	<path class="st0" d="M478.74,268.64"/>
</g>
<g id="LWPOLYLINE_00000121243337565626247600000013829957013634537124_">
	<path class="st0" d="M479.52,267v0.73c0,0.08-0.07,0.15-0.15,0.15c-0.08,0-0.15-0.07-0.15-0.15V267c0-0.08,0.07-0.15,0.15-0.15
		C479.45,266.85,479.52,266.91,479.52,267z"/>
</g>
<g id="LINE_00000182519605488403703210000018249237465824945812_">
	<path class="st0" d="M479.37,267"/>
	<path class="st0" d="M479.37,267.73"/>
</g>
<g id="SPLINE_00000163053024186043779400000006380562463262931640_">
	<g id="XMLID_00000111882174568611965690000011161129059542304686_">
		<g>
			<path class="st1" d="M479.71,268.34c0.06,0.01,0.11,0.02,0.12,0.03c0.03,0,0.04,0,0.04-0.01c0.01,0,0.01,0.01,0.03-0.13
				c0.01-0.08,0.01-0.09,0.02-0.09c0,0,0,0,0.01,0.01c0,0.03-0.01,0.23-0.01,0.27c0,0.03,0,0.03-0.05,0.02
				c-0.1-0.03-0.11-0.03-0.11-0.02c0,0.01,0.02,0.03,0.16,0.17c0.03,0.04,0.04,0.05,0.04,0.04c0.01-0.01,0.01-0.04,0.01-0.25
				s0-0.25,0.01-0.25c0,0,0.02,0.01,0.05,0.04c0.23,0.24,0.38,0.4,0.38,0.4c0.01,0.01,0,0.02,0,0.02c-0.01,0-0.02,0-0.1-0.03
				c-0.14-0.03-0.17-0.04-0.18-0.04s-0.01,0-0.02,0.01c0,0-0.01,0.09-0.02,0.15c-0.01,0.04-0.01,0.06-0.02,0.07c0,0,0-0.23,0-0.27
				c0-0.02,0-0.02,0-0.03c0.01,0,0.01,0,0.1,0.02c0.05,0.01,0.06,0.01,0.06,0c0.01,0,0,0-0.01-0.02c-0.06-0.06-0.17-0.18-0.18-0.19
				c-0.01,0-0.01,0-0.02,0.01c0,0,0,0.04,0,0.17c0,0.17-0.01,0.31-0.01,0.31c0,0.01,0,0.01-0.01,0.01c0,0-0.15-0.15-0.22-0.23
				c-0.02-0.02-0.05-0.05-0.06-0.06c-0.04-0.05-0.1-0.1-0.12-0.12c-0.01-0.01-0.02-0.02-0.02-0.02c-0.01-0.01-0.01-0.01-0.01-0.01
				s0,0,0-0.01h0.01C479.59,268.31,479.59,268.31,479.71,268.34z"/>
		</g>
		<g>
			<path class="st2" d="M479.6,268.35c-0.01-0.01-0.02-0.02-0.02-0.02c-0.01-0.01-0.01-0.01-0.01-0.01"/>
			<path class="st2" d="M479.57,268.32C479.58,268.32,479.58,268.33,479.57,268.32"/>
			<path class="st3" d="M479.58,268.33c0,0,0.01,0.01,0.02,0.02c0.02,0.02,0.08,0.07,0.12,0.12"/>
			<path class="st3" d="M479.72,268.47c0.01,0.01,0.04,0.04,0.06,0.06"/>
			<path class="st3" d="M479.78,268.53c0.07,0.08,0.22,0.23,0.22,0.23"/>
			<path class="st3" d="M480,268.76c0.01,0,0.01,0,0.01-0.01"/>
			<path class="st3" d="M480.01,268.75c0,0,0.01-0.14,0.01-0.31"/>
			<path class="st3" d="M480.02,268.44c0-0.13,0-0.17,0-0.17"/>
			<path class="st3" d="M480.02,268.27c0.01-0.01,0.01-0.01,0.02-0.01"/>
			<path class="st3" d="M480.04,268.26c0.01,0.01,0.12,0.13,0.18,0.19"/>
			<path class="st3" d="M480.22,268.45c0.01,0.02,0.02,0.02,0.01,0.02"/>
			<path class="st3" d="M480.23,268.47c0,0.01-0.01,0.01-0.06,0"/>
			<path class="st3" d="M480.17,268.47c-0.09-0.02-0.09-0.02-0.1-0.02"/>
			<path class="st3" d="M480.07,268.45c0,0.01,0,0.01,0,0.03"/>
			<path class="st3" d="M480.07,268.48c0,0.04,0,0.27,0,0.27"/>
			<path class="st3" d="M480.07,268.76c0,0,0,0,0-0.01c0.01-0.01,0.01-0.03,0.02-0.07"/>
			<path class="st3" d="M480.09,268.68c0.01-0.06,0.02-0.15,0.02-0.15"/>
			<path class="st3" d="M480.11,268.53c0.01-0.01,0.01-0.01,0.02-0.01"/>
			<path class="st3" d="M480.13,268.52c0.01,0,0.04,0.01,0.18,0.04"/>
			<path class="st3" d="M480.31,268.56c0.08,0.03,0.09,0.03,0.1,0.03"/>
			<path class="st3" d="M480.41,268.59c0,0,0.01-0.01,0-0.02"/>
			<path class="st3" d="M480.41,268.57c0,0-0.15-0.16-0.38-0.4"/>
			<path class="st3" d="M480.03,268.17c-0.03-0.03-0.05-0.04-0.05-0.04v-0.01"/>
			<path class="st3" d="M479.98,268.13c-0.01,0-0.01,0.04-0.01,0.25"/>
			<path class="st3" d="M479.97,268.38c0,0.21,0,0.24-0.01,0.25"/>
			<path class="st3" d="M479.96,268.63c0,0.01-0.01,0-0.04-0.04"/>
			<path class="st3" d="M479.92,268.59c-0.14-0.14-0.16-0.16-0.16-0.17"/>
			<path class="st3" d="M479.76,268.42c0-0.01,0.01-0.01,0.11,0.02"/>
			<path class="st3" d="M479.87,268.44c0.05,0.01,0.05,0.01,0.05-0.02"/>
			<path class="st3" d="M479.92,268.42c0-0.04,0.01-0.24,0.01-0.27"/>
			<path class="st3" d="M479.93,268.15C479.92,268.14,479.92,268.14,479.93,268.15"/>
			<path class="st3" d="M479.92,268.13v0.01c-0.01,0-0.01,0.01-0.02,0.09"/>
			<path class="st3" d="M479.9,268.23c-0.02,0.14-0.02,0.13-0.03,0.13"/>
			<path class="st3" d="M479.87,268.36c0,0.01-0.01,0.01-0.04,0.01"/>
			<path class="st3" d="M479.83,268.37c-0.01-0.01-0.06-0.02-0.12-0.03"/>
			<path class="st3" d="M479.71,268.34c-0.12-0.03-0.12-0.03-0.13-0.03"/>
			<line class="st2" x1="479.58" y1="268.31" x2="479.57" y2="268.31"/>
			<path class="st2" d="M479.57,268.31c0,0.01,0,0.01,0,0.01"/>
		</g>
	</g>
</g>
<g id="LWPOLYLINE_00000079452972215916009550000011234261249588295560_">
	<path class="st0" d="M480.15,266.95v0.8c0,0.08-0.07,0.15-0.15,0.15c-0.08,0-0.15-0.07-0.15-0.15v-0.8c0-0.08,0.07-0.15,0.15-0.15
		C480.08,266.8,480.15,266.86,480.15,266.95z"/>
</g>
<g id="LINE_00000091700401306794453330000017247872029764836759_">
	<path class="st0" d="M480,266.8"/>
	<path class="st0" d="M480,267.9"/>
</g>
<g id="SPLINE_00000147189585563958132220000009029884421145332132_">
	<g id="XMLID_00000041287984788808210450000018445108099381640082_">
		<g>
			<path class="st1" d="M479.9,268.96c0.02-0.02,0.06-0.03,0.1-0.03c0.03,0,0.05,0,0.07,0.01c0.02,0.01,0.04,0.03,0.05,0.05
				c0.01,0.02,0.01,0.04,0.01,0.06c0,0.03-0.01,0.06-0.03,0.08c-0.02,0.03-0.06,0.04-0.1,0.04c-0.05,0-0.08-0.02-0.1-0.04
				c-0.02-0.02-0.03-0.05-0.03-0.08C479.87,269.01,479.88,268.98,479.9,268.96z M479.9,269.05c0,0.02,0.01,0.04,0.03,0.05
				c0.01,0.02,0.04,0.02,0.07,0.02s0.06,0,0.07-0.02c0.02-0.01,0.03-0.03,0.03-0.05c0-0.02-0.01-0.04-0.03-0.06
				c-0.01-0.01-0.04-0.02-0.07-0.02s-0.06,0.01-0.07,0.03C479.91,269.01,479.9,269.03,479.9,269.05z"/>
			<rect x="479.78" y="269.22" class="st1" width="0.05" height="0.04"/>
			<rect x="479.87" y="269.22" class="st1" width="0.26" height="0.04"/>
			<path class="st1" d="M479.9,269.44c0,0.02,0.01,0.03,0.03,0.04c0.01,0.02,0.04,0.02,0.07,0.02s0.06,0,0.07-0.02
				c0.02-0.01,0.03-0.03,0.03-0.05c0-0.01-0.01-0.03-0.03-0.04c-0.01-0.02-0.03-0.02-0.07-0.02c-0.03,0-0.06,0-0.07,0.02
				C479.91,269.4,479.9,269.42,479.9,269.44z M479.78,269.33h0.35v0.04h-0.04c0.03,0.01,0.04,0.04,0.04,0.07
				c0,0.02,0,0.04-0.01,0.05c-0.02,0.02-0.03,0.03-0.05,0.04c-0.02,0.01-0.04,0.02-0.07,0.02s-0.05-0.01-0.07-0.02
				c-0.02,0-0.03-0.02-0.05-0.03c-0.01-0.02-0.01-0.04-0.01-0.06s0-0.03,0.01-0.04c0-0.01,0.01-0.02,0.02-0.03h-0.12V269.33z"/>
			<path class="st1" d="M479.87,269.6h0.26v0.04h-0.04c0.03,0.02,0.04,0.04,0.04,0.08c0,0.01,0,0.03-0.01,0.04
				c0,0.01-0.01,0.02-0.02,0.03c-0.01,0.01-0.02,0.01-0.03,0.01c-0.01,0-0.02,0-0.04,0h-0.16v-0.04h0.14c0.03,0,0.04,0,0.05,0
				s0.02-0.01,0.03-0.02c0-0.01,0.01-0.02,0.01-0.03c0-0.01-0.01-0.03-0.01-0.04c-0.01-0.01-0.02-0.02-0.03-0.02
				c-0.01-0.01-0.03-0.01-0.05-0.01h-0.14V269.6z"/>
			<path class="st1" d="M479.78,269.98l0.35-0.14v0.05l-0.11,0.04v0.15l0.11,0.03v0.05l-0.35-0.13V269.98z M479.81,270
				c0.03,0.01,0.05,0.02,0.07,0.02l0.1,0.04v-0.12l-0.09,0.04C479.86,269.99,479.83,270,479.81,270z"/>
			<path class="st1" d="M480.02,270.75l-0.24-0.08v-0.06h0.35v0.04h-0.3l0.3,0.1v0.04l-0.3,0.11h0.3v0.04h-0.35v-0.07l0.24-0.08
				c0.03-0.01,0.04-0.02,0.06-0.02C480.06,270.77,480.05,270.76,480.02,270.75z"/>
			<path class="st1" d="M479.9,270.43c0,0.03,0.01,0.04,0.03,0.06c0.01,0.01,0.04,0.02,0.07,0.02s0.06-0.01,0.07-0.02
				c0.02-0.02,0.03-0.03,0.03-0.06c0-0.02-0.01-0.03-0.03-0.05c-0.01-0.01-0.04-0.02-0.07-0.02s-0.06,0.01-0.07,0.02
				C479.91,270.4,479.9,270.41,479.9,270.43z M480,270.55c-0.05,0-0.08-0.01-0.1-0.04c-0.02-0.02-0.03-0.04-0.03-0.08
				c0-0.03,0.01-0.06,0.03-0.08c0.02-0.02,0.06-0.03,0.1-0.03c0.03,0,0.05,0,0.07,0.01c0.02,0.01,0.04,0.02,0.05,0.04
				c0.01,0.02,0.01,0.04,0.01,0.06c0,0.04-0.01,0.07-0.03,0.09C480.08,270.54,480.04,270.55,480,270.55z"/>
		</g>
		<g>
			<line class="st3" x1="480.13" y1="270.94" x2="479.78" y2="270.94"/>
			<line class="st3" x1="479.78" y1="270.94" x2="479.78" y2="270.87"/>
			<line class="st3" x1="479.78" y1="270.87" x2="480.02" y2="270.79"/>
			<path class="st3" d="M480.02,270.79c0.03-0.01,0.04-0.02,0.06-0.02"/>
			<path class="st3" d="M480.08,270.77c-0.02,0-0.03-0.01-0.06-0.02"/>
			<line class="st3" x1="480.02" y1="270.75" x2="479.78" y2="270.67"/>
			<line class="st3" x1="479.78" y1="270.67" x2="479.78" y2="270.61"/>
			<line class="st3" x1="479.78" y1="270.61" x2="480.13" y2="270.61"/>
			<line class="st3" x1="480.13" y1="270.61" x2="480.13" y2="270.65"/>
			<line class="st3" x1="480.13" y1="270.65" x2="479.83" y2="270.65"/>
			<line class="st3" x1="479.83" y1="270.65" x2="480.13" y2="270.75"/>
			<line class="st3" x1="480.13" y1="270.75" x2="480.13" y2="270.79"/>
			<line class="st3" x1="480.13" y1="270.79" x2="479.83" y2="270.9"/>
			<line class="st3" x1="479.83" y1="270.9" x2="480.13" y2="270.9"/>
			<line class="st3" x1="480.13" y1="270.9" x2="480.13" y2="270.94"/>
			<path class="st3" d="M480,270.55c-0.05,0-0.08-0.01-0.1-0.04"/>
			<path class="st3" d="M479.9,270.51c-0.02-0.02-0.03-0.04-0.03-0.08"/>
			<path class="st3" d="M479.87,270.43c0-0.03,0.01-0.06,0.03-0.08"/>
			<path class="st3" d="M479.9,270.35c0.02-0.02,0.06-0.03,0.1-0.03"/>
			<path class="st3" d="M480,270.32c0.03,0,0.05,0,0.07,0.01"/>
			<path class="st3" d="M480.07,270.33c0.02,0.01,0.04,0.02,0.05,0.04"/>
			<path class="st3" d="M480.12,270.37c0.01,0.02,0.01,0.04,0.01,0.06"/>
			<path class="st3" d="M480.13,270.43c0,0.04-0.01,0.07-0.03,0.09"/>
			<path class="st3" d="M480.1,270.52c-0.02,0.02-0.06,0.03-0.1,0.03"/>
			<path class="st3" d="M480,270.51c0.03,0,0.06-0.01,0.07-0.02"/>
			<path class="st3" d="M480.07,270.49c0.02-0.02,0.03-0.03,0.03-0.06"/>
			<path class="st3" d="M480.1,270.43c0-0.02-0.01-0.03-0.03-0.05"/>
			<path class="st3" d="M480.07,270.38c-0.01-0.01-0.04-0.02-0.07-0.02"/>
			<path class="st3" d="M480,270.36c-0.03,0-0.06,0.01-0.07,0.02"/>
			<path class="st3" d="M479.93,270.38c-0.02,0.02-0.03,0.03-0.03,0.05"/>
			<path class="st3" d="M479.9,270.43c0,0.03,0.01,0.04,0.03,0.06"/>
			<path class="st3" d="M479.93,270.49c0.01,0.01,0.04,0.02,0.07,0.02"/>
			<line class="st3" x1="480.13" y1="270.16" x2="479.78" y2="270.03"/>
			<line class="st3" x1="479.78" y1="270.03" x2="479.78" y2="269.98"/>
			<line class="st3" x1="479.78" y1="269.98" x2="480.13" y2="269.84"/>
			<line class="st3" x1="480.13" y1="269.84" x2="480.13" y2="269.89"/>
			<line class="st3" x1="480.13" y1="269.89" x2="480.02" y2="269.93"/>
			<line class="st3" x1="480.02" y1="269.93" x2="480.02" y2="270.08"/>
			<line class="st3" x1="480.02" y1="270.08" x2="480.13" y2="270.11"/>
			<line class="st3" x1="480.13" y1="270.11" x2="480.13" y2="270.16"/>
			<line class="st3" x1="479.98" y1="270.06" x2="479.98" y2="269.94"/>
			<line class="st3" x1="479.98" y1="269.94" x2="479.89" y2="269.98"/>
			<path class="st3" d="M479.89,269.98c-0.03,0.01-0.06,0.02-0.08,0.02"/>
			<path class="st3" d="M479.81,270c0.03,0.01,0.05,0.02,0.07,0.02"/>
			<line class="st3" x1="479.88" y1="270.02" x2="479.98" y2="270.06"/>
			<line class="st3" x1="480.13" y1="269.64" x2="480.09" y2="269.64"/>
			<path class="st3" d="M480.09,269.64c0.03,0.02,0.04,0.04,0.04,0.08"/>
			<path class="st3" d="M480.13,269.72c0,0.01,0,0.03-0.01,0.04"/>
			<path class="st3" d="M480.12,269.76c0,0.01-0.01,0.02-0.02,0.03"/>
			<path class="st3" d="M480.1,269.79c-0.01,0.01-0.02,0.01-0.03,0.01"/>
			<path class="st3" d="M480.07,269.8c-0.01,0-0.02,0-0.04,0"/>
			<line class="st3" x1="480.03" y1="269.8" x2="479.87" y2="269.8"/>
			<line class="st3" x1="479.87" y1="269.8" x2="479.87" y2="269.76"/>
			<line class="st3" x1="479.87" y1="269.76" x2="480.01" y2="269.76"/>
			<path class="st3" d="M480.01,269.76c0.03,0,0.04,0,0.05,0"/>
			<path class="st3" d="M480.06,269.76c0.01,0,0.02-0.01,0.03-0.02"/>
			<path class="st3" d="M480.09,269.74c0-0.01,0.01-0.02,0.01-0.03"/>
			<path class="st3" d="M480.1,269.71c0-0.01-0.01-0.03-0.01-0.04"/>
			<path class="st3" d="M480.09,269.67c-0.01-0.01-0.02-0.02-0.03-0.02"/>
			<path class="st3" d="M480.06,269.65c-0.01-0.01-0.03-0.01-0.05-0.01"/>
			<line class="st3" x1="480.01" y1="269.64" x2="479.87" y2="269.64"/>
			<line class="st3" x1="479.87" y1="269.64" x2="479.87" y2="269.6"/>
			<line class="st3" x1="479.87" y1="269.6" x2="480.13" y2="269.6"/>
			<line class="st3" x1="480.13" y1="269.6" x2="480.13" y2="269.64"/>
			<line class="st3" x1="480.13" y1="269.37" x2="480.09" y2="269.37"/>
			<path class="st3" d="M480.09,269.37c0.03,0.01,0.04,0.04,0.04,0.07"/>
			<path class="st3" d="M480.13,269.44c0,0.02,0,0.04-0.01,0.05"/>
			<path class="st3" d="M480.12,269.49c-0.02,0.02-0.03,0.03-0.05,0.04"/>
			<path class="st3" d="M480.07,269.53c-0.02,0.01-0.04,0.02-0.07,0.02"/>
			<path class="st3" d="M480,269.55c-0.03,0-0.05-0.01-0.07-0.02"/>
			<path class="st3" d="M479.93,269.53c-0.02,0-0.03-0.02-0.05-0.03"/>
			<path class="st3" d="M479.88,269.5c-0.01-0.02-0.01-0.04-0.01-0.06"/>
			<path class="st3" d="M479.87,269.44c0-0.02,0-0.03,0.01-0.04"/>
			<path class="st3" d="M479.88,269.4c0-0.01,0.01-0.02,0.02-0.03"/>
			<line class="st3" x1="479.9" y1="269.37" x2="479.78" y2="269.37"/>
			<line class="st3" x1="479.78" y1="269.37" x2="479.78" y2="269.33"/>
			<line class="st3" x1="479.78" y1="269.33" x2="480.13" y2="269.33"/>
			<line class="st3" x1="480.13" y1="269.33" x2="480.13" y2="269.37"/>
			<path class="st3" d="M480,269.5c0.03,0,0.06,0,0.07-0.02"/>
			<path class="st3" d="M480.07,269.48c0.02-0.01,0.03-0.03,0.03-0.05"/>
			<path class="st3" d="M480.1,269.43c0-0.01-0.01-0.03-0.03-0.04"/>
			<path class="st3" d="M480.07,269.39c-0.01-0.02-0.03-0.02-0.07-0.02"/>
			<path class="st3" d="M480,269.37c-0.03,0-0.06,0-0.07,0.02"/>
			<path class="st3" d="M479.93,269.39c-0.02,0.01-0.03,0.03-0.03,0.05"/>
			<path class="st3" d="M479.9,269.44c0,0.02,0.01,0.03,0.03,0.04"/>
			<path class="st3" d="M479.93,269.48c0.01,0.02,0.04,0.02,0.07,0.02"/>
			<line class="st3" x1="479.83" y1="269.26" x2="479.78" y2="269.26"/>
			<line class="st3" x1="479.78" y1="269.26" x2="479.78" y2="269.22"/>
			<line class="st3" x1="479.78" y1="269.22" x2="479.83" y2="269.22"/>
			<line class="st3" x1="479.83" y1="269.22" x2="479.83" y2="269.26"/>
			<line class="st3" x1="480.13" y1="269.26" x2="479.87" y2="269.26"/>
			<line class="st3" x1="479.87" y1="269.26" x2="479.87" y2="269.22"/>
			<line class="st3" x1="479.87" y1="269.22" x2="480.13" y2="269.22"/>
			<line class="st3" x1="480.13" y1="269.22" x2="480.13" y2="269.26"/>
			<path class="st3" d="M480,269.17c-0.05,0-0.08-0.02-0.1-0.04"/>
			<path class="st3" d="M479.9,269.13c-0.02-0.02-0.03-0.05-0.03-0.08"/>
			<path class="st3" d="M479.87,269.05c0-0.04,0.01-0.07,0.03-0.09"/>
			<path class="st3" d="M479.9,268.96c0.02-0.02,0.06-0.03,0.1-0.03"/>
			<path class="st3" d="M480,268.93c0.03,0,0.05,0,0.07,0.01"/>
			<path class="st3" d="M480.07,268.94c0.02,0.01,0.04,0.03,0.05,0.05"/>
			<path class="st3" d="M480.12,268.99c0.01,0.02,0.01,0.04,0.01,0.06"/>
			<path class="st3" d="M480.13,269.05c0,0.03-0.01,0.06-0.03,0.08"/>
			<path class="st3" d="M480.1,269.13c-0.02,0.03-0.06,0.04-0.1,0.04"/>
			<path class="st3" d="M480,269.12c0.03,0,0.06,0,0.07-0.02"/>
			<path class="st3" d="M480.07,269.1c0.02-0.01,0.03-0.03,0.03-0.05"/>
			<path class="st3" d="M480.1,269.05c0-0.02-0.01-0.04-0.03-0.06"/>
			<path class="st3" d="M480.07,268.99c-0.01-0.01-0.04-0.02-0.07-0.02"/>
			<path class="st3" d="M480,268.97c-0.03,0-0.06,0.01-0.07,0.03"/>
			<path class="st3" d="M479.93,269c-0.02,0.01-0.03,0.03-0.03,0.05"/>
			<path class="st3" d="M479.9,269.05c0,0.02,0.01,0.04,0.03,0.05"/>
			<path class="st3" d="M479.93,269.1c0.01,0.02,0.04,0.02,0.07,0.02"/>
		</g>
	</g>
</g>
</svg>
