0
SECTION
2
HEADER
9
$INSUNITS
70
5
9
$ACADVER
1
AC1014
9
$HANDSEED
5
FFFF
0
ENDSEC
0
SECTION
2
TABLES
0
TABLE
2
VPORT
5
8
100
AcDbSymbolTable
0
ENDTAB
0
TABLE
2
LTYPE
5
5
100
AcDbSymbolTable
0
LTYPE
5
14
100
AcDbSymbolTableRecord
100
AcDbLinetypeTableRecord
2
BYBLOCK
70
0
0
LTYPE
5
15
100
AcDbSymbolTableRecord
100
AcDbLinetypeTableRecord
2
BYLAYER
70
0
0
ENDTAB
0
TABLE
2
LAYER
5
2
100
AcDbSymbolTable
70
2
0
LAYER
5
50
100
AcDbSymbolTableRecord
100
AcDbLayerTableRecord
2
0
70
0
6
CONTINUOUS
0
ENDTAB
0
TABLE
2
STYLE
5
3
100
AcDbSymbolTable
70
1
0
STYLE
5
11
100
AcDbSymbolTableRecord
100
AcDbTextStyleTableRecord
2
STANDARD
70
0
0
ENDTAB
0
TABLE
2
VIEW
5
6
100
AcDbSymbolTable
70
0
0
ENDTAB
0
TABLE
2
UCS
5
7
100
AcDbSymbolTable
70
0
0
ENDTAB
0
TABLE
2
APPID
5
9
100
AcDbSymbolTable
70
2
0
APPID
5
12
100
AcDbSymbolTableRecord
100
AcDbRegAppTableRecord
2
ACAD
70
0
0
ENDTAB
0
TABLE
2
DIMSTYLE
5
A
100
AcDbSymbolTable
70
1
0
ENDTAB
0
TABLE
2
BLOCK_RECORD
5
1
100
AcDbSymbolTable
70
1
0
BLOCK_RECORD
5
1F
100
AcDbSymbolTableRecord
100
AcDbBlockTableRecord
2
*MODEL_SPACE
0
BLOCK_RECORD
5
1B
100
AcDbSymbolTableRecord
100
AcDbBlockTableRecord
2
*PAPER_SPACE
0
ENDTAB
0
ENDSEC
0
SECTION
2
BLOCKS
0
BLOCK
5
20
100
AcDbEntity
100
AcDbBlockBegin
2
*MODEL_SPACE
0
ENDBLK
5
21
100
AcDbEntity
100
AcDbBlockEnd
0
BLOCK
5
1C
100
AcDbEntity
100
AcDbBlockBegin
2
*PAPER_SPACE
0
ENDBLK
5
1D
100
AcDbEntity
100
AcDbBlockEnd
0
ENDSEC
0
SECTION
2
ENTITIES
0
LINE
5
100
100
AcDbEntity
8
0
100
AcDbLine
10
-0.19060188273005441
20
11.342294686604051
30
0
11
-0.19060188273005441
21
11.452060216236621
31
0
0
SPLINE
5
101
100
AcDbEntity
8
0
100
AcDbSpline
70
0
71
3
72
10
73
6
74
0
42
0.000000001
43
0.0000000001
44
0.0000000001
40
0
40
0
40
0
40
0
40
0.055937342528654649
40
0.055937342528654649
40
0.11188182950923997
40
0.11188182950923997
40
0.11188182950923997
40
0.11188182950923997
10
-0.094898757730053518
20
11.566123002338914
30
0
10
-0.11078207249539902
20
11.575889550106977
30
0
10
-0.12666538726075732
20
11.585656097875047
30
0
10
-0.15273917690197661
20
11.61101717910195
30
0
10
-0.16272384446510452
20
11.626412982529333
30
0
10
-0.17302375773005352
20
11.642294877338916
30
0
0
SPLINE
5
102
100
AcDbEntity
8
0
100
AcDbSpline
70
0
71
3
72
10
73
6
74
0
42
0.000000001
43
0.0000000001
44
0.0000000001
40
0
40
0
40
0
40
0
40
0.059996058290420824
40
0.059996058290420824
40
0.11994605939193681
40
0.11994605939193681
40
0.11994605939193681
40
0.11994605939193681
10
-0.17302375773005352
20
11.642294877338916
30
0
10
-0.18133479125652785
20
11.660484824214057
30
0
10
-0.18905909754147945
20
11.677390630275724
30
0
10
-0.19795622445453412
20
11.714276006394886
30
0
10
-0.19896655657252593
20
11.733558736315752
30
0
10
-0.199976888690518
20
11.752841466236621
30
0
0
SPLINE
5
103
100
AcDbEntity
8
0
100
AcDbSpline
70
0
71
3
72
10
73
6
74
0
42
0.000000001
43
0.0000000001
44
0.0000000001
40
0
40
0
40
0
40
0
40
0.087090482697999017
40
0.087090482697999017
40
0.17429088315317257
40
0.17429088315317257
40
0.17429088315317257
40
0.17429088315317257
10
-0.199976888690518
20
11.752841466236621
30
0
10
-0.19775258598833248
20
11.781786288214484
30
0
10
-0.19552828328614702
20
11.810731110192348
30
0
10
-0.17533944931758322
20
11.86230356671884
30
0
10
-0.15783782344684433
20
11.883689950041475
30
0
10
-0.13864874580912279
20
11.907138341236619
30
0
0
SPLINE
5
104
100
AcDbEntity
8
0
100
AcDbSpline
70
0
71
3
72
10
73
6
74
0
42
0.000000001
43
0.0000000001
44
0.0000000001
40
0
40
0
40
0
40
0
40
0.090282606434195278
40
0.090282606434195278
40
0.18046436851608091
40
0.18046436851608091
40
0.18046436851608091
40
0.18046436851608091
10
-0.13864874580912279
20
11.907138341236619
30
0
10
-0.11510939224347813
20
11.925888270208207
30
0
10
-0.093533332884912584
20
11.943074365796246
30
0
10
-0.041975072531330399
20
11.962891934284611
30
0
10
-0.013163486571382024
20
11.965093310444331
30
0
10
0.015648099388554822
20
11.967294686604051
30
0
0
SPLINE
5
105
100
AcDbEntity
8
0
100
AcDbSpline
70
0
71
3
72
10
73
6
74
0
42
0.000000001
43
0.0000000001
44
0.0000000001
40
0
40
0
40
0
40
0
40
0.08775096025182888
40
0.08775096025182888
40
0.17558357559442545
40
0.17558357559442545
40
0.17558357559442545
40
0.17558357559442545
10
0.015648099388554822
20
11.967294686604051
30
0
10
0.044811149104546949
20
11.965036865469486
30
0
10
0.073974198820552173
20
11.962779044334919
30
0
10
0.1261712440450494
20
11.942683496092828
30
0
10
0.14812040153536962
20
11.925246723993057
30
0
10
0.17189815899319871
20
11.906357281971482
30
0
0
SPLINE
5
106
100
AcDbEntity
8
0
100
AcDbSpline
70
0
71
3
72
10
73
6
74
0
42
0.000000001
43
0.0000000001
44
0.0000000001
40
0
40
0
40
0
40
0
40
0.089148489183594651
40
0.089148489183594651
40
0.17824088350847223
40
0.17824088350847223
40
0.17824088350847223
40
0.17824088350847223
10
0.17189815899319871
20
11.906357281971482
30
0
10
0.19083407850733702
20
11.883455725272563
30
0
10
0.2085480240552896
20
11.862032053291644
30
0
10
0.22893991377456555
20
11.811028009478079
30
0
10
0.23127838754202393
20
11.782325505908496
30
0
10
0.233616861309482
20
11.753623002338914
30
0
0
SPLINE
5
107
100
AcDbEntity
8
0
100
AcDbSpline
70
0
71
3
72
10
73
6
74
0
42
0.000000001
43
0.0000000001
44
0.0000000001
40
0
40
0
40
0
40
0
40
0.057339853600371686
40
0.057339853600371686
40
0.11467752872284596
40
0.11467752872284596
40
0.11467752872284596
40
0.11467752872284596
10
0.233616861309482
20
11.753623002338914
30
0
10
0.23250975651124373
20
11.7345418083348
30
0
10
0.23142149893337155
20
11.715785450307207
30
0
10
0.22280907352902024
20
11.679460975386306
30
0
10
0.21532236030064716
20
11.6620497536789
30
0
10
0.20783564707226887
20
11.644638531971482
30
0
0
SPLINE
5
108
100
AcDbEntity
8
0
100
AcDbSpline
70
0
71
3
72
10
73
6
74
0
42
0.000000001
43
0.0000000001
44
0.0000000001
40
0
40
0
40
0
40
0
40
0.055924273815146204
40
0.055924273815146204
40
0.1118520077306828
40
0.1118520077306828
40
0.1118520077306828
40
0.1118520077306828
10
0.20783564707226887
20
11.644638531971482
30
0
10
0.19834882126799977
20
11.628591636712112
30
0
10
0.18886199546373181
20
11.612544741452746
30
0
10
0.1637538132040153
20
11.586350150279294
30
0
10
0.1482701899144967
20
11.576346908111164
30
0
10
0.13244501015133991
20
11.566123002338914
30
0
0
LINE
5
109
100
AcDbEntity
8
0
100
AcDbLine
10
0.22424188515133991
20
11.452060216236621
30
0
11
0.22424188515133903
21
11.342294686604051
31
0
0
LINE
5
110
100
AcDbEntity
8
0
100
AcDbLine
10
0.22424188515133903
20
11.342294686604051
30
0
11
-0.19060188273005441
21
11.342294686604051
31
0
0
SPLINE
5
111
100
AcDbEntity
8
0
100
AcDbSpline
70
0
71
3
72
10
73
6
74
0
42
0.000000001
43
0.0000000001
44
0.0000000001
40
0
40
0
40
0
40
0
40
0.060113297167831571
40
0.060113297167831571
40
0.12045242462303705
40
0.12045242462303705
40
0.12045242462303705
40
0.12045242462303705
10
0.065257522072267093
20
11.227450841236619
30
0
10
0.083929332181741118
20
11.220179282779867
30
0
10
0.10260114229124648
20
11.212907724323102
30
0
10
0.13649232003243791
20
11.192595991746284
30
0
10
0.15034773391981202
20
11.180343765583446
30
0
10
0.16642937323040918
20
11.166122906971482
30
0
0
SPLINE
5
112
100
AcDbEntity
8
0
100
AcDbSpline
70
0
71
3
72
10
73
6
74
0
42
0.000000001
43
0.0000000001
44
0.0000000001
40
0
40
0
40
0
40
0
40
0.051687392373263509
40
0.051687392373263509
40
0.10300369611202563
40
0.10300369611202563
40
0.10300369611202563
40
0.10300369611202563
10
0.16642937323040918
20
11.166122906971482
30
0
10
0.17738020003040497
20
11.152821691229569
30
0
10
0.18639239179277117
20
11.141875202062307
30
0
10
0.20149908226445737
20
11.114589282769325
30
0
10
0.20681578428697311
20
11.09973099950296
30
0
10
0.21213248630948023
20
11.084872716236619
30
0
0
SPLINE
5
113
100
AcDbEntity
8
0
100
AcDbSpline
70
0
71
3
72
10
73
6
74
0
42
0.000000001
43
0.0000000001
44
0.0000000001
40
0
40
0
40
0
40
0
40
0.058604745402793347
40
0.058604745402793347
40
0.11594358767562418
40
0.11594358767562418
40
0.11594358767562418
40
0.11594358767562418
10
0.21213248630948023
20
11.084872716236619
30
0
10
0.21663875720267106
20
11.065864653948735
30
0
10
0.22001360977595014
20
11.051629067707736
30
0
10
0.22384358490685485
20
11.017106058553983
30
0
10
0.22404273502909611
20
10.999817607762727
30
0
10
0.22424188515133725
20
10.982529156971482
30
0
0
LINE
5
114
100
AcDbEntity
8
0
100
AcDbLine
10
0.22424188515133725
20
10.982529156971484
30
0
11
0.22424188515133725
21
10.764951103497056
31
0
0
LINE
5
115
100
AcDbEntity
8
0
100
AcDbLine
10
0.22424188515133725
20
10.764951103497056
30
0
11
-0.34841438869052066
21
10.76495110349706
31
0
0
LINE
5
116
100
AcDbEntity
8
0
100
AcDbLine
10
-0.34841438869052066
20
10.76495110349706
30
0
11
-0.34841438869051977
21
10.976279252338918
31
0
0
SPLINE
5
117
100
AcDbEntity
8
0
100
AcDbSpline
70
0
71
3
72
10
73
6
74
0
42
0.000000001
43
0.0000000001
44
0.0000000001
40
0
40
0
40
0
40
0
40
0.055063943886420573
40
0.055063943886420573
40
0.11200540039040938
40
0.11200540039040938
40
0.11200540039040938
40
0.11200540039040938
10
-0.34841438869051977
20
10.976279252338918
30
0
10
-0.34831552900302254
20
10.994633634065805
30
0
10
-0.34821666931552531
20
11.012988015792697
30
0
10
-0.34480347599576983
20
11.049968052590202
30
0
10
-0.3417318300208782
20
11.064765614145907
30
0
10
-0.33747687676959082
20
11.085263722706349
30
0
0
SPLINE
5
118
100
AcDbEntity
8
0
100
AcDbSpline
70
0
71
3
72
10
73
6
74
0
42
0.000000001
43
0.0000000001
44
0.0000000001
40
0
40
0
40
0
40
0
40
0.051599643684142542
40
0.051599643684142542
40
0.10319953507223445
40
0.10319953507223445
40
0.10319953507223445
40
0.10319953507223445
10
-0.33747687676959082
20
11.085263722706349
30
0
10
-0.33158763367567856
20
11.101423943312509
30
0
10
-0.32569839058177008
20
11.117584163918659
30
0
10
-0.30812621199856727
20
11.146363902785433
30
0
10
-0.29647038868171977
20
11.158938954142981
30
0
10
-0.28474250176959082
20
11.171591752338916
30
0
0
SPLINE
5
119
100
AcDbEntity
8
0
100
AcDbSpline
70
0
71
3
72
10
73
6
74
0
42
0.000000001
43
0.0000000001
44
0.0000000001
40
0
40
0
40
0
40
0
40
0.057292917887928306
40
0.057292917887928306
40
0.11450121039005431
40
0.11450121039005431
40
0.11450121039005431
40
0.11450121039005431
10
-0.28474250176959082
20
11.171591752338916
30
0
10
-0.27008160872208259
20
11.183830136289778
30
0
10
-0.25680171484708664
20
11.194915712014412
30
0
10
-0.22573555186683042
20
11.213067781324254
30
0
10
-0.20875464585775599
20
11.21967351683158
30
0
10
-0.19177373984866186
20
11.226279252338916
30
0
0
SPLINE
5
120
100
AcDbEntity
8
0
100
AcDbSpline
70
0
71
3
72
10
73
6
74
0
42
0.000000001
43
0.0000000001
44
0.0000000001
40
0
40
0
40
0
40
0
40
0.076304966324322807
40
0.076304966324322807
40
0.15170731742086746
40
0.15170731742086746
40
0.15170731742086746
40
0.15170731742086746
10
-0.19177373984866186
20
11.226279252338916
30
0
10
-0.16721411171402165
20
11.232894637426806
30
0
10
-0.14781140161473974
20
11.238120954305538
30
0
10
-0.10244988161153681
20
11.244135162096088
30
0
10
-0.079533688710322681
20
11.244582064166353
30
0
10
-0.056617495809126339
20
11.245028966236619
30
0
0
SPLINE
5
121
100
AcDbEntity
8
0
100
AcDbSpline
70
0
71
3
72
10
73
6
74
0
42
0.000000001
43
0.0000000001
44
0.0000000001
40
0
40
0
40
0
40
0
40
0.062056348591559223
40
0.062056348591559223
40
0.12461576412699463
40
0.12461576412699463
40
0.12461576412699463
40
0.12461576412699463
10
-0.056617495809126339
20
11.245028966236619
30
0
10
-0.035937602696894125
20
11.244549546643434
30
0
10
-0.015257709584634844
20
11.244070127050248
30
0
10
0.025562850427471709
20
11.238393009003152
30
0
10
0.043395550795438442
20
11.233477276209021
30
0
10
0.065257522072267093
20
11.227450841236619
30
0
0
SPLINE
5
122
100
AcDbEntity
8
0
100
AcDbSpline
70
0
71
3
72
10
73
6
74
0
42
0.000000001
43
0.0000000001
44
0.0000000001
40
0
40
0
40
0
40
0
40
0.063117714084277424
40
0.063117714084277424
40
0.12018925992000275
40
0.12018925992000275
40
0.12018925992000275
40
0.12018925992000275
10
0.096507522072265317
20
10.532919758129625
30
0
10
0.075795620634219366
20
10.536616604843163
30
0
10
0.061452920519926721
20
10.539176619139262
30
0
10
0.022060094412091634
20
10.541580134372337
30
0
10
0.0032291118014267477
20
10.54135152067191
30
0
10
-0.015601870809128116
20
10.541122906971482
30
0
0
LINE
5
123
100
AcDbEntity
8
0
100
AcDbLine
10
-0.015601870809128116
20
10.541122906971482
30
0
11
-0.19060188273005707
21
10.541122906971482
31
-4.2905263986376785e-47
0
LINE
5
124
100
AcDbEntity
8
0
100
AcDbLine
10
-0.19060188273005707
20
10.541122906971482
30
-4.2905263986376785e-47
11
-0.19060188273005707
21
10.650888555813342
31
0
0
LINE
5
125
100
AcDbEntity
8
0
100
AcDbLine
10
-0.19060188273005707
20
10.650888555813342
30
0
11
0.22424188515133636
21
10.650888555813342
31
0
0
LINE
5
126
100
AcDbEntity
8
0
100
AcDbLine
10
0.22424188515133636
20
10.650888555813342
30
0
11
0.22424188515133636
21
10.548935406971482
31
0
0
LINE
5
127
100
AcDbEntity
8
0
100
AcDbLine
10
0.22424188515133636
20
10.548935406971482
30
0
11
0.16213253399319427
21
10.548935406971482
31
0
0
SPLINE
5
128
100
AcDbEntity
8
0
100
AcDbSpline
70
0
71
3
72
10
73
6
74
0
42
0.000000001
43
0.0000000001
44
0.0000000001
40
0
40
0
40
0
40
0
40
0.041193725118056627
40
0.041193725118056627
40
0.082379445808663188
40
0.082379445808663188
40
0.082379445808663188
40
0.082379445808663188
10
0.16213253399319427
20
10.548935406971482
30
0
10
0.17295223190662642
20
10.540480755242926
30
0
10
0.18336749739039768
20
10.532342132239744
30
0
10
0.20079240491186348
20
10.512396612714429
30
0
10
0.20763433253160155
20
10.500783161580165
30
0
10
0.21447626015133547
20
10.489169710445909
30
0
0
SPLINE
5
129
100
AcDbEntity
8
0
100
AcDbSpline
70
0
71
3
72
10
73
6
74
0
42
0.000000001
43
0.0000000001
44
0.0000000001
40
0
40
0
40
0
40
0
40
0.040699267355236247
40
0.040699267355236247
40
0.081399036140831854
40
0.081399036140831854
40
0.081399036140831854
40
0.081399036140831854
10
0.21447626015133547
20
10.489169710445909
30
0
10
0.22004505471972394
20
10.476798924488893
30
0
10
0.22561384928811634
20
10.464428138531867
30
0
10
0.23200195754093375
20
10.438518463466655
30
0
10
0.23280543596112938
20
10.425043549243581
30
0
10
0.23361686130947756
20
10.411435359287767
30
0
0
SPLINE
5
130
100
AcDbEntity
8
0
100
AcDbSpline
70
0
71
3
72
10
73
6
74
0
42
0.000000001
43
0.0000000001
44
0.0000000001
40
0
40
0
40
0
40
0
40
0.039332865026845215
40
0.039332865026845215
40
0.078713893364580484
40
0.078713893364580484
40
0.078713893364580484
40
0.078713893364580484
10
0.23361686130947756
20
10.411435359287767
30
0
10
0.23294944762022887
20
10.398341402658311
30
0
10
0.23228203393098079
20
10.385247446028867
30
0
10
0.22623711880897393
20
10.360212606023611
30
0
10
0.22099633422522766
20
10.348863244982805
30
0
10
0.21525749823040652
20
10.336435311604051
30
0
0
SPLINE
5
131
100
AcDbEntity
8
0
100
AcDbSpline
70
0
71
3
72
10
73
6
74
0
42
0.000000001
43
0.0000000001
44
0.0000000001
40
0
40
0
40
0
40
0
40
0.036337441809984009
40
0.036337441809984009
40
0.072684168984621961
40
0.072684168984621961
40
0.072684168984621961
40
0.072684168984621961
10
0.21525749823040652
20
10.336435311604051
30
0
10
0.20865922018137995
20
10.326277806341746
30
0
10
0.20206094213235276
20
10.316120301079442
30
0
10
0.18490126853307418
20
10.300070307190293
30
0
10
0.17452852335244992
20
10.294356306632919
30
0
10
0.16369501015133547
20
10.288388484287767
30
0
0
SPLINE
5
132
100
AcDbEntity
8
0
100
AcDbSpline
70
0
71
3
72
10
73
6
74
0
42
0.000000001
43
0.0000000001
44
0.0000000001
40
0
40
0
40
0
40
0
40
0.053229374597297617
40
0.053229374597297617
40
0.10523638717034758
40
0.10523638717034758
40
0.10523638717034758
40
0.10523638717034758
10
0.16369501015133547
20
10.288388484287767
30
0
10
0.14684461859324488
20
10.282831256171054
30
0
10
0.1342938432283437
20
10.27869203355988
30
0
10
0.10327959875978013
20
10.27400534618041
30
0
10
0.087588866955560618
20
10.273775064075947
30
0
10
0.071898135151335474
20
10.273544781971482
30
0
0
LINE
5
133
100
AcDbEntity
8
0
100
AcDbLine
10
0.071898135151335474
20
10.273544781971482
30
0
11
-0.19060188273005796
21
10.273544781971482
31
0
0
LINE
5
134
100
AcDbEntity
8
0
100
AcDbLine
10
-0.19060188273005796
20
10.273544781971482
30
0
11
-0.19060188273005796
21
10.383310311604053
31
0
0
LINE
5
135
100
AcDbEntity
8
0
100
AcDbLine
10
-0.19060188273005796
20
10.383310311604053
30
0
11
2.3099388548608601e-05
21
10.383310311604051
31
0
0
SPLINE
5
136
100
AcDbEntity
8
0
100
AcDbSpline
70
0
71
3
72
10
73
6
74
0
42
0.000000001
43
0.0000000001
44
0.0000000001
40
0
40
0
40
0
40
0
40
0.053961737428101064
40
0.053961737428101064
40
0.11437416540103897
40
0.11437416540103897
40
0.11437416540103897
40
0.11437416540103897
10
2.3099388548608601e-05
20
10.383310311604051
30
0
10
0.018009198325714446
20
10.383107193832615
30
0
10
0.035995297262787822
20
10.382904076061179
30
0
10
0.073968909884161702
20
10.384600999448335
30
0
10
0.0877175331262363
20
10.386477356406813
30
0
10
0.10744503399319338
20
10.389169686604051
30
0
0
SPLINE
5
137
100
AcDbEntity
8
0
100
AcDbSpline
70
0
71
3
72
10
73
6
74
0
42
0.000000001
43
0.0000000001
44
0.0000000001
40
0
40
0
40
0
40
0
40
0.019751896479766353
40
0.019751896479766353
40
0.039506824845086969
40
0.039506824845086969
40
0.039506824845086969
40
0.039506824845086969
10
0.10744503399319338
20
10.389169686604051
30
0
10
0.11355828212096364
20
10.391614435864136
30
0
10
0.11967153024871702
20
10.394059185124217
30
0
10
0.13009955138145193
20
10.401466876634563
30
0
10
0.1343242681836673
20
10.406366428883096
30
0
10
0.13869503399319338
20
10.411435359287767
30
0
0
SPLINE
5
138
100
AcDbEntity
8
0
100
AcDbSpline
70
0
71
3
72
10
73
6
74
0
42
0.000000001
43
0.0000000001
44
0.0000000001
40
0
40
0
40
0
40
0
40
0.023586198482659079
40
0.023586198482659079
40
0.04701902574033362
40
0.04701902574033362
40
0.04701902574033362
40
0.04701902574033362
10
0.13869503399319338
20
10.411435359287767
30
0
10
0.14252414607845532
20
10.418301943952406
30
0
10
0.14569924884636901
20
10.423995721384182
30
0
10
0.14936958998132452
20
10.437615829522114
30
0
10
0.14969636256633001
20
10.444838082484011
30
0
10
0.15002313515133547
20
10.452060335445909
30
0
0
SPLINE
5
139
100
AcDbEntity
8
0
100
AcDbSpline
70
0
71
3
72
10
73
6
74
0
42
0.000000001
43
0.0000000001
44
0.0000000001
40
0
40
0
40
0
40
0
40
0.02702543080881354
40
0.02702543080881354
40
0.054057413595726383
40
0.054057413595726383
40
0.054057413595726383
40
0.054057413595726383
10
0.15002313515133547
20
10.452060335445909
30
0
10
0.14942376916258682
20
10.461048851292412
30
0
10
0.14882440317383724
20
10.47003736713893
30
0
10
0.14377409378337835
20
10.486844956490291
30
0
10
0.13937661915917698
20
10.494482692679513
30
0
10
0.13478878399319338
20
10.50245105581334
30
0
0
SPLINE
5
140
100
AcDbEntity
8
0
100
AcDbSpline
70
0
71
3
72
10
73
6
74
0
42
0.000000001
43
0.0000000001
44
0.0000000001
40
0
40
0
40
0
40
0
40
0.025149569980461545
40
0.025149569980461545
40
0.050348934774051779
40
0.050348934774051779
40
0.050348934774051779
40
0.050348934774051779
10
0.13478878399319338
20
10.50245105581334
30
0
10
0.12958659727177357
20
10.50902487721207
30
0
10
0.12438441055036015
20
10.515598698610789
30
0
10
0.11166053158832633
20
10.525827422199248
30
0
10
0.10451075497526754
20
10.52917386090591
30
0
10
0.096507522072265317
20
10.532919758129625
30
0
0
LINE
5
141
100
AcDbEntity
8
0
100
AcDbLine
10
0.2242418851513337
20
9.5657322342877666
30
0
11
-0.22653937080913167
21
9.5657322342877666
31
0
0
LINE
5
142
100
AcDbEntity
8
0
100
AcDbLine
10
-0.22653937080913167
20
9.5657322342877666
30
0
11
0.22424188515133192
21
9.4520603354459105
31
-1.6766784545936637e-34
0
LINE
5
143
100
AcDbEntity
8
0
100
AcDbLine
10
0.22424188515133192
20
9.4520603354459105
30
-1.6766784545936637e-34
11
0.22424188515133192
21
9.3407322104459087
31
0
0
LINE
5
144
100
AcDbEntity
8
0
100
AcDbLine
10
0.22424188515133192
20
9.3407322104459087
30
0
11
-0.22653937080913256
21
9.2274509604459087
31
0
0
LINE
5
145
100
AcDbEntity
8
0
100
AcDbLine
10
-0.22653937080913256
20
9.2274509604459087
30
0
11
0.22424188515133192
21
9.2274509604459105
31
0
0
LINE
5
146
100
AcDbEntity
8
0
100
AcDbLine
10
0.22424188515133192
20
9.2274509604459105
30
0
11
0.22424188515133103
21
9.1200290854459087
31
0
0
LINE
5
147
100
AcDbEntity
8
0
100
AcDbLine
10
0.22424188515133103
20
9.1200290854459087
30
0
11
-0.34841438869052688
21
9.1200290854459123
31
0
0
LINE
5
148
100
AcDbEntity
8
0
100
AcDbLine
10
-0.34841438869052688
20
9.1200290854459123
30
0
11
-0.34841438869052688
21
9.2930759723668412
31
0
0
LINE
5
149
100
AcDbEntity
8
0
100
AcDbLine
10
-0.34841438869052688
20
9.2930759723668412
30
0
11
0.042210611309474011
21
9.396982216406375
31
0
0
LINE
5
150
100
AcDbEntity
8
0
100
AcDbLine
10
0.042210611309474011
20
9.396982216406375
30
0
11
-0.34841438869052599
21
9.4997166331296263
31
0
0
LINE
5
151
100
AcDbEntity
8
0
100
AcDbLine
10
-0.34841438869052599
20
9.4997166331296263
30
0
11
-0.3484143886905251
21
9.6731541092877702
31
0
0
LINE
5
152
100
AcDbEntity
8
0
100
AcDbLine
10
-0.3484143886905251
20
9.6731541092877702
30
0
11
0.2242418851513337
21
9.6731541092877666
31
0
0
LINE
5
153
100
AcDbEntity
8
0
100
AcDbLine
10
0.2242418851513337
20
9.6731541092877666
30
0
11
0.2242418851513337
21
9.5657322342877666
31
0
0
LWPOLYLINE
5
154
100
AcDbEntity
8
0
100
AcDbPolyline
90
4
70
1
43
0.0
10
-0.2468518588881965
20
11.342294686604053
10
-0.34841438869051888
20
11.342294686604054
10
-0.34841438869051888
20
11.452060216236623
10
-0.24685185888819561
20
11.452060216236621
0
SPLINE
5
155
100
AcDbEntity
8
0
100
AcDbSpline
70
0
71
3
72
10
73
6
74
0
42
0.000000001
43
0.0000000001
44
0.0000000001
40
0
40
0
40
0
40
0
40
0.090282624522942834
40
0.090282624522942834
40
0.18046440048994805
40
0.18046440048994805
40
0.18046440048994805
40
0.18046440048994805
10
-0.138648745809129
20
10.129794710445911
30
0
10
-0.11510935386860105
20
10.148544600917836
30
0
10
-0.093533295135354633
20
10.165730632701761
30
0
10
-0.041975032209313382
20
10.185548198224442
30
0
10
-0.013163466410379732
20
10.187749627018892
30
0
10
0.015648099388548605
20
10.18995105581334
30
0
0
SPLINE
5
156
100
AcDbEntity
8
0
100
AcDbSpline
70
0
71
3
72
10
73
6
74
0
42
0.000000001
43
0.0000000001
44
0.0000000001
40
0
40
0
40
0
40
0
40
0.087750957115559816
40
0.087750957115559816
40
0.17558357017936815
40
0.17558357017936815
40
0.17558357017936815
40
0.17558357017936815
10
0.015648099388548605
20
10.18995105581334
30
0
10
0.044811144394563157
20
10.187693187386621
30
0
10
0.073974189400571599
20
10.185435318959904
30
0
10
0.12617123521514698
20
10.165339731265979
30
0
10
0.1481203924939565
20
10.147902969818251
30
0
10
0.17189815899319338
20
10.129013531971482
30
0
0
SPLINE
5
157
100
AcDbEntity
8
0
100
AcDbSpline
70
0
71
3
72
10
73
6
74
0
42
0.000000001
43
0.0000000001
44
0.0000000001
40
0
40
0
40
0
40
0
40
0.089148851821420114
40
0.089148851821420114
40
0.17824159656639563
40
0.17824159656639563
40
0.17824159656639563
40
0.17824159656639563
10
0.17189815899319338
20
10.129013531971482
30
0
10
0.1908341760049059
20
10.106111899039245
30
0
10
0.2085480942224425
20
10.084688299104856
30
0
10
0.22893996473382613
20
10.033684203668582
30
0
10
0.23127841302165114
20
10.0049816683991
30
0
10
0.23361686130947579
20
9.9762791331296246
30
0
0
SPLINE
5
158
100
AcDbEntity
8
0
100
AcDbSpline
70
0
71
3
72
10
73
6
74
0
42
0.000000001
43
0.0000000001
44
0.0000000001
40
0
40
0
40
0
40
0
40
0.057339478324131068
40
0.057339478324131068
40
0.11467678118950655
40
0.11467678118950655
40
0.11467678118950655
40
0.11467678118950655
10
0.23361686130947579
20
9.9762791331296246
30
0
10
0.23250977928910532
20
9.9571980631063877
30
0
10
0.23142153140561453
20
9.9384416081324574
30
0
10
0.22280911886625931
20
9.9021171709291611
30
0
10
0.21532238296926434
20
9.8847059764503289
30
0
10
0.20783564707226265
20
9.8672947819714825
30
0
0
SPLINE
5
159
100
AcDbEntity
8
0
100
AcDbSpline
70
0
71
3
72
10
73
6
74
0
42
0.000000001
43
0.0000000001
44
0.0000000001
40
0
40
0
40
0
40
0
40
0.055924300642556019
40
0.055924300642556019
40
0.11185206057838912
40
0.11185206057838912
40
0.11185206057838912
40
0.11185206057838912
10
0.20783564707226265
20
9.8672947819714825
30
0
10
0.19834880955347464
20
9.8512478832493411
30
0
10
0.18886197203469937
20
9.835200984527221
30
0
10
0.16375378720640485
20
9.8090063564889274
30
0
10
0.14827015720108586
20
9.7990030643775974
30
0
10
0.1324450101513337
20
9.7887791331296246
30
0
0
SPLINE
5
160
100
AcDbEntity
8
0
100
AcDbSpline
70
0
71
3
72
10
73
6
74
0
42
0.000000001
43
0.0000000001
44
0.0000000001
40
0
40
0
40
0
40
0
40
0.068892224031427307
40
0.068892224031427307
40
0.13734594102290049
40
0.13734594102290049
40
0.13734594102290049
40
0.13734594102290049
10
0.1324450101513337
20
9.7887791331296246
30
0
10
0.11136015478476972
20
9.779680913526402
30
0
10
0.093848556557756202
20
9.7721245720906715
30
0
10
0.053160283205741315
20
9.7633890059445303
30
0
10
0.032060447257606803
20
9.762607489155684
30
0
10
0.010960611309475786
20
9.7618259723668377
30
0
0
SPLINE
5
161
100
AcDbEntity
8
0
100
AcDbSpline
70
0
71
3
72
10
73
6
74
0
42
0.000000001
43
0.0000000001
44
0.0000000001
40
0
40
0
40
0
40
0
40
0.057049706711349332
40
0.057049706711349332
40
0.11407571640506281
40
0.11407571640506281
40
0.11407571640506281
40
0.11407571640506281
10
0.010960611309475786
20
9.7618259723668377
30
0
10
-0.0080156378382219475
20
9.7630636561539301
30
0
10
-0.025979490271052407
20
9.7642353086094182
30
0
10
-0.061257505590312761
20
9.7732839811702643
30
0
10
-0.078078131660191216
20
9.781031557149948
30
0
10
-0.094898757730059735
20
9.7887791331296263
30
0
0
SPLINE
5
162
100
AcDbEntity
8
0
100
AcDbSpline
70
0
71
3
72
10
73
6
74
0
42
0.000000001
43
0.0000000001
44
0.0000000001
40
0
40
0
40
0
40
0
40
0.055937396410894062
40
0.055937396410894062
40
0.1118819320188172
40
0.1118819320188172
40
0.1118819320188172
40
0.1118819320188172
10
-0.094898757730059735
20
9.7887791331296263
30
0
10
-0.11078213347569979
20
9.7985456160148985
30
0
10
-0.12666550922134939
20
9.808312098900176
30
0
10
-0.15273928708230355
20
9.8336731897062712
30
0
10
-0.16272395683689825
20
9.8490691392986722
30
0
10
-0.17302375773005974
20
9.8649510081296263
30
0
0
SPLINE
5
163
100
AcDbEntity
8
0
100
AcDbSpline
70
0
71
3
72
10
73
6
74
0
42
0.000000001
43
0.0000000001
44
0.0000000001
40
0
40
0
40
0
40
0
40
0.059995944303639505
40
0.059995944303639505
40
0.11994584490800722
40
0.11994584490800722
40
0.11994584490800722
40
0.11994584490800722
10
-0.17302375773005974
20
9.8649510081296263
30
0
10
-0.18133472753068747
20
9.8831409423474632
30
0
10
-0.18905905130851661
20
9.9000469045596429
30
0
10
-0.19795619082164329
20
9.9369323923480053
30
0
10
-0.19896653975608372
20
9.9562151735016027
30
0
10
-0.19997688869052421
20
9.9754979546552001
30
0
0
CIRCLE
5
164
100
AcDbEntity
8
0
100
AcDbCircle
10
3.1921708489202678
20
10.618657405807033
30
0
40
0.10999999999999943
210
3.969534329608003e-64
220
-1.5657052222802257e-94
230
1
0
CIRCLE
5
165
100
AcDbEntity
8
0
100
AcDbCircle
10
-3.2140155145983549
20
10.624365258359848
30
0
40
0.10999999999999986
210
3.969534329608005e-64
220
6.8422776578360224e-49
230
1
0
CIRCLE
5
166
100
AcDbEntity
8
0
100
AcDbCircle
10
-3.2155244488378685
20
-10.675019009554251
30
0
40
0.10999999999999986
210
3.969534329608005e-64
220
6.8422776578360224e-49
230
1
0
CIRCLE
5
167
100
AcDbEntity
8
0
100
AcDbCircle
10
3.1886407677824908
20
-10.66500311524462
30
0
40
0.11000000000000076
210
3.969534329608003e-64
220
-1.5657052222802257e-94
230
1
0
LWPOLYLINE
5
168
100
AcDbEntity
8
0
100
AcDbPolyline
90
4
70
1
43
0.0
10
-2.0433353030131496
20
10.420006923139542
10
-2.0433353030131491
20
12.38400696262762
42
-0.99999999999999989
10
-1.7433353030131489
20
12.38400696262762
10
-1.7433353030131484
20
10.420006923139542
42
-0.99999999999999989
0
LWPOLYLINE
5
169
100
AcDbEntity
8
0
100
AcDbPolyline
90
6
70
1
43
0.0
10
-0.79533530301314936
20
12.256006923139543
10
-0.79533530301314925
20
12.984006971568316
42
-0.28685417462915036
10
-0.71103676130889126
20
13.118852506821856
42
-0.0056669288199162763
10
-0.63779654439734701
20
13.133817408850012
42
-0.39956252717641971
10
-0.49533530301314899
20
12.984006971568316
10
-0.49533530301314865
20
12.256006923139543
42
-0.99999999999999989
0
LWPOLYLINE
5
170
100
AcDbEntity
8
0
100
AcDbPolyline
90
4
70
1
43
0.0
10
1.076664696986851
20
9.5020050536294587
10
1.076664696986851
20
10.602005053629458
42
-0.99999999999999989
10
1.3766646969868508
20
10.602005053629458
10
1.3766646969868508
20
9.5020050536294587
42
-0.99999999999999989
0
LWPOLYLINE
5
171
100
AcDbEntity
8
0
100
AcDbPolyline
90
4
70
1
43
0.0
10
2.3246646969868512
20
11.338005053629459
10
2.3246646969868512
20
11.784006953686923
42
-0.99999999999999989
10
2.624664696986851
20
11.784006953686923
10
2.624664696986851
20
11.338005053629459
42
-0.99999999999999989
0
LWPOLYLINE
5
172
100
AcDbEntity
8
0
100
AcDbPolyline
90
4
70
1
43
0.0
10
1.7006646947516768
20
8.5850031841193761
10
1.7006646947516768
20
9.6840069231395418
42
-0.99999999999999989
10
2.0006646992220252
20
9.6840069231395418
10
2.0006646992220252
20
8.5850031841193761
42
-0.99999999999999989
0
LWPOLYLINE
5
173
100
AcDbEntity
8
0
100
AcDbPolyline
90
4
70
1
43
0.0
10
-0.79533530524832319
20
8.5850031841193761
10
-0.79533530524832319
20
9.6840069231395418
42
-0.99999999999999989
10
-0.49533530077797483
20
9.6840069231395418
10
-0.49533530077797483
20
8.5850031841193761
42
-0.99999999999999989
0
LWPOLYLINE
5
174
100
AcDbEntity
8
0
100
AcDbPolyline
90
4
70
1
43
0.0
10
-2.0433353052483234
20
8.5850031841193761
10
-2.0433353052483234
20
9.6840069231395418
42
-0.99999999999999989
10
-1.7433353007779748
20
9.6840069231395418
10
-1.7433353007779746
20
8.5850031841193761
42
-0.99999999999999989
0
LWPOLYLINE
5
175
100
AcDbEntity
8
0
100
AcDbPolyline
90
4
70
1
43
0.0
10
-3.2913353052483227
20
6.7500031841193753
10
-3.2913353052483232
20
7.849006923139541
42
-0.99999999999999989
10
-2.9913353007779748
20
7.849006923139541
10
-2.9913353007779753
20
6.7500031841193753
42
-0.99999999999999989
0
LWPOLYLINE
5
176
100
AcDbEntity
8
0
100
AcDbPolyline
90
4
70
1
43
0.0
10
-2.0433353052483234
20
3.0800031841193753
10
-2.0433353052483234
20
4.179006923139541
42
-0.99999999999999989
10
-1.7433353007779748
20
4.179006923139541
10
-1.7433353007779746
20
3.0800031841193753
42
-0.99999999999999989
0
LWPOLYLINE
5
177
100
AcDbEntity
8
0
100
AcDbPolyline
90
4
70
1
43
0.0
10
-0.79533530524832319
20
3.0800031841193753
10
-0.79533530524832319
20
4.179006923139541
42
-0.99999999999999989
10
-0.49533530077797483
20
4.179006923139541
10
-0.49533530077797483
20
3.0800031841193753
42
-0.99999999999999989
0
LWPOLYLINE
5
178
100
AcDbEntity
8
0
100
AcDbPolyline
90
4
70
1
43
0.0
10
-0.17133530301314881
20
2.1613383869627913
10
-0.17133530301314881
20
3.261338386962791
42
-0.99999999999999989
10
0.12866469698685101
20
3.261338386962791
10
0.12866469698685101
20
2.1613383869627913
42
-0.99999999999999989
0
LWPOLYLINE
5
179
100
AcDbEntity
8
0
100
AcDbPolyline
90
4
70
1
43
0.0
10
0.45266469475167659
20
1.2450031841193763
10
0.45266469475167659
20
2.344006923139542
42
-0.99999999999999989
10
0.75266469922202495
20
2.344006923139542
10
0.75266469922202495
20
1.2450031841193763
42
-0.99999999999999989
0
LWPOLYLINE
5
180
100
AcDbEntity
8
0
100
AcDbPolyline
90
4
70
1
43
0.0
10
1.076664696986851
20
2.1613383869627913
10
1.076664696986851
20
3.261338386962791
42
-0.99999999999999989
10
1.3766646969868508
20
3.261338386962791
10
1.3766646969868508
20
2.1613383869627913
42
-0.99999999999999989
0
LWPOLYLINE
5
181
100
AcDbEntity
8
0
100
AcDbPolyline
90
4
70
1
43
0.0
10
2.3246646969868512
20
5.8311161647405694
10
2.3246646969868512
20
6.931116164740569
42
-0.99999999999999989
10
2.624664696986851
20
6.931116164740569
10
2.624664696986851
20
5.8311161647405694
42
-0.99999999999999989
0
LWPOLYLINE
5
182
100
AcDbEntity
8
0
100
AcDbPolyline
90
4
70
1
43
0.0
10
2.3246646969868512
20
-1.5084393908149867
10
2.3246646969868512
20
-0.40843939081498704
42
-0.99999999999999989
10
2.624664696986851
20
-0.40843939081498526
10
2.624664696986851
20
-1.5084393908149849
42
-0.99999999999999989
0
LWPOLYLINE
5
183
100
AcDbEntity
8
0
100
AcDbPolyline
90
4
70
1
43
0.0
10
2.948664694751677
20
-0.58999681588062458
10
2.948664694751677
20
0.5090069231395411
42
-0.99999999999999989
10
3.2486646992220254
20
0.5090069231395411
10
3.2486646992220254
20
-0.58999681588062458
42
-0.99999999999999989
0
LWPOLYLINE
5
184
100
AcDbEntity
8
0
100
AcDbPolyline
90
4
70
1
43
0.0
10
1.7006646947516768
20
1.2450031841193763
10
1.7006646947516768
20
2.344006923139542
42
-0.99999999999999989
10
2.0006646992220252
20
2.344006923139542
10
2.0006646992220252
20
1.2450031841193763
42
-0.99999999999999989
0
LWPOLYLINE
5
185
100
AcDbEntity
8
0
100
AcDbPolyline
90
4
70
1
43
0.0
10
0.45266469475167659
20
-2.4249968158806237
10
0.45266469475167659
20
-1.3259930768604598
42
-0.99999999999999989
10
0.75266469922202495
20
-1.325993076860458
10
0.75266469922202495
20
-2.4249968158806254
42
-0.99999999999999989
0
LWPOLYLINE
5
186
100
AcDbEntity
8
0
100
AcDbPolyline
90
4
70
1
43
0.0
10
-2.0433353052483234
20
1.2450031841193763
10
-2.0433353052483234
20
2.344006923139542
42
-0.99999999999999989
10
-1.7433353007779748
20
2.344006923139542
10
-1.7433353007779746
20
1.2450031841193763
42
-0.99999999999999989
0
LWPOLYLINE
5
187
100
AcDbEntity
8
0
100
AcDbPolyline
90
4
70
1
43
0.0
10
-2.6673353030131484
20
3.9962272758516804
10
-2.6673353030131488
20
5.09622727585168
42
-0.99999999999999989
10
-2.367335303013149
20
5.09622727585168
10
-2.3673353030131494
20
3.9962272758516804
42
-0.99999999999999989
0
LWPOLYLINE
5
188
100
AcDbEntity
8
0
100
AcDbPolyline
90
4
70
1
43
0.0
10
-3.2913353052483227
20
1.2450031841193763
10
-3.2913353052483232
20
2.344006923139542
42
-0.99999999999999989
10
-2.9913353007779748
20
2.344006923139542
10
-2.9913353007779753
20
1.2450031841193763
42
-0.99999999999999989
0
LWPOLYLINE
5
189
100
AcDbEntity
8
0
100
AcDbPolyline
90
4
70
1
43
0.0
10
1.7006646947516768
20
-4.2599968158806245
10
1.7006646947516768
20
-3.1609930768604588
42
-0.99999999999999989
10
2.0006646992220252
20
-3.1609930768604588
10
2.0006646992220252
20
-4.2599968158806245
42
-0.99999999999999989
0
LWPOLYLINE
5
190
100
AcDbEntity
8
0
100
AcDbPolyline
90
4
70
1
43
0.0
10
-0.79533530524832319
20
-2.4249968158806237
10
-0.79533530524832319
20
-1.3259930768604598
42
-0.99999999999999989
10
-0.49533530077797483
20
-1.325993076860458
10
-0.49533530077797483
20
-2.4249968158806254
42
-0.99999999999999989
0
LWPOLYLINE
5
191
100
AcDbEntity
8
0
100
AcDbPolyline
90
4
70
1
43
0.0
10
-3.2913353052483227
20
-2.4249968158806237
10
-3.2913353052483232
20
-1.3259930768604598
42
-0.99999999999999989
10
-2.9913353007779748
20
-1.325993076860458
10
-2.9913353007779753
20
-2.4249968158806254
42
-0.99999999999999989
0
LWPOLYLINE
5
192
100
AcDbEntity
8
0
100
AcDbPolyline
90
4
70
1
43
0.0
10
-0.17133530301314881
20
-5.1782171685927629
10
-0.17133530301314881
20
-4.0782171685927633
42
-0.99999999999999989
10
0.12866469698685101
20
-4.0782171685927633
10
0.12866469698685101
20
-5.1782171685927629
42
-0.99999999999999989
0
LWPOLYLINE
5
193
100
AcDbEntity
8
0
100
AcDbPolyline
90
4
70
1
43
0.0
10
2.3246646969868512
20
-7.0131060574816502
10
2.3246646969868512
20
-5.9131060574816505
42
-0.99999999999999989
10
2.624664696986851
20
-5.9131060574816541
10
2.624664696986851
20
-7.0131060574816537
42
-0.99999999999999989
0
LWPOLYLINE
5
194
100
AcDbEntity
8
0
100
AcDbPolyline
90
4
70
1
43
0.0
10
0.45266469475167659
20
-7.929996815880628
10
0.45266469475167659
20
-6.8309930768604605
42
-0.99999999999999989
10
0.75266469922202495
20
-6.8309930768604588
10
0.75266469922202495
20
-7.9299968158806227
42
-0.99999999999999989
0
LWPOLYLINE
5
195
100
AcDbEntity
8
0
100
AcDbPolyline
90
4
70
1
43
0.0
10
-2.0433353052483234
20
-4.2599968158806245
10
-2.0433353052483234
20
-3.1609930768604588
42
-0.99999999999999989
10
-1.7433353007779748
20
-3.1609930768604588
10
-1.7433353007779746
20
-4.2599968158806245
42
-0.99999999999999989
0
LWPOLYLINE
5
196
100
AcDbEntity
8
0
100
AcDbPolyline
90
4
70
1
43
0.0
10
-1.419335303013149
20
-7.0131060574816502
10
-1.4193353030131488
20
-5.9131060574816505
42
-0.99999999999999989
10
-1.119335303013149
20
-5.9131060574816541
10
-1.1193353030131488
20
-7.0131060574816537
42
-0.99999999999999989
0
LWPOLYLINE
5
197
100
AcDbEntity
8
0
100
AcDbPolyline
90
4
70
1
43
0.0
10
2.624664696986851
20
-7.7491060574816544
10
2.624664696986851
20
-8.8491060574816487
42
-0.99999999999999989
10
2.3246646969868512
20
-8.8491060574816558
10
2.3246646969868512
20
-7.749106057481649
42
-0.99999999999999989
0
LWPOLYLINE
5
198
100
AcDbEntity
8
0
100
AcDbPolyline
90
4
70
1
43
0.0
10
2.624664696986851
20
-11.421106057481651
10
2.624664696986851
20
-11.815993397980478
42
-0.99999999999999989
10
2.3246646969868512
20
-11.815993397980485
10
2.3246646969868512
20
-11.421106057481655
42
-0.99999999999999989
0
LWPOLYLINE
5
199
100
AcDbEntity
8
0
100
AcDbPolyline
90
4
70
1
43
0.0
10
-1.419335303013149
20
-8.847994946370541
10
-1.4193353030131488
20
-7.7479949463705431
42
-0.99999999999999989
10
-1.119335303013149
20
-7.7479949463705395
10
-1.1193353030131488
20
-8.847994946370541
42
-0.99999999999999989
0
LWPOLYLINE
5
200
100
AcDbEntity
8
0
100
AcDbPolyline
90
4
70
1
43
0.0
10
-3.2913353052483227
20
-7.929996815880628
10
-3.2913353052483232
20
-6.8309930768604605
42
-0.99999999999999989
10
-2.9913353007779748
20
-6.8309930768604588
10
-2.9913353007779753
20
-7.9299968158806227
42
-0.99999999999999989
0
LWPOLYLINE
5
201
100
AcDbEntity
8
0
100
AcDbPolyline
90
4
70
1
43
0.0
10
-0.4953353030131491
20
-10.500996815880626
10
-0.49533530301314899
20
-11.600996815880624
42
-0.99999999999999989
10
-0.79533530301314903
20
-11.600996815880627
10
-0.79533530301314892
20
-10.500996815880626
42
-0.99999999999999989
0
LWPOLYLINE
5
202
100
AcDbEntity
8
0
100
AcDbPolyline
90
4
70
1
43
0.0
10
1.3766646969868508
20
-11.419994946370544
10
1.3766646969868508
20
-12.770727110090185
42
-0.99999999999999989
10
1.076664696986851
20
-12.770727110090192
10
1.076664696986851
20
-11.41999494637054
42
-0.99999999999999989
0
LWPOLYLINE
5
203
100
AcDbEntity
8
0
100
AcDbPolyline
90
6
70
1
43
0.0
10
-1.1193353030131492
20
-11.419994946370544
10
-1.1193353030131492
20
-12.819994946370542
42
-0.50583129318295816
10
-1.3140086577720624
20
-12.963188142349207
42
-0.0024418395809576374
10
-1.3435506914505861
20
-12.950348604236673
42
-0.2695654419582858
10
-1.4193353030131488
20
-12.819994946370542
10
-1.4193353030131486
20
-11.41999494637054
42
-0.99999999999999989
0
LWPOLYLINE
5
204
100
AcDbEntity
8
0
100
AcDbPolyline
90
4
70
1
43
0.0
10
-1.7433353030131489
20
-10.500996815880626
10
-1.7433353030131493
20
-12.415993406921174
42
-0.99999999999999989
10
-2.0433353030131487
20
-12.415993406921181
10
-2.0433353030131491
20
-10.500996815880626
42
-0.99999999999999989
0
LWPOLYLINE
5
205
100
AcDbEntity
8
0
100
AcDbPolyline
90
4
70
1
43
0.0
10
0.75266469698685068
20
-12.336996815880624
10
0.75266469698685068
20
-13.015993415861871
42
-0.99999999999999989
10
0.45266469698685086
20
-13.015993415861878
10
0.45266469698685086
20
-12.336996815880628
42
-0.99999999999999989
0
LWPOLYLINE
5
206
100
AcDbEntity
8
0
100
AcDbPolyline
90
4
70
1
43
0.0
10
0.75266469698685068
20
-10.500996815880626
10
0.75266469698685079
20
-11.600996815880624
42
-0.99999999999999989
10
0.45266469698685075
20
-11.600996815880627
10
0.45266469698685086
20
-10.500996815880626
42
-0.99999999999999989
0
LWPOLYLINE
5
207
100
AcDbEntity
8
0
100
AcDbPolyline
90
4
70
1
43
0.0
10
-2.6663527340554829
20
-8.847994946370541
10
-2.6663527340554833
20
-7.7479949463705431
42
-0.99999999999999989
10
-2.3663527340554835
20
-7.7479949463705395
10
-2.366352734055484
20
-8.847994946370541
42
-0.99999999999999989
0
LWPOLYLINE
5
208
100
AcDbEntity
8
0
100
AcDbPolyline
90
4
70
1
43
0.0
10
-2.0433353052483234
20
-7.929996815880628
10
-2.0433353052483234
20
-6.8309930768604605
42
-0.99999999999999989
10
-1.7433353007779748
20
-6.8309930768604588
10
-1.7433353007779746
20
-7.9299968158806227
42
-0.99999999999999989
0
LWPOLYLINE
5
209
100
AcDbEntity
8
0
100
AcDbPolyline
90
4
70
1
43
0.0
10
0.45266469475167659
20
-9.7649968158806288
10
0.45266469475167659
20
-8.6659930768604596
42
-0.99999999999999989
10
0.75266469922202495
20
-8.6659930768604596
10
0.75266469922202495
20
-9.7649968158806217
42
-0.99999999999999989
0
LWPOLYLINE
5
210
100
AcDbEntity
8
0
100
AcDbPolyline
90
4
70
1
43
0.0
10
2.948664694751677
20
-9.7649968158806288
10
2.948664694751677
20
-8.6659930768604596
42
-0.99999999999999989
10
3.2486646992220254
20
-8.6659930768604596
10
3.2486646992220254
20
-9.7649968158806217
42
-0.99999999999999989
0
LWPOLYLINE
5
211
100
AcDbEntity
8
0
100
AcDbPolyline
90
4
70
1
43
0.0
10
-0.79533530524832319
20
-7.929996815880628
10
-0.79533530524832319
20
-6.8309930768604605
42
-0.99999999999999989
10
-0.49533530077797483
20
-6.8309930768604588
10
-0.49533530077797483
20
-7.9299968158806227
42
-0.99999999999999989
0
LWPOLYLINE
5
212
100
AcDbEntity
8
0
100
AcDbPolyline
90
4
70
1
43
0.0
10
-3.2913353052483227
20
-4.2599968158806245
10
-3.2913353052483232
20
-3.1609930768604588
42
-0.99999999999999989
10
-2.9913353007779748
20
-3.1609930768604588
10
-2.9913353007779753
20
-4.2599968158806245
42
-0.99999999999999989
0
LWPOLYLINE
5
213
100
AcDbEntity
8
0
100
AcDbPolyline
90
4
70
1
43
0.0
10
-0.17133530301314881
20
-7.0131060574816502
10
-0.17133530301314881
20
-5.9131060574816505
42
-0.99999999999999989
10
0.12866469698685101
20
-5.9131060574816541
10
0.12866469698685101
20
-7.0131060574816537
42
-0.99999999999999989
0
LWPOLYLINE
5
214
100
AcDbEntity
8
0
100
AcDbPolyline
90
4
70
1
43
0.0
10
2.948664694751677
20
-6.0949968158806254
10
2.948664694751677
20
-4.9959930768604597
42
-0.99999999999999989
10
3.2486646992220254
20
-4.9959930768604597
10
3.2486646992220254
20
-6.0949968158806254
42
-0.99999999999999989
0
LWPOLYLINE
5
215
100
AcDbEntity
8
0
100
AcDbPolyline
90
4
70
1
43
0.0
10
0.45266469475167659
20
-6.0949968158806254
10
0.45266469475167659
20
-4.9959930768604597
42
-0.99999999999999989
10
0.75266469922202495
20
-4.9959930768604597
10
0.75266469922202495
20
-6.0949968158806254
42
-0.99999999999999989
0
LWPOLYLINE
5
216
100
AcDbEntity
8
0
100
AcDbPolyline
90
4
70
1
43
0.0
10
-2.6673353030131484
20
-3.3433282797038739
10
-2.6673353030131488
20
-2.2433282797038743
42
-0.99999999999999989
10
-2.367335303013149
20
-2.243328279703876
10
-2.3673353030131494
20
-3.3433282797038757
42
-0.99999999999999989
0
LWPOLYLINE
5
217
100
AcDbEntity
8
0
100
AcDbPolyline
90
4
70
1
43
0.0
10
-1.419335303013149
20
-1.5084393908149867
10
-1.4193353030131488
20
-0.40843939081498704
42
-0.99999999999999989
10
-1.119335303013149
20
-0.40843939081498526
10
-1.1193353030131488
20
-1.5084393908149849
42
-0.99999999999999989
0
LWPOLYLINE
5
218
100
AcDbEntity
8
0
100
AcDbPolyline
90
4
70
1
43
0.0
10
1.076664696986851
20
-5.1782171685927629
10
1.076664696986851
20
-4.0782171685927633
42
-0.99999999999999989
10
1.3766646969868508
20
-4.0782171685927633
10
1.3766646969868508
20
-5.1782171685927629
42
-0.99999999999999989
0
LWPOLYLINE
5
219
100
AcDbEntity
8
0
100
AcDbPolyline
90
4
70
1
43
0.0
10
2.3246646969868512
20
-3.3433282797038739
10
2.3246646969868512
20
-2.2433282797038743
42
-0.99999999999999989
10
2.624664696986851
20
-2.243328279703876
10
2.624664696986851
20
-3.3433282797038757
42
-0.99999999999999989
0
LWPOLYLINE
5
220
100
AcDbEntity
8
0
100
AcDbPolyline
90
4
70
1
43
0.0
10
-3.2913353052483227
20
4.9150031841193762
10
-3.2913353052483232
20
6.0140069231395419
42
-0.99999999999999989
10
-2.9913353007779748
20
6.0140069231395419
10
-2.9913353007779753
20
4.9150031841193762
42
-0.99999999999999989
0
LWPOLYLINE
5
221
100
AcDbEntity
8
0
100
AcDbPolyline
90
4
70
1
43
0.0
10
-2.0433353052483234
20
-0.58999681588062458
10
-2.0433353052483234
20
0.5090069231395411
42
-0.99999999999999989
10
-1.7433353007779748
20
0.5090069231395411
10
-1.7433353007779746
20
-0.58999681588062458
42
-0.99999999999999989
0
LWPOLYLINE
5
222
100
AcDbEntity
8
0
100
AcDbPolyline
90
4
70
1
43
0.0
10
-0.17133530301314881
20
-1.5084393908149867
10
-0.17133530301314881
20
-0.40843939081498704
42
-0.99999999999999989
10
0.12866469698685101
20
-0.40843939081498526
10
0.12866469698685101
20
-1.5084393908149849
42
-0.99999999999999989
0
LWPOLYLINE
5
223
100
AcDbEntity
8
0
100
AcDbPolyline
90
4
70
1
43
0.0
10
1.7006646947516768
20
-0.58999681588062458
10
1.7006646947516768
20
0.5090069231395411
42
-0.99999999999999989
10
2.0006646992220252
20
0.5090069231395411
10
2.0006646992220252
20
-0.58999681588062458
42
-0.99999999999999989
0
LWPOLYLINE
5
224
100
AcDbEntity
8
0
100
AcDbPolyline
90
4
70
1
43
0.0
10
2.948664694751677
20
-2.4249968158806237
10
2.948664694751677
20
-1.3259930768604598
42
-0.99999999999999989
10
3.2486646992220254
20
-1.325993076860458
10
3.2486646992220254
20
-2.4249968158806254
42
-0.99999999999999989
0
LWPOLYLINE
5
225
100
AcDbEntity
8
0
100
AcDbPolyline
90
4
70
1
43
0.0
10
2.948664694751677
20
4.9150031841193762
10
2.948664694751677
20
6.0140069231395419
42
-0.99999999999999989
10
3.2486646992220254
20
6.0140069231395419
10
3.2486646992220254
20
4.9150031841193762
42
-0.99999999999999989
0
LWPOLYLINE
5
226
100
AcDbEntity
8
0
100
AcDbPolyline
90
4
70
1
43
0.0
10
2.3246646969868512
20
3.9962272758516804
10
2.3246646969868512
20
5.09622727585168
42
-0.99999999999999989
10
2.624664696986851
20
5.09622727585168
10
2.624664696986851
20
3.9962272758516804
42
-0.99999999999999989
0
LWPOLYLINE
5
227
100
AcDbEntity
8
0
100
AcDbPolyline
90
4
70
1
43
0.0
10
1.076664696986851
20
3.9962272758516804
10
1.076664696986851
20
5.09622727585168
42
-0.99999999999999989
10
1.3766646969868508
20
5.09622727585168
10
1.3766646969868508
20
3.9962272758516804
42
-0.99999999999999989
0
LWPOLYLINE
5
228
100
AcDbEntity
8
0
100
AcDbPolyline
90
4
70
1
43
0.0
10
0.45266469475167659
20
-0.58999681588062458
10
0.45266469475167659
20
0.5090069231395411
42
-0.99999999999999989
10
0.75266469922202495
20
0.5090069231395411
10
0.75266469922202495
20
-0.58999681588062458
42
-0.99999999999999989
0
LWPOLYLINE
5
229
100
AcDbEntity
8
0
100
AcDbPolyline
90
4
70
1
43
0.0
10
-0.17133530301314881
20
0.32644949807390233
10
-0.17133530301314881
20
1.426449498073902
42
-0.99999999999999989
10
0.12866469698685101
20
1.426449498073902
10
0.12866469698685101
20
0.32644949807390233
42
-0.99999999999999989
0
LWPOLYLINE
5
230
100
AcDbEntity
8
0
100
AcDbPolyline
90
4
70
1
43
0.0
10
-0.79533530524832319
20
4.9150031841193762
10
-0.79533530524832319
20
6.0140069231395419
42
-0.99999999999999989
10
-0.49533530077797483
20
6.0140069231395419
10
-0.49533530077797483
20
4.9150031841193762
42
-0.99999999999999989
0
LWPOLYLINE
5
231
100
AcDbEntity
8
0
100
AcDbPolyline
90
4
70
1
43
0.0
10
-1.419335303013149
20
3.9962272758516804
10
-1.4193353030131488
20
5.09622727585168
42
-0.99999999999999989
10
-1.119335303013149
20
5.09622727585168
10
-1.1193353030131488
20
3.9962272758516804
42
-0.99999999999999989
0
LWPOLYLINE
5
232
100
AcDbEntity
8
0
100
AcDbPolyline
90
4
70
1
43
0.0
10
-2.6673353030131484
20
5.8311161647405694
10
-2.6673353030131488
20
6.931116164740569
42
-0.99999999999999989
10
-2.367335303013149
20
6.931116164740569
10
-2.3673353030131494
20
5.8311161647405694
42
-0.99999999999999989
0
LWPOLYLINE
5
233
100
AcDbEntity
8
0
100
AcDbPolyline
90
4
70
1
43
0.0
10
-2.6673353030131484
20
7.6671161647405688
10
-2.6673353030131488
20
8.7671161647405693
42
-0.99999999999999989
10
-2.367335303013149
20
8.7671161647405693
10
-2.3673353030131494
20
7.6671161647405688
42
-0.99999999999999989
0
LWPOLYLINE
5
234
100
AcDbEntity
8
0
100
AcDbPolyline
90
4
70
1
43
0.0
10
-0.17133530301314881
20
7.6660050536294584
10
-0.17133530301314881
20
8.766005053629458
42
-0.99999999999999989
10
0.12866469698685101
20
8.766005053629458
10
0.12866469698685101
20
7.6660050536294584
42
-0.99999999999999989
0
LWPOLYLINE
5
235
100
AcDbEntity
8
0
100
AcDbPolyline
90
4
70
1
43
0.0
10
1.076664696986851
20
7.6660050536294584
10
1.076664696986851
20
8.766005053629458
42
-0.99999999999999989
10
1.3766646969868508
20
8.766005053629458
10
1.3766646969868508
20
7.6660050536294584
42
-0.99999999999999989
0
LWPOLYLINE
5
236
100
AcDbEntity
8
0
100
AcDbPolyline
90
4
70
1
43
0.0
10
2.948664694751677
20
8.5850031841193761
10
2.948664694751677
20
9.6840069231395418
42
-0.99999999999999989
10
3.2486646992220254
20
9.6840069231395418
10
3.2486646992220254
20
8.5850031841193761
42
-0.99999999999999989
0
LWPOLYLINE
5
237
100
AcDbEntity
8
0
100
AcDbPolyline
90
4
70
1
43
0.0
10
1.076664696986851
20
11.338005053629459
10
1.076664696986851
20
12.784006968588084
42
-0.99999999999999989
10
1.3766646969868508
20
12.784006968588084
10
1.3766646969868508
20
11.338005053629459
42
-0.99999999999999989
0
LWPOLYLINE
5
238
100
AcDbEntity
8
0
100
AcDbPolyline
90
4
70
1
43
0.0
10
-0.16635269680258036
20
12.234006958157272
10
-0.16635269680258041
20
13.033805780410578
42
-0.99999999999999989
10
0.13364730319741952
20
13.033805780410578
10
0.13364730319741946
20
12.234006958157272
42
-0.99999999999999989
0
LWPOLYLINE
5
239
100
AcDbEntity
8
0
100
AcDbPolyline
90
6
70
1
43
0.0
10
-1.419335303013149
20
11.338005053629459
10
-1.4193353030131486
20
12.784006968588084
42
-0.25850124370932165
10
-1.3488786730285869
20
12.911179498194864
42
-0.0033773049009991917
10
-1.3080174874475734
20
12.928933462395742
42
-0.49284374803992154
10
-1.119335303013149
20
12.784006968588084
10
-1.1193353030131488
20
11.338005053629459
42
-0.99999999999999989
0
LWPOLYLINE
5
240
100
AcDbEntity
8
0
100
AcDbPolyline
90
4
70
1
43
0.0
10
-2.6673353030131484
20
11.33911616474057
10
-2.6673353030131488
20
11.734006952941865
42
-0.99999999999999989
10
-2.367335303013149
20
11.734006952941865
10
-2.3673353030131494
20
11.33911616474057
42
-0.99999999999999989
0
LWPOLYLINE
5
241
100
AcDbEntity
8
0
100
AcDbPolyline
90
4
70
1
43
0.0
10
-0.79533530301314936
20
10.420006923139542
10
-0.79533530301314903
20
11.520006923139542
42
-0.99999999999999989
10
-0.49533530301314899
20
11.520006923139542
10
-0.49533530301314865
20
10.420006923139542
42
-0.99999999999999989
0
LWPOLYLINE
5
242
100
AcDbEntity
8
0
100
AcDbPolyline
90
4
70
1
43
0.0
10
0.45266469698685086
20
10.420006923139542
10
0.45266469698685086
20
11.520006923139542
42
-0.99999999999999989
10
0.75266469698685068
20
11.520006923139542
10
0.75266469698685068
20
10.420006923139542
42
-0.99999999999999989
0
LWPOLYLINE
5
243
100
AcDbEntity
8
0
100
AcDbPolyline
90
4
70
1
43
0.0
10
2.3246646969868512
20
9.5020050536294587
10
2.3246646969868512
20
10.602005053629458
42
-0.99999999999999989
10
2.624664696986851
20
10.602005053629458
10
2.624664696986851
20
9.5020050536294587
42
-0.99999999999999989
0
LWPOLYLINE
5
244
100
AcDbEntity
8
0
100
AcDbPolyline
90
4
70
1
43
0.0
10
2.3246646969868512
20
7.6660050536294584
10
2.3246646969868512
20
8.766005053629458
42
-0.99999999999999989
10
2.624664696986851
20
8.766005053629458
10
2.624664696986851
20
7.6660050536294584
42
-0.99999999999999989
0
LWPOLYLINE
5
245
100
AcDbEntity
8
0
100
AcDbPolyline
90
4
70
1
43
0.0
10
0.45266469475167659
20
6.7500031841193753
10
0.45266469475167659
20
7.849006923139541
42
-0.99999999999999989
10
0.75266469922202495
20
7.849006923139541
10
0.75266469922202495
20
6.7500031841193753
42
-0.99999999999999989
0
LWPOLYLINE
5
246
100
AcDbEntity
8
0
100
AcDbPolyline
90
4
70
1
43
0.0
10
-1.419335303013149
20
7.6660050536294584
10
-1.4193353030131488
20
8.766005053629458
42
-0.99999999999999989
10
-1.119335303013149
20
8.766005053629458
10
-1.1193353030131488
20
7.6660050536294584
42
-0.99999999999999989
0
LWPOLYLINE
5
247
100
AcDbEntity
8
0
100
AcDbPolyline
90
4
70
1
43
0.0
10
-2.0433353052483234
20
6.7500031841193753
10
-2.0433353052483234
20
7.849006923139541
42
-0.99999999999999989
10
-1.7433353007779748
20
7.849006923139541
10
-1.7433353007779746
20
6.7500031841193753
42
-0.99999999999999989
0
LWPOLYLINE
5
248
100
AcDbEntity
8
0
100
AcDbPolyline
90
4
70
1
43
0.0
10
-2.0433353052483234
20
4.9150031841193762
10
-2.0433353052483234
20
6.0140069231395419
42
-0.99999999999999989
10
-1.7433353007779748
20
6.0140069231395419
10
-1.7433353007779746
20
4.9150031841193762
42
-0.99999999999999989
0
LWPOLYLINE
5
249
100
AcDbEntity
8
0
100
AcDbPolyline
90
4
70
1
43
0.0
10
-0.79533530524832319
20
1.2450031841193763
10
-0.79533530524832319
20
2.344006923139542
42
-0.99999999999999989
10
-0.49533530077797483
20
2.344006923139542
10
-0.49533530077797483
20
1.2450031841193763
42
-0.99999999999999989
0
LWPOLYLINE
5
250
100
AcDbEntity
8
0
100
AcDbPolyline
90
4
70
1
43
0.0
10
-0.17133530301314881
20
3.9962272758516804
10
-0.17133530301314881
20
5.09622727585168
42
-0.99999999999999989
10
0.12866469698685101
20
5.09622727585168
10
0.12866469698685101
20
3.9962272758516804
42
-0.99999999999999989
0
LWPOLYLINE
5
251
100
AcDbEntity
8
0
100
AcDbPolyline
90
4
70
1
43
0.0
10
0.45266469475167659
20
3.0800031841193753
10
0.45266469475167659
20
4.179006923139541
42
-0.99999999999999989
10
0.75266469922202495
20
4.179006923139541
10
0.75266469922202495
20
3.0800031841193753
42
-0.99999999999999989
0
LWPOLYLINE
5
252
100
AcDbEntity
8
0
100
AcDbPolyline
90
4
70
1
43
0.0
10
1.076664696986851
20
0.32644949807390233
10
1.076664696986851
20
1.426449498073902
42
-0.99999999999999989
10
1.3766646969868508
20
1.426449498073902
10
1.3766646969868508
20
0.32644949807390233
42
-0.99999999999999989
0
LWPOLYLINE
5
253
100
AcDbEntity
8
0
100
AcDbPolyline
90
4
70
1
43
0.0
10
1.7006646947516768
20
6.7500031841193753
10
1.7006646947516768
20
7.849006923139541
42
-0.99999999999999989
10
2.0006646992220252
20
7.849006923139541
10
2.0006646992220252
20
6.7500031841193753
42
-0.99999999999999989
0
LWPOLYLINE
5
254
100
AcDbEntity
8
0
100
AcDbPolyline
90
4
70
1
43
0.0
10
2.3246646969868512
20
0.32644949807390233
10
2.3246646969868512
20
1.426449498073902
42
-0.99999999999999989
10
2.624664696986851
20
1.426449498073902
10
2.624664696986851
20
0.32644949807390233
42
-0.99999999999999989
0
LWPOLYLINE
5
255
100
AcDbEntity
8
0
100
AcDbPolyline
90
4
70
1
43
0.0
10
2.948664694751677
20
1.2450031841193763
10
2.948664694751677
20
2.344006923139542
42
-0.99999999999999989
10
3.2486646992220254
20
2.344006923139542
10
3.2486646992220254
20
1.2450031841193763
42
-0.99999999999999989
0
LWPOLYLINE
5
256
100
AcDbEntity
8
0
100
AcDbPolyline
90
4
70
1
43
0.0
10
1.7006646947516768
20
3.0800031841193753
10
1.7006646947516768
20
4.179006923139541
42
-0.99999999999999989
10
2.0006646992220252
20
4.179006923139541
10
2.0006646992220252
20
3.0800031841193753
42
-0.99999999999999989
0
LWPOLYLINE
5
257
100
AcDbEntity
8
0
100
AcDbPolyline
90
4
70
1
43
0.0
10
1.076664696986851
20
-3.3433282797038739
10
1.076664696986851
20
-2.2433282797038743
42
-0.99999999999999989
10
1.3766646969868508
20
-2.243328279703876
10
1.3766646969868508
20
-3.3433282797038757
42
-0.99999999999999989
0
LWPOLYLINE
5
258
100
AcDbEntity
8
0
100
AcDbPolyline
90
4
70
1
43
0.0
10
-1.419335303013149
20
0.32644949807390233
10
-1.4193353030131488
20
1.426449498073902
42
-0.99999999999999989
10
-1.119335303013149
20
1.426449498073902
10
-1.1193353030131488
20
0.32644949807390233
42
-0.99999999999999989
0
LWPOLYLINE
5
259
100
AcDbEntity
8
0
100
AcDbPolyline
90
4
70
1
43
0.0
10
-2.6673353030131484
20
2.1613383869627913
10
-2.6673353030131488
20
3.261338386962791
42
-0.99999999999999989
10
-2.367335303013149
20
3.261338386962791
10
-2.3673353030131494
20
2.1613383869627913
42
-0.99999999999999989
0
LWPOLYLINE
5
260
100
AcDbEntity
8
0
100
AcDbPolyline
90
4
70
1
43
0.0
10
-3.2913353052483227
20
-0.58999681588062458
10
-3.2913353052483232
20
0.5090069231395411
42
-0.99999999999999989
10
-2.9913353007779748
20
0.5090069231395411
10
-2.9913353007779753
20
-0.58999681588062458
42
-0.99999999999999989
0
LWPOLYLINE
5
261
100
AcDbEntity
8
0
100
AcDbPolyline
90
4
70
1
43
0.0
10
2.3246646969868512
20
-5.1782171685927629
10
2.3246646969868512
20
-4.0782171685927633
42
-0.99999999999999989
10
2.624664696986851
20
-4.0782171685927633
10
2.624664696986851
20
-5.1782171685927629
42
-0.99999999999999989
0
LWPOLYLINE
5
262
100
AcDbEntity
8
0
100
AcDbPolyline
90
4
70
1
43
0.0
10
-0.17133530301314881
20
-3.3433282797038739
10
-0.17133530301314881
20
-2.2433282797038743
42
-0.99999999999999989
10
0.12866469698685101
20
-2.243328279703876
10
0.12866469698685101
20
-3.3433282797038757
42
-0.99999999999999989
0
LWPOLYLINE
5
263
100
AcDbEntity
8
0
100
AcDbPolyline
90
4
70
1
43
0.0
10
-2.6673353030131484
20
-1.5084393908149867
10
-2.6673353030131488
20
-0.40843939081498704
42
-0.99999999999999989
10
-2.367335303013149
20
-0.40843939081498526
10
-2.3673353030131494
20
-1.5084393908149849
42
-0.99999999999999989
0
LWPOLYLINE
5
264
100
AcDbEntity
8
0
100
AcDbPolyline
90
4
70
1
43
0.0
10
-0.79533530524832319
20
-4.2599968158806245
10
-0.79533530524832319
20
-3.1609930768604588
42
-0.99999999999999989
10
-0.49533530077797483
20
-3.1609930768604588
10
-0.49533530077797483
20
-4.2599968158806245
42
-0.99999999999999989
0
LWPOLYLINE
5
265
100
AcDbEntity
8
0
100
AcDbPolyline
90
4
70
1
43
0.0
10
1.7006646947516768
20
-6.0949968158806254
10
1.7006646947516768
20
-4.9959930768604597
42
-0.99999999999999989
10
2.0006646992220252
20
-4.9959930768604597
10
2.0006646992220252
20
-6.0949968158806254
42
-0.99999999999999989
0
LWPOLYLINE
5
266
100
AcDbEntity
8
0
100
AcDbPolyline
90
4
70
1
43
0.0
10
1.7006646947516768
20
-7.929996815880628
10
1.7006646947516768
20
-6.8309930768604605
42
-0.99999999999999989
10
2.0006646992220252
20
-6.8309930768604588
10
2.0006646992220252
20
-7.9299968158806227
42
-0.99999999999999989
0
LWPOLYLINE
5
267
100
AcDbEntity
8
0
100
AcDbPolyline
90
4
70
1
43
0.0
10
-1.419335303013149
20
-5.1782171685927629
10
-1.4193353030131488
20
-4.0782171685927633
42
-0.99999999999999989
10
-1.119335303013149
20
-4.0782171685927633
10
-1.1193353030131488
20
-5.1782171685927629
42
-0.99999999999999989
0
LWPOLYLINE
5
268
100
AcDbEntity
8
0
100
AcDbPolyline
90
4
70
1
43
0.0
10
-2.0433353052483234
20
-6.0949968158806254
10
-2.0433353052483234
20
-4.9959930768604597
42
-0.99999999999999989
10
-1.7433353007779748
20
-4.9959930768604597
10
-1.7433353007779746
20
-6.0949968158806254
42
-0.99999999999999989
0
LWPOLYLINE
5
269
100
AcDbEntity
8
0
100
AcDbPolyline
90
4
70
1
43
0.0
10
1.076664696986851
20
-8.847994946370541
10
1.076664696986851
20
-7.7479949463705431
42
-0.99999999999999989
10
1.3766646969868508
20
-7.7479949463705395
10
1.3766646969868508
20
-8.847994946370541
42
-0.99999999999999989
0
LWPOLYLINE
5
270
100
AcDbEntity
8
0
100
AcDbPolyline
90
4
70
1
43
0.0
10
2.624664696986851
20
-9.5851060574816529
10
2.624664696986851
20
-10.685106057481651
42
-0.99999999999999989
10
2.3246646969868512
20
-10.685106057481654
10
2.3246646969868512
20
-9.5851060574816529
42
-0.99999999999999989
0
LWPOLYLINE
5
271
100
AcDbEntity
8
0
100
AcDbPolyline
90
4
70
1
43
0.0
10
-0.79533530524832319
20
-9.7649968158806288
10
-0.79533530524832319
20
-8.6659930768604596
42
-0.99999999999999989
10
-0.49533530077797483
20
-8.6659930768604596
10
-0.49533530077797483
20
-9.7649968158806217
42
-0.99999999999999989
0
LWPOLYLINE
5
272
100
AcDbEntity
8
0
100
AcDbPolyline
90
4
70
1
43
0.0
10
-3.2913353052483227
20
-6.0949968158806254
10
-3.2913353052483232
20
-4.9959930768604597
42
-0.99999999999999989
10
-2.9913353007779748
20
-4.9959930768604597
10
-2.9913353007779753
20
-6.0949968158806254
42
-0.99999999999999989
0
LWPOLYLINE
5
273
100
AcDbEntity
8
0
100
AcDbPolyline
90
4
70
1
43
0.0
10
-1.1193353030131492
20
-9.5839949463705452
10
-1.119335303013149
20
-10.683994946370543
42
-0.99999999999999989
10
-1.4193353030131488
20
-10.683994946370539
10
-1.4193353030131486
20
-9.5839949463705381
42
-0.99999999999999989
0
LWPOLYLINE
5
274
100
AcDbEntity
8
0
100
AcDbPolyline
90
4
70
1
43
0.0
10
2.0006646969868509
20
-10.500996815880626
10
2.0006646969868509
20
-12.415993406921174
42
-0.99999999999999989
10
1.7006646969868511
20
-12.415993406921181
10
1.7006646969868511
20
-10.500996815880626
42
-0.99999999999999989
0
LWPOLYLINE
5
275
100
AcDbEntity
8
0
100
AcDbPolyline
90
4
70
1
43
0.0
10
-0.4953353030131491
20
-12.336996815880624
10
-0.49533530301314899
20
-13.015993415861871
42
-0.99999999999999989
10
-0.79533530301314903
20
-13.015993415861878
10
-0.79533530301314892
20
-12.336996815880628
42
-0.99999999999999989
0
LWPOLYLINE
5
276
100
AcDbEntity
8
0
100
AcDbPolyline
90
4
70
1
43
0.0
10
-2.366352734055484
20
-11.419994946370544
10
-2.3663527340554835
20
-11.815993397980478
42
-0.99999999999999989
10
-2.6663527340554833
20
-11.815993397980485
10
-2.6663527340554829
20
-11.41999494637054
42
-0.99999999999999989
0
LWPOLYLINE
5
277
100
AcDbEntity
8
0
100
AcDbPolyline
90
4
70
1
43
0.0
10
-2.366352734055484
20
-9.5839949463705452
10
-2.3663527340554835
20
-10.683994946370543
42
-0.99999999999999989
10
-2.6663527340554833
20
-10.683994946370539
10
-2.6663527340554829
20
-9.5839949463705381
42
-0.99999999999999989
0
LWPOLYLINE
5
278
100
AcDbEntity
8
0
100
AcDbPolyline
90
4
70
1
43
0.0
10
0.12866469698685101
20
-11.419994946370544
10
0.1286646969868511
20
-13.070420087508467
42
-0.99999999999999989
10
-0.17133530301314889
20
-13.070420087508474
10
-0.17133530301314881
20
-11.41999494637054
42
-0.99999999999999989
0
LWPOLYLINE
5
279
100
AcDbEntity
8
0
100
AcDbPolyline
90
4
70
1
43
0.0
10
1.3766646969868508
20
-9.5839949463705452
10
1.3766646969868508
20
-10.683994946370543
42
-0.99999999999999989
10
1.076664696986851
20
-10.683994946370539
10
1.076664696986851
20
-9.5839949463705381
42
-0.99999999999999989
0
LWPOLYLINE
5
280
100
AcDbEntity
8
0
100
AcDbPolyline
90
4
70
1
43
0.0
10
-2.0433353052483234
20
-9.7649968158806288
10
-2.0433353052483234
20
-8.6659930768604596
42
-0.99999999999999989
10
-1.7433353007779748
20
-8.6659930768604596
10
-1.7433353007779746
20
-9.7649968158806217
42
-0.99999999999999989
0
LWPOLYLINE
5
281
100
AcDbEntity
8
0
100
AcDbPolyline
90
4
70
1
43
0.0
10
-2.6673353030131484
20
-7.0131060574816502
10
-2.6673353030131488
20
-5.9131060574816505
42
-0.99999999999999989
10
-2.367335303013149
20
-5.9131060574816541
10
-2.3673353030131494
20
-7.0131060574816537
42
-0.99999999999999989
0
LWPOLYLINE
5
282
100
AcDbEntity
8
0
100
AcDbPolyline
90
4
70
1
43
0.0
10
0.12866469698685101
20
-9.5839949463705452
10
0.1286646969868511
20
-10.683994946370543
42
-0.99999999999999989
10
-0.17133530301314889
20
-10.683994946370539
10
-0.17133530301314881
20
-9.5839949463705381
42
-0.99999999999999989
0
LWPOLYLINE
5
283
100
AcDbEntity
8
0
100
AcDbPolyline
90
4
70
1
43
0.0
10
1.7006646947516768
20
-9.7649968158806288
10
1.7006646947516768
20
-8.6659930768604596
42
-0.99999999999999989
10
2.0006646992220252
20
-8.6659930768604596
10
2.0006646992220252
20
-9.7649968158806217
42
-0.99999999999999989
0
LWPOLYLINE
5
284
100
AcDbEntity
8
0
100
AcDbPolyline
90
4
70
1
43
0.0
10
-0.17133530301314881
20
-8.847994946370541
10
-0.17133530301314881
20
-7.7479949463705431
42
-0.99999999999999989
10
0.12866469698685101
20
-7.7479949463705395
10
0.12866469698685101
20
-8.847994946370541
42
-0.99999999999999989
0
LWPOLYLINE
5
285
100
AcDbEntity
8
0
100
AcDbPolyline
90
4
70
1
43
0.0
10
-2.6673353030131484
20
-5.1782171685927629
10
-2.6673353030131488
20
-4.0782171685927633
42
-0.99999999999999989
10
-2.367335303013149
20
-4.0782171685927633
10
-2.3673353030131494
20
-5.1782171685927629
42
-0.99999999999999989
0
LWPOLYLINE
5
286
100
AcDbEntity
8
0
100
AcDbPolyline
90
4
70
1
43
0.0
10
-0.79533530524832319
20
-6.0949968158806254
10
-0.79533530524832319
20
-4.9959930768604597
42
-0.99999999999999989
10
-0.49533530077797483
20
-4.9959930768604597
10
-0.49533530077797483
20
-6.0949968158806254
42
-0.99999999999999989
0
LWPOLYLINE
5
287
100
AcDbEntity
8
0
100
AcDbPolyline
90
4
70
1
43
0.0
10
2.948664694751677
20
-7.929996815880628
10
2.948664694751677
20
-6.8309930768604605
42
-0.99999999999999989
10
3.2486646992220254
20
-6.8309930768604588
10
3.2486646992220254
20
-7.9299968158806227
42
-0.99999999999999989
0
LWPOLYLINE
5
288
100
AcDbEntity
8
0
100
AcDbPolyline
90
4
70
1
43
0.0
10
1.076664696986851
20
-7.0131060574816502
10
1.076664696986851
20
-5.9131060574816505
42
-0.99999999999999989
10
1.3766646969868508
20
-5.9131060574816541
10
1.3766646969868508
20
-7.0131060574816537
42
-0.99999999999999989
0
LWPOLYLINE
5
289
100
AcDbEntity
8
0
100
AcDbPolyline
90
4
70
1
43
0.0
10
-1.419335303013149
20
-3.3433282797038739
10
-1.4193353030131488
20
-2.2433282797038743
42
-0.99999999999999989
10
-1.119335303013149
20
-2.243328279703876
10
-1.1193353030131488
20
-3.3433282797038757
42
-0.99999999999999989
0
LWPOLYLINE
5
290
100
AcDbEntity
8
0
100
AcDbPolyline
90
4
70
1
43
0.0
10
-2.0433353052483234
20
-2.4249968158806237
10
-2.0433353052483234
20
-1.3259930768604598
42
-0.99999999999999989
10
-1.7433353007779748
20
-1.325993076860458
10
-1.7433353007779746
20
-2.4249968158806254
42
-0.99999999999999989
0
LWPOLYLINE
5
291
100
AcDbEntity
8
0
100
AcDbPolyline
90
4
70
1
43
0.0
10
0.45266469475167659
20
-4.2599968158806245
10
0.45266469475167659
20
-3.1609930768604588
42
-0.99999999999999989
10
0.75266469922202495
20
-3.1609930768604588
10
0.75266469922202495
20
-4.2599968158806245
42
-0.99999999999999989
0
LWPOLYLINE
5
292
100
AcDbEntity
8
0
100
AcDbPolyline
90
4
70
1
43
0.0
10
2.948664694751677
20
-4.2599968158806245
10
2.948664694751677
20
-3.1609930768604588
42
-0.99999999999999989
10
3.2486646992220254
20
-3.1609930768604588
10
3.2486646992220254
20
-4.2599968158806245
42
-0.99999999999999989
0
LWPOLYLINE
5
293
100
AcDbEntity
8
0
100
AcDbPolyline
90
4
70
1
43
0.0
10
-3.2913353052483227
20
3.0800031841193753
10
-3.2913353052483232
20
4.179006923139541
42
-0.99999999999999989
10
-2.9913353007779748
20
4.179006923139541
10
-2.9913353007779753
20
3.0800031841193753
42
-0.99999999999999989
0
LWPOLYLINE
5
294
100
AcDbEntity
8
0
100
AcDbPolyline
90
4
70
1
43
0.0
10
-2.6673353030131484
20
0.32644949807390233
10
-2.6673353030131488
20
1.426449498073902
42
-0.99999999999999989
10
-2.367335303013149
20
1.426449498073902
10
-2.3673353030131494
20
0.32644949807390233
42
-0.99999999999999989
0
LWPOLYLINE
5
295
100
AcDbEntity
8
0
100
AcDbPolyline
90
4
70
1
43
0.0
10
-0.79533530524832319
20
-0.58999681588062458
10
-0.79533530524832319
20
0.5090069231395411
42
-0.99999999999999989
10
-0.49533530077797483
20
0.5090069231395411
10
-0.49533530077797483
20
-0.58999681588062458
42
-0.99999999999999989
0
LWPOLYLINE
5
296
100
AcDbEntity
8
0
100
AcDbPolyline
90
4
70
1
43
0.0
10
1.7006646947516768
20
-2.4249968158806237
10
1.7006646947516768
20
-1.3259930768604598
42
-0.99999999999999989
10
2.0006646992220252
20
-1.325993076860458
10
2.0006646992220252
20
-2.4249968158806254
42
-0.99999999999999989
0
LWPOLYLINE
5
297
100
AcDbEntity
8
0
100
AcDbPolyline
90
4
70
1
43
0.0
10
1.7006646947516768
20
4.9150031841193762
10
1.7006646947516768
20
6.0140069231395419
42
-0.99999999999999989
10
2.0006646992220252
20
6.0140069231395419
10
2.0006646992220252
20
4.9150031841193762
42
-0.99999999999999989
0
LWPOLYLINE
5
298
100
AcDbEntity
8
0
100
AcDbPolyline
90
4
70
1
43
0.0
10
2.948664694751677
20
3.0800031841193753
10
2.948664694751677
20
4.179006923139541
42
-0.99999999999999989
10
3.2486646992220254
20
4.179006923139541
10
3.2486646992220254
20
3.0800031841193753
42
-0.99999999999999989
0
LWPOLYLINE
5
299
100
AcDbEntity
8
0
100
AcDbPolyline
90
4
70
1
43
0.0
10
2.3246646969868512
20
2.1613383869627913
10
2.3246646969868512
20
3.261338386962791
42
-0.99999999999999989
10
2.624664696986851
20
3.261338386962791
10
2.624664696986851
20
2.1613383869627913
42
-0.99999999999999989
0
LWPOLYLINE
5
300
100
AcDbEntity
8
0
100
AcDbPolyline
90
4
70
1
43
0.0
10
1.076664696986851
20
5.8311161647405694
10
1.076664696986851
20
6.931116164740569
42
-0.99999999999999989
10
1.3766646969868508
20
6.931116164740569
10
1.3766646969868508
20
5.8311161647405694
42
-0.99999999999999989
0
LWPOLYLINE
5
301
100
AcDbEntity
8
0
100
AcDbPolyline
90
4
70
1
43
0.0
10
1.076664696986851
20
-1.5084393908149867
10
1.076664696986851
20
-0.40843939081498704
42
-0.99999999999999989
10
1.3766646969868508
20
-0.40843939081498526
10
1.3766646969868508
20
-1.5084393908149849
42
-0.99999999999999989
0
LWPOLYLINE
5
302
100
AcDbEntity
8
0
100
AcDbPolyline
90
4
70
1
43
0.0
10
0.45266469475167659
20
4.9150031841193762
10
0.45266469475167659
20
6.0140069231395419
42
-0.99999999999999989
10
0.75266469922202495
20
6.0140069231395419
10
0.75266469922202495
20
4.9150031841193762
42
-0.99999999999999989
0
LWPOLYLINE
5
303
100
AcDbEntity
8
0
100
AcDbPolyline
90
4
70
1
43
0.0
10
-0.17133530301314881
20
5.8311161647405694
10
-0.17133530301314881
20
6.931116164740569
42
-0.99999999999999989
10
0.12866469698685101
20
6.931116164740569
10
0.12866469698685101
20
5.8311161647405694
42
-0.99999999999999989
0
LWPOLYLINE
5
304
100
AcDbEntity
8
0
100
AcDbPolyline
90
4
70
1
43
0.0
10
-1.419335303013149
20
2.1613383869627913
10
-1.4193353030131488
20
3.261338386962791
42
-0.99999999999999989
10
-1.119335303013149
20
3.261338386962791
10
-1.1193353030131488
20
2.1613383869627913
42
-0.99999999999999989
0
LWPOLYLINE
5
305
100
AcDbEntity
8
0
100
AcDbPolyline
90
4
70
1
43
0.0
10
-1.419335303013149
20
5.8311161647405694
10
-1.4193353030131488
20
6.931116164740569
42
-0.99999999999999989
10
-1.119335303013149
20
6.931116164740569
10
-1.1193353030131488
20
5.8311161647405694
42
-0.99999999999999989
0
LWPOLYLINE
5
306
100
AcDbEntity
8
0
100
AcDbPolyline
90
4
70
1
43
0.0
10
-3.2913353052483227
20
8.5850031841193761
10
-3.2913353052483232
20
9.6840069231395418
42
-0.99999999999999989
10
-2.9913353007779748
20
9.6840069231395418
10
-2.9913353007779753
20
8.5850031841193761
42
-0.99999999999999989
0
LWPOLYLINE
5
307
100
AcDbEntity
8
0
100
AcDbPolyline
90
4
70
1
43
0.0
10
-0.79533530524832319
20
6.7500031841193753
10
-0.79533530524832319
20
7.849006923139541
42
-0.99999999999999989
10
-0.49533530077797483
20
7.849006923139541
10
-0.49533530077797483
20
6.7500031841193753
42
-0.99999999999999989
0
LWPOLYLINE
5
308
100
AcDbEntity
8
0
100
AcDbPolyline
90
4
70
1
43
0.0
10
0.45266469475167659
20
8.5850031841193761
10
0.45266469475167659
20
9.6840069231395418
42
-0.99999999999999989
10
0.75266469922202495
20
9.6840069231395418
10
0.75266469922202495
20
8.5850031841193761
42
-0.99999999999999989
0
LWPOLYLINE
5
309
100
AcDbEntity
8
0
100
AcDbPolyline
90
4
70
1
43
0.0
10
2.948664694751677
20
6.7500031841193753
10
2.948664694751677
20
7.849006923139541
42
-0.99999999999999989
10
3.2486646992220254
20
7.849006923139541
10
3.2486646992220254
20
6.7500031841193753
42
-0.99999999999999989
0
LWPOLYLINE
5
310
100
AcDbEntity
8
0
100
AcDbPolyline
90
4
70
1
43
0.0
10
1.7006646969868511
20
10.420006923139542
10
1.7006646969868511
20
12.38400696262762
42
-0.99999999999999989
10
2.0006646969868509
20
12.38400696262762
10
2.0006646969868509
20
10.420006923139542
42
-0.99999999999999989
0
LWPOLYLINE
5
311
100
AcDbEntity
8
0
100
AcDbPolyline
90
6
70
1
43
0.0
10
0.45266469698685086
20
12.256006923139543
10
0.45266469698685052
20
12.984006971568316
42
-0.42664973145089113
10
0.60900365242384547
20
13.133872970527285
42
-0.0035080609879728675
10
0.65438362801718863
20
13.124808790353015
42
-0.31448753673941204
10
0.75266469698685068
20
12.984006971568316
10
0.75266469698685068
20
12.256006923139543
42
-0.99999999999999989
0
LWPOLYLINE
5
312
100
AcDbEntity
8
0
100
AcDbPolyline
90
4
70
1
43
0.0
10
-1.419335303013149
20
9.5020050536294587
10
-1.4193353030131488
20
10.602005053629458
42
-0.99999999999999989
10
-1.119335303013149
20
10.602005053629458
10
-1.1193353030131488
20
9.5020050536294587
42
-0.99999999999999989
0
LWPOLYLINE
5
313
100
AcDbEntity
8
0
100
AcDbPolyline
90
4
70
1
43
0.0
10
-2.6673353030131484
20
9.50311616474057
10
-2.6673353030131488
20
10.60311616474057
42
-0.99999999999999989
10
-2.367335303013149
20
10.60311616474057
10
-2.3673353030131494
20
9.50311616474057
42
-0.99999999999999989
0
LWPOLYLINE
5
314
100
AcDbEntity
8
0
100
AcDbPolyline
90
4
70
1
43
0.0
10
-2.9913353007779748
20
-8.6659930768604596
42
0.99999999999999989
10
-3.2913353052483232
20
-8.6659930768604596
10
-3.2913353052483232
20
-9.7649968158806288
42
0.99999999999999989
10
-2.9913353007779744
20
-9.7649968158806288
0
LWPOLYLINE
5
315
100
AcDbEntity
8
0
100
AcDbPolyline
90
4
70
1
43
0.0
10
3.6836473568415995
20
9.8954021502306002
42
0.99999999999999989
10
-3.7121516166393524
20
9.8954021502306038
10
-3.7121516166393516
20
-9.9322189919770647
42
0.99999999999999989
10
3.6836473568415995
20
-9.9322189919770665
0
SPLINE
5
316
100
AcDbEntity
8
0
100
AcDbSpline
70
0
71
3
72
10
73
6
74
0
42
0.000000001
43
0.0000000001
44
0.0000000001
40
0
40
0
40
0
40
0
40
0.057049781397197602
40
0.057049781397197602
40
0.11407586429375371
40
0.11407586429375371
40
0.11407586429375371
40
0.11407586429375371
10
0.010960611309482003
20
11.539169781971482
30
0
10
-0.0080156648845989293
20
11.540407433588307
30
0
10
-0.02597951425413093
20
11.541579053720159
30
0
10
-0.06125752931304753
20
11.550627748958217
30
0
10
-0.078078143521528684
20
11.558375375648556
30
0
10
-0.094898757730053518
20
11.566123002338914
30
0
0
SPLINE
5
317
100
AcDbEntity
8
0
100
AcDbSpline
70
0
71
3
72
10
73
6
74
0
42
0.000000001
43
0.0000000001
44
0.0000000001
40
0
40
0
40
0
40
0
40
0.068892233527875449
40
0.068892233527875449
40
0.13734596834167043
40
0.13734596834167043
40
0.13734596834167043
40
0.13734596834167043
10
0.13244501015133991
20
11.566123002338914
30
0
10
0.11136018750564679
20
11.557024698916747
30
0
10
0.093848591428815187
20
11.549468277068163
30
0
10
0.05316031981281568
20
11.540732694176713
30
0
10
0.032060465561158172
20
11.539951238074098
30
0
10
0.010960611309482003
20
11.539169781971482
30
0
0
SPLINE
5
318
100
AcDbEntity
8
0
100
AcDbSpline
70
0
71
3
72
10
73
6
74
0
42
0.000000001
43
0.0000000001
44
0.0000000001
40
0
40
0
40
0
40
0
40
0.087090394198463747
40
0.087090394198463747
40
0.17429068983739171
40
0.17429068983739171
40
0.17429068983739171
40
0.17429068983739171
10
-0.19997688869052421
20
9.9754979546552001
30
0
10
-0.1977525608107997
20
10.00444274511143
30
0
10
-0.19552823293107521
20
10.033387535567657
30
0
10
-0.17533938043429129
20
10.084959939249648
30
0
10
-0.15783773075568969
20
10.106346390231314
30
0
10
-0.138648745809129
20
10.129794710445911
30
0
0
LINE
5
319
100
AcDbEntity
8
0
100
AcDbLine
10
-0.19060188273005441
20
11.452060216236621
30
0
11
0.22424188515133991
21
11.452060216236621
31
0
0
ENDSEC
0
SECTION
2
OBJECTS
0
DICTIONARY
5
C
100
AcDbDictionary
3
ACAD_GROUP
350
D
3
ACAD_MLINESTYLE
350
17
0
DICTIONARY
5
D
100
AcDbDictionary
0
DICTIONARY
5
1A
330
C
100
AcDbDictionary
0
DICTIONARY
5
17
100
AcDbDictionary
0
ENDSEC
0
EOF
