0
SECTION
2
HEADER
9
$INSUNITS
70
5
9
$ACADVER
1
AC1014
9
$HANDSEED
5
FFFF
0
ENDSEC
0
SECTION
2
TABLES
0
TABLE
2
VPORT
5
8
100
AcDbSymbolTable
0
ENDTAB
0
TABLE
2
LTYPE
5
5
100
AcDbSymbolTable
0
LTYPE
5
14
100
AcDbSymbolTableRecord
100
AcDbLinetypeTableRecord
2
BYBLOCK
70
0
0
LTYPE
5
15
100
AcDbSymbolTableRecord
100
AcDbLinetypeTableRecord
2
BYLAYER
70
0
0
ENDTAB
0
TABLE
2
LAYER
5
2
100
AcDbSymbolTable
70
2
0
LAYER
5
50
100
AcDbSymbolTableRecord
100
AcDbLayerTableRecord
2
0
70
0
6
CONTINUOUS
0
ENDTAB
0
TABLE
2
STYLE
5
3
100
AcDbSymbolTable
70
1
0
STYLE
5
11
100
AcDbSymbolTableRecord
100
AcDbTextStyleTableRecord
2
STANDARD
70
0
0
ENDTAB
0
TABLE
2
VIEW
5
6
100
AcDbSymbolTable
70
0
0
ENDTAB
0
TABLE
2
UCS
5
7
100
AcDbSymbolTable
70
0
0
ENDTAB
0
TABLE
2
APPID
5
9
100
AcDbSymbolTable
70
2
0
APPID
5
12
100
AcDbSymbolTableRecord
100
AcDbRegAppTableRecord
2
ACAD
70
0
0
ENDTAB
0
TABLE
2
DIMSTYLE
5
A
100
AcDbSymbolTable
70
1
0
ENDTAB
0
TABLE
2
BLOCK_RECORD
5
1
100
AcDbSymbolTable
70
1
0
BLOCK_RECORD
5
1F
100
AcDbSymbolTableRecord
100
AcDbBlockTableRecord
2
*MODEL_SPACE
0
BLOCK_RECORD
5
1B
100
AcDbSymbolTableRecord
100
AcDbBlockTableRecord
2
*PAPER_SPACE
0
ENDTAB
0
ENDSEC
0
SECTION
2
BLOCKS
0
BLOCK
5
20
100
AcDbEntity
100
AcDbBlockBegin
2
*MODEL_SPACE
0
ENDBLK
5
21
100
AcDbEntity
100
AcDbBlockEnd
0
BLOCK
5
1C
100
AcDbEntity
100
AcDbBlockBegin
2
*PAPER_SPACE
0
ENDBLK
5
1D
100
AcDbEntity
100
AcDbBlockEnd
0
ENDSEC
0
SECTION
2
ENTITIES
0
LWPOLYLINE
5
100
100
AcDbEntity
8
0
100
AcDbPolyline
90
12
70
1
43
0.0
10
-2.0818366597158526
20
-2.3275103809825519
42
0.22544948219299518
10
-2.0588970313333901
20
-2.3757998357191559
10
-1.8905490225209336
20
-2.5130053769926288
42
0.35589151571367278
10
-1.8118361132127214
20
-2.5130053769926275
10
-1.643488104400264
20
-2.3757998357191559
42
0.22544948219299746
10
-1.6205484760178004
20
-2.3275103809825519
10
-1.6205484760178008
20
-2.1987196173068635
42
0.22544948219300229
10
-1.6434881044002645
20
-2.1504301625702604
10
-1.8118361132127203
20
-2.013224621296787
42
0.35589151571367206
10
-1.8905490225209334
20
-2.013224621296787
10
-2.0588970313333896
20
-2.1504301625702609
42
0.22544948219300892
10
-2.0818366597158535
20
-2.1987196173068648
0
LWPOLYLINE
5
101
100
AcDbEntity
8
0
100
AcDbPolyline
90
12
70
1
43
0.0
10
-1.8246887342874776
20
0.92265476282245273
42
0.35589151571367855
10
-1.8776964014461761
20
0.92265476282245318
10
-1.9910670708368596
20
0.83025637826173371
42
0.22544948219298705
10
-2.0065153142918248
20
0.79773679073219728
10
-2.0065153142918244
20
0.71100517333887114
42
0.22544948219299027
10
-1.9910670708368601
20
0.67848558580933505
10
-1.8776964014461763
20
0.58608720124861535
42
0.35589151571367267
10
-1.824688734287478
20
0.58608720124861535
10
-1.7113180648967934
20
0.67848558580933471
42
0.22544948219300628
10
-1.6958698214418284
20
0.71100517333887092
10
-1.6958698214418291
20
0.79773679073219705
42
0.2254494821929901
10
-1.7113180648967941
20
0.8302563782617336
0
LWPOLYLINE
5
102
100
AcDbEntity
8
0
100
AcDbPolyline
90
12
70
1
43
0.0
10
6.5378866949924301
20
2.6359051902348685
10
6.789031455858245
20
2.4312193546514003
42
-0.22544948219300467
10
6.8232532297010398
20
2.3591802277991429
10
6.8232532297010389
20
2.167047717452141
42
-0.22544948219298902
10
6.789031455858245
20
2.0950085905998859
10
6.5378866949924284
20
1.8903227550164172
42
-0.35589151571366234
10
6.420461280075366
20
1.8903227550164181
10
6.1693165192095512
20
2.0950085905998876
42
-0.22544948219298946
10
6.1350947453667573
20
2.1670477174521432
10
6.1350947453667564
20
2.3591802277991443
42
-0.22544948219300534
10
6.1693165192095512
20
2.4312193546513998
10
6.4204612800753695
20
2.6359051902348676
42
-0.35589151571368743
0
LWPOLYLINE
5
103
100
AcDbEntity
8
0
100
AcDbPolyline
90
12
70
1
43
0.0
10
-12.243805301898563
20
2.3776158048948464
42
0.22544948219302255
10
-12.267114822160687
20
2.3285477029682116
10
-12.267114822160689
20
2.1976802422831034
42
0.22544948219299826
10
-12.243805301898563
20
2.1486121403564669
10
-12.072742752101451
20
2.0091942173165842
42
0.35589151571368705
10
-11.99276063016729
20
2.009194217316582
10
-11.821698080370178
20
2.1486121403564669
42
0.22544948219300692
10
-11.798388560108053
20
2.197680242283103
10
-11.798388560108052
20
2.3285477029682116
42
0.22544948219301886
10
-11.821698080370179
20
2.3776158048948446
10
-11.992760630167288
20
2.5170337279347312
42
0.35589151571365074
10
-12.072742752101451
20
2.5170337279347308
0
LWPOLYLINE
5
104
100
AcDbEntity
8
0
100
AcDbPolyline
90
12
70
1
43
0.0
10
0.70619211000835369
20
-3.1495337747640848
10
0.50891714926408471
20
-3.3103151107570392
42
-0.35589151571367245
10
0.416679134669308
20
-3.3103151107570397
10
0.21940417392503869
20
-3.1495337747640844
42
-0.22544948219299416
10
0.19252286822643591
20
-3.0929468251783705
10
0.19252286822643677
20
-2.9420261637011675
42
-0.22544948219300115
10
0.21940417392503953
20
-2.8854392141154546
10
0.41667913466930961
20
-2.7246578781225002
42
-0.35589151571368333
10
0.50891714926408582
20
-2.724657878122501
10
0.70619211000835458
20
-2.8854392141154559
42
-0.22544948219299904
10
0.73307341570695639
20
-2.9420261637011689
10
0.73307341570695628
20
-3.0929468251783723
42
-0.22544948219298785
0
LWPOLYLINE
5
105
100
AcDbEntity
8
0
100
AcDbPolyline
90
12
70
1
43
0.0
10
-0.19252296241042813
20
3.0929457723633336
42
0.22544948219299549
10
-0.21940425874158642
20
3.1495327022299491
10
-0.41667915074060352
20
3.3103139821947427
42
0.35589151571368649
10
-0.50891713319280418
20
3.3103139821947436
10
-0.70619202519182112
20
3.1495327022299504
42
0.22544948219299427
10
-0.7330733215229801
20
3.0929457723633336
10
-0.73307332152297966
20
2.9420251634781009
42
0.2254494821929961
10
-0.706192025191821
20
2.8854382336114845
10
-0.50891713319280418
20
2.7246569536466936
42
0.3558915157136765
10
-0.41667915074060397
20
2.7246569536466927
10
-0.2194042587415867
20
2.8854382336114854
42
0.22544948219300379
10
-0.19252296241042827
20
2.9420251634781014
0
LWPOLYLINE
5
106
100
AcDbEntity
8
0
100
AcDbPolyline
90
12
70
1
43
0.0
10
0.33922929492914478
20
-1.4417043314518851
10
0.43938395218990511
20
-1.3600771470411073
42
-0.35589151571366784
10
0.48621233174349737
20
-1.3600771470411073
10
0.58636698900425688
20
-1.4417043314518849
42
-0.22544948219299016
10
0.60001437714113892
20
-1.4704329978766919
10
0.60001437714113881
20
-1.547054009822606
42
-0.22544948219299321
10
0.58636698900425688
20
-1.5757826762474128
10
0.48621233174349782
20
-1.6574098606581904
42
-0.3558915157136861
10
0.43938395218990361
20
-1.6574098606581906
10
0.33922929492914428
20
-1.5757826762474121
42
-0.22544948219299424
10
0.32558190679226207
20
-1.5470540098226049
10
0.32558190679226262
20
-1.4704329978766919
42
-0.22544948219299565
0
LWPOLYLINE
5
107
100
AcDbEntity
8
0
100
AcDbPolyline
90
12
70
1
43
0.0
10
-11.886727963489339
20
-0.83359351208439425
10
-12.005082684317811
20
-0.93005395523482737
42
-0.35589151571373373
10
-12.06042069795093
20
-0.93005395523482426
10
-12.178775418779415
20
-0.83359351208439592
42
-0.2254494821929951
10
-12.19490280473585
20
-0.79964428408563959
10
-12.19490280473585
20
-0.70909973302353513
42
-0.22544948219299904
10
-12.178775418779416
20
-0.67515050502478102
10
-12.060420697950926
20
-0.57869006187434735
42
-0.35589151571365424
10
-12.005082684317811
20
-0.57869006187434735
10
-11.886727963489331
20
-0.67515050502478369
42
-0.22544948219299987
10
-11.870600577532901
20
-0.70909973302353468
10
-11.870600577532903
20
-0.79964428408563992
42
-0.22544948219305563
0
LWPOLYLINE
5
108
100
AcDbEntity
8
0
100
AcDbPolyline
90
12
70
1
43
0.0
10
0.60001429066541656
20
1.5470529591596953
42
0.22544948219299371
10
0.58636691112932338
20
1.5757816074792659
10
0.48621231698753126
20
1.6574087404473685
42
0.35589151571367855
10
0.43938396694588516
20
1.6574087404473683
10
0.33922937280409227
20
1.5757816074792659
42
0.2254494821929911
10
0.32558199326799903
20
1.5470529591596958
10
0.32558199326799891
20
1.4704319955014931
42
0.22544948219298877
10
0.3392293728040921
20
1.4417033471819227
10
0.43938396694588494
20
1.3600762142138203
42
0.35589151571367339
10
0.4862123169875307
20
1.3600762142138199
10
0.58636691112932338
20
1.4417033471819218
42
0.22544948219299177
10
0.60001429066541689
20
1.470431995501492
0
LWPOLYLINE
5
109
100
AcDbEntity
8
0
100
AcDbPolyline
90
12
70
1
43
0.0
10
0.18449864143616906
20
-2.363210100190956
10
0.034959347017576851
20
-2.4850863253811992
42
-0.35589151571366501
10
-0.034959347017572931
20
-2.4850863253811992
10
-0.18449864143616432
20
-2.363210100190956
42
-0.22544948219300509
10
-0.20487533532602109
20
-2.320315794281969
10
-0.20487533532602153
20
-2.2059142040074469
42
-0.22544948219299649
10
-0.18449864143616457
20
-2.1630198980984603
10
-0.034959347017573007
20
-2.0411436729082171
42
-0.35589151571367639
10
0.034959347017576803
20
-2.0411436729082171
10
0.18449864143616906
20
-2.1630198980984607
42
-0.2254494821929911
10
0.20487533532602548
20
-2.2059142040074473
10
0.20487533532602584
20
-2.3203157942819681
42
-0.22544948219300104
0
LWPOLYLINE
5
110
100
AcDbEntity
8
0
100
AcDbPolyline
90
12
70
1
43
0.0
10
12.524760254502254
20
1.69421150153989
42
0.35589151571369126
10
12.466339411699908
20
1.6942115015398924
10
12.3413912596705
20
1.5923773369943861
42
0.22544948219297345
10
12.324365432071771
20
1.556536829141584
10
12.324365432071772
20
1.4609481255195467
42
0.22544948219300759
10
12.3413912596705
20
1.4251076176667463
10
12.466339411699906
20
1.3232734531212409
42
0.35589151571371191
10
12.524760254502251
20
1.3232734531212389
10
12.649708406531673
20
1.4251076176667439
42
0.22544948219296812
10
12.666734234130402
20
1.4609481255195464
10
12.666734234130393
20
1.5565368291415833
42
0.2254494821929815
10
12.649708406531666
20
1.5923773369943859
0
LWPOLYLINE
5
111
100
AcDbEntity
8
0
100
AcDbPolyline
90
12
70
1
43
0.0
10
12.072742763053375
20
-2.0091951742973744
42
0.35589151571368455
10
11.99276061921536
20
-2.0091951742973762
10
11.821698022571177
20
-2.148613135518155
42
0.22544948219302449
10
11.798388495925522
20
-2.197681250882547
10
11.79838849592552
20
-2.3285487474069271
42
0.22544948219306712
10
11.821698022571178
20
-2.3776168627713226
10
11.99276061921536
20
-2.5170348239920974
42
0.35589151571369587
10
12.072742763053373
20
-2.5170348239921019
10
12.243805359697559
20
-2.3776168627713186
42
0.22544948219297173
10
12.267114886343212
20
-2.3285487474069284
10
12.26711488634321
20
-2.1976812508825478
42
0.22544948219300345
10
12.243805359697555
20
-2.1486131355181564
0
LWPOLYLINE
5
112
100
AcDbEntity
8
0
100
AcDbPolyline
90
12
70
1
43
0.0
10
1.711318037059669
20
-0.67848659722606097
10
1.8246887290128162
20
-0.5860881942766778
42
-0.35589151571366945
10
1.8776964067208346
20
-0.58608819427667869
10
1.9910670986739807
20
-0.67848659722606131
42
-0.22544948219300184
10
2.0065153452033777
20
-0.71100619122748365
10
2.0065153452033773
20
-0.79773782588170117
42
-0.22544948219299626
10
1.99106709867398
20
-0.83025741988312307
10
1.8776964067208337
20
-0.92265582283250513
42
-0.35589151571367789
10
1.8246887290128146
20
-0.92265582283250547
10
1.711318037059669
20
-0.83025741988312263
42
-0.22544948219298411
10
1.695869790530272
20
-0.79773782588170039
10
1.695869790530272
20
-0.71100619122748288
42
-0.22544948219300556
0
LWPOLYLINE
5
113
100
AcDbEntity
8
0
100
AcDbPolyline
90
12
70
1
43
0.0
10
-4.7707838533687665
20
-3.1910921237486067
42
0.22544948219298686
10
-4.7354423758238502
20
-3.116695945581458
10
-4.7354423758238511
20
-2.9182770432980818
42
0.22544948219299535
10
-4.7707838533687674
20
-2.8438808651309322
10
-5.0301458305542877
20
-2.632497904818401
42
0.35589151571370348
10
-5.1514132927132597
20
-2.632497904818401
10
-5.4107752698987825
20
-2.8438808651309335
42
0.22544948219301247
10
-5.446116747443698
20
-2.9182770432980822
10
-5.4461167474436989
20
-3.1166959455814576
42
0.2254494821930037
10
-5.4107752698987817
20
-3.1910921237486063
10
-5.1514132927132597
20
-3.4024750840611389
42
0.35589151571368621
10
-5.0301458305542877
20
-3.4024750840611384
0
LWPOLYLINE
5
114
100
AcDbEntity
8
0
100
AcDbPolyline
90
12
70
1
43
0.0
10
2.5217670897830193
20
1.5667532384841414
42
0.2254494821930024
10
2.5011018609255018
20
1.610254929832357
10
2.349445082889964
20
1.7338569282458793
42
0.35589151571367528
10
2.2785363367771101
20
1.7338569282458796
10
2.1268795587415714
20
1.6102549298323581
42
0.2254494821930012
10
2.1062143298840539
20
1.5667532384841429
10
2.1062143298840534
20
1.4507317161770374
42
0.22544948219298383
10
2.1268795587415719
20
1.4072300248288219
10
2.2785363367771088
20
1.2836280264152995
42
0.35589151571368011
10
2.3494450828899636
20
1.2836280264152997
10
2.5011018609255022
20
1.4072300248288205
42
0.2254494821930032
10
2.5217670897830216
20
1.4507317161770363
0
LWPOLYLINE
5
115
100
AcDbEntity
8
0
100
AcDbPolyline
90
12
70
1
43
0.0
10
-4.945042512737726
20
-2.3516378396412008
42
0.22544948219299582
10
-4.913507936710781
20
-2.418020235044573
10
-4.6820838266785767
20
-2.6066335159778444
42
0.35589151571366667
10
-4.5738790126555493
20
-2.606633515977844
10
-4.3424549026233432
20
-2.4180202350445739
42
0.22544948219301716
10
-4.3109203265963982
20
-2.3516378396412003
10
-4.3109203265963982
20
-2.174592158648216
42
0.22544948219299385
10
-4.3424549026233414
20
-2.1082097632448442
10
-4.5738790126555493
20
-1.9195964823115717
42
0.35589151571365968
10
-4.6820838266785758
20
-1.9195964823115739
10
-4.913507936710781
20
-2.1082097632448429
42
0.22544948219300306
10
-4.9450425127377242
20
-2.1745921586482164
0
LWPOLYLINE
5
116
100
AcDbEntity
8
0
100
AcDbPolyline
90
12
70
1
43
0.0
10
1.2877382709307814
20
0.054607953904000361
10
1.3693218006296228
20
0.12109945820091196
42
-0.35589151571367972
10
1.4074670511706184
20
0.12109945820091229
10
1.4890505808694607
20
0.054607953903999494
42
-0.22544948219298505
10
1.5001674088416046
20
0.031206286177514114
10
1.5001674088416046
20
-0.031207312696573394
42
-0.22544948219299005
10
1.4890505808694601
20
-0.054608980423059061
10
1.407467051170618
20
-0.1211004847199707
42
-0.35589151571367189
10
1.3693218006296226
20
-0.1211004847199709
10
1.2877382709307807
20
-0.054608980423058652
42
-0.22544948219299835
10
1.2766214429586364
20
-0.031207312696572807
10
1.2766214429586371
20
0.031206286177514749
42
-0.22544948219300362
0
LWPOLYLINE
5
117
100
AcDbEntity
8
0
100
AcDbPolyline
90
12
70
1
43
0.0
10
1.6359996243128108
20
-3.1518184719642233
10
1.4353113895551519
20
-3.3153816650864969
42
-0.35589151571367583
10
1.3414774622450729
20
-3.3153816650864956
10
1.1407892274874167
20
-3.1518184719642237
42
-0.22544948219299157
10
1.1134428183522667
20
-3.0942524484819089
10
1.113442818352268
20
-2.9407205403976349
42
-0.22544948219300731
10
1.1407892274874181
20
-2.8831545169153205
10
1.341477462245074
20
-2.7195913237930496
42
-0.35589151571368011
10
1.4353113895551541
20
-2.7195913237930496
10
1.6359996243128117
20
-2.8831545169153223
42
-0.22544948219300467
10
1.6633460334479615
20
-2.9407205403976371
10
1.6633460334479597
20
-3.0942524484819103
42
-0.22544948219298563
0
LWPOLYLINE
5
118
100
AcDbEntity
8
0
100
AcDbPolyline
90
12
70
1
43
0.0
10
2.0588970313333843
20
-2.3757998357191608
42
0.22544948219299335
10
2.0818366597158477
20
-2.3275103809825572
10
2.0818366597158473
20
-2.1987196173068684
42
0.22544948219300051
10
2.0588970313333839
20
-2.1504301625702649
10
1.890549022520928
20
-2.0132246212967924
42
0.3558915157136735
10
1.8118361132127156
20
-2.0132246212967928
10
1.6434881044002578
20
-2.1504301625702644
42
0.22544948219300487
10
1.6205484760177944
20
-2.1987196173068679
10
1.6205484760177942
20
-2.3275103809825559
42
0.2254494821929893
10
1.6434881044002583
20
-2.3757998357191603
10
1.8118361132127148
20
-2.5130053769926324
42
0.35589151571367328
10
1.8905490225209278
20
-2.5130053769926337
0
LWPOLYLINE
5
119
100
AcDbEntity
8
0
100
AcDbPolyline
90
12
70
1
43
0.0
10
0.94262966068841969
20
0.86252292282245824
10
1.0154902647560256
20
0.80314070209334421
42
-0.22544948219299321
10
1.0254184794870631
20
0.78224114487836249
10
1.0254184794870629
20
0.72650081919270115
42
-0.22544948219299649
10
1.0154902647560253
20
0.70560126197771933
10
0.94262966068841947
20
0.64621904124860607
42
-0.35589151571368166
10
0.90856290717840882
20
0.64621904124860596
10
0.83570230311080329
20
0.70560126197771933
42
-0.22544948219299332
10
0.8257740883797654
20
0.72650081919270171
10
0.82577408837976551
20
0.78224114487836305
42
-0.22544948219299446
10
0.83570230311080329
20
0.80314070209334509
10
0.90856290717840915
20
0.86252292282245846
42
-0.35589151571366984
0
LWPOLYLINE
5
120
100
AcDbEntity
8
0
100
AcDbPolyline
90
12
70
1
43
0.0
10
2.9834006557797426
20
-0.69668639474674132
42
0.22544948219299996
10
2.9628512544717629
20
-0.653428528150934
10
2.8120445049112019
20
-0.53051931260921181
42
0.35589151571366973
10
2.7415331986892753
20
-0.53051931260921248
10
2.5907264491287108
20
-0.65342852815093366
42
0.22544948219299396
10
2.570177047820732
20
-0.69668639474674032
10
2.5701770478207306
20
-0.81205762236244694
42
0.22544948219298391
10
2.5907264491287108
20
-0.8553154889582546
10
2.741533198689273
20
-0.97822470449997612
42
0.35589151571368194
10
2.8120445049112011
20
-0.97822470449997678
10
2.9628512544717625
20
-0.8553154889582556
42
0.22544948219300692
10
2.983400655779743
20
-0.81205762236244783
0
LWPOLYLINE
5
121
100
AcDbEntity
8
0
100
AcDbPolyline
90
12
70
1
43
0.0
10
-1.5001674088416044
20
-0.031207312696569789
10
-1.5001674088416046
20
0.031206286177517792
42
-0.2254494821929777
10
-1.4890505808694603
20
0.054607953904003387
10
-1.407467051170618
20
0.12109945820091537
42
-0.3558915157136745
10
-1.3693218006296226
20
0.12109945820091558
10
-1.287738270930781
20
0.054607953904003276
42
-0.22544948219298841
10
-1.2766214429586369
20
0.031206286177517861
10
-1.2766214429586364
20
-0.031207312696569775
42
-0.22544948219300417
10
-1.287738270930781
20
-0.054608980423055592
10
-1.3693218006296231
20
-0.12110048471996718
42
-0.35589151571367639
10
-1.4074670511706184
20
-0.12110048471996746
10
-1.4890505808694598
20
-0.05460898042305528
42
-0.22544948219298258
0
LWPOLYLINE
5
122
100
AcDbEntity
8
0
100
AcDbPolyline
90
12
70
1
43
0.0
10
2.9237593841177798
20
-3.1056649487641286
42
0.22544948219299088
10
2.9551712791296669
20
-3.1717890924109806
10
3.185695064873272
20
-3.3596685988124944
42
0.35589151571367261
10
3.2934789226606052
20
-3.3596685988124948
10
3.5240027084042151
20
-3.1717890924109824
42
0.22544948219299357
10
3.5554146034161018
20
-3.1056649487641304
10
3.5554146034161018
20
-2.9293080401154254
42
0.22544948219300845
10
3.5240027084042156
20
-2.8631838964685716
10
3.2934789226606074
20
-2.6753043900670588
42
0.35589151571368055
10
3.1856950648732751
20
-2.6753043900670588
10
2.9551712791296669
20
-2.8631838964685699
42
0.22544948219299257
10
2.9237593841177811
20
-2.9293080401154228
0
LWPOLYLINE
5
123
100
AcDbEntity
8
0
100
AcDbPolyline
90
12
70
1
43
0.0
10
2.5217671342709091
20
-1.4507327302751674
42
0.2254494821930042
10
2.5011019009886701
20
-1.4072310296126171
10
2.3494450904812458
20
-1.2836290047341365
42
0.355891515713673
10
2.2785363291858136
20
-1.283629004734137
10
2.1268795186783902
20
-1.4072310296126158
42
0.22544948219300517
10
2.1062142853961503
20
-1.450732730275166
10
2.1062142853961499
20
-1.5667542774241401
42
0.22544948219298319
10
2.1268795186783898
20
-1.6102559780866903
10
2.2785363291858123
20
-1.7338580029651687
42
0.35589151571368738
10
2.3494450904812449
20
-1.73385800296517
10
2.5011019009886701
20
-1.6102559780866916
42
0.22544948219297395
10
2.5217671342709105
20
-1.5667542774241414
0
LWPOLYLINE
5
124
100
AcDbEntity
8
0
100
AcDbPolyline
90
12
70
1
43
0.0
10
2.3434454416662267
20
0.18701973873648969
42
0.35589151571366984
10
2.2845359780008403
20
0.1870197387364898
10
2.1585427832956992
20
0.084333852528291398
42
0.2254494821929873
10
2.1413745548999894
20
0.048193581456764389
10
2.1413745548999894
20
-0.048194607975826698
42
0.2254494821929994
10
2.1585427832956992
20
-0.084334879047353595
10
2.2845359780008399
20
-0.18702076525555231
42
0.35589151571366884
10
2.3434454416662263
20
-0.1870207652555525
10
2.469438636371367
20
-0.084334879047354913
42
0.22544948219299765
10
2.4866068647670776
20
-0.048194607975827468
10
2.486606864767078
20
0.048193581456763619
42
0.22544948219297242
10
2.4694386363713678
20
0.084333852528290509
0
LWPOLYLINE
5
125
100
AcDbEntity
8
0
100
AcDbPolyline
90
12
70
1
43
0.0
10
-9.2073717125622121
20
1.0628961054443415
42
0.35589151571368527
10
-9.3045539661060559
20
1.0628961054443411
10
-9.5124034665221906
20
0.89349639938790304
42
0.22544948219300667
10
-9.5407256922061237
20
0.83387621668914425
10
-9.5407256922061237
20
0.67486574738192306
42
0.22544948219296274
10
-9.5124034665221924
20
0.61524556468316649
10
-9.3045539661060523
20
0.44584585862672477
42
0.35589151571368738
10
-9.2073717125622121
20
0.44584585862672471
10
-8.9995222121460756
20
0.61524556468316383
42
0.22544948219302866
10
-8.9711999864621408
20
0.67486574738192395
10
-8.9711999864621408
20
0.83387621668914413
42
0.22544948219301453
10
-8.9995222121460721
20
0.89349639938790171
0
LWPOLYLINE
5
126
100
AcDbEntity
8
0
100
AcDbPolyline
90
12
70
1
43
0.0
10
-1.0154902647560236
20
0.80314070209334698
10
-0.94262966068841769
20
0.86252292282246046
42
-0.3558915157136725
10
-0.90856290717840715
20
0.86252292282246024
10
-0.83570230311080129
20
0.80314070209334698
42
-0.22544948219298655
10
-0.82577408837976374
20
0.78224114487836494
10
-0.82577408837976363
20
0.72650081919270337
42
-0.22544948219299424
10
-0.83570230311080151
20
0.70560126197772144
10
-0.90856290717840726
20
0.64621904124860818
42
-0.35589151571368188
10
-0.9426296606884178
20
0.64621904124860818
10
-1.0154902647560238
20
0.70560126197772166
42
-0.22544948219299765
10
-1.0254184794870613
20
0.7265008191927036
10
-1.0254184794870611
20
0.78224114487836482
42
-0.22544948219299132
0
LWPOLYLINE
5
127
100
AcDbEntity
8
0
100
AcDbPolyline
90
12
70
1
43
0.0
10
-1.5546354064026953
20
1.4623283189156107
42
0.22544948219298608
10
-1.5381012464157939
20
1.4275228043282164
10
-1.4167613160222676
20
1.3286293814408934
42
0.35589151571367372
10
-1.3600275357779732
20
1.3286293814408932
10
-1.2386876053844482
20
1.4275228043282171
42
0.22544948219300393
10
-1.2221534453975467
20
1.462328318915612
10
-1.2221534453975467
20
1.5551566357455791
42
0.22544948219299996
10
-1.2386876053844482
20
1.5899621503329739
10
-1.3600275357779725
20
1.6888555732202977
42
0.35589151571368532
10
-1.4167613160222672
20
1.6888555732202979
10
-1.5381012464157933
20
1.5899621503329735
42
0.22544948219298097
10
-1.5546354064026953
20
1.5551566357455791
0
LWPOLYLINE
5
128
100
AcDbEntity
8
0
100
AcDbPolyline
90
12
70
1
43
0.0
10
-6.0686951880369255
20
-0.33219761722690144
10
-6.292492204423878
20
-0.14980050433341197
42
-0.2254494821929883
10
-6.322987488717617
20
-0.085605887662633134
10
-6.3229874887176152
20
0.085604861143580832
42
-0.22544948219299016
10
-6.2924922044238754
20
0.14979947781436073
10
-6.0686951880369255
20
0.33219659070784935
42
-0.35589151571369798
10
-5.9640565030974502
20
0.33219659070784952
10
-5.7402594867104995
20
0.14979947781436059
42
-0.2254494821930022
10
-5.7097642024167605
20
0.085604861143580652
10
-5.7097642024167596
20
-0.085605887662632857
42
-0.22544948219298575
10
-5.7402594867104986
20
-0.14980050433341191
10
-5.9640565030974511
20
-0.33219761722690222
42
-0.35589151571368671
0
LWPOLYLINE
5
129
100
AcDbEntity
8
0
100
AcDbPolyline
90
12
70
1
43
0.0
10
-9.2014086002206081
20
-1.9167276137692286
42
0.35589151571369682
10
-9.3105170784476616
20
-1.9167276137692228
10
-9.5438739091824747
20
-2.10691608404986
42
0.22544948219302008
10
-9.5756718438021213
20
-2.173852866936314
10
-9.5756718438021213
20
-2.3523771313531019
42
0.22544948219301561
10
-9.5438739091824747
20
-2.4193139142395541
10
-9.3105170784476634
20
-2.6095023845201903
42
0.35589151571369027
10
-9.2014086002206064
20
-2.609502384520193
10
-8.9680517694857969
20
-2.4193139142395568
42
0.22544948219302396
10
-8.9362538348661484
20
-2.3523771313531019
10
-8.9362538348661502
20
-2.173852866936314
42
0.22544948219303743
10
-8.9680517694857969
20
-2.1069160840498604
0
LWPOLYLINE
5
130
100
AcDbEntity
8
0
100
AcDbPolyline
90
12
70
1
43
0.0
10
-8.1583948422990158
20
-1.3509629339898293
42
0.22544948219300007
10
-8.1905147596595569
20
-1.4185775121192243
10
-8.1905147596595569
20
-1.5989094955800711
42
0.22544948219297714
10
-8.1583948422990158
20
-1.6665240737094669
10
-7.9226750633769667
20
-1.8586383736290633
42
0.35589151571368388
10
-7.8124617634910578
20
-1.8586383736290646
10
-7.5767419845690105
20
-1.6665240737094678
42
0.22544948219299293
10
-7.5446220672084685
20
-1.598909495580072
10
-7.5446220672084694
20
-1.4185775121192234
42
0.22544948219300309
10
-7.576741984569014
20
-1.3509629339898266
10
-7.8124617634910578
20
-1.1588486340702349
42
0.35589151571370331
10
-7.9226750633769676
20
-1.1588486340702335
0
LWPOLYLINE
5
131
100
AcDbEntity
8
0
100
AcDbPolyline
90
12
70
1
43
0.0
10
-7.8124617669608876
20
1.8586373250786323
10
-7.5767420028811037
20
1.6665230372556514
42
-0.2254494821929994
10
-7.5446220875430132
20
1.5989084633836539
10
-7.5446220875430132
20
1.4185764912775358
42
-0.22544948219297872
10
-7.5767420028811019
20
1.3509619174055392
10
-7.8124617669608876
20
1.1588476295825578
42
-0.35589151571368932
10
-7.9226750599071378
20
1.1588476295825578
10
-8.1583948239869262
20
1.3509619174055378
42
-0.22544948219297664
10
-8.1905147393250157
20
1.418576491277536
10
-8.1905147393250157
20
1.5989084633836534
42
-0.22544948219299626
10
-8.1583948239869262
20
1.6665230372556514
10
-7.9226750599071387
20
1.8586373250786319
42
-0.35589151571368649
0
LWPOLYLINE
5
132
100
AcDbEntity
8
0
100
AcDbPolyline
90
12
70
1
43
0.0
10
-9.5407257043194491
20
-0.83387724659021467
10
-9.5407257043194509
20
-0.6748667705189606
42
-0.22544948219297989
10
-9.5124034774307411
20
-0.61524658528406351
10
-9.3045539681730389
20
-0.44584687202164697
42
-0.35589151571371241
10
-9.2073717104952273
20
-0.4458468720216473
10
-8.9995222012375269
20
-0.61524658528406106
42
-0.22544948219297736
10
-8.9711999743488153
20
-0.67486677051896071
10
-8.9711999743488136
20
-0.83387724659021467
42
-0.22544948219301467
10
-8.9995222012375269
20
-0.89349743182511421
10
-9.2073717104952273
20
-1.0628971450875304
42
-0.35589151571369504
10
-9.3045539681730389
20
-1.06289714508753
10
-9.5124034774307411
20
-0.89349743182511077
42
-0.22544948219298352
0
LWPOLYLINE
5
133
100
AcDbEntity
8
0
100
AcDbPolyline
90
12
70
1
43
0.0
10
1.6633459511898723
20
3.0942513989965472
42
0.22544948219299987
10
1.6359995502360298
20
3.1518174052566601
10
1.4353113755188787
20
3.3153805494452393
42
0.35589151571367728
10
1.3414774762813777
20
3.3153805494452406
10
1.1407893015642279
20
3.151817405256661
42
0.22544948219300473
10
1.1134429006103854
20
3.0942513989965481
10
1.1134429006103848
20
2.9407195368448815
42
0.22544948219299935
10
1.1407893015642265
20
2.8831535305847678
10
1.341477476281377
20
2.7195903863961886
42
0.35589151571367683
10
1.4353113755188771
20
2.719590386396189
10
1.6359995502360301
20
2.8831535305847669
42
0.22544948219298877
10
1.6633459511898721
20
2.9407195368448802
0
LWPOLYLINE
5
134
100
AcDbEntity
8
0
100
AcDbPolyline
90
12
70
1
43
0.0
10
-6.3380765259535519
20
-1.5985617081006123
42
0.22544948219300229
10
-6.3060805012590233
20
-1.6659154838670447
10
-6.0712699386190421
20
-1.8572887621791041
42
0.35589151571366751
10
-5.9614817525153327
20
-1.857288762179103
10
-5.7266711898753533
20
-1.665915483867046
42
0.22544948219300393
10
-5.6946751651808238
20
-1.5985617081006132
10
-5.6946751651808238
20
-1.4189252995986834
42
0.2254494821930082
10
-5.7266711898753542
20
-1.3515715238322492
10
-5.9614817525153327
20
-1.1601982455201925
42
0.35589151571368438
10
-6.0712699386190412
20
-1.1601982455201918
10
-6.3060805012590224
20
-1.3515715238322519
42
0.22544948219297464
10
-6.338076525953551
20
-1.4189252995986832
0
LWPOLYLINE
5
135
100
AcDbEntity
8
0
100
AcDbPolyline
90
12
70
1
43
0.0
10
-10.025167848697432
20
3.1837188131344663
10
-9.7768198587131785
20
3.3861252486506057
42
-0.35589151571371314
10
-9.6607021038884966
20
3.3861252486506053
10
-9.4123541139042413
20
3.1837188131344676
42
-0.22544948219301292
10
-9.3785134368451057
20
3.1124819205459047
10
-9.3785134368451111
20
2.9224890152955298
42
-0.22544948219298669
10
-9.412354113904243
20
2.8512521227069669
10
-9.6607021038884948
20
2.6488456871908252
42
-0.35589151571368116
10
-9.7768198587131803
20
2.6488456871908284
10
-10.025167848697432
20
2.8512521227069678
42
-0.22544948219298491
10
-10.059008525756566
20
2.9224890152955294
10
-10.059008525756568
20
3.1124819205459042
42
-0.22544948219300276
0
LWPOLYLINE
5
136
100
AcDbEntity
8
0
100
AcDbPolyline
90
12
70
1
43
0.0
10
-7.9302994072262507
20
-3.4157914708226516
42
0.35589151571369004
10
-7.8048374196417747
20
-3.415791470822652
10
-7.5365043599552664
20
-3.197096976271963
42
0.22544948219299776
10
-7.499940454534828
20
-3.1201275055222317
10
-7.499940454534828
20
-2.9148454833573059
42
0.22544948219300787
10
-7.5365043599552681
20
-2.8378760126075737
10
-7.8048374196417738
20
-2.6191815180568878
42
0.35589151571369282
10
-7.9302994072262489
20
-2.6191815180568865
10
-8.1986324669127661
20
-2.8378760126075706
42
0.2254494821929996
10
-8.235196372333208
20
-2.9148454833573068
10
-8.2351963723332045
20
-3.1201275055222299
42
0.22544948219301478
10
-8.1986324669127661
20
-3.1970969762719639
0
LWPOLYLINE
5
137
100
AcDbEntity
8
0
100
AcDbPolyline
90
12
70
1
43
0.0
10
-0.60001437714114259
20
-1.547054009822604
42
0.22544948219299563
10
-0.58636698900426065
20
-1.5757826762474108
10
-0.48621233174350098
20
-1.65740986065819
42
0.3558915157136755
10
-0.43938395218990761
20
-1.6574098606581897
10
-0.339229294929148
20
-1.575782676247411
42
0.22544948219299302
10
-0.32558190679226579
20
-1.547054009822604
10
-0.32558190679226601
20
-1.4704329978766912
42
0.22544948219299946
10
-0.33922929492914838
20
-1.441704331451884
10
-0.43938395218990778
20
-1.3600771470411057
42
0.3558915157136775
10
-0.48621233174350131
20
-1.3600771470411057
10
-0.58636698900426021
20
-1.4417043314518843
42
0.22544948219299785
10
-0.60001437714114236
20
-1.4704329978766912
0
LWPOLYLINE
5
138
100
AcDbEntity
8
0
100
AcDbPolyline
90
12
70
1
43
0.0
10
-1.1407892274874243
20
-3.1518184719642193
42
0.22544948219298921
10
-1.1134428183522747
20
-3.0942524484819049
10
-1.1134428183522751
20
-2.9407205403976326
42
0.22544948219299582
10
-1.140789227487425
20
-2.8831545169153183
10
-1.3414774622450809
20
-2.7195913237930451
42
0.35589151571367345
10
-1.4353113895551595
20
-2.7195913237930451
10
-1.6359996243128179
20
-2.8831545169153183
42
0.22544948219300409
10
-1.6633460334479682
20
-2.9407205403976331
10
-1.6633460334479671
20
-3.0942524484819054
42
0.22544948219299138
10
-1.6359996243128172
20
-3.1518184719642202
10
-1.4353113895551604
20
-3.3153816650864925
42
0.35589151571367617
10
-1.3414774622450798
20
-3.315381665086492
0
LWPOLYLINE
5
139
100
AcDbEntity
8
0
100
AcDbPolyline
90
12
70
1
43
0.0
10
-5.8883232794814138
20
-2.3565753128452291
42
0.22544948219297373
10
-5.8550298226587314
20
-2.426660270171435
10
-5.6106977406766685
20
-2.6257936950055205
42
0.35589151571365341
10
-5.4964576665242895
20
-2.625793695005521
10
-5.2521255845422266
20
-2.4266602701714359
42
0.22544948219299904
10
-5.2188321277195424
20
-2.3565753128452287
10
-5.2188321277195433
20
-2.1696546854441863
42
0.22544948219300506
10
-5.2521255845422257
20
-2.0995697281179795
10
-5.4964576665242877
20
-1.9004363032838965
42
0.3558915157136861
10
-5.6106977406766685
20
-1.9004363032838962
10
-5.8550298226587332
20
-2.0995697281179808
42
0.22544948219300071
10
-5.8883232794814147
20
-2.1696546854441872
0
LWPOLYLINE
5
140
100
AcDbEntity
8
0
100
AcDbPolyline
90
12
70
1
43
0.0
10
3.0163686174487836
20
1.6298439974232255
42
0.22544948219300695
10
2.991715576703224
20
1.577947694860957
10
2.9917155767032231
20
1.4395372598002192
42
0.2254494821930057
10
3.0163686174487827
20
1.3876409572379509
10
3.1972909171256152
20
1.2401872259422306
42
0.35589151571367211
10
3.2818830704082869
20
1.2401872259422295
10
3.4628053700851229
20
1.3876409572379493
42
0.22544948219300051
10
3.4874584108306825
20
1.4395372598002185
10
3.4874584108306812
20
1.5779476948609552
42
0.22544948219299726
10
3.4628053700851225
20
1.6298439974232246
10
3.2818830704082878
20
1.7772977287189453
42
0.35589151571366917
10
3.1972909171256161
20
1.7772977287189449
0
LWPOLYLINE
5
141
100
AcDbEntity
8
0
100
AcDbPolyline
90
12
70
1
43
0.0
10
-1.0254185341527633
20
-0.7822421866599758
10
-1.0254185341527631
20
-0.72650183044919903
42
-0.22544948219298713
10
-1.01549031398473
20
-0.70560226178897734
10
-0.9426296700164184
20
-0.64622000854033479
42
-0.35589151571367628
10
-0.90856289785040667
20
-0.64622000854033501
10
-0.83570225388209496
20
-0.70560226178897723
42
-0.22544948219299626
10
-0.82577403371406177
20
-0.72650183044919903
10
-0.82577403371406188
20
-0.78224218665997547
42
-0.22544948219298305
10
-0.83570225388209507
20
-0.80314175532019738
10
-0.90856289785040678
20
-0.86252400856883993
42
-0.35589151571367172
10
-0.9426296700164184
20
-0.86252400856883993
10
-1.01549031398473
20
-0.80314175532019771
42
-0.22544948219298913
0
LWPOLYLINE
5
142
100
AcDbEntity
8
0
100
AcDbPolyline
90
12
70
1
43
0.0
10
-7.7201688702003031
20
0.66631230672453734
42
0.22544948219299149
10
-7.688799644180758
20
0.60027798416545308
10
-7.4585889951531854
20
0.41265368774782185
42
0.35589151571368166
10
-7.350951547781416
20
0.41265368774782013
10
-7.1207408987538354
20
0.60027798416545286
42
0.22544948219299468
10
-7.0893716727342904
20
0.66631230672453778
10
-7.0893716727342904
20
0.84242965734653019
42
0.22544948219298649
10
-7.1207408987538354
20
0.90846397990561623
10
-7.3509515477814169
20
1.0960882763232471
42
0.35589151571367189
10
-7.4585889951531836
20
1.0960882763232458
10
-7.6887996441807571
20
0.90846397990561545
42
0.22544948219300914
10
-7.720168870200304
20
0.84242965734653086
0
LWPOLYLINE
5
143
100
AcDbEntity
8
0
100
AcDbPolyline
90
12
70
1
43
0.0
10
-0.73909462224803979
20
-2.3642967884867669
42
0.22544948219299993
10
-0.71849670759386963
20
-2.3209367980467595
10
-0.71849670759386985
20
-2.2052932002426568
42
0.22544948219298047
10
-0.7390946222480399
20
-2.1619332098026502
10
-0.89025739872829257
20
-2.0387338282734073
42
0.35589151571367894
10
-0.96093516913853205
20
-2.0387338282734073
10
-1.1120979456187854
20
-2.1619332098026489
42
0.2254494821929923
10
-1.1326958602729549
20
-2.2052932002426568
10
-1.1326958602729549
20
-2.3209367980467595
42
0.22544948219300165
10
-1.1120979456187845
20
-2.3642967884867678
10
-0.96093516913853183
20
-2.487496170016009
42
0.35589151571367594
10
-0.89025739872829313
20
-2.487496170016009
0
LWPOLYLINE
5
144
100
AcDbEntity
8
0
100
AcDbPolyline
90
12
70
1
43
0.0
10
-1.554635469242595
20
-1.55515767980941
42
0.22544948219298794
10
-1.5381013030057
20
-1.5899632075534582
10
-1.4167613267450907
20
-1.6888566678229766
42
0.35589151571367539
10
-1.3600275250551506
20
-1.6888566678229775
10
-1.2386875487945408
20
-1.5899632075534584
42
0.22544948219299335
10
-1.2221533825576465
20
-1.5551576798094102
10
-1.2221533825576467
20
-1.462329327889885
42
0.22544948219299779
10
-1.238687548794541
20
-1.4275238001458368
10
-1.3600275250551506
20
-1.3286303398763177
42
0.35589151571367106
10
-1.4167613267450898
20
-1.3286303398763177
10
-1.5381013030057005
20
-1.4275238001458372
42
0.22544948219298683
10
-1.5546354692425952
20
-1.462329327889885
0
LWPOLYLINE
5
145
100
AcDbEntity
8
0
100
AcDbPolyline
90
12
70
1
43
0.0
10
-0.2194041739250463
20
-3.149533774764083
10
-0.416679134669316
20
-3.3103151107570383
42
-0.35589151571366612
10
-0.50891714926409259
20
-3.3103151107570379
10
-0.70619211000836113
20
-3.1495337747640826
42
-0.22544948219298538
10
-0.73307341570696405
20
-3.0929468251783705
10
-0.7330734157069636
20
-2.9420261637011675
42
-0.22544948219299693
10
-0.70619211000836168
20
-2.8854392141154559
10
-0.50891714926409315
20
-2.7246578781224997
42
-0.35589151571368532
10
-0.41667913466931539
20
-2.7246578781224993
10
-0.2194041739250463
20
-2.8854392141154546
42
-0.22544948219299532
10
-0.19252286822644388
20
-2.9420261637011675
10
-0.19252286822644332
20
-3.0929468251783705
42
-0.22544948219299485
0
LWPOLYLINE
5
146
100
AcDbEntity
8
0
100
AcDbPolyline
90
12
70
1
43
0.0
10
-5.8883232476878646
20
2.169653667801835
10
-5.8883232476878629
20
2.3565742774494809
42
-0.22544948219300606
10
-5.8550297940273337
20
2.4266592281191413
10
-5.6106977352515068
20
2.6257926340398785
42
-0.35589151571367555
10
-5.4964576719494502
20
2.6257926340398803
10
-5.252125613173626
20
2.4266592281191408
42
-0.22544948219300312
10
-5.2188321595130969
20
2.3565742774494796
10
-5.2188321595130978
20
2.169653667801835
42
-0.2254494821930087
10
-5.2521256131736251
20
2.0995687171321755
10
-5.4964576719494485
20
1.9004353112114361
42
-0.35589151571366889
10
-5.6106977352515077
20
1.9004353112114363
10
-5.8550297940273364
20
2.0995687171321751
42
-0.22544948219298633
0
LWPOLYLINE
5
147
100
AcDbEntity
8
0
100
AcDbPolyline
90
12
70
1
43
0.0
10
-8.1449197960770512
20
0.1504695089307248
10
-7.9201217718552277
20
0.33368245459094248
42
-0.35589151571368838
10
-7.8150150550127977
20
0.33368245459094237
10
-7.5902170307909742
20
0.15046950893072478
42
-0.22544948219300348
10
-7.5595853460259628
20
0.085987760128867607
10
-7.5595853460259628
20
-0.085988786647919202
42
-0.2254494821930044
10
-7.5902170307909742
20
-0.15047053544977584
10
-7.8150150550127986
20
-0.33368348110999324
42
-0.35589151571368716
10
-7.9201217718552286
20
-0.33368348110999391
10
-8.144919796077053
20
-0.15047053544977618
42
-0.22544948219299307
10
-8.1755514808420653
20
-0.085988786647918425
10
-8.1755514808420635
20
0.085987760128867191
42
-0.22544948219298749
0
LWPOLYLINE
5
148
100
AcDbEntity
8
0
100
AcDbPolyline
90
12
70
1
43
0.0
10
-9.9754035358957509
20
1.6479774453226621
42
0.22544948219297828
10
-10.003748063169141
20
1.588310316283847
10
-10.003748063169144
20
1.4291746383773436
42
0.22544948219301023
10
-9.9754035358957509
20
1.3695075093385265
10
-9.767390369873679
20
1.1999744139523991
42
0.35589151571373989
10
-9.6701315927279961
20
1.1999744139523991
10
-9.4621184267059242
20
1.3695075093385276
42
0.22544948219297892
10
-9.4337738994325342
20
1.4291746383773432
10
-9.4337738994325324
20
1.5883103162838468
42
0.22544948219298475
10
-9.4621184267059242
20
1.6479774453226623
10
-9.6701315927279961
20
1.8175105407087915
42
0.35589151571371314
10
-9.767390369873679
20
1.8175105407087919
0
LWPOLYLINE
5
149
100
AcDbEntity
8
0
100
AcDbPolyline
90
12
70
1
43
0.0
10
-6.7626001508282005
20
0.90813672379525956
10
-6.532878413319021
20
1.095362551766546
42
-0.35589151571367617
10
-6.4254695617487636
20
1.095362551766546
10
-6.1957478242395858
20
0.90813672379525967
42
-0.22544948219300232
10
-6.1644452188389769
20
0.8422426421027247
10
-6.1644452188389778
20
0.66649932196834261
42
-0.22544948219300276
10
-6.1957478242395858
20
0.60060524027580886
10
-6.4254695617487645
20
0.41337941230452296
42
-0.35589151571368716
10
-6.5328784133190201
20
0.41337941230452263
10
-6.7626001508281997
20
0.60060524027580842
42
-0.22544948219299357
10
-6.7939027562288077
20
0.66649932196834272
10
-6.7939027562288086
20
0.84224264210272493
42
-0.22544948219299682
0
LWPOLYLINE
5
150
100
AcDbEntity
8
0
100
AcDbPolyline
90
12
70
1
43
0.0
10
-9.1018956813704577
20
1.4225453870835916
42
0.22544948219300187
10
-9.071189609576443
20
1.3579070486016318
10
-8.8458456781583248
20
1.1742491823695513
42
0.35589151571368843
10
-8.7404837165765219
20
1.1742491823695513
10
-8.5151397851584054
20
1.3579070486016309
42
0.22544948219298458
10
-8.484433713364389
20
1.4225453870835911
10
-8.484433713364389
20
1.5949395675775981
42
0.22544948219298411
10
-8.5151397851584054
20
1.6595779060595581
10
-8.7404837165765237
20
1.8432357722916379
42
0.35589151571370742
10
-8.8458456781583266
20
1.8432357722916357
10
-9.0711896095764413
20
1.6595779060595583
42
0.2254494821929873
10
-9.1018956813704595
20
1.5949395675775988
0
LWPOLYLINE
5
151
100
AcDbEntity
8
0
100
AcDbPolyline
90
12
70
1
43
0.0
10
-8.666753636868016
20
-2.3570336180121871
10
-8.666753636868016
20
-2.1691963802772287
42
-0.22544948219299416
10
-8.6332969175579368
20
-2.0987677444762025
10
-8.3877666943414599
20
-1.8986578209133873
42
-0.35589151571370126
10
-8.2729664164599761
20
-1.8986578209133846
10
-8.0274361932435028
20
-2.0987677444762038
42
-0.22544948219300825
10
-7.9939794739334227
20
-2.1691963802772278
10
-7.9939794739334218
20
-2.3570336180121876
42
-0.22544948219301139
10
-8.027436193243501
20
-2.4274622538132125
10
-8.2729664164599761
20
-2.6275721773760314
42
-0.3558915157137279
10
-8.3877666943414582
20
-2.6275721773760314
10
-8.633296917557935
20
-2.4274622538132125
42
-0.22544948219299626
0
LWPOLYLINE
5
152
100
AcDbEntity
8
0
100
AcDbPolyline
90
12
70
1
43
0.0
10
-5.8569630630248408
20
-0.83907661081654972
42
0.22544948219299499
10
-5.8267886616513582
20
-0.9025957474405244
10
-5.6053465221519678
20
-1.08307360889606
42
0.35589151571369387
10
-5.5018088850489928
20
-1.0830736088960593
10
-5.2803667455496015
20
-0.90259574744052429
42
0.22544948219299632
10
-5.2501923441761189
20
-0.83907661081655016
10
-5.2501923441761189
20
-0.66966740629262533
42
0.22544948219299293
10
-5.2803667455496015
20
-0.60614826966865154
10
-5.5018088850489937
20
-0.42567040821311636
42
0.35589151571368294
10
-5.605346522151966
20
-0.42567040821311491
10
-5.8267886616513582
20
-0.60614826966865121
42
0.22544948219297226
10
-5.8569630630248408
20
-0.66966740629262556
0
LWPOLYLINE
5
153
100
AcDbEntity
8
0
100
AcDbPolyline
90
12
70
1
43
0.0
10
-7.9302994003298997
20
2.6191805353256119
42
0.35589151571366889
10
-7.8048374265381275
20
2.6191805353256106
10
-7.5365043963508933
20
2.8378750058340532
42
0.22544948219301608
10
-7.4999404949501169
20
2.9148444681221255
10
-7.4999404949501169
20
3.1201264677193077
42
0.22544948219300129
10
-7.5365043963508924
20
3.1970959300073787
10
-7.8048374265381266
20
3.4157904005158213
42
0.3558915157136876
10
-7.9302994003298997
20
3.4157904005158213
10
-8.1986324305171401
20
3.1970959300073791
42
0.22544948219298427
10
-8.2351963319179138
20
3.1201264677193086
10
-8.2351963319179138
20
2.9148444681221255
42
0.22544948219301189
10
-8.1986324305171401
20
2.8378750058340554
0
LWPOLYLINE
5
154
100
AcDbEntity
8
0
100
AcDbPolyline
90
12
70
1
43
0.0
10
-6.0789480244603133
20
-3.414783089465748
42
0.35589151571366995
10
-5.9538036666740615
20
-3.4147830894657472
10
-5.6861499408419407
20
-3.1966422597303126
42
0.22544948219300667
10
-5.6496786035859667
20
-3.1198676511689949
10
-5.6496786035859667
20
-2.9151053377105445
42
0.22544948219299255
10
-5.6861499408419389
20
-2.8383307291492277
10
-5.9538036666740624
20
-2.6201898994137922
42
0.3558915157136831
10
-6.0789480244603133
20
-2.6201898994137918
10
-6.3466017502924341
20
-2.8383307291492268
42
0.22544948219299787
10
-6.3830730875484072
20
-2.915105337710544
10
-6.3830730875484081
20
-3.1198676511689936
42
0.22544948219300204
10
-6.3466017502924341
20
-3.1966422597303117
0
LWPOLYLINE
5
155
100
AcDbEntity
8
0
100
AcDbPolyline
90
12
70
1
43
0.0
10
-9.9579479261481758
20
0.12976435236264433
10
-9.7640828294288369
20
0.28776661040564622
42
-0.35589151571368866
10
-9.6734391331728418
20
0.28776661040564377
10
-9.4795740364535046
20
0.12976435236264561
42
-0.22544948219296426
10
-9.4531573695357114
20
0.074155498542074261
10
-9.4531573695357078
20
-0.074156525061126188
42
-0.22544948219301933
10
-9.4795740364535011
20
-0.12976537888169629
10
-9.6734391331728418
20
-0.28776763692469565
42
-0.35589151571371397
10
-9.7640828294288369
20
-0.28776763692469715
10
-9.9579479261481758
20
-0.12976537888169615
42
-0.2254494821930072
10
-9.9843645930659672
20
-0.074156525061126091
10
-9.984364593065969
20
0.074155498542074219
42
-0.22544948219300509
0
LWPOLYLINE
5
156
100
AcDbEntity
8
0
100
AcDbPolyline
90
12
70
1
43
0.0
10
-7.0944129930371016
20
-2.4314915405820439
10
-7.345962858515021
20
-2.6365075410303556
42
-0.35589151571368527
10
-7.4635776844195805
20
-2.6365075410303551
10
-7.7151275498974945
20
-2.4314915405820452
42
-0.22544948219298724
10
-7.7494045245669767
20
-2.3593362122910699
10
-7.7494045245669776
20
-2.1668937859983468
42
-0.22544948219299998
10
-7.7151275498974945
20
-2.0947384577073711
10
-7.4635776844195814
20
-1.8897224572590623
42
-0.35589151571367794
10
-7.3459628585150201
20
-1.8897224572590616
10
-7.0944129930370998
20
-2.0947384577073724
42
-0.22544948219299332
10
-7.0601360183676185
20
-2.1668937859983468
10
-7.0601360183676212
20
-2.359336212291069
42
-0.22544948219299343
0
LWPOLYLINE
5
157
100
AcDbEntity
8
0
100
AcDbPolyline
90
12
70
1
43
0.0
10
-0.71849679080257545
20
2.3209357482959998
10
-0.71849679080257511
20
2.2052921969553161
42
-0.22544948219300337
10
-0.73909469718089116
20
2.1619322239365339
10
-0.89025741292679017
20
2.0387328919064811
42
-0.35589151571369204
10
-0.96093515494003456
20
2.0387328919064811
10
-1.1120978706859328
20
2.1619322239365335
42
-0.2254494821929981
10
-1.1326957770642492
20
2.2052921969553148
10
-1.1326957770642494
20
2.3209357482959994
42
-0.22544948219299765
10
-1.112097870685933
20
2.3642957213147806
10
-0.96093515494003445
20
2.4874950533448343
42
-0.35589151571367522
10
-0.8902574129267905
20
2.4874950533448339
10
-0.73909469718089149
20
2.3642957213147815
42
-0.22544948219298927
0
LWPOLYLINE
5
158
100
AcDbEntity
8
0
100
AcDbPolyline
90
12
70
1
43
0.0
10
-6.7939027662226845
20
-0.84224367141204959
42
0.22544948219299049
10
-6.7626001598280947
20
-0.90813775519698103
10
-6.5328784150243475
20
-1.095363589113423
42
0.35589151571367883
10
-6.4254695600434371
20
-1.0953635891134248
10
-6.195747815239689
20
-0.90813775519697904
42
0.22544948219297967
10
-6.1644452088451018
20
-0.84224367141204937
10
-6.1644452088451001
20
-0.66650034569712602
42
0.22544948219298894
10
-6.1957478152396899
20
-0.60060626191219524
10
-6.4254695600434379
20
-0.41338042799575297
42
0.35589151571367622
10
-6.5328784150243457
20
-0.41338042799575175
10
-6.7626001598280947
20
-0.60060626191219446
42
0.22544948219300431
10
-6.7939027662226836
20
-0.6665003456971258
0
LWPOLYLINE
5
159
100
AcDbEntity
8
0
100
AcDbPolyline
90
12
70
1
43
0.0
10
8.9362538699299314
20
2.1738518502069821
42
0.22544948219299185
10
8.9680518010621686
20
2.1069150746617566
10
9.2014086062037972
20
1.9167266252398536
42
0.35589151571370825
10
9.3105170724644832
20
1.9167266252398549
10
9.5438738776061065
20
2.1069150746617553
42
0.22544948219302022
10
9.5756718087383472
20
2.173851850206979
10
9.5756718087383454
20
2.3523760950442907
42
0.22544948219299343
10
9.5438738776061065
20
2.4193128705895175
10
9.3105170724644815
20
2.6095013200114159
42
0.35589151571366262
10
9.201408606203799
20
2.6095013200114159
10
8.9680518010621686
20
2.4193128705895179
42
0.22544948219301394
10
8.9362538699299314
20
2.352376095044292
0
LWPOLYLINE
5
160
100
AcDbEntity
8
0
100
AcDbPolyline
90
12
70
1
43
0.0
10
2.0210252357010128
20
2.9356900773653876
42
0.22544948219298411
10
2.050163285809365
20
2.8743525295916923
10
2.2639999109993658
20
2.7000732487718553
42
0.35589151571367716
10
2.3639815086677136
20
2.7000732487718548
10
2.5778181338577144
20
2.874352529591691
42
0.22544948219299951
10
2.6069561839660671
20
2.9356900773653871
10
2.6069561839660693
20
3.099280858476035
42
0.22544948219299438
10
2.5778181338577166
20
3.1606184062497311
10
2.3639815086677154
20
3.3348976870695699
42
0.35589151571367184
10
2.2639999109993663
20
3.3348976870695699
10
2.0501632858093637
20
3.1606184062497329
42
0.2254494821929876
10
2.0210252357010123
20
3.0992808584760381
0
LWPOLYLINE
5
161
100
AcDbEntity
8
0
100
AcDbPolyline
90
12
70
1
43
0.0
10
3.4621086007174182
20
0.062127086592993701
42
0.22544948219300323
10
3.4399768264777655
20
0.10871595423147096
10
3.2775574506006633
20
0.24108959225497179
42
0.3558915157136755
10
3.2016165369332317
20
0.2410895922549719
10
3.0391971610561317
20
0.10871595423147164
42
0.22544948219301034
10
3.017065386816479
20
0.062127086592994873
10
3.0170653868164785
20
-0.062128113112061456
42
0.22544948219299882
10
3.0391971610561308
20
-0.10871698075053837
10
3.2016165369332312
20
-0.24109061877403976
42
0.35589151571367661
10
3.2775574506006633
20
-0.24109061877403942
10
3.4399768264777641
20
-0.10871698075053948
42
0.22544948219300132
10
3.4621086007174173
20
-0.062128113112062407
0
LWPOLYLINE
5
162
100
AcDbEntity
8
0
100
AcDbPolyline
90
12
70
1
43
0.0
10
3.4874584441413692
20
-1.4395382770190055
42
0.22544948219299563
10
3.4628054000827624
20
-1.3876419674825489
10
3.2818830760923237
20
-1.2401882163709639
42
0.35589151571367539
10
3.197290911441566
20
-1.2401882163709648
10
3.0163685874511281
20
-1.3876419674825478
42
0.22544948219299177
10
2.9917155433925213
20
-1.4395382770190048
10
2.9917155433925209
20
-1.5779487306803059
42
0.22544948219300134
10
3.0163685874511281
20
-1.629845040216763
10
3.1972909114415633
20
-1.7772987913283465
42
0.35589151571367855
10
3.2818830760923223
20
-1.7772987913283473
10
3.4628054000827615
20
-1.6298450402167632
42
0.22544948219298891
10
3.4874584441413692
20
-1.5779487306803064
0
LWPOLYLINE
5
163
100
AcDbEntity
8
0
100
AcDbPolyline
90
12
70
1
43
0.0
10
-1.1134429006103779
20
3.0942513989965512
10
-1.1134429006103779
20
2.9407195368448837
42
-0.22544948219300232
10
-1.1407893015642196
20
2.88315353058477
10
-1.3414774762813697
20
2.7195903863961921
42
-0.35589151571367095
10
-1.4353113755188709
20
2.7195903863961921
10
-1.6359995502360229
20
2.8831535305847704
42
-0.22544948219299132
10
-1.6633459511898647
20
2.9407195368448837
10
-1.6633459511898647
20
3.0942513989965512
42
-0.22544948219300326
10
-1.6359995502360227
20
3.1518174052566645
10
-1.4353113755188718
20
3.3153805494452424
42
-0.35589151571369693
10
-1.3414774762813697
20
3.3153805494452429
10
-1.1407893015642192
20
3.1518174052566641
42
-0.22544948219299915
0
LWPOLYLINE
5
164
100
AcDbEntity
8
0
100
AcDbPolyline
90
12
70
1
43
0.0
10
-3.6525513229744235
20
-1.9466995493931472
42
0.35589151571366517
10
-3.7522189484928794
20
-1.9466995493931463
10
-3.9653840626598242
20
-2.1204315410942165
42
0.22544948219302435
10
-3.9944306105672771
20
-2.1815764706042251
10
-3.9944306105672771
20
-2.3446535276851934
42
0.22544948219300226
10
-3.9653840626598247
20
-2.4057984571951998
10
-3.7522189484928798
20
-2.5795304488962696
42
0.35589151571366917
10
-3.652551322974424
20
-2.5795304488962696
10
-3.4393862088074756
20
-2.4057984571951998
42
0.22544948219299649
10
-3.4103396609000236
20
-2.3446535276851934
10
-3.4103396609000241
20
-2.1815764706042247
42
0.22544948219300265
10
-3.439386208807476
20
-2.1204315410942169
0
LWPOLYLINE
5
165
100
AcDbEntity
8
0
100
AcDbPolyline
90
12
70
1
43
0.0
10
-3.4533464108732339
20
-0.68484088095781492
42
0.22544948219299721
10
-3.4781155508730559
20
-0.63270018168648745
10
-3.6598898729956786
20
-0.48455204241008404
42
0.35589151571367417
10
-3.7448803984716248
20
-0.48455204241008382
10
-3.9266547205942461
20
-0.63270018168648678
42
0.22544948219299951
10
-3.951423860594069
20
-0.68484088095781459
10
-3.9514238605940681
20
-0.82390313615136046
42
0.22544948219299205
10
-3.9266547205942457
20
-0.87604383542268827
10
-3.7448803984716252
20
-1.024191974699092
42
0.35589151571366656
10
-3.6598898729956786
20
-1.0241919746990922
10
-3.4781155508730563
20
-0.87604383542268838
42
0.22544948219300132
10
-3.453346410873233
20
-0.82390313615136024
0
LWPOLYLINE
5
166
100
AcDbEntity
8
0
100
AcDbPolyline
90
12
70
1
43
0.0
10
-3.4399768264777655
20
0.10871595423147939
42
0.22544948219300048
10
-3.4621086007174187
20
0.062127086593002104
10
-3.4621086007174173
20
-0.062128113112054198
42
0.22544948219299335
10
-3.4399768264777646
20
-0.10871698075053088
10
-3.2775574506006633
20
-0.24109061877403162
42
0.35589151571367034
10
-3.2016165369332317
20
-0.24109061877403248
10
-3.0391971610561317
20
-0.10871698075053149
42
0.22544948219299993
10
-3.0170653868164781
20
-0.062128113112054351
10
-3.0170653868164785
20
0.062127086593002104
42
0.22544948219299296
10
-3.0391971610561312
20
0.10871595423147917
10
-3.2016165369332312
20
0.24108959225497953
42
0.35589151571368088
10
-3.2775574506006628
20
0.24108959225497967
0
LWPOLYLINE
5
167
100
AcDbEntity
8
0
100
AcDbPolyline
90
12
70
1
43
0.0
10
-2.0588969717289132
20
2.3757987768631943
42
0.22544948219299357
10
-2.0818365935284446
20
2.327509335984105
10
-2.0818365935284442
20
2.1987186092672095
42
0.22544948219299207
10
-2.0588969717289136
20
2.1504291683881203
10
-1.8905490112269003
20
2.0132236664882095
42
0.35589151571366667
10
-1.8118361245067518
20
2.0132236664882099
10
-1.6434881640047398
20
2.1504291683881203
42
0.2254494821929979
10
-1.6205485422052095
20
2.1987186092672104
10
-1.6205485422052095
20
2.327509335984105
42
0.22544948219299607
10
-1.6434881640047403
20
2.3757987768631947
10
-1.8118361245067525
20
2.5130042787631055
42
0.35589151571367594
10
-1.8905490112269008
20
2.5130042787631068
0
LWPOLYLINE
5
168
100
AcDbEntity
8
0
100
AcDbPolyline
90
12
70
1
43
0.0
10
-3.0163686174487787
20
1.387640957237958
42
0.22544948219299343
10
-2.99171557670322
20
1.4395372598002261
10
-2.9917155767032191
20
1.5779476948609639
42
0.22544948219298519
10
-3.0163686174487792
20
1.6298439974232324
10
-3.1972909171256112
20
1.7772977287189518
42
0.35589151571368249
10
-3.2818830704082833
20
1.7772977287189526
10
-3.4628053700851189
20
1.6298439974232328
42
0.22544948219299576
10
-3.4874584108306776
20
1.5779476948609641
10
-3.4874584108306768
20
1.4395372598002258
42
0.22544948219299549
10
-3.4628053700851185
20
1.387640957237958
10
-3.2818830704082833
20
1.2401872259422377
42
0.35589151571367189
10
-3.1972909171256121
20
1.2401872259422384
0
LWPOLYLINE
5
169
100
AcDbEntity
8
0
100
AcDbPolyline
90
12
70
1
43
0.0
10
10.224843425000605
20
1.0292008824931977
42
0.35589151571367683
10
10.138274821534498
20
1.0292008824932002
10
9.9531253695922732
20
0.87830197403910604
42
0.22544948219300498
10
9.9278963238035409
20
0.82519314226770701
10
9.9278963238035409
20
0.68354882180331367
42
0.22544948219299699
10
9.9531253695922732
20
0.63043999003191331
10
10.138274821534496
20
0.47954108157782149
42
0.35589151571370176
10
10.224843425000604
20
0.47954108157781977
10
10.409992876942818
20
0.63043999003191298
42
0.22544948219299982
10
10.43522192273155
20
0.68354882180331233
10
10.43522192273155
20
0.8251931422677059
42
0.22544948219303054
10
10.40999287694282
20
0.87830197403910604
0
LWPOLYLINE
5
170
100
AcDbEntity
8
0
100
AcDbPolyline
90
12
70
1
43
0.0
10
10.687441815370718
20
-1.2351819087407223
42
0.35589151571367872
10
10.601272715097778
20
-1.2351819087407248
10
10.416977704538468
20
-1.3853844377528679
42
0.22544948219297012
10
10.391865087615971
20
-1.4382481789599284
10
10.391865087615967
20
-1.5792388287394172
42
0.22544948219296954
10
10.416977704538471
20
-1.63210256994648
10
10.60127271509778
20
-1.7823050989586235
42
0.35589151571366662
10
10.68744181537072
20
-1.7823050989586231
10
10.871736825930023
20
-1.632102569946478
42
0.22544948219298577
10
10.89684944285252
20
-1.579238828739419
10
10.896849442852519
20
-1.4382481789599282
42
0.22544948219298633
10
10.871736825930022
20
-1.3853844377528692
0
LWPOLYLINE
5
171
100
AcDbEntity
8
0
100
AcDbPolyline
90
12
70
1
43
0.0
10
9.7673903698736808
20
1.8175105407087693
42
0.35589151571371369
10
9.6701315927279996
20
1.8175105407087699
10
9.4621184267059313
20
1.6479774453226392
42
0.2254494821930324
10
9.4337738994325377
20
1.5883103162838239
10
9.4337738994325377
20
1.4291746383773203
42
0.2254494821930019
10
9.4621184267059295
20
1.3695075093385065
10
9.6701315927279996
20
1.1999744139523758
42
0.35589151571374894
10
9.7673903698736844
20
1.1999744139523758
10
9.9754035358957545
20
1.3695075093385041
42
0.22544948219297697
10
10.003748063169146
20
1.4291746383773205
10
10.003748063169146
20
1.588310316283823
42
0.22544948219297428
10
9.9754035358957562
20
1.6479774453226383
0
LWPOLYLINE
5
172
100
AcDbEntity
8
0
100
AcDbPolyline
90
12
70
1
43
0.0
10
-4.117171242815898
20
1.8135907072834854
42
0.35589151571368999
10
-4.2131953125848209
20
1.813590707283484
10
-4.418567736063264
20
1.6462098470952578
42
0.22544948219300917
10
-4.4465524274643355
20
1.5873001966772535
10
-4.4465524274643355
20
1.4301847579839384
42
0.22544948219299332
10
-4.4185677360632649
20
1.3712751075659333
10
-4.2131953125848201
20
1.2038942473777052
42
0.35589151571368893
10
-4.1171712428158971
20
1.2038942473777057
10
-3.9117988193374571
20
1.3712751075659337
42
0.22544948219300762
10
-3.8838141279363865
20
1.4301847579839386
10
-3.8838141279363856
20
1.5873001966772535
42
0.2254494821930027
10
-3.9117988193374571
20
1.6462098470952571
0
LWPOLYLINE
5
173
100
AcDbEntity
8
0
100
AcDbPolyline
90
12
70
1
43
0.0
10
-3.4533464261901403
20
0.82390210535585684
10
-3.4533464261901399
20
0.6848398587152118
42
-0.22544948219299926
10
-3.4781155646665587
20
0.63269916265075177
10
-3.6598898756093123
20
0.48455103248606812
42
-0.35589151571366234
10
-3.7448803958579915
20
0.4845510324860684
10
-3.9266547068007442
20
0.63269916265075143
42
-0.22544948219299044
10
-3.9514238452771626
20
0.68483985871521169
10
-3.9514238452771631
20
0.82390210535585684
42
-0.22544948219299252
10
-3.9266547068007438
20
0.87604280142031721
10
-3.744880395857991
20
1.0241909315849997
42
-0.35589151571366973
10
-3.6598898756093128
20
1.024190931585
10
-3.4781155646665591
20
0.87604280142031676
42
-0.22544948219299973
0
LWPOLYLINE
5
174
100
AcDbEntity
8
0
100
AcDbPolyline
90
12
70
1
43
0.0
10
-3.7522189413030236
20
1.9466985685254636
42
0.35589151571366523
10
-3.6525513301642807
20
1.9466985685254634
10
-3.4393862467520853
20
2.1204305351610611
42
0.22544948219299116
10
-3.4103397030353735
20
2.1815754558492815
10
-3.4103397030353739
20
2.3446524894020353
42
0.22544948219298189
10
-3.4393862467520862
20
2.4057974100902553
10
-3.6525513301642798
20
2.5795293767258523
42
0.35589151571366695
10
-3.7522189413030231
20
2.5795293767258531
10
-3.9653840247152159
20
2.4057974100902548
42
0.22544948219299865
10
-3.9944305684319286
20
2.3446524894020344
10
-3.9944305684319286
20
2.1815754558492815
42
0.22544948219300179
10
-3.9653840247152159
20
2.1204305351610606
0
LWPOLYLINE
5
175
100
AcDbEntity
8
0
100
AcDbPolyline
90
12
70
1
43
0.0
10
12.51602655408044
20
0.130014641499441
42
0.35589151571368272
10
12.47507311212172
20
0.13001464149944453
10
12.387483535413642
20
0.058628140602161059
42
0.22544948219302346
10
12.375548304613858
20
0.033503680089206622
10
12.375548304613856
20
-0.033504706608318557
42
0.22544948219300323
10
12.387483535413642
20
-0.058629167121272974
10
12.475073112121718
20
-0.13001566801855297
42
0.35589151571368555
10
12.51602655408044
20
-0.13001566801855463
10
12.603616130788515
20
-0.058629167121273536
42
0.22544948219291741
10
12.615551361588297
20
-0.033504706608318557
10
12.615551361588297
20
0.033503680089205221
42
0.22544948219300648
10
12.603616130788513
20
0.058628140602159096
0
LWPOLYLINE
5
176
100
AcDbEntity
8
0
100
AcDbPolyline
90
12
70
1
43
0.0
10
-9.4621184033068459
20
-1.6479784845362997
42
0.22544948219299416
10
-9.433773873449173
20
-1.5883113500574042
10
-9.4337738734491747
20
-1.4291756576418928
42
0.22544948219302238
10
-9.4621184033068459
20
-1.3695085231629971
10
-9.6701315882942698
20
-1.1999754123198867
42
0.35589151571371092
10
-9.7673903743074089
20
-1.1999754123198889
10
-9.9754035592948345
20
-1.3695085231629991
42
0.22544948219294933
10
-10.003748089152502
20
-1.4291756576418921
10
-10.003748089152502
20
-1.5883113500574042
42
0.22544948219299957
10
-9.9754035592948327
20
-1.6479784845363001
10
-9.7673903743074089
20
-1.817511595379407
42
0.35589151571371147
10
-9.6701315882942716
20
-1.8175115953794094
0
LWPOLYLINE
5
177
100
AcDbEntity
8
0
100
AcDbPolyline
90
12
70
1
43
0.0
10
-10.60127271509778
20
-1.2351819087406977
42
0.35589151571365912
10
-10.68744181537072
20
-1.2351819087406979
10
-10.871736825930029
20
-1.3853844377528433
42
0.22544948219303457
10
-10.896849442852528
20
-1.438248178959902
10
-10.896849442852531
20
-1.5792388287393933
42
0.22544948219297636
10
-10.871736825930032
20
-1.632102569946452
10
-10.687441815370722
20
-1.7823050989585967
42
0.35589151571367056
10
-10.60127271509778
20
-1.7823050989585978
10
-10.416977704538475
20
-1.6321025699464506
42
0.22544948219295782
10
-10.391865087615979
20
-1.5792388287393933
10
-10.391865087615969
20
-1.4382481789599022
42
0.22544948219297234
10
-10.416977704538468
20
-1.3853844377528426
0
LWPOLYLINE
5
178
100
AcDbEntity
8
0
100
AcDbPolyline
90
12
70
1
43
0.0
10
-11.533600996442381
20
1.7395598417526938
42
0.35589151571372579
10
-11.606306101892962
20
1.7395598417526941
10
-11.761804861126688
20
1.6128265849799022
42
0.2254494821929876
10
-11.782993610408123
20
1.5682228480626423
10
-11.782993610408122
20
1.4492621065985469
42
0.22544948219301175
10
-11.761804861126684
20
1.4046583696812855
10
-11.606306101892953
20
1.2779251129084965
42
0.35589151571372563
10
-11.53360099644237
20
1.2779251129084936
10
-11.378102237208646
20
1.4046583696812878
42
0.22544948219299088
10
-11.356913487927208
20
1.4492621065985469
10
-11.356913487927212
20
1.5682228480626428
42
0.22544948219299038
10
-11.378102237208648
20
1.6128265849799015
0
LWPOLYLINE
5
179
100
AcDbEntity
8
0
100
AcDbPolyline
90
12
70
1
43
0.0
10
0.8902574129267955
20
2.0387328919064784
42
0.35589151571367666
10
0.96093515494003912
20
2.038732891906478
10
1.1120978706859381
20
2.1619322239365308
42
0.22544948219299574
10
1.1326957770642552
20
2.2052921969553125
10
1.1326957770642552
20
2.3209357482959971
42
0.22544948219299432
10
1.1120978706859388
20
2.3642957213147784
10
0.96093515494003978
20
2.4874950533448317
42
0.35589151571366429
10
0.89025741292679683
20
2.4874950533448317
10
0.73909469718089715
20
2.3642957213147793
42
0.22544948219298766
10
0.718496790802581
20
2.3209357482959976
10
0.71849679080258033
20
2.205292196955313
42
0.22544948219299904
10
0.73909469718089627
20
2.1619322239365322
0
LWPOLYLINE
5
180
100
AcDbEntity
8
0
100
AcDbPolyline
90
12
70
1
43
0.0
10
-1.9910670986739831
20
-0.67848659722605653
10
-1.8776964067208366
20
-0.58608819427667402
42
-0.35589151571366967
10
-1.8246887290128178
20
-0.58608819427667391
10
-1.7113180370596708
20
-0.67848659722605664
42
-0.22544948219299682
10
-1.695869790530274
20
-0.71100619122747899
10
-1.6958697905302735
20
-0.79773782588169639
42
-0.22544948219299704
10
-1.7113180370596706
20
-0.8302574198831183
10
-1.8246887290128175
20
-0.92265582283250103
42
-0.35589151571367317
10
-1.8776964067208362
20
-0.92265582283250136
10
-1.991067098673982
20
-0.83025741988311841
42
-0.22544948219299379
10
-2.0065153452033795
20
-0.79773782588169617
10
-2.0065153452033799
20
-0.71100619122747877
42
-0.22544948219300326
0
LWPOLYLINE
5
181
100
AcDbEntity
8
0
100
AcDbPolyline
90
12
70
1
43
0.0
10
12.524760264753235
20
-1.3232744145525766
42
0.35589151571366706
10
12.466339401448908
20
-1.3232744145525726
10
12.341391205570682
20
-1.4251086148353653
42
0.22544948219304198
10
12.324365371996976
20
-1.4609491352658952
10
12.324365371996976
20
-1.5565378724334591
42
0.22544948219299771
10
12.341391205570682
20
-1.5923783928639881
10
12.466339401448906
20
-1.6942125931467802
42
0.35589151571369754
10
12.524760264753237
20
-1.6942125931467766
10
12.649708460631476
20
-1.5923783928639905
42
0.22544948219296781
10
12.666734294205181
20
-1.55653787243346
10
12.666734294205183
20
-1.4609491352658965
42
0.22544948219295488
10
12.649708460631475
20
-1.425108614835366
0
LWPOLYLINE
5
182
100
AcDbEntity
8
0
100
AcDbPolyline
90
12
70
1
43
0.0
10
-2.2845359780008394
20
0.18701973873649497
42
0.35589151571367794
10
-2.3434454416662267
20
0.18701973873649536
10
-2.469438636371367
20
0.084333852528296949
42
0.22544948219299696
10
-2.4866068647670776
20
0.048193581456769663
10
-2.4866068647670776
20
-0.048194607975821785
42
0.22544948219298877
10
-2.4694386363713678
20
-0.084334879047348599
10
-2.3434454416662258
20
-0.18702076525554726
42
0.35589151571366484
10
-2.2845359780008399
20
-0.18702076525554695
10
-2.1585427832956992
20
-0.084334879047348543
42
0.22544948219299232
10
-2.1413745548999894
20
-0.048194607975821646
10
-2.141374554899989
20
0.048193581456769594
42
0.22544948219298735
10
-2.1585427832956992
20
0.084333852528296616
0
LWPOLYLINE
5
183
100
AcDbEntity
8
0
100
AcDbPolyline
90
12
70
1
43
0.0
10
12.060420692976859
20
0.93005289713335082
42
0.355891515713676
10
12.005082689291877
20
0.93005289713335304
10
11.886727989740063
20
0.83359247132363912
42
0.22544948219296529
10
11.870600606682853
20
0.79964324942794796
10
11.870600606682853
20
0.70909871464306362
42
0.22544948219293434
10
11.886727989740059
20
0.67514949274737357
10
12.005082689291877
20
0.57868906693766176
42
0.35589151571367195
10
12.060420692976859
20
0.57868906693766009
10
12.178775392528683
20
0.67514949274737079
42
0.22544948219297031
10
12.194902775585891
20
0.70909871464306296
10
12.194902775585891
20
0.79964324942794685
42
0.22544948219300062
10
12.178775392528681
20
0.83359247132363845
0
LWPOLYLINE
5
184
100
AcDbEntity
8
0
100
AcDbPolyline
90
12
70
1
43
0.0
10
12.060420697950926
20
-0.57869006187437622
42
0.35589151571365424
10
12.005082684317811
20
-0.57869006187437622
10
11.886727963489335
20
-0.67515050502480922
42
0.22544948219298966
10
11.870600577532901
20
-0.70909973302356355
10
11.870600577532903
20
-0.79964428408566901
42
0.22544948219302313
10
11.886727963489335
20
-0.83359351208441901
10
12.005082684317811
20
-0.93005395523485646
42
0.35589151571374256
10
12.060420697950931
20
-0.93005395523485324
10
12.178775418779406
20
-0.83359351208442378
42
0.2254494821929911
10
12.194902804735841
20
-0.79964428408566934
10
12.194902804735838
20
-0.70909973302356477
42
0.22544948219301689
10
12.178775418779406
20
-0.67515050502480989
0
LWPOLYLINE
5
185
100
AcDbEntity
8
0
100
AcDbPolyline
90
12
70
1
43
0.0
10
-2.7415332022024312
20
0.97822365567443703
10
-2.5907264676694637
20
0.85531445238037629
42
-0.22544948219299657
10
-2.5701770684091914
20
0.8120565900951302
10
-2.5701770684091918
20
0.69668537397593799
42
-0.22544948219299552
10
-2.590726467669465
20
0.65342751169069158
10
-2.7415332022024312
20
0.53051830839663161
42
-0.35589151571367877
10
-2.812044501398046
20
0.53051830839663094
10
-2.9628512359310117
20
0.65342751169069291
42
-0.22544948219298969
10
-2.9834006351912832
20
0.69668537397593822
10
-2.9834006351912845
20
0.8120565900951302
42
-0.22544948219298958
10
-2.9628512359310117
20
0.8553144523803764
10
-2.8120445013980468
20
0.9782236556744377
42
-0.35589151571367938
0
LWPOLYLINE
5
186
100
AcDbEntity
8
0
100
AcDbPolyline
90
12
70
1
43
0.0
10
-3.0125542873492899
20
2.3910225843682529
10
-2.8214623822498419
20
2.5467646597102744
42
-0.35589151571367694
10
-2.7321153213506348
20
2.5467646597102735
10
-2.5410234162511856
20
2.391022584368252
42
-0.22544948219298061
10
-2.5149846331328072
20
2.3362092012642615
10
-2.5149846331328076
20
2.1900187439870553
42
-0.22544948219299776
10
-2.541023416251186
20
2.1352053608830639
10
-2.7321153213506357
20
1.9794632855410419
42
-0.35589151571367261
10
-2.8214623822498415
20
1.9794632855410415
10
-3.0125542873492912
20
2.135205360883063
42
-0.22544948219299893
10
-3.0385930704676691
20
2.1900187439870544
10
-3.0385930704676687
20
2.3362092012642606
42
-0.22544948219299787
0
LWPOLYLINE
5
187
100
AcDbEntity
8
0
100
AcDbPolyline
90
12
70
1
43
0.0
10
-3.9036939387081029
20
0.073006801586214948
42
0.22544948219299485
10
-3.9297014042120741
20
0.1277542590135505
10
-4.1205634774267965
20
0.28330901875636777
42
0.35589151571368427
10
-4.2098030779739224
20
0.28330901875636666
10
-4.4006651511886465
20
0.12775425901355067
42
0.2254494821930039
10
-4.4266726166926187
20
0.073006801586214809
10
-4.4266726166926187
20
-0.073007828105266737
42
0.2254494821930072
10
-4.4006651511886474
20
-0.12775528553260224
10
-4.2098030779739224
20
-0.28331004527541875
42
0.35589151571368116
10
-4.1205634774267956
20
-0.28331004527541864
10
-3.9297014042120737
20
-0.12775528553260215
42
0.22544948219298905
10
-3.9036939387081029
20
-0.07300782810526707
0
LWPOLYLINE
5
188
100
AcDbEntity
8
0
100
AcDbPolyline
90
12
70
1
43
0.0
10
-3.2818830760923259
20
-1.7772987913283389
10
-3.4628054000827651
20
-1.6298450402167552
42
-0.22544948219299055
10
-3.4874584441413723
20
-1.5779487306802984
10
-3.4874584441413727
20
-1.4395382770189968
42
-0.22544948219299307
10
-3.4628054000827655
20
-1.3876419674825398
10
-3.2818830760923259
20
-1.2401882163709563
42
-0.35589151571367655
10
-3.1972909114415686
20
-1.2401882163709568
10
-3.0163685874511308
20
-1.3876419674825395
42
-0.22544948219298447
10
-2.991715543392524
20
-1.4395382770189966
10
-2.991715543392524
20
-1.5779487306802984
42
-0.22544948219300393
10
-3.0163685874511312
20
-1.6298450402167552
10
-3.1972909114415682
20
-1.7772987913283389
42
-0.35589151571367539
0
LWPOLYLINE
5
189
100
AcDbEntity
8
0
100
AcDbPolyline
90
12
70
1
43
0.0
10
-2.6069562529534549
20
-3.0992819042562401
10
-2.6069562529534567
20
-2.9356910846232989
42
-0.22544948219299496
10
-2.5778181959836872
20
-2.874353522405861
10
-2.363981520439522
20
-2.7000742005468057
42
-0.35589151571368099
10
-2.263999899227545
20
-2.7000742005468057
10
-2.0501632236833802
20
-2.874353522405861
42
-0.22544948219300956
10
-2.0210251667136108
20
-2.9356910846232993
10
-2.0210251667136117
20
-3.0992819042562396
42
-0.22544948219299532
10
-2.0501632236833798
20
-3.1606194664736762
10
-2.263999899227545
20
-3.3348987883327315
42
-0.3558915157136755
10
-2.3639815204395211
20
-3.3348987883327319
10
-2.5778181959836868
20
-3.1606194664736771
42
-0.22544948219299532
0
LWPOLYLINE
5
190
100
AcDbEntity
8
0
100
AcDbPolyline
90
12
70
1
43
0.0
10
-2.5778181338577091
20
3.1606184062497378
42
0.22544948219298802
10
-2.6069561839660604
20
3.0992808584760425
10
-2.6069561839660604
20
2.9356900773653947
42
0.22544948219299152
10
-2.5778181338577077
20
2.8743525295916985
10
-2.3639815086677074
20
2.7000732487718597
42
0.35589151571368061
10
-2.2639999109993587
20
2.7000732487718624
10
-2.050163285809357
20
2.8743525295916981
42
0.22544948219300132
10
-2.0210252357010057
20
2.9356900773653938
10
-2.0210252357010048
20
3.0992808584760425
42
0.2254494821930049
10
-2.0501632858093566
20
3.1606184062497391
10
-2.2639999109993583
20
3.3348976870695743
42
0.35589151571366234
10
-2.3639815086677065
20
3.3348976870695757
0
LWPOLYLINE
5
191
100
AcDbEntity
8
0
100
AcDbPolyline
90
12
70
1
43
0.0
10
-3.2934789226606132
20
-3.3596685988124855
42
0.35589151571368033
10
-3.1856950648732814
20
-3.3596685988124859
10
-2.9551712791296745
20
-3.171789092410974
42
0.22544948219299282
10
-2.9237593841177882
20
-3.1056649487641215
10
-2.9237593841177878
20
-2.929308040115417
42
0.22544948219299965
10
-2.9551712791296736
20
-2.8631838964685623
10
-3.1856950648732805
20
-2.6753043900670503
42
0.35589151571368466
10
-3.2934789226606136
20
-2.6753043900670503
10
-3.524002708404224
20
-2.8631838964685632
42
0.2254494821930049
10
-3.5554146034161094
20
-2.9293080401154166
10
-3.5554146034161089
20
-3.1056649487641215
42
0.22544948219298822
10
-3.5240027084042231
20
-3.1717890924109735
0
LWPOLYLINE
5
192
100
AcDbEntity
8
0
100
AcDbPolyline
90
12
70
1
43
0.0
10
-2.5011018609254982
20
1.6102549298323634
42
0.22544948219299246
10
-2.5217670897830162
20
1.5667532384841472
10
-2.5217670897830162
20
1.450731716177043
42
0.22544948219299668
10
-2.5011018609254982
20
1.407230024828827
10
-2.3494450828899609
20
1.2836280264153042
42
0.35589151571367655
10
-2.2785363367771061
20
1.2836280264153042
10
-2.1268795587415679
20
1.4072300248288272
42
0.22544948219299987
10
-2.1062143298840499
20
1.4507317161770426
10
-2.1062143298840499
20
1.5667532384841472
42
0.22544948219300051
10
-2.1268795587415692
20
1.6102549298323634
10
-2.2785363367771061
20
1.7338569282458856
42
0.35589151571367528
10
-2.34944508288996
20
1.7338569282458858
0
LWPOLYLINE
5
193
100
AcDbEntity
8
0
100
AcDbPolyline
90
12
70
1
43
0.0
10
-12.851781427381489
20
-0.72461883571419361
10
-12.851781427381493
20
-0.78412518139498122
42
-0.22544948219298505
10
-12.862380428562611
20
-0.80643678903113947
10
-12.940163761164726
20
-0.86983108948655297
42
-0.35589151571368127
10
-12.97653218897085
20
-0.86983108948655552
10
-13.054315521572963
20
-0.8064367890311398
42
-0.22544948219306624
10
-13.064914522754082
20
-0.78412518139498089
10
-13.064914522754082
20
-0.72461883571419383
42
-0.22544948219302588
10
-13.054315521572963
20
-0.70230722807803614
10
-12.976532188970854
20
-0.63891292762262164
42
-0.35589151571376021
10
-12.940163761164724
20
-0.63891292762262353
10
-12.862380428562606
20
-0.70230722807803436
42
-0.22544948219303498
0
LWPOLYLINE
5
194
100
AcDbEntity
8
0
100
AcDbPolyline
90
12
70
1
43
0.0
10
-2.590726449128713
20
-0.85531548895824816
10
-2.7415331986892753
20
-0.97822470449996946
42
-0.35589151571367994
10
-2.8120445049112024
20
-0.9782247044999699
10
-2.9628512544717629
20
-0.8553154889582486
42
-0.22544948219300209
10
-2.983400655779743
20
-0.81205762236244095
10
-2.983400655779743
20
-0.69668639474673411
42
-0.22544948219300195
10
-2.9628512544717629
20
-0.653428528150927
10
-2.8120445049112015
20
-0.53051931260920493
42
-0.35589151571367567
10
-2.7415331986892753
20
-0.53051931260920571
10
-2.590726449128713
20
-0.65342852815092689
42
-0.22544948219299615
10
-2.5701770478207333
20
-0.69668639474673422
10
-2.5701770478207329
20
-0.81205762236244095
42
-0.22544948219300046
0
LWPOLYLINE
5
195
100
AcDbEntity
8
0
100
AcDbPolyline
90
12
70
1
43
0.0
10
-3.8610215679229367
20
2.8524701765473983
42
0.22544948219299926
10
-3.8274288541506021
20
2.9231850898033174
10
-3.8274288541506012
20
3.111785846038118
42
0.22544948219299751
10
-3.8610215679229363
20
3.182500759294038
10
-4.107549819378951
20
3.3834240872195078
42
0.35589151571369454
10
-4.2228167360217679
20
3.3834240872195078
10
-4.4693449874777835
20
3.1825007592940362
42
0.22544948219300309
10
-4.5029377012501195
20
3.1117858460381189
10
-4.5029377012501186
20
2.9231850898033178
42
0.22544948219299593
10
-4.4693449874777835
20
2.8524701765474001
10
-4.222816736021767
20
2.6515468486219289
42
0.35589151571366862
10
-4.1075498193789519
20
2.6515468486219285
0
LWPOLYLINE
5
196
100
AcDbEntity
8
0
100
AcDbPolyline
90
12
70
1
43
0.0
10
-2.5217671342709136
20
-1.566754277424135
10
-2.5217671342709123
20
-1.4507327302751616
42
-0.22544948219299274
10
-2.5011019009886728
20
-1.4072310296126109
10
-2.3494450904812481
20
-1.283629004734131
42
-0.35589151571367345
10
-2.2785363291858172
20
-1.2836290047341321
10
-2.1268795186783938
20
-1.4072310296126112
42
-0.2254494821929974
10
-2.1062142853961543
20
-1.4507327302751609
10
-2.1062142853961539
20
-1.5667542774241343
42
-0.22544948219299846
10
-2.1268795186783933
20
-1.6102559780866847
10
-2.2785363291858163
20
-1.7338580029651633
42
-0.35589151571367894
10
-2.3494450904812494
20
-1.733858002965164
10
-2.5011019009886737
20
-1.6102559780866859
42
-0.2254494821929848
0
LWPOLYLINE
5
197
100
AcDbEntity
8
0
100
AcDbPolyline
90
12
70
1
43
0.0
10
-10.915831002375411
20
0.65057273460913256
10
-11.070902694394176
20
0.5241875424722281
42
-0.35589151571366889
10
-11.143408120007745
20
0.52418754247222676
10
-11.298479812026516
20
0.6505727346091319
42
-0.22544948219298644
10
-11.319610367788021
20
0.69505397026788429
10
-11.319610367788023
20
0.81368799380318357
42
-0.22544948219297581
10
-11.298479812026516
20
0.85816922946193641
10
-11.14340812000775
20
0.98455442159884066
42
-0.35589151571369959
10
-11.070902694394174
20
0.98455442159884121
10
-10.915831002375411
20
0.85816922946193519
42
-0.22544948219304337
10
-10.894700446613903
20
0.81368799380318446
10
-10.894700446613905
20
0.69505397026788462
42
-0.2254494821929659
0
LWPOLYLINE
5
198
100
AcDbEntity
8
0
100
AcDbPolyline
90
12
70
1
43
0.0
10
-12.243805359697564
20
-2.1486131355181253
42
0.22544948219303954
10
-12.26711488634322
20
-2.1976812508825181
10
-12.267114886343213
20
-2.3285487474068991
42
0.22544948219295263
10
-12.243805359697557
20
-2.3776168627712897
10
-12.07274276305338
20
-2.5170348239920664
42
0.35589151571374539
10
-11.99276061921536
20
-2.5170348239920699
10
-11.821698022571184
20
-2.3776168627712875
42
0.22544948219300931
10
-11.798388495925531
20
-2.3285487474068978
10
-11.798388495925535
20
-2.1976812508825181
42
0.22544948219301122
10
-11.821698022571187
20
-2.1486131355181266
10
-11.99276061921536
20
-2.0091951742973468
42
0.35589151571374161
10
-12.07274276305338
20
-2.00919517429735
0
LWPOLYLINE
5
199
100
AcDbEntity
8
0
100
AcDbPolyline
90
12
70
1
43
0.0
10
-11.319610387523056
20
-0.81368902583221958
10
-11.319610387523051
20
-0.69505499127695569
42
-0.22544948219297056
10
-11.298479829798719
20
-0.65057375148632202
10
-11.143408123375275
20
-0.52418854760944023
42
-0.35589151571364397
10
-11.070902691026644
20
-0.52418854760944278
10
-10.915830984603208
20
-0.65057375148632268
42
-0.22544948219300909
10
-10.894700426878876
20
-0.6950549912769558
10
-10.894700426878876
20
-0.81368902583221958
42
-0.22544948219297198
10
-10.915830984603209
20
-0.85817026562285281
10
-11.070902691026648
20
-0.98455546949973272
42
-0.3558915157136866
10
-11.143408123375275
20
-0.98455546949973283
10
-11.298479829798719
20
-0.85817026562285492
42
-0.22544948219300381
0
LWPOLYLINE
5
200
100
AcDbEntity
8
0
100
AcDbPolyline
90
12
70
1
43
0.0
10
-13.41268386822702
20
0.053729797829894933
42
0.35589151571372019
10
-13.429608365841963
20
0.053729797829896411
10
-13.465805801544279
20
0.024228476173155621
42
0.22544948219320379
10
-13.47073817781215
20
0.013845493652253347
10
-13.47073817781215
20
-0.013846520171305521
42
0.2254494821931359
10
-13.465805801544279
20
-0.024229502692208471
10
-13.429608365841963
20
-0.053730824348948367
42
0.35589151571372657
10
-13.41268386822702
20
-0.053730824348946771
10
-13.376486432524702
20
-0.024229502692206226
42
0.22544948219305858
10
-13.371554056256834
20
-0.01384652017130561
10
-13.371554056256835
20
0.013845493652253689
42
0.22544948219299965
10
-13.3764864325247
20
0.024228476173154267
0
LWPOLYLINE
5
201
100
AcDbEntity
8
0
100
AcDbPolyline
90
12
70
1
43
0.0
10
-10.131131261374833
20
-1.9429276862075227
42
0.35589151571370536
10
-10.231986985160264
20
-1.9429276862075149
10
-10.447693156178943
20
-2.1187306681341851
42
0.22544948219300615
10
-10.477085956473273
20
-2.180604482118031
10
-10.477085956473271
20
-2.3456255161713857
42
0.22544948219302369
10
-10.447693156178941
20
-2.4074993301552303
10
-10.23198698516026
20
-2.5833023120818996
42
0.3558915157136846
10
-10.13113126137484
20
-2.583302312081897
10
-9.9154250903561483
20
-2.4074993301552312
42
0.22544948219301061
10
-9.8860322900618165
20
-2.3456255161713848
10
-9.8860322900618165
20
-2.180604482118031
42
0.22544948219299465
10
-9.9154250903561501
20
-2.1187306681341851
0
LWPOLYLINE
5
202
100
AcDbEntity
8
0
100
AcDbPolyline
90
12
70
1
43
0.0
10
-12.466339401448913
20
-1.3232744145525486
42
0.35589151571367056
10
-12.52476026475324
20
-1.3232744145525428
10
-12.649708460631473
20
-1.4251086148353334
42
0.22544948219308053
10
-12.666734294205179
20
-1.4609491352658659
10
-12.666734294205181
20
-1.5565378724334287
42
0.22544948219308075
10
-12.649708460631475
20
-1.5923783928639601
10
-12.524760264753244
20
-1.6942125931467484
42
0.35589151571368943
10
-12.466339401448918
20
-1.6942125931467498
10
-12.341391205570686
20
-1.5923783928639601
42
0.2254494821929986
10
-12.324365371996976
20
-1.5565378724334296
10
-12.324365371996985
20
-1.4609491352658659
42
0.22544948219303571
10
-12.341391205570691
20
-1.4251086148353356
0
LWPOLYLINE
5
203
100
AcDbEntity
8
0
100
AcDbPolyline
90
12
70
1
43
0.0
10
-4.4185677600235858
20
-1.3712761210859157
42
0.22544948219299921
10
-4.44655245407092
20
-1.430185777074483
10
-4.4465524540709209
20
-1.5873012306248135
42
0.22544948219298214
10
-4.4185677600235849
20
-1.64621088661338
10
-4.2131953171248924
20
-1.8135917626293327
42
0.3558915157136856
10
-4.1171712382758265
20
-1.8135917626293308
10
-3.9117987953771367
20
-1.64621088661338
42
0.2254494821929916
10
-3.8838141013298015
20
-1.5873012306248131
10
-3.8838141013298011
20
-1.430185777074483
42
0.2254494821930029
10
-3.9117987953771354
20
-1.3712761210859159
10
-4.1171712382758257
20
-1.2038952450699638
42
0.35589151571369015
10
-4.2131953171248933
20
-1.2038952450699643
0
LWPOLYLINE
5
204
100
AcDbEntity
8
0
100
AcDbPolyline
90
12
70
1
43
0.0
10
0.034959330756668391
20
2.4850851956149285
42
0.35589151571367922
10
-0.034959330756664991
20
2.4850851956149285
10
-0.18449855561890074
20
2.3632090271139048
42
0.22544948219299074
10
-0.20487524003078988
20
2.3203147411566745
10
-0.20487524003079008
20
2.2059132040946401
42
0.2254494821929901
10
-0.18449855561890105
20
2.1630189181374102
10
-0.034959330756664714
20
2.0411427496363865
42
0.35589151571366995
10
0.034959330756668128
20
2.041142749636387
10
0.18449855561890549
20
2.1630189181374098
42
0.22544948219299007
10
0.20487524003079433
20
2.2059132040946401
10
0.20487524003079441
20
2.3203147411566736
42
0.2254494821929959
10
0.18449855561890521
20
2.3632090271139048
0
LWPOLYLINE
5
205
100
AcDbEntity
8
0
100
AcDbPolyline
90
12
70
1
43
0.0
10
-12.666734234130391
20
1.4609481255195769
10
-12.666734234130393
20
1.5565368291416133
42
-0.22544948219297056
10
-12.649708406531666
20
1.5923773369944159
10
-12.524760254502253
20
1.6942115015399197
42
-0.35589151571367328
10
-12.466339411699908
20
1.6942115015399204
10
-12.341391259670493
20
1.5923773369944125
42
-0.22544948219293487
10
-12.324365432071771
20
1.5565368291416131
10
-12.324365432071762
20
1.4609481255195769
42
-0.22544948219303484
10
-12.341391259670491
20
1.4251076176667741
10
-12.466339411699908
20
1.3232734531212702
42
-0.35589151571368632
10
-12.524760254502253
20
1.32327345312127
10
-12.649708406531662
20
1.4251076176667739
42
-0.22544948219300007
0
LWPOLYLINE
5
206
100
AcDbEntity
8
0
100
AcDbPolyline
90
12
70
1
43
0.0
10
6.5328784133190245
20
1.0953625517665297
10
6.7626001508282023
20
0.90813672379524391
42
-0.2254494821929918
10
6.7939027562288103
20
0.84224264210270861
10
6.7939027562288112
20
0.66649932196832662
42
-0.22544948219300312
10
6.7626001508282023
20
0.60060524027579132
10
6.5328784133190201
20
0.41337941230450687
42
-0.35589151571368888
10
6.4254695617487636
20
0.4133794123045077
10
6.1957478242395858
20
0.60060524027579376
42
-0.22544948219299835
10
6.1644452188389778
20
0.66649932196832795
10
6.1644452188389769
20
0.84224264210271038
42
-0.22544948219300068
10
6.1957478242395867
20
0.90813672379524535
10
6.4254695617487663
20
1.0953625517665306
42
-0.35589151571366401
0
LWPOLYLINE
5
207
100
AcDbEntity
8
0
100
AcDbPolyline
90
12
70
1
43
0.0
10
6.5328784150243466
20
-0.41338042799576757
10
6.7626001598280938
20
-0.60060626191221078
42
-0.22544948219300184
10
6.7939027662226827
20
-0.66650034569714212
10
6.7939027662226836
20
-0.84224367141206524
42
-0.22544948219298597
10
6.7626001598280956
20
-0.90813775519699613
10
6.5328784150243457
20
-1.0953635891134383
42
-0.35589151571368621
10
6.4254695600434335
20
-1.0953635891134397
10
6.1957478152396872
20
-0.90813775519699491
42
-0.22544948219299146
10
6.1644452088450974
20
-0.84224367141206391
10
6.1644452088451001
20
-0.66650034569714089
42
-0.22544948219297639
10
6.1957478152396881
20
-0.60060626191221145
10
6.4254695600434379
20
-0.41338042799576724
42
-0.35589151571366101
0
LWPOLYLINE
5
208
100
AcDbEntity
8
0
100
AcDbPolyline
90
12
70
1
43
0.0
10
7.0052606787055627
20
-2.6156413685697997
10
7.275978692635551
20
-2.8362796279454865
42
-0.22544948219301073
10
7.3128675794112246
20
-2.9139332062222523
10
7.3128675794112246
20
-3.1210397826573226
42
-0.22544948219299379
10
7.275978692635551
20
-3.1986933609340871
10
7.0052606787055609
20
-3.4193316203097739
42
-0.35589151571366917
10
6.8786835802956254
20
-3.4193316203097743
10
6.6079655663656442
20
-3.1986933609340844
42
-0.22544948219299368
10
6.5710766795899733
20
-3.1210397826573222
10
6.5710766795899733
20
-2.9139332062222492
42
-0.22544948219298469
10
6.6079655663656442
20
-2.8362796279454869
10
6.8786835802956254
20
-2.6156413685697979
42
-0.35589151571368971
0
LWPOLYLINE
5
209
100
AcDbEntity
8
0
100
AcDbPolyline
90
12
70
1
43
0.0
10
7.0052606719570045
20
3.4193305509412086
10
7.2759786570198379
20
3.1986923150925803
42
-0.22544948219300909
10
7.3128675398619798
20
3.121038745096159
10
7.3128675398619798
20
2.91393219074524
42
-0.22544948219301492
10
7.2759786570198379
20
2.8362786207488195
10
7.005260671957001
20
2.6156403849001886
42
-0.35589151571366673
10
6.8786835870442138
20
2.6156403849001886
10
6.6079656019813848
20
2.8362786207488209
42
-0.22544948219298808
10
6.571076719139243
20
2.9139321907452409
10
6.5710767191392438
20
3.121038745096163
42
-0.22544948219300104
10
6.6079656019813875
20
3.1986923150925839
10
6.8786835870442156
20
3.4193305509412113
42
-0.35589151571369038
0
LWPOLYLINE
5
210
100
AcDbEntity
8
0
100
AcDbPolyline
90
12
70
1
43
0.0
10
6.5378867000994498
20
-1.8903237491088527
10
6.7890314828106888
20
-2.0950096024965901
42
-0.22544948219300909
10
6.82325325963021
20
-2.167048735615055
10
6.82325325963021
20
-2.3591812626743955
42
-0.22544948219298294
10
6.7890314828106906
20
-2.4312203957928569
10
6.5378867000994489
20
-2.6359062491805965
42
-0.35589151571367444
10
6.4204612749683267
20
-2.6359062491805951
10
6.1693164922570869
20
-2.4312203957928578
42
-0.22544948219300709
10
6.1350947154375683
20
-2.3591812626743924
10
6.1350947154375657
20
-2.1670487356150527
42
-0.22544948219299016
10
6.1693164922570851
20
-2.0950096024965905
10
6.4204612749683294
20
-1.8903237491088529
42
-0.3558915157136775
0
LWPOLYLINE
5
211
100
AcDbEntity
8
0
100
AcDbPolyline
90
12
70
1
43
0.0
10
6.9953416707266651
20
0.33886473615792806
10
7.2236309329482218
20
0.15280639183308065
42
-0.22544948219299765
10
7.2547383447674099
20
0.087323205707716511
10
7.2547383447674108
20
-0.087324232226803397
42
-0.22544948219299576
10
7.2236309329482227
20
-0.15280741835216777
10
6.9953416707266616
20
-0.3388657626770134
42
-0.35589151571368816
10
6.8886025882745345
20
-0.33886576267701268
10
6.6603133260529868
20
-0.15280741835216624
42
-0.22544948219297944
10
6.6292059142337996
20
-0.08732423222680244
10
6.6292059142337987
20
0.087323205707718593
42
-0.2254494821929828
10
6.660313326052985
20
0.15280639183308292
10
6.8886025882745381
20
0.33886473615792739
42
-0.35589151571369154
0
LWPOLYLINE
5
212
100
AcDbEntity
8
0
100
AcDbPolyline
90
12
70
1
43
0.0
10
6.9978214618433814
20
-1.1541330369173977
10
7.2367180793371269
20
-1.3488364963931012
42
-0.22544948219299521
10
7.2692708826984012
20
-1.4173623285580881
10
7.2692708826984012
20
-1.6001246791412436
42
-0.22544948219299463
10
7.2367180793371269
20
-1.6686505113062293
10
6.9978214618433761
20
-1.8633539707819311
42
-0.35589151571368183
10
6.8861227971578174
20
-1.8633539707819298
10
6.647226179664079
20
-1.6686505113062289
42
-0.22544948219299216
10
6.6146733763028029
20
-1.600124679141242
10
6.6146733763028029
20
-1.4173623285580854
42
-0.22544948219299252
10
6.6472261796640764
20
-1.3488364963931017
10
6.8861227971578201
20
-1.1541330369173994
42
-0.35589151571367905
0
LWPOLYLINE
5
213
100
AcDbEntity
8
0
100
AcDbPolyline
90
12
70
1
43
0.0
10
7.4585889968512218
20
-0.41265470348535532
10
7.6887996531421834
20
-0.60027900582272964
42
-0.22544948219300651
10
7.7201688801514603
20
-0.66631333046526575
10
7.7201688801514603
20
-0.84243068664394705
42
-0.22544948219300451
10
7.6887996531421834
20
-0.90846501128648349
10
7.4585889968512218
20
-1.0960893136238588
42
-0.35589151571368827
10
7.3509515460833779
20
-1.0960893136238596
10
7.1207408897924083
20
-0.90846501128648249
42
-0.22544948219299601
10
7.0893716627831305
20
-0.84243068664394505
10
7.0893716627831296
20
-0.66631333046526486
42
-0.22544948219299649
10
7.1207408897924065
20
-0.60027900582272686
10
7.3509515460833796
20
-0.41265470348535288
42
-0.35589151571368832
0
LWPOLYLINE
5
214
100
AcDbEntity
8
0
100
AcDbPolyline
90
12
70
1
43
0.0
10
7.4635776793308528
20
2.6365064822007933
10
7.7151275230415903
20
2.4314904994929774
42
-0.22544948219300964
10
7.7494044947450078
20
2.359335177445764
10
7.7494044947450069
20
2.1668927678055145
42
-0.22544948219302399
10
7.7151275230415886
20
2.0947374457583021
10
7.4635776793308501
20
1.8897214630504855
42
-0.35589151571366995
10
7.3459628636037637
20
1.8897214630504846
10
7.094413019893012
20
2.0947374457583035
42
-0.22544948219299416
10
7.0601360481895954
20
2.1668927678055163
10
7.0601360481895963
20
2.3593351774457645
42
-0.22544948219297967
10
7.0944130198930129
20
2.4314904994929769
10
7.3459628636037646
20
2.6365064822007946
42
-0.35589151571367444
0
LWPOLYLINE
5
215
100
AcDbEntity
8
0
100
AcDbPolyline
90
12
70
1
43
0.0
10
7.4585889951531881
20
1.0960882763232274
10
7.6887996441807589
20
0.9084639799055978
42
-0.22544948219299729
10
7.7201688702003057
20
0.84242965734651221
10
7.7201688702003066
20
0.66631230672451891
42
-0.22544948219300115
10
7.6887996441807589
20
0.60027798416543399
10
7.4585889951531854
20
0.41265368774780437
42
-0.35589151571367411
10
7.3509515477814178
20
0.41265368774780098
10
7.1207408987538372
20
0.60027798416543532
42
-0.22544948219299715
10
7.0893716727342921
20
0.6663123067245208
10
7.0893716727342913
20
0.84242965734651376
42
-0.22544948219299132
10
7.1207408987538372
20
0.90846397990560002
10
7.3509515477814213
20
1.0960882763232289
42
-0.35589151571367655
0
LWPOLYLINE
5
216
100
AcDbEntity
8
0
100
AcDbPolyline
90
12
70
1
43
0.0
10
6.9978214584690068
20
1.863352922837511
10
7.2367180615287765
20
1.6686494751256638
42
-0.22544948219299063
10
7.2692708629232294
20
1.6001236471009646
10
7.2692708629232303
20
1.4173613075601912
42
-0.2254494821929868
10
7.2367180615287738
20
1.3488354795354898
10
6.9978214584690033
20
1.1541320318236465
42
-0.35589151571368854
10
6.8861228005322026
20
1.1541320318236479
10
6.6472261974724418
20
1.3488354795354924
42
-0.22544948219299868
10
6.6146733960779862
20
1.4173613075601934
10
6.614673396077988
20
1.6001236471009663
42
-0.22544948219300975
10
6.6472261974724454
20
1.6686494751256657
10
6.886122800532207
20
1.8633529228375101
42
-0.35589151571368366
0
LWPOLYLINE
5
217
100
AcDbEntity
8
0
100
AcDbPolyline
90
12
70
1
43
0.0
10
5.1514132927132517
20
-2.6324979048184134
10
5.4107752698987754
20
-2.8438808651309464
42
-0.22544948219300792
10
5.4461167474436918
20
-2.9182770432980965
10
5.4461167474436927
20
-3.1166959455814709
42
-0.22544948219297803
10
5.4107752698987763
20
-3.1910921237486183
10
5.1514132927132517
20
-3.4024750840611526
42
-0.35589151571368466
10
5.0301458305542814
20
-3.4024750840611526
10
4.7707838533687603
20
-3.1910921237486178
42
-0.22544948219298735
10
4.7354423758238449
20
-3.1166959455814691
10
4.7354423758238449
20
-2.9182770432980929
42
-0.22544948219297686
10
4.7707838533687594
20
-2.8438808651309451
10
5.0301458305542806
20
-2.6324979048184134
42
-0.35589151571369532
0
LWPOLYLINE
5
218
100
AcDbEntity
8
0
100
AcDbPolyline
90
12
70
1
43
0.0
10
5.6053465203182498
20
1.0830725707339459
10
5.8267886519738656
20
0.90259471567117489
42
-0.22544948219298247
10
5.8569630522785294
20
0.83907558129713311
10
5.8569630522785303
20
0.66966638277390711
42
-0.22544948219300404
10
5.8267886519738648
20
0.60614724839986467
10
5.605346520318248
20
0.42566939333709564
42
-0.35589151571369049
10
5.5018088868827153
20
0.42566939333709569
10
5.2803667552270994
20
0.60614724839986611
42
-0.22544948219298785
10
5.2501923549224339
20
0.66966638277390866
10
5.2501923549224339
20
0.83907558129713422
42
-0.22544948219299216
10
5.2803667552270994
20
0.90259471567117644
10
5.5018088868827171
20
1.0830725707339455
42
-0.35589151571368854
0
LWPOLYLINE
5
219
100
AcDbEntity
8
0
100
AcDbPolyline
90
12
70
1
43
0.0
10
5.6106977352515166
20
2.6257926340398652
10
5.8550297940273408
20
2.4266592281191257
42
-0.22544948219297956
10
5.8883232476878682
20
2.3565742774494658
10
5.8883232476878691
20
2.1696536678018203
42
-0.22544948219301361
10
5.8550297940273381
20
2.0995687171321591
10
5.6106977352515122
20
1.9004353112114225
42
-0.35589151571366029
10
5.4964576719494556
20
1.9004353112114218
10
5.2521256131736296
20
2.0995687171321618
42
-0.22544948219300467
10
5.2188321595131022
20
2.1696536678018217
10
5.2188321595131022
20
2.3565742774494676
42
-0.22544948219301453
10
5.2521256131736322
20
2.4266592281191288
10
5.4964576719494556
20
2.625792634039867
42
-0.35589151571369254
0
LWPOLYLINE
5
220
100
AcDbEntity
8
0
100
AcDbPolyline
90
12
70
1
43
0.0
10
6.078948024460308
20
-2.6201898994138069
10
6.3466017502924252
20
-2.838330729149241
42
-0.2254494821930105
10
6.383073087548401
20
-2.9151053377105596
10
6.3830730875484001
20
-3.1198676511690095
42
-0.22544948219298305
10
6.3466017502924252
20
-3.1966422597303277
10
6.0789480244603045
20
-3.4147830894657627
42
-0.35589151571367633
10
5.9538036666740526
20
-3.4147830894657618
10
5.6861499408419318
20
-3.1966422597303268
42
-0.22544948219299552
10
5.6496786035859596
20
-3.1198676511690082
10
5.6496786035859596
20
-2.9151053377105578
42
-0.2254494821929918
10
5.6861499408419327
20
-2.8383307291492414
10
5.9538036666740544
20
-2.620189899413806
42
-0.35589151571369182
0
LWPOLYLINE
5
221
100
AcDbEntity
8
0
100
AcDbPolyline
90
12
70
1
43
0.0
10
6.0712699386190385
20
-1.1601982455202078
10
6.3060805012590171
20
-1.3515715238322652
42
-0.22544948219299835
10
6.3380765259535456
20
-1.4189252995986987
10
6.3380765259535465
20
-1.5985617081006289
42
-0.22544948219298294
10
6.3060805012590198
20
-1.6659154838670611
10
6.0712699386190394
20
-1.857288762179119
42
-0.35589151571367789
10
5.9614817525153274
20
-1.8572887621791172
10
5.7266711898753497
20
-1.6659154838670602
42
-0.22544948219299915
10
5.6946751651808194
20
-1.5985617081006263
10
5.6946751651808203
20
-1.4189252995986965
42
-0.22544948219300606
10
5.7266711898753488
20
-1.3515715238322645
10
5.9614817525153283
20
-1.1601982455202078
42
-0.35589151571368649
0
LWPOLYLINE
5
222
100
AcDbEntity
8
0
100
AcDbPolyline
90
12
70
1
43
0.0
10
6.0686951880369255
20
0.33219659070783475
10
6.2924922044238754
20
0.14979947781434566
42
-0.22544948219299005
10
6.3229874887176152
20
0.085604861143565719
10
6.3229874887176161
20
-0.085605887662648081
42
-0.22544948219301164
10
6.2924922044238762
20
-0.14980050433342809
10
6.068695188036922
20
-0.33219761722691565
42
-0.3558915157136916
10
5.9640565030974484
20
-0.33219761722691687
10
5.7402594867104977
20
-0.14980050433342604
42
-0.22544948219300018
10
5.7097642024167596
20
-0.085605887662646235
10
5.7097642024167614
20
0.085604861143566968
42
-0.22544948219300148
10
5.7402594867104995
20
0.1497994778143466
10
5.9640565030974502
20
0.33219659070783475
42
-0.3558915157136992
0
LWPOLYLINE
5
223
100
AcDbEntity
8
0
100
AcDbPolyline
90
12
70
1
43
0.0
10
4.4006651511886474
20
-0.12775528553261273
42
0.22544948219300634
10
4.4266726166926187
20
-0.073007828105277506
10
4.4266726166926187
20
0.073006801586204456
42
0.22544948219299218
10
4.4006651511886474
20
0.12775425901354026
10
4.2098030779739233
20
0.28330901875635656
42
0.35589151571367222
10
4.1205634774267974
20
0.28330901875635778
10
3.9297014042120741
20
0.12775425901354093
42
0.22544948219299657
10
3.9036939387081029
20
0.07300680158620565
10
3.9036939387081029
20
-0.073007828105276451
42
0.22544948219300071
10
3.9297014042120737
20
-0.12775528553261167
10
4.1205634774267947
20
-0.2833100452754288
42
0.35589151571368399
10
4.2098030779739224
20
-0.28331004527542863
0
LWPOLYLINE
5
224
100
AcDbEntity
8
0
100
AcDbPolyline
90
12
70
1
43
0.0
10
3.9514238452771644
20
0.82390210535584729
10
3.9514238452771644
20
0.68483985871520248
42
-0.22544948219300451
10
3.9266547068007442
20
0.63269916265074078
10
3.7448803958579919
20
0.48455103248605957
42
-0.35589151571367045
10
3.6598898756093141
20
0.48455103248605957
10
3.4781155646665596
20
0.63269916265074289
42
-0.22544948219299576
10
3.4533464261901408
20
0.68483985871520348
10
3.4533464261901408
20
0.8239021053558484
42
-0.22544948219300018
10
3.4781155646665596
20
0.87604280142030844
10
3.6598898756093154
20
1.0241909315849915
42
-0.35589151571366556
10
3.7448803958579937
20
1.0241909315849909
10
3.9266547068007456
20
0.87604280142030744
42
-0.22544948219300046
0
LWPOLYLINE
5
225
100
AcDbEntity
8
0
100
AcDbPolyline
90
12
70
1
43
0.0
10
6.0712699351213981
20
1.8572877134520269
10
6.3060804828001205
20
1.6659144473335596
42
-0.22544948219298461
10
6.3380765054559767
20
1.598560675858661
10
6.3380765054559793
20
1.4189242788024978
42
-0.22544948219297989
10
6.3060804828001196
20
1.3515705073275988
10
6.0712699351213946
20
1.1601972412091359
42
-0.35589151571366384
10
5.961481756012982
20
1.1601972412091353
10
5.7266712083342606
20
1.351570507327599
42
-0.22544948219299252
10
5.6946751856783981
20
1.4189242788024987
10
5.6946751856783973
20
1.598560675858663
42
-0.22544948219301827
10
5.7266712083342606
20
1.665914447333565
10
5.9614817560129847
20
1.8572877134520256
42
-0.3558915157136765
0
LWPOLYLINE
5
226
100
AcDbEntity
8
0
100
AcDbPolyline
90
12
70
1
43
0.0
10
6.0789480175212258
20
3.4147820188875255
10
6.346601713671248
20
3.1966412133433373
42
-0.22544948219299998
10
6.3830730468826449
20
3.1198666132961232
10
6.3830730468826449
20
2.9151043225452788
42
-0.2254494821929848
10
6.3466017136712489
20
2.8383297224980666
10
6.0789480175212258
20
2.6201889169538775
42
-0.35589151571367444
10
5.953803673613157
20
2.6201889169538788
10
5.6861499774631321
20
2.8383297224980657
42
-0.2254494821930087
10
5.6496786442517362
20
2.9151043225452811
10
5.6496786442517362
20
3.1198666132961259
42
-0.22544948219300393
10
5.686149977463133
20
3.1966412133433391
10
5.9538036736131588
20
3.4147820188875255
42
-0.35589151571370325
0
LWPOLYLINE
5
227
100
AcDbEntity
8
0
100
AcDbPolyline
90
12
70
1
43
0.0
10
5.1430399087820273
20
-1.1769209855330021
10
5.3665845715210656
20
-1.3591124273342212
42
-0.22544948219300243
10
5.3970454693142162
20
-1.4232346581173123
10
5.3970454693142154
20
-1.5942523495820105
42
-0.22544948219297828
10
5.3665845715210656
20
-1.6583745803651002
10
5.1430399087820238
20
-1.8405660221663183
42
-0.3558915157136715
10
5.0385192144855138
20
-1.8405660221663198
10
4.8149745517464764
20
-1.6583745803651004
42
-0.22544948219300909
10
4.7845136539533257
20
-1.5942523495820082
10
4.7845136539533284
20
-1.4232346581173108
42
-0.22544948219299657
10
4.8149745517464764
20
-1.3591124273342217
10
5.0385192144855191
20
-1.1769209855330018
42
-0.35589151571369448
0
LWPOLYLINE
5
228
100
AcDbEntity
8
0
100
AcDbPolyline
90
12
70
1
43
0.0
10
10.683263785873875
20
0.24703304778732563
42
0.35589151571367988
10
10.605450744594629
20
0.2470330477873286
10
10.439027337378032
20
0.11139607869691198
42
0.22544948219301553
10
10.416349961253289
20
0.063658682534122601
10
10.416349961253287
20
-0.063659709053224628
42
0.2254494821929808
10
10.439027337378031
20
-0.11139710521601259
10
10.605450744594634
20
-0.24703407430642504
42
0.35589151571367472
10
10.68326378587388
20
-0.24703407430642838
10
10.849687193090464
20
-0.11139710521601602
42
0.22544948219304084
10
10.872364569215211
20
-0.063659709053225932
10
10.872364569215209
20
0.063658682534122102
42
0.22544948219300756
10
10.849687193090464
20
0.11139607869691037
0
LWPOLYLINE
5
229
100
AcDbEntity
8
0
100
AcDbPolyline
90
12
70
1
43
0.0
10
11.143408120007754
20
0.98455442159881656
42
0.35589151571370292
10
11.070902694394183
20
0.98455442159881368
10
10.915831002375411
20
0.85816922946190999
42
0.22544948219303285
10
10.894700446613903
20
0.81368799380315804
10
10.894700446613905
20
0.69505397026785876
42
0.22544948219302241
10
10.915831002375409
20
0.65057273460910747
10
11.070902694394185
20
0.52418754247220145
42
0.35589151571367739
10
11.143408120007752
20
0.52418754247219845
10
11.298479812026516
20
0.65057273460910536
42
0.22544948219297992
10
11.319610367788023
20
0.69505397026785731
10
11.319610367788023
20
0.81368799380315693
42
0.22544948219296743
10
11.298479812026516
20
0.85816922946190943
0
LWPOLYLINE
5
230
100
AcDbEntity
8
0
100
AcDbPolyline
90
12
70
1
43
0.0
10
11.152504921756011
20
2.5510567618574407
42
0.35589151571368866
10
11.06180589264593
20
2.5510567618574407
10
10.867822452240786
20
2.3929580523649636
42
0.22544948219303038
10
10.841389659440706
20
2.3373152524817162
10
10.841389659440704
20
2.1889126927695468
42
0.22544948219301825
10
10.867822452240787
20
2.1332698928862963
10
11.06180589264593
20
1.9751711833938199
42
0.35589151571365341
10
11.152504921756011
20
1.9751711833938204
10
11.346488362161155
20
2.1332698928862972
42
0.22544948219298733
10
11.372921154961233
20
2.1889126927695455
10
11.372921154961233
20
2.3373152524817158
42
0.22544948219298835
10
11.346488362161153
20
2.3929580523649636
0
LWPOLYLINE
5
231
100
AcDbEntity
8
0
100
AcDbPolyline
90
12
70
1
43
0.0
10
11.60630610189296
20
1.7395598417526676
42
0.3558915157137223
10
11.533600996442379
20
1.739559841752665
10
11.378102237208648
20
1.612826584979874
42
0.22544948219299177
10
11.356913487927212
20
1.568222848062615
10
11.356913487927221
20
1.4492621065985196
42
0.22544948219299835
10
11.378102237208651
20
1.4046583696812645
10
11.533600996442383
20
1.277925112908465
42
0.35589151571370531
10
11.606306101892962
20
1.2779251129084666
10
11.761804861126686
20
1.40465836968126
42
0.22544948219298347
10
11.782993610408122
20
1.4492621065985192
10
11.782993610408123
20
1.5682228480626148
42
0.22544948219298397
10
11.761804861126688
20
1.6128265849798737
0
LWPOLYLINE
5
232
100
AcDbEntity
8
0
100
AcDbPolyline
90
12
70
1
43
0.0
10
11.600578360757753
20
0.19444905815193009
42
0.35589151571370448
10
11.539328737577591
20
0.19444905815193284
10
11.408330503698084
20
0.087684008110091444
42
0.2254494821930238
10
11.390480272946007
20
0.050108076383174334
10
11.390480272946013
20
-0.050109102902281759
42
0.22544948219298749
10
11.408330503698089
20
-0.087685034629199354
10
11.539328737577589
20
-0.19445008467103767
42
0.35589151571369715
10
11.60057836075775
20
-0.19445008467103952
10
11.731576594637247
20
-0.087685034629198966
42
0.22544948219303104
10
11.749426825389325
20
-0.050109102902282099
10
11.749426825389326
20
0.050108076383174244
42
0.22544948219302835
10
11.731576594637252
20
0.087684008110089917
0
LWPOLYLINE
5
233
100
AcDbEntity
8
0
100
AcDbPolyline
90
12
70
1
43
0.0
10
5.6053465221519652
20
-0.42567040821312879
10
5.8267886616513556
20
-0.6061482696686662
42
-0.22544948219298669
10
5.8569630630248373
20
-0.66966740629263954
10
5.8569630630248382
20
-0.83907661081656393
42
-0.22544948219297395
10
5.8267886616513564
20
-0.90259574744053706
10
5.6053465221519634
20
-1.0830736088960742
42
-0.35589151571369693
10
5.501808885048991
20
-1.083073608896074
10
5.2803667455495997
20
-0.90259574744053717
42
-0.22544948219299463
10
5.2501923441761171
20
-0.83907661081656271
10
5.2501923441761171
20
-0.66966740629263866
42
-0.22544948219300792
10
5.2803667455495997
20
-0.60614826966866331
10
5.501808885048991
20
-0.42567040821312835
42
-0.35589151571367739
0
LWPOLYLINE
5
234
100
AcDbEntity
8
0
100
AcDbPolyline
90
12
70
1
43
0.0
10
5.6106977406766667
20
-1.9004363032839098
10
5.8550298226587261
20
-2.0995697281179941
42
-0.22544948219301211
10
5.8883232794814093
20
-2.1696546854442027
10
5.8883232794814093
20
-2.3565753128452434
42
-0.22544948219299671
10
5.8550298226587252
20
-2.426660270171451
10
5.6106977406766623
20
-2.6257936950055343
42
-0.3558915157136599
10
5.4964576665242824
20
-2.6257936950055347
10
5.2521255845422194
20
-2.4266602701714497
42
-0.22544948219298877
10
5.2188321277195371
20
-2.3565753128452411
10
5.218832127719538
20
-2.1696546854441991
42
-0.2254494821929981
10
5.2521255845422203
20
-2.0995697281179924
10
5.496457666524285
20
-1.9004363032839091
42
-0.35589151571368777
0
LWPOLYLINE
5
235
100
AcDbEntity
8
0
100
AcDbPolyline
90
12
70
1
43
0.0
10
12.072742752101465
20
2.5170337279347015
42
0.3558915157137077
10
11.992760630167295
20
2.5170337279346975
10
11.821698080370178
20
2.3776158048948184
42
0.22544948219301331
10
11.798388560108053
20
2.3285477029681831
10
11.798388560108053
20
2.1976802422830763
42
0.22544948219304892
10
11.821698080370179
20
2.1486121403564393
10
11.992760630167302
20
2.0091942173165545
42
0.355891515713677
10
12.072742752101464
20
2.009194217316554
10
12.243805301898563
20
2.1486121403564389
42
0.22544948219302735
10
12.267114822160689
20
2.1976802422830741
10
12.267114822160696
20
2.3285477029681814
42
0.22544948219302441
10
12.243805301898572
20
2.3776158048948166
0
LWPOLYLINE
5
236
100
AcDbEntity
8
0
100
AcDbPolyline
90
12
70
1
43
0.0
10
9.7768198670049706
20
-2.6488466610618566
42
0.3558915157136831
10
9.660702095596692
20
-2.648846661061858
10
9.412354070144108
20
-2.8512531254850852
42
0.22544948219300381
10
9.3785133882519514
20
-2.9224900282474904
10
9.3785133882519496
20
-3.1124829606320934
42
0.2254494821930037
10
9.4123540701441097
20
-3.1837198633944981
10
9.6607020955966938
20
-3.386126327817728
42
0.35589151571369954
10
9.7768198670049706
20
-3.3861263278177294
10
10.025167892457553
20
-3.183719863394499
42
0.22544948219298205
10
10.059008574349713
20
-3.1124829606320938
10
10.059008574349713
20
-2.9224900282474917
42
0.22544948219302413
10
10.025167892457553
20
-2.851253125485087
0
LWPOLYLINE
5
237
100
AcDbEntity
8
0
100
AcDbPolyline
90
12
70
1
43
0.0
10
-2.5410233693901594
20
-2.3910236363105759
42
0.22544948219299474
10
-2.5149845810962801
20
-2.3362102423118092
10
-2.5149845810962814
20
-2.1900197559776085
42
0.22544948219300451
10
-2.5410233693901594
20
-2.1352063619788413
10
-2.7321153124712705
20
-1.9794642556813344
42
0.3558915157136775
10
-2.8214623911292085
20
-1.9794642556813336
10
-3.0125543342103178
20
-2.1352063619788417
42
0.22544948219300046
10
-3.0385931225041967
20
-2.1900197559776085
10
-3.0385931225041958
20
-2.3362102423118101
42
0.22544948219299896
10
-3.0125543342103174
20
-2.3910236363105759
10
-2.8214623911292076
20
-2.5467657426080836
42
0.35589151571367278
10
-2.73211531247127
20
-2.5467657426080832
0
LWPOLYLINE
5
238
100
AcDbEntity
8
0
100
AcDbPolyline
90
12
70
1
43
0.0
10
-3.2934789128072066
20
2.6753034261113493
10
-3.524002656402673
20
2.8631828981616456
42
-0.22544948219299693
10
-3.5554145456713204
20
2.9293070297185975
10
-3.5554145456713209
20
3.1056639061228388
42
-0.22544948219299157
10
-3.5240026564026734
20
3.1717880376797889
10
-3.2934789128072057
20
3.3596675097300865
42
-0.35589151571367411
10
-3.1856950747266879
20
3.3596675097300861
10
-2.9551713311312238
20
3.1717880376797885
42
-0.22544948219299915
10
-2.9237594418625763
20
3.1056639061228375
10
-2.9237594418625763
20
2.9293070297185975
42
-0.22544948219299693
10
-2.9551713311312224
20
2.8631828981616456
10
-3.1856950747266883
20
2.6753034261113497
42
-0.35589151571367961
0
LWPOLYLINE
5
239
100
AcDbEntity
8
0
100
AcDbPolyline
90
12
70
1
43
0.0
10
10.687441809864003
20
1.7823040374750874
42
0.35589151571367578
10
10.6012727206045
20
1.78230403747509
10
10.416977733600294
20
1.6321015276606154
42
0.22544948219298477
10
10.391865119887489
20
1.5792377932101729
10
10.391865119887491
20
1.4382471614509675
42
0.22544948219298475
10
10.416977733600294
20
1.3853834270005274
10
10.601272720604497
20
1.2351809171860513
42
0.35589151571366129
10
10.687441809864
20
1.2351809171860497
10
10.871736796868213
20
1.3853834270005221
42
0.22544948219300265
10
10.896849410581019
20
1.438247161450966
10
10.896849410581023
20
1.5792377932101711
42
0.22544948219297259
10
10.871736796868214
20
1.6321015276606152
0
LWPOLYLINE
5
240
100
AcDbEntity
8
0
100
AcDbPolyline
90
12
70
1
43
0.0
10
9.7640828294288369
20
0.28776661040562207
42
0.35589151571370314
10
9.6734391331728435
20
0.28776661040562079
10
9.4795740364535028
20
0.12976435236262165
42
0.22544948219296465
10
9.4531573695357132
20
0.074155498542051432
10
9.4531573695357096
20
-0.074156525061148573
42
0.22544948219302588
10
9.4795740364535028
20
-0.12976537888171907
10
9.6734391331728435
20
-0.28776763692471979
42
0.35589151571370697
10
9.7640828294288387
20
-0.2877676369247209
10
9.957947926148174
20
-0.1297653788817198
42
0.22544948219300961
10
9.9843645930659672
20
-0.074156525061150072
10
9.9843645930659672
20
0.074155498542050099
42
0.22544948219299829
10
9.9579479261481776
20
0.12976435236262046
0
LWPOLYLINE
5
241
100
AcDbEntity
8
0
100
AcDbPolyline
90
12
70
1
43
0.0
10
8.8541042402464374
20
3.4044157829033441
10
9.1147743334188398
20
3.1919666931884185
42
-0.2254494821929918
10
9.1502940589563089
20
3.117195291054057
10
9.1502940589563071
20
2.9177756447873335
42
-0.22544948219302283
10
9.114774333418838
20
2.8430042426529698
10
8.8541042402464356
20
2.6305551529380478
42
-0.3558915157137012
10
8.7322251544884253
20
2.6305551529380482
10
8.4715550613160193
20
2.8430042426529734
42
-0.22544948219300545
10
8.4360353357785538
20
2.9177756447873349
10
8.4360353357785538
20
3.1171952910540579
42
-0.22544948219300265
10
8.4715550613160193
20
3.1919666931884194
10
8.7322251544884271
20
3.4044157829033441
42
-0.35589151571369376
0
LWPOLYLINE
5
242
100
AcDbEntity
8
0
100
AcDbPolyline
90
12
70
1
43
0.0
10
9.7673903743074018
20
-1.1999754123199116
42
0.35589151571371519
10
9.6701315882942662
20
-1.1999754123199116
10
9.4621184033068424
20
-1.3695085231630209
42
0.2254494821930132
10
9.433773873449173
20
-1.429175657641915
10
9.433773873449173
20
-1.5883113500574275
42
0.22544948219300476
10
9.4621184033068424
20
-1.6479784845363206
10
9.6701315882942662
20
-1.8175115953794319
42
0.35589151571373356
10
9.7673903743074035
20
-1.8175115953794305
10
9.9754035592948274
20
-1.6479784845363232
42
0.22544948219298966
10
10.0037480891525
20
-1.5883113500574284
10
10.003748089152499
20
-1.4291756576419157
42
0.22544948219298686
10
9.9754035592948291
20
-1.3695085231630206
0
LWPOLYLINE
5
243
100
AcDbEntity
8
0
100
AcDbPolyline
90
12
70
1
43
0.0
10
10.231986985160253
20
-1.9429276862075457
42
0.35589151571369182
10
10.131131261374829
20
-1.9429276862075415
10
9.9154250903561429
20
-2.1187306681342113
42
0.22544948219303756
10
9.8860322900618129
20
-2.180604482118055
10
9.8860322900618129
20
-2.3456255161714084
42
0.2254494821930618
10
9.9154250903561429
20
-2.4074993301552565
10
10.131131261374827
20
-2.5833023120819214
42
0.35589151571370026
10
10.231986985160251
20
-2.5833023120819214
10
10.447693156178932
20
-2.4074993301552556
42
0.22544948219298497
10
10.477085956473262
20
-2.3456255161714101
10
10.477085956473264
20
-2.1806044821180568
42
0.22544948219296612
10
10.447693156178932
20
-2.11873066813421
0
LWPOLYLINE
5
244
100
AcDbEntity
8
0
100
AcDbPolyline
90
12
70
1
43
0.0
10
10.231986978137305
20
2.5833012409711618
42
0.35589151571368055
10
10.131131268397798
20
2.5833012409711631
10
9.9154251274199563
20
2.4074982835281213
42
0.22544948219301247
10
9.8860323312190843
20
2.3456244781612843
10
9.8860323312190843
20
2.180603467089985
42
0.22544948219300431
10
9.9154251274199581
20
2.1187296617231448
10
10.131131268397796
20
1.9429267042801082
42
0.35589151571371841
10
10.231986978137309
20
1.9429267042801088
10
10.447693119115144
20
2.1187296617231435
42
0.22544948219299177
10
10.477085915316016
20
2.1806034670899828
10
10.477085915316019
20
2.3456244781612825
42
0.22544948219301958
10
10.447693119115149
20
2.4074982835281209
0
LWPOLYLINE
5
245
100
AcDbEntity
8
0
100
AcDbPolyline
90
12
70
1
43
0.0
10
11.606306109188079
20
-1.2779260931077863
42
0.35589151571370625
10
11.533600989147242
20
-1.2779260931077863
10
11.378102198708458
20
-1.4046593753130587
42
0.22544948219303107
10
11.356913445174923
20
-1.449263121181271
10
11.35691344517492
20
-1.5682238865180795
42
0.2254494821929737
10
11.378102198708451
20
-1.6128276323862893
10
11.533600989147242
20
-1.7395609145915656
42
0.35589151571370203
10
11.606306109188081
20
-1.7395609145915643
10
11.761804899626867
20
-1.6128276323862925
42
0.22544948219302144
10
11.7829936531604
20
-1.56822388651808
10
11.782993653160402
20
-1.4492631211812717
42
0.22544948219300953
10
11.761804899626867
20
-1.4046593753130574
0
LWPOLYLINE
5
246
100
AcDbEntity
8
0
100
AcDbPolyline
90
12
70
1
43
0.0
10
11.152504930385488
20
-1.975172155120744
42
0.35589151571370164
10
11.061805884016431
20
-1.9751721551207466
10
10.86782240669848
20
-2.1332708946975769
42
0.22544948219303462
10
10.841389608868546
20
-2.1889137051690049
10
10.841389608868548
20
-2.3373162931204634
42
0.22544948219299921
10
10.86782240669848
20
-2.3929591035918909
10
11.061805884016437
20
-2.5510578431687279
42
0.35589151571367988
10
11.15250493038549
20
-2.5510578431687261
10
11.346488407703427
20
-2.3929591035918931
42
0.22544948219297614
10
11.372921205533363
20
-2.3373162931204652
10
11.37292120553337
20
-2.1889137051690062
42
0.22544948219302929
10
11.346488407703434
20
-2.1332708946975774
0
LWPOLYLINE
5
247
100
AcDbEntity
8
0
100
AcDbPolyline
90
12
70
1
43
0.0
10
11.143408123375277
20
-0.52418854760946731
42
0.35589151571364169
10
11.070902691026648
20
-0.52418854760946632
10
10.915830984603209
20
-0.65057375148634899
42
0.22544948219297772
10
10.894700426878876
20
-0.69505499127698189
10
10.894700426878877
20
-0.81368902583224523
42
0.22544948219301106
10
10.915830984603211
20
-0.85817026562288046
10
11.070902691026648
20
-0.98455546949976025
42
0.35589151571366956
10
11.143408123375277
20
-0.98455546949975803
10
11.298479829798715
20
-0.85817026562287868
42
0.22544948219298586
10
11.319610387523047
20
-0.81368902583224689
10
11.319610387523051
20
-0.69505499127698234
42
0.22544948219302702
10
11.298479829798717
20
-0.65057375148634911
0
LWPOLYLINE
5
248
100
AcDbEntity
8
0
100
AcDbPolyline
90
12
70
1
43
0.0
10
10.224843427534656
20
-0.47954209200708742
42
0.35589151571368771
10
10.138274819000419
20
-0.47954209200708892
10
9.9531253562186848
20
-0.63044100929551161
42
0.2254494821930173
10
9.9278963089529242
20
-0.6835498441761525
10
9.9278963089529224
20
-0.82519417293306951
42
0.22544948219301639
10
9.9531253562186812
20
-0.87830300781370974
10
10.13827481900042
20
-1.0292019251021363
42
0.35589151571371891
10
10.22484342753466
20
-1.0292019251021343
10
10.409992890316399
20
-0.87830300781371196
42
0.22544948219301261
10
10.435221937582162
20
-0.82519417293307162
10
10.435221937582163
20
-0.68354984417615439
42
0.22544948219299463
10
10.409992890316406
20
-0.63044100929551239
0
LWPOLYLINE
5
249
100
AcDbEntity
8
0
100
AcDbPolyline
90
12
70
1
43
0.0
10
-12.375548304613858
20
0.033503680089236321
10
-12.375548304613858
20
-0.03350470660828829
42
-0.22544948219300756
10
-12.387483535413642
20
-0.058629167121243192
10
-12.47507311212172
20
-0.13001566801852382
42
-0.35589151571371191
10
-12.516026554080442
20
-0.13001566801852277
10
-12.603616130788515
20
-0.058629167121244163
42
-0.22544948219303546
10
-12.615551361588299
20
-0.033504706608288234
10
-12.615551361588297
20
0.033503680089236328
42
-0.22544948219307115
10
-12.603616130788513
20
0.058628140602190223
10
-12.516026554080442
20
0.13001464149947112
42
-0.35589151571370237
10
-12.475073112121718
20
0.13001464149947081
10
-12.387483535413642
20
0.058628140602190189
42
-0.22544948219300628
0
LWPOLYLINE
5
250
100
AcDbEntity
8
0
100
AcDbPolyline
90
12
70
1
43
0.0
10
-10.86782245224078
20
2.1332698928863274
42
0.225449482192976
10
-10.841389659440704
20
2.1889126927695735
10
-10.841389659440706
20
2.3373152524817433
42
0.22544948219303737
10
-10.867822452240786
20
2.3929580523649894
10
-11.061805892645921
20
2.551056761857466
42
0.35589151571373034
10
-11.152504921756005
20
2.5510567618574633
10
-11.34648836216115
20
2.3929580523649863
42
0.22544948219295599
10
-11.372921154961224
20
2.3373152524817415
10
-11.372921154961224
20
2.188912692769573
42
0.22544948219297403
10
-11.346488362161145
20
2.1332698928863243
10
-11.152504921756002
20
1.9751711833938468
42
0.35589151571367927
10
-11.061805892645921
20
1.9751711833938466
0
LWPOLYLINE
5
251
100
AcDbEntity
8
0
100
AcDbPolyline
90
12
70
1
43
0.0
10
0.70619202519182722
20
2.8854382336114845
10
0.50891713319281129
20
2.7246569536466905
42
-0.35589151571367394
10
0.41667915074061052
20
2.7246569536466891
10
0.21940425874159333
20
2.8854382336114854
42
-0.22544948219299776
10
0.19252296241043529
20
2.9420251634781023
10
0.19252296241043559
20
3.0929457723633327
42
-0.22544948219299132
10
0.21940425874159444
20
3.1495327022299477
10
0.41667915074061246
20
3.3103139821947418
42
-0.3558915157136841
10
0.50891713319281251
20
3.3103139821947409
10
0.70619202519182911
20
3.1495327022299477
42
-0.22544948219299063
10
0.73307332152298743
20
3.0929457723633313
10
0.73307332152298654
20
2.9420251634781014
42
-0.22544948219299552
0
LWPOLYLINE
5
252
100
AcDbEntity
8
0
100
AcDbPolyline
90
12
70
1
43
0.0
10
-11.378102198708454
20
-1.6128276323862649
10
-11.533600989147242
20
-1.7395609145915389
42
-0.35589151571370203
10
-11.606306109188081
20
-1.7395609145915374
10
-11.761804899626872
20
-1.6128276323862671
42
-0.22544948219297103
10
-11.782993653160412
20
-1.5682238865180516
10
-11.782993653160412
20
-1.4492631211812432
42
-0.22544948219300651
10
-11.761804899626878
20
-1.4046593753130296
10
-11.60630610918809
20
-1.2779260931077583
42
-0.35589151571370625
10
-11.533600989147253
20
-1.2779260931077583
10
-11.378102198708458
20
-1.4046593753130316
42
-0.22544948219302727
10
-11.356913445174923
20
-1.4492631211812428
10
-11.356913445174921
20
-1.5682238865180516
42
-0.22544948219301772
0
LWPOLYLINE
5
253
100
AcDbEntity
8
0
100
AcDbPolyline
90
12
70
1
43
0.0
10
-11.37292120553337
20
-2.3373162931204376
10
-11.37292120553337
20
-2.1889137051689791
42
-0.22544948219302471
10
-11.346488407703434
20
-2.1332708946975494
10
-11.152504930385488
20
-1.975172155120718
42
-0.35589151571367156
10
-11.061805884016437
20
-1.9751721551207158
10
-10.867822406698489
20
-2.1332708946975512
42
-0.22544948219304617
10
-10.841389608868555
20
-2.1889137051689791
10
-10.841389608868555
20
-2.3373162931204376
42
-0.22544948219296473
10
-10.867822406698492
20
-2.392959103591866
10
-11.061805884016431
20
-2.5510578431686981
42
-0.3558915157136916
10
-11.15250493038549
20
-2.5510578431686994
10
-11.346488407703438
20
-2.3929591035918625
42
-0.2254494821929694
0
LWPOLYLINE
5
254
100
AcDbEntity
8
0
100
AcDbPolyline
90
12
70
1
43
0.0
10
-10.477085915316016
20
2.1806034670900072
10
-10.477085915316019
20
2.3456244781613078
42
-0.22544948219297467
10
-10.447693119115151
20
2.4074982835281467
10
-10.231986978137304
20
2.5833012409711875
42
-0.35589151571367639
10
-10.131131268397793
20
2.5833012409711835
10
-9.9154251274199527
20
2.4074982835281458
42
-0.22544948219301655
10
-9.8860323312190808
20
2.3456244781613074
10
-9.8860323312190825
20
2.1806034670900085
42
-0.22544948219300767
10
-9.915425127419951
20
2.1187296617231688
10
-10.131131268397793
20
1.9429267042801328
42
-0.35589151571372024
10
-10.231986978137307
20
1.9429267042801313
10
-10.447693119115144
20
2.118729661723167
42
-0.22544948219301117
0
LWPOLYLINE
5
255
100
AcDbEntity
8
0
100
AcDbPolyline
90
12
70
1
43
0.0
10
-10.391865119887477
20
1.5792377932101977
42
0.22544948219295244
10
-10.416977733600286
20
1.6321015276606421
10
-10.601272720604497
20
1.7823040374751129
42
0.35589151571367694
10
-10.687441809864
20
1.7823040374751151
10
-10.871736796868207
20
1.6321015276606379
42
0.2254494821929881
10
-10.896849410581009
20
1.5792377932101984
10
-10.896849410581019
20
1.4382471614509929
42
0.22544948219303276
10
-10.871736796868213
20
1.3853834270005492
10
-10.687441809864003
20
1.2351809171860766
42
0.35589151571365479
10
-10.601272720604499
20
1.2351809171860748
10
-10.416977733600289
20
1.3853834270005487
42
0.22544948219301547
10
-10.391865119887481
20
1.4382471614509926
0
LWPOLYLINE
5
256
100
AcDbEntity
8
0
100
AcDbPolyline
90
12
70
1
43
0.0
10
-9.9531253695922732
20
0.63043999003193774
10
-10.138274821534496
20
0.47954108157784547
42
-0.35589151571372024
10
-10.224843425000605
20
0.47954108157784636
10
-10.409992876942818
20
0.63043999003193718
42
-0.22544948219300498
10
-10.43522192273155
20
0.68354882180333798
10
-10.435221922731552
20
0.82519314226773077
42
-0.22544948219296845
10
-10.40999287694282
20
0.87830197403913057
10
-10.224843425000605
20
1.0292008824932217
42
-0.35589151571369759
10
-10.138274821534498
20
1.0292008824932224
10
-9.9531253695922732
20
0.87830197403913013
42
-0.22544948219304034
10
-9.9278963238035409
20
0.82519314226773011
10
-9.9278963238035391
20
0.68354882180333776
42
-0.22544948219299343
0
LWPOLYLINE
5
257
100
AcDbEntity
8
0
100
AcDbPolyline
90
12
70
1
43
0.0
10
-12.862380473931033
20
0.70230622617247795
10
-12.940163769761261
20
0.63891195568656323
42
-0.35589151571377448
10
-12.976532180374306
20
0.63891195568656645
10
-13.054315476204541
20
0.70230622617247651
42
-0.22544948219305025
10
-13.064914472375008
20
0.72461782326087965
10
-13.064914472375008
20
0.78412414081018977
42
-0.22544948219298749
10
-13.054315476204543
20
0.80643573789859002
10
-12.976532180374303
20
0.8698300083845053
42
-0.35589151571365851
10
-12.940163769761261
20
0.86983000838450664
10
-12.862380473931031
20
0.80643573789859213
42
-0.2254494821930744
10
-12.851781477760564
20
0.78412414081019
10
-12.851781477760566
20
0.72461782326087931
42
-0.2254494821930938
0
CIRCLE
5
258
100
AcDbEntity
8
0
100
AcDbCircle
10
-10.64659469437137
20
3.2028923844218617
30
0
40
0.11000000000000119
210
0
220
-0
230
1
0
LWPOLYLINE
5
259
100
AcDbEntity
8
0
100
AcDbPolyline
90
12
70
1
43
0.0
10
-11.870600606682853
20
0.79964324942797638
42
0.2254494821929322
10
-11.886727989740061
20
0.83359247132366632
10
-12.00508268929188
20
0.93005289713338135
42
0.3558915157136685
10
-12.06042069297686
20
0.93005289713337969
10
-12.178775392528683
20
0.83359247132366776
42
0.22544948219299785
10
-12.194902775585891
20
0.79964324942797682
10
-12.194902775585893
20
0.70909871464309226
42
0.22544948219296312
10
-12.178775392528681
20
0.6751494927473991
10
-12.060420692976859
20
0.57868906693768885
42
0.35589151571362909
10
-12.005082689291882
20
0.57868906693768785
10
-11.886727989740063
20
0.67514949274740055
42
0.22544948219297509
10
-11.870600606682853
20
0.70909871464309249
0
LWPOLYLINE
5
260
100
AcDbEntity
8
0
100
AcDbPolyline
90
12
70
1
43
0.0
10
-10.68326378587388
20
-0.24703407430640284
10
-10.849687193090466
20
-0.11139710521599053
42
-0.22544948219299227
10
-10.872364569215211
20
-0.063659709053199454
10
-10.872364569215209
20
0.063658682534147845
42
-0.22544948219298983
10
-10.849687193090466
20
0.11139607869693456
10
-10.683263785873878
20
0.24703304778734847
42
-0.35589151571369254
10
-10.605450744594625
20
0.24703304778735091
10
-10.439027337378034
20
0.11139607869693835
42
-0.22544948219299391
10
-10.416349961253289
20
0.063658682534148456
10
-10.416349961253287
20
-0.063659709053199565
42
-0.22544948219297967
10
-10.439027337378031
20
-0.11139710521598714
10
-10.605450744594631
20
-0.24703407430639726
42
-0.35589151571369659
0
LWPOLYLINE
5
261
100
AcDbEntity
8
0
100
AcDbPolyline
90
12
70
1
43
0.0
10
4.4693450319947186
20
-3.1825018099646458
10
4.22281674445696
20
-3.3834251672971458
42
-0.35589151571368111
10
4.1075498109437403
20
-3.3834251672971454
10
3.8610215234059875
20
-3.1825018099646449
42
-0.22544948219299496
10
3.8274288047170408
20
-3.1117868863589306
10
3.8274288047170404
20
-2.9231861025206256
42
-0.2254494821930009
10
3.861021523405987
20
-2.8524711789149113
10
4.1075498109437429
20
-2.6515478215824131
42
-0.35589151571367861
10
4.2228167444569618
20
-2.6515478215824122
10
4.4693450319947186
20
-2.8524711789149131
42
-0.22544948219298713
10
4.5029377506836656
20
-2.9231861025206269
10
4.5029377506836656
20
-3.1117868863589324
42
-0.2254494821929714
0
LWPOLYLINE
5
262
100
AcDbEntity
8
0
100
AcDbPolyline
90
12
70
1
43
0.0
10
4.6820838205907052
20
2.6066324508043288
42
0.35589151571369243
10
4.5738790187434351
20
2.6066324508043288
10
4.3424549347522463
20
2.4180191910947872
42
0.22544948219300334
10
4.3109203622737322
20
2.3516368031610986
10
4.310920362273734
20
2.1745911420901964
42
0.22544948219300021
10
4.3424549347522454
20
2.1082087541565082
10
4.5738790187434342
20
1.9195954944469642
42
0.35589151571366928
10
4.6820838205907043
20
1.9195954944469642
10
4.9135079045818912
20
2.1082087541565069
42
0.22544948219297842
10
4.9450424770604053
20
2.1745911420901951
10
4.9450424770604053
20
2.3516368031610968
42
0.22544948219299976
10
4.9135079045818921
20
2.4180191910947841
0
LWPOLYLINE
5
263
100
AcDbEntity
8
0
100
AcDbPolyline
90
12
70
1
43
0.0
10
3.9653840626598189
20
-2.4057984571952082
10
3.7522189484928732
20
-2.579530448896278
42
-0.35589151571367317
10
3.6525513229744178
20
-2.5795304488962785
10
3.4393862088074711
20
-2.4057984571952087
42
-0.22544948219301747
10
3.4103396609000187
20
-2.344653527685201
10
3.4103396609000183
20
-2.1815764706042322
42
-0.22544948219300698
10
3.4393862088074711
20
-2.1204315410942249
10
3.6525513229744186
20
-1.9466995493931563
42
-0.35589151571367444
10
3.752218948492875
20
-1.9466995493931558
10
3.9653840626598189
20
-2.1204315410942267
42
-0.22544948219300007
10
3.9944306105672713
20
-2.1815764706042335
10
3.9944306105672709
20
-2.3446535276852023
42
-0.22544948219300068
0
LWPOLYLINE
5
264
100
AcDbEntity
8
0
100
AcDbPolyline
90
12
70
1
43
0.0
10
4.5799584991152091
20
-1.0592893561036141
10
4.374539511980406
20
-0.89187054600603077
42
-0.22544948219299987
10
4.3465484756692847
20
-0.83294753912725217
10
4.3465484756692838
20
-0.67579647798194364
42
-0.22544948219298852
10
4.3745395119804051
20
-0.61687347110316604
10
4.5799584991152109
20
-0.44945466100558262
42
-0.35589151571367605
10
4.6760043402189169
20
-0.44945466100558362
10
4.8814233273537164
20
-0.61687347110316626
42
-0.2254494821929883
10
4.9094143636648377
20
-0.67579647798194453
10
4.909414363664836
20
-0.83294753912725428
42
-0.22544948219300134
10
4.8814233273537146
20
-0.89187054600603177
10
4.6760043402189133
20
-1.0592893561036136
42
-0.35589151571367533
0
LWPOLYLINE
5
265
100
AcDbEntity
8
0
100
AcDbPolyline
90
12
70
1
43
0.0
10
4.579958501227205
20
0.4494536478964159
10
4.3745395231264901
20
0.61687245063111473
42
-0.22544948219299368
10
4.3465484880463805
20
0.67579545491852866
10
4.3465484880463814
20
0.83294650915251878
42
-0.22544948219299715
10
4.3745395231264901
20
0.89186951343993237
10
4.579958501227205
20
1.0592883161746305
42
-0.35589151571370092
10
4.6760043381069281
20
1.0592883161746305
10
4.8814233162076412
20
0.8918695134399296
42
-0.22544948219298516
10
4.9094143512877491
20
0.83294650915251756
10
4.9094143512877482
20
0.67579545491852722
42
-0.22544948219300909
10
4.8814233162076395
20
0.6168724506311144
10
4.6760043381069289
20
0.4494536478964159
42
-0.35589151571368816
0
LWPOLYLINE
5
266
100
AcDbEntity
8
0
100
AcDbPolyline
90
12
70
1
43
0.0
10
-11.390480272946007
20
0.050108076383201805
10
-11.390480272946011
20
-0.050109102902253788
42
-0.22544948219298222
10
-11.408330503698089
20
-0.087685034629170225
10
-11.539328737577589
20
-0.19445008467100972
42
-0.35589151571369482
10
-11.60057836075775
20
-0.19445008467101235
10
-11.731576594637247
20
-0.087685034629170933
42
-0.22544948219302927
10
-11.749426825389323
20
-0.050109102902254329
10
-11.749426825389326
20
0.050108076383201805
42
-0.22544948219300975
10
-11.73157659463725
20
0.08768400811011981
10
-11.600578360757753
20
0.1944490581519579
42
-0.35589151571371885
10
-11.539328737577591
20
0.19444905815195868
10
-11.408330503698084
20
0.087684008110118783
42
-0.22544948219302305
0
LWPOLYLINE
5
267
100
AcDbEntity
8
0
100
AcDbPolyline
90
12
70
1
43
0.0
10
3.4103397030353779
20
2.1815754558492726
42
0.22544948219299232
10
3.4393862467520901
20
2.1204305351610522
10
3.6525513301642851
20
1.9466985685254548
42
0.35589151571366695
10
3.7522189413030285
20
1.9466985685254548
10
3.9653840247152212
20
2.1204305351610504
42
0.22544948219299843
10
3.9944305684319339
20
2.1815754558492713
10
3.9944305684319352
20
2.3446524894020242
42
0.22544948219299485
10
3.9653840247152217
20
2.4057974100902455
10
3.7522189413030298
20
2.5795293767258438
42
0.35589151571367195
10
3.6525513301642865
20
2.5795293767258443
10
3.4393862467520915
20
2.4057974100902459
42
0.22544948219298611
10
3.4103397030353788
20
2.3446524894020255
0
LWPOLYLINE
5
268
100
AcDbEntity
8
0
100
AcDbPolyline
90
12
70
1
43
0.0
10
3.9266547205942439
20
-0.87604383542269759
10
3.7448803984716217
20
-1.0241919746991008
42
-0.35589151571366223
10
3.6598898729956764
20
-1.0241919746991004
10
3.4781155508730541
20
-0.87604383542269681
42
-0.22544948219300018
10
3.4533464108732317
20
-0.82390313615136845
10
3.4533464108732326
20
-0.68484088095782303
42
-0.22544948219299601
10
3.478115550873055
20
-0.63270018168649511
10
3.6598898729956781
20
-0.48455204241009153
42
-0.35589151571367234
10
3.744880398471623
20
-0.48455204241009298
10
3.9266547205942444
20
-0.63270018168649655
42
-0.22544948219299379
10
3.9514238605940672
20
-0.68484088095782403
10
3.9514238605940664
20
-0.8239031361513699
42
-0.22544948219299821
0
LWPOLYLINE
5
269
100
AcDbEntity
8
0
100
AcDbPolyline
90
12
70
1
43
0.0
10
3.911798819337462
20
1.6462098470952482
42
0.22544948219299152
10
3.8838141279363905
20
1.587300196677244
10
3.8838141279363909
20
1.430184757983928
42
0.22544948219299465
10
3.9117988193374611
20
1.3712751075659255
10
4.1171712428159015
20
1.2038942473776943
42
0.35589151571368904
10
4.2131953125848227
20
1.2038942473776957
10
4.4185677360632676
20
1.371275107565922
42
0.22544948219298905
10
4.4465524274643382
20
1.4301847579839264
10
4.4465524274643391
20
1.5873001966772422
42
0.2254494821929966
10
4.4185677360632685
20
1.6462098470952466
10
4.2131953125848254
20
1.8135907072834752
42
0.35589151571368732
10
4.1171712428159024
20
1.8135907072834754
0
LWPOLYLINE
5
270
100
AcDbEntity
8
0
100
AcDbPolyline
90
12
70
1
43
0.0
10
4.1075498193789572
20
2.6515468486219183
10
3.8610215679229438
20
2.852470176547389
42
-0.22544948219300195
10
3.8274288541506083
20
2.923185089803308
10
3.8274288541506083
20
3.11178584603811
42
-0.22544948219299446
10
3.8610215679229429
20
3.1825007592940264
10
4.107549819378959
20
3.3834240872194989
42
-0.35589151571368943
10
4.222816736021775
20
3.3834240872194967
10
4.4693449874777915
20
3.1825007592940251
42
-0.2254494821929876
10
4.5029377012501275
20
3.1117858460381083
10
4.5029377012501275
20
2.9231850898033063
42
-0.22544948219297745
10
4.4693449874777915
20
2.852470176547389
10
4.222816736021775
20
2.6515468486219174
42
-0.35589151571368116
0
LWPOLYLINE
5
271
100
AcDbEntity
8
0
100
AcDbPolyline
90
12
70
1
43
0.0
10
8.8458456781583301
20
1.8432357722916146
10
9.0711896095764466
20
1.6595779060595348
42
-0.2254494821929981
10
9.1018956813704612
20
1.5949395675775757
10
9.1018956813704612
20
1.4225453870835694
42
-0.22544948219299671
10
9.0711896095764466
20
1.3579070486016096
10
8.8458456781583283
20
1.1742491823695305
42
-0.35589151571368888
10
8.7404837165765255
20
1.1742491823695296
10
8.5151397851584107
20
1.3579070486016098
42
-0.22544948219298938
10
8.4844337133643926
20
1.4225453870835711
10
8.4844337133643926
20
1.5949395675775777
42
-0.22544948219301453
10
8.5151397851584107
20
1.6595779060595381
10
8.740483716576529
20
1.8432357722916186
42
-0.35589151571368144
0
LWPOLYLINE
5
272
100
AcDbEntity
8
0
100
AcDbPolyline
90
12
70
1
43
0.0
10
8.8430354914226204
20
0.316649746006821
10
9.0563587938103698
20
0.14278882910721902
42
-0.22544948219302868
10
9.0854268969415823
20
0.081598524406959444
10
9.0854268969415841
20
-0.081599550926054448
42
-0.22544948219304861
10
9.056358793810368
20
-0.14278985562631277
10
8.8430354914226204
20
-0.31665077252591567
42
-0.35589151571369754
10
8.7432939033122334
20
-0.31665077252591567
10
8.5299706009244822
20
-0.14278985562631277
42
-0.22544948219302516
10
8.5009024977932679
20
-0.081599550926052922
10
8.5009024977932697
20
0.081598524406960304
42
-0.22544948219302705
10
8.529970600924484
20
0.14278882910722046
10
8.7432939033122334
20
0.31664974600682128
42
-0.35589151571367711
0
LWPOLYLINE
5
273
100
AcDbEntity
8
0
100
AcDbPolyline
90
12
70
1
43
0.0
10
4.4185677600235822
20
-1.6462108866133909
42
0.22544948219299549
10
4.4465524540709174
20
-1.5873012306248242
10
4.4465524540709165
20
-1.4301857770744943
42
0.22544948219300948
10
4.4185677600235813
20
-1.3712761210859261
10
4.2131953171248924
20
-1.203895245069974
42
0.35589151571368749
10
4.1171712382758239
20
-1.2038952450699736
10
3.9117987953771332
20
-1.3712761210859252
42
0.22544948219299191
10
3.883814101329798
20
-1.4301857770744921
10
3.8838141013297971
20
-1.5873012306248231
42
0.22544948219300362
10
3.911798795377134
20
-1.6462108866133909
10
4.117171238275823
20
-1.813591762629341
42
0.35589151571367877
10
4.2131953171248906
20
-1.8135917626293427
0
LWPOLYLINE
5
274
100
AcDbEntity
8
0
100
AcDbPolyline
90
12
70
1
43
0.0
10
8.8541042476425496
20
-2.6305561324960793
10
9.1147743724520307
20
-2.8430052479955821
42
-0.22544948219300209
10
9.1502941023004656
20
-2.9177766592048213
10
9.1502941023004656
20
-3.1171963296747602
42
-0.22544948219298039
10
9.1147743724520307
20
-3.1919677408839982
10
8.854104247642546
20
-3.4044168563835009
42
-0.35589151571374211
10
8.7322251470922829
20
-3.4044168563835013
10
8.4715550222828
20
-3.1919677408839986
42
-0.22544948219300709
10
8.4360352924343669
20
-3.1171963296747598
10
8.4360352924343687
20
-2.9177766592048195
42
-0.22544948219299016
10
8.4715550222828
20
-2.8430052479955834
10
8.7322251470922847
20
-2.6305561324960776
42
-0.35589151571370864
0
LWPOLYLINE
5
275
100
AcDbEntity
8
0
100
AcDbPolyline
90
12
70
1
43
0.0
10
13.429608365841963
20
0.053729797829864208
42
0.35589151571372107
10
13.41268386822702
20
0.053729797829862758
10
13.376486432524702
20
0.024228476173122439
42
0.22544948219303385
10
13.371554056256834
20
0.013845493652221428
10
13.371554056256835
20
-0.013846520171337558
42
0.22544948219303598
10
13.3764864325247
20
-0.024229502692238447
10
13.412683868227022
20
-0.053730824348980653
42
0.35589151571376937
10
13.429608365841963
20
-0.053730824348980633
10
13.465805801544279
20
-0.024229502692240411
42
0.22544948219318053
10
13.47073817781215
20
-0.013846520171337806
10
13.470738177812148
20
0.013845493652221097
42
0.22544948219306132
10
13.465805801544281
20
0.024228476173121793
0
CIRCLE
5
276
100
AcDbEntity
8
0
100
AcDbCircle
10
-10.65661058868101
20
-3.2012728321984985
30
0
40
0.10999999999999899
210
0
220
-0
230
1
0
LWPOLYLINE
5
277
100
AcDbEntity
8
0
100
AcDbPolyline
90
12
70
1
43
0.0
10
12.976532180374312
20
0.86983000838447344
42
0.35589151571374289
10
12.940163769761265
20
0.86983000838447044
10
12.862380473931031
20
0.80643573789856038
42
0.22544948219308239
10
12.851781477760564
20
0.78412414081015869
10
12.851781477760566
20
0.72461782326084823
42
0.22544948219295979
10
12.862380473931029
20
0.70230622617244975
10
12.940163769761268
20
0.63891195568653159
42
0.35589151571370359
10
12.976532180374312
20
0.6389119556865317
10
13.054315476204541
20
0.7023062261724462
42
0.22544948219306801
10
13.064914472375008
20
0.72461782326084778
10
13.064914472375008
20
0.78412414081015835
42
0.22544948219300087
10
13.054315476204543
20
0.80643573789855849
0
LWPOLYLINE
5
278
100
AcDbEntity
8
0
100
AcDbPolyline
90
12
70
1
43
0.0
10
-9.4123540701441151
20
-3.183719863394475
10
-9.6607020955966991
20
-3.3861263278177054
42
-0.35589151571370553
10
-9.776819867004976
20
-3.3861263278177054
10
-10.025167892457562
20
-3.1837198633944754
42
-0.22544948219299626
10
-10.05900857434972
20
-3.1124829606320699
10
-10.059008574349722
20
-2.9224900282474673
42
-0.22544948219299446
10
-10.025167892457562
20
-2.8512531254850626
10
-9.776819867004976
20
-2.6488466610618349
42
-0.35589151571368494
10
-9.6607020955966991
20
-2.6488466610618353
10
-9.4123540701441168
20
-2.8512531254850608
42
-0.22544948219302421
10
-9.3785133882519549
20
-2.9224900282474682
10
-9.3785133882519549
20
-3.1124829606320703
42
-0.22544948219299973
0
LWPOLYLINE
5
279
100
AcDbEntity
8
0
100
AcDbPolyline
90
12
70
1
43
0.0
10
4.8012602105748616
20
-0.080833752955471502
42
0.22544948219298533
10
4.8300555127635292
20
-0.14144979339357472
10
5.0413767994815357
20
-0.31367904475972153
42
0.35589151571367494
10
5.1401823237860107
20
-0.31367904475972125
10
5.351503610504019
20
-0.14144979339357516
42
0.22544948219299318
10
5.3802989126926857
20
-0.080833752955472557
10
5.3802989126926866
20
0.080832726436394955
42
0.22544948219301061
10
5.351503610504019
20
0.1414487668744982
10
5.1401823237860125
20
0.31367801824064517
42
0.35589151571367755
10
5.0413767994815375
20
0.31367801824064373
10
4.830055512763531
20
0.141448766874499
42
0.22544948219300703
10
4.8012602105748634
20
0.080832726436396177
0
LWPOLYLINE
5
280
100
AcDbEntity
8
0
100
AcDbPolyline
90
12
70
1
43
0.0
10
5.1514132852277488
20
3.4024740100134307
10
5.4107752303938206
20
3.1910910757971136
42
-0.22544948219298691
10
5.4461167035756688
20
3.1166949068145207
10
5.4461167035756652
20
2.9182760290268881
42
-0.22544948219301864
10
5.4107752303938197
20
2.8438798600442965
10
5.151413285227747
20
2.6324969258279802
42
-0.35589151571367655
10
5.0301458380398136
20
2.6324969258279807
10
4.7707838928737436
20
2.8438798600442978
42
-0.2254494821929876
10
4.7354424196918981
20
2.918276029026889
10
4.7354424196918981
20
3.1166949068145233
42
-0.22544948219299915
10
4.7707838928737436
20
3.1910910757971145
10
5.0301458380398145
20
3.4024740100134294
42
-0.35589151571370009
0
LWPOLYLINE
5
281
100
AcDbEntity
8
0
100
AcDbPolyline
90
12
70
1
43
0.0
10
7.922675059907144
20
1.8586373250786135
10
8.1583948239869297
20
1.6665230372556321
42
-0.22544948219300362
10
8.1905147393250193
20
1.5989084633836341
10
8.1905147393250211
20
1.4185764912775176
42
-0.22544948219300348
10
8.1583948239869297
20
1.3509619174055174
10
7.9226750599071387
20
1.1588476295825383
42
-0.35589151571368011
10
7.8124617669608876
20
1.1588476295825376
10
7.5767420028811072
20
1.3509619174055199
42
-0.22544948219300148
10
7.5446220875430168
20
1.4185764912775183
10
7.5446220875430168
20
1.5989084633836355
42
-0.2254494821929954
10
7.5767420028811081
20
1.6665230372556332
10
7.812461766960892
20
1.8586373250786146
42
-0.35589151571368238
0
LWPOLYLINE
5
282
100
AcDbEntity
8
0
100
AcDbPolyline
90
12
70
1
43
0.0
10
5.366584551138164
20
1.3591114118733774
42
0.22544948219300268
10
5.3970454466801527
20
1.423233637917622
10
5.3970454466801545
20
1.5942513167435415
42
0.22544948219298414
10
5.3665845511381649
20
1.6583735427877864
10
5.1430399049198234
20
1.8405649711244521
42
0.35589151571369126
10
5.0385192183477381
20
1.8405649711244518
10
4.8149745721293922
20
1.658373542787787
42
0.22544948219298655
10
4.7845136765874043
20
1.5942513167435433
10
4.7845136765874035
20
1.4232336379176231
42
0.22544948219298941
10
4.8149745721293922
20
1.3591114118733785
10
5.0385192183477354
20
1.1769199835367132
42
0.35589151571367805
10
5.1430399049198181
20
1.1769199835367137
0
LWPOLYLINE
5
283
100
AcDbEntity
8
0
100
AcDbPolyline
90
12
70
1
43
0.0
10
7.9302994003299094
20
3.4157904005158022
10
8.198632430517149
20
3.1970959300073583
42
-0.2254494821929868
10
8.2351963319179227
20
3.1201264677192877
10
8.2351963319179227
20
2.9148444681221051
42
-0.22544948219301528
10
8.1986324305171472
20
2.8378750058340341
10
7.9302994003299077
20
2.6191805353255919
42
-0.35589151571367367
10
7.8048374265381328
20
2.6191805353255919
10
7.5365043963508986
20
2.8378750058340358
42
-0.22544948219299435
10
7.4999404949501232
20
2.9148444681221064
10
7.4999404949501232
20
3.1201264677192908
42
-0.22544948219299835
10
7.5365043963509004
20
3.1970959300073614
10
7.8048374265381364
20
3.4157904005158013
42
-0.35589151571369276
0
LWPOLYLINE
5
284
100
AcDbEntity
8
0
100
AcDbPolyline
90
12
70
1
43
0.0
10
7.4635776844195787
20
-1.8897224572590785
10
7.7151275498974892
20
-2.0947384577073902
42
-0.22544948219299157
10
7.7494045245669714
20
-2.166893785998365
10
7.7494045245669714
20
-2.3593362122910881
42
-0.22544948219298808
10
7.7151275498974901
20
-2.4314915405820634
10
7.463577684419576
20
-2.6365075410303724
42
-0.3558915157136967
10
7.3459628585150156
20
-2.636507541030372
10
7.0944129930370945
20
-2.4314915405820607
42
-0.22544948219300115
10
7.0601360183676141
20
-2.3593362122910859
10
7.0601360183676123
20
-2.1668937859983641
42
-0.22544948219299857
10
7.0944129930370936
20
-2.0947384577073889
10
7.3459628585150192
20
-1.8897224572590789
42
-0.3558915157136725
0
LWPOLYLINE
5
285
100
AcDbEntity
8
0
100
AcDbPolyline
90
12
70
1
43
0.0
10
8.8458456819597213
20
-1.1742501847519655
10
9.0711896296384023
20
-1.3579080642365917
42
-0.2254494821929954
10
9.1018957036481325
20
-1.4225464073827809
10
9.1018957036481307
20
-1.5949406003165578
42
-0.22544948219300498
10
9.0711896296384023
20
-1.6595789434627464
10
8.8458456819597213
20
-1.843236822947371
42
-0.35589151571371147
10
8.7404837127751183
20
-1.8432368229473708
10
8.5151397650964373
20
-1.659578943462747
42
-0.22544948219298167
10
8.4844336910867018
20
-1.594940600316556
10
8.4844336910867053
20
-1.4225464073827798
42
-0.22544948219300104
10
8.5151397650964373
20
-1.3579080642365891
10
8.7404837127751183
20
-1.1742501847519655
42
-0.35589151571369865
0
LWPOLYLINE
5
286
100
AcDbEntity
8
0
100
AcDbPolyline
90
12
70
1
43
0.0
10
7.9302994072262445
20
-2.6191815180569069
10
8.198632466912759
20
-2.8378760126075933
42
-0.22544948219297503
10
8.2351963723331991
20
-2.9148454833573259
10
8.2351963723331973
20
-3.1201275055222504
42
-0.22544948219298527
10
8.1986324669127608
20
-3.1970969762719821
10
7.9302994072262418
20
-3.4157914708226707
42
-0.35589151571368527
10
7.8048374196417676
20
-3.4157914708226693
10
7.5365043599552592
20
-3.1970969762719816
42
-0.22544948219300115
10
7.4999404545348201
20
-3.120127505522249
10
7.4999404545348201
20
-2.9148454833573241
42
-0.22544948219299227
10
7.5365043599552575
20
-2.8378760126075924
10
7.8048374196417694
20
-2.619181518056906
42
-0.35589151571369049
0
LWPOLYLINE
5
287
100
AcDbEntity
8
0
100
AcDbPolyline
90
12
70
1
43
0.0
10
7.922675063376964
20
-1.1588486340702533
10
8.158394842299014
20
-1.3509629339898497
42
-0.22544948219299435
10
8.1905147596595516
20
-1.4185775121192441
10
8.1905147596595533
20
-1.5989094955800911
42
-0.22544948219298222
10
8.1583948422990122
20
-1.6665240737094871
10
7.9226750633769614
20
-1.8586383736290826
42
-0.35589151571367966
10
7.8124617634910507
20
-1.8586383736290821
10
7.5767419845690078
20
-1.6665240737094866
42
-0.22544948219301408
10
7.5446220672084632
20
-1.5989094955800902
10
7.5446220672084641
20
-1.4185775121192423
42
-0.22544948219299693
10
7.5767419845690087
20
-1.350962933989845
10
7.8124617634910543
20
-1.1588486340702522
42
-0.35589151571369831
0
LWPOLYLINE
5
288
100
AcDbEntity
8
0
100
AcDbPolyline
90
12
70
1
43
0.0
10
7.9201217718552286
20
0.33368245459092311
10
8.144919796077053
20
0.15046950893070382
42
-0.22544948219296707
10
8.1755514808420635
20
0.085987760128846957
10
8.1755514808420635
20
-0.085988786647938936
42
-0.22544948219299263
10
8.144919796077053
20
-0.15047053544979549
10
7.9201217718552268
20
-0.33368348111001328
42
-0.35589151571367433
10
7.8150150550127968
20
-0.333683481110013
10
7.5902170307909733
20
-0.15047053544979425
42
-0.22544948219298191
10
7.5595853460259619
20
-0.085988786647937271
10
7.5595853460259628
20
0.085987760128849178
42
-0.22544948219300007
10
7.5902170307909742
20
0.15046950893070601
10
7.8150150550127986
20
0.33368245459092422
42
-0.35589151571368188
0
LWPOLYLINE
5
289
100
AcDbEntity
8
0
100
AcDbPolyline
90
12
70
1
43
0.0
10
8.3877666889737252
20
2.6275711167749716
10
8.6332968892295998
20
2.4274612119253103
42
-0.2254494821929568
10
8.6667536054109942
20
2.3570325827103749
10
8.6667536054109888
20
2.1691953625408984
42
-0.22544948219301583
10
8.6332968892295963
20
2.0987667333259643
10
8.387766688973727
20
1.8986568284763008
42
-0.35589151571369265
10
8.2729664218277197
20
1.8986568284762995
10
8.0274362215718469
20
2.0987667333259652
42
-0.22544948219301
10
7.9939795053904517
20
2.1691953625409011
10
7.9939795053904534
20
2.3570325827103775
42
-0.22544948219299821
10
8.0274362215718487
20
2.4274612119253125
10
8.2729664218277161
20
2.6275711167749782
42
-0.35589151571370664
0
LWPOLYLINE
5
290
100
AcDbEntity
8
0
100
AcDbPolyline
90
12
70
1
43
0.0
10
8.3824776780713091
20
1.0852460125401506
10
8.6053840301722886
20
0.90357480116644229
42
-0.22544948219301433
10
8.6357579497532644
20
0.83963566534765577
10
8.6357579497532626
20
0.66910629872337113
42
-0.22544948219299157
10
8.6053840301722868
20
0.60516716290458472
10
8.3824776780713055
20
0.42349595153087516
42
-0.35589151571369471
10
8.2782554327301359
20
0.42349595153088004
10
8.055349080629151
20
0.60516716290458605
42
-0.2254494821929785
10
8.0249751610481734
20
0.66910629872337268
10
8.0249751610481734
20
0.83963566534765688
42
-0.22544948219298178
10
8.055349080629151
20
0.90357480116644284
10
8.2782554327301323
20
1.0852460125401537
42
-0.35589151571371108
0
LWPOLYLINE
5
291
100
AcDbEntity
8
0
100
AcDbPolyline
90
12
70
1
43
0.0
10
12.976532188970843
20
-0.63891292762265273
42
0.35589151571369232
10
12.940163761164719
20
-0.63891292762264917
10
12.862380428562609
20
-0.70230722807806656
42
0.22544948219301345
10
12.851781427381489
20
-0.72461883571422447
10
12.851781427381493
20
-0.78412518139501264
42
0.2254494821929694
10
12.862380428562609
20
-0.80643678903117055
10
12.940163761164719
20
-0.86983108948658461
42
0.35589151571378624
10
12.976532188970848
20
-0.86983108948658105
10
13.054315521572965
20
-0.80643678903117033
42
0.22544948219292169
10
13.06491452275408
20
-0.78412518139501286
10
13.064914522754082
20
-0.72461883571422425
42
0.22544948219300581
10
13.054315521572963
20
-0.70230722807806734
0
LWPOLYLINE
5
292
100
AcDbEntity
8
0
100
AcDbPolyline
90
12
70
1
43
0.0
10
4.9135079367107757
20
-2.4180202350445859
10
4.6820838266785714
20
-2.6066335159778551
42
-0.35589151571367661
10
4.5738790126555422
20
-2.6066335159778551
10
4.3424549026233361
20
-2.418020235044585
42
-0.22544948219301539
10
4.3109203265963911
20
-2.3516378396412119
10
4.3109203265963911
20
-2.1745921586482271
42
-0.22544948219301073
10
4.3424549026233361
20
-2.1082097632448531
10
4.5738790126555458
20
-1.9195964823115839
42
-0.35589151571366201
10
4.6820838266785723
20
-1.9195964823115859
10
4.9135079367107766
20
-2.1082097632448549
42
-0.22544948219301361
10
4.9450425127377189
20
-2.174592158648228
10
4.9450425127377216
20
-2.3516378396412119
42
-0.22544948219300662
0
LWPOLYLINE
5
293
100
AcDbEntity
8
0
100
AcDbPolyline
90
12
70
1
43
0.0
10
8.3877666943414546
20
-1.8986578209134064
10
8.6332969175579315
20
-2.0987677444762229
42
-0.22544948219299296
10
8.6667536368680125
20
-2.1691963802772509
10
8.6667536368680107
20
-2.3570336180122085
42
-0.22544948219299521
10
8.6332969175579297
20
-2.4274622538132333
10
8.3877666943414546
20
-2.6275721773760523
42
-0.35589151571370531
10
8.272966416459969
20
-2.6275721773760514
10
8.0274361932434957
20
-2.4274622538132329
42
-0.22544948219301292
10
7.9939794739334165
20
-2.3570336180122067
10
7.9939794739334147
20
-2.1691963802772487
42
-0.2254494821930037
10
8.0274361932434957
20
-2.0987677444762238
10
8.2729664164599708
20
-1.8986578209134048
42
-0.35589151571369443
0
LWPOLYLINE
5
294
100
AcDbEntity
8
0
100
AcDbPolyline
90
12
70
1
43
0.0
10
8.3824776798816156
20
-0.42349696655555685
10
8.6053840397262391
20
-0.60516818424042174
42
-0.22544948219301722
10
8.6357579603623886
20
-0.66910732228041858
10
8.6357579603623904
20
-0.8396366948287981
42
-0.22544948219298375
10
8.6053840397262391
20
-0.90357583286879306
10
8.3824776798816139
20
-1.0852470505536598
42
-0.35589151571371103
10
8.2782554309198186
20
-1.0852470505536611
10
8.0553490710751969
20
-0.90357583286879339
42
-0.22544948219303337
10
8.0249751504390474
20
-0.8396366948287961
10
8.0249751504390439
20
-0.66910732228041758
42
-0.22544948219301281
10
8.0553490710751952
20
-0.60516818424042107
10
8.2782554309198169
20
-0.42349696655555563
42
-0.35589151571369371
0
LWPOLYLINE
5
295
100
AcDbEntity
8
0
100
AcDbPolyline
90
12
70
1
43
0.0
10
9.7768198587131856
20
3.3861252486505808
42
0.35589151571370881
10
9.6607021038885037
20
3.3861252486505808
10
9.4123541139042501
20
3.183718813134444
42
0.22544948219297689
10
9.3785134368451164
20
3.112481920545882
10
9.3785134368451182
20
2.922489015295505
42
0.22544948219296915
10
9.4123541139042519
20
2.8512521227069443
10
9.6607021038885055
20
2.6488456871908013
42
0.35589151571368122
10
9.7768198587131891
20
2.6488456871908053
10
10.025167848697441
20
2.8512521227069434
42
0.22544948219297997
10
10.059008525756575
20
2.922489015295505
10
10.059008525756576
20
3.1124819205458798
42
0.22544948219300331
10
10.025167848697441
20
3.1837188131344418
0
LWPOLYLINE
5
296
100
AcDbEntity
8
0
100
AcDbPolyline
90
12
70
1
43
0.0
10
-7.3128675794112326
20
-3.1210397826573049
42
0.22544948219299085
10
-7.275978692635559
20
-3.1986933609340689
10
-7.005260678705568
20
-3.4193316203097592
42
0.35589151571366689
10
-6.8786835802956343
20
-3.4193316203097579
10
-6.6079655663656514
20
-3.1986933609340693
42
0.2254494821929981
10
-6.5710766795899804
20
-3.1210397826573058
10
-6.5710766795899795
20
-2.9139332062222332
42
0.22544948219299715
10
-6.6079655663656522
20
-2.8362796279454705
10
-6.8786835802956334
20
-2.6156413685697832
42
0.35589151571369482
10
-7.0052606787055698
20
-2.6156413685697819
10
-7.2759786926355581
20
-2.8362796279454692
42
0.22544948219301578
10
-7.3128675794112317
20
-2.9139332062222345
0
LWPOLYLINE
5
297
100
AcDbEntity
8
0
100
AcDbPolyline
90
12
70
1
43
0.0
10
-6.9978214618433814
20
-1.863353970781914
10
-7.2367180793371286
20
-1.668650511306212
42
-0.22544948219299552
10
-7.2692708826984029
20
-1.600124679141226
10
-7.2692708826984029
20
-1.4173623285580708
42
-0.22544948219299649
10
-7.2367180793371277
20
-1.3488364963930848
10
-6.9978214618433832
20
-1.1541330369173817
42
-0.3558915157136831
10
-6.8861227971578227
20
-1.1541330369173834
10
-6.6472261796640817
20
-1.3488364963930857
42
-0.22544948219299252
10
-6.6146733763028074
20
-1.4173623285580703
10
-6.6146733763028065
20
-1.6001246791412265
42
-0.22544948219301722
10
-6.6472261796640808
20
-1.6686505113062122
10
-6.8861227971578227
20
-1.863353970781914
42
-0.35589151571368005
0
LWPOLYLINE
5
298
100
AcDbEntity
8
0
100
AcDbPolyline
90
12
70
1
43
0.0
10
-9.1502941023004709
20
-3.1171963296747385
42
0.22544948219300681
10
-9.1147743724520378
20
-3.1919677408839751
10
-8.8541042476425549
20
-3.4044168563834796
42
0.35589151571374467
10
-8.7322251470922918
20
-3.4044168563834805
10
-8.4715550222828089
20
-3.1919677408839768
42
0.22544948219301633
10
-8.4360352924343758
20
-3.1171963296747385
10
-8.436035292434374
20
-2.9177766592047991
42
0.22544948219300467
10
-8.4715550222828071
20
-2.8430052479955621
10
-8.73222514709229
20
-2.6305561324960585
42
0.35589151571370436
10
-8.8541042476425567
20
-2.630556132496058
10
-9.1147743724520378
20
-2.8430052479955612
42
0.22544948219303093
10
-9.1502941023004727
20
-2.9177766592047991
0
LWPOLYLINE
5
299
100
AcDbEntity
8
0
100
AcDbPolyline
90
12
70
1
43
0.0
10
9.3045539661060541
20
1.0628961054443187
42
0.3558915157136911
10
9.2073717125622139
20
1.0628961054443202
10
8.9995222121460774
20
0.89349639938788039
42
0.2254494821929667
10
8.9711999864621443
20
0.83387621668912315
10
8.9711999864621461
20
0.67486574738190175
42
0.22544948219301958
10
8.9995222121460774
20
0.61524556468314429
10
9.2073717125622156
20
0.44584585862670334
42
0.35589151571367728
10
9.3045539661060577
20
0.44584585862670251
10
9.5124034665221959
20
0.61524556468314362
42
0.22544948219298544
10
9.5407256922061272
20
0.67486574738190064
10
9.5407256922061272
20
0.83387621668912149
42
0.22544948219295199
10
9.5124034665221959
20
0.89349639938787995
0
LWPOLYLINE
5
300
100
AcDbEntity
8
0
100
AcDbPolyline
90
12
70
1
43
0.0
10
-6.6603133260529868
20
-0.15280741835214995
10
-6.8886025882745372
20
-0.33886576267699642
42
-0.35589151571370031
10
-6.9953416707266651
20
-0.33886576267699664
10
-7.2236309329482236
20
-0.15280741835214967
42
-0.22544948219300756
10
-7.2547383447674108
20
-0.087324232226786175
10
-7.254738344767409
20
0.087323205707733872
42
-0.22544948219300381
10
-7.2236309329482218
20
0.15280639183309791
10
-6.9953416707266634
20
0.33886473615794527
42
-0.35589151571368816
10
-6.8886025882745372
20
0.33886473615794382
10
-6.6603133260529859
20
0.1528063918330993
42
-0.22544948219298178
10
-6.6292059142337987
20
0.087323205707734858
10
-6.6292059142337996
20
-0.087324232226786716
42
-0.22544948219298086
0
LWPOLYLINE
5
301
100
AcDbEntity
8
0
100
AcDbPolyline
90
12
70
1
43
0.0
10
9.3045539681730371
20
-0.44584687202166917
42
0.35589151571370925
10
9.2073717104952273
20
-0.44584687202167017
10
8.9995222012375233
20
-0.61524658528408316
42
0.22544948219297992
10
8.9711999743488118
20
-0.6748667705189817
10
8.9711999743488136
20
-0.83387724659023699
42
0.22544948219301691
10
8.9995222012375251
20
-0.8934974318251363
10
9.2073717104952237
20
-1.0628971450875537
42
0.35589151571368716
10
9.3045539681730389
20
-1.0628971450875517
10
9.5124034774307358
20
-0.89349743182513641
42
0.22544948219298092
10
9.5407257043194473
20
-0.83387724659023754
10
9.5407257043194491
20
-0.67486677051898325
42
0.22544948219298661
10
9.5124034774307393
20
-0.61524658528408471
0
LWPOLYLINE
5
302
100
AcDbEntity
8
0
100
AcDbPolyline
90
12
70
1
43
0.0
10
9.3105170784476563
20
-1.9167276137692477
42
0.35589151571370453
10
9.201408600220601
20
-1.9167276137692493
10
8.9680517694857933
20
-2.1069160840498835
42
0.22544948219299762
10
8.9362538348661467
20
-2.1738528669363357
10
8.9362538348661431
20
-2.3523771313531245
42
0.22544948219300928
10
8.9680517694857933
20
-2.4193139142395799
10
9.2014086002205993
20
-2.6095023845202161
42
0.35589151571367394
10
9.3105170784476545
20
-2.6095023845202148
10
9.5438739091824676
20
-2.4193139142395768
42
0.22544948219300964
10
9.5756718438021124
20
-2.352377131353125
10
9.5756718438021124
20
-2.1738528669363366
42
0.22544948219299829
10
9.5438739091824694
20
-2.106916084049884
0
LWPOLYLINE
5
303
100
AcDbEntity
8
0
100
AcDbPolyline
90
12
70
1
43
0.0
10
-8.5151397650964391
20
-1.6595789434627259
10
-8.7404837127751218
20
-1.8432368229473506
42
-0.35589151571370392
10
-8.8458456819597249
20
-1.8432368229473506
10
-9.0711896296384058
20
-1.6595789434627251
42
-0.22544948219298808
10
-9.1018957036481378
20
-1.5949406003165361
10
-9.1018957036481396
20
-1.4225464073827585
42
-0.22544948219299274
10
-9.0711896296384076
20
-1.3579080642365693
10
-8.8458456819597249
20
-1.1742501847519442
42
-0.35589151571369254
10
-8.7404837127751218
20
-1.1742501847519442
10
-8.5151397650964373
20
-1.3579080642365706
42
-0.22544948219301164
10
-8.4844336910867071
20
-1.4225464073827594
10
-8.4844336910867071
20
-1.5949406003165358
42
-0.22544948219302799
0
LWPOLYLINE
5
304
100
AcDbEntity
8
0
100
AcDbPolyline
90
12
70
1
43
0.0
10
-9.543873877606103
20
2.4193128705895406
42
0.22544948219299776
10
-9.5756718087383419
20
2.3523760950443142
10
-9.5756718087383383
20
2.1738518502070017
42
0.22544948219299987
10
-9.5438738776061012
20
2.1069150746617766
10
-9.3105170724644779
20
1.9167266252398776
42
0.35589151571370492
10
-9.2014086062037901
20
1.9167266252398765
10
-8.968051801062165
20
2.1069150746617771
42
0.22544948219298566
10
-8.9362538699299261
20
2.1738518502070017
10
-8.9362538699299261
20
2.3523760950443147
42
0.22544948219295446
10
-8.9680518010621633
20
2.4193128705895379
10
-9.2014086062037954
20
2.6095013200114376
42
0.3558915157136644
10
-9.3105170724644797
20
2.6095013200114381
0
LWPOLYLINE
5
305
100
AcDbEntity
8
0
100
AcDbPolyline
90
12
70
1
43
0.0
10
-8.4360353357785485
20
3.1171952910540792
10
-8.4360353357785467
20
2.9177756447873548
42
-0.22544948219297736
10
-8.4715550613160087
20
2.8430042426529942
10
-8.7322251544884182
20
2.6305551529380691
42
-0.35589151571369632
10
-8.8541042402464285
20
2.6305551529380691
10
-9.1147743334188362
20
2.8430042426529938
42
-0.22544948219303415
10
-9.1502940589563
20
2.9177756447873544
10
-9.1502940589563018
20
3.1171952910540766
42
-0.22544948219302749
10
-9.1147743334188345
20
3.1919666931884412
10
-8.8541042402464285
20
3.4044157829033619
42
-0.3558915157136921
10
-8.7322251544884182
20
3.404415782903365
10
-8.4715550613160122
20
3.1919666931884407
42
-0.22544948219300487
0
LWPOLYLINE
5
306
100
AcDbEntity
8
0
100
AcDbPolyline
90
12
70
1
43
0.0
10
-7.3459628636037566
20
2.6365064822008133
10
-7.0944130198930084
20
2.4314904994929938
42
-0.2254494821929848
10
-7.060136048189591
20
2.3593351774457818
10
-7.0601360481895918
20
2.1668927678055323
42
-0.2254494821929911
10
-7.0944130198930075
20
2.0947374457583199
10
-7.3459628636037575
20
1.8897214630505024
42
-0.35589151571367111
10
-7.4635776793308448
20
1.8897214630505035
10
-7.715127523041585
20
2.0947374457583208
42
-0.22544948219299446
10
-7.7494044947450016
20
2.1668927678055323
10
-7.7494044947450025
20
2.3593351774457836
42
-0.22544948219299787
10
-7.715127523041585
20
2.4314904994929951
10
-7.4635776793308475
20
2.6365064822008106
42
-0.35589151571367739
0
LWPOLYLINE
5
307
100
AcDbEntity
8
0
100
AcDbPolyline
90
12
70
1
43
0.0
10
-8.0553490710751969
20
-0.90357583286877396
10
-8.2782554309198186
20
-1.085247050553642
42
-0.3558915157137269
10
-8.3824776798816156
20
-1.0852470505536387
10
-8.6053840397262409
20
-0.9035758328687723
42
-0.22544948219298597
10
-8.6357579603623922
20
-0.83963669482877701
10
-8.6357579603623904
20
-0.66910732228039804
42
-0.22544948219302283
10
-8.6053840397262409
20
-0.60516818424040097
10
-8.3824776798816174
20
-0.42349696655553748
42
-0.35589151571369293
10
-8.2782554309198186
20
-0.42349696655553642
10
-8.0553490710751969
20
-0.60516818424040153
42
-0.22544948219298713
10
-8.0249751504390456
20
-0.66910732228039838
10
-8.0249751504390456
20
-0.83963669482877712
42
-0.2254494821930037
0
LWPOLYLINE
5
308
100
AcDbEntity
8
0
100
AcDbPolyline
90
12
70
1
43
0.0
10
-6.0789480175212178
20
2.6201889169538939
42
0.35589151571367411
10
-5.9538036736131499
20
2.6201889169538926
10
-5.6861499774631268
20
2.838329722498079
42
0.22544948219301211
10
-5.6496786442517299
20
2.9151043225452944
10
-5.6496786442517299
20
3.1198666132961392
42
0.22544948219300404
10
-5.6861499774631259
20
3.1966412133433533
10
-5.953803673613149
20
3.4147820188875402
42
0.35589151571370586
10
-6.0789480175212187
20
3.4147820188875411
10
-6.3466017136712409
20
3.1966412133433511
42
0.2254494821930032
10
-6.3830730468826378
20
3.1198666132961383
10
-6.3830730468826369
20
2.9151043225452944
42
0.22544948219299518
10
-6.3466017136712392
20
2.8383297224980808
0
LWPOLYLINE
5
309
100
AcDbEntity
8
0
100
AcDbPolyline
90
12
70
1
43
0.0
10
-7.2759786570198317
20
3.1986923150925994
10
-7.0052606719569948
20
3.4193305509412273
42
-0.35589151571367822
10
-6.8786835870442093
20
3.4193305509412273
10
-6.6079656019813804
20
3.198692315092599
42
-0.22544948219299765
10
-6.5710767191392367
20
3.1210387450961781
10
-6.5710767191392359
20
2.9139321907452578
42
-0.22544948219299435
10
-6.6079656019813795
20
2.836278620748836
10
-6.8786835870442076
20
2.6156403849002055
42
-0.35589151571366356
10
-7.0052606719569956
20
2.6156403849002055
10
-7.2759786570198326
20
2.8362786207488364
42
-0.22544948219299626
10
-7.3128675398619762
20
2.9139321907452582
10
-7.3128675398619754
20
3.1210387450961772
42
-0.22544948219298841
0
LWPOLYLINE
5
310
100
AcDbEntity
8
0
100
AcDbPolyline
90
12
70
1
43
0.0
10
-7.9939795053904481
20
2.3570325827103957
42
0.22544948219299532
10
-8.0274362215718416
20
2.4274612119253294
10
-8.2729664218277161
20
2.6275711167749964
42
0.35589151571369637
10
-8.3877666889737181
20
2.6275711167749938
10
-8.6332968892295927
20
2.4274612119253325
42
0.22544948219298311
10
-8.6667536054109888
20
2.3570325827103962
10
-8.6667536054109853
20
2.1691953625409197
42
0.22544948219302391
10
-8.6332968892295909
20
2.0987667333259861
10
-8.3877666889737199
20
1.898656828476321
42
0.35589151571371436
10
-8.2729664218277126
20
1.8986568284763214
10
-8.0274362215718398
20
2.0987667333259847
42
0.22544948219297056
10
-7.9939795053904472
20
2.1691953625409197
0
LWPOLYLINE
5
311
100
AcDbEntity
8
0
100
AcDbPolyline
90
12
70
1
43
0.0
10
-6.9978214584689997
20
1.1541320318236628
42
0.35589151571369088
10
-6.8861228005322026
20
1.1541320318236641
10
-6.6472261974724383
20
1.3488354795355095
42
0.2254494821929818
10
-6.6146733960779835
20
1.4173613075602089
10
-6.6146733960779844
20
1.6001236471009828
42
0.22544948219300409
10
-6.64722619747244
20
1.6686494751256811
10
-6.8861228005322017
20
1.8633529228375267
42
0.35589151571368111
10
-6.9978214584689997
20
1.8633529228375287
10
-7.2367180615287703
20
1.6686494751256824
42
0.22544948219299604
10
-7.2692708629232259
20
1.6001236471009825
10
-7.2692708629232268
20
1.4173613075602089
42
0.22544948219298197
10
-7.2367180615287712
20
1.3488354795355075
0
LWPOLYLINE
5
312
100
AcDbEntity
8
0
100
AcDbPolyline
90
12
70
1
43
0.0
10
-6.0712699351213937
20
1.160197241209149
42
0.35589151571367689
10
-5.9614817560129785
20
1.1601972412091512
10
-5.7266712083342579
20
1.3515705073276132
42
0.22544948219301511
10
-5.6946751856783955
20
1.4189242788025134
10
-5.6946751856783946
20
1.5985606758586761
42
0.22544948219299632
10
-5.7266712083342561
20
1.6659144473335772
10
-5.9614817560129785
20
1.857287713452038
42
0.35589151571369321
10
-6.0712699351213937
20
1.8572877134520407
10
-6.306080482800116
20
1.6659144473335767
42
0.22544948219298713
10
-6.3380765054559776
20
1.5985606758586766
10
-6.3380765054559776
20
1.4189242788025132
42
0.22544948219301111
10
-6.306080482800116
20
1.3515705073276127
0
LWPOLYLINE
5
313
100
AcDbEntity
8
0
100
AcDbPolyline
90
12
70
1
43
0.0
10
-5.5018088868827135
20
1.083072570733959
42
0.35589151571368371
10
-5.6053465203182471
20
1.0830725707339595
10
-5.826788651973863
20
0.90259471567118943
42
0.22544948219299146
10
-5.8569630522785285
20
0.8390755812971471
10
-5.8569630522785285
20
0.66966638277392143
42
0.22544948219299138
10
-5.826788651973863
20
0.60614724839987888
10
-5.6053465203182471
20
0.42566939333710813
42
0.35589151571368211
10
-5.5018088868827144
20
0.4256693933371089
10
-5.2803667552270976
20
0.60614724839987866
42
0.22544948219298766
10
-5.250192354922433
20
0.6696663827739211
10
-5.2501923549224321
20
0.83907558129714699
42
0.22544948219298933
10
-5.2803667552270985
20
0.9025947156711891
0
LWPOLYLINE
5
314
100
AcDbEntity
8
0
100
AcDbPolyline
90
12
70
1
43
0.0
10
-6.7890314828106959
20
-2.0950096024965754
10
-6.5378867000994525
20
-1.8903237491088376
42
-0.35589151571368088
10
-6.4204612749683321
20
-1.8903237491088372
10
-6.1693164922570913
20
-2.0950096024965759
42
-0.22544948219299682
10
-6.1350947154375719
20
-2.1670487356150381
10
-6.1350947154375728
20
-2.3591812626743791
42
-0.22544948219298644
10
-6.1693164922570904
20
-2.43122039579284
10
-6.4204612749683312
20
-2.6359062491805805
42
-0.35589151571366301
10
-6.5378867000994534
20
-2.63590624918058
10
-6.7890314828106941
20
-2.4312203957928409
42
-0.22544948219300326
10
-6.8232532596302145
20
-2.3591812626743796
10
-6.8232532596302162
20
-2.1670487356150385
42
-0.22544948219301594
0
LWPOLYLINE
5
315
100
AcDbEntity
8
0
100
AcDbPolyline
90
12
70
1
43
0.0
10
-9.0854268969415841
20
-0.081599550926033104
42
0.22544948219298983
10
-9.056358793810368
20
-0.14278985562629135
10
-8.8430354914226186
20
-0.31665077252589491
42
0.3558915157137284
10
-8.7432939033122317
20
-0.3166507725258938
10
-8.5299706009244822
20
-0.14278985562629229
42
0.22544948219299149
10
-8.5009024977932679
20
-0.081599550926032827
10
-8.5009024977932697
20
0.081598524406980233
42
0.22544948219302854
10
-8.529970600924484
20
0.14278882910724072
10
-8.7432939033122317
20
0.31664974600684231
42
0.35589151571368227
10
-8.8430354914226204
20
0.31664974600684209
10
-9.056358793810368
20
0.14278882910724103
42
0.22544948219298028
10
-9.0854268969415841
20
0.081598524406980844
0
LWPOLYLINE
5
316
100
AcDbEntity
8
0
100
AcDbPolyline
90
12
70
1
43
0.0
10
0.83570225388209329
20
-0.70560226178897922
10
0.90856289785040489
20
-0.64622000854033734
42
-0.35589151571367672
10
0.94262967001641684
20
-0.64622000854033734
10
1.015490313984728
20
-0.70560226178897978
42
-0.22544948219299435
10
1.0254185341527615
20
-0.7265018304492018
10
1.0254185341527615
20
-0.78224218665997802
42
-0.22544948219300159
10
1.0154903139847282
20
-0.80314175532020005
10
0.94262967001641629
20
-0.86252400856884215
42
-0.35589151571367256
10
0.90856289785040456
20
-0.86252400856884215
10
0.83570225388209329
20
-0.80314175532019938
42
-0.22544948219298969
10
0.82577403371406
20
-0.78224218665997747
10
0.82577403371406011
20
-0.72650183044920102
42
-0.22544948219298699
0
LWPOLYLINE
5
317
100
AcDbEntity
8
0
100
AcDbPolyline
90
12
70
1
43
0.0
10
1.6205485422052157
20
2.198718609267206
42
0.2254494821930017
10
1.6434881640047456
20
2.1504291683881163
10
1.8118361245067569
20
2.0132236664882042
42
0.35589151571366784
10
1.8905490112269054
20
2.0132236664882051
10
2.0588969717289181
20
2.1504291683881154
42
0.22544948219300928
10
2.0818365935284486
20
2.1987186092672046
10
2.0818365935284491
20
2.327509335984101
42
0.22544948219298372
10
2.0588969717289189
20
2.3757987768631899
10
1.890549011226907
20
2.5130042787631024
42
0.35589151571367206
10
1.811836124506758
20
2.5130042787631024
10
1.6434881640047458
20
2.3757987768631907
42
0.22544948219298255
10
1.6205485422052155
20
2.3275093359841024
0
LWPOLYLINE
5
318
100
AcDbEntity
8
0
100
AcDbPolyline
90
12
70
1
43
0.0
10
-4.8300555127635292
20
-0.14144979339356295
10
-5.0413767994815366
20
-0.31367904475970931
42
-0.35589151571367439
10
-5.1401823237860125
20
-0.31367904475970809
10
-5.351503610504019
20
-0.14144979339356234
42
-0.22544948219299263
10
-5.3802989126926857
20
-0.080833752955459887
10
-5.3802989126926866
20
0.080832726436407806
42
-0.22544948219298411
10
-5.3515036105040199
20
0.14144876687451108
10
-5.1401823237860125
20
0.31367801824065616
42
-0.35589151571367827
10
-5.0413767994815366
20
0.31367801824065739
10
-4.830055512763531
20
0.14144876687451019
42
-0.22544948219299565
10
-4.8012602105748634
20
0.080832726436407737
10
-4.8012602105748625
20
-0.080833752955459803
42
-0.22544948219298938
0
LWPOLYLINE
5
319
100
AcDbEntity
8
0
100
AcDbPolyline
90
12
70
1
43
0.0
10
1.4167613267450865
20
-1.3286303398763222
10
1.5381013030056967
20
-1.4275238001458408
42
-0.2254494821929918
10
1.5546354692425912
20
-1.4623293278898895
10
1.5546354692425914
20
-1.5551576798094131
42
-0.22544948219299274
10
1.5381013030056967
20
-1.589963207553462
10
1.416761326745086
20
-1.6888566678229799
42
-0.35589151571366406
10
1.3600275250551468
20
-1.6888566678229808
10
1.2386875487945372
20
-1.5899632075534613
42
-0.22544948219299063
10
1.2221533825576429
20
-1.555157679809412
10
1.2221533825576432
20
-1.4623293278898895
42
-0.22544948219299416
10
1.2386875487945377
20
-1.427523800145841
10
1.3600275250551472
20
-1.3286303398763222
42
-0.35589151571367633
0
LWPOLYLINE
5
320
100
AcDbEntity
8
0
100
AcDbPolyline
90
12
70
1
43
0.0
10
1.9910670708368616
20
0.67848558580932994
42
0.22544948219300631
10
2.0065153142918266
20
0.71100517333886659
10
2.0065153142918262
20
0.79773679073219228
42
0.22544948219299177
10
1.9910670708368614
20
0.83025637826172871
10
1.8776964014461786
20
0.92265476282244863
42
0.35589151571366689
10
1.8246887342874805
20
0.92265476282244885
10
1.7113180648967958
20
0.83025637826172949
42
0.22544948219299515
10
1.6958698214418308
20
0.79773679073219284
10
1.6958698214418304
20
0.71100517333886715
42
0.22544948219300184
10
1.7113180648967949
20
0.6784855858093306
10
1.8246887342874789
20
0.58608720124861102
42
0.35589151571367345
10
1.8776964014461774
20
0.58608720124861091
0
LWPOLYLINE
5
321
100
AcDbEntity
8
0
100
AcDbPolyline
90
12
70
1
43
0.0
10
-4.3465484880463796
20
0.83294650915252877
10
-4.3465484880463796
20
0.67579545491853954
42
-0.22544948219298611
10
-4.3745395231264865
20
0.61687245063112617
10
-4.5799585012272033
20
0.44945364789642689
42
-0.35589151571367689
10
-4.6760043381069254
20
0.4494536478964265
10
-4.8814233162076386
20
0.61687245063112661
42
-0.22544948219298061
10
-4.9094143512877464
20
0.67579545491853898
10
-4.9094143512877455
20
0.8329465091525291
42
-0.2254494821929918
10
-4.8814233162076377
20
0.89186951343994159
10
-4.6760043381069263
20
1.0592883161746418
42
-0.3558915157136962
10
-4.5799585012272033
20
1.0592883161746418
10
-4.3745395231264892
20
0.89186951343994325
42
-0.22544948219300159
0
LWPOLYLINE
5
322
100
AcDbEntity
8
0
100
AcDbPolyline
90
12
70
1
43
0.0
10
-4.342454934752241
20
2.1082087541565189
10
-4.5738790187434279
20
1.9195954944469744
42
-0.35589151571368399
10
-4.6820838205906998
20
1.9195954944469771
10
-4.913507904581885
20
2.1082087541565184
42
-0.22544948219297981
10
-4.9450424770603991
20
2.1745911420902071
10
-4.9450424770603991
20
2.3516368031611088
42
-0.22544948219300057
10
-4.913507904581885
20
2.4180191910947966
10
-4.6820838205907025
20
2.6066324508043381
42
-0.35589151571369226
10
-4.5738790187434279
20
2.6066324508043399
10
-4.342454934752241
20
2.4180191910947975
42
-0.22544948219298735
10
-4.3109203622737278
20
2.3516368031611092
10
-4.3109203622737278
20
2.1745911420902062
42
-0.2254494821929981
0
LWPOLYLINE
5
323
100
AcDbEntity
8
0
100
AcDbPolyline
90
12
70
1
43
0.0
10
-7.3509515460833814
20
-0.41265470348533395
42
0.35589151571368099
10
-7.4585889968512236
20
-0.41265470348533689
10
-7.6887996531421843
20
-0.60027900582271032
42
0.22544948219298624
10
-7.7201688801514621
20
-0.6663133304652471
10
-7.7201688801514621
20
-0.84243068664392851
42
0.22544948219298724
10
-7.6887996531421843
20
-0.9084650112864654
10
-7.4585889968512227
20
-1.0960893136238408
42
0.35589151571368138
10
-7.3509515460833796
20
-1.0960893136238428
10
-7.1207408897924109
20
-0.90846501128646606
42
0.22544948219298322
10
-7.089371662783134
20
-0.84243068664392773
10
-7.0893716627831314
20
-0.66631333046524732
42
0.22544948219296659
10
-7.1207408897924083
20
-0.60027900582270943
0
LWPOLYLINE
5
324
100
AcDbEntity
8
0
100
AcDbPolyline
90
12
70
1
43
0.0
10
-3.861021523405995
20
-3.1825018099646369
10
-4.1075498109437492
20
-3.3834251672971356
42
-0.35589151571367816
10
-4.222816744456968
20
-3.3834251672971356
10
-4.4693450319947248
20
-3.1825018099646365
42
-0.22544948219299099
10
-4.5029377506836719
20
-3.1117868863589226
10
-4.5029377506836727
20
-2.9231861025206158
42
-0.22544948219298552
10
-4.4693450319947248
20
-2.8524711789149011
10
-4.2228167444569689
20
-2.6515478215824042
42
-0.35589151571369454
10
-4.1075498109437483
20
-2.6515478215824042
10
-3.861021523405995
20
-2.8524711789149024
42
-0.22544948219299307
10
-3.8274288047170466
20
-2.9231861025206154
10
-3.8274288047170488
20
-3.1117868863589226
42
-0.22544948219299343
0
LWPOLYLINE
5
325
100
AcDbEntity
8
0
100
AcDbPolyline
90
12
70
1
43
0.0
10
2.570177068409194
20
0.69668537397593244
10
2.5701770684091936
20
0.81205659009512399
42
-0.22544948219298364
10
2.5907264676694663
20
0.85531445238037018
10
2.7415332022024339
20
0.97822365567443104
42
-0.35589151571367589
10
2.8120445013980486
20
0.97822365567443037
10
2.9628512359310144
20
0.85531445238036907
42
-0.22544948219298691
10
2.9834006351912863
20
0.81205659009512265
10
2.9834006351912863
20
0.69668537397593067
42
-0.22544948219299343
10
2.962851235931014
20
0.65342751169068514
10
2.8120445013980477
20
0.53051830839662473
42
-0.355891515713677
10
2.7415332022024335
20
0.53051830839662451
10
2.5907264676694677
20
0.65342751169068503
42
-0.22544948219300651
0
LWPOLYLINE
5
326
100
AcDbEntity
8
0
100
AcDbPolyline
90
12
70
1
43
0.0
10
-6.5378866949924221
20
1.8903227550164325
42
0.35589151571366706
10
-6.4204612800753615
20
1.8903227550164332
10
-6.1693165192095476
20
2.0950085905999036
42
0.22544948219300379
10
-6.1350947453667537
20
2.1670477174521579
10
-6.1350947453667528
20
2.3591802277991598
42
0.22544948219298741
10
-6.1693165192095467
20
2.431219354651414
10
-6.4204612800753615
20
2.6359051902348836
42
0.3558915157136916
10
-6.537886694992423
20
2.635905190234884
10
-6.7890314558582388
20
2.4312193546514154
42
0.22544948219298247
10
-6.8232532297010327
20
2.3591802277991607
10
-6.8232532297010318
20
2.167047717452157
42
0.2254494821929893
10
-6.7890314558582379
20
2.0950085905999036
0
LWPOLYLINE
5
327
100
AcDbEntity
8
0
100
AcDbPolyline
90
12
70
1
43
0.0
10
-8.0249751610481717
20
0.83963566534767642
10
-8.0249751610481717
20
0.66910629872339178
42
-0.22544948219299063
10
-8.0553490806291492
20
0.60516716290460637
10
-8.2782554327301323
20
0.42349595153089975
42
-0.35589151571369421
10
-8.382477678071302
20
0.42349595153089725
10
-8.6053840301722868
20
0.60516716290460504
42
-0.22544948219298214
10
-8.6357579497532626
20
0.66910629872339211
10
-8.6357579497532626
20
0.83963566534767642
42
-0.2254494821929848
10
-8.6053840301722868
20
0.9035748011664626
10
-8.3824776780713037
20
1.0852460125401717
42
-0.35589151571370542
10
-8.2782554327301305
20
1.0852460125401715
10
-8.0553490806291475
20
0.90357480116646394
42
-0.22544948219302821
0
LWPOLYLINE
5
328
100
AcDbEntity
8
0
100
AcDbPolyline
90
12
70
1
43
0.0
10
-4.7845136539533275
20
-1.4232346581172994
42
0.22544948219299787
10
-4.8149745517464781
20
-1.3591124273342081
10
-5.0385192144855182
20
-1.1769209855329896
42
0.35589151571369099
10
-5.1430399087820291
20
-1.1769209855329898
10
-5.3665845715210692
20
-1.3591124273342083
42
0.22544948219299038
10
-5.3970454693142198
20
-1.4232346581172985
10
-5.3970454693142198
20
-1.5942523495819971
42
0.2254494821929906
10
-5.3665845715210692
20
-1.6583745803650878
10
-5.1430399087820282
20
-1.840566022166306
42
0.35589151571367778
10
-5.0385192144855182
20
-1.840566022166306
10
-4.8149745517464808
20
-1.658374580365088
42
0.22544948219300648
10
-4.7845136539533284
20
-1.5942523495819971
0
LWPOLYLINE
5
329
100
AcDbEntity
8
0
100
AcDbPolyline
90
12
70
1
43
0.0
10
-5.1514132852277417
20
2.6324969258279927
42
0.35589151571367078
10
-5.0301458380398065
20
2.6324969258279918
10
-4.7707838928737374
20
2.8438798600443094
42
0.22544948219299732
10
-4.7354424196918918
20
2.9182760290269014
10
-4.7354424196918909
20
3.116694906814534
42
0.22544948219299329
10
-4.7707838928737374
20
3.1910910757971269
10
-5.0301458380398065
20
3.4024740100134423
42
0.35589151571370697
10
-5.1514132852277417
20
3.4024740100134432
10
-5.4107752303938135
20
3.1910910757971269
42
0.22544948219299488
10
-5.4461167035756599
20
3.1166949068145344
10
-5.4461167035756581
20
2.9182760290269019
42
0.22544948219302055
10
-5.4107752303938126
20
2.8438798600443094
0
LWPOLYLINE
5
330
100
AcDbEntity
8
0
100
AcDbPolyline
90
12
70
1
43
0.0
10
-9.9278963089529242
20
-0.68354984417612874
10
-9.9278963089529224
20
-0.82519417293304675
42
-0.22544948219300337
10
-9.9531253562186848
20
-0.87830300781368809
10
-10.138274819000431
20
-1.0292019251021121
42
-0.35589151571369826
10
-10.224843427534671
20
-1.0292019251021114
10
-10.409992890316401
20
-0.87830300781368575
42
-0.22544948219302227
10
-10.435221937582162
20
-0.82519417293304653
10
-10.435221937582167
20
-0.68354984417612874
42
-0.22544948219303146
10
-10.409992890316405
20
-0.6304410092954873
10
-10.224843427534671
20
-0.47954209200706416
42
-0.35589151571369615
10
-10.138274819000431
20
-0.47954209200706444
10
-9.9531253562186865
20
-0.63044100929548808
42
-0.22544948219299857
0
LWPOLYLINE
5
331
100
AcDbEntity
8
0
100
AcDbPolyline
90
12
70
1
43
0.0
10
-0.5863669111293196
20
1.5757816074792665
10
-0.48621231698752732
20
1.6574087404473692
42
-0.35589151571367439
10
-0.43938396694588144
20
1.6574087404473694
10
-0.33922937280408849
20
1.5757816074792665
42
-0.22544948219299601
10
-0.3255819932679952
20
1.5470529591596962
10
-0.32558199326799542
20
1.4704319955014942
42
-0.2254494821929951
10
-0.3392293728040886
20
1.4417033471819238
10
-0.43938396694588133
20
1.360076214213821
42
-0.35589151571367728
10
-0.48621231698752715
20
1.3600762142138207
10
-0.58636691112931971
20
1.4417033471819232
42
-0.22544948219300265
10
-0.60001429066541312
20
1.4704319955014939
10
-0.6000142906654129
20
1.5470529591596962
42
-0.22544948219299332
0
LWPOLYLINE
5
332
100
AcDbEntity
8
0
100
AcDbPolyline
90
12
70
1
43
0.0
10
1.5546354064026997
20
1.5551566357455753
42
0.22544948219299446
10
1.5381012464157977
20
1.5899621503329702
10
1.4167613160222714
20
1.6888555732202932
42
0.35589151571368605
10
1.360027535777977
20
1.6888555732202934
10
1.238687605384452
20
1.5899621503329704
42
0.22544948219298822
10
1.2221534453975504
20
1.5551566357455757
10
1.2221534453975496
20
1.4623283189156093
42
0.22544948219299932
10
1.2386876053844507
20
1.4275228043282149
10
1.3600275357779765
20
1.3286293814408894
42
0.35589151571367478
10
1.4167613160222712
20
1.3286293814408892
10
1.5381012464157977
20
1.4275228043282138
42
0.22544948219300048
10
1.5546354064026993
20
1.4623283189156087
0
LWPOLYLINE
5
333
100
AcDbEntity
8
0
100
AcDbPolyline
90
12
70
1
43
0.0
10
2.2639998992275361
20
-3.3348987883327377
42
0.355891515713676
10
2.3639815204395132
20
-3.3348987883327381
10
2.5778181959836797
20
-3.1606194664736837
42
0.22544948219298558
10
2.6069562529534487
20
-3.0992819042562463
10
2.60695625295345
20
-2.9356910846233055
42
0.22544948219300232
10
2.5778181959836797
20
-2.8743535224058663
10
2.3639815204395145
20
-2.7000742005468115
42
0.35589151571368499
10
2.2639998992275374
20
-2.7000742005468115
10
2.0501632236833727
20
-2.8743535224058658
42
0.22544948219300243
10
2.0210251667136041
20
-2.9356910846233024
10
2.0210251667136037
20
-3.0992819042562454
42
0.22544948219299332
10
2.0501632236833718
20
-3.160619466473682
0
LWPOLYLINE
5
334
100
AcDbEntity
8
0
100
AcDbPolyline
90
12
70
1
43
0.0
10
3.0385931225041918
20
-2.1900197559776151
10
3.03859312250419
20
-2.3362102423118158
42
-0.22544948219299424
10
3.012554334210312
20
-2.3910236363105821
10
2.8214623911292014
20
-2.5467657426080899
42
-0.35589151571367922
10
2.7321153124712643
20
-2.546765742608089
10
2.5410233693901549
20
-2.3910236363105817
42
-0.22544948219299343
10
2.5149845810962757
20
-2.336210242311815
10
2.5149845810962757
20
-2.1900197559776138
42
-0.22544948219300709
10
2.5410233693901532
20
-2.1352063619788479
10
2.7321153124712669
20
-1.9794642556813407
42
-0.35589151571367694
10
2.8214623911292041
20
-1.9794642556813407
10
3.0125543342103143
20
-2.1352063619788488
42
-0.22544948219299424
0
LWPOLYLINE
5
335
100
AcDbEntity
8
0
100
AcDbPolyline
90
12
70
1
43
0.0
10
3.5240026564026805
20
2.8631828981616367
10
3.2934789128072124
20
2.6753034261113409
42
-0.35589151571367328
10
3.1856950747266946
20
2.6753034261113426
10
2.95517133113123
20
2.8631828981616385
42
-0.22544948219299915
10
2.9237594418625825
20
2.9293070297185899
10
2.923759441862583
20
3.1056639061228317
42
-0.22544948219299754
10
2.9551713311312309
20
3.1717880376797827
10
3.1856950747266968
20
3.3596675097300777
42
-0.3558915157136745
10
3.2934789128072137
20
3.3596675097300777
10
3.5240026564026814
20
3.1717880376797809
42
-0.22544948219299446
10
3.5554145456713289
20
3.1056639061228286
10
3.555414545671328
20
2.9293070297185886
42
-0.22544948219299657
0
LWPOLYLINE
5
336
100
AcDbEntity
8
0
100
AcDbPolyline
90
12
70
1
43
0.0
10
2.8214623822498472
20
2.5467646597102678
10
3.012554287349297
20
2.3910225843682449
42
-0.22544948219299715
10
3.0385930704676745
20
2.3362092012642539
10
3.0385930704676753
20
2.1900187439870469
42
-0.2254494821930127
10
3.0125542873492965
20
2.135205360883055
10
2.8214623822498472
20
1.9794632855410346
42
-0.35589151571367872
10
2.7321153213506411
20
1.979463285541035
10
2.5410234162511913
20
2.1352053608830568
42
-0.22544948219298994
10
2.514984633132813
20
2.1900187439870478
10
2.5149846331328138
20
2.3362092012642552
42
-0.2254494821929813
10
2.5410234162511913
20
2.3910225843682453
10
2.7321153213506424
20
2.5467646597102669
42
-0.355891515713669
0
LWPOLYLINE
5
337
100
AcDbEntity
8
0
100
AcDbPolyline
90
12
70
1
43
0.0
10
0.7184967075938643
20
-2.3209367980467599
42
0.22544948219299762
10
0.73909462224803424
20
-2.3642967884867683
10
0.89025739872828646
20
-2.4874961700160112
42
0.35589151571367955
10
0.96093516913852572
20
-2.4874961700160116
10
1.1120979456187794
20
-2.3642967884867692
42
0.2254494821929863
10
1.1326958602729496
20
-2.3209367980467617
10
1.1326958602729491
20
-2.20529320024266
42
0.22544948219298805
10
1.1120979456187794
20
-2.1619332098026516
10
0.96093516913852739
20
-2.0387338282734091
42
0.35589151571367517
10
0.8902573987282878
20
-2.0387338282734095
10
0.73909462224803513
20
-2.1619332098026511
42
0.22544948219299901
10
0.71849670759386441
20
-2.20529320024266
0
LWPOLYLINE
5
338
100
AcDbEntity
8
0
100
AcDbPolyline
90
12
70
1
43
0.0
10
-4.3745395119804096
20
-0.89187054600602
10
-4.57995849911521
20
-1.0592893561036036
42
-0.35589151571367367
10
-4.6760043402189169
20
-1.059289356103603
10
-4.8814233273537146
20
-0.89187054600602
42
-0.22544948219300232
10
-4.909414363664836
20
-0.83294753912724229
10
-4.9094143636648395
20
-0.67579647798193343
42
-0.22544948219300676
10
-4.8814233273537164
20
-0.61687347110315394
10
-4.6760043402189169
20
-0.44945466100557285
42
-0.35589151571367555
10
-4.57995849911521
20
-0.44945466100557196
10
-4.3745395119804078
20
-0.61687347110315582
42
-0.22544948219297933
10
-4.3465484756692874
20
-0.67579647798193343
10
-4.3465484756692883
20
-0.83294753912724206
42
-0.22544948219300975
0
LWPOLYLINE
5
339
100
AcDbEntity
8
0
100
AcDbPolyline
90
12
70
1
43
0.0
10
-5.1430399049198154
20
1.1769199835367259
10
-5.3665845511381614
20
1.3591114118733914
42
-0.22544948219301467
10
-5.3970454466801492
20
1.4232336379176351
10
-5.397045446680151
20
1.5942513167435552
42
-0.22544948219297922
10
-5.3665845511381622
20
1.6583735427877995
10
-5.1430399049198163
20
1.8405649711244649
42
-0.35589151571369521
10
-5.0385192183477328
20
1.8405649711244636
10
-4.8149745721293886
20
1.6583735427877997
42
-0.2254494821929974
10
-4.784513676587399
20
1.5942513167435552
10
-4.7845136765873999
20
1.4232336379176349
42
-0.22544948219299416
10
-4.8149745721293877
20
1.3591114118733907
10
-5.0385192183477328
20
1.1769199835367246
42
-0.35589151571367328
0
LWPOLYLINE
5
340
100
AcDbEntity
8
0
100
AcDbPolyline
90
4
70
1
43
0.0
10
9.9138105711038396
20
3.6978989734809389
10
-9.9138105711038289
20
3.6978989734809686
42
0.99999999999999989
10
-9.9138105711038325
20
-3.6978999999999842
10
9.9138105711038289
20
-3.6979000000000144
42
0.99999999999999989
0
LWPOLYLINE
5
341
100
AcDbEntity
8
0
100
AcDbPolyline
90
4
70
1
43
0.0
10
0.72500000000000009
20
0.72500000000000031
10
-0.72500000000000009
20
0.72500000000000009
10
-0.72500000000000009
20
-0.72500000000000009
10
0.72500000000000009
20
-0.72500000000000009
0
LINE
5
342
100
AcDbEntity
8
0
100
AcDbLine
10
0.72500000000000009
20
0.72500000000000031
30
0
11
-0.72500000000000009
21
-0.72500000000000009
31
0
0
LINE
5
343
100
AcDbEntity
8
0
100
AcDbLine
10
-0.72500000000000009
20
0.72500000000000009
30
0
11
0.72500000000000009
21
-0.72500000000000009
31
0
0
CIRCLE
5
344
100
AcDbEntity
8
0
100
AcDbCircle
10
10.64659469437138
20
3.2028923844218355
30
0
40
0.11000000000000119
210
0
220
0
230
1
0
CIRCLE
5
345
100
AcDbEntity
8
0
100
AcDbCircle
10
10.656610588681
20
-3.2012728321985251
30
0
40
0.10999999999999899
210
0
220
0
230
1
0
ENDSEC
0
SECTION
2
OBJECTS
0
DICTIONARY
5
C
100
AcDbDictionary
3
ACAD_GROUP
350
D
3
ACAD_MLINESTYLE
350
17
0
DICTIONARY
5
D
100
AcDbDictionary
0
DICTIONARY
5
1A
330
C
100
AcDbDictionary
0
DICTIONARY
5
17
100
AcDbDictionary
0
ENDSEC
0
EOF
