0
SECTION
2
HEADER
9
$INSUNITS
70
4
9
$ACADVER
1
AC1014
9
$HANDSEED
5
FFFF
0
ENDSEC
0
SECTION
2
TABLES
0
TABLE
2
VPORT
5
8
100
AcDbSymbolTable
0
ENDTAB
0
TABLE
2
LTYPE
5
5
100
AcDbSymbolTable
0
LTYPE
5
14
100
AcDbSymbolTableRecord
100
AcDbLinetypeTableRecord
2
BYBLOCK
70
0
0
LTYPE
5
15
100
AcDbSymbolTableRecord
100
AcDbLinetypeTableRecord
2
BYLAYER
70
0
0
ENDTAB
0
TABLE
2
LAYER
5
2
100
AcDbSymbolTable
70
2
0
LAYER
5
50
100
AcDbSymbolTableRecord
100
AcDbLayerTableRecord
2
0
70
0
6
CONTINUOUS
0
ENDTAB
0
TABLE
2
STYLE
5
3
100
AcDbSymbolTable
70
1
0
STYLE
5
11
100
AcDbSymbolTableRecord
100
AcDbTextStyleTableRecord
2
STANDARD
70
0
0
ENDTAB
0
TABLE
2
VIEW
5
6
100
AcDbSymbolTable
70
0
0
ENDTAB
0
TABLE
2
UCS
5
7
100
AcDbSymbolTable
70
0
0
ENDTAB
0
TABLE
2
APPID
5
9
100
AcDbSymbolTable
70
2
0
APPID
5
12
100
AcDbSymbolTableRecord
100
AcDbRegAppTableRecord
2
ACAD
70
0
0
ENDTAB
0
TABLE
2
DIMSTYLE
5
A
100
AcDbSymbolTable
70
1
0
ENDTAB
0
TABLE
2
BLOCK_RECORD
5
1
100
AcDbSymbolTable
70
1
0
BLOCK_RECORD
5
1F
100
AcDbSymbolTableRecord
100
AcDbBlockTableRecord
2
*MODEL_SPACE
0
BLOCK_RECORD
5
1B
100
AcDbSymbolTableRecord
100
AcDbBlockTableRecord
2
*PAPER_SPACE
0
ENDTAB
0
ENDSEC
0
SECTION
2
BLOCKS
0
BLOCK
5
20
100
AcDbEntity
100
AcDbBlockBegin
2
*MODEL_SPACE
0
ENDBLK
5
21
100
AcDbEntity
100
AcDbBlockEnd
0
BLOCK
5
1C
100
AcDbEntity
100
AcDbBlockBegin
2
*PAPER_SPACE
0
ENDBLK
5
1D
100
AcDbEntity
100
AcDbBlockEnd
0
ENDSEC
0
SECTION
2
ENTITIES
0
LWPOLYLINE
5
100
100
AcDbEntity
8
0
100
AcDbPolyline
90
12
70
1
43
0.0
10
-5.1401823237860107
20
0.3136790447597213
42
-0.35589151571367517
10
-5.0413767994815366
20
0.31367904475972125
10
-4.8300555127635292
20
0.14144979339357455
42
-0.22544948219299421
10
-4.8012602105748625
20
0.080833752955471391
10
-4.8012602105748634
20
-0.080832726436396274
42
-0.22544948219299776
10
-4.830055512763531
20
-0.14144876687449903
10
-5.0413767994815375
20
-0.31367801824064395
42
-0.35589151571368344
10
-5.1401823237860125
20
-0.31367801824064478
10
-5.351503610504019
20
-0.14144876687449798
42
-0.22544948219299926
10
-5.3802989126926875
20
-0.080832726436394803
10
-5.3802989126926857
20
0.080833752955472599
42
-0.22544948219299932
10
-5.351503610504019
20
0.1414497933935758
0
LWPOLYLINE
5
101
100
AcDbEntity
8
0
100
AcDbPolyline
90
12
70
1
43
0.0
10
-5.1430399087820264
20
1.176920985533003
10
-5.3665845715210656
20
1.3591124273342214
42
-0.22544948219299757
10
-5.3970454693142154
20
1.4232346581173119
10
-5.3970454693142154
20
1.5942523495820105
42
-0.2254494821929891
10
-5.3665845715210656
20
1.6583745803651004
10
-5.1430399087820238
20
1.8405660221663187
42
-0.35589151571367666
10
-5.0385192144855138
20
1.840566022166318
10
-4.8149745517464764
20
1.6583745803650998
42
-0.22544948219300592
10
-4.7845136539533248
20
1.5942523495820082
10
-4.7845136539533266
20
1.4232346581173108
42
-0.22544948219298896
10
-4.8149745517464746
20
1.3591124273342201
10
-5.0385192144855182
20
1.1769209855330012
42
-0.3558915157136896
0
LWPOLYLINE
5
102
100
AcDbEntity
8
0
100
AcDbPolyline
90
12
70
1
43
0.0
10
-5.1514132927132525
20
2.6324979048184134
10
-5.4107752698987754
20
2.8438808651309468
42
-0.225449482193011
10
-5.4461167474436927
20
2.918277043298096
10
-5.4461167474436927
20
3.1166959455814709
42
-0.22544948219299799
10
-5.4107752698987746
20
3.1910921237486183
10
-5.1514132927132517
20
3.4024750840611526
42
-0.35589151571368632
10
-5.0301458305542814
20
3.4024750840611517
10
-4.7707838533687603
20
3.1910921237486178
42
-0.22544948219298985
10
-4.7354423758238431
20
3.1166959455814691
10
-4.7354423758238449
20
2.9182770432980929
42
-0.22544948219299074
10
-4.7707838533687585
20
2.8438808651309437
10
-5.0301458305542814
20
2.6324979048184138
42
-0.35589151571370431
0
LWPOLYLINE
5
103
100
AcDbEntity
8
0
100
AcDbPolyline
90
12
70
1
43
0.0
10
-5.6106977352515166
20
-2.6257926340398656
10
-5.8550297940273408
20
-2.4266592281191262
42
-0.22544948219298877
10
-5.8883232476878664
20
-2.3565742774494658
10
-5.8883232476878691
20
-2.1696536678018203
42
-0.22544948219300184
10
-5.855029794027339
20
-2.09956871713216
10
-5.6106977352515122
20
-1.9004353112114227
42
-0.35589151571366134
10
-5.4964576719494564
20
-1.9004353112114232
10
-5.2521256131736296
20
-2.0995687171321622
42
-0.22544948219299982
10
-5.2188321595131013
20
-2.1696536678018221
10
-5.2188321595131013
20
-2.356574277449468
42
-0.22544948219300431
10
-5.2521256131736322
20
-2.426659228119127
10
-5.4964576719494564
20
-2.6257926340398665
42
-0.35589151571369232
0
LWPOLYLINE
5
104
100
AcDbEntity
8
0
100
AcDbPolyline
90
12
70
1
43
0.0
10
-5.6053465203182498
20
-1.0830725707339459
10
-5.8267886519738656
20
-0.90259471567117489
42
-0.22544948219298408
10
-5.8569630522785285
20
-0.83907558129713289
10
-5.8569630522785312
20
-0.66966638277390733
42
-0.22544948219298921
10
-5.8267886519738656
20
-0.60614724839986478
10
-5.605346520318248
20
-0.42566939333709558
42
-0.35589151571368866
10
-5.5018088868827153
20
-0.42566939333709558
10
-5.2803667552270994
20
-0.606147248399866
42
-0.22544948219299904
10
-5.2501923549224339
20
-0.66966638277390844
10
-5.2501923549224339
20
-0.83907558129713422
42
-0.22544948219299604
10
-5.2803667552270985
20
-0.90259471567117655
10
-5.5018088868827162
20
-1.0830725707339459
42
-0.35589151571368627
0
LWPOLYLINE
5
105
100
AcDbEntity
8
0
100
AcDbPolyline
90
12
70
1
43
0.0
10
-5.6053465221519652
20
0.42567040821312913
10
-5.8267886616513556
20
0.6061482696686662
42
-0.22544948219298513
10
-5.8569630630248382
20
0.66966740629263977
10
-5.8569630630248373
20
0.83907661081656415
42
-0.22544948219298491
10
-5.8267886616513564
20
0.90259574744053872
10
-5.6053465221519634
20
1.0830736088960744
42
-0.35589151571369121
10
-5.5018088850489901
20
1.0830736088960742
10
-5.2803667455495997
20
0.90259574744053717
42
-0.22544948219299762
10
-5.2501923441761171
20
0.8390766108165626
10
-5.2501923441761171
20
0.66966740629263866
42
-0.22544948219299796
10
-5.2803667455495997
20
0.60614826966866375
10
-5.5018088850489919
20
0.42567040821312879
42
-0.35589151571368272
0
LWPOLYLINE
5
106
100
AcDbEntity
8
0
100
AcDbPolyline
90
12
70
1
43
0.0
10
-5.6106977406766658
20
1.90043630328391
10
-5.8550298226587261
20
2.0995697281179941
42
-0.2254494821930039
10
-5.8883232794814075
20
2.1696546854442018
10
-5.8883232794814084
20
2.3565753128452434
42
-0.22544948219299982
10
-5.8550298226587234
20
2.4266602701714501
10
-5.6106977406766623
20
2.6257936950055338
42
-0.35589151571366223
10
-5.4964576665242824
20
2.6257936950055334
10
-5.2521255845422203
20
2.4266602701714488
42
-0.22544948219300293
10
-5.2188321277195389
20
2.3565753128452416
10
-5.218832127719538
20
2.1696546854441991
42
-0.2254494821930032
10
-5.2521255845422212
20
2.0995697281179933
10
-5.496457666524285
20
1.9004363032839089
42
-0.35589151571368777
0
LWPOLYLINE
5
107
100
AcDbEntity
8
0
100
AcDbPolyline
90
12
70
1
43
0.0
10
-6.0789480175212276
20
-3.4147820188875269
10
-6.346601713671248
20
-3.1966412133433364
42
-0.22544948219299621
10
-6.3830730468826458
20
-3.1198666132961232
10
-6.3830730468826449
20
-2.9151043225452784
42
-0.22544948219299502
10
-6.3466017136712471
20
-2.838329722498067
10
-6.0789480175212258
20
-2.6201889169538779
42
-0.35589151571367655
10
-5.9538036736131561
20
-2.6201889169538788
10
-5.686149977463133
20
-2.8383297224980657
42
-0.22544948219300245
10
-5.6496786442517362
20
-2.9151043225452811
10
-5.6496786442517362
20
-3.1198666132961259
42
-0.22544948219299715
10
-5.686149977463133
20
-3.1966412133433391
10
-5.9538036736131588
20
-3.4147820188875255
42
-0.35589151571370203
0
LWPOLYLINE
5
108
100
AcDbEntity
8
0
100
AcDbPolyline
90
12
70
1
43
0.0
10
-6.0712699351213972
20
-1.8572877134520249
10
-6.3060804828001196
20
-1.6659144473335599
42
-0.22544948219298036
10
-6.3380765054559802
20
-1.5985606758586612
10
-6.3380765054559793
20
-1.4189242788024976
42
-0.22544948219299593
10
-6.3060804828001196
20
-1.351570507327597
10
-6.0712699351213946
20
-1.1601972412091359
42
-0.35589151571366623
10
-5.961481756012982
20
-1.1601972412091359
10
-5.7266712083342606
20
-1.3515705073275992
42
-0.2254494821930022
10
-5.694675185678399
20
-1.4189242788024989
10
-5.6946751856783973
20
-1.5985606758586628
42
-0.22544948219300007
10
-5.7266712083342615
20
-1.6659144473335632
10
-5.9614817560129847
20
-1.8572877134520258
42
-0.35589151571367961
0
LWPOLYLINE
5
109
100
AcDbEntity
8
0
100
AcDbPolyline
90
12
70
1
43
0.0
10
-6.0686951880369255
20
-0.33219659070783503
10
-6.2924922044238754
20
-0.14979947781434544
42
-0.22544948219299751
10
-6.3229874887176152
20
-0.085604861143565705
10
-6.3229874887176161
20
0.085605887662648095
42
-0.2254494821929966
10
-6.2924922044238754
20
0.14980050433342729
10
-6.068695188036922
20
0.33219761722691593
42
-0.35589151571368899
10
-5.9640565030974493
20
0.33219761722691576
10
-5.7402594867104977
20
0.14980050433342582
42
-0.22544948219298944
10
-5.7097642024167623
20
0.085605887662646596
10
-5.7097642024167605
20
-0.085604861143566968
42
-0.22544948219299918
10
-5.7402594867104995
20
-0.14979947781434649
10
-5.9640565030974502
20
-0.33219659070783503
42
-0.35589151571369232
0
LWPOLYLINE
5
110
100
AcDbEntity
8
0
100
AcDbPolyline
90
12
70
1
43
0.0
10
-6.0712699386190394
20
1.1601982455202071
10
-6.3060805012590171
20
1.351571523832265
42
-0.22544948219300051
10
-6.3380765259535483
20
1.4189252995986985
10
-6.3380765259535474
20
1.5985617081006289
42
-0.22544948219298802
10
-6.3060805012590171
20
1.66591548386706
10
-6.0712699386190385
20
1.8572887621791181
42
-0.35589151571368349
10
-5.9614817525153265
20
1.857288762179117
10
-5.7266711898753497
20
1.66591548386706
42
-0.22544948219300506
10
-5.6946751651808185
20
1.5985617081006258
10
-5.6946751651808203
20
1.4189252995986965
42
-0.22544948219299757
10
-5.7266711898753488
20
1.3515715238322643
10
-5.9614817525153283
20
1.1601982455202078
42
-0.35589151571369182
0
LWPOLYLINE
5
111
100
AcDbEntity
8
0
100
AcDbPolyline
90
12
70
1
43
0.0
10
-6.078948024460308
20
2.6201898994138064
10
-6.3466017502924252
20
2.838330729149241
42
-0.22544948219300331
10
-6.383073087548401
20
2.91510533771056
10
-6.3830730875484001
20
3.1198676511690095
42
-0.22544948219299538
10
-6.3466017502924243
20
3.1966422597303263
10
-6.0789480244603045
20
3.4147830894657627
42
-0.35589151571367245
10
-5.9538036666740526
20
3.4147830894657618
10
-5.6861499408419327
20
3.1966422597303263
42
-0.22544948219299998
10
-5.6496786035859605
20
3.1198676511690082
10
-5.6496786035859605
20
2.9151053377105578
42
-0.22544948219299796
10
-5.6861499408419327
20
2.8383307291492406
10
-5.9538036666740553
20
2.6201898994138064
42
-0.35589151571369043
0
LWPOLYLINE
5
112
100
AcDbEntity
8
0
100
AcDbPolyline
90
12
70
1
43
0.0
10
-6.5378866949924301
20
-2.635905190234868
10
-6.789031455858245
20
-2.4312193546513998
42
-0.2254494821929954
10
-6.8232532297010371
20
-2.3591802277991434
10
-6.823253229701038
20
-2.167047717452141
42
-0.22544948219299668
10
-6.7890314558582432
20
-2.0950085905998872
10
-6.5378866949924275
20
-1.8903227550164177
42
-0.35589151571366839
10
-6.420461280075366
20
-1.890322755016417
10
-6.1693165192095512
20
-2.0950085905998876
42
-0.22544948219299957
10
-6.1350947453667581
20
-2.1670477174521432
10
-6.1350947453667573
20
-2.3591802277991447
42
-0.22544948219299552
10
-6.1693165192095512
20
-2.4312193546513989
10
-6.4204612800753686
20
-2.6359051902348685
42
-0.3558915157136881
0
LWPOLYLINE
5
113
100
AcDbEntity
8
0
100
AcDbPolyline
90
12
70
1
43
0.0
10
-6.5328784133190245
20
-1.09536255176653
10
-6.7626001508282023
20
-0.90813672379524368
42
-0.22544948219299243
10
-6.7939027562288086
20
-0.84224264210270894
10
-6.7939027562288112
20
-0.66649932196832673
42
-0.22544948219298935
10
-6.7626001508282023
20
-0.6006052402757921
10
-6.5328784133190201
20
-0.41337941230450692
42
-0.35589151571368688
10
-6.4254695617487645
20
-0.41337941230450681
10
-6.1957478242395858
20
-0.60060524027579387
42
-0.22544948219299346
10
-6.1644452188389787
20
-0.66649932196832817
10
-6.1644452188389778
20
-0.84224264210271049
42
-0.22544948219299649
10
-6.1957478242395876
20
-0.90813672379524435
10
-6.4254695617487663
20
-1.0953625517665304
42
-0.35589151571367128
0
LWPOLYLINE
5
114
100
AcDbEntity
8
0
100
AcDbPolyline
90
12
70
1
43
0.0
10
-6.5328784150243457
20
0.41338042799576813
10
-6.7626001598280938
20
0.60060626191221111
42
-0.22544948219299291
10
-6.7939027662226836
20
0.66650034569714234
10
-6.7939027662226836
20
0.84224367141206558
42
-0.22544948219299116
10
-6.7626001598280938
20
0.90813775519699602
10
-6.5328784150243457
20
1.0953635891134388
42
-0.35589151571368471
10
-6.4254695600434344
20
1.0953635891134401
10
-6.1957478152396872
20
0.90813775519699447
42
-0.22544948219299785
10
-6.1644452088450983
20
0.84224367141206413
10
-6.1644452088451009
20
0.66650034569714078
42
-0.22544948219298938
10
-6.1957478152396872
20
0.60060626191221034
10
-6.4254695600434388
20
0.41338042799576785
42
-0.35589151571366923
0
LWPOLYLINE
5
115
100
AcDbEntity
8
0
100
AcDbPolyline
90
12
70
1
43
0.0
10
-6.5378867000994507
20
1.890323749108852
10
-6.7890314828106888
20
2.0950096024965905
42
-0.22544948219301242
10
-6.82325325963021
20
2.167048735615055
10
-6.82325325963021
20
2.3591812626743955
42
-0.2254494821929964
10
-6.7890314828106879
20
2.431220395792856
10
-6.5378867000994489
20
2.6359062491805965
42
-0.35589151571367561
10
-6.4204612749683267
20
2.6359062491805956
10
-6.1693164922570878
20
2.4312203957928569
42
-0.22544948219300176
10
-6.1350947154375675
20
2.3591812626743929
10
-6.1350947154375657
20
2.1670487356150527
42
-0.22544948219299799
10
-6.1693164922570851
20
2.095009602496591
10
-6.4204612749683285
20
1.8903237491088523
42
-0.35589151571367722
0
LWPOLYLINE
5
116
100
AcDbEntity
8
0
100
AcDbPolyline
90
12
70
1
43
0.0
10
-7.0052606719570045
20
-3.4193305509412104
10
-7.2759786570198379
20
-3.1986923150925799
42
-0.22544948219299071
10
-7.3128675398619825
20
-3.121038745096159
10
-7.3128675398619798
20
-2.91393219074524
42
-0.2254494821929994
10
-7.2759786570198379
20
-2.8362786207488186
10
-7.005260671957001
20
-2.6156403849001886
42
-0.35589151571367261
10
-6.8786835870442147
20
-2.615640384900189
10
-6.6079656019813857
20
-2.8362786207488204
42
-0.22544948219298952
10
-6.5710767191392447
20
-2.9139321907452409
10
-6.5710767191392438
20
-3.1210387450961625
42
-0.22544948219299588
10
-6.6079656019813884
20
-3.1986923150925839
10
-6.8786835870442156
20
-3.4193305509412104
42
-0.35589151571368438
0
LWPOLYLINE
5
117
100
AcDbEntity
8
0
100
AcDbPolyline
90
12
70
1
43
0.0
10
-6.9978214584690068
20
-1.8633529228375121
10
-7.2367180615287765
20
-1.668649475125664
42
-0.22544948219298733
10
-7.2692708629232294
20
-1.6001236471009641
10
-7.2692708629232303
20
-1.4173613075601912
42
-0.22544948219299493
10
-7.2367180615287729
20
-1.3488354795354909
10
-6.9978214584690033
20
-1.1541320318236465
42
-0.35589151571369304
10
-6.8861228005322026
20
-1.154132031823647
10
-6.6472261974724418
20
-1.3488354795354924
42
-0.22544948219299715
10
-6.614673396077988
20
-1.4173613075601932
10
-6.614673396077988
20
-1.6001236471009663
42
-0.22544948219300287
10
-6.6472261974724445
20
-1.6686494751256653
10
-6.886122800532207
20
-1.8633529228375101
42
-0.35589151571368405
0
LWPOLYLINE
5
118
100
AcDbEntity
8
0
100
AcDbPolyline
90
12
70
1
43
0.0
10
-6.9953416707266651
20
-0.33886473615792745
10
-7.2236309329482218
20
-0.15280639183308065
42
-0.22544948219300381
10
-7.2547383447674072
20
-0.087323205707716511
10
-7.2547383447674108
20
0.087324232226803342
42
-0.22544948219300262
10
-7.2236309329482218
20
0.15280741835216721
10
-6.9953416707266616
20
0.33886576267701335
42
-0.35589151571369354
10
-6.8886025882745354
20
0.33886576267701263
10
-6.6603133260529868
20
0.15280741835216607
42
-0.22544948219299005
10
-6.6292059142338013
20
0.087324232226802398
10
-6.6292059142337987
20
-0.087323205707718635
42
-0.22544948219298816
10
-6.6603133260529868
20
-0.15280639183308281
10
-6.8886025882745381
20
-0.33886473615792745
42
-0.35589151571369004
0
LWPOLYLINE
5
119
100
AcDbEntity
8
0
100
AcDbPolyline
90
12
70
1
43
0.0
10
-6.9978214618433796
20
1.1541330369173979
10
-7.2367180793371269
20
1.3488364963931012
42
-0.22544948219299404
10
-7.2692708826984012
20
1.4173623285580883
10
-7.2692708826984012
20
1.6001246791412436
42
-0.22544948219299113
10
-7.2367180793371251
20
1.6686505113062289
10
-6.9978214618433761
20
1.8633539707819311
42
-0.3558915157136831
10
-6.8861227971578165
20
1.86335397078193
10
-6.647226179664079
20
1.6686505113062284
42
-0.22544948219300279
10
-6.6146733763028038
20
1.600124679141242
10
-6.6146733763028029
20
1.4173623285580854
42
-0.22544948219299907
10
-6.6472261796640764
20
1.348836496393101
10
-6.8861227971578209
20
1.1541330369173999
42
-0.35589151571367739
0
LWPOLYLINE
5
120
100
AcDbEntity
8
0
100
AcDbPolyline
90
12
70
1
43
0.0
10
-7.0052606787055618
20
2.6156413685697997
10
-7.275978692635551
20
2.8362796279454865
42
-0.22544948219301206
10
-7.3128675794112228
20
2.9139332062222523
10
-7.3128675794112237
20
3.1210397826573226
42
-0.22544948219299785
10
-7.2759786926355492
20
3.1986933609340857
10
-7.0052606787055609
20
3.4193316203097739
42
-0.35589151571367583
10
-6.8786835802956245
20
3.4193316203097734
10
-6.6079655663656442
20
3.1986933609340844
42
-0.22544948219300506
10
-6.5710766795899733
20
3.1210397826573217
10
-6.5710766795899733
20
2.9139332062222492
42
-0.22544948219298735
10
-6.6079655663656434
20
2.8362796279454865
10
-6.8786835802956272
20
2.6156413685697992
42
-0.35589151571368716
0
LWPOLYLINE
5
121
100
AcDbEntity
8
0
100
AcDbPolyline
90
12
70
1
43
0.0
10
-7.4635776793308528
20
-2.6365064822007938
10
-7.7151275230415903
20
-2.4314904994929774
42
-0.22544948219299746
10
-7.749404494745006
20
-2.359335177445764
10
-7.7494044947450069
20
-2.1668927678055145
42
-0.22544948219299893
10
-7.7151275230415903
20
-2.0947374457583012
10
-7.4635776793308501
20
-1.8897214630504855
42
-0.355891515713671
10
-7.3459628636037628
20
-1.8897214630504844
10
-7.094413019893012
20
-2.094737445758303
42
-0.22544948219299085
10
-7.0601360481895981
20
-2.1668927678055159
10
-7.0601360481895963
20
-2.3593351774457645
42
-0.22544948219299257
10
-7.0944130198930129
20
-2.4314904994929782
10
-7.3459628636037646
20
-2.6365064822007946
42
-0.35589151571367139
0
LWPOLYLINE
5
122
100
AcDbEntity
8
0
100
AcDbPolyline
90
12
70
1
43
0.0
10
-7.4585889951531872
20
-1.0960882763232269
10
-7.6887996441807598
20
-0.90846397990559768
42
-0.22544948219300096
10
-7.7201688702003066
20
-0.84242965734651243
10
-7.7201688702003057
20
-0.66631230672451869
42
-0.22544948219299935
10
-7.6887996441807598
20
-0.60027798416543443
10
-7.4585889951531854
20
-0.41265368774780403
42
-0.35589151571367927
10
-7.3509515477814187
20
-0.41265368774780237
10
-7.1207408987538372
20
-0.60027798416543576
42
-0.22544948219298699
10
-7.0893716727342939
20
-0.66631230672452069
10
-7.0893716727342913
20
-0.84242965734651343
42
-0.22544948219299113
10
-7.1207408987538381
20
-0.90846397990559913
10
-7.3509515477814213
20
-1.0960882763232291
42
-0.35589151571367178
0
LWPOLYLINE
5
123
100
AcDbEntity
8
0
100
AcDbPolyline
90
12
70
1
43
0.0
10
-7.4585889968512227
20
0.41265470348535438
10
-7.6887996531421834
20
0.60027900582272919
42
-0.22544948219299527
10
-7.7201688801514612
20
0.66631333046526575
10
-7.7201688801514603
20
0.84243068664394705
42
-0.22544948219299432
10
-7.6887996531421834
20
0.9084650112864836
10
-7.4585889968512218
20
1.0960893136238585
42
-0.35589151571368521
10
-7.3509515460833761
20
1.0960893136238601
10
-7.1207408897924083
20
0.90846501128648238
42
-0.22544948219299443
10
-7.0893716627831305
20
0.84243068664394472
10
-7.0893716627831296
20
0.66631333046526475
42
-0.22544948219298538
10
-7.1207408897924074
20
0.60027900582272675
10
-7.3509515460833796
20
0.41265470348535238
42
-0.3558915157136856
0
LWPOLYLINE
5
124
100
AcDbEntity
8
0
100
AcDbPolyline
90
12
70
1
43
0.0
10
-7.4635776844195778
20
1.8897224572590794
10
-7.7151275498974892
20
2.0947384577073898
42
-0.22544948219299016
10
-7.7494045245669732
20
2.166893785998365
10
-7.7494045245669714
20
2.3593362122910881
42
-0.22544948219300018
10
-7.7151275498974883
20
2.431491540582063
10
-7.463577684419576
20
2.6365075410303729
42
-0.3558915157136876
10
-7.3459628585150147
20
2.6365075410303724
10
-7.0944129930370945
20
2.4314915405820607
42
-0.22544948219299193
10
-7.060136018367615
20
2.3593362122910859
10
-7.0601360183676123
20
2.1668937859983641
42
-0.22544948219300226
10
-7.0944129930370936
20
2.0947384577073893
10
-7.3459628585150192
20
1.8897224572590785
42
-0.35589151571367444
0
LWPOLYLINE
5
125
100
AcDbEntity
8
0
100
AcDbPolyline
90
12
70
1
43
0.0
10
-7.9302994003299094
20
-3.4157904005158017
10
-8.1986324305171472
20
-3.19709593000736
42
-0.22544948219299277
10
-8.2351963319179244
20
-3.1201264677192881
10
-8.2351963319179227
20
-2.9148444681221046
42
-0.22544948219300057
10
-8.1986324305171472
20
-2.8378750058340336
10
-7.9302994003299068
20
-2.6191805353255919
42
-0.35589151571366684
10
-7.8048374265381337
20
-2.6191805353255933
10
-7.5365043963508995
20
-2.8378750058340358
42
-0.2254494821929996
10
-7.4999404949501214
20
-2.9148444681221064
10
-7.499940494950124
20
-3.1201264677192904
42
-0.22544948219300229
10
-7.5365043963509004
20
-3.1970959300073614
10
-7.8048374265381355
20
-3.4157904005158022
42
-0.35589151571369215
0
LWPOLYLINE
5
126
100
AcDbEntity
8
0
100
AcDbPolyline
90
12
70
1
43
0.0
10
-7.922675059907144
20
-1.8586373250786135
10
-8.1583948239869297
20
-1.6665230372556334
42
-0.22544948219299149
10
-8.1905147393250175
20
-1.5989084633836335
10
-8.1905147393250228
20
-1.4185764912775176
42
-0.22544948219299865
10
-8.1583948239869279
20
-1.3509619174055194
10
-7.9226750599071387
20
-1.1588476295825383
42
-0.35589151571367622
10
-7.8124617669608902
20
-1.158847629582539
10
-7.5767420028811072
20
-1.3509619174055201
42
-0.22544948219299879
10
-7.544622087543015
20
-1.4185764912775181
10
-7.5446220875430168
20
-1.5989084633836352
42
-0.22544948219299785
10
-7.5767420028811072
20
-1.6665230372556334
10
-7.812461766960892
20
-1.8586373250786139
42
-0.35589151571368594
0
LWPOLYLINE
5
127
100
AcDbEntity
8
0
100
AcDbPolyline
90
12
70
1
43
0.0
10
-7.9201217718552286
20
-0.33368245459092361
10
-8.144919796077053
20
-0.1504695089307041
42
-0.22544948219298847
10
-8.1755514808420653
20
-0.085987760128847499
10
-8.1755514808420653
20
0.085988786647938797
42
-0.22544948219300229
10
-8.144919796077053
20
0.15047053544979591
10
-7.9201217718552268
20
0.33368348111001361
42
-0.35589151571367955
10
-7.8150150550127959
20
0.33368348111001322
10
-7.5902170307909733
20
0.15047053544979452
42
-0.22544948219299646
10
-7.5595853460259637
20
0.085988786647937507
10
-7.5595853460259619
20
-0.085987760128849067
42
-0.22544948219299746
10
-7.5902170307909733
20
-0.15046950893070651
10
-7.8150150550127986
20
-0.33368245459092366
42
-0.35589151571368699
0
LWPOLYLINE
5
128
100
AcDbEntity
8
0
100
AcDbPolyline
90
12
70
1
43
0.0
10
-7.922675063376964
20
1.1588486340702528
10
-8.1583948422990122
20
1.3509629339898486
42
-0.22544948219298214
10
-8.1905147596595551
20
1.4185775121192443
10
-8.1905147596595533
20
1.5989094955800911
42
-0.22544948219298003
10
-8.158394842299014
20
1.6665240737094891
10
-7.9226750633769614
20
1.8586383736290819
42
-0.35589151571368716
10
-7.8124617634910498
20
1.8586383736290832
10
-7.5767419845690078
20
1.6665240737094866
42
-0.22544948219300451
10
-7.5446220672084641
20
1.59890949558009
10
-7.5446220672084641
20
1.4185775121192423
42
-0.22544948219300975
10
-7.5767419845690096
20
1.3509629339898459
10
-7.8124617634910543
20
1.1588486340702526
42
-0.35589151571369942
0
LWPOLYLINE
5
129
100
AcDbEntity
8
0
100
AcDbPolyline
90
12
70
1
43
0.0
10
-7.9302994072262445
20
2.619181518056906
10
-8.198632466912759
20
2.8378760126075928
42
-0.22544948219300071
10
-8.2351963723331991
20
2.9148454833573263
10
-8.2351963723331973
20
3.1201275055222504
42
-0.2254494821929876
10
-8.198632466912759
20
3.197096976271983
10
-7.9302994072262418
20
3.4157914708226702
42
-0.35589151571368893
10
-7.8048374196417676
20
3.4157914708226689
10
-7.5365043599552592
20
3.1970969762719821
42
-0.22544948219299935
10
-7.4999404545348192
20
3.120127505522249
10
-7.4999404545348201
20
2.9148454833573236
42
-0.2254494821930022
10
-7.5365043599552584
20
2.8378760126075919
10
-7.8048374196417694
20
2.619181518056906
42
-0.35589151571369337
0
LWPOLYLINE
5
130
100
AcDbEntity
8
0
100
AcDbPolyline
90
12
70
1
43
0.0
10
-8.3877666889737252
20
-2.6275711167749733
10
-8.633296889229598
20
-2.4274612119253116
42
-0.22544948219299304
10
-8.6667536054109924
20
-2.3570325827103749
10
-8.6667536054109924
20
-2.1691953625408988
42
-0.22544948219300479
10
-8.633296889229598
20
-2.098766733325963
10
-8.387766688973727
20
-1.8986568284762999
42
-0.35589151571369981
10
-8.2729664218277215
20
-1.8986568284763015
10
-8.0274362215718469
20
-2.0987667333259648
42
-0.22544948219299968
10
-7.9939795053904525
20
-2.1691953625409011
10
-7.9939795053904543
20
-2.3570325827103771
42
-0.22544948219298905
10
-8.0274362215718487
20
-2.4274612119253129
10
-8.2729664218277179
20
-2.6275711167749751
42
-0.35589151571371214
0
LWPOLYLINE
5
131
100
AcDbEntity
8
0
100
AcDbPolyline
90
12
70
1
43
0.0
10
-8.3824776780713073
20
-1.0852460125401509
10
-8.6053840301722868
20
-0.90357480116644262
42
-0.22544948219299457
10
-8.6357579497532644
20
-0.83963566534765555
10
-8.6357579497532626
20
-0.66910629872337102
42
-0.22544948219297867
10
-8.6053840301722868
20
-0.60516716290458472
10
-8.3824776780713055
20
-0.42349595153087644
42
-0.35589151571369554
10
-8.2782554327301341
20
-0.42349595153087982
10
-8.055349080629151
20
-0.60516716290458616
42
-0.22544948219300051
10
-8.0249751610481734
20
-0.66910629872337257
10
-8.0249751610481752
20
-0.8396356653476571
42
-0.22544948219299896
10
-8.055349080629151
20
-0.90357480116644295
10
-8.2782554327301323
20
-1.085246012540152
42
-0.35589151571370231
0
LWPOLYLINE
5
132
100
AcDbEntity
8
0
100
AcDbPolyline
90
12
70
1
43
0.0
10
-8.3824776798816156
20
0.4234969665555558
10
-8.6053840397262391
20
0.60516818424042185
42
-0.2254494821929941
10
-8.6357579603623886
20
0.6691073222804188
10
-8.6357579603623886
20
0.8396366948287981
42
-0.22544948219299682
10
-8.6053840397262391
20
0.90357583286879384
10
-8.3824776798816139
20
1.08524705055366
42
-0.35589151571370986
10
-8.2782554309198186
20
1.08524705055366
10
-8.0553490710751969
20
0.90357583286879251
42
-0.22544948219300473
10
-8.0249751504390439
20
0.83963669482879655
10
-8.0249751504390439
20
0.66910732228041758
42
-0.22544948219299935
10
-8.0553490710751934
20
0.60516818424042107
10
-8.2782554309198169
20
0.42349696655555608
42
-0.3558915157136881
0
LWPOLYLINE
5
133
100
AcDbEntity
8
0
100
AcDbPolyline
90
12
70
1
43
0.0
10
-8.3877666943414564
20
1.8986578209134053
10
-8.6332969175579315
20
2.0987677444762234
42
-0.22544948219301253
10
-8.6667536368680125
20
2.16919638027725
10
-8.6667536368680107
20
2.3570336180122085
42
-0.22544948219299904
10
-8.6332969175579297
20
2.4274622538132329
10
-8.3877666943414528
20
2.6275721773760519
42
-0.35589151571371441
10
-8.272966416459969
20
2.6275721773760519
10
-8.0274361932434974
20
2.4274622538132324
42
-0.22544948219299921
10
-7.9939794739334147
20
2.3570336180122071
10
-7.9939794739334156
20
2.1691963802772483
42
-0.22544948219300731
10
-8.0274361932434957
20
2.0987677444762216
10
-8.2729664164599708
20
1.8986578209134048
42
-0.3558915157136921
0
LWPOLYLINE
5
134
100
AcDbEntity
8
0
100
AcDbPolyline
90
12
70
1
43
0.0
10
-8.8541042402464374
20
-3.4044157829033432
10
-9.1147743334188416
20
-3.191966693188419
42
-0.22544948219301181
10
-9.1502940589563053
20
-3.1171952910540561
10
-9.1502940589563071
20
-2.9177756447873335
42
-0.22544948219301936
10
-9.1147743334188362
20
-2.8430042426529716
10
-8.8541042402464356
20
-2.6305551529380478
42
-0.35589151571370126
10
-8.7322251544884253
20
-2.6305551529380482
10
-8.4715550613160175
20
-2.8430042426529747
42
-0.2254494821929966
10
-8.4360353357785538
20
-2.9177756447873349
10
-8.4360353357785538
20
-3.1171952910540579
42
-0.22544948219300506
10
-8.4715550613160175
20
-3.191966693188419
10
-8.7322251544884271
20
-3.4044157829033432
42
-0.3558915157137002
0
LWPOLYLINE
5
135
100
AcDbEntity
8
0
100
AcDbPolyline
90
12
70
1
43
0.0
10
-8.8458456781583283
20
-1.8432357722916142
10
-9.0711896095764466
20
-1.6595779060595355
42
-0.22544948219299699
10
-9.1018956813704612
20
-1.5949395675775759
10
-9.1018956813704612
20
-1.4225453870835694
42
-0.22544948219299624
10
-9.0711896095764466
20
-1.35790704860161
10
-8.8458456781583283
20
-1.17424918236953
42
-0.35589151571369826
10
-8.7404837165765255
20
-1.17424918236953
10
-8.5151397851584107
20
-1.3579070486016109
42
-0.22544948219300029
10
-8.4844337133643926
20
-1.4225453870835711
10
-8.4844337133643926
20
-1.5949395675775777
42
-0.22544948219300073
10
-8.5151397851584107
20
-1.6595779060595384
10
-8.7404837165765272
20
-1.8432357722916182
42
-0.35589151571369071
0
LWPOLYLINE
5
136
100
AcDbEntity
8
0
100
AcDbPolyline
90
12
70
1
43
0.0
10
-8.8430354914226186
20
-0.31664974600682116
10
-9.0563587938103698
20
-0.14278882910721938
42
-0.22544948219299776
10
-9.0854268969415841
20
-0.081598524406958903
10
-9.0854268969415823
20
0.081599550926054587
42
-0.2254494821930072
10
-9.056358793810368
20
0.14278985562631263
10
-8.8430354914226186
20
0.31665077252591567
42
-0.35589151571371092
10
-8.7432939033122317
20
0.31665077252591523
10
-8.5299706009244822
20
0.14278985562631208
42
-0.22544948219299776
10
-8.5009024977932697
20
0.081599550926053213
10
-8.5009024977932697
20
-0.081598524406960277
42
-0.22544948219301555
10
-8.5299706009244858
20
-0.14278882910721891
10
-8.7432939033122317
20
-0.31664974600682155
42
-0.35589151571368888
0
LWPOLYLINE
5
137
100
AcDbEntity
8
0
100
AcDbPolyline
90
12
70
1
43
0.0
10
-8.8458456819597213
20
1.1742501847519657
10
-9.0711896296384023
20
1.3579080642365922
42
-0.22544948219300373
10
-9.1018957036481325
20
1.4225464073827809
10
-9.1018957036481325
20
1.5949406003165578
42
-0.22544948219299266
10
-9.071189629638404
20
1.659578943462747
10
-8.8458456819597213
20
1.8432368229473717
42
-0.35589151571369559
10
-8.7404837127751165
20
1.8432368229473719
10
-8.5151397650964356
20
1.6595789434627461
42
-0.22544948219300098
10
-8.4844336910867053
20
1.5949406003165558
10
-8.4844336910867035
20
1.4225464073827796
42
-0.22544948219301347
10
-8.5151397650964373
20
1.3579080642365902
10
-8.7404837127751183
20
1.1742501847519653
42
-0.35589151571368566
0
LWPOLYLINE
5
138
100
AcDbEntity
8
0
100
AcDbPolyline
90
12
70
1
43
0.0
10
-8.8541042476425478
20
2.6305561324960798
10
-9.1147743724520307
20
2.8430052479955821
42
-0.22544948219302521
10
-9.1502941023004709
20
2.9177766592048222
10
-9.1502941023004656
20
3.1171963296747602
42
-0.2254494821930067
10
-9.1147743724520289
20
3.1919677408839977
10
-8.854104247642546
20
3.4044168563835022
42
-0.35589151571373417
10
-8.7322251470922829
20
3.4044168563835004
10
-8.4715550222828
20
3.1919677408839977
42
-0.2254494821930032
10
-8.4360352924343669
20
3.1171963296747589
10
-8.4360352924343687
20
2.9177766592048195
42
-0.2254494821930029
10
-8.4715550222828
20
2.843005247995583
10
-8.7322251470922847
20
2.6305561324960793
42
-0.35589151571369476
0
LWPOLYLINE
5
139
100
AcDbEntity
8
0
100
AcDbPolyline
90
12
70
1
43
0.0
10
-9.3105170724644832
20
-2.6095013200114159
10
-9.5438738776061065
20
-2.4193128705895175
42
-0.22544948219300245
10
-9.5756718087383472
20
-2.3523760950442907
10
-9.5756718087383454
20
-2.1738518502069795
42
-0.22544948219300404
10
-9.5438738776061083
20
-2.1069150746617549
10
-9.3105170724644815
20
-1.9167266252398549
42
-0.35589151571370464
10
-9.2014086062037954
20
-1.9167266252398538
10
-8.9680518010621704
20
-2.1069150746617553
42
-0.22544948219299907
10
-8.9362538699299314
20
-2.1738518502069808
10
-8.9362538699299314
20
-2.352376095044292
42
-0.22544948219299291
10
-8.9680518010621686
20
-2.4193128705895179
10
-9.201408606203799
20
-2.6095013200114154
42
-0.35589151571366517
0
LWPOLYLINE
5
140
100
AcDbEntity
8
0
100
AcDbPolyline
90
12
70
1
43
0.0
10
-13.465805801544281
20
-0.02422847617312171
42
-0.2254494821929911
10
-13.47073817781215
20
-0.013845493652221099
10
-13.47073817781215
20
0.013846520171337797
42
-0.22544948219303595
10
-13.465805801544279
20
0.024229502692239249
10
-13.429608365841963
20
0.053730824348980633
42
-0.35589151571370403
10
-13.412683868227022
20
0.053730824348980633
10
-13.3764864325247
20
0.024229502692238489
42
-0.22544948219299726
10
-13.371554056256834
20
0.01384652017133757
10
-13.371554056256834
20
-0.013845493652221402
42
-0.22544948219299035
10
-13.3764864325247
20
-0.024228476173122071
10
-13.41268386822702
20
-0.053729797829863112
42
-0.3558915157137385
10
-13.429608365841963
20
-0.05372979782986425
0
LWPOLYLINE
5
141
100
AcDbEntity
8
0
100
AcDbPolyline
90
12
70
1
43
0.0
10
-13.054315521572963
20
0.70230722807806734
42
-0.22544948219299091
10
-13.06491452275408
20
0.72461883571422492
10
-13.06491452275408
20
0.78412518139501286
42
-0.2254494821929893
10
-13.054315521572963
20
0.80643678903117033
10
-12.976532188970848
20
0.86983108948658139
42
-0.35589151571376143
10
-12.940163761164719
20
0.8698310894865845
10
-12.862380428562609
20
0.80643678903117033
42
-0.22544948219300967
10
-12.851781427381493
20
0.78412518139501219
10
-12.851781427381489
20
0.72461883571422459
42
-0.22544948219299307
10
-12.862380428562608
20
0.70230722807806667
10
-12.940163761164721
20
0.6389129276226504
42
-0.35589151571365829
10
-12.976532188970843
20
0.63891292762265262
0
LWPOLYLINE
5
142
100
AcDbEntity
8
0
100
AcDbPolyline
90
12
70
1
43
0.0
10
-13.054315476204543
20
-0.80643573789855871
42
-0.22544948219298466
10
-13.064914472375008
20
-0.78412414081015835
10
-13.064914472375008
20
-0.72461782326084778
42
-0.22544948219300115
10
-13.054315476204541
20
-0.7023062261724472
10
-12.976532180374312
20
-0.63891195568653147
42
-0.35589151571370548
10
-12.940163769761268
20
-0.6389119556865317
10
-12.862380473931029
20
-0.70230622617244887
42
-0.22544948219298777
10
-12.851781477760566
20
-0.72461782326084812
10
-12.851781477760564
20
-0.78412414081015891
42
-0.22544948219300115
10
-12.862380473931033
20
-0.80643573789855938
10
-12.940163769761263
20
-0.86983000838447
42
-0.35589151571377114
10
-12.976532180374312
20
-0.86983000838447411
0
LWPOLYLINE
5
143
100
AcDbEntity
8
0
100
AcDbPolyline
90
12
70
1
43
0.0
10
-12.649708460631475
20
1.425108614835366
42
-0.22544948219299649
10
-12.666734294205181
20
1.4609491352658968
10
-12.666734294205181
20
1.55653787243346
42
-0.22544948219299238
10
-12.649708460631475
20
1.5923783928639901
10
-12.524760264753237
20
1.6942125931467766
42
-0.35589151571370814
10
-12.466339401448908
20
1.6942125931467795
10
-12.341391205570682
20
1.5923783928639879
42
-0.22544948219299868
10
-12.324365371996976
20
1.5565378724334589
10
-12.324365371996976
20
1.4609491352658952
42
-0.22544948219300012
10
-12.341391205570682
20
1.4251086148353656
10
-12.466339401448909
20
1.3232744145525734
42
-0.35589151571365879
10
-12.524760264753233
20
1.3232744145525766
0
LWPOLYLINE
5
144
100
AcDbEntity
8
0
100
AcDbPolyline
90
12
70
1
43
0.0
10
-3.4781155646665596
20
-0.63269916265074289
42
-0.22544948219299893
10
-3.4533464261901408
20
-0.68483985871520359
10
-3.4533464261901408
20
-0.82390210535584829
42
-0.22544948219299724
10
-3.4781155646665596
20
-0.87604280142030855
10
-3.659889875609315
20
-1.0241909315849915
42
-0.35589151571366812
10
-3.7448803958579937
20
-1.0241909315849913
10
-3.9266547068007456
20
-0.87604280142030799
42
-0.2254494821929969
10
-3.9514238452771639
20
-0.82390210535584729
10
-3.9514238452771644
20
-0.68483985871520214
42
-0.22544948219300096
10
-3.9266547068007442
20
-0.63269916265074166
10
-3.7448803958579924
20
-0.48455103248605935
42
-0.35589151571366573
10
-3.6598898756093141
20
-0.48455103248605941
0
LWPOLYLINE
5
145
100
AcDbEntity
8
0
100
AcDbPolyline
90
12
70
1
43
0.0
10
-3.6525513229744178
20
2.5795304488962785
10
-3.4393862088074707
20
2.4057984571952087
42
-0.22544948219300343
10
-3.4103396609000178
20
2.3446535276852005
10
-3.4103396609000187
20
2.1815764706042322
42
-0.22544948219300343
10
-3.4393862088074716
20
2.1204315410942258
10
-3.6525513229744182
20
1.9466995493931563
42
-0.35589151571367139
10
-3.7522189484928745
20
1.9466995493931558
10
-3.9653840626598189
20
2.1204315410942263
42
-0.22544948219300814
10
-3.9944306105672709
20
2.181576470604234
10
-3.9944306105672704
20
2.3446535276852023
42
-0.22544948219299735
10
-3.9653840626598185
20
2.4057984571952087
10
-3.7522189484928736
20
2.5795304488962785
42
-0.35589151571367023
0
LWPOLYLINE
5
146
100
AcDbEntity
8
0
100
AcDbPolyline
90
12
70
1
43
0.0
10
-3.9514238605940672
20
0.68484088095782425
10
-3.9514238605940664
20
0.8239031361513699
42
-0.22544948219299632
10
-3.9266547205942439
20
0.87604383542269781
10
-3.7448803984716217
20
1.0241919746991011
42
-0.35589151571366279
10
-3.6598898729956764
20
1.0241919746990999
10
-3.4781155508730537
20
0.87604383542269637
42
-0.22544948219299424
10
-3.4533464108732312
20
0.82390313615136845
10
-3.4533464108732321
20
0.68484088095782314
42
-0.22544948219299893
10
-3.4781155508730555
20
0.63270018168649511
10
-3.6598898729956781
20
0.48455204241009192
42
-0.35589151571367139
10
-3.7448803984716235
20
0.48455204241009298
10
-3.9266547205942444
20
0.63270018168649611
42
-0.22544948219299588
0
LWPOLYLINE
5
147
100
AcDbEntity
8
0
100
AcDbPolyline
90
12
70
1
43
0.0
10
-3.9653840247152217
20
-2.4057974100902459
42
-0.22544948219299685
10
-3.9944305684319348
20
-2.3446524894020246
10
-3.9944305684319339
20
-2.1815754558492713
42
-0.22544948219299932
10
-3.9653840247152212
20
-2.1204305351610504
10
-3.7522189413030285
20
-1.9466985685254548
42
-0.35589151571366878
10
-3.6525513301642847
20
-1.9466985685254548
10
-3.4393862467520901
20
-2.1204305351610526
42
-0.22544948219299318
10
-3.4103397030353784
20
-2.181575455849273
10
-3.4103397030353788
20
-2.344652489402026
42
-0.22544948219298996
10
-3.4393862467520919
20
-2.4057974100902459
10
-3.6525513301642865
20
-2.5795293767258438
42
-0.35589151571366728
10
-3.7522189413030294
20
-2.5795293767258438
0
LWPOLYLINE
5
148
100
AcDbEntity
8
0
100
AcDbPolyline
90
12
70
1
43
0.0
10
-4.4185677360632667
20
-1.3712751075659226
10
-4.2131953125848227
20
-1.2038942473776955
42
-0.35589151571368338
10
-4.1171712428159015
20
-1.203894247377695
10
-3.9117988193374602
20
-1.3712751075659253
42
-0.22544948219299379
10
-3.8838141279363909
20
-1.430184757983928
10
-3.8838141279363909
20
-1.587300196677244
42
-0.22544948219300034
10
-3.911798819337462
20
-1.6462098470952482
10
-4.1171712428159024
20
-1.8135907072834749
42
-0.35589151571368716
10
-4.2131953125848254
20
-1.8135907072834754
10
-4.4185677360632685
20
-1.6462098470952469
42
-0.22544948219299765
10
-4.4465524274643382
20
-1.587300196677242
10
-4.4465524274643382
20
-1.4301847579839264
42
-0.22544948219299654
0
LWPOLYLINE
5
149
100
AcDbEntity
8
0
100
AcDbPolyline
90
12
70
1
43
0.0
10
-4.2131953171248915
20
1.2038952450699743
10
-4.4185677600235813
20
1.3712761210859261
42
-0.22544948219300021
10
-4.4465524540709165
20
1.4301857770744941
10
-4.4465524540709174
20
1.5873012306248242
42
-0.22544948219299357
10
-4.4185677600235822
20
1.6462108866133909
10
-4.2131953171248897
20
1.8135917626293427
42
-0.35589151571368177
10
-4.117171238275823
20
1.813591762629341
10
-3.9117987953771332
20
1.6462108866133909
42
-0.22544948219300243
10
-3.8838141013297971
20
1.5873012306248229
10
-3.883814101329798
20
1.4301857770744921
42
-0.22544948219299388
10
-3.9117987953771327
20
1.3712761210859252
10
-4.1171712382758239
20
1.2038952450699736
42
-0.35589151571369271
0
LWPOLYLINE
5
150
100
AcDbEntity
8
0
100
AcDbPolyline
90
12
70
1
43
0.0
10
-4.2228167360217759
20
-3.3834240872194976
10
-4.4693449874777924
20
-3.1825007592940251
42
-0.2254494821929901
10
-4.5029377012501275
20
-3.1117858460381083
10
-4.5029377012501266
20
-2.9231850898033058
42
-0.2254494821929911
10
-4.4693449874777915
20
-2.8524701765473885
10
-4.222816736021775
20
-2.6515468486219169
42
-0.35589151571368405
10
-4.1075498193789572
20
-2.6515468486219178
10
-3.8610215679229443
20
-2.8524701765473894
42
-0.22544948219299998
10
-3.8274288541506074
20
-2.923185089803308
10
-3.8274288541506079
20
-3.1117858460381091
42
-0.22544948219299393
10
-3.8610215679229434
20
-3.1825007592940269
10
-4.1075498193789599
20
-3.3834240872194981
42
-0.35589151571369038
0
LWPOLYLINE
5
151
100
AcDbEntity
8
0
100
AcDbPolyline
90
12
70
1
43
0.0
10
-4.2228167444569618
20
2.6515478215824122
10
-4.4693450319947186
20
2.8524711789149126
42
-0.22544948219299252
10
-4.5029377506836656
20
2.9231861025206274
10
-4.5029377506836656
20
3.1117868863589324
42
-0.22544948219298866
10
-4.4693450319947186
20
3.1825018099646458
10
-4.22281674445696
20
3.3834251672971458
42
-0.35589151571368083
10
-4.1075498109437403
20
3.3834251672971449
10
-3.861021523405987
20
3.1825018099646449
42
-0.22544948219299124
10
-3.8274288047170399
20
3.1117868863589311
10
-3.8274288047170399
20
2.9231861025206256
42
-0.22544948219300109
10
-3.8610215234059875
20
2.8524711789149118
10
-4.1075498109437429
20
2.6515478215824135
42
-0.35589151571368366
0
LWPOLYLINE
5
152
100
AcDbEntity
8
0
100
AcDbPolyline
90
12
70
1
43
0.0
10
-3.9297014042120737
20
-0.12775425901354109
10
-4.1205634774267965
20
-0.28330901875635767
42
-0.35589151571367805
10
-4.2098030779739233
20
-0.28330901875635672
10
-4.4006651511886465
20
-0.12775425901354032
42
-0.22544948219299735
10
-4.4266726166926187
20
-0.073006801586204179
10
-4.4266726166926187
20
0.073007828105277492
42
-0.2254494821929936
10
-4.4006651511886474
20
0.12775528553261281
10
-4.2098030779739224
20
0.28331004527542875
42
-0.3558915157136846
10
-4.1205634774267956
20
0.28331004527542863
10
-3.9297014042120737
20
0.12775528553261181
42
-0.22544948219299335
10
-3.903693938708102
20
0.073007828105276396
10
-3.9036939387081029
20
-0.073006801586205608
42
-0.22544948219299268
0
LWPOLYLINE
5
153
100
AcDbEntity
8
0
100
AcDbPolyline
90
12
70
1
43
0.0
10
-3.5240027084042156
20
2.8631838964685716
42
-0.22544948219300137
10
-3.5554146034161018
20
2.9293080401154246
10
-3.5554146034161018
20
3.1056649487641304
42
-0.22544948219299443
10
-3.5240027084042151
20
3.1717890924109824
10
-3.2934789226606052
20
3.3596685988124948
42
-0.35589151571367578
10
-3.1856950648732729
20
3.359668598812493
10
-2.9551712791296665
20
3.1717890924109815
42
-0.22544948219299418
10
-2.9237593841177798
20
3.1056649487641286
10
-2.9237593841177807
20
2.9293080401154228
42
-0.22544948219299943
10
-2.9551712791296669
20
2.8631838964685699
10
-3.1856950648732747
20
2.6753043900670588
42
-0.35589151571367811
10
-3.2934789226606078
20
2.6753043900670588
0
LWPOLYLINE
5
154
100
AcDbEntity
8
0
100
AcDbPolyline
90
12
70
1
43
0.0
10
-5.4461167035756688
20
-3.1166949068145202
10
-5.4461167035756652
20
-2.9182760290268881
42
-0.2254494821930027
10
-5.4107752303938206
20
-2.8438798600442956
10
-5.151413285227747
20
-2.6324969258279807
42
-0.35589151571367938
10
-5.0301458380398127
20
-2.6324969258279807
10
-4.7707838928737427
20
-2.8438798600442978
42
-0.2254494821929911
10
-4.7354424196918963
20
-2.918276029026889
10
-4.7354424196918981
20
-3.1166949068145229
42
-0.22544948219300007
10
-4.7707838928737436
20
-3.1910910757971149
10
-5.0301458380398145
20
-3.4024740100134299
42
-0.35589151571370203
10
-5.1514132852277497
20
-3.4024740100134316
10
-5.4107752303938206
20
-3.1910910757971136
42
-0.22544948219300298
0
LWPOLYLINE
5
155
100
AcDbEntity
8
0
100
AcDbPolyline
90
12
70
1
43
0.0
10
-4.3424549026233361
20
2.418020235044585
42
-0.22544948219300825
10
-4.3109203265963911
20
2.3516378396412119
10
-4.3109203265963911
20
2.1745921586482271
42
-0.22544948219300889
10
-4.3424549026233361
20
2.1082097632448535
10
-4.5738790126555458
20
1.9195964823115843
42
-0.3558915157136644
10
-4.6820838266785723
20
1.9195964823115861
10
-4.9135079367107757
20
2.1082097632448549
42
-0.22544948219300517
10
-4.9450425127377198
20
2.174592158648228
10
-4.9450425127377216
20
2.3516378396412119
42
-0.22544948219299779
10
-4.9135079367107757
20
2.418020235044585
10
-4.6820838266785714
20
2.6066335159778546
42
-0.35589151571367766
10
-4.5738790126555431
20
2.6066335159778555
0
LWPOLYLINE
5
156
100
AcDbEntity
8
0
100
AcDbPolyline
90
12
70
1
43
0.0
10
-4.909414363664836
20
0.67579647798194487
10
-4.909414363664836
20
0.83294753912725406
42
-0.22544948219299921
10
-4.8814233273537146
20
0.89187054600603177
10
-4.6760043402189142
20
1.0592893561036145
42
-0.35589151571367744
10
-4.5799584991152074
20
1.0592893561036141
10
-4.374539511980406
20
0.89187054600603
42
-0.22544948219299316
10
-4.3465484756692865
20
0.83294753912725239
10
-4.3465484756692856
20
0.67579647798194364
42
-0.22544948219299199
10
-4.3745395119804051
20
0.6168734711031657
10
-4.57995849911521
20
0.44945466100558329
42
-0.35589151571367844
10
-4.6760043402189169
20
0.44945466100558373
10
-4.8814233273537155
20
0.61687347110316626
42
-0.22544948219299443
0
LWPOLYLINE
5
157
100
AcDbEntity
8
0
100
AcDbPolyline
90
12
70
1
43
0.0
10
-4.579958501227205
20
-1.0592883161746305
42
-0.35589151571369154
10
-4.6760043381069281
20
-1.0592883161746305
10
-4.8814233162076412
20
-0.89186951343993015
42
-0.22544948219299757
10
-4.9094143512877491
20
-0.83294650915251733
10
-4.9094143512877491
20
-0.67579545491852733
42
-0.22544948219299971
10
-4.8814233162076395
20
-0.61687245063111473
10
-4.6760043381069281
20
-0.44945364789641584
42
-0.35589151571368277
10
-4.579958501227205
20
-0.4494536478964159
10
-4.3745395231264901
20
-0.61687245063111473
42
-0.22544948219300359
10
-4.3465484880463805
20
-0.67579545491852877
10
-4.3465484880463814
20
-0.83294650915251844
42
-0.22544948219300368
10
-4.374539523126491
20
-0.89186951343993126
0
LWPOLYLINE
5
158
100
AcDbEntity
8
0
100
AcDbPolyline
90
12
70
1
43
0.0
10
-4.3424549347522454
20
-2.1082087541565082
42
-0.22544948219299565
10
-4.3109203622737331
20
-2.174591142090196
10
-4.3109203622737322
20
-2.351636803161099
42
-0.22544948219299629
10
-4.3424549347522463
20
-2.4180191910947872
10
-4.5738790187434351
20
-2.6066324508043293
42
-0.35589151571368027
10
-4.682083820590706
20
-2.6066324508043288
10
-4.9135079045818912
20
-2.4180191910947846
42
-0.22544948219299069
10
-4.9450424770604053
20
-2.3516368031610964
10
-4.9450424770604053
20
-2.1745911420901951
42
-0.22544948219299224
10
-4.9135079045818912
20
-2.1082087541565069
10
-4.6820838205907043
20
-1.9195954944469642
42
-0.35589151571367544
10
-4.5738790187434333
20
-1.9195954944469642
0
LWPOLYLINE
5
159
100
AcDbEntity
8
0
100
AcDbPolyline
90
12
70
1
43
0.0
10
-5.1430399049198225
20
-1.8405649711244521
10
-5.3665845511381649
20
-1.6583735427877864
42
-0.22544948219299427
10
-5.3970454466801545
20
-1.5942513167435419
10
-5.3970454466801527
20
-1.423233637917622
42
-0.22544948219300476
10
-5.366584551138164
20
-1.3591114118733774
10
-5.1430399049198181
20
-1.1769199835367132
42
-0.35589151571368044
10
-5.0385192183477354
20
-1.1769199835367139
10
-4.8149745721293922
20
-1.3591114118733785
42
-0.22544948219299443
10
-4.7845136765874035
20
-1.4232336379176229
10
-4.7845136765874043
20
-1.5942513167435433
42
-0.22544948219299185
10
-4.8149745721293913
20
-1.6583735427877881
10
-5.0385192183477381
20
-1.8405649711244516
42
-0.35589151571370059
0
LWPOLYLINE
5
160
100
AcDbEntity
8
0
100
AcDbPolyline
90
12
70
1
43
0.0
10
0.20487533532602109
20
2.320315794281969
42
0.22544948219299996
10
0.18449864143616435
20
2.363210100190956
10
0.034959347017572931
20
2.4850863253811992
42
0.35589151571366773
10
-0.034959347017576858
20
2.4850863253811992
10
-0.18449864143616901
20
2.363210100190956
42
0.22544948219300184
10
-0.20487533532602561
20
2.3203157942819681
10
-0.20487533532602548
20
2.2059142040074473
42
0.22544948219299593
10
-0.18449864143616901
20
2.1630198980984607
10
-0.034959347017576838
20
2.0411436729082171
42
0.35589151571367617
10
0.034959347017572966
20
2.0411436729082171
10
0.18449864143616457
20
2.1630198980984603
42
0.22544948219299552
10
0.20487533532602148
20
2.2059142040074469
0
LWPOLYLINE
5
161
100
AcDbEntity
8
0
100
AcDbPolyline
90
12
70
1
43
0.0
10
10.40999287694282
20
-0.87830197403913057
42
0.22544948219299535
10
10.43522192273155
20
-0.82519314226773077
10
10.43522192273155
20
-0.68354882180333765
42
0.22544948219300345
10
10.409992876942818
20
-0.63043999003193729
10
10.224843425000605
20
-0.4795410815778462
42
0.35589151571371663
10
10.138274821534498
20
-0.47954108157784614
10
9.9531253695922732
20
-0.6304399900319374
42
0.22544948219300698
10
9.9278963238035409
20
-0.68354882180333765
10
9.9278963238035409
20
-0.82519314226773066
42
0.22544948219300409
10
9.9531253695922732
20
-0.8783019740391298
10
10.138274821534498
20
-1.0292008824932224
42
0.35589151571369049
10
10.224843425000605
20
-1.0292008824932224
0
LWPOLYLINE
5
162
100
AcDbEntity
8
0
100
AcDbPolyline
90
12
70
1
43
0.0
10
11.798388495925529
20
2.3285487474068978
10
11.798388495925533
20
2.1976812508825185
42
0.22544948219300862
10
11.821698022571187
20
2.1486131355181266
10
11.99276061921536
20
2.0091951742973468
42
0.35589151571373084
10
12.072742763053384
20
2.0091951742973473
10
12.243805359697564
20
2.1486131355181253
42
0.22544948219302086
10
12.267114886343222
20
2.1976812508825185
10
12.267114886343212
20
2.3285487474068987
42
0.22544948219299746
10
12.243805359697557
20
2.3776168627712897
10
12.07274276305338
20
2.5170348239920664
42
0.35589151571373245
10
11.99276061921536
20
2.5170348239920699
10
11.821698022571184
20
2.3776168627712875
42
0.22544948219298586
0
LWPOLYLINE
5
163
100
AcDbEntity
8
0
100
AcDbPolyline
90
12
70
1
43
0.0
10
10.477085956473271
20
2.3456255161713848
42
0.22544948219300057
10
10.447693156178941
20
2.4074993301552303
10
10.231986985160262
20
2.5833023120818992
42
0.35589151571368366
10
10.13113126137484
20
2.583302312081897
10
9.9154250903561483
20
2.4074993301552312
42
0.22544948219301017
10
9.8860322900618165
20
2.3456255161713848
10
9.8860322900618183
20
2.180604482118031
42
0.225449482193012
10
9.9154250903561501
20
2.118730668134186
10
10.131131261374833
20
1.9429276862075231
42
0.35589151571370542
10
10.23198698516026
20
1.9429276862075202
10
10.447693156178941
20
2.1187306681341851
42
0.22544948219300068
10
10.477085956473269
20
2.180604482118031
0
LWPOLYLINE
5
164
100
AcDbEntity
8
0
100
AcDbPolyline
90
12
70
1
43
0.0
10
10.447693119115149
20
-2.4074982835281462
42
0.2254494821929858
10
10.477085915316017
20
-2.3456244781613074
10
10.477085915316016
20
-2.1806034670900076
42
0.22544948219300148
10
10.447693119115144
20
-2.1187296617231679
10
10.231986978137309
20
-1.9429267042801315
42
0.35589151571371558
10
10.131131268397791
20
-1.942926704280131
10
9.9154251274199527
20
-2.1187296617231692
42
0.22544948219300046
10
9.8860323312190808
20
-2.1806034670900081
10
9.8860323312190808
20
-2.3456244781613074
42
0.22544948219299421
10
9.9154251274199527
20
-2.4074982835281449
10
10.131131268397795
20
-2.5833012409711835
42
0.355891515713679
10
10.231986978137302
20
-2.583301240971184
0
LWPOLYLINE
5
165
100
AcDbEntity
8
0
100
AcDbPolyline
90
12
70
1
43
0.0
10
10.896849410581019
20
-1.4382471614509922
42
0.22544948219300145
10
10.871736796868213
20
-1.3853834270005492
10
10.687441809864001
20
-1.2351809171860766
42
0.35589151571366429
10
10.601272720604499
20
-1.235180917186075
10
10.416977733600287
20
-1.3853834270005487
42
0.22544948219299432
10
10.391865119887481
20
-1.4382471614509922
10
10.391865119887477
20
-1.5792377932101984
42
0.22544948219299657
10
10.416977733600291
20
-1.632101527660641
10
10.601272720604499
20
-1.7823040374751131
42
0.35589151571366995
10
10.687441809864
20
-1.782304037475114
10
10.871736796868207
20
-1.6321015276606379
42
0.22544948219297203
10
10.896849410581019
20
-1.5792377932101984
0
LWPOLYLINE
5
166
100
AcDbEntity
8
0
100
AcDbPolyline
90
12
70
1
43
0.0
10
0.21940425874158681
20
-3.1495327022299491
10
0.41667915074060363
20
-3.3103139821947432
42
0.35589151571368599
10
0.50891713319280429
20
-3.3103139821947432
10
0.706192025191821
20
-3.1495327022299504
42
0.22544948219299632
10
0.73307332152297999
20
-3.0929457723633336
10
0.73307332152297966
20
-2.9420251634781009
42
0.22544948219299499
10
0.70619202519182123
20
-2.8854382336114845
10
0.50891713319280429
20
-2.7246569536466936
42
0.355891515713671
10
0.41667915074060413
20
-2.7246569536466927
10
0.21940425874158678
20
-2.8854382336114854
42
0.22544948219299848
10
0.19252296241042821
20
-2.9420251634781014
10
0.19252296241042813
20
-3.0929457723633336
42
0.2254494821929961
0
LWPOLYLINE
5
167
100
AcDbEntity
8
0
100
AcDbPolyline
90
12
70
1
43
0.0
10
9.4123540701441151
20
3.183719863394475
42
0.22544948219301464
10
9.3785133882519549
20
3.1124829606320703
10
9.3785133882519549
20
2.9224900282474673
42
0.2254494821930039
10
9.4123540701441186
20
2.851253125485063
10
9.6607020955966973
20
2.6488466610618353
42
0.35589151571368144
10
9.776819867004976
20
2.6488466610618335
10
10.025167892457564
20
2.8512531254850626
42
0.22544948219300495
10
10.059008574349724
20
2.9224900282474673
10
10.059008574349722
20
3.1124829606320703
42
0.22544948219299724
10
10.02516789245756
20
3.1837198633944745
10
9.776819867004976
20
3.3861263278177054
42
0.35589151571370137
10
9.6607020955966991
20
3.3861263278177054
0
LWPOLYLINE
5
168
100
AcDbEntity
8
0
100
AcDbPolyline
90
12
70
1
43
0.0
10
-0.21940425874159356
20
-2.8854382336114854
42
-0.22544948219299904
10
-0.19252296241043534
20
-2.9420251634781018
10
-0.19252296241043562
20
-3.0929457723633318
42
-0.22544948219299774
10
-0.21940425874159447
20
-3.1495327022299477
10
-0.41667915074061235
20
-3.3103139821947418
42
-0.35589151571368566
10
-0.5089171331928124
20
-3.3103139821947405
10
-0.70619202519182911
20
-3.1495327022299473
42
-0.22544948219299302
10
-0.73307332152298732
20
-3.0929457723633313
10
-0.73307332152298676
20
-2.9420251634781009
42
-0.22544948219299912
10
-0.70619202519182811
20
-2.8854382336114832
10
-0.50891713319281151
20
-2.72465695364669
42
-0.35589151571367433
10
-0.41667915074061068
20
-2.7246569536466896
0
LWPOLYLINE
5
169
100
AcDbEntity
8
0
100
AcDbPolyline
90
12
70
1
43
0.0
10
11.76180489962687
20
1.6128276323862647
10
11.606306109188081
20
1.7395609145915372
42
0.35589151571370814
10
11.533600989147242
20
1.7395609145915392
10
11.378102198708454
20
1.6128276323862649
42
0.2254494821930105
10
11.356913445174921
20
1.5682238865180516
10
11.356913445174923
20
1.4492631211812432
42
0.22544948219301267
10
11.378102198708458
20
1.4046593753130312
10
11.533600989147253
20
1.2779260931077585
42
0.35589151571370919
10
11.60630610918809
20
1.2779260931077583
10
11.761804899626878
20
1.4046593753130296
42
0.22544948219299987
10
11.782993653160412
20
1.4492631211812432
10
11.782993653160412
20
1.5682238865180511
42
0.22544948219302435
0
LWPOLYLINE
5
170
100
AcDbEntity
8
0
100
AcDbPolyline
90
12
70
1
43
0.0
10
-0.20487524003079433
20
-2.2059132040946401
10
-0.20487524003079438
20
-2.3203147411566736
42
0.22544948219299057
10
-0.18449855561890519
20
-2.3632090271139043
10
-0.034959330756668412
20
-2.4850851956149285
42
0.35589151571367283
10
0.034959330756664901
20
-2.4850851956149285
10
0.18449855561890083
20
-2.3632090271139048
42
0.22544948219299527
10
0.20487524003078991
20
-2.3203147411566745
10
0.20487524003079011
20
-2.2059132040946401
42
0.22544948219299049
10
0.18449855561890091
20
-2.1630189181374107
10
0.034959330756664631
20
-2.041142749636387
42
0.35589151571367778
10
-0.034959330756668121
20
-2.041142749636387
10
-0.18449855561890544
20
-2.1630189181374102
42
0.22544948219299016
0
LWPOLYLINE
5
171
100
AcDbEntity
8
0
100
AcDbPolyline
90
12
70
1
43
0.0
10
11.378102237208644
20
-1.4046583696812878
42
0.2254494821930072
10
11.356913487927208
20
-1.4492621065985469
10
11.356913487927212
20
-1.5682228480626432
42
0.22544948219301486
10
11.378102237208648
20
-1.6128265849799017
10
11.533600996442379
20
-1.7395598417526936
42
0.35589151571372368
10
11.60630610189296
20
-1.7395598417526938
10
11.761804861126688
20
-1.6128265849799019
42
0.22544948219299918
10
11.782993610408123
20
-1.5682228480626426
10
11.782993610408122
20
-1.4492621065985467
42
0.22544948219302083
10
11.761804861126681
20
-1.4046583696812882
10
11.606306101892951
20
-1.2779251129084961
42
0.35589151571372285
10
11.53360099644237
20
-1.2779251129084936
0
LWPOLYLINE
5
172
100
AcDbEntity
8
0
100
AcDbPolyline
90
12
70
1
43
0.0
10
0.32558199326799542
20
-1.4704319955014942
10
0.3255819932679952
20
-1.5470529591596962
42
0.22544948219299263
10
0.33922937280408849
20
-1.5757816074792665
10
0.4393839669458815
20
-1.6574087404473692
42
0.35589151571367394
10
0.4862123169875272
20
-1.6574087404473694
10
0.58636691112931971
20
-1.5757816074792665
42
0.22544948219299257
10
0.6000142906654129
20
-1.5470529591596962
10
0.60001429066541312
20
-1.4704319955014942
42
0.22544948219300004
10
0.58636691112931982
20
-1.4417033471819229
10
0.4862123169875272
20
-1.360076214213821
42
0.35589151571367639
10
0.43938396694588144
20
-1.360076214213821
10
0.3392293728040886
20
-1.4417033471819238
42
0.22544948219299335
0
LWPOLYLINE
5
173
100
AcDbEntity
8
0
100
AcDbPolyline
90
12
70
1
43
0.0
10
0.33922929492914811
20
1.4417043314518838
10
0.43938395218990778
20
1.3600771470411057
42
0.35589151571368233
10
0.48621233174350104
20
1.3600771470411059
10
0.58636698900426021
20
1.441704331451884
42
0.22544948219299538
10
0.60001437714114247
20
1.4704329978766912
10
0.60001437714114247
20
1.547054009822604
42
0.22544948219299291
10
0.58636698900426043
20
1.5757826762474108
10
0.48621233174350098
20
1.65740986065819
42
0.35589151571367789
10
0.43938395218990794
20
1.6574098606581891
10
0.339229294929148
20
1.5757826762474112
42
0.22544948219299368
10
0.32558190679226601
20
1.547054009822604
10
0.32558190679226601
20
1.4704329978766912
42
0.22544948219299843
0
LWPOLYLINE
5
174
100
AcDbEntity
8
0
100
AcDbPolyline
90
12
70
1
43
0.0
10
11.061805884016437
20
1.9751721551207164
42
0.35589151571367433
10
11.15250493038549
20
1.9751721551207173
10
11.346488407703434
20
2.1332708946975494
42
0.22544948219301181
10
11.372921205533368
20
2.1889137051689787
10
11.37292120553337
20
2.3373162931204376
42
0.2254494821929878
10
11.346488407703442
20
2.3929591035918656
10
11.15250493038549
20
2.5510578431686994
42
0.35589151571369182
10
11.06180588401643
20
2.5510578431687003
10
10.867822406698494
20
2.392959103591866
42
0.22544948219299243
10
10.841389608868557
20
2.3373162931204376
10
10.841389608868555
20
2.1889137051689787
42
0.22544948219301431
10
10.867822406698489
20
2.1332708946975512
0
LWPOLYLINE
5
175
100
AcDbEntity
8
0
100
AcDbPolyline
90
12
70
1
43
0.0
10
12.524760254502254
20
-1.3232734531212706
42
0.35589151571371219
10
12.466339411699908
20
-1.3232734531212706
10
12.341391259670491
20
-1.4251076176667741
42
0.22544948219300606
10
12.324365432071769
20
-1.4609481255195769
10
12.324365432071771
20
-1.5565368291416128
42
0.22544948219295935
10
12.341391259670491
20
-1.5923773369944161
10
12.466339411699908
20
-1.69421150153992
42
0.35589151571368444
10
12.524760254502254
20
-1.69421150153992
10
12.649708406531666
20
-1.5923773369944159
42
0.22544948219298167
10
12.666734234130395
20
-1.5565368291416135
10
12.666734234130391
20
-1.4609481255195769
42
0.22544948219300434
10
12.649708406531662
20
-1.4251076176667741
0
LWPOLYLINE
5
176
100
AcDbEntity
8
0
100
AcDbPolyline
90
12
70
1
43
0.0
10
-0.067514362628418201
20
-0.73552110330618281
10
-0.067514362628418104
20
-0.77322086076488594
42
0.22544948219299193
10
-0.060799452323286499
20
-0.78735619686683833
10
-0.011520459639720105
20
-0.82751913619861606
42
0.35589151571367672
10
0.011520459639716501
20
-0.82751913619861583
10
0.060799452323282627
20
-0.78735619686683833
42
0.2254494821929923
10
0.067514362628414398
20
-0.77322086076488605
10
0.067514362628414301
20
-0.73552110330618281
42
0.22544948219299529
10
0.06079945232328271
20
-0.72138576720423053
10
0.011520459639716403
20
-0.68122282787245303
42
0.35589151571367555
10
-0.011520459639720017
20
-0.68122282787245303
10
-0.060799452323286526
20
-0.72138576720423053
42
0.22544948219299207
0
LWPOLYLINE
5
177
100
AcDbEntity
8
0
100
AcDbPolyline
90
12
70
1
43
0.0
10
-0.32558199326799897
20
-1.4704319955014933
10
-0.32558199326799903
20
-1.5470529591596955
42
-0.22544948219299296
10
-0.33922937280409238
20
-1.5757816074792657
10
-0.43938396694588533
20
-1.6574087404473683
42
-0.35589151571367555
10
-0.48621231698753131
20
-1.6574087404473685
10
-0.58636691112932326
20
-1.5757816074792657
42
-0.22544948219299457
10
-0.60001429066541656
20
-1.5470529591596951
10
-0.60001429066541667
20
-1.4704319955014922
42
-0.2254494821929961
10
-0.58636691112932338
20
-1.4417033471819216
10
-0.4862123169875307
20
-1.3600762142138201
42
-0.35589151571367683
10
-0.43938396694588483
20
-1.3600762142138201
10
-0.3392293728040921
20
-1.4417033471819229
42
-0.22544948219299216
0
LWPOLYLINE
5
178
100
AcDbEntity
8
0
100
AcDbPolyline
90
12
70
1
43
0.0
10
0.49881265997204888
20
0.019539284877657603
10
0.46962227911383431
20
0.043329777167304517
42
0.355891515713676
10
0.45597400481957456
20
0.043329777167304587
10
0.42678362396135983
20
0.019539284877657638
42
0.22544948219299535
10
0.42280605099240359
20
0.011166227274301603
10
0.42280605099240359
20
-0.011165200755249696
42
0.22544948219299543
10
0.42678362396135983
20
-0.019538258358605703
10
0.45597400481957462
20
-0.043328750648252631
42
0.35589151571367478
10
0.46962227911383436
20
-0.043328750648252597
10
0.49881265997204888
20
-0.019538258358605679
42
0.22544948219299413
10
0.502790232941005
20
-0.0111652007552497
10
0.50279023294100511
20
0.011166227274301617
42
0.22544948219299371
0
LWPOLYLINE
5
179
100
AcDbEntity
8
0
100
AcDbPolyline
90
12
70
1
43
0.0
10
-0.46962227911383414
20
0.04332977716730569
42
-0.35589151571367533
10
-0.4559740048195744
20
0.043329777167305655
10
-0.42678362396135983
20
0.019539284877658727
42
-0.22544948219299568
10
-0.42280605099240359
20
0.011166227274302686
10
-0.42280605099240359
20
-0.011165200755248614
42
-0.22544948219299643
10
-0.42678362396135988
20
-0.0195382583586046
10
-0.45597400481957473
20
-0.043328750648251507
42
-0.35589151571367328
10
-0.46962227911383436
20
-0.043328750648251486
10
-0.49881265997204888
20
-0.019538258358604461
42
-0.22544948219299371
10
-0.50279023294100511
20
-0.011165200755248492
10
-0.50279023294100511
20
0.011166227274302845
42
-0.22544948219299296
10
-0.49881265997204888
20
0.0195392848776588
0
LWPOLYLINE
5
180
100
AcDbEntity
8
0
100
AcDbPolyline
90
12
70
1
43
0.0
10
10.605450744594631
20
0.24703407430639929
10
10.439027337378031
20
0.1113971052159877
42
0.22544948219297742
10
10.416349961253289
20
0.063659709053199703
10
10.416349961253289
20
-0.063658682534147804
42
0.22544948219299232
10
10.439027337378036
20
-0.1113960786969366
10
10.605450744594624
20
-0.24703304778735072
42
0.35589151571370575
10
10.68326378587388
20
-0.24703304778735169
10
10.849687193090467
20
-0.11139607869693441
42
0.22544948219298688
10
10.872364569215211
20
-0.063658682534147901
10
10.872364569215211
20
0.063659709053199995
42
0.22544948219300245
10
10.849687193090464
20
0.11139710521598931
10
10.68326378587388
20
0.24703407430640278
42
0.35589151571369643
0
LWPOLYLINE
5
181
100
AcDbEntity
8
0
100
AcDbPolyline
90
12
70
1
43
0.0
10
-0.60001437714113881
20
1.547054009822606
42
-0.22544948219299291
10
-0.58636698900425677
20
1.5757826762474128
10
-0.48621233174349754
20
1.6574098606581904
42
-0.35589151571368499
10
-0.439383952189904
20
1.65740986065819
10
-0.33922929492914428
20
1.5757826762474121
42
-0.22544948219299452
10
-0.32558190679226229
20
1.5470540098226049
10
-0.32558190679226251
20
1.4704329978766919
42
-0.2254494821929964
10
-0.33922929492914472
20
1.4417043314518851
10
-0.43938395218990506
20
1.3600771470411073
42
-0.35589151571367084
10
-0.48621233174349771
20
1.3600771470411068
10
-0.58636698900425688
20
1.4417043314518851
42
-0.22544948219299255
10
-0.60001437714113881
20
1.4704329978766919
0
LWPOLYLINE
5
182
100
AcDbEntity
8
0
100
AcDbPolyline
90
12
70
1
43
0.0
10
-1.1120978706859379
20
-2.1619322239365308
10
-0.96093515494003923
20
-2.038732891906478
42
-0.3558915157136745
10
-0.8902574129267955
20
-2.0387328919064784
10
-0.73909469718089649
20
-2.1619322239365322
42
-0.22544948219299704
10
-0.71849679080258055
20
-2.205292196955313
10
-0.71849679080258089
20
-2.3209357482959976
42
-0.22544948219298919
10
-0.73909469718089693
20
-2.3642957213147793
10
-0.89025741292679705
20
-2.4874950533448317
42
-0.35589151571366767
10
-0.96093515494004045
20
-2.4874950533448321
10
-1.112097870685939
20
-2.3642957213147788
42
-0.22544948219299465
10
-1.1326957770642549
20
-2.3209357482959971
10
-1.1326957770642552
20
-2.205292196955313
42
-0.22544948219299935
0
LWPOLYLINE
5
183
100
AcDbEntity
8
0
100
AcDbPolyline
90
12
70
1
43
0.0
10
12.178775418779413
20
0.83359351208439392
10
12.060420697950931
20
0.93005395523482459
42
0.35589151571372724
10
12.005082684317811
20
0.9300539552348277
10
11.886727963489339
20
0.83359351208439414
42
0.22544948219301217
10
11.870600577532905
20
0.79964428408563992
10
11.870600577532901
20
0.70909973302353513
42
0.22544948219296895
10
11.88672796348933
20
0.67515050502478124
10
12.005082684317811
20
0.57869006187434735
42
0.35589151571367317
10
12.060420697950926
20
0.57869006187434735
10
12.178775418779415
20
0.67515050502478091
42
0.2254494821930019
10
12.194902804735841
20
0.70909973302353513
10
12.19490280473585
20
0.79964428408563992
42
0.22544948219301084
0
LWPOLYLINE
5
184
100
AcDbEntity
8
0
100
AcDbPolyline
90
12
70
1
43
0.0
10
11.99276063016729
20
-2.0091942173165842
10
11.821698080370179
20
-2.1486121403564664
42
0.22544948219301142
10
11.798388560108053
20
-2.197680242283103
10
11.798388560108053
20
-2.3285477029682116
42
0.2254494821929984
10
11.821698080370179
20
-2.3776158048948446
10
11.992760630167288
20
-2.5170337279347308
42
0.35589151571365851
10
12.072742752101451
20
-2.5170337279347308
10
12.243805301898563
20
-2.3776158048948464
42
0.22544948219299427
10
12.267114822160689
20
-2.3285477029682116
10
12.267114822160689
20
-2.197680242283103
42
0.22544948219299721
10
12.243805301898563
20
-2.1486121403564677
10
12.072742752101451
20
-2.0091942173165838
42
0.35589151571368055
0
LWPOLYLINE
5
185
100
AcDbEntity
8
0
100
AcDbPolyline
90
12
70
1
43
0.0
10
11.886727989740063
20
-0.67514949274740055
42
0.22544948219300232
10
11.870600606682853
20
-0.70909871464309215
10
11.870600606682853
20
-0.79964324942797649
42
0.22544948219298902
10
11.886727989740059
20
-0.83359247132366754
10
12.005082689291878
20
-0.93005289713338157
42
0.35589151571366406
10
12.06042069297686
20
-0.93005289713337935
10
12.178775392528681
20
-0.83359247132366776
42
0.22544948219299005
10
12.194902775585891
20
-0.79964324942797649
10
12.194902775585891
20
-0.70909871464309215
42
0.22544948219300137
10
12.17877539252868
20
-0.67514949274740055
10
12.060420692976859
20
-0.57868906693768918
42
0.35589151571366795
10
12.005082689291882
20
-0.57868906693769084
0
LWPOLYLINE
5
186
100
AcDbEntity
8
0
100
AcDbPolyline
90
12
70
1
43
0.0
10
10.871736825930029
20
1.3853844377528433
42
0.22544948219299837
10
10.896849442852528
20
1.438248178959902
10
10.896849442852529
20
1.5792388287393933
42
0.2254494821929901
10
10.871736825930032
20
1.632102569946452
10
10.687441815370722
20
1.7823050989585965
42
0.35589151571367794
10
10.60127271509778
20
1.7823050989585978
10
10.416977704538475
20
1.6321025699464502
42
0.2254494821929687
10
10.391865087615979
20
1.5792388287393933
10
10.391865087615971
20
1.4382481789599022
42
0.22544948219299257
10
10.416977704538468
20
1.3853844377528426
10
10.60127271509778
20
1.2351819087406981
42
0.35589151571366723
10
10.68744181537072
20
1.2351819087406979
0
LWPOLYLINE
5
187
100
AcDbEntity
8
0
100
AcDbPolyline
90
12
70
1
43
0.0
10
11.152504921756002
20
-1.975171183393847
42
0.35589151571367156
10
11.061805892645921
20
-1.9751711833938466
10
10.86782245224078
20
-2.133269892886327
42
0.22544948219299749
10
10.841389659440699
20
-2.1889126927695735
10
10.841389659440706
20
-2.3373152524817429
42
0.22544948219300665
10
10.867822452240786
20
-2.3929580523649894
10
11.061805892645921
20
-2.551056761857466
42
0.35589151571373706
10
11.152504921756011
20
-2.5510567618574669
10
11.34648836216115
20
-2.3929580523649872
42
0.22544948219296579
10
11.372921154961231
20
-2.3373152524817415
10
11.372921154961224
20
-2.1889126927695735
42
0.22544948219298472
10
11.346488362161145
20
-2.1332698928863247
0
LWPOLYLINE
5
188
100
AcDbEntity
8
0
100
AcDbPolyline
90
12
70
1
43
0.0
10
9.9579479261481758
20
-0.12976435236264419
42
0.22544948219300207
10
9.9843645930659672
20
-0.074155498542074205
10
9.9843645930659672
20
0.074156525061126202
42
0.22544948219300115
10
9.9579479261481758
20
0.12976537888169579
10
9.7640828294288369
20
0.28776763692469726
42
0.35589151571371652
10
9.6734391331728418
20
0.28776763692469681
10
9.4795740364535028
20
0.12976537888169659
42
0.22544948219300523
10
9.4531573695357132
20
0.074156525061126202
10
9.4531573695357132
20
-0.074155498542074233
42
0.22544948219299138
10
9.4795740364535046
20
-0.12976435236264408
10
9.6734391331728435
20
-0.28776661040564377
42
0.35589151571369293
10
9.7640828294288369
20
-0.28776661040564577
0
LWPOLYLINE
5
189
100
AcDbEntity
8
0
100
AcDbPolyline
90
12
70
1
43
0.0
10
11.143408123375275
20
0.98455546949973316
42
0.35589151571367933
10
11.070902691026648
20
0.98455546949973272
10
10.915830984603209
20
0.85817026562285281
42
0.22544948219301236
10
10.894700426878872
20
0.8136890258322198
10
10.894700426878876
20
0.69505499127695547
42
0.22544948219300964
10
10.915830984603209
20
0.65057375148632324
10
11.070902691026646
20
0.52418854760944256
42
0.35589151571365918
10
11.143408123375275
20
0.52418854760944078
10
11.298479829798717
20
0.65057375148632202
42
0.22544948219298772
10
11.319610387523049
20
0.69505499127695569
10
11.319610387523056
20
0.81368902583221958
42
0.22544948219301073
10
11.298479829798719
20
0.85817026562285292
0
LWPOLYLINE
5
190
100
AcDbEntity
8
0
100
AcDbPolyline
90
12
70
1
43
0.0
10
-0.73307341570695639
20
3.0929468251783723
42
-0.22544948219298919
10
-0.70619211000835391
20
3.1495337747640848
10
-0.50891714926408438
20
3.3103151107570392
42
-0.35589151571366573
10
-0.41667913466930817
20
3.3103151107570401
10
-0.21940417392503875
20
3.1495337747640844
42
-0.22544948219299432
10
-0.19252286822643622
20
3.0929468251783705
10
-0.19252286822643688
20
2.9420261637011675
42
-0.22544948219299696
10
-0.21940417392503958
20
2.8854392141154546
10
-0.41667913466930967
20
2.7246578781225002
42
-0.35589151571368638
10
-0.50891714926408593
20
2.724657878122501
10
-0.70619211000835469
20
2.8854392141154555
42
-0.22544948219299873
10
-0.7330734157069565
20
2.9420261637011684
0
LWPOLYLINE
5
191
100
AcDbEntity
8
0
100
AcDbPolyline
90
12
70
1
43
0.0
10
9.4621184033068459
20
1.3695085231629971
10
9.6701315882942698
20
1.1999754123198867
42
0.35589151571372257
10
9.7673903743074106
20
1.1999754123198878
10
9.9754035592948345
20
1.3695085231629989
42
0.22544948219297983
10
10.003748089152511
20
1.4291756576418921
10
10.003748089152502
20
1.5883113500574042
42
0.22544948219299099
10
9.9754035592948327
20
1.6479784845363001
10
9.7673903743074089
20
1.8175115953794068
42
0.35589151571373479
10
9.6701315882942716
20
1.8175115953794085
10
9.4621184033068459
20
1.6479784845362992
42
0.22544948219299843
10
9.4337738734491712
20
1.5883113500574042
10
9.433773873449173
20
1.4291756576418921
42
0.22544948219299882
0
LWPOLYLINE
5
192
100
AcDbEntity
8
0
100
AcDbPolyline
90
12
70
1
43
0.0
10
10.138274819000429
20
1.0292019251021109
10
9.9531253562186848
20
0.87830300781368786
42
0.22544948219300734
10
9.9278963089529242
20
0.82519417293304653
10
9.9278963089529242
20
0.68354984417612852
42
0.22544948219301558
10
9.9531253562186865
20
0.6304410092954883
10
10.138274819000433
20
0.47954209200706455
42
0.35589151571369154
10
10.224843427534671
20
0.4795420920070636
10
10.409992890316406
20
0.6304410092954873
42
0.22544948219299915
10
10.43522193758217
20
0.68354984417612885
10
10.435221937582162
20
0.82519417293304642
42
0.22544948219301003
10
10.409992890316403
20
0.87830300781368686
10
10.224843427534671
20
1.0292019251021112
42
0.35589151571370214
0
LWPOLYLINE
5
193
100
AcDbEntity
8
0
100
AcDbPolyline
90
12
70
1
43
0.0
10
10.894700446613912
20
-0.6950539702678844
10
10.894700446613903
20
-0.8136879938031838
42
0.22544948219301295
10
10.915831002375411
20
-0.85816922946193519
10
11.070902694394176
20
-0.98455442159884166
42
0.35589151571371647
10
11.143408120007752
20
-0.98455442159884243
10
11.298479812026516
20
-0.85816922946193641
42
0.22544948219299016
10
11.31961036778802
20
-0.8136879938031838
10
11.319610367788023
20
-0.69505397026788462
42
0.22544948219299155
10
11.298479812026516
20
-0.65057273460913156
10
11.143408120007745
20
-0.52418754247222665
42
0.35589151571367628
10
11.070902694394176
20
-0.52418754247222799
10
10.915831002375411
20
-0.65057273460913234
42
0.22544948219301503
0
LWPOLYLINE
5
194
100
AcDbEntity
8
0
100
AcDbPolyline
90
12
70
1
43
0.0
10
13.41268386822702
20
0.053730824348948297
10
13.3764864325247
20
0.024229502692206292
42
0.22544948219299465
10
13.371554056256842
20
0.013846520171305502
10
13.371554056256834
20
-0.013845493652253451
42
0.22544948219299127
10
13.3764864325247
20
-0.02422847617315417
10
13.41268386822702
20
-0.05372979782989535
42
0.35589151571373773
10
13.429608365841963
20
-0.053729797829896397
10
13.465805801544279
20
-0.024228476173155301
42
0.22544948219303018
10
13.47073817781215
20
-0.013845493652253434
10
13.47073817781215
20
0.013846520171305502
42
0.22544948219302838
10
13.465805801544279
20
0.024229502692206403
10
13.429608365841963
20
0.053730824348948381
42
0.35589151571374328
0
LWPOLYLINE
5
195
100
AcDbEntity
8
0
100
AcDbPolyline
90
12
70
1
43
0.0
10
-0.067514454765340001
20
0.77322191300838827
10
-0.067514454765339904
20
0.73552210410078667
42
0.22544948219299424
10
-0.060799535296363102
20
0.72138674870832631
10
-0.011520475361703461
20
0.68122375456614315
42
0.35589151571367311
10
0.0115204753616999
20
0.68122375456614304
10
0.060799535296359342
20
0.72138674870832631
42
0.22544948219299232
10
0.067514454765336199
20
0.73552210410078656
10
0.067514454765336102
20
0.77322191300838838
42
0.22544948219299432
10
0.060799535296359307
20
0.78735726840084885
10
0.011520475361699884
20
0.82752026254303201
42
0.35589151571367184
10
-0.011520475361703374
20
0.82752026254303213
10
-0.060799535296363186
20
0.78735726840084874
42
0.2254494821929923
0
LWPOLYLINE
5
196
100
AcDbEntity
8
0
100
AcDbPolyline
90
4
70
1
43
0.0
10
9.9138105711038378
20
3.6978999999999838
10
-9.9138105711038271
20
3.6979000000000144
42
0.99999999999999989
10
-9.9138105711038396
20
-3.697898973480938
10
9.9138105711038307
20
-3.6978989734809686
42
0.99999999999999989
0
LWPOLYLINE
5
197
100
AcDbEntity
8
0
100
AcDbPolyline
90
12
70
1
43
0.0
10
12.862380473931033
20
-0.70230622617247818
42
0.22544948219300665
10
12.851781477760566
20
-0.7246178232608792
10
12.851781477760564
20
-0.78412414081018966
42
0.22544948219300243
10
12.862380473931033
20
-0.80643573789859035
10
12.940163769761261
20
-0.86983000838450653
42
0.35589151571368688
10
12.976532180374303
20
-0.86983000838450519
10
13.054315476204543
20
-0.80643573789859002
42
0.22544948219298416
10
13.064914472375008
20
-0.78412414081018966
10
13.064914472375008
20
-0.7246178232608792
42
0.22544948219301808
10
13.05431547620454
20
-0.70230622617247862
10
12.976532180374306
20
-0.63891195568656689
42
0.35589151571377281
10
12.940163769761259
20
-0.63891195568656278
0
LWPOLYLINE
5
198
100
AcDbEntity
8
0
100
AcDbPolyline
90
12
70
1
43
0.0
10
13.06491452275408
20
0.78412518139498144
42
0.2254494821929918
10
13.054315521572963
20
0.80643678903113925
10
12.97653218897085
20
0.86983108948655463
42
0.35589151571369487
10
12.940163761164726
20
0.86983108948655341
10
12.862380428562609
20
0.80643678903113947
42
0.22544948219300967
10
12.851781427381493
20
0.78412518139498122
10
12.851781427381489
20
0.72461883571419361
42
0.22544948219299307
10
12.862380428562608
20
0.70230722807803569
10
12.940163761164724
20
0.63891292762262364
42
0.3558915157137072
10
12.97653218897085
20
0.63891292762262131
10
13.054315521572963
20
0.70230722807803614
42
0.22544948219299091
10
13.06491452275408
20
0.72461883571419372
0
LWPOLYLINE
5
199
100
AcDbEntity
8
0
100
AcDbPolyline
90
12
70
1
43
0.0
10
12.615551361588297
20
0.033504706608288332
42
0.22544948219300148
10
12.603616130788513
20
0.058629167121242436
10
12.516026554080442
20
0.13001566801852321
42
0.35589151571369693
10
12.47507311212172
20
0.13001566801852321
10
12.387483535413642
20
0.058629167121242803
42
0.22544948219301425
10
12.375548304613858
20
0.033504706608288255
10
12.375548304613858
20
-0.033503680089236328
42
0.22544948219301264
10
12.387483535413642
20
-0.058628140602189703
10
12.47507311212172
20
-0.13001464149947126
42
0.35589151571367528
10
12.516026554080442
20
-0.13001464149947128
10
12.603616130788513
20
-0.058628140602190217
42
0.22544948219300068
10
12.615551361588295
20
-0.0335036800892363
0
LWPOLYLINE
5
200
100
AcDbEntity
8
0
100
AcDbPolyline
90
12
70
1
43
0.0
10
-0.83570230311080329
20
-0.80314070209334498
10
-0.90856290717840937
20
-0.86252292282245824
42
-0.35589151571367317
10
-0.94262966068841991
20
-0.8625229228224579
10
-1.0154902647560256
20
-0.80314070209334432
42
-0.22544948219298969
10
-1.0254184794870631
20
-0.78224114487836238
10
-1.0254184794870629
20
-0.72650081919270115
42
-0.22544948219299218
10
-1.0154902647560253
20
-0.70560126197771922
10
-0.94262966068841947
20
-0.64621904124860585
42
-0.35589151571367517
10
-0.90856290717840893
20
-0.64621904124860596
10
-0.83570230311080307
20
-0.70560126197771955
42
-0.22544948219299069
10
-0.82577408837976574
20
-0.7265008191927016
10
-0.82577408837976551
20
-0.78224114487836294
42
-0.22544948219299199
0
CIRCLE
5
201
100
AcDbEntity
8
0
100
AcDbCircle
10
-10.642773679233082
20
3.1997638979590182
30
0
40
0.1099999999999999
210
0
220
0
230
1
0
LWPOLYLINE
5
202
100
AcDbEntity
8
0
100
AcDbPolyline
90
12
70
1
43
0.0
10
12.524760264753246
20
1.6942125931467489
42
0.35589151571368827
10
12.466339401448918
20
1.6942125931467498
10
12.341391205570684
20
1.5923783928639601
42
0.22544948219301508
10
12.324365371996976
20
1.5565378724334296
10
12.324365371996983
20
1.4609491352658659
42
0.22544948219300487
10
12.341391205570691
20
1.4251086148353356
10
12.466339401448913
20
1.323274414552549
42
0.35589151571367755
10
12.524760264753239
20
1.3232744145525461
10
12.649708460631473
20
1.4251086148353336
42
0.22544948219300684
10
12.666734294205179
20
1.4609491352658659
10
12.666734294205181
20
1.5565378724334296
42
0.22544948219299552
10
12.649708460631475
20
1.5923783928639601
0
LWPOLYLINE
5
203
100
AcDbEntity
8
0
100
AcDbPolyline
90
12
70
1
43
0.0
10
11.390480272946007
20
-0.050108076383201791
42
0.22544948219301275
10
11.408330503698084
20
-0.087684008110118672
10
11.539328737577589
20
-0.1944490581519584
42
0.35589151571371608
10
11.600578360757751
20
-0.19444905815195684
10
11.73157659463725
20
-0.087684008110119421
42
0.22544948219300015
10
11.749426825389321
20
-0.050108076383201805
10
11.749426825389325
20
0.050109102902253802
42
0.22544948219300204
10
11.73157659463725
20
0.087685034629170294
10
11.60057836075775
20
0.19445008467101144
42
0.3558915157137027
10
11.539328737577589
20
0.19445008467101021
10
11.408330503698087
20
0.087685034629170239
42
0.22544948219299074
10
11.390480272946011
20
0.050109102902253844
0
CIRCLE
5
204
100
AcDbEntity
8
0
100
AcDbCircle
10
10.65661058868101
20
3.2012728321984985
30
0
40
0.1099999999999999
210
0
220
0
230
1
0
CIRCLE
5
205
100
AcDbEntity
8
0
100
AcDbCircle
10
10.64659469437137
20
-3.2028923844218617
30
0
40
0.11000000000000081
210
0
220
0
230
1
0
CIRCLE
5
206
100
AcDbEntity
8
0
100
AcDbCircle
10
-10.637065826680271
20
-3.2064224655596067
30
0
40
0.1099999999999994
210
0
220
0
230
1
0
LWPOLYLINE
5
207
100
AcDbEntity
8
0
100
AcDbPolyline
90
12
70
1
43
0.0
10
3.8274288047170471
20
3.1117868863589226
10
3.8274288047170471
20
2.9231861025206158
42
0.22544948219299935
10
3.8610215234059941
20
2.8524711789149015
10
4.1075498109437483
20
2.6515478215824038
42
0.35589151571368677
10
4.2228167444569689
20
2.6515478215824033
10
4.4693450319947257
20
2.8524711789149011
42
0.22544948219299316
10
4.5029377506836727
20
2.9231861025206158
10
4.5029377506836727
20
3.1117868863589226
42
0.22544948219299096
10
4.4693450319947248
20
3.1825018099646361
10
4.222816744456968
20
3.383425167297136
42
0.355891515713676
10
4.1075498109437492
20
3.3834251672971356
10
3.861021523405995
20
3.1825018099646369
42
0.22544948219299191
0
LWPOLYLINE
5
208
100
AcDbEntity
8
0
100
AcDbPolyline
90
12
70
1
43
0.0
10
4.4185677600235849
20
1.64621088661338
10
4.2131953171248941
20
1.813591762629333
42
0.35589151571368038
10
4.1171712382758265
20
1.813591762629331
10
3.9117987953771367
20
1.64621088661338
42
0.22544948219299854
10
3.8838141013298015
20
1.5873012306248131
10
3.8838141013298011
20
1.430185777074483
42
0.22544948219299646
10
3.9117987953771367
20
1.3712761210859161
10
4.1171712382758248
20
1.2038952450699638
42
0.3558915157136946
10
4.2131953171248941
20
1.203895245069964
10
4.4185677600235858
20
1.3712761210859157
42
0.22544948219299649
10
4.4465524540709191
20
1.430185777074483
10
4.4465524540709209
20
1.5873012306248133
42
0.22544948219299502
0
LWPOLYLINE
5
209
100
AcDbEntity
8
0
100
AcDbPolyline
90
12
70
1
43
0.0
10
2.5410234162511856
20
-2.1352053608830639
42
0.22544948219299893
10
2.5149846331328081
20
-2.1900187439870549
10
2.5149846331328076
20
-2.3362092012642615
42
0.22544948219298827
10
2.5410234162511851
20
-2.3910225843682524
10
2.7321153213506348
20
-2.546764659710274
42
0.35589151571368083
10
2.8214623822498419
20
-2.5467646597102744
10
3.0125542873492899
20
-2.3910225843682524
42
0.22544948219299096
10
3.0385930704676682
20
-2.336209201264261
10
3.0385930704676696
20
-2.1900187439870544
42
0.22544948219299518
10
3.0125542873492912
20
-2.1352053608830635
10
2.8214623822498419
20
-1.9794632855410415
42
0.35589151571367711
10
2.7321153213506362
20
-1.9794632855410421
0
LWPOLYLINE
5
210
100
AcDbEntity
8
0
100
AcDbPolyline
90
12
70
1
43
0.0
10
4.4465524274643347
20
-1.5873001966772535
10
4.4465524274643355
20
-1.4301847579839384
42
0.22544948219299837
10
4.4185677360632649
20
-1.3712751075659333
10
4.2131953125848201
20
-1.2038942473777055
42
0.35589151571368782
10
4.1171712428158971
20
-1.2038942473777055
10
3.9117988193374571
20
-1.3712751075659337
42
0.22544948219300104
10
3.8838141279363869
20
-1.4301847579839384
10
3.883814127936386
20
-1.5873001966772535
42
0.22544948219299812
10
3.9117988193374571
20
-1.6462098470952569
10
4.117171242815898
20
-1.8135907072834854
42
0.35589151571368977
10
4.2131953125848218
20
-1.8135907072834854
10
4.418567736063264
20
-1.6462098470952578
42
0.22544948219299704
0
LWPOLYLINE
5
211
100
AcDbEntity
8
0
100
AcDbPolyline
90
12
70
1
43
0.0
10
2.6069561839660604
20
-2.9356900773653942
42
0.2254494821929976
10
2.5778181338577077
20
-2.8743525295916976
10
2.3639815086677074
20
-2.7000732487718597
42
0.35589151571367889
10
2.2639999109993578
20
-2.7000732487718611
10
2.0501632858093575
20
-2.8743525295916976
42
0.22544948219299549
10
2.0210252357010052
20
-2.9356900773653933
10
2.0210252357010048
20
-3.0992808584760425
42
0.22544948219299432
10
2.0501632858093579
20
-3.1606184062497364
10
2.2639999109993583
20
-3.3348976870695739
42
0.35589151571367322
10
2.363981508667707
20
-3.3348976870695757
10
2.5778181338577086
20
-3.1606184062497373
42
0.2254494821929901
10
2.60695618396606
20
-3.0992808584760425
0
LWPOLYLINE
5
212
100
AcDbEntity
8
0
100
AcDbPolyline
90
12
70
1
43
0.0
10
2.5149845810962814
20
2.3362102423118092
10
2.5149845810962814
20
2.1900197559776085
42
0.22544948219300825
10
2.5410233693901594
20
2.1352063619788413
10
2.7321153124712705
20
1.9794642556813347
42
0.35589151571367811
10
2.821462391129208
20
1.9794642556813338
10
3.0125543342103183
20
2.1352063619788417
42
0.22544948219300115
10
3.0385931225041967
20
2.1900197559776085
10
3.0385931225041958
20
2.3362102423118101
42
0.22544948219299604
10
3.0125543342103174
20
2.3910236363105759
10
2.821462391129208
20
2.5467657426080836
42
0.35589151571368371
10
2.73211531247127
20
2.5467657426080832
10
2.5410233693901589
20
2.3910236363105759
42
0.2254494821929954
0
LWPOLYLINE
5
213
100
AcDbEntity
8
0
100
AcDbPolyline
90
12
70
1
43
0.0
10
2.8120445049112024
20
0.9782247044999699
42
0.35589151571367889
10
2.7415331986892753
20
0.97822470449996946
10
2.590726449128713
20
0.85531548895824816
42
0.22544948219299549
10
2.5701770478207333
20
0.81205762236244095
10
2.5701770478207333
20
0.69668639474673433
42
0.22544948219299368
10
2.590726449128713
20
0.65342852815092689
10
2.7415331986892748
20
0.53051931260920582
42
0.3558915157136745
10
2.8120445049112015
20
0.53051931260920548
10
2.9628512544717633
20
0.65342852815092689
42
0.22544948219299346
10
2.983400655779743
20
0.69668639474673411
10
2.983400655779743
20
0.81205762236244095
42
0.22544948219299574
10
2.9628512544717629
20
0.85531548895824827
0
LWPOLYLINE
5
214
100
AcDbEntity
8
0
100
AcDbPolyline
90
12
70
1
43
0.0
10
4.4266726166926187
20
0.073007828105266806
42
0.22544948219299457
10
4.4006651511886474
20
0.12775528553260238
10
4.2098030779739224
20
0.2833100452754187
42
0.35589151571368466
10
4.1205634774267956
20
0.28331004527541864
10
3.9297014042120737
20
0.12775528553260229
42
0.22544948219299302
10
3.903693938708102
20
0.073007828105267
10
3.9036939387081029
20
-0.073006801586214976
42
0.22544948219299329
10
3.9297014042120737
20
-0.12775425901355059
10
4.1205634774267965
20
-0.2833090187563676
42
0.35589151571367628
10
4.2098030779739224
20
-0.28330901875636683
10
4.4006651511886474
20
-0.12775425901355086
42
0.22544948219299651
10
4.4266726166926178
20
-0.07300680158621492
0
LWPOLYLINE
5
215
100
AcDbEntity
8
0
100
AcDbPolyline
90
12
70
1
43
0.0
10
2.5011018609254982
20
-1.407230024828827
10
2.3494450828899609
20
-1.2836280264153044
42
0.35589151571367783
10
2.2785363367771061
20
-1.2836280264153044
10
2.1268795587415679
20
-1.407230024828827
42
0.22544948219299177
10
2.1062143298840503
20
-1.4507317161770423
10
2.1062143298840503
20
-1.5667532384841469
42
0.22544948219300101
10
2.1268795587415692
20
-1.6102549298323634
10
2.2785363367771061
20
-1.7338569282458853
42
0.35589151571367605
10
2.34944508288996
20
-1.7338569282458858
10
2.5011018609254982
20
-1.6102549298323632
42
0.22544948219299513
10
2.5217670897830162
20
-1.5667532384841469
10
2.5217670897830162
20
-1.4507317161770428
42
0.22544948219299632
0
LWPOLYLINE
5
216
100
AcDbEntity
8
0
100
AcDbPolyline
90
12
70
1
43
0.0
10
4.107549819378951
20
-2.651546848621928
10
3.8610215679229363
20
-2.8524701765473983
42
0.2254494821929994
10
3.8274288541506003
20
-2.9231850898033174
10
3.8274288541506012
20
-3.111785846038118
42
0.22544948219299873
10
3.8610215679229363
20
-3.1825007592940375
10
4.107549819378951
20
-3.3834240872195078
42
0.35589151571369382
10
4.2228167360217679
20
-3.3834240872195069
10
4.4693449874777835
20
-3.1825007592940362
42
0.22544948219299563
10
4.5029377012501195
20
-3.111785846038118
10
4.5029377012501195
20
-2.9231850898033174
42
0.22544948219299463
10
4.4693449874777835
20
-2.8524701765473996
10
4.222816736021767
20
-2.6515468486219289
42
0.35589151571367755
0
LWPOLYLINE
5
217
100
AcDbEntity
8
0
100
AcDbPolyline
90
12
70
1
43
0.0
10
3.9514238452771626
20
-0.68483985871521158
42
0.22544948219299538
10
3.9266547068007442
20
-0.63269916265075143
10
3.744880395857991
20
-0.48455103248606857
42
0.35589151571366634
10
3.6598898756093128
20
-0.48455103248606829
10
3.4781155646665587
20
-0.63269916265075166
42
0.22544948219299532
10
3.4533464261901403
20
-0.68483985871521169
10
3.4533464261901403
20
-0.82390210535585651
42
0.22544948219299837
10
3.4781155646665591
20
-0.87604280142031699
10
3.6598898756093123
20
-1.024190931585
42
0.35589151571366995
10
3.744880395857991
20
-1.0241909315850002
10
3.9266547068007442
20
-0.87604280142031743
42
0.22544948219299724
10
3.9514238452771626
20
-0.82390210535585662
0
LWPOLYLINE
5
218
100
AcDbEntity
8
0
100
AcDbPolyline
90
12
70
1
43
0.0
10
1.8776964067208359
20
0.92265582283250125
42
0.35589151571367472
10
1.8246887290128175
20
0.92265582283250103
10
1.7113180370596706
20
0.8302574198831183
42
0.22544948219299385
10
1.6958697905302744
20
0.79773782588169639
10
1.6958697905302738
20
0.71100619122747888
42
0.22544948219299724
10
1.7113180370596708
20
0.67848659722605664
10
1.8246887290128178
20
0.58608819427667391
42
0.35589151571367322
10
1.8776964067208366
20
0.58608819427667402
10
1.9910670986739831
20
0.67848659722605664
42
0.22544948219299726
10
2.006515345203379
20
0.71100619122747888
10
2.0065153452033795
20
0.79773782588169606
42
0.22544948219299829
10
1.991067098673982
20
0.8302574198831183
0
LWPOLYLINE
5
219
100
AcDbEntity
8
0
100
AcDbPolyline
90
12
70
1
43
0.0
10
2.0210251667136108
20
3.0992819042562401
10
2.0210251667136108
20
2.9356910846232993
42
0.22544948219300612
10
2.0501632236833793
20
2.8743535224058596
10
2.263999899227545
20
2.7000742005468057
42
0.3558915157136795
10
2.363981520439522
20
2.7000742005468057
10
2.5778181959836872
20
2.874353522405861
42
0.22544948219300201
10
2.6069562529534562
20
2.9356910846232989
10
2.6069562529534549
20
3.0992819042562401
42
0.22544948219298905
10
2.5778181959836868
20
3.1606194664736771
10
2.3639815204395211
20
3.3348987883327319
42
0.35589151571367622
10
2.2639998992275441
20
3.3348987883327319
10
2.0501632236833798
20
3.1606194664736762
42
0.22544948219298824
0
LWPOLYLINE
5
220
100
AcDbEntity
8
0
100
AcDbPolyline
90
12
70
1
43
0.0
10
2.4866068647670776
20
0.048194607975821681
42
0.22544948219299307
10
2.4694386363713678
20
0.084334879047348599
10
2.3434454416662263
20
0.18702076525554726
42
0.35589151571366773
10
2.2845359780008399
20
0.18702076525554689
10
2.1585427832956996
20
0.084334879047348529
42
0.22544948219299588
10
2.1413745548999898
20
0.048194607975821604
10
2.141374554899989
20
-0.048193581456769628
42
0.22544948219299424
10
2.1585427832956992
20
-0.084333852528296505
10
2.2845359780008394
20
-0.18701973873649494
42
0.355891515713674
10
2.3434454416662263
20
-0.1870197387364953
10
2.4694386363713674
20
-0.084333852528297004
42
0.22544948219299757
10
2.4866068647670776
20
-0.04819358145676958
0
LWPOLYLINE
5
221
100
AcDbEntity
8
0
100
AcDbPolyline
90
12
70
1
43
0.0
10
3.9944306105672771
20
2.1815764706042251
10
3.9944306105672767
20
2.3446535276851934
42
0.22544948219299735
10
3.9653840626598247
20
2.4057984571951998
10
3.7522189484928798
20
2.5795304488962696
42
0.35589151571367023
10
3.652551322974424
20
2.5795304488962696
10
3.4393862088074756
20
2.4057984571951998
42
0.22544948219299807
10
3.4103396609000241
20
2.3446535276851934
10
3.4103396609000241
20
2.1815764706042251
42
0.22544948219300498
10
3.439386208807476
20
2.1204315410942169
10
3.6525513229744231
20
1.9466995493931472
42
0.35589151571366739
10
3.7522189484928785
20
1.9466995493931472
10
3.9653840626598242
20
2.1204315410942165
42
0.22544948219301292
0
LWPOLYLINE
5
222
100
AcDbEntity
8
0
100
AcDbPolyline
90
12
70
1
43
0.0
10
2.5701770684091918
20
-0.6966853739759381
10
2.5701770684091914
20
-0.81205659009513032
42
0.22544948219299316
10
2.5907264676694637
20
-0.85531445238037629
10
2.7415332022024312
20
-0.97822365567443703
42
0.35589151571367506
10
2.8120445013980468
20
-0.97822365567443736
10
2.9628512359310122
20
-0.8553144523803764
42
0.22544948219298877
10
2.983400635191285
20
-0.81205659009513032
10
2.9834006351912832
20
-0.6966853739759381
42
0.2254494821929863
10
2.9628512359310131
20
-0.6534275116906918
10
2.812044501398046
20
-0.53051830839663117
42
0.35589151571367855
10
2.7415332022024308
20
-0.53051830839663139
10
2.5907264676694646
20
-0.65342751169069158
42
0.22544948219300007
0
LWPOLYLINE
5
223
100
AcDbEntity
8
0
100
AcDbPolyline
90
12
70
1
43
0.0
10
3.4393862467520853
20
-2.1204305351610615
42
0.22544948219299132
10
3.4103397030353735
20
-2.1815754558492815
10
3.4103397030353739
20
-2.3446524894020353
42
0.22544948219298855
10
3.4393862467520862
20
-2.4057974100902553
10
3.6525513301642798
20
-2.5795293767258527
42
0.35589151571366878
10
3.7522189413030231
20
-2.5795293767258527
10
3.9653840247152154
20
-2.4057974100902553
42
0.22544948219299502
10
3.9944305684319286
20
-2.3446524894020344
10
3.9944305684319286
20
-2.1815754558492815
42
0.22544948219299851
10
3.9653840247152168
20
-2.1204305351610602
10
3.7522189413030231
20
-1.9466985685254634
42
0.35589151571366628
10
3.6525513301642798
20
-1.9466985685254632
0
LWPOLYLINE
5
224
100
AcDbEntity
8
0
100
AcDbPolyline
90
12
70
1
43
0.0
10
2.0065153142918239
20
-0.79773679073219705
10
2.0065153142918248
20
-0.71100517333887114
42
0.22544948219299268
10
1.9910670708368605
20
-0.6784855858093346
10
1.8776964014461761
20
-0.58608720124861524
42
0.35589151571367145
10
1.824688734287478
20
-0.58608720124861524
10
1.7113180648967932
20
-0.67848558580933471
42
0.22544948219299488
10
1.695869821441828
20
-0.71100517333887114
10
1.6958698214418291
20
-0.79773679073219705
42
0.22544948219299374
10
1.7113180648967941
20
-0.8302563782617336
10
1.8246887342874774
20
-0.92265476282245285
42
0.35589151571367456
10
1.8776964014461761
20
-0.92265476282245329
10
1.9910670708368596
20
-0.83025637826173382
42
0.22544948219299291
0
LWPOLYLINE
5
225
100
AcDbEntity
8
0
100
AcDbPolyline
90
12
70
1
43
0.0
10
2.2785363291858158
20
1.7338580029651642
10
2.1268795186783933
20
1.610255978086685
42
0.22544948219299374
10
2.1062142853961543
20
1.5667542774241343
10
2.1062142853961543
20
1.4507327302751611
42
0.2254494821929936
10
2.1268795186783929
20
1.40723102961261
10
2.2785363291858167
20
1.2836290047341323
42
0.35589151571367245
10
2.3494450904812481
20
1.2836290047341308
10
2.5011019009886732
20
1.4072310296126109
42
0.22544948219299474
10
2.5217671342709123
20
1.4507327302751616
10
2.5217671342709136
20
1.566754277424135
42
0.22544948219299171
10
2.5011019009886737
20
1.6102559780866856
10
2.3494450904812494
20
1.733858002965164
42
0.3558915157136765
0
LWPOLYLINE
5
226
100
AcDbEntity
8
0
100
AcDbPolyline
90
12
70
1
43
0.0
10
2.0588970313333901
20
2.3757998357191559
10
1.890549022520934
20
2.5130053769926293
42
0.35589151571367345
10
1.8118361132127212
20
2.5130053769926279
10
1.643488104400264
20
2.3757998357191563
42
0.22544948219299382
10
1.6205484760178002
20
2.3275103809825519
10
1.6205484760178006
20
2.1987196173068639
42
0.22544948219300059
10
1.643488104400264
20
2.15043016257026
10
1.8118361132127203
20
2.013224621296787
42
0.35589151571367478
10
1.8905490225209332
20
2.013224621296787
10
2.0588970313333901
20
2.1504301625702609
42
0.22544948219300548
10
2.0818366597158535
20
2.1987196173068648
10
2.0818366597158531
20
2.3275103809825519
42
0.22544948219299965
0
LWPOLYLINE
5
227
100
AcDbEntity
8
0
100
AcDbPolyline
90
12
70
1
43
0.0
10
3.0163686174487792
20
-1.6298439974232322
10
3.1972909171256116
20
-1.777297728718952
42
0.35589151571367522
10
3.2818830704082833
20
-1.7772977287189529
10
3.4628053700851185
20
-1.6298439974232328
42
0.22544948219299243
10
3.4874584108306776
20
-1.5779476948609641
10
3.4874584108306772
20
-1.4395372598002258
42
0.22544948219299657
10
3.4628053700851185
20
-1.387640957237958
10
3.2818830704082833
20
-1.240187225942238
42
0.35589151571367095
10
3.1972909171256125
20
-1.2401872259422393
10
3.0163686174487787
20
-1.387640957237958
42
0.2254494821929966
10
2.99171557670322
20
-1.4395372598002258
10
2.9917155767032195
20
-1.5779476948609639
42
0.22544948219299649
0
LWPOLYLINE
5
228
100
AcDbEntity
8
0
100
AcDbPolyline
90
12
70
1
43
0.0
10
3.2016165369332321
20
0.24109061877403198
10
3.0391971610561312
20
0.10871698075053156
42
0.22544948219299765
10
3.0170653868164781
20
0.062128113112054295
10
3.017065386816479
20
-0.062127086593002201
42
0.22544948219299829
10
3.0391971610561317
20
-0.10871595423147902
10
3.2016165369332312
20
-0.24108959225497953
42
0.35589151571367933
10
3.2775574506006633
20
-0.24108959225497964
10
3.439976826477765
20
-0.10871595423147931
42
0.2254494821929986
10
3.4621086007174173
20
-0.062127086593002097
10
3.4621086007174173
20
0.062128113112054101
42
0.22544948219299257
10
3.439976826477765
20
0.108716980750531
10
3.2775574506006633
20
0.24109061877403154
42
0.3558915157136735
0
LWPOLYLINE
5
229
100
AcDbEntity
8
0
100
AcDbPolyline
90
12
70
1
43
0.0
10
3.1972909114415686
20
1.2401882163709568
42
0.35589151571367467
10
3.2818830760923263
20
1.2401882163709559
10
3.4628054000827655
20
1.38764196748254
42
0.22544948219299524
10
3.4874584441413718
20
1.4395382770189968
10
3.4874584441413727
20
1.5779487306802984
42
0.2254494821929923
10
3.4628054000827651
20
1.6298450402167552
10
3.2818830760923259
20
1.7772987913283389
42
0.35589151571367317
10
3.1972909114415682
20
1.7772987913283389
10
3.0163685874511312
20
1.6298450402167552
42
0.22544948219299404
10
2.991715543392524
20
1.5779487306802984
10
2.991715543392524
20
1.4395382770189968
42
0.2254494821929959
10
3.0163685874511312
20
1.3876419674825398
0
LWPOLYLINE
5
230
100
AcDbEntity
8
0
100
AcDbPolyline
90
12
70
1
43
0.0
10
3.2934789128072066
20
-2.6753034261113493
42
0.35589151571367922
10
3.1856950747266888
20
-2.6753034261113502
10
2.9551713311312229
20
-2.8631828981616456
42
0.22544948219299649
10
2.9237594418625754
20
-2.929307029718597
10
2.9237594418625763
20
-3.1056639061228375
42
0.2254494821929976
10
2.9551713311312233
20
-3.1717880376797885
10
3.1856950747266879
20
-3.3596675097300861
42
0.35589151571367594
10
3.2934789128072062
20
-3.3596675097300865
10
3.5240026564026738
20
-3.1717880376797893
42
0.22544948219299149
10
3.5554145456713204
20
-3.1056639061228388
10
3.5554145456713204
20
-2.9293070297185975
42
0.22544948219299513
10
3.524002656402673
20
-2.8631828981616452
0
LWPOLYLINE
5
231
100
AcDbEntity
8
0
100
AcDbPolyline
90
12
70
1
43
0.0
10
2.0818365935284429
20
-2.327509335984105
10
2.0818365935284442
20
-2.19871860926721
42
0.22544948219299732
10
2.0588969717289136
20
-2.1504291683881203
10
1.8905490112269006
20
-2.0132236664882099
42
0.35589151571367056
10
1.8118361245067518
20
-2.0132236664882099
10
1.6434881640047401
20
-2.1504291683881203
42
0.2254494821930004
10
1.6205485422052102
20
-2.19871860926721
10
1.6205485422052093
20
-2.327509335984105
42
0.22544948219299218
10
1.6434881640047403
20
-2.3757987768631947
10
1.8118361245067525
20
-2.5130042787631055
42
0.3558915157136775
10
1.8905490112269008
20
-2.5130042787631064
10
2.0588969717289132
20
-2.3757987768631943
42
0.22544948219299493
0
LWPOLYLINE
5
232
100
AcDbEntity
8
0
100
AcDbPolyline
90
12
70
1
43
0.0
10
3.9514238605940681
20
0.82390313615136035
42
0.22544948219299499
10
3.9266547205942457
20
0.87604383542268827
10
3.7448803984716248
20
1.0241919746990917
42
0.35589151571366601
10
3.6598898729956786
20
1.024191974699092
10
3.4781155508730559
20
0.87604383542268838
42
0.22544948219299579
10
3.453346410873233
20
0.82390313615136024
10
3.4533464108732339
20
0.68484088095781481
42
0.22544948219299552
10
3.4781155508730559
20
0.63270018168648678
10
3.6598898729956786
20
0.48455204241008398
42
0.35589151571367628
10
3.7448803984716248
20
0.48455204241008365
10
3.9266547205942457
20
0.63270018168648678
42
0.22544948219299535
10
3.951423860594069
20
0.68484088095781481
0
LWPOLYLINE
5
233
100
AcDbEntity
8
0
100
AcDbPolyline
90
12
70
1
43
0.0
10
3.1856950648732814
20
3.3596685988124864
10
2.9551712791296749
20
3.1717890924109735
42
0.22544948219299285
10
2.9237593841177882
20
3.1056649487641215
10
2.9237593841177878
20
2.9293080401154166
42
0.22544948219300129
10
2.955171279129674
20
2.8631838964685636
10
3.18569506487328
20
2.6753043900670503
42
0.35589151571367972
10
3.2934789226606136
20
2.6753043900670503
10
3.524002708404224
20
2.8631838964685628
42
0.22544948219300129
10
3.5554146034161094
20
2.9293080401154166
10
3.5554146034161094
20
3.1056649487641215
42
0.22544948219299443
10
3.5240027084042231
20
3.1717890924109735
10
3.2934789226606132
20
3.3596685988124859
42
0.35589151571366995
0
LWPOLYLINE
5
234
100
AcDbEntity
8
0
100
AcDbPolyline
90
12
70
1
43
0.0
10
1.6359996243128181
20
2.8831545169153183
42
0.22544948219300256
10
1.6633460334479682
20
2.9407205403976331
10
1.6633460334479673
20
3.0942524484819058
42
0.22544948219299007
10
1.6359996243128172
20
3.1518184719642202
10
1.4353113895551604
20
3.3153816650864925
42
0.35589151571367755
10
1.34147746224508
20
3.315381665086492
10
1.1407892274874245
20
3.1518184719642193
42
0.22544948219299488
10
1.1134428183522744
20
3.0942524484819049
10
1.1134428183522751
20
2.9407205403976326
42
0.22544948219300098
10
1.140789227487425
20
2.8831545169153183
10
1.3414774622450807
20
2.7195913237930451
42
0.35589151571367278
10
1.4353113895551601
20
2.7195913237930447
0
LWPOLYLINE
5
235
100
AcDbEntity
8
0
100
AcDbPolyline
90
12
70
1
43
0.0
10
-12.603616130788513
20
-0.058628140602159061
42
-0.22544948219299693
10
-12.615551361588295
20
-0.033503680089205914
10
-12.615551361588297
20
0.033504706608318599
42
-0.22544948219300096
10
-12.603616130788513
20
0.058629167121272641
10
-12.51602655408044
20
0.13001566801855427
42
-0.35589151571368255
10
-12.47507311212172
20
0.13001566801855322
10
-12.387483535413642
20
0.058629167121272592
42
-0.22544948219301497
10
-12.375548304613858
20
0.033504706608317975
10
-12.375548304613858
20
-0.033503680089206504
42
-0.22544948219301617
10
-12.387483535413642
20
-0.058628140602160567
10
-12.475073112121722
20
-0.13001464149944233
42
-0.35589151571366073
10
-12.516026554080442
20
-0.13001464149944128
0
LWPOLYLINE
5
236
100
AcDbEntity
8
0
100
AcDbPolyline
90
12
70
1
43
0.0
10
-12.649708406531666
20
-1.5923773369943861
42
-0.22544948219298167
10
-12.666734234130395
20
-1.5565368291415838
10
-12.666734234130402
20
-1.460948125519546
42
-0.22544948219299257
10
-12.649708406531673
20
-1.4251076176667437
10
-12.524760254502251
20
-1.3232734531212391
42
-0.35589151571369959
10
-12.466339411699908
20
-1.3232734531212407
10
-12.3413912596705
20
-1.4251076176667454
42
-0.22544948219299632
10
-12.324365432071772
20
-1.4609481255195469
10
-12.324365432071771
20
-1.556536829141584
42
-0.22544948219299155
10
-12.3413912596705
20
-1.5923773369943861
10
-12.466339411699909
20
-1.6942115015398911
42
-0.355891515713674
10
-12.524760254502254
20
-1.6942115015398902
0
LWPOLYLINE
5
237
100
AcDbEntity
8
0
100
AcDbPolyline
90
12
70
1
43
0.0
10
-12.243805359697555
20
2.1486131355181564
42
-0.22544948219300931
10
-12.267114886343208
20
2.1976812508825483
10
-12.267114886343212
20
2.3285487474069284
42
-0.22544948219299518
10
-12.243805359697557
20
2.377616862771319
10
-12.072742763053373
20
2.5170348239921019
42
-0.35589151571368338
10
-11.99276061921536
20
2.5170348239920983
10
-11.821698022571178
20
2.3776168627713221
42
-0.22544948219302016
10
-11.79838849592552
20
2.3285487474069271
10
-11.798388495925522
20
2.197681250882547
42
-0.2254494821930132
10
-11.821698022571177
20
2.1486131355181546
10
-11.99276061921536
20
2.0091951742973762
42
-0.35589151571370164
10
-12.072742763053377
20
2.0091951742973753
0
LWPOLYLINE
5
238
100
AcDbEntity
8
0
100
AcDbPolyline
90
12
70
1
43
0.0
10
-12.178775418779406
20
0.67515050502481011
42
-0.2254494821930027
10
-12.194902804735841
20
0.70909973302356444
10
-12.194902804735841
20
0.79964428408566934
42
-0.2254494821929994
10
-12.178775418779406
20
0.83359351208442312
10
-12.060420697950931
20
0.93005395523485357
42
-0.35589151571372668
10
-12.005082684317811
20
0.93005395523485657
10
-11.886727963489335
20
0.83359351208441845
42
-0.22544948219297073
10
-11.870600577532905
20
0.79964428408566857
10
-11.870600577532901
20
0.70909973302356366
42
-0.22544948219299907
10
-11.886727963489337
20
0.67515050502480978
10
-12.005082684317811
20
0.57869006187437622
42
-0.35589151571367317
10
-12.060420697950926
20
0.57869006187437622
0
LWPOLYLINE
5
239
100
AcDbEntity
8
0
100
AcDbPolyline
90
12
70
1
43
0.0
10
-12.178775392528681
20
-0.83359247132363856
42
-0.22544948219299177
10
-12.194902775585891
20
-0.79964324942794696
10
-12.194902775585891
20
-0.70909871464306284
42
-0.22544948219299024
10
-12.178775392528681
20
-0.67514949274737135
10
-12.060420692976859
20
-0.57868906693766031
42
-0.35589151571368899
10
-12.005082689291877
20
-0.57868906693766187
10
-11.886727989740059
20
-0.67514949274737324
42
-0.2254494821929923
10
-11.870600606682853
20
-0.70909871464306373
10
-11.870600606682853
20
-0.79964324942794796
42
-0.22544948219299848
10
-11.886727989740063
20
-0.83359247132363878
10
-12.005082689291878
20
-0.93005289713335271
42
-0.35589151571366406
10
-12.06042069297686
20
-0.93005289713335049
0
LWPOLYLINE
5
240
100
AcDbEntity
8
0
100
AcDbPolyline
90
12
70
1
43
0.0
10
-12.243805301898572
20
-2.3776158048948166
42
-0.22544948219299574
10
-12.267114822160696
20
-2.3285477029681818
10
-12.267114822160689
20
-2.1976802422830746
42
-0.22544948219299393
10
-12.243805301898565
20
-2.148612140356438
10
-12.072742752101464
20
-2.0091942173165536
42
-0.35589151571367744
10
-11.9927606301673
20
-2.0091942173165545
10
-11.821698080370179
20
-2.1486121403564389
42
-0.22544948219301642
10
-11.798388560108053
20
-2.1976802422830763
10
-11.798388560108053
20
-2.3285477029681836
42
-0.22544948219300071
10
-11.821698080370179
20
-2.3776158048948175
10
-11.992760630167293
20
-2.5170337279346966
42
-0.35589151571370448
10
-12.072742752101465
20
-2.5170337279347015
0
LWPOLYLINE
5
241
100
AcDbEntity
8
0
100
AcDbPolyline
90
12
70
1
43
0.0
10
-11.761804899626867
20
1.4046593753130574
42
-0.22544948219300115
10
-11.782993653160403
20
1.4492631211812712
10
-11.7829936531604
20
1.56822388651808
42
-0.22544948219299829
10
-11.761804899626867
20
1.6128276323862931
10
-11.606306109188081
20
1.7395609145915645
42
-0.35589151571370475
10
-11.533600989147242
20
1.739560914591566
10
-11.378102198708451
20
1.6128276323862898
42
-0.22544948219298777
10
-11.356913445174921
20
1.5682238865180795
10
-11.356913445174923
20
1.449263121181271
42
-0.22544948219301653
10
-11.378102198708458
20
1.4046593753130581
10
-11.533600989147242
20
1.2779260931077863
42
-0.35589151571370575
10
-11.606306109188079
20
1.2779260931077863
0
LWPOLYLINE
5
242
100
AcDbEntity
8
0
100
AcDbPolyline
90
12
70
1
43
0.0
10
-11.731576594637252
20
-0.087684008110090042
42
-0.22544948219299052
10
-11.749426825389328
20
-0.050108076383173529
10
-11.749426825389325
20
0.050109102902281995
42
-0.22544948219301247
10
-11.731576594637247
20
0.087685034629198869
10
-11.60057836075775
20
0.19445008467103922
42
-0.35589151571370198
10
-11.539328737577589
20
0.19445008467103789
10
-11.408330503698089
20
0.087685034629198827
42
-0.22544948219300137
10
-11.390480272946011
20
0.050109102902281155
10
-11.390480272946007
20
-0.050108076383174396
42
-0.22544948219301303
10
-11.408330503698084
20
-0.087684008110091374
10
-11.539328737577591
20
-0.19444905815193181
42
-0.35589151571370492
10
-11.600578360757751
20
-0.19444905815192903
0
LWPOLYLINE
5
243
100
AcDbEntity
8
0
100
AcDbPolyline
90
12
70
1
43
0.0
10
-11.761804861126688
20
-1.612826584979874
42
-0.22544948219299918
10
-11.782993610408123
20
-1.5682228480626146
10
-11.782993610408122
20
-1.4492621065985192
42
-0.22544948219300678
10
-11.761804861126686
20
-1.40465836968126
10
-11.606306101892962
20
-1.2779251129084663
42
-0.35589151571371352
10
-11.533600996442381
20
-1.2779251129084657
10
-11.378102237208651
20
-1.4046583696812642
42
-0.22544948219298439
10
-11.356913487927221
20
-1.4492621065985203
10
-11.356913487927212
20
-1.568222848062615
42
-0.22544948219301486
10
-11.378102237208648
20
-1.6128265849798737
10
-11.533600996442379
20
-1.7395598417526661
42
-0.35589151571371852
10
-11.60630610189296
20
-1.7395598417526661
0
LWPOLYLINE
5
244
100
AcDbEntity
8
0
100
AcDbPolyline
90
12
70
1
43
0.0
10
-11.346488407703434
20
2.1332708946975774
42
-0.22544948219301114
10
-11.372921205533368
20
2.1889137051690062
10
-11.372921205533363
20
2.3373162931204652
42
-0.22544948219300159
10
-11.346488407703427
20
2.392959103591894
10
-11.15250493038549
20
2.5510578431687261
42
-0.35589151571367966
10
-11.061805884016433
20
2.5510578431687265
10
-10.86782240669848
20
2.3929591035918913
42
-0.22544948219298708
10
-10.841389608868546
20
2.3373162931204634
10
-10.841389608868546
20
2.1889137051690049
42
-0.22544948219301592
10
-10.86782240669848
20
2.1332708946975769
10
-11.061805884016431
20
1.9751721551207468
42
-0.3558915157136946
10
-11.15250493038549
20
1.9751721551207446
0
LWPOLYLINE
5
245
100
AcDbEntity
8
0
100
AcDbPolyline
90
12
70
1
43
0.0
10
-11.298479829798717
20
0.65057375148634911
42
-0.22544948219298827
10
-11.319610387523049
20
0.695054991276983
10
-11.319610387523047
20
0.81368902583224667
42
-0.22544948219299465
10
-11.298479829798715
20
0.85817026562287979
10
-11.143408123375277
20
0.98455546949975781
42
-0.3558915157136962
10
-11.070902691026648
20
0.98455546949975936
10
-10.915830984603211
20
0.85817026562288012
42
-0.22544948219302269
10
-10.894700426878876
20
0.81368902583224578
10
-10.894700426878876
20
0.69505499127698167
42
-0.22544948219300945
10
-10.915830984603209
20
0.65057375148634955
10
-11.070902691026648
20
0.52418854760946687
42
-0.35589151571364203
10
-11.143408123375275
20
0.52418854760946754
0
LWPOLYLINE
5
246
100
AcDbEntity
8
0
100
AcDbPolyline
90
12
70
1
43
0.0
10
-11.298479812026516
20
-0.85816922946190932
42
-0.22544948219299074
10
-11.319610367788023
20
-0.8136879938031566
10
-11.319610367788023
20
-0.69505397026785753
42
-0.2254494821929916
10
-11.298479812026516
20
-0.65057273460910447
10
-11.143408120007752
20
-0.5241875424721989
42
-0.35589151571366767
10
-11.070902694394185
20
-0.52418754247220134
10
-10.915831002375409
20
-0.65057273460910703
42
-0.22544948219300914
10
-10.894700446613903
20
-0.69505397026785831
10
-10.894700446613903
20
-0.81368799380315771
42
-0.22544948219301211
10
-10.915831002375411
20
-0.85816922946190899
10
-11.070902694394182
20
-0.9845544215988139
42
-0.3558915157136987
10
-11.143408120007754
20
-0.98455442159881623
0
LWPOLYLINE
5
247
100
AcDbEntity
8
0
100
AcDbPolyline
90
12
70
1
43
0.0
10
-11.346488362161153
20
-2.3929580523649636
42
-0.22544948219298305
10
-11.372921154961233
20
-2.3373152524817153
10
-11.372921154961233
20
-2.188912692769545
42
-0.22544948219298169
10
-11.346488362161153
20
-2.1332698928862972
10
-11.152504921756011
20
-1.9751711833938204
42
-0.35589151571367028
10
-11.06180589264593
20
-1.9751711833938201
10
-10.867822452240787
20
-2.1332698928862963
42
-0.22544948219302416
10
-10.841389659440704
20
-2.1889126927695473
10
-10.841389659440706
20
-2.3373152524817158
42
-0.22544948219301367
10
-10.867822452240786
20
-2.3929580523649645
10
-11.06180589264593
20
-2.5510567618574402
42
-0.35589151571371141
10
-11.152504921756011
20
-2.5510567618574411
0
LWPOLYLINE
5
248
100
AcDbEntity
8
0
100
AcDbPolyline
90
12
70
1
43
0.0
10
-10.871736825930022
20
1.3853844377528692
42
-0.22544948219299882
10
-10.896849442852519
20
1.438248178959928
10
-10.89684944285252
20
1.579238828739419
42
-0.22544948219299155
10
-10.871736825930023
20
1.6321025699464784
10
-10.68744181537072
20
1.7823050989586229
42
-0.35589151571367011
10
-10.60127271509778
20
1.7823050989586231
10
-10.416977704538471
20
1.63210256994648
42
-0.22544948219300362
10
-10.391865087615969
20
1.5792388287394177
10
-10.391865087615971
20
1.4382481789599284
42
-0.22544948219299796
10
-10.416977704538468
20
1.3853844377528675
10
-10.601272715097778
20
1.2351819087407234
42
-0.35589151571367156
10
-10.68744181537072
20
1.235181908740723
0
LWPOLYLINE
5
249
100
AcDbEntity
8
0
100
AcDbPolyline
90
12
70
1
43
0.0
10
-10.849687193090464
20
-0.11139607869691044
42
-0.22544948219300109
10
-10.872364569215211
20
-0.063658682534121783
10
-10.872364569215211
20
0.063659709053226002
42
-0.22544948219300215
10
-10.849687193090464
20
0.11139710521601524
10
-10.68326378587388
20
0.24703407430642832
42
-0.35589151571368804
10
-10.605450744594634
20
0.24703407430642535
10
-10.439027337378031
20
0.11139710521601287
42
-0.22544948219297789
10
-10.416349961253289
20
0.063659709053224725
10
-10.416349961253289
20
-0.063658682534122699
42
-0.22544948219299185
10
-10.439027337378036
20
-0.11139607869691137
10
-10.605450744594629
20
-0.24703304778732843
42
-0.35589151571366479
10
-10.683263785873876
20
-0.24703304778732643
0
LWPOLYLINE
5
250
100
AcDbEntity
8
0
100
AcDbPolyline
90
12
70
1
43
0.0
10
-10.871736796868214
20
-1.6321015276606152
42
-0.22544948219299432
10
-10.896849410581023
20
-1.5792377932101718
10
-10.896849410581019
20
-1.438247161450966
42
-0.22544948219300243
10
-10.871736796868213
20
-1.3853834270005221
10
-10.687441809864
20
-1.2351809171860502
42
-0.35589151571365651
10
-10.601272720604499
20
-1.2351809171860502
10
-10.416977733600294
20
-1.3853834270005279
42
-0.2254494821929709
10
-10.391865119887491
20
-1.4382471614509675
10
-10.391865119887489
20
-1.5792377932101731
42
-0.22544948219297775
10
-10.416977733600294
20
-1.6321015276606161
10
-10.6012727206045
20
-1.7823040374750887
42
-0.35589151571367206
10
-10.687441809864001
20
-1.7823040374750878
0
LWPOLYLINE
5
251
100
AcDbEntity
8
0
100
AcDbPolyline
90
12
70
1
43
0.0
10
-10.447693156178932
20
2.11873066813421
42
-0.22544948219300071
10
-10.477085956473264
20
2.1806044821180559
10
-10.477085956473262
20
2.3456255161714101
42
-0.2254494821930024
10
-10.447693156178932
20
2.4074993301552561
10
-10.231986985160251
20
2.5833023120819214
42
-0.35589151571369454
10
-10.131131261374826
20
2.5833023120819214
10
-9.9154250903561429
20
2.4074993301552565
42
-0.22544948219301411
10
-9.8860322900618112
20
2.3456255161714092
10
-9.8860322900618129
20
2.180604482118055
42
-0.22544948219300393
10
-9.9154250903561429
20
2.1187306681342108
10
-10.131131261374829
20
1.942927686207542
42
-0.35589151571368349
10
-10.231986985160253
20
1.9429276862075451
0
LWPOLYLINE
5
252
100
AcDbEntity
8
0
100
AcDbPolyline
90
12
70
1
43
0.0
10
-10.409992890316406
20
0.63044100929551239
42
-0.22544948219299862
10
-10.435221937582163
20
0.68354984417615361
10
-10.435221937582162
20
0.82519417293307151
42
-0.2254494821930112
10
-10.409992890316403
20
0.87830300781371262
10
-10.22484342753466
20
1.0292019251021347
42
-0.35589151571369892
10
-10.138274819000419
20
1.0292019251021365
10
-9.9531253562186812
20
0.87830300781370974
42
-0.22544948219299488
10
-9.9278963089529242
20
0.82519417293307029
10
-9.9278963089529242
20
0.68354984417615272
42
-0.22544948219301081
10
-9.9531253562186848
20
0.63044100929551172
10
-10.138274819000419
20
0.47954209200708875
42
-0.35589151571369027
10
-10.224843427534658
20
0.47954209200708808
0
LWPOLYLINE
5
253
100
AcDbEntity
8
0
100
AcDbPolyline
90
12
70
1
43
0.0
10
-10.40999287694282
20
-0.8783019740391057
42
-0.22544948219299588
10
-10.43522192273155
20
-0.8251931422677059
10
-10.43522192273155
20
-0.68354882180331256
42
-0.2254494821930024
10
-10.409992876942818
20
-0.63043999003191242
10
-10.224843425000604
20
-0.47954108157781944
42
-0.35589151571370198
10
-10.138274821534498
20
-0.47954108157782183
10
-9.9531253695922732
20
-0.63043999003191353
42
-0.22544948219300687
10
-9.9278963238035409
20
-0.68354882180331378
10
-9.9278963238035409
20
-0.82519314226770679
42
-0.22544948219300362
10
-9.9531253695922732
20
-0.87830197403910581
10
-10.138274821534502
20
-1.0292008824931991
42
-0.35589151571368305
10
-10.224843425000605
20
-1.0292008824931977
0
LWPOLYLINE
5
254
100
AcDbEntity
8
0
100
AcDbPolyline
90
12
70
1
43
0.0
10
-10.447693119115149
20
-2.4074982835281213
42
-0.22544948219298616
10
-10.477085915316017
20
-2.3456244781612821
10
-10.477085915316016
20
-2.1806034670899832
42
-0.2254494821930024
10
-10.447693119115144
20
-2.118729661723143
10
-10.231986978137309
20
-1.9429267042801093
42
-0.3558915157137077
10
-10.131131268397795
20
-1.9429267042801079
10
-9.9154251274199563
20
-2.1187296617231448
42
-0.22544948219300531
10
-9.8860323312190843
20
-2.180603467089985
10
-9.8860323312190843
20
-2.3456244781612847
42
-0.22544948219299243
10
-9.9154251274199563
20
-2.4074982835281213
10
-10.1311312683978
20
-2.5833012409711631
42
-0.35589151571367178
10
-10.231986978137307
20
-2.5833012409711613
0
LWPOLYLINE
5
255
100
AcDbEntity
8
0
100
AcDbPolyline
90
12
70
1
43
0.0
10
-10.025167892457553
20
2.851253125485087
42
-0.22544948219300734
10
-10.059008574349715
20
2.9224900282474922
10
-10.059008574349713
20
3.1124829606320938
42
-0.22544948219299724
10
-10.025167892457551
20
3.1837198633944981
10
-9.7768198670049689
20
3.3861263278177294
42
-0.35589151571369615
10
-9.660702095596692
20
3.3861263278177285
10
-9.4123540701441097
20
3.1837198633944981
42
-0.22544948219301419
10
-9.3785133882519496
20
3.112482960632093
10
-9.3785133882519496
20
2.9224900282474904
42
-0.22544948219299757
10
-9.412354070144108
20
2.8512531254850852
10
-9.6607020955966902
20
2.6488466610618575
42
-0.35589151571368571
10
-9.7768198670049706
20
2.6488466610618562
0
LWPOLYLINE
5
256
100
AcDbEntity
8
0
100
AcDbPolyline
90
12
70
1
43
0.0
10
-9.9754035592948291
20
1.3695085231630206
42
-0.22544948219299071
10
-10.0037480891525
20
1.4291756576419163
10
-10.0037480891525
20
1.5883113500574284
42
-0.22544948219298822
10
-9.9754035592948274
20
1.6479784845363228
10
-9.7673903743074035
20
1.8175115953794305
42
-0.35589151571373595
10
-9.6701315882942662
20
1.8175115953794325
10
-9.4621184033068406
20
1.6479784845363206
42
-0.22544948219298741
10
-9.433773873449173
20
1.5883113500574271
10
-9.433773873449173
20
1.429175657641915
42
-0.22544948219299607
10
-9.4621184033068424
20
1.36950852316302
10
-9.6701315882942662
20
1.199975412319912
42
-0.35589151571371425
10
-9.7673903743074035
20
1.1999754123199109
0
LWPOLYLINE
5
257
100
AcDbEntity
8
0
100
AcDbPolyline
90
12
70
1
43
0.0
10
-9.9579479261481758
20
-0.12976435236262041
42
-0.2254494821930027
10
-9.9843645930659672
20
-0.074155498542050224
10
-9.9843645930659672
20
0.074156525061150197
42
-0.22544948219300134
10
-9.9579479261481758
20
0.12976537888172002
10
-9.7640828294288369
20
0.28776763692472063
42
-0.35589151571371025
10
-9.6734391331728435
20
0.28776763692471985
10
-9.4795740364535028
20
0.12976537888171935
42
-0.2254494821930059
10
-9.4531573695357114
20
0.074156525061148823
10
-9.4531573695357132
20
-0.074155498542051515
42
-0.22544948219299096
10
-9.4795740364535046
20
-0.12976435236262127
10
-9.6734391331728435
20
-0.28776661040562057
42
-0.35589151571369293
10
-9.7640828294288369
20
-0.28776661040562229
0
LWPOLYLINE
5
258
100
AcDbEntity
8
0
100
AcDbPolyline
90
12
70
1
43
0.0
10
-9.9754035358957545
20
-1.6479774453226383
42
-0.2254494821929891
10
-10.003748063169146
20
-1.588310316283823
10
-10.003748063169146
20
-1.4291746383773201
42
-0.22544948219299321
10
-9.9754035358957545
20
-1.3695075093385034
10
-9.7673903698736826
20
-1.1999744139523756
42
-0.35589151571373989
10
-9.6701315927279996
20
-1.1999744139523758
10
-9.4621184267059277
20
-1.3695075093385065
42
-0.22544948219299266
10
-9.4337738994325377
20
-1.4291746383773207
10
-9.4337738994325377
20
-1.5883103162838241
42
-0.22544948219299488
10
-9.4621184267059295
20
-1.647977445322639
10
-9.6701315927279996
20
-1.8175105407087686
42
-0.35589151571370814
10
-9.7673903698736826
20
-1.8175105407087693
0
LWPOLYLINE
5
259
100
AcDbEntity
8
0
100
AcDbPolyline
90
12
70
1
43
0.0
10
-10.025167848697441
20
-3.1837188131344418
42
-0.22544948219299993
10
-10.059008525756576
20
-3.1124819205458798
10
-10.059008525756575
20
-2.922489015295505
42
-0.22544948219300262
10
-10.025167848697441
20
-2.8512521227069425
10
-9.7768198587131891
20
-2.6488456871908053
42
-0.35589151571367744
10
-9.6607021038885055
20
-2.6488456871908022
10
-9.4123541139042501
20
-2.8512521227069443
42
-0.22544948219299321
10
-9.37851343684512
20
-2.922489015295505
10
-9.3785134368451164
20
-3.112481920545882
42
-0.2254494821930158
10
-9.4123541139042501
20
-3.1837188131344436
10
-9.6607021038885037
20
-3.3861252486505817
42
-0.35589151571369837
10
-9.7768198587131856
20
-3.3861252486505804
0
LWPOLYLINE
5
260
100
AcDbEntity
8
0
100
AcDbPolyline
90
12
70
1
43
0.0
10
-9.5438739091824676
20
2.106916084049884
42
-0.22544948219300809
10
-9.5756718438021142
20
2.1738528669363371
10
-9.5756718438021124
20
2.352377131353125
42
-0.22544948219300592
10
-9.5438739091824676
20
2.4193139142395772
10
-9.3105170784476545
20
2.6095023845202148
42
-0.35589151571367877
10
-9.2014086002205993
20
2.6095023845202157
10
-8.9680517694857915
20
2.4193139142395799
42
-0.22544948219301111
10
-8.9362538348661431
20
2.3523771313531245
10
-8.9362538348661467
20
2.1738528669363357
42
-0.22544948219301095
10
-8.9680517694857933
20
2.1069160840498826
10
-9.201408600220601
20
1.9167276137692495
42
-0.3558915157137067
10
-9.3105170784476563
20
1.9167276137692477
0
LWPOLYLINE
5
261
100
AcDbEntity
8
0
100
AcDbPolyline
90
12
70
1
43
0.0
10
-9.5124034774307393
20
0.61524658528408449
42
-0.22544948219298752
10
-9.5407257043194491
20
0.67486677051898347
10
-9.5407257043194473
20
0.83387724659023765
42
-0.2254494821929981
10
-9.5124034774307358
20
0.89349743182513597
10
-9.3045539681730371
20
1.0628971450875515
42
-0.35589151571369543
10
-9.2073717104952237
20
1.0628971450875537
10
-8.9995222012375251
20
0.89349743182513641
42
-0.2254494821930105
10
-8.9711999743488118
20
0.83387724659023621
10
-8.9711999743488118
20
0.67486677051898192
42
-0.22544948219299826
10
-8.9995222012375251
20
0.6152465852840836
10
-9.2073717104952273
20
0.44584687202166995
42
-0.35589151571369726
10
-9.3045539681730389
20
0.44584687202166906
0
LWPOLYLINE
5
262
100
AcDbEntity
8
0
100
AcDbPolyline
90
12
70
1
43
0.0
10
-9.5124034665221942
20
-0.89349639938788017
42
-0.22544948219299302
10
-9.5407256922061272
20
-0.8338762166891216
10
-9.5407256922061272
20
-0.67486574738190086
42
-0.22544948219298735
10
-9.5124034665221959
20
-0.61524556468314351
10
-9.3045539661060577
20
-0.44584585862670267
42
-0.35589151571369337
10
-9.2073717125622156
20
-0.44584585862670345
10
-8.9995222121460756
20
-0.61524556468314395
42
-0.2254494821929966
10
-8.9711999864621443
20
-0.67486574738190208
10
-8.9711999864621443
20
-0.83387621668912293
42
-0.2254494821929961
10
-8.9995222121460774
20
-0.89349639938787995
10
-9.2073717125622139
20
-1.0628961054443198
42
-0.35589151571368977
10
-9.3045539661060559
20
-1.0628961054443189
0
LWPOLYLINE
5
263
100
AcDbEntity
8
0
100
AcDbPolyline
90
12
70
1
43
0.0
10
7.0052606787055671
20
2.6156413685697832
10
7.2759786926355581
20
2.8362796279454692
42
0.22544948219301061
10
7.3128675794112317
20
2.9139332062222345
10
7.3128675794112317
20
3.1210397826573049
42
0.22544948219299704
10
7.2759786926355581
20
3.1986933609340684
10
7.005260678705568
20
3.4193316203097588
42
0.35589151571367056
10
6.8786835802956343
20
3.4193316203097579
10
6.6079655663656514
20
3.1986933609340689
42
0.22544948219300653
10
6.5710766795899804
20
3.1210397826573058
10
6.5710766795899787
20
2.9139332062222341
42
0.22544948219299463
10
6.6079655663656514
20
2.8362796279454701
10
6.8786835802956334
20
2.6156413685697832
42
0.35589151571368771
0
LWPOLYLINE
5
264
100
AcDbEntity
8
0
100
AcDbPolyline
90
12
70
1
43
0.0
10
7.0944130198930075
20
-2.0947374457583199
42
0.22544948219299005
10
7.060136048189591
20
-2.1668927678055327
10
7.060136048189591
20
-2.3593351774457818
42
0.22544948219298866
10
7.0944130198930075
20
-2.4314904994929947
10
7.3459628636037566
20
-2.6365064822008129
42
0.35589151571367922
10
7.4635776793308484
20
-2.6365064822008124
10
7.715127523041585
20
-2.4314904994929956
42
0.22544948219299257
10
7.7494044947450016
20
-2.3593351774457831
10
7.7494044947450016
20
-2.1668927678055319
42
0.2254494821929949
10
7.7151275230415859
20
-2.094737445758319
10
7.4635776793308448
20
-1.8897214630505035
42
0.3558915157136725
10
7.3459628636037575
20
-1.8897214630505024
0
LWPOLYLINE
5
265
100
AcDbEntity
8
0
100
AcDbPolyline
90
12
70
1
43
0.0
10
7.2367180615287712
20
-1.6686494751256826
42
0.22544948219299205
10
7.2692708629232259
20
-1.6001236471009821
10
7.2692708629232268
20
-1.4173613075602089
42
0.22544948219299568
10
7.2367180615287694
20
-1.3488354795355082
10
6.9978214584689997
20
-1.154132031823663
42
0.35589151571368527
10
6.8861228005322017
20
-1.1541320318236632
10
6.6472261974724391
20
-1.3488354795355095
42
0.22544948219299304
10
6.6146733960779835
20
-1.4173613075602089
10
6.6146733960779844
20
-1.6001236471009825
42
0.22544948219300218
10
6.6472261974724409
20
-1.6686494751256808
10
6.8861228005322017
20
-1.863352922837527
42
0.35589151571368249
10
6.9978214584689997
20
-1.8633529228375287
0
LWPOLYLINE
5
266
100
AcDbEntity
8
0
100
AcDbPolyline
90
12
70
1
43
0.0
10
8.8430354914226186
20
-0.31664974600684243
10
9.0563587938103698
20
-0.14278882910724106
42
0.22544948219299699
10
9.0854268969415841
20
-0.081598524406980816
10
9.0854268969415823
20
0.081599550926032688
42
0.22544948219300751
10
9.056358793810368
20
0.14278985562629079
10
8.8430354914226186
20
0.31665077252589457
42
0.35589151571371497
10
8.7432939033122317
20
0.31665077252589374
10
8.5299706009244822
20
0.14278985562629215
42
0.22544948219300098
10
8.5009024977932697
20
0.081599550926032702
10
8.5009024977932697
20
-0.081598524406980691
42
0.22544948219301589
10
8.5299706009244858
20
-0.14278882910723939
10
8.7432939033122317
20
-0.31664974600684265
42
0.35589151571368832
0
LWPOLYLINE
5
267
100
AcDbEntity
8
0
100
AcDbPolyline
90
12
70
1
43
0.0
10
7.0893716727342904
20
-0.84242965734653041
42
0.22544948219298938
10
7.1207408987538354
20
-0.90846397990561623
10
7.3509515477814169
20
-1.0960882763232471
42
0.35589151571367317
10
7.4585889951531836
20
-1.0960882763232458
10
7.688799644180758
20
-0.90846397990561545
42
0.22544948219299779
10
7.7201688702003048
20
-0.84242965734653086
10
7.720168870200304
20
-0.66631230672453712
42
0.22544948219299685
10
7.688799644180758
20
-0.60027798416545286
10
7.4585889951531845
20
-0.4126536877478218
42
0.3558915157136856
10
7.350951547781416
20
-0.4126536877478203
10
7.1207408987538354
20
-0.60027798416545286
42
0.22544948219298672
10
7.0893716727342904
20
-0.66631230672453778
0
LWPOLYLINE
5
268
100
AcDbEntity
8
0
100
AcDbPolyline
90
12
70
1
43
0.0
10
6.9953416707266625
20
-0.33886473615794421
10
7.2236309329482218
20
-0.15280639183309794
42
0.22544948219300329
10
7.2547383447674099
20
-0.087323205707733997
10
7.2547383447674108
20
0.087324232226785883
42
0.2254494821929976
10
7.2236309329482236
20
0.15280741835214981
10
6.9953416707266651
20
0.33886576267699653
42
0.3558915157136962
10
6.8886025882745372
20
0.33886576267699609
10
6.6603133260529868
20
0.15280741835214998
42
0.22544948219298896
10
6.6292059142338005
20
0.087324232226786633
10
6.6292059142337987
20
-0.08732320570773458
42
0.22544948219298822
10
6.6603133260529868
20
-0.15280639183309869
10
6.8886025882745372
20
-0.33886473615794399
42
0.35589151571368671
0
LWPOLYLINE
5
269
100
AcDbEntity
8
0
100
AcDbPolyline
90
12
70
1
43
0.0
10
9.071189609576443
20
-1.6595779060595583
42
0.22544948219299907
10
9.1018956813704595
20
-1.5949395675775984
10
9.1018956813704595
20
-1.4225453870835911
42
0.22544948219299535
10
9.071189609576443
20
-1.357907048601632
10
8.8458456781583248
20
-1.1742491823695513
42
0.35589151571369859
10
8.7404837165765219
20
-1.1742491823695513
10
8.5151397851584054
20
-1.3579070486016309
42
0.22544948219300029
10
8.484433713364389
20
-1.4225453870835911
10
8.484433713364389
20
-1.5949395675775981
42
0.22544948219299998
10
8.5151397851584054
20
-1.6595779060595583
10
8.7404837165765237
20
-1.843235772291637
42
0.35589151571370126
10
8.8458456781583266
20
-1.8432357722916357
0
LWPOLYLINE
5
270
100
AcDbEntity
8
0
100
AcDbPolyline
90
12
70
1
43
0.0
10
6.1957478242395858
20
-0.60060524027580886
42
0.22544948219299224
10
6.1644452188389787
20
-0.66649932196834283
10
6.1644452188389778
20
-0.84224264210272504
42
0.22544948219299216
10
6.1957478242395858
20
-0.90813672379525923
10
6.4254695617487645
20
-1.0953625517665462
42
0.35589151571366839
10
6.532878413319021
20
-1.0953625517665464
10
6.7626001508282005
20
-0.90813672379525978
42
0.22544948219299282
10
6.7939027562288086
20
-0.84224264210272515
10
6.7939027562288077
20
-0.66649932196834294
42
0.22544948219298674
10
6.7626001508281997
20
-0.60060524027580842
10
6.5328784133190201
20
-0.41337941230452252
42
0.35589151571368643
10
6.4254695617487645
20
-0.41337941230452224
0
LWPOLYLINE
5
271
100
AcDbEntity
8
0
100
AcDbPolyline
90
12
70
1
43
0.0
10
6.7890314558582388
20
-2.4312193546514149
42
0.22544948219298896
10
6.8232532297010327
20
-2.3591802277991607
10
6.8232532297010318
20
-2.167047717452157
42
0.22544948219299396
10
6.7890314558582379
20
-2.0950085905999032
10
6.537886694992423
20
-1.8903227550164328
42
0.35589151571366784
10
6.4204612800753624
20
-1.8903227550164332
10
6.1693165192095467
20
-2.0950085905999032
42
0.22544948219299643
10
6.1350947453667537
20
-2.1670477174521579
10
6.1350947453667528
20
-2.3591802277991594
42
0.22544948219299635
10
6.1693165192095467
20
-2.431219354651414
10
6.4204612800753624
20
-2.6359051902348836
42
0.35589151571368599
10
6.537886694992423
20
-2.635905190234884
0
LWPOLYLINE
5
272
100
AcDbEntity
8
0
100
AcDbPolyline
90
12
70
1
43
0.0
10
8.7322251544884182
20
-2.6305551529380686
10
8.4715550613160104
20
-2.8430042426529942
42
0.22544948219299402
10
8.4360353357785485
20
-2.9177756447873548
10
8.4360353357785485
20
-3.1171952910540783
42
0.22544948219300467
10
8.4715550613160104
20
-3.1919666931884407
10
8.7322251544884182
20
-3.404415782903365
42
0.35589151571370115
10
8.8541042402464303
20
-3.4044157829033654
10
9.1147743334188327
20
-3.1919666931884412
42
0.22544948219301758
10
9.1502940589562964
20
-3.1171952910540766
10
9.1502940589563018
20
-2.9177756447873548
42
0.22544948219300578
10
9.1147743334188362
20
-2.8430042426529938
10
8.8541042402464285
20
-2.6305551529380686
42
0.3558915157137002
0
LWPOLYLINE
5
273
100
AcDbEntity
8
0
100
AcDbPolyline
90
12
70
1
43
0.0
10
6.5378867000994534
20
2.63590624918058
42
0.35589151571367195
10
6.4204612749683321
20
2.63590624918058
10
6.1693164922570904
20
2.43122039579284
42
0.22544948219299138
10
6.1350947154375728
20
2.3591812626743791
10
6.1350947154375728
20
2.1670487356150376
42
0.22544948219299465
10
6.1693164922570896
20
2.0950096024965759
10
6.4204612749683321
20
1.8903237491088367
42
0.35589151571367245
10
6.5378867000994534
20
1.8903237491088372
10
6.7890314828106959
20
2.0950096024965754
42
0.2254494821930072
10
6.8232532596302153
20
2.1670487356150385
10
6.8232532596302145
20
2.3591812626743791
42
0.22544948219299513
10
6.7890314828106941
20
2.4312203957928409
0
LWPOLYLINE
5
274
100
AcDbEntity
8
0
100
AcDbPolyline
90
12
70
1
43
0.0
10
6.306080482800116
20
-1.6659144473335767
42
0.22544948219298963
10
6.3380765054559776
20
-1.5985606758586766
10
6.3380765054559776
20
-1.4189242788025134
42
0.22544948219299835
10
6.306080482800116
20
-1.351570507327613
10
6.0712699351213937
20
-1.160197241209149
42
0.355891515713671
10
5.9614817560129776
20
-1.1601972412091499
10
5.7266712083342579
20
-1.3515705073276132
42
0.22544948219300384
10
5.6946751856783955
20
-1.4189242788025136
10
5.6946751856783937
20
-1.5985606758586761
42
0.22544948219299621
10
5.7266712083342561
20
-1.6659144473335772
10
5.9614817560129785
20
-1.8572877134520382
42
0.35589151571368399
10
6.0712699351213928
20
-1.8572877134520402
0
LWPOLYLINE
5
275
100
AcDbEntity
8
0
100
AcDbPolyline
90
12
70
1
43
0.0
10
6.0789480244603133
20
2.6201898994137918
10
6.3466017502924332
20
2.8383307291492264
42
0.22544948219300007
10
6.3830730875484072
20
2.915105337710544
10
6.3830730875484072
20
3.1198676511689936
42
0.22544948219299457
10
6.3466017502924332
20
3.1966422597303112
10
6.0789480244603133
20
3.4147830894657476
42
0.35589151571367
10
5.9538036666740624
20
3.4147830894657472
10
5.6861499408419398
20
3.1966422597303126
42
0.22544948219300076
10
5.6496786035859667
20
3.1198676511689949
10
5.6496786035859667
20
2.9151053377105445
42
0.22544948219299757
10
5.6861499408419389
20
2.8383307291492277
10
5.9538036666740624
20
2.6201898994137922
42
0.35589151571368699
0
LWPOLYLINE
5
276
100
AcDbEntity
8
0
100
AcDbPolyline
90
12
70
1
43
0.0
10
6.8786835870442076
20
-2.615640384900205
10
6.6079656019813795
20
-2.836278620748836
42
0.22544948219299177
10
6.5710767191392359
20
-2.9139321907452569
10
6.5710767191392359
20
-3.1210387450961785
42
0.22544948219299216
10
6.6079656019813795
20
-3.1986923150925994
10
6.8786835870442085
20
-3.4193305509412273
42
0.35589151571367855
10
7.0052606719569956
20
-3.4193305509412282
10
7.2759786570198317
20
-3.198692315092599
42
0.22544948219299565
10
7.3128675398619736
20
-3.1210387450961767
10
7.3128675398619762
20
-2.9139321907452582
42
0.22544948219300309
10
7.2759786570198326
20
-2.8362786207488364
10
7.0052606719569956
20
-2.6156403849002063
42
0.3558915157136745
0
LWPOLYLINE
5
277
100
AcDbEntity
8
0
100
AcDbPolyline
90
12
70
1
43
0.0
10
8.3877666943414582
20
2.6275721773760319
42
0.35589151571371286
10
8.2729664164599761
20
2.6275721773760314
10
8.0274361932435028
20
2.427462253813212
42
0.22544948219299646
10
7.9939794739334227
20
2.3570336180121876
10
7.9939794739334218
20
2.1691963802772287
42
0.22544948219300626
10
8.0274361932435028
20
2.0987677444762038
10
8.2729664164599761
20
1.8986578209133849
42
0.35589151571370015
10
8.3877666943414635
20
1.8986578209133853
10
8.6332969175579368
20
2.0987677444762025
42
0.22544948219300975
10
8.6667536368680178
20
2.1691963802772287
10
8.666753636868016
20
2.3570336180121871
42
0.22544948219300134
10
8.633296917557935
20
2.4274622538132129
0
LWPOLYLINE
5
278
100
AcDbEntity
8
0
100
AcDbPolyline
90
12
70
1
43
0.0
10
7.2692708826984029
20
1.600124679141226
42
0.22544948219299052
10
7.2367180793371286
20
1.6686505113062122
10
6.9978214618433814
20
1.863353970781914
42
0.35589151571367711
10
6.8861227971578227
20
1.8633539707819133
10
6.6472261796640808
20
1.6686505113062122
42
0.2254494821930012
10
6.6146733763028065
20
1.6001246791412265
10
6.6146733763028074
20
1.4173623285580703
42
0.22544948219300412
10
6.6472261796640817
20
1.3488364963930848
10
6.8861227971578227
20
1.1541330369173832
42
0.35589151571367972
10
6.9978214618433832
20
1.1541330369173808
10
7.2367180793371286
20
1.3488364963930846
42
0.2254494821929911
10
7.2692708826984029
20
1.4173623285580708
0
LWPOLYLINE
5
279
100
AcDbEntity
8
0
100
AcDbPolyline
90
12
70
1
43
0.0
10
5.7266711898753533
20
1.665915483867046
42
0.22544948219300087
10
5.6946751651808238
20
1.5985617081006132
10
5.6946751651808238
20
1.4189252995986832
42
0.22544948219300681
10
5.7266711898753542
20
1.3515715238322492
10
5.9614817525153327
20
1.1601982455201925
42
0.35589151571368649
10
6.0712699386190412
20
1.160198245520192
10
6.3060805012590224
20
1.3515715238322514
42
0.22544948219299152
10
6.338076525953551
20
1.4189252995986832
10
6.3380765259535519
20
1.598561708100612
42
0.22544948219298774
10
6.3060805012590233
20
1.6659154838670454
10
6.0712699386190412
20
1.8572887621791037
42
0.35589151571367561
10
5.9614817525153319
20
1.8572887621791032
0
LWPOLYLINE
5
280
100
AcDbEntity
8
0
100
AcDbPolyline
90
12
70
1
43
0.0
10
6.5328784150243457
20
0.41338042799575248
10
6.7626001598280947
20
0.60060626191219435
42
0.22544948219299452
10
6.7939027662226836
20
0.6665003456971258
10
6.7939027662226845
20
0.84224367141204948
42
0.2254494821929941
10
6.7626001598280938
20
0.90813775519697992
10
6.5328784150243475
20
1.095363589113423
42
0.35589151571368011
10
6.4254695600434371
20
1.0953635891134248
10
6.1957478152396899
20
0.90813775519697892
42
0.22544948219299263
10
6.1644452088451001
20
0.84224367141204948
10
6.1644452088451009
20
0.6665003456971258
42
0.22544948219299493
10
6.1957478152396899
20
0.60060626191219524
10
6.4254695600434371
20
0.41338042799575292
42
0.35589151571367234
0
LWPOLYLINE
5
281
100
AcDbEntity
8
0
100
AcDbPolyline
90
12
70
1
43
0.0
10
8.9362538699299243
20
-2.1738518502070017
10
8.9362538699299279
20
-2.3523760950443142
42
0.22544948219298563
10
8.9680518010621633
20
-2.4193128705895401
10
9.2014086062037954
20
-2.6095013200114376
42
0.3558915157136664
10
9.3105170724644797
20
-2.6095013200114376
10
9.543873877606103
20
-2.4193128705895401
42
0.22544948219300134
10
9.5756718087383419
20
-2.3523760950443142
10
9.5756718087383401
20
-2.1738518502070017
42
0.22544948219301003
10
9.5438738776060994
20
-2.1069150746617766
10
9.3105170724644779
20
-1.9167266252398776
42
0.35589151571370864
10
9.2014086062037883
20
-1.9167266252398751
10
8.968051801062165
20
-2.1069150746617771
42
0.22544948219299643
0
LWPOLYLINE
5
282
100
AcDbEntity
8
0
100
AcDbPolyline
90
12
70
1
43
0.0
10
8.9711999864621408
20
-0.83387621668914447
42
0.22544948219299657
10
8.9995222121460721
20
-0.89349639938790171
10
9.2073717125622139
20
-1.0628961054443418
42
0.35589151571368788
10
9.3045539661060559
20
-1.0628961054443411
10
9.5124034665221906
20
-0.89349639938790304
42
0.22544948219299302
10
9.5407256922061237
20
-0.83387621668914447
10
9.5407256922061237
20
-0.67486574738192373
42
0.22544948219298855
10
9.5124034665221924
20
-0.61524556468316582
10
9.3045539661060541
20
-0.44584585862672488
42
0.35589151571368893
10
9.2073717125622121
20
-0.44584585862672527
10
8.9995222121460756
20
-0.61524556468316394
42
0.2254494821930082
10
8.9711999864621443
20
-0.67486574738192373
0
LWPOLYLINE
5
283
100
AcDbEntity
8
0
100
AcDbPolyline
90
12
70
1
43
0.0
10
8.4844336910867089
20
1.5949406003165358
10
8.4844336910867071
20
1.4225464073827592
42
0.22544948219300631
10
8.5151397650964373
20
1.35790806423657
10
8.7404837127751218
20
1.1742501847519444
42
0.35589151571368483
10
8.8458456819597249
20
1.1742501847519442
10
9.0711896296384058
20
1.3579080642365693
42
0.22544948219300481
10
9.1018957036481378
20
1.4225464073827585
10
9.1018957036481378
20
1.5949406003165358
42
0.22544948219299954
10
9.0711896296384058
20
1.6595789434627255
10
8.8458456819597249
20
1.8432368229473506
42
0.35589151571369154
10
8.7404837127751218
20
1.8432368229473506
10
8.5151397650964391
20
1.6595789434627259
42
0.22544948219300007
0
LWPOLYLINE
5
284
100
AcDbEntity
8
0
100
AcDbPolyline
90
12
70
1
43
0.0
10
6.3229874887176161
20
0.085605887662632912
42
0.22544948219298877
10
6.292492204423878
20
0.14980050433341219
10
6.0686951880369255
20
0.33219761722690144
42
0.35589151571369226
10
5.9640565030974511
20
0.33219761722690139
10
5.7402594867104986
20
0.14980050433341191
42
0.2254494821929916
10
5.7097642024167596
20
0.085605887662632829
10
5.7097642024167605
20
-0.085604861143580818
42
0.22544948219299968
10
5.7402594867104995
20
-0.14979947781436051
10
5.9640565030974502
20
-0.33219659070784946
42
0.35589151571369182
10
6.0686951880369255
20
-0.33219659070784968
10
6.2924922044238754
20
-0.14979947781436057
42
0.22544948219299724
10
6.3229874887176152
20
-0.085604861143580901
0
LWPOLYLINE
5
285
100
AcDbEntity
8
0
100
AcDbPolyline
90
12
70
1
43
0.0
10
9.1147743724520378
20
2.8430052479955616
42
0.22544948219301805
10
9.1502941023004727
20
2.9177766592047991
10
9.1502941023004709
20
3.1171963296747385
42
0.22544948219300123
10
9.1147743724520378
20
3.1919677408839764
10
8.8541042476425567
20
3.40441685638348
42
0.35589151571373112
10
8.7322251470922918
20
3.4044168563834805
10
8.4715550222828071
20
3.1919677408839768
42
0.2254494821930022
10
8.436035292434374
20
3.1171963296747385
10
8.436035292434374
20
2.9177766592047991
42
0.22544948219301003
10
8.4715550222828071
20
2.8430052479955621
10
8.7322251470922918
20
2.630556132496058
42
0.35589151571369632
10
8.8541042476425567
20
2.630556132496058
0
LWPOLYLINE
5
286
100
AcDbEntity
8
0
100
AcDbPolyline
90
12
70
1
43
0.0
10
9.6607021038884966
20
-2.6488456871908261
10
9.4123541139042448
20
-2.8512521227069678
42
0.22544948219299774
10
9.3785134368451111
20
-2.922489015295529
10
9.3785134368451075
20
-3.1124819205459047
42
0.22544948219302216
10
9.412354113904243
20
-3.1837188131344671
10
9.6607021038884966
20
-3.3861252486506048
42
0.35589151571370325
10
9.7768198587131785
20
-3.3861252486506048
10
10.025167848697432
20
-3.1837188131344663
42
0.22544948219299993
10
10.059008525756568
20
-3.1124819205459042
10
10.059008525756566
20
-2.922489015295529
42
0.22544948219299907
10
10.025167848697432
20
-2.8512521227069683
10
9.7768198587131803
20
-2.6488456871908288
42
0.35589151571368327
0
LWPOLYLINE
5
287
100
AcDbEntity
8
0
100
AcDbPolyline
90
12
70
1
43
0.0
10
5.2521256131736251
20
-2.0995687171321755
42
0.22544948219299821
10
5.2188321595130969
20
-2.1696536678018346
10
5.2188321595130969
20
-2.3565742774494804
42
0.22544948219300415
10
5.2521256131736269
20
-2.4266592281191404
10
5.4964576719494502
20
-2.6257926340398803
42
0.3558915157136831
10
5.6106977352515086
20
-2.6257926340398789
10
5.8550297940273346
20
-2.4266592281191408
42
0.22544948219299191
10
5.8883232476878629
20
-2.3565742774494809
10
5.8883232476878646
20
-2.169653667801835
42
0.22544948219299563
10
5.8550297940273364
20
-2.0995687171321755
10
5.6106977352515086
20
-1.9004353112114365
42
0.35589151571367045
10
5.4964576719494493
20
-1.9004353112114365
0
LWPOLYLINE
5
288
100
AcDbEntity
8
0
100
AcDbPolyline
90
12
70
1
43
0.0
10
5.5018088868827144
20
-0.42566939333710868
10
5.2803667552270985
20
-0.60614724839987877
42
0.22544948219299904
10
5.250192354922433
20
-0.66966638277392121
10
5.250192354922433
20
-0.8390755812971471
42
0.22544948219299873
10
5.2803667552270985
20
-0.90259471567118932
10
5.5018088868827144
20
-1.083072570733959
42
0.35589151571368333
10
5.6053465203182462
20
-1.083072570733959
10
5.826788651973863
20
-0.90259471567118954
42
0.22544948219298722
10
5.8569630522785285
20
-0.83907558129714688
10
5.8569630522785285
20
-0.66966638277392121
42
0.22544948219298852
10
5.826788651973863
20
-0.60614724839987899
10
5.6053465203182462
20
-0.42566939333710829
42
0.3558915157136851
0
LWPOLYLINE
5
289
100
AcDbEntity
8
0
100
AcDbPolyline
90
12
70
1
43
0.0
10
7.6887996531421843
20
0.60027900582271043
42
0.22544948219299632
10
7.7201688801514621
20
0.66631333046524699
10
7.7201688801514621
20
0.84243068664392851
42
0.22544948219299785
10
7.6887996531421843
20
0.9084650112864654
10
7.4585889968512227
20
1.0960893136238408
42
0.35589151571367811
10
7.3509515460833796
20
1.096089313623843
10
7.1207408897924118
20
0.90846501128646584
42
0.22544948219299629
10
7.089371662783134
20
0.84243068664392784
10
7.0893716627831314
20
0.66631333046524754
42
0.22544948219298527
10
7.12074088979241
20
0.60027900582270954
10
7.3509515460833814
20
0.41265470348533406
42
0.35589151571367933
10
7.4585889968512227
20
0.41265470348533645
0
LWPOLYLINE
5
290
100
AcDbEntity
8
0
100
AcDbPolyline
90
12
70
1
43
0.0
10
7.0601360183676185
20
2.1668937859983468
42
0.22544948219300132
10
7.0944129930370989
20
2.0947384577073715
10
7.345962858515021
20
1.8897224572590618
42
0.35589151571367916
10
7.4635776844195814
20
1.8897224572590623
10
7.7151275498974945
20
2.0947384577073715
42
0.22544948219299141
10
7.7494045245669785
20
2.1668937859983468
10
7.7494045245669767
20
2.3593362122910699
42
0.22544948219299438
10
7.7151275498974945
20
2.4314915405820439
10
7.4635776844195796
20
2.6365075410303551
42
0.35589151571368294
10
7.345962858515021
20
2.6365075410303556
10
7.0944129930371016
20
2.4314915405820439
42
0.22544948219299193
10
7.0601360183676212
20
2.359336212291069
0
LWPOLYLINE
5
291
100
AcDbEntity
8
0
100
AcDbPolyline
90
12
70
1
43
0.0
10
5.250192344176118
20
0.83907661081654994
10
5.2501923441761189
20
0.66966740629262556
42
0.22544948219299582
10
5.2803667455496015
20
0.60614826966865165
10
5.5018088850489928
20
0.42567040821311608
42
0.35589151571368288
10
5.605346522151966
20
0.42567040821311564
10
5.8267886616513573
20
0.6061482696686511
42
0.2254494821929901
10
5.8569630630248408
20
0.66966740629262556
10
5.8569630630248408
20
0.83907661081654994
42
0.22544948219299102
10
5.8267886616513573
20
0.90259574744052462
10
5.6053465221519669
20
1.0830736088960604
42
0.35589151571369154
10
5.5018088850489928
20
1.08307360889606
10
5.2803667455496015
20
0.90259574744052451
42
0.22544948219299774
0
LWPOLYLINE
5
292
100
AcDbEntity
8
0
100
AcDbPolyline
90
12
70
1
43
0.0
10
5.4107752698987817
20
3.1910921237486054
10
5.1514132927132597
20
3.4024750840611384
42
0.35589151571368893
10
5.0301458305542877
20
3.4024750840611384
10
4.7707838533687665
20
3.1910921237486067
42
0.22544948219298985
10
4.735442375823852
20
3.116695945581458
10
4.7354423758238511
20
2.9182770432980822
42
0.22544948219299799
10
4.7707838533687665
20
2.8438808651309317
10
5.0301458305542877
20
2.632497904818401
42
0.35589151571370536
10
5.1514132927132597
20
2.632497904818401
10
5.4107752698987817
20
2.8438808651309335
42
0.22544948219300853
10
5.446116747443698
20
2.9182770432980822
10
5.4461167474436989
20
3.116695945581458
42
0.22544948219299621
0
LWPOLYLINE
5
293
100
AcDbEntity
8
0
100
AcDbPolyline
90
12
70
1
43
0.0
10
7.8048374265381257
20
-3.4157904005158208
42
0.35589151571369015
10
7.9302994003298997
20
-3.4157904005158213
10
8.1986324305171401
20
-3.1970959300073791
42
0.22544948219298941
10
8.2351963319179173
20
-3.1201264677193086
10
8.2351963319179138
20
-2.9148444681221255
42
0.22544948219299799
10
8.1986324305171401
20
-2.8378750058340536
10
7.9302994003298997
20
-2.6191805353256119
42
0.35589151571366479
10
7.8048374265381284
20
-2.619180535325611
10
7.5365043963508924
20
-2.8378750058340536
42
0.22544948219300112
10
7.4999404949501169
20
-2.9148444681221246
10
7.4999404949501169
20
-3.1201264677193077
42
0.22544948219300145
10
7.5365043963508924
20
-3.1970959300073791
0
LWPOLYLINE
5
294
100
AcDbEntity
8
0
100
AcDbPolyline
90
12
70
1
43
0.0
10
8.6332968892295945
20
-2.0987667333259843
10
8.3877666889737217
20
-1.8986568284763212
42
0.35589151571370936
10
8.2729664218277126
20
-1.8986568284763217
10
8.0274362215718416
20
-2.0987667333259847
42
0.22544948219299646
10
7.9939795053904472
20
-2.1691953625409202
10
7.993979505390449
20
-2.3570325827103962
42
0.22544948219298408
10
8.0274362215718416
20
-2.427461211925332
10
8.2729664218277161
20
-2.6275711167749964
42
0.35589151571370042
10
8.3877666889737199
20
-2.6275711167749933
10
8.6332968892295927
20
-2.4274612119253325
42
0.22544948219299205
10
8.6667536054109888
20
-2.3570325827103962
10
8.6667536054109853
20
-2.1691953625409202
42
0.22544948219300226
0
LWPOLYLINE
5
295
100
AcDbEntity
8
0
100
AcDbPolyline
90
12
70
1
43
0.0
10
9.5756718438021178
20
2.173852866936314
10
9.5756718438021196
20
2.3523771313531019
42
0.22544948219300592
10
9.5438739091824747
20
2.4193139142395541
10
9.3105170784476634
20
2.6095023845201903
42
0.35589151571368771
10
9.2014086002206046
20
2.6095023845201943
10
8.9680517694857969
20
2.4193139142395568
42
0.22544948219300859
10
8.9362538348661484
20
2.3523771313531019
10
8.9362538348661502
20
2.173852866936314
42
0.22544948219301333
10
8.9680517694857969
20
2.1069160840498609
10
9.2014086002206081
20
1.9167276137692286
42
0.35589151571369987
10
9.3105170784476599
20
1.9167276137692257
10
9.5438739091824747
20
2.1069160840498604
42
0.22544948219301278
0
LWPOLYLINE
5
296
100
AcDbEntity
8
0
100
AcDbPolyline
90
12
70
1
43
0.0
10
5.8550298226587323
20
2.0995697281179808
42
0.22544948219299882
10
5.8883232794814147
20
2.1696546854441872
10
5.8883232794814138
20
2.3565753128452287
42
0.22544948219298935
10
5.8550298226587323
20
2.426660270171435
10
5.6106977406766685
20
2.6257936950055205
42
0.35589151571366329
10
5.4964576665242895
20
2.6257936950055201
10
5.2521255845422266
20
2.4266602701714364
42
0.22544948219300487
10
5.2188321277195451
20
2.3565753128452287
10
5.2188321277195442
20
2.1696546854441863
42
0.22544948219300276
10
5.2521255845422257
20
2.0995697281179795
10
5.4964576665242877
20
1.9004363032838965
42
0.3558915157136851
10
5.6106977406766685
20
1.9004363032838962
0
LWPOLYLINE
5
297
100
AcDbEntity
8
0
100
AcDbPolyline
90
12
70
1
43
0.0
10
8.6053840301722868
20
-0.9035748011664626
42
0.22544948219299121
10
8.6357579497532644
20
-0.8396356653476762
10
8.6357579497532626
20
-0.66910629872339189
42
0.22544948219298222
10
8.6053840301722868
20
-0.60516716290460526
10
8.3824776780713037
20
-0.4234959515308977
42
0.35589151571369571
10
8.2782554327301323
20
-0.42349595153089975
10
8.0553490806291492
20
-0.60516716290460604
42
0.22544948219299765
10
8.0249751610481717
20
-0.669106298723392
10
8.0249751610481717
20
-0.83963566534767653
42
0.22544948219299918
10
8.0553490806291492
20
-0.90357480116646249
10
8.2782554327301323
20
-1.0852460125401717
42
0.3558915157136941
10
8.3824776780713037
20
-1.0852460125401722
0
LWPOLYLINE
5
298
100
AcDbEntity
8
0
100
AcDbPolyline
90
12
70
1
43
0.0
10
8.3824776798816174
20
0.42349696655553559
10
8.6053840397262409
20
0.6051681842404012
42
0.22544948219299388
10
8.6357579603623904
20
0.66910732228039804
10
8.6357579603623922
20
0.83963669482877723
42
0.2254494821929969
10
8.6053840397262427
20
0.90357583286877285
10
8.3824776798816174
20
1.0852470505536389
42
0.35589151571371869
10
8.2782554309198204
20
1.08524705055364
10
8.0553490710751969
20
0.90357583286877396
42
0.22544948219300892
10
8.0249751504390474
20
0.83963669482877723
10
8.0249751504390474
20
0.66910732228039793
42
0.22544948219299851
10
8.0553490710751969
20
0.60516818424040186
10
8.2782554309198204
20
0.42349696655553609
42
0.35589151571368771
0
LWPOLYLINE
5
299
100
AcDbEntity
8
0
100
AcDbPolyline
90
12
70
1
43
0.0
10
9.5124034774307411
20
0.89349743182511321
10
9.3045539681730389
20
1.0628971450875295
42
0.35589151571368866
10
9.2073717104952273
20
1.0628971450875309
10
8.9995222012375269
20
0.89349743182511454
42
0.22544948219300978
10
8.9711999743488153
20
0.83387724659021467
10
8.9711999743488153
20
0.67486677051896038
42
0.22544948219300162
10
8.9995222012375269
20
0.61524658528406184
10
9.2073717104952255
20
0.44584687202164741
42
0.35589151571369726
10
9.3045539681730389
20
0.44584687202164675
10
9.5124034774307411
20
0.61524658528406329
42
0.22544948219298197
10
9.5407257043194491
20
0.6748667705189606
10
9.5407257043194491
20
0.83387724659021467
42
0.22544948219298686
0
LWPOLYLINE
5
300
100
AcDbEntity
8
0
100
AcDbPolyline
90
12
70
1
43
0.0
10
5.6496786442517291
20
-2.9151043225452939
10
5.6496786442517299
20
-3.1198666132961388
42
0.22544948219299862
10
5.6861499774631259
20
-3.1966412133433524
10
5.9538036736131481
20
-3.4147820188875406
42
0.35589151571370659
10
6.0789480175212187
20
-3.4147820188875406
10
6.3466017136712418
20
-3.1966412133433515
42
0.22544948219299674
10
6.3830730468826378
20
-3.1198666132961379
10
6.3830730468826369
20
-2.9151043225452939
42
0.22544948219299837
10
6.3466017136712392
20
-2.8383297224980808
10
6.0789480175212187
20
-2.6201889169538934
42
0.35589151571367172
10
5.9538036736131508
20
-2.6201889169538934
10
5.6861499774631259
20
-2.838329722498079
42
0.22544948219300101
0
LWPOLYLINE
5
301
100
AcDbEntity
8
0
100
AcDbPolyline
90
12
70
1
43
0.0
10
8.1905147393250139
20
-1.5989084633836534
10
8.1905147393250139
20
-1.4185764912775367
42
0.22544948219298891
10
8.1583948239869244
20
-1.3509619174055381
10
7.9226750599071387
20
-1.1588476295825578
42
0.3558915157136826
10
7.8124617669608876
20
-1.1588476295825578
10
7.5767420028811028
20
-1.3509619174055394
42
0.22544948219299293
10
7.5446220875430123
20
-1.4185764912775358
10
7.5446220875430132
20
-1.5989084633836537
42
0.22544948219299679
10
7.5767420028811037
20
-1.6665230372556512
10
7.8124617669608876
20
-1.8586373250786319
42
0.3558915157136831
10
7.9226750599071387
20
-1.8586373250786326
10
8.1583948239869244
20
-1.6665230372556514
42
0.22544948219298688
0
LWPOLYLINE
5
302
100
AcDbEntity
8
0
100
AcDbPolyline
90
12
70
1
43
0.0
10
9.462118426705926
20
-1.3695075093385276
42
0.22544948219299996
10
9.4337738994325342
20
-1.4291746383773432
10
9.4337738994325324
20
-1.588310316283847
42
0.22544948219299679
10
9.4621184267059242
20
-1.6479774453226623
10
9.6701315927279961
20
-1.8175105407087913
42
0.35589151571371519
10
9.767390369873679
20
-1.817510540708791
10
9.9754035358957509
20
-1.6479774453226619
42
0.2254494821929888
10
10.003748063169143
20
-1.588310316283847
10
10.003748063169144
20
-1.4291746383773438
42
0.22544948219299252
10
9.9754035358957509
20
-1.3695075093385269
10
9.767390369873679
20
-1.1999744139523991
42
0.35589151571373856
10
9.6701315927279961
20
-1.199974413952398
0
LWPOLYLINE
5
303
100
AcDbEntity
8
0
100
AcDbPolyline
90
12
70
1
43
0.0
10
7.8150150550127986
20
-0.33368245459094253
42
0.3558915157136836
10
7.9201217718552277
20
-0.3336824545909427
10
8.1449197960770512
20
-0.1504695089307248
42
0.22544948219299424
10
8.1755514808420653
20
-0.085987760128867094
10
8.1755514808420653
20
0.085988786647919119
42
0.22544948219300265
10
8.144919796077053
20
0.15047053544977629
10
7.9201217718552286
20
0.33368348110999413
42
0.35589151571368216
10
7.8150150550127968
20
0.33368348110999468
10
7.5902170307909733
20
0.15047053544977609
42
0.22544948219299671
10
7.5595853460259637
20
0.085988786647919313
10
7.5595853460259619
20
-0.08598776012886733
42
0.22544948219300062
10
7.5902170307909742
20
-0.15046950893072497
0
LWPOLYLINE
5
304
100
AcDbEntity
8
0
100
AcDbPolyline
90
12
70
1
43
0.0
10
7.9302994072262498
20
2.6191815180568856
10
8.1986324669127661
20
2.8378760126075706
42
0.22544948219301131
10
8.235196372333208
20
2.9148454833573068
10
8.2351963723332062
20
3.1201275055222304
42
0.22544948219299146
10
8.1986324669127661
20
3.1970969762719639
10
7.9302994072262507
20
3.4157914708226516
42
0.35589151571368843
10
7.8048374196417765
20
3.4157914708226507
10
7.5365043599552664
20
3.197096976271963
42
0.22544948219299332
10
7.499940454534828
20
3.1201275055222317
10
7.499940454534828
20
2.9148454833573063
42
0.22544948219300917
10
7.5365043599552681
20
2.8378760126075737
10
7.8048374196417747
20
2.6191815180568878
42
0.35589151571369132
0
LWPOLYLINE
5
305
100
AcDbEntity
8
0
100
AcDbPolyline
90
12
70
1
43
0.0
10
7.9226750633769676
20
1.8586383736290628
42
0.35589151571368216
10
7.8124617634910578
20
1.8586383736290646
10
7.5767419845690114
20
1.6665240737094678
42
0.22544948219299843
10
7.5446220672084685
20
1.598909495580072
10
7.5446220672084694
20
1.4185775121192234
42
0.22544948219300825
10
7.576741984569014
20
1.3509629339898266
10
7.8124617634910578
20
1.1588486340702346
42
0.35589151571369998
10
7.9226750633769676
20
1.1588486340702335
10
8.1583948422990176
20
1.350962933989829
42
0.22544948219297994
10
8.1905147596595604
20
1.4185775121192243
10
8.1905147596595569
20
1.5989094955800709
42
0.22544948219298089
10
8.1583948422990176
20
1.6665240737094691
0
LWPOLYLINE
5
306
100
AcDbEntity
8
0
100
AcDbPolyline
90
12
70
1
43
0.0
10
-3.4628053700851225
20
-1.3876409572379491
10
-3.2818830704082864
20
-1.2401872259422297
42
-0.35589151571366762
10
-3.1972909171256161
20
-1.2401872259422311
10
-3.0163686174487827
20
-1.3876409572379504
42
-0.22544948219300109
10
-2.9917155767032231
20
-1.439537259800219
10
-2.991715576703224
20
-1.577947694860957
42
-0.22544948219299679
10
-3.0163686174487836
20
-1.6298439974232255
10
-3.1972909171256152
20
-1.7772977287189446
42
-0.35589151571367444
10
-3.2818830704082873
20
-1.7772977287189451
10
-3.4628053700851225
20
-1.6298439974232246
42
-0.22544948219299502
10
-3.4874584108306821
20
-1.5779476948609552
10
-3.4874584108306821
20
-1.4395372598002183
42
-0.2254494821930032
0
LWPOLYLINE
5
307
100
AcDbEntity
8
0
100
AcDbPolyline
90
12
70
1
43
0.0
10
-3.2016165369332312
20
-0.24108959225497179
42
-0.35589151571367739
10
-3.2775574506006628
20
-0.24108959225497176
10
-3.439976826477765
20
-0.10871595423147098
42
-0.22544948219299887
10
-3.4621086007174187
20
-0.062127086592993763
10
-3.4621086007174173
20
0.062128113112062344
42
-0.22544948219299651
10
-3.4399768264777641
20
0.10871698075053937
10
-3.2775574506006633
20
0.24109061877403939
42
-0.35589151571367772
10
-3.2016165369332312
20
0.2410906187740397
10
-3.0391971610561308
20
0.10871698075053837
42
-0.22544948219299485
10
-3.0170653868164781
20
0.062128113112061463
10
-3.017065386816479
20
-0.062127086592994984
42
-0.22544948219299588
10
-3.0391971610561312
20
-0.10871595423147171
0
LWPOLYLINE
5
308
100
AcDbEntity
8
0
100
AcDbPolyline
90
12
70
1
43
0.0
10
0.83570225388209507
20
0.80314175532019738
42
0.22544948219298874
10
0.82577403371406188
20
0.78224218665997547
10
0.82577403371406177
20
0.72650183044919903
42
0.22544948219299257
10
0.83570225388209507
20
0.70560226178897734
10
0.90856289785040667
20
0.6462200085403349
42
0.35589151571367528
10
0.9426296700164184
20
0.6462200085403349
10
1.01549031398473
20
0.70560226178897734
42
0.22544948219299499
10
1.0254185341527631
20
0.72650183044919925
10
1.0254185341527633
20
0.78224218665997558
42
0.22544948219299904
10
1.01549031398473
20
0.80314175532019749
10
0.9426296700164184
20
0.86252400856883993
42
0.35589151571367139
10
0.90856289785040678
20
0.86252400856884004
0
LWPOLYLINE
5
309
100
AcDbEntity
8
0
100
AcDbPolyline
90
12
70
1
43
0.0
10
1.1326958602729551
20
2.2052932002426568
10
1.1326958602729547
20
2.3209367980467595
42
0.2254494821929961
10
1.1120979456187845
20
2.3642967884867678
10
0.96093516913853172
20
2.487496170016009
42
0.35589151571367039
10
0.89025739872829268
20
2.4874961700160094
10
0.73909462224803979
20
2.3642967884867669
42
0.22544948219299707
10
0.71849670759386974
20
2.3209367980467595
10
0.71849670759386985
20
2.2052932002426568
42
0.22544948219298752
10
0.7390946222480399
20
2.1619332098026502
10
0.89025739872829257
20
2.0387338282734073
42
0.35589151571367444
10
0.96093516913853216
20
2.0387338282734069
10
1.1120979456187854
20
2.1619332098026485
42
0.22544948219299815
0
LWPOLYLINE
5
310
100
AcDbEntity
8
0
100
AcDbPolyline
90
12
70
1
43
0.0
10
1.4353113755188709
20
-3.3153805494452415
10
1.6359995502360227
20
-3.1518174052566645
42
0.2254494821929986
10
1.6633459511898647
20
-3.0942513989965512
10
1.6633459511898649
20
-2.9407195368448842
42
0.22544948219299035
10
1.6359995502360227
20
-2.8831535305847704
10
1.4353113755188709
20
-2.7195903863961917
42
0.35589151571367217
10
1.3414774762813702
20
-2.7195903863961917
10
1.1407893015642199
20
-2.88315353058477
42
0.22544948219300073
10
1.1134429006103779
20
-2.9407195368448829
10
1.1134429006103779
20
-3.0942513989965508
42
0.22544948219299887
10
1.1407893015642194
20
-3.1518174052566641
10
1.3414774762813697
20
-3.3153805494452433
42
0.35589151571368843
0
LWPOLYLINE
5
311
100
AcDbEntity
8
0
100
AcDbPolyline
90
12
70
1
43
0.0
10
1.5381013030057
20
1.589963207553458
10
1.4167613267450907
20
1.6888566678229768
42
0.35589151571367278
10
1.3600275250551506
20
1.6888566678229775
10
1.2386875487945408
20
1.5899632075534584
42
0.22544948219299121
10
1.2221533825576465
20
1.5551576798094102
10
1.2221533825576467
20
1.4623293278898852
42
0.22544948219299329
10
1.238687548794541
20
1.4275238001458368
10
1.3600275250551506
20
1.3286303398763177
42
0.35589151571367555
10
1.4167613267450898
20
1.3286303398763177
10
1.5381013030057007
20
1.427523800145837
42
0.22544948219298569
10
1.5546354692425948
20
1.462329327889885
10
1.5546354692425952
20
1.5551576798094102
42
0.22544948219298824
0
LWPOLYLINE
5
312
100
AcDbEntity
8
0
100
AcDbPolyline
90
12
70
1
43
0.0
10
1.0254184794870613
20
-0.7265008191927036
42
0.22544948219299352
10
1.0154902647560238
20
-0.70560126197772166
10
0.9426296606884178
20
-0.64621904124860807
42
0.35589151571367433
10
0.90856290717840726
20
-0.64621904124860807
10
0.8357023031108014
20
-0.70560126197772166
42
0.22544948219299049
10
0.82577408837976374
20
-0.7265008191927036
10
0.82577408837976374
20
-0.78224114487836494
42
0.22544948219299224
10
0.83570230311080129
20
-0.80314070209334698
10
0.90856290717840726
20
-0.86252292282246024
42
0.35589151571367328
10
0.9426296606884178
20
-0.86252292282246024
10
1.0154902647560236
20
-0.80314070209334687
42
0.22544948219299199
10
1.0254184794870611
20
-0.78224114487836494
0
LWPOLYLINE
5
313
100
AcDbEntity
8
0
100
AcDbPolyline
90
12
70
1
43
0.0
10
1.238687605384448
20
-1.5899621503329742
10
1.3600275357779725
20
-1.6888555732202977
42
0.35589151571368155
10
1.4167613160222672
20
-1.6888555732202979
10
1.5381012464157933
20
-1.5899621503329735
42
0.22544948219298663
10
1.5546354064026953
20
-1.5551566357455791
10
1.5546354064026953
20
-1.4623283189156109
42
0.22544948219299038
10
1.5381012464157933
20
-1.4275228043282171
10
1.4167613160222676
20
-1.3286293814408934
42
0.35589151571367189
10
1.3600275357779732
20
-1.3286293814408932
10
1.238687605384448
20
-1.4275228043282171
42
0.22544948219300151
10
1.2221534453975467
20
-1.4623283189156115
10
1.2221534453975467
20
-1.5551566357455791
42
0.22544948219299735
0
LWPOLYLINE
5
314
100
AcDbEntity
8
0
100
AcDbPolyline
90
12
70
1
43
0.0
10
0.7330734157069636
20
2.9420261637011675
10
0.73307341570696405
20
3.0929468251783705
42
0.22544948219298686
10
0.70619211000836168
20
3.149533774764083
10
0.50891714926409271
20
3.3103151107570379
42
0.35589151571366751
10
0.416679134669316
20
3.3103151107570383
10
0.21940417392504624
20
3.149533774764083
42
0.22544948219298838
10
0.19252286822644363
20
3.0929468251783705
10
0.19252286822644391
20
2.9420261637011675
42
0.22544948219299579
10
0.2194041739250466
20
2.885439214115455
10
0.41667913466931555
20
2.7246578781224997
42
0.35589151571369088
10
0.50891714926409248
20
2.7246578781225006
10
0.70619211000836168
20
2.8854392141154555
42
0.22544948219299515
0
LWPOLYLINE
5
315
100
AcDbEntity
8
0
100
AcDbPolyline
90
12
70
1
43
0.0
10
1.3693218006296228
20
0.1211004847199674
10
1.287738270930781
20
0.054608980423055536
42
0.22544948219299907
10
1.2766214429586373
20
0.031207312696569702
10
1.2766214429586369
20
-0.031206286177517806
42
0.22544948219299257
10
1.287738270930781
20
-0.054607953904003408
10
1.3693218006296226
20
-0.12109945820091568
42
0.35589151571367539
10
1.4074670511706184
20
-0.12109945820091561
10
1.4890505808694601
20
-0.05460795390400338
42
0.22544948219298969
10
1.5001674088416044
20
-0.031206286177517722
10
1.5001674088416044
20
0.031207312696569681
42
0.2254494821929898
10
1.4890505808694601
20
0.054608980423055328
10
1.4074670511706184
20
0.12110048471996748
42
0.35589151571367206
0
LWPOLYLINE
5
316
100
AcDbEntity
8
0
100
AcDbPolyline
90
12
70
1
43
0.0
10
1.1326957770642494
20
-2.3209357482959994
10
1.1326957770642492
20
-2.2052921969553148
42
0.22544948219299363
10
1.1120978706859332
20
-2.1619322239365335
10
0.96093515494003467
20
-2.0387328919064807
42
0.35589151571368066
10
0.8902574129267905
20
-2.0387328919064811
10
0.73909469718089116
20
-2.1619322239365339
42
0.22544948219300098
10
0.71849679080257511
20
-2.2052921969553156
10
0.71849679080257534
20
-2.3209357482959998
42
0.22544948219298674
10
0.73909469718089138
20
-2.3642957213147806
10
0.8902574129267905
20
-2.4874950533448339
42
0.35589151571367506
10
0.96093515494003445
20
-2.4874950533448343
10
1.1120978706859332
20
-2.3642957213147806
42
0.22544948219299363
0
LWPOLYLINE
5
317
100
AcDbEntity
8
0
100
AcDbPolyline
90
12
70
1
43
0.0
10
-3.4628054000827624
20
1.3876419674825489
42
-0.22544948219299413
10
-3.4874584441413692
20
1.4395382770190055
10
-3.4874584441413687
20
1.5779487306803064
42
-0.22544948219299191
10
-3.4628054000827611
20
1.6298450402167632
10
-3.2818830760923219
20
1.7772987913283473
42
-0.35589151571367722
10
-3.1972909114415637
20
1.7772987913283458
10
-3.0163685874511281
20
1.629845040216763
42
-0.22544948219299515
10
-2.9917155433925209
20
1.5779487306803057
10
-2.9917155433925209
20
1.4395382770190048
42
-0.22544948219299549
10
-3.0163685874511281
20
1.3876419674825478
10
-3.197290911441566
20
1.2401882163709648
42
-0.35589151571367506
10
-3.2818830760923232
20
1.2401882163709641
0
LWPOLYLINE
5
318
100
AcDbEntity
8
0
100
AcDbPolyline
90
12
70
1
43
0.0
10
5.351503610504019
20
0.14144979339356289
10
5.1401823237860125
20
0.31367904475970848
42
0.35589151571367861
10
5.0413767994815366
20
0.31367904475970904
10
4.8300555127635292
20
0.14144979339356287
42
0.22544948219299385
10
4.8012602105748625
20
0.080833752955459803
10
4.8012602105748634
20
-0.08083272643640782
42
0.2254494821929959
10
4.8300555127635301
20
-0.1414487668745103
10
5.0413767994815366
20
-0.31367801824065711
42
0.35589151571368333
10
5.1401823237860125
20
-0.31367801824065727
10
5.351503610504019
20
-0.14144876687451102
42
0.22544948219299865
10
5.3802989126926875
20
-0.080832726436407806
10
5.3802989126926857
20
0.08083375295545972
42
0.22544948219299951
0
LWPOLYLINE
5
319
100
AcDbEntity
8
0
100
AcDbPolyline
90
12
70
1
43
0.0
10
4.5799585012272033
20
-1.0592883161746416
42
0.35589151571369004
10
4.6760043381069263
20
-1.0592883161746416
10
4.8814233162076377
20
-0.89186951343994147
42
0.22544948219299604
10
4.9094143512877473
20
-0.8329465091525291
10
4.9094143512877455
20
-0.67579545491853898
42
0.22544948219299493
10
4.8814233162076386
20
-0.6168724506311265
10
4.6760043381069254
20
-0.44945364789642639
42
0.35589151571367489
10
4.5799585012272042
20
-0.4494536478964265
10
4.3745395231264874
20
-0.61687245063112617
42
0.22544948219299912
10
4.3465484880463796
20
-0.67579545491853954
10
4.3465484880463796
20
-0.83294650915252877
42
0.22544948219300462
10
4.3745395231264892
20
-0.89186951343994181
0
LWPOLYLINE
5
320
100
AcDbEntity
8
0
100
AcDbPolyline
90
12
70
1
43
0.0
10
-1.8118361245067582
20
-2.513004278763102
42
-0.35589151571368094
10
-1.8905490112269072
20
-2.5130042787631024
10
-2.0588969717289189
20
-2.3757987768631899
42
-0.2254494821929883
10
-2.0818365935284491
20
-2.327509335984101
10
-2.0818365935284486
20
-2.1987186092672051
42
-0.22544948219299732
10
-2.0588969717289181
20
-2.1504291683881154
10
-1.8905490112269054
20
-2.0132236664882046
42
-0.35589151571367106
10
-1.8118361245067571
20
-2.0132236664882051
10
-1.6434881640047458
20
-2.1504291683881163
42
-0.22544948219299746
10
-1.6205485422052157
20
-2.1987186092672055
10
-1.6205485422052153
20
-2.3275093359841019
42
-0.22544948219298699
10
-1.6434881640047458
20
-2.3757987768631907
0
LWPOLYLINE
5
321
100
AcDbEntity
8
0
100
AcDbPolyline
90
12
70
1
43
0.0
10
-2.7415332022024335
20
-0.53051830839662484
10
-2.5907264676694668
20
-0.65342751169068536
42
-0.22544948219299968
10
-2.570177068409194
20
-0.69668537397593211
10
-2.5701770684091936
20
-0.81205659009512421
42
-0.22544948219299674
10
-2.5907264676694668
20
-0.85531445238037018
10
-2.7415332022024335
20
-0.97822365567443059
42
-0.35589151571367628
10
-2.8120445013980495
20
-0.97822365567443081
10
-2.962851235931014
20
-0.85531445238036952
42
-0.22544948219299035
10
-2.9834006351912863
20
-0.81205659009512288
10
-2.9834006351912863
20
-0.69668537397593089
42
-0.22544948219299316
10
-2.962851235931014
20
-0.65342751169068491
10
-2.8120445013980477
20
-0.53051830839662473
42
-0.35589151571367467
0
LWPOLYLINE
5
322
100
AcDbEntity
8
0
100
AcDbPolyline
90
12
70
1
43
0.0
10
-1.3414774622450742
20
2.7195913237930496
42
-0.35589151571367728
10
-1.4353113895551539
20
2.7195913237930496
10
-1.6359996243128114
20
2.8831545169153223
42
-0.22544948219300256
10
-1.6633460334479615
20
2.9407205403976371
10
-1.6633460334479602
20
3.0942524484819103
42
-0.22544948219298688
10
-1.6359996243128103
20
3.1518184719642233
10
-1.4353113895551519
20
3.3153816650864969
42
-0.35589151571367195
10
-1.341477462245072
20
3.3153816650864965
10
-1.1407892274874167
20
3.1518184719642233
42
-0.22544948219299343
10
-1.1134428183522669
20
3.0942524484819089
10
-1.1134428183522682
20
2.9407205403976349
42
-0.22544948219300059
10
-1.1407892274874178
20
2.8831545169153205
0
LWPOLYLINE
5
323
100
AcDbEntity
8
0
100
AcDbPolyline
90
12
70
1
43
0.0
10
4.9135079367107819
20
2.4180202350445734
10
4.6820838266785767
20
2.606633515977844
42
0.3558915157136765
10
4.5738790126555493
20
2.606633515977844
10
4.3424549026233432
20
2.4180202350445739
42
0.22544948219300909
10
4.3109203265963973
20
2.3516378396412003
10
4.3109203265963982
20
2.1745921586482164
42
0.22544948219300309
10
4.3424549026233397
20
2.1082097632448429
10
4.5738790126555493
20
1.9195964823115719
42
0.35589151571366523
10
4.6820838266785767
20
1.9195964823115739
10
4.913507936710781
20
2.1082097632448429
42
0.22544948219300576
10
4.9450425127377242
20
2.1745921586482164
10
4.9450425127377269
20
2.3516378396412003
42
0.22544948219299463
0
LWPOLYLINE
5
324
100
AcDbEntity
8
0
100
AcDbPolyline
90
12
70
1
43
0.0
10
5.4461167035756581
20
-2.9182760290269014
42
0.22544948219300415
10
5.4107752303938126
20
-2.8438798600443094
10
5.1514132852277417
20
-2.6324969258279927
42
0.35589151571367938
10
5.0301458380398065
20
-2.6324969258279918
10
4.7707838928737374
20
-2.8438798600443094
42
0.22544948219299457
10
4.7354424196918918
20
-2.9182760290269014
10
4.7354424196918918
20
-3.116694906814534
42
0.22544948219300018
10
4.7707838928737365
20
-3.1910910757971274
10
5.0301458380398065
20
-3.4024740100134427
42
0.35589151571370359
10
5.1514132852277417
20
-3.4024740100134427
10
5.4107752303938126
20
-3.1910910757971269
42
0.22544948219299868
10
5.4461167035756599
20
-3.116694906814534
0
LWPOLYLINE
5
325
100
AcDbEntity
8
0
100
AcDbPolyline
90
12
70
1
43
0.0
10
-1.3693218006296228
20
0.12110048471997072
10
-1.2877382709307807
20
0.054608980423058694
42
-0.22544948219299901
10
-1.2766214429586364
20
0.031207312696572849
10
-1.2766214429586369
20
-0.03120628617751476
42
-0.22544948219299651
10
-1.2877382709307816
20
-0.054607953904000424
10
-1.3693218006296228
20
-0.12109945820091216
42
-0.3558915157136755
10
-1.4074670511706184
20
-0.12109945820091221
10
-1.4890505808694607
20
-0.054607953903999473
42
-0.2254494821929853
10
-1.500167408841605
20
-0.0312062861775141
10
-1.5001674088416044
20
0.031207312696573349
42
-0.22544948219299107
10
-1.4890505808694598
20
0.054608980423058937
10
-1.407467051170618
20
0.12110048471997065
42
-0.35589151571367234
0
LWPOLYLINE
5
326
100
AcDbEntity
8
0
100
AcDbPolyline
90
12
70
1
43
0.0
10
-1.8776964014461783
20
-0.92265476282244852
10
-1.9910670708368616
20
-0.83025637826172882
42
-0.22544948219299099
10
-2.0065153142918257
20
-0.79773679073219239
10
-2.0065153142918266
20
-0.71100517333886648
42
-0.22544948219299762
10
-1.9910670708368616
20
-0.67848558580932972
10
-1.8776964014461774
20
-0.5860872012486108
42
-0.35589151571367345
10
-1.8246887342874789
20
-0.58608720124861091
10
-1.7113180648967952
20
-0.67848558580933038
42
-0.22544948219299657
10
-1.6958698214418302
20
-0.71100517333886715
10
-1.6958698214418311
20
-0.79773679073219306
42
-0.22544948219299341
10
-1.7113180648967961
20
-0.8302563782617296
10
-1.8246887342874802
20
-0.92265476282244863
42
-0.35589151571367206
0
LWPOLYLINE
5
327
100
AcDbEntity
8
0
100
AcDbPolyline
90
12
70
1
43
0.0
10
4.909414363664836
20
0.83294753912724229
42
0.22544948219299946
10
4.8814233273537146
20
0.89187054600602
10
4.6760043402189169
20
1.059289356103603
42
0.355891515713677
10
4.57995849911521
20
1.0592893561036036
10
4.3745395119804096
20
0.89187054600602
42
0.22544948219299499
10
4.3465484756692865
20
0.83294753912724218
10
4.3465484756692883
20
0.67579647798193321
42
0.22544948219298963
10
4.3745395119804069
20
0.61687347110315516
10
4.57995849911521
20
0.44945466100557196
42
0.35589151571367844
10
4.6760043402189169
20
0.44945466100557246
10
4.8814233273537164
20
0.61687347110315383
42
0.22544948219299812
10
4.9094143636648386
20
0.67579647798193343
0
LWPOLYLINE
5
328
100
AcDbEntity
8
0
100
AcDbPolyline
90
12
70
1
43
0.0
10
4.342454934752241
20
-2.1082087541565189
42
0.22544948219299485
10
4.3109203622737287
20
-2.1745911420902067
10
4.3109203622737278
20
-2.3516368031611092
42
0.22544948219299527
10
4.342454934752241
20
-2.4180191910947975
10
4.5738790187434279
20
-2.6066324508043399
42
0.35589151571369504
10
4.6820838205907025
20
-2.6066324508043386
10
4.913507904581885
20
-2.418019191094797
42
0.22544948219299069
10
4.9450424770603991
20
-2.3516368031611088
10
4.9450424770603991
20
-2.1745911420902067
42
0.22544948219299224
10
4.913507904581885
20
-2.108208754156518
10
4.6820838205907007
20
-1.9195954944469771
42
0.35589151571368371
10
4.5738790187434279
20
-1.9195954944469751
0
LWPOLYLINE
5
329
100
AcDbEntity
8
0
100
AcDbPolyline
90
12
70
1
43
0.0
10
-1.0254185341527609
20
0.72650183044920169
10
-1.0254185341527615
20
0.78224218665997813
42
-0.22544948219299879
10
-1.015490313984728
20
0.80314175532019982
10
-0.94262967001641629
20
0.86252400856884215
42
-0.35589151571367345
10
-0.90856289785040456
20
0.86252400856884215
10
-0.83570225388209329
20
0.80314175532019927
42
-0.22544948219298955
10
-0.82577403371406
20
0.78224218665997736
10
-0.82577403371406011
20
0.72650183044920102
42
-0.22544948219299124
10
-0.8357022538820934
20
0.70560226178897945
10
-0.90856289785040512
20
0.64622000854033712
42
-0.35589151571367711
10
-0.94262967001641695
20
0.64622000854033734
10
-1.015490313984728
20
0.70560226178897989
42
-0.22544948219299601
0
LWPOLYLINE
5
330
100
AcDbEntity
8
0
100
AcDbPolyline
90
12
70
1
43
0.0
10
-2.570177047820732
20
0.81205762236244705
10
-2.5701770478207315
20
0.69668639474674043
42
-0.22544948219299102
10
-2.5907264491287108
20
0.65342852815093322
10
-2.7415331986892748
20
0.53051931260921248
42
-0.35589151571367639
10
-2.8120445049112015
20
0.53051931260921226
10
-2.9628512544717629
20
0.653428528150934
42
-0.22544948219299418
10
-2.9834006557797421
20
0.69668639474674143
10
-2.9834006557797426
20
0.81205762236244805
42
-0.2254494821929954
10
-2.9628512544717625
20
0.85531548895825538
10
-2.8120445049112002
20
0.97822470449997689
42
-0.35589151571367889
10
-2.7415331986892735
20
0.97822470449997589
10
-2.5907264491287108
20
0.85531548895825438
42
-0.22544948219299646
0
LWPOLYLINE
5
331
100
AcDbEntity
8
0
100
AcDbPolyline
90
12
70
1
43
0.0
10
-2.5149846331328134
20
-2.3362092012642548
42
-0.22544948219298724
10
-2.5410234162511913
20
-2.3910225843682458
10
-2.7321153213506424
20
-2.5467646597102664
42
-0.35589151571367456
10
-2.8214623822498481
20
-2.5467646597102682
10
-3.0125542873492965
20
-2.3910225843682449
42
-0.22544948219298566
10
-3.0385930704676749
20
-2.3362092012642539
10
-3.0385930704676749
20
-2.1900187439870469
42
-0.22544948219299751
10
-3.0125542873492961
20
-2.1352053608830559
10
-2.8214623822498468
20
-1.9794632855410346
42
-0.35589151571367639
10
-2.7321153213506411
20
-1.9794632855410348
10
-2.5410234162511909
20
-2.1352053608830572
42
-0.22544948219299685
10
-2.514984633132813
20
-2.1900187439870478
0
LWPOLYLINE
5
332
100
AcDbEntity
8
0
100
AcDbPolyline
90
12
70
1
43
0.0
10
-2.5217671342709096
20
1.5667542774241414
42
-0.22544948219299046
10
-2.5011019009886697
20
1.6102559780866919
10
-2.3494450904812449
20
1.73385800296517
42
-0.35589151571368088
10
-2.2785363291858118
20
1.7338580029651691
10
-2.1268795186783898
20
1.6102559780866903
42
-0.22544948219299671
10
-2.1062142853961503
20
1.5667542774241396
10
-2.1062142853961503
20
1.450732730275166
42
-0.22544948219299593
10
-2.1268795186783902
20
1.4072310296126156
10
-2.2785363291858136
20
1.283629004734137
42
-0.3558915157136755
10
-2.3494450904812454
20
1.2836290047341365
10
-2.5011019009886706
20
1.4072310296126169
42
-0.22544948219299291
10
-2.5217671342709096
20
1.4507327302751674
0
LWPOLYLINE
5
333
100
AcDbEntity
8
0
100
AcDbPolyline
90
12
70
1
43
0.0
10
4.8149745721293877
20
-1.3591114118733907
42
0.2254494821929936
10
4.7845136765873999
20
-1.4232336379176349
10
4.7845136765873999
20
-1.5942513167435552
42
0.22544948219299479
10
4.8149745721293886
20
-1.658373542787799
10
5.0385192183477336
20
-1.8405649711244636
42
0.35589151571368999
10
5.1430399049198163
20
-1.8405649711244654
10
5.3665845511381614
20
-1.6583735427877992
42
0.22544948219299341
10
5.3970454466801501
20
-1.5942513167435552
10
5.3970454466801501
20
-1.4232336379176354
42
0.22544948219300176
10
5.3665845511381614
20
-1.3591114118733909
10
5.1430399049198154
20
-1.1769199835367259
42
0.355891515713679
10
5.0385192183477336
20
-1.1769199835367259
0
LWPOLYLINE
5
334
100
AcDbEntity
8
0
100
AcDbPolyline
90
12
70
1
43
0.0
10
-2.0210251667136041
20
2.9356910846233024
42
-0.22544948219300087
10
-2.0501632236833731
20
2.8743535224058654
10
-2.2639998992275379
20
2.7000742005468115
42
-0.35589151571367544
10
-2.3639815204395145
20
2.7000742005468119
10
-2.5778181959836792
20
2.8743535224058663
42
-0.2254494821930072
10
-2.6069562529534491
20
2.9356910846233051
10
-2.6069562529534487
20
3.0992819042562463
42
-0.22544948219299163
10
-2.5778181959836792
20
3.1606194664736837
10
-2.3639815204395132
20
3.3348987883327381
42
-0.3558915157136775
10
-2.2639998992275361
20
3.3348987883327377
10
-2.0501632236833722
20
3.160619466473682
42
-0.22544948219299191
10
-2.0210251667136032
20
3.0992819042562454
0
LWPOLYLINE
5
335
100
AcDbEntity
8
0
100
AcDbPolyline
90
12
70
1
43
0.0
10
-2.1585427832956992
20
-0.084333852528291314
10
-2.2845359780008403
20
-0.18701973873648997
42
-0.35589151571367178
10
-2.3434454416662271
20
-0.18701973873648955
10
-2.4694386363713678
20
-0.084333852528290495
42
-0.22544948219299216
10
-2.4866068647670763
20
-0.048193581456763598
10
-2.4866068647670776
20
0.048194607975827607
42
-0.22544948219299726
10
-2.4694386363713665
20
0.084334879047354414
10
-2.3434454416662263
20
0.18702076525555272
42
-0.35589151571366923
10
-2.2845359780008399
20
0.18702076525555239
10
-2.1585427832956992
20
0.08433487904735347
42
-0.22544948219299379
10
-2.1413745548999898
20
0.048194607975826809
10
-2.141374554899989
20
-0.0481935814567645
42
-0.22544948219299363
0
LWPOLYLINE
5
336
100
AcDbEntity
8
0
100
AcDbPolyline
90
12
70
1
43
0.0
10
-1.5546354692425912
20
1.4623293278898895
10
-1.5546354692425912
20
1.5551576798094131
42
-0.22544948219299224
10
-1.5381013030056967
20
1.589963207553462
10
-1.416761326745086
20
1.6888566678229799
42
-0.35589151571366628
10
-1.3600275250551472
20
1.6888566678229799
10
-1.2386875487945375
20
1.5899632075534615
42
-0.22544948219299979
10
-1.2221533825576421
20
1.5551576798094118
10
-1.2221533825576429
20
1.4623293278898895
42
-0.22544948219299446
10
-1.238687548794537
20
1.4275238001458401
10
-1.3600275250551472
20
1.3286303398763222
42
-0.35589151571367444
10
-1.4167613267450865
20
1.3286303398763222
10
-1.5381013030056969
20
1.4275238001458406
42
-0.22544948219298891
0
LWPOLYLINE
5
337
100
AcDbEntity
8
0
100
AcDbPolyline
90
12
70
1
43
0.0
10
-2.0588970313333839
20
2.1504301625702649
42
-0.22544948219300548
10
-2.0818366597158473
20
2.1987196173068688
10
-2.0818366597158477
20
2.3275103809825568
42
-0.22544948219300101
10
-2.0588970313333843
20
2.3757998357191608
10
-1.8905490225209278
20
2.5130053769926337
42
-0.35589151571367789
10
-1.811836113212715
20
2.5130053769926319
10
-1.6434881044002583
20
2.3757998357191603
42
-0.22544948219299443
10
-1.6205484760177948
20
2.3275103809825559
10
-1.6205484760177946
20
2.1987196173068679
42
-0.22544948219299987
10
-1.6434881044002581
20
2.1504301625702644
10
-1.8118361132127156
20
2.0132246212967928
42
-0.35589151571367139
10
-1.8905490225209283
20
2.0132246212967924
0
LWPOLYLINE
5
338
100
AcDbEntity
8
0
100
AcDbPolyline
90
12
70
1
43
0.0
10
-2.5217670897830207
20
-1.4507317161770363
42
-0.22544948219299918
10
-2.5011018609255018
20
-1.4072300248288203
10
-2.3494450828899631
20
-1.2836280264152995
42
-0.35589151571367539
10
-2.2785363367771088
20
-1.2836280264152997
10
-2.1268795587415719
20
-1.4072300248288219
42
-0.22544948219299268
10
-2.1062143298840539
20
-1.4507317161770374
10
-2.1062143298840534
20
-1.5667532384841425
42
-0.22544948219299654
10
-2.1268795587415719
20
-1.6102549298323581
10
-2.2785363367771101
20
-1.7338569282458796
42
-0.35589151571367433
10
-2.3494450828899636
20
-1.7338569282458793
10
-2.5011018609255018
20
-1.6102549298323572
42
-0.22544948219299149
10
-2.5217670897830198
20
-1.5667532384841416
0
LWPOLYLINE
5
339
100
AcDbEntity
8
0
100
AcDbPolyline
90
12
70
1
43
0.0
10
-1.695869790530272
20
0.79773782588170039
10
-1.6958697905302722
20
0.71100619122748288
42
-0.22544948219299552
10
-1.7113180370596692
20
0.67848659722606097
10
-1.824688729012816
20
0.58608819427667813
42
-0.35589151571367411
10
-1.877696406720835
20
0.58608819427667846
10
-1.9910670986739809
20
0.67848659722606164
42
-0.22544948219299582
10
-2.0065153452033782
20
0.71100619122748354
10
-2.0065153452033773
20
0.79773782588170117
42
-0.22544948219299552
10
-1.99106709867398
20
0.83025741988312307
10
-1.8776964067208337
20
0.92265582283250525
42
-0.35589151571368138
10
-1.8246887290128144
20
0.92265582283250547
10
-1.711318037059669
20
0.83025741988312252
42
-0.22544948219299502
0
LWPOLYLINE
5
340
100
AcDbEntity
8
0
100
AcDbPolyline
90
12
70
1
43
0.0
10
-2.3639815086677149
20
-3.334897687069569
10
-2.5778181338577162
20
-3.1606184062497311
42
-0.22544948219299513
10
-2.6069561839660693
20
-3.099280858476035
10
-2.6069561839660671
20
-2.9356900773653871
42
-0.22544948219299574
10
-2.5778181338577144
20
-2.874352529591691
10
-2.3639815086677141
20
-2.7000732487718548
42
-0.35589151571367988
10
-2.2639999109993654
20
-2.7000732487718553
10
-2.050163285809365
20
-2.8743525295916923
42
-0.2254494821929966
10
-2.0210252357010132
20
-2.9356900773653876
10
-2.0210252357010128
20
-3.0992808584760381
42
-0.22544948219299038
10
-2.050163285809365
20
-3.1606184062497316
10
-2.2639999109993663
20
-3.3348976870695695
42
-0.35589151571367666
0
LWPOLYLINE
5
341
100
AcDbEntity
8
0
100
AcDbPolyline
90
12
70
1
43
0.0
10
4.8149745517464808
20
1.6583745803650878
42
0.22544948219300329
10
4.7845136539533293
20
1.5942523495819971
10
4.7845136539533284
20
1.4232346581172992
42
0.2254494821929976
10
4.814974551746479
20
1.3591124273342079
10
5.0385192144855182
20
1.1769209855329901
42
0.35589151571369393
10
5.1430399087820291
20
1.1769209855329898
10
5.3665845715210692
20
1.3591124273342081
42
0.22544948219299935
10
5.3970454693142198
20
1.4232346581172985
10
5.3970454693142198
20
1.5942523495819971
42
0.22544948219299488
10
5.3665845715210683
20
1.6583745803650871
10
5.1430399087820291
20
1.8405660221663058
42
0.35589151571368027
10
5.0385192144855182
20
1.840566022166306
0
LWPOLYLINE
5
342
100
AcDbEntity
8
0
100
AcDbPolyline
90
12
70
1
43
0.0
10
-1.5546354064026993
20
-1.4623283189156084
42
-0.22544948219299343
10
-1.5381012464157975
20
-1.4275228043282138
10
-1.4167613160222712
20
-1.3286293814408892
42
-0.35589151571367189
10
-1.3600275357779767
20
-1.3286293814408894
10
-1.2386876053844507
20
-1.4275228043282149
42
-0.22544948219299993
10
-1.2221534453975496
20
-1.4623283189156091
10
-1.2221534453975504
20
-1.5551566357455759
42
-0.22544948219299474
10
-1.238687605384452
20
-1.5899621503329706
10
-1.360027535777977
20
-1.6888555732202937
42
-0.35589151571368255
10
-1.4167613160222723
20
-1.6888555732202939
10
-1.5381012464157977
20
-1.5899621503329704
42
-0.22544948219298824
10
-1.5546354064026997
20
-1.5551566357455755
0
LWPOLYLINE
5
343
100
AcDbEntity
8
0
100
AcDbPolyline
90
12
70
1
43
0.0
10
-1.3414774762813777
20
-3.3153805494452397
42
-0.35589151571368155
10
-1.4353113755188784
20
-3.3153805494452393
10
-1.6359995502360296
20
-3.1518174052566605
42
-0.22544948219300365
10
-1.6633459511898723
20
-3.0942513989965468
10
-1.6633459511898721
20
-2.9407195368448802
42
-0.22544948219298916
10
-1.6359995502360296
20
-2.8831535305847673
10
-1.4353113755188771
20
-2.7195903863961886
42
-0.35589151571367061
10
-1.3414774762813768
20
-2.7195903863961886
10
-1.1407893015642263
20
-2.8831535305847673
42
-0.2254494821930032
10
-1.113442900610385
20
-2.9407195368448811
10
-1.1134429006103854
20
-3.0942513989965481
42
-0.22544948219300226
10
-1.140789301564227
20
-3.1518174052566628
0
LWPOLYLINE
5
344
100
AcDbEntity
8
0
100
AcDbPolyline
90
12
70
1
43
0.0
10
-0.73909462224803424
20
2.3642967884867687
42
-0.22544948219300101
10
-0.71849670759386419
20
2.3209367980467603
10
-0.71849670759386441
20
2.20529320024266
42
-0.22544948219299621
10
-0.73909462224803479
20
2.1619332098026507
10
-0.89025739872828746
20
2.0387338282734095
42
-0.35589151571367716
10
-0.9609351691385275
20
2.0387338282734095
10
-1.1120979456187794
20
2.1619332098026516
42
-0.22544948219299757
10
-1.1326958602729493
20
2.20529320024266
10
-1.1326958602729496
20
2.3209367980467617
42
-0.22544948219299346
10
-1.1120979456187794
20
2.3642967884867696
10
-0.96093516913852595
20
2.4874961700160116
42
-0.35589151571367433
10
-0.89025739872828669
20
2.4874961700160112
0
LWPOLYLINE
5
345
100
AcDbEntity
8
0
100
AcDbPolyline
90
12
70
1
43
0.0
10
-2.5410233693901541
20
2.1352063619788488
10
-2.7321153124712665
20
1.9794642556813407
42
-0.35589151571367711
10
-2.8214623911292041
20
1.9794642556813404
10
-3.0125543342103138
20
2.1352063619788488
42
-0.22544948219299918
10
-3.0385931225041918
20
2.1900197559776151
10
-3.03859312250419
20
2.3362102423118158
42
-0.22544948219299854
10
-3.0125543342103116
20
2.3910236363105821
10
-2.8214623911292014
20
2.5467657426080899
42
-0.35589151571367922
10
-2.7321153124712638
20
2.5467657426080894
10
-2.5410233693901545
20
2.3910236363105817
42
-0.22544948219299416
10
-2.5149845810962752
20
2.336210242311815
10
-2.5149845810962757
20
2.1900197559776138
42
-0.22544948219300145
0
LWPOLYLINE
5
346
100
AcDbEntity
8
0
100
AcDbPolyline
90
12
70
1
43
0.0
10
-3.1856950747266954
20
-2.6753034261113435
10
-2.95517133113123
20
-2.8631828981616381
42
-0.2254494821929976
10
-2.9237594418625825
20
-2.9293070297185899
10
-2.923759441862583
20
-3.1056639061228317
42
-0.22544948219299896
10
-2.9551713311312309
20
-3.1717880376797831
10
-3.1856950747266959
20
-3.3596675097300777
42
-0.3558915157136745
10
-3.2934789128072142
20
-3.3596675097300781
10
-3.524002656402681
20
-3.1717880376797813
42
-0.22544948219299951
10
-3.5554145456713289
20
-3.1056639061228286
10
-3.5554145456713284
20
-2.9293070297185886
42
-0.22544948219299341
10
-3.5240026564026805
20
-2.8631828981616367
10
-3.2934789128072128
20
-2.6753034261113404
42
-0.3558915157136775
0
ENDSEC
0
SECTION
2
OBJECTS
0
DICTIONARY
5
C
100
AcDbDictionary
3
ACAD_GROUP
350
D
3
ACAD_MLINESTYLE
350
17
0
DICTIONARY
5
D
100
AcDbDictionary
0
DICTIONARY
5
1A
330
C
100
AcDbDictionary
0
DICTIONARY
5
17
100
AcDbDictionary
0
ENDSEC
0
EOF
