<?xml version="1.0" encoding="utf-8"?>
<!-- Generator: Adobe Illustrator 26.0.2, SVG Export Plug-In . SVG Version: 6.00 Build 0)  -->
<svg version="1.1" id="Layer_1" xmlns="http://www.w3.org/2000/svg" xmlns:xlink="http://www.w3.org/1999/xlink" x="0px" y="0px"
	 viewBox="0 0 1995 78" style="enable-background:new 0 0 1995 78;" xml:space="preserve">
<style type="text/css">
	.st0{fill:none;}
	.st1{fill:#808080;}
	.st2{font-family:'ShreeDev0714';}
	.st3{font-size:72px;}
	.st4{fill:#F7EF8A;}
	.st5{font-family:'Copperplate';}
	.st6{font-size:91px;}
	.st7{clip-path:url(#SVGID_00000059307988299041745540000001247512613030231966_);}
	.st8{fill:#808080;stroke:#808080;stroke-miterlimit:10;}
	.st9{fill:url(#SVGID_00000089540452428063975800000007052560021413247632_);}
	.st10{clip-path:url(#SVGID_00000122698851065436747920000017008733909077714610_);}
	.st11{fill:url(#SVGID_00000038370683886349274690000015932316341221412771_);}
	.st12{clip-path:url(#SVGID_00000116928382195172800850000017192086984743088283_);}
	.st13{fill:url(#SVGID_00000085240016217801437660000007436428611760131484_);}
	.st14{clip-path:url(#SVGID_00000079445878774748812810000003705731871008871306_);}
	.st15{fill:url(#SVGID_00000181075135988926055330000006959009984981695621_);}
	.st16{clip-path:url(#SVGID_00000153677208522949005200000009912173267326605982_);}
	.st17{fill:url(#SVGID_00000015335255500126645750000004934555646958538658_);}
	.st18{clip-path:url(#SVGID_00000011720510868056011950000012148830655733229447_);}
	.st19{fill:url(#SVGID_00000044162632893689845890000008471440105007285658_);}
	.st20{clip-path:url(#SVGID_00000094588830063393399920000011343266370389835420_);}
	.st21{fill:url(#SVGID_00000018956008515586474560000006230259480666360463_);}
</style>
<rect x="1572.12" y="11.34" class="st0" width="266" height="162"/>
<text transform="matrix(1 0 0 1 1572.1189 64.3789)" class="st1 st2 st3">Pure</text>
<rect x="1729.12" y="24.34" class="st0" width="271" height="107"/>
<text transform="matrix(1 0 0 1 1729.1189 64.3803)" class="st4 st5 st6">Audio</text>
<g>
	<defs>
		<rect id="SVGID_1_" x="1263" y="-70" width="306" height="217"/>
	</defs>
	<clipPath id="SVGID_00000150066819596136944270000010012277459577842082_">
		<use xlink:href="#SVGID_1_"  style="overflow:visible;"/>
	</clipPath>
	<g style="clip-path:url(#SVGID_00000150066819596136944270000010012277459577842082_);">
		<path class="st8" d="M1492.71,30.6c-0.76,0-1.41-0.52-1.64-1.28l-3.74-12.8c-0.29-1.01-1.13-1.66-2.12-1.67h-0.01
			c-0.99,0-1.82,0.65-2.12,1.65l-12.51,41.73c-0.23,0.78-0.88,1.28-1.65,1.27c-0.77-0.01-1.41-0.52-1.63-1.31l-13.14-47.26
			c-0.29-1.04-1.14-1.71-2.15-1.7c-1.02,0.01-1.85,0.69-2.13,1.73l-7.63,28.9c-0.26,0.98-1.05,1.33-1.65,1.33h-0.01
			c-0.61-0.01-1.4-0.36-1.65-1.36l-1.19-4.8c-0.32-1.27-1.36-1.81-2.25-1.76c-0.89,0.04-1.89,0.66-2.1,1.96l-5.67,34.72
			c-0.2,1.22-1.13,1.77-1.97,1.77h-0.01c-0.84-0.01-1.78-0.56-1.97-1.79l-9.48-62.93c-0.23-1.56-1.41-2.25-2.48-2.25h-0.01
			c-1.07,0-2.25,0.71-2.48,2.27l-4.91,34.17c-0.15,1.01-0.89,1.46-1.49,1.54c-0.6,0.08-1.42-0.16-1.79-1.11l-5.18-13.14
			c-0.37-0.94-1.23-1.51-2.19-1.45c-0.96,0.06-1.75,0.74-2.01,1.72l-9.58,35.88c-0.26,0.98-1.05,1.33-1.65,1.33
			c-0.01,0-0.01,0-0.02,0c-0.61-0.01-1.4-0.37-1.64-1.37l-10.61-43.62c-0.25-1.02-1.05-1.72-2.04-1.77
			c-0.99-0.05-1.85,0.54-2.2,1.53l-8.88,25.09c-0.3,0.86-1.01,1.17-1.58,1.18c-0.56,0.01-1.28-0.28-1.61-1.13l-6.25-16.07
			c-0.34-0.86-1.09-1.42-1.96-1.46c-0.88-0.04-1.67,0.45-2.07,1.28c-0.3,0.61-0.88,0.99-1.53,0.99h-77.1c0,0,0,0-0.01,0v0.54
			c0,0,0,0,0.01,0h77.1c0.84,0,1.6-0.49,1.98-1.28c0.31-0.64,0.92-1.02,1.6-0.99c0.68,0.03,1.26,0.46,1.51,1.13l6.25,16.07
			c0.35,0.91,1.14,1.46,2.05,1.46c0.01,0,0.03,0,0.04,0c0.93-0.02,1.72-0.6,2.05-1.53l8.88-25.09c0.27-0.76,0.93-1.22,1.7-1.18
			c0.76,0.04,1.38,0.58,1.57,1.37l10.61,43.62c0.26,1.07,1.1,1.76,2.13,1.78c1.04,0.02,1.89-0.66,2.17-1.72l9.58-35.88
			c0.25-0.92,0.96-1.29,1.55-1.32c0.59-0.04,1.34,0.24,1.69,1.12l5.18,13.14c0.4,1.01,1.31,1.57,2.33,1.43
			c1.02-0.13,1.77-0.92,1.93-1.99l4.91-34.17c0.18-1.25,1.12-1.81,1.97-1.81h0.01c0.85,0,1.79,0.55,1.98,1.79l9.48,62.93
			c0.23,1.55,1.41,2.24,2.47,2.25h0.02c1.06,0,2.23-0.68,2.48-2.22l5.67-34.72c0.17-1.07,0.98-1.48,1.62-1.51
			c0.63-0.03,1.47,0.31,1.73,1.36l1.19,4.8c0.26,1.06,1.1,1.76,2.14,1.77h0.02c1.02,0,1.86-0.68,2.14-1.73l7.63-28.9
			c0.26-0.98,1.05-1.33,1.64-1.33c0.6-0.01,1.39,0.34,1.66,1.31l13.14,47.26c0.28,1.02,1.11,1.69,2.11,1.7
			c1.01,0.01,1.84-0.64,2.15-1.65l12.51-41.73c0.23-0.77,0.87-1.27,1.64-1.27h0.01c0.76,0,1.41,0.51,1.63,1.28l3.74,12.8
			c0.29,1,1.15,1.67,2.13,1.67H1569V30.6H1492.71z"/>
	</g>
	<g style="clip-path:url(#SVGID_00000150066819596136944270000010012277459577842082_);">
		
			<radialGradient id="SVGID_00000072965038481792235120000013994568994584764818_" cx="-6771.8545" cy="2716.8899" r="33.6624" gradientTransform="matrix(-0.5732 0 0 -0.1427 -2325.5754 418.3715)" gradientUnits="userSpaceOnUse">
			<stop  offset="0" style="stop-color:#00EDC1;stop-opacity:0.8"/>
			<stop  offset="0.0639" style="stop-color:#00DABA;stop-opacity:0.7355"/>
			<stop  offset="0.185" style="stop-color:#00BCAE;stop-opacity:0.6131"/>
			<stop  offset="0.3131" style="stop-color:#00A5A5;stop-opacity:0.4838"/>
			<stop  offset="0.4494" style="stop-color:#00949F;stop-opacity:0.346"/>
			<stop  offset="0.5999" style="stop-color:#008A9B;stop-opacity:0.194"/>
			<stop  offset="0.7919" style="stop-color:#00879A;stop-opacity:0"/>
		</radialGradient>
		
			<ellipse style="fill:url(#SVGID_00000072965038481792235120000013994568994584764818_);" cx="1556.08" cy="30.73" rx="12.75" ry="3.17"/>
	</g>
</g>
<g>
	<defs>
		<rect id="SVGID_00000022518587371310661750000004132967648389753483_" x="962.25" y="-70.08" width="306" height="217"/>
	</defs>
	<clipPath id="SVGID_00000034086961314646583110000000731496075954766508_">
		<use xlink:href="#SVGID_00000022518587371310661750000004132967648389753483_"  style="overflow:visible;"/>
	</clipPath>
	<g style="clip-path:url(#SVGID_00000034086961314646583110000000731496075954766508_);">
		<path class="st8" d="M1191.96,30.52c-0.76,0-1.41-0.52-1.64-1.28l-3.74-12.8c-0.29-1.01-1.13-1.66-2.12-1.67h-0.01
			c-0.99,0-1.82,0.65-2.12,1.65l-12.51,41.73c-0.23,0.78-0.88,1.28-1.65,1.27c-0.77-0.01-1.41-0.52-1.63-1.31l-13.14-47.26
			c-0.29-1.04-1.14-1.71-2.15-1.7c-1.02,0.01-1.85,0.69-2.13,1.73l-7.63,28.9c-0.26,0.98-1.05,1.33-1.65,1.33h-0.01
			c-0.61-0.01-1.4-0.36-1.65-1.36l-1.19-4.8c-0.32-1.27-1.36-1.81-2.25-1.76c-0.89,0.04-1.89,0.66-2.1,1.96l-5.67,34.72
			c-0.2,1.22-1.13,1.77-1.97,1.77h-0.01c-0.84-0.01-1.78-0.56-1.97-1.79l-9.48-62.93c-0.23-1.56-1.41-2.25-2.48-2.25h-0.01
			c-1.07,0-2.25,0.71-2.48,2.27l-4.91,34.17c-0.15,1.01-0.89,1.46-1.49,1.54c-0.6,0.08-1.42-0.16-1.79-1.11l-5.18-13.14
			c-0.37-0.94-1.23-1.51-2.19-1.45c-0.96,0.06-1.75,0.74-2.01,1.72l-9.58,35.88c-0.26,0.98-1.05,1.33-1.65,1.33
			c-0.01,0-0.01,0-0.02,0c-0.61-0.01-1.4-0.37-1.64-1.37l-10.61-43.62c-0.25-1.02-1.05-1.72-2.04-1.77
			c-0.99-0.05-1.85,0.54-2.2,1.53l-8.88,25.09c-0.3,0.86-1.01,1.17-1.58,1.18c-0.56,0.01-1.28-0.28-1.61-1.13l-6.25-16.07
			c-0.34-0.86-1.09-1.42-1.96-1.46c-0.88-0.04-1.67,0.45-2.07,1.28c-0.3,0.61-0.88,0.99-1.53,0.99h-77.1c0,0,0,0-0.01,0v0.54
			c0,0,0,0,0.01,0h77.1c0.84,0,1.6-0.49,1.98-1.28c0.31-0.64,0.92-1.02,1.6-0.99c0.68,0.03,1.26,0.46,1.51,1.13l6.25,16.07
			c0.35,0.91,1.14,1.46,2.05,1.46c0.01,0,0.03,0,0.04,0c0.93-0.02,1.72-0.6,2.05-1.53l8.88-25.09c0.27-0.76,0.93-1.22,1.7-1.18
			c0.76,0.04,1.38,0.58,1.57,1.37l10.61,43.62c0.26,1.07,1.1,1.76,2.13,1.78c1.04,0.02,1.89-0.66,2.17-1.72l9.58-35.88
			c0.25-0.92,0.96-1.29,1.55-1.32c0.59-0.04,1.34,0.24,1.69,1.12l5.18,13.14c0.4,1.01,1.31,1.57,2.33,1.43
			c1.02-0.13,1.77-0.92,1.93-1.99l4.91-34.17c0.18-1.25,1.12-1.81,1.97-1.81h0.01c0.85,0,1.79,0.55,1.98,1.79l9.48,62.93
			c0.23,1.55,1.41,2.24,2.47,2.25h0.02c1.06,0,2.23-0.68,2.48-2.22l5.67-34.72c0.17-1.07,0.98-1.48,1.62-1.51
			c0.63-0.03,1.47,0.31,1.73,1.36l1.19,4.8c0.26,1.06,1.1,1.76,2.14,1.77h0.02c1.02,0,1.86-0.68,2.14-1.73l7.63-28.9
			c0.26-0.98,1.04-1.33,1.64-1.33c0.6-0.01,1.39,0.34,1.66,1.31l13.14,47.26c0.28,1.02,1.11,1.69,2.11,1.7
			c1.01,0.01,1.84-0.64,2.15-1.65l12.51-41.73c0.23-0.77,0.87-1.27,1.64-1.27h0.01c0.76,0,1.41,0.51,1.63,1.28l3.74,12.8
			c0.29,1,1.15,1.67,2.13,1.67h76.29v-0.54H1191.96z"/>
	</g>
	<g style="clip-path:url(#SVGID_00000034086961314646583110000000731496075954766508_);">
		
			<radialGradient id="SVGID_00000161618908068570710830000001457804543660478629_" cx="-6247.1582" cy="2717.4331" r="33.6624" gradientTransform="matrix(-0.5732 0 0 -0.1427 -2325.5754 418.3715)" gradientUnits="userSpaceOnUse">
			<stop  offset="0" style="stop-color:#00EDC1;stop-opacity:0.8"/>
			<stop  offset="0.0639" style="stop-color:#00DABA;stop-opacity:0.7355"/>
			<stop  offset="0.185" style="stop-color:#00BCAE;stop-opacity:0.6131"/>
			<stop  offset="0.3131" style="stop-color:#00A5A5;stop-opacity:0.4838"/>
			<stop  offset="0.4494" style="stop-color:#00949F;stop-opacity:0.346"/>
			<stop  offset="0.5999" style="stop-color:#008A9B;stop-opacity:0.194"/>
			<stop  offset="0.7919" style="stop-color:#00879A;stop-opacity:0"/>
		</radialGradient>
		
			<ellipse style="fill:url(#SVGID_00000161618908068570710830000001457804543660478629_);" cx="1255.33" cy="30.65" rx="12.75" ry="3.17"/>
	</g>
</g>
<g>
	<defs>
		<rect id="SVGID_00000044885921105636834740000005221151629442810000_" x="959.03" y="-69.66" width="306" height="216.66"/>
	</defs>
	<clipPath id="SVGID_00000014606656357889980200000001337341592134103979_">
		<use xlink:href="#SVGID_00000044885921105636834740000005221151629442810000_"  style="overflow:visible;"/>
	</clipPath>
	<g style="clip-path:url(#SVGID_00000014606656357889980200000001337341592134103979_);">
		<path class="st8" d="M1188.74,30.78c-0.76,0-1.41-0.51-1.64-1.28l-3.74-12.78c-0.29-1.01-1.13-1.66-2.12-1.66h-0.01
			c-0.99,0-1.82,0.65-2.12,1.65l-12.51,41.66c-0.23,0.78-0.88,1.28-1.65,1.27c-0.77-0.01-1.41-0.52-1.63-1.31l-13.14-47.19
			c-0.29-1.04-1.14-1.71-2.15-1.69c-1.02,0.01-1.85,0.69-2.13,1.73l-7.63,28.85c-0.26,0.98-1.05,1.33-1.65,1.33h-0.01
			c-0.61-0.01-1.4-0.36-1.65-1.36l-1.19-4.79c-0.32-1.27-1.36-1.81-2.25-1.76c-0.89,0.04-1.89,0.66-2.1,1.96l-5.67,34.67
			c-0.2,1.22-1.13,1.76-1.97,1.76h-0.01c-0.84-0.01-1.78-0.56-1.97-1.79l-9.48-62.83c-0.23-1.55-1.41-2.25-2.48-2.25h-0.01
			c-1.07,0-2.25,0.71-2.48,2.27l-4.91,34.12c-0.15,1.01-0.89,1.46-1.49,1.53c-0.6,0.08-1.42-0.16-1.79-1.1l-5.18-13.12
			c-0.37-0.94-1.23-1.51-2.19-1.45c-0.96,0.06-1.75,0.73-2.01,1.71l-9.58,35.82c-0.26,0.98-1.05,1.32-1.65,1.32
			c-0.01,0-0.01,0-0.02,0c-0.61-0.01-1.4-0.37-1.64-1.37l-10.61-43.55c-0.25-1.02-1.05-1.71-2.04-1.77
			c-0.99-0.05-1.85,0.54-2.2,1.53l-8.88,25.05c-0.3,0.86-1.01,1.17-1.58,1.18c-0.56,0.01-1.28-0.28-1.61-1.13l-6.25-16.04
			c-0.34-0.86-1.09-1.42-1.96-1.46c-0.88-0.04-1.67,0.45-2.07,1.28c-0.3,0.61-0.88,0.99-1.53,0.99h-77.1c0,0,0,0-0.01,0v0.54
			c0,0,0,0,0.01,0h77.1c0.84,0,1.6-0.49,1.98-1.28c0.31-0.64,0.92-1.02,1.6-0.99c0.68,0.03,1.26,0.46,1.51,1.12l6.25,16.04
			c0.35,0.9,1.14,1.46,2.05,1.46c0.01,0,0.03,0,0.04,0c0.93-0.02,1.72-0.6,2.05-1.53l8.88-25.05c0.27-0.76,0.93-1.22,1.7-1.18
			c0.76,0.04,1.38,0.58,1.57,1.36l10.61,43.55c0.26,1.06,1.1,1.76,2.13,1.77c1.04,0.02,1.89-0.66,2.17-1.72l9.58-35.82
			c0.25-0.92,0.96-1.28,1.55-1.32c0.59-0.04,1.34,0.24,1.69,1.11l5.18,13.12c0.4,1,1.31,1.57,2.33,1.43
			c1.02-0.13,1.77-0.91,1.93-1.99l4.91-34.12c0.18-1.24,1.12-1.8,1.97-1.81h0.01c0.85,0,1.79,0.55,1.98,1.79l9.48,62.83
			c0.23,1.54,1.41,2.24,2.47,2.25h0.02c1.06,0,2.23-0.68,2.48-2.21l5.67-34.67c0.17-1.07,0.98-1.48,1.62-1.51
			c0.63-0.03,1.47,0.31,1.73,1.36l1.19,4.79c0.26,1.06,1.1,1.75,2.14,1.76h0.02c1.02,0,1.86-0.68,2.14-1.73l7.63-28.85
			c0.26-0.97,1.05-1.33,1.64-1.33c0.6-0.01,1.39,0.34,1.66,1.31l13.14,47.19c0.28,1.02,1.11,1.68,2.11,1.69
			c1.01,0.01,1.84-0.63,2.15-1.65l12.51-41.66c0.23-0.77,0.87-1.27,1.64-1.27h0.01c0.76,0,1.41,0.51,1.63,1.28l3.74,12.78
			c0.29,0.99,1.15,1.66,2.13,1.66h76.29v-0.54H1188.74z"/>
	</g>
	<g style="clip-path:url(#SVGID_00000014606656357889980200000001337341592134103979_);">
		
			<radialGradient id="SVGID_00000029012793031198585740000000003752791588995979_" cx="-6241.542" cy="2714.5002" r="33.6624" gradientTransform="matrix(-0.5732 0 0 -0.1425 -2325.5754 417.6047)" gradientUnits="userSpaceOnUse">
			<stop  offset="0" style="stop-color:#00EDC1;stop-opacity:0.8"/>
			<stop  offset="0.0639" style="stop-color:#00DABA;stop-opacity:0.7355"/>
			<stop  offset="0.185" style="stop-color:#00BCAE;stop-opacity:0.6131"/>
			<stop  offset="0.3131" style="stop-color:#00A5A5;stop-opacity:0.4838"/>
			<stop  offset="0.4494" style="stop-color:#00949F;stop-opacity:0.346"/>
			<stop  offset="0.5999" style="stop-color:#008A9B;stop-opacity:0.194"/>
			<stop  offset="0.7919" style="stop-color:#00879A;stop-opacity:0"/>
		</radialGradient>
		
			<ellipse style="fill:url(#SVGID_00000029012793031198585740000000003752791588995979_);" cx="1252.11" cy="30.92" rx="12.75" ry="3.17"/>
	</g>
</g>
<g>
	<defs>
		<rect id="SVGID_00000011728526262819807470000018066710049473536645_" x="663.77" y="-69.49" width="306" height="217"/>
	</defs>
	<clipPath id="SVGID_00000093886580429629438120000001429338562740800161_">
		<use xlink:href="#SVGID_00000011728526262819807470000018066710049473536645_"  style="overflow:visible;"/>
	</clipPath>
	<g style="clip-path:url(#SVGID_00000093886580429629438120000001429338562740800161_);">
		<path class="st8" d="M893.48,31.11c-0.76,0-1.41-0.52-1.64-1.28l-3.74-12.8c-0.29-1.01-1.13-1.66-2.12-1.67h-0.01
			c-0.99,0-1.82,0.65-2.12,1.65l-12.51,41.73c-0.23,0.78-0.88,1.28-1.65,1.27c-0.77-0.01-1.41-0.52-1.63-1.31l-13.14-47.26
			c-0.29-1.04-1.14-1.71-2.15-1.7c-1.02,0.01-1.85,0.69-2.13,1.73l-7.63,28.9c-0.26,0.98-1.05,1.33-1.65,1.33h-0.01
			c-0.61-0.01-1.4-0.36-1.65-1.36l-1.19-4.8c-0.32-1.27-1.36-1.81-2.25-1.76c-0.89,0.04-1.89,0.66-2.1,1.96l-5.67,34.72
			c-0.2,1.22-1.13,1.77-1.97,1.77h-0.01c-0.84-0.01-1.78-0.56-1.97-1.79l-9.48-62.93c-0.23-1.56-1.41-2.25-2.48-2.25h-0.01
			c-1.07,0-2.25,0.71-2.48,2.27l-4.91,34.17c-0.15,1.01-0.89,1.46-1.49,1.54c-0.6,0.08-1.42-0.16-1.79-1.11l-5.18-13.14
			c-0.37-0.94-1.23-1.51-2.19-1.45c-0.96,0.06-1.75,0.74-2.01,1.72l-9.58,35.88c-0.26,0.98-1.05,1.33-1.65,1.33
			c-0.01,0-0.01,0-0.02,0c-0.61-0.01-1.4-0.37-1.64-1.37l-10.61-43.62c-0.25-1.02-1.05-1.72-2.04-1.77
			c-0.99-0.05-1.85,0.54-2.2,1.53l-8.88,25.09c-0.3,0.86-1.01,1.17-1.58,1.18c-0.56,0.01-1.28-0.28-1.61-1.13l-6.25-16.07
			c-0.34-0.86-1.09-1.42-1.96-1.46c-0.88-0.04-1.67,0.45-2.07,1.28c-0.3,0.61-0.88,0.99-1.53,0.99h-77.1c0,0,0,0-0.01,0v0.54
			c0,0,0,0,0.01,0h77.1c0.84,0,1.6-0.49,1.98-1.28c0.31-0.64,0.92-1.02,1.6-0.99c0.68,0.03,1.26,0.46,1.51,1.13l6.25,16.07
			c0.35,0.91,1.14,1.46,2.05,1.46c0.01,0,0.03,0,0.04,0c0.93-0.02,1.72-0.6,2.05-1.53l8.88-25.09c0.27-0.76,0.93-1.22,1.7-1.18
			c0.76,0.04,1.38,0.58,1.57,1.37l10.61,43.62c0.26,1.07,1.1,1.76,2.13,1.78c1.04,0.02,1.89-0.66,2.17-1.72L793,29.4
			c0.25-0.92,0.96-1.29,1.55-1.32c0.59-0.04,1.34,0.24,1.69,1.12l5.18,13.14c0.4,1.01,1.31,1.57,2.33,1.43
			c1.02-0.13,1.77-0.92,1.93-1.99l4.91-34.17c0.18-1.25,1.12-1.81,1.97-1.81h0.01c0.85,0,1.79,0.55,1.98,1.79l9.48,62.93
			c0.23,1.55,1.41,2.24,2.47,2.25h0.02c1.06,0,2.23-0.68,2.48-2.22l5.67-34.72c0.17-1.07,0.98-1.48,1.62-1.51
			c0.63-0.03,1.47,0.31,1.73,1.36l1.19,4.8c0.26,1.06,1.1,1.76,2.14,1.77h0.02c1.02,0,1.86-0.68,2.14-1.73l7.63-28.9
			c0.26-0.98,1.05-1.33,1.64-1.33c0.6-0.01,1.39,0.34,1.66,1.31l13.14,47.26c0.28,1.02,1.11,1.69,2.11,1.7
			c1.01,0.01,1.84-0.64,2.15-1.65l12.51-41.73c0.23-0.77,0.87-1.27,1.64-1.27h0.01c0.76,0,1.41,0.51,1.63,1.28l3.74,12.8
			c0.29,1,1.15,1.67,2.13,1.67h76.29v-0.54H893.48z"/>
	</g>
	<g style="clip-path:url(#SVGID_00000093886580429629438120000001429338562740800161_);">
		
			<radialGradient id="SVGID_00000121987055936706447120000001469085467028935323_" cx="-5726.4272" cy="2713.2876" r="33.6624" gradientTransform="matrix(-0.5732 0 0 -0.1427 -2325.5754 418.3715)" gradientUnits="userSpaceOnUse">
			<stop  offset="0" style="stop-color:#00EDC1;stop-opacity:0.8"/>
			<stop  offset="0.0639" style="stop-color:#00DABA;stop-opacity:0.7355"/>
			<stop  offset="0.185" style="stop-color:#00BCAE;stop-opacity:0.6131"/>
			<stop  offset="0.3131" style="stop-color:#00A5A5;stop-opacity:0.4838"/>
			<stop  offset="0.4494" style="stop-color:#00949F;stop-opacity:0.346"/>
			<stop  offset="0.5999" style="stop-color:#008A9B;stop-opacity:0.194"/>
			<stop  offset="0.7919" style="stop-color:#00879A;stop-opacity:0"/>
		</radialGradient>
		
			<ellipse style="fill:url(#SVGID_00000121987055936706447120000001469085467028935323_);" cx="956.85" cy="31.25" rx="12.75" ry="3.17"/>
	</g>
</g>
<g>
	<defs>
		<rect id="SVGID_00000177461012132245978620000017290368471740222908_" x="363.43" y="-69.7" width="306" height="217"/>
	</defs>
	<clipPath id="SVGID_00000174571619837539607560000014236990239139585470_">
		<use xlink:href="#SVGID_00000177461012132245978620000017290368471740222908_"  style="overflow:visible;"/>
	</clipPath>
	<g style="clip-path:url(#SVGID_00000174571619837539607560000014236990239139585470_);">
		<path class="st8" d="M593.14,30.89c-0.76,0-1.41-0.52-1.64-1.28l-3.74-12.8c-0.29-1.01-1.13-1.66-2.12-1.67h-0.01
			c-0.99,0-1.82,0.65-2.12,1.65L571,58.52c-0.23,0.78-0.88,1.28-1.65,1.27c-0.77-0.01-1.41-0.52-1.63-1.31l-13.14-47.26
			c-0.29-1.04-1.14-1.71-2.15-1.7c-1.02,0.01-1.85,0.69-2.13,1.73l-7.63,28.9c-0.26,0.98-1.05,1.33-1.65,1.33H541
			c-0.61-0.01-1.4-0.36-1.65-1.36l-1.19-4.8c-0.32-1.27-1.36-1.81-2.25-1.76c-0.89,0.04-1.89,0.66-2.1,1.96l-5.67,34.72
			c-0.2,1.22-1.13,1.77-1.97,1.77h-0.01c-0.84-0.01-1.78-0.56-1.97-1.79l-9.48-62.93c-0.23-1.56-1.41-2.25-2.48-2.25h-0.01
			c-1.07,0-2.25,0.71-2.48,2.27l-4.91,34.17c-0.15,1.01-0.89,1.46-1.49,1.54c-0.6,0.08-1.42-0.16-1.79-1.11l-5.18-13.14
			c-0.37-0.94-1.23-1.51-2.19-1.45c-0.96,0.06-1.75,0.74-2.01,1.72l-9.58,35.88c-0.26,0.98-1.05,1.33-1.65,1.33
			c-0.01,0-0.01,0-0.02,0c-0.61-0.01-1.4-0.37-1.64-1.37l-10.61-43.62c-0.25-1.02-1.05-1.72-2.04-1.77
			c-0.99-0.05-1.85,0.54-2.2,1.53l-8.88,25.09c-0.3,0.86-1.01,1.17-1.58,1.18c-0.56,0.01-1.28-0.28-1.61-1.13l-6.25-16.07
			c-0.34-0.86-1.09-1.42-1.96-1.46c-0.88-0.04-1.67,0.45-2.07,1.28c-0.3,0.61-0.88,0.99-1.53,0.99h-77.1c0,0,0,0-0.01,0v0.54
			c0,0,0,0,0.01,0h77.1c0.84,0,1.6-0.49,1.98-1.28c0.31-0.64,0.92-1.02,1.6-0.99c0.68,0.03,1.26,0.46,1.51,1.13l6.25,16.07
			c0.35,0.91,1.14,1.46,2.05,1.46c0.01,0,0.03,0,0.04,0c0.93-0.02,1.72-0.6,2.05-1.53l8.88-25.09c0.27-0.76,0.93-1.22,1.7-1.18
			c0.76,0.04,1.38,0.58,1.57,1.37L478.78,65c0.26,1.07,1.1,1.76,2.13,1.78c1.04,0.02,1.89-0.66,2.17-1.72l9.58-35.88
			c0.25-0.92,0.96-1.29,1.55-1.32c0.59-0.04,1.34,0.24,1.69,1.12l5.18,13.14c0.4,1.01,1.31,1.57,2.33,1.43
			c1.02-0.13,1.77-0.92,1.93-1.99l4.91-34.17c0.18-1.25,1.12-1.81,1.97-1.81h0.01c0.85,0,1.79,0.55,1.98,1.79l9.48,62.93
			c0.23,1.55,1.41,2.24,2.47,2.25h0.02c1.06,0,2.23-0.68,2.48-2.22l5.67-34.72c0.17-1.07,0.98-1.48,1.62-1.51
			c0.63-0.03,1.47,0.31,1.73,1.36l1.19,4.8c0.26,1.06,1.1,1.76,2.14,1.77h0.02c1.02,0,1.86-0.68,2.14-1.73l7.63-28.9
			c0.26-0.98,1.04-1.33,1.64-1.33c0.6-0.01,1.39,0.34,1.66,1.31l13.14,47.26c0.28,1.02,1.11,1.69,2.11,1.7
			c1.01,0.01,1.84-0.64,2.15-1.65l12.51-41.73c0.23-0.77,0.87-1.27,1.64-1.27h0.01c0.76,0,1.41,0.51,1.63,1.28l3.74,12.8
			c0.29,1,1.15,1.67,2.13,1.67h76.29v-0.54H593.14z"/>
	</g>
	<g style="clip-path:url(#SVGID_00000174571619837539607560000014236990239139585470_);">
		
			<radialGradient id="SVGID_00000029034579123481557210000011182287412612848514_" cx="-5202.4355" cy="2714.8123" r="33.6624" gradientTransform="matrix(-0.5732 0 0 -0.1427 -2325.5754 418.3715)" gradientUnits="userSpaceOnUse">
			<stop  offset="0" style="stop-color:#00EDC1;stop-opacity:0.8"/>
			<stop  offset="0.0639" style="stop-color:#00DABA;stop-opacity:0.7355"/>
			<stop  offset="0.185" style="stop-color:#00BCAE;stop-opacity:0.6131"/>
			<stop  offset="0.3131" style="stop-color:#00A5A5;stop-opacity:0.4838"/>
			<stop  offset="0.4494" style="stop-color:#00949F;stop-opacity:0.346"/>
			<stop  offset="0.5999" style="stop-color:#008A9B;stop-opacity:0.194"/>
			<stop  offset="0.7919" style="stop-color:#00879A;stop-opacity:0"/>
		</radialGradient>
		
			<ellipse style="fill:url(#SVGID_00000029034579123481557210000011182287412612848514_);" cx="656.51" cy="31.03" rx="12.75" ry="3.17"/>
	</g>
</g>
<g>
	<defs>
		<rect id="SVGID_00000139289740507751283420000016462602686397368448_" x="360.43" y="-69.7" width="306" height="217"/>
	</defs>
	<clipPath id="SVGID_00000066504606879451553860000006818745412106955933_">
		<use xlink:href="#SVGID_00000139289740507751283420000016462602686397368448_"  style="overflow:visible;"/>
	</clipPath>
	<g style="clip-path:url(#SVGID_00000066504606879451553860000006818745412106955933_);">
		<path class="st8" d="M590.14,30.89c-0.76,0-1.41-0.52-1.64-1.28l-3.74-12.8c-0.29-1.01-1.13-1.66-2.12-1.67h-0.01
			c-0.99,0-1.82,0.65-2.12,1.65L568,58.52c-0.23,0.78-0.88,1.28-1.65,1.27c-0.77-0.01-1.41-0.52-1.63-1.31l-13.14-47.26
			c-0.29-1.04-1.14-1.71-2.15-1.7c-1.02,0.01-1.85,0.69-2.13,1.73l-7.63,28.9c-0.26,0.98-1.05,1.33-1.65,1.33H538
			c-0.61-0.01-1.4-0.36-1.65-1.36l-1.19-4.8c-0.32-1.27-1.36-1.81-2.25-1.76c-0.89,0.04-1.89,0.66-2.1,1.96l-5.67,34.72
			c-0.2,1.22-1.13,1.77-1.97,1.77h-0.01c-0.84-0.01-1.78-0.56-1.97-1.79l-9.48-62.93c-0.23-1.56-1.41-2.25-2.48-2.25h-0.01
			c-1.07,0-2.25,0.71-2.48,2.27l-4.91,34.17c-0.15,1.01-0.89,1.46-1.49,1.54c-0.6,0.08-1.42-0.16-1.79-1.11l-5.18-13.14
			c-0.37-0.94-1.23-1.51-2.19-1.45c-0.96,0.06-1.75,0.74-2.01,1.72l-9.58,35.88c-0.26,0.98-1.05,1.33-1.65,1.33
			c-0.01,0-0.01,0-0.02,0c-0.61-0.01-1.4-0.37-1.64-1.37l-10.61-43.62c-0.25-1.02-1.05-1.72-2.04-1.77
			c-0.99-0.05-1.85,0.54-2.2,1.53l-8.88,25.09c-0.3,0.86-1.01,1.17-1.58,1.18c-0.56,0.01-1.28-0.28-1.61-1.13l-6.25-16.07
			c-0.34-0.86-1.09-1.42-1.96-1.46c-0.88-0.04-1.67,0.45-2.07,1.28c-0.3,0.61-0.88,0.99-1.53,0.99h-77.1c0,0,0,0-0.01,0v0.54
			c0,0,0,0,0.01,0h77.1c0.84,0,1.6-0.49,1.98-1.28c0.31-0.64,0.92-1.02,1.6-0.99c0.68,0.03,1.26,0.46,1.51,1.13l6.25,16.07
			c0.35,0.91,1.14,1.46,2.05,1.46c0.01,0,0.03,0,0.04,0c0.93-0.02,1.72-0.6,2.05-1.53l8.88-25.09c0.27-0.76,0.93-1.22,1.7-1.18
			c0.76,0.04,1.38,0.58,1.57,1.37L475.78,65c0.26,1.07,1.1,1.76,2.13,1.78c1.04,0.02,1.89-0.66,2.17-1.72l9.58-35.88
			c0.25-0.92,0.96-1.29,1.55-1.32c0.59-0.04,1.34,0.24,1.69,1.12l5.18,13.14c0.4,1.01,1.31,1.57,2.33,1.43
			c1.02-0.13,1.77-0.92,1.93-1.99l4.91-34.17c0.18-1.25,1.12-1.81,1.97-1.81h0.01c0.85,0,1.79,0.55,1.98,1.79l9.48,62.93
			c0.23,1.55,1.41,2.24,2.47,2.25h0.02c1.06,0,2.23-0.68,2.48-2.22l5.67-34.72c0.17-1.07,0.98-1.48,1.62-1.51
			c0.63-0.03,1.47,0.31,1.73,1.36l1.19,4.8c0.26,1.06,1.1,1.76,2.14,1.77h0.02c1.02,0,1.86-0.68,2.14-1.73l7.63-28.9
			c0.26-0.98,1.04-1.33,1.64-1.33c0.6-0.01,1.39,0.34,1.66,1.31l13.14,47.26c0.28,1.02,1.11,1.69,2.11,1.7
			c1.01,0.01,1.84-0.64,2.15-1.65l12.51-41.73c0.23-0.77,0.87-1.27,1.64-1.27h0.01c0.76,0,1.41,0.51,1.63,1.28l3.74,12.8
			c0.29,1,1.15,1.67,2.13,1.67h76.29v-0.54H590.14z"/>
	</g>
	<g style="clip-path:url(#SVGID_00000066504606879451553860000006818745412106955933_);">
		
			<radialGradient id="SVGID_00000006709889690019377190000002655737358296884107_" cx="-5197.2017" cy="2714.8123" r="33.6624" gradientTransform="matrix(-0.5732 0 0 -0.1427 -2325.5754 418.3715)" gradientUnits="userSpaceOnUse">
			<stop  offset="0" style="stop-color:#00EDC1;stop-opacity:0.8"/>
			<stop  offset="0.0639" style="stop-color:#00DABA;stop-opacity:0.7355"/>
			<stop  offset="0.185" style="stop-color:#00BCAE;stop-opacity:0.6131"/>
			<stop  offset="0.3131" style="stop-color:#00A5A5;stop-opacity:0.4838"/>
			<stop  offset="0.4494" style="stop-color:#00949F;stop-opacity:0.346"/>
			<stop  offset="0.5999" style="stop-color:#008A9B;stop-opacity:0.194"/>
			<stop  offset="0.7919" style="stop-color:#00879A;stop-opacity:0"/>
		</radialGradient>
		
			<ellipse style="fill:url(#SVGID_00000006709889690019377190000002655737358296884107_);" cx="653.51" cy="31.03" rx="12.75" ry="3.17"/>
	</g>
</g>
<g>
	<defs>
		<polygon id="SVGID_00000047041030948543647780000001193340933106472109_" points="363.43,147.3 -66,147 -11,-66 363.43,-69.7 		
			"/>
	</defs>
	<clipPath id="SVGID_00000112594061176812502200000002146101407468221592_">
		<use xlink:href="#SVGID_00000047041030948543647780000001193340933106472109_"  style="overflow:visible;"/>
	</clipPath>
	<g style="clip-path:url(#SVGID_00000112594061176812502200000002146101407468221592_);">
		<path class="st8" d="M287.14,30.89c-0.76,0-1.41-0.52-1.64-1.28l-3.74-12.8c-0.29-1.01-1.13-1.66-2.12-1.67h-0.01
			c-0.99,0-1.82,0.65-2.12,1.65L265,58.52c-0.23,0.78-0.88,1.28-1.65,1.27c-0.77-0.01-1.41-0.52-1.63-1.31l-13.14-47.26
			c-0.29-1.04-1.14-1.71-2.15-1.7c-1.02,0.01-1.85,0.69-2.13,1.73l-7.63,28.9c-0.26,0.98-1.05,1.33-1.65,1.33H235
			c-0.61-0.01-1.4-0.36-1.65-1.36l-1.19-4.8c-0.32-1.27-1.36-1.81-2.25-1.76c-0.89,0.04-1.89,0.66-2.1,1.96l-5.67,34.72
			c-0.2,1.22-1.13,1.77-1.97,1.77h-0.01c-0.84-0.01-1.78-0.56-1.97-1.79l-9.48-62.93c-0.23-1.56-1.41-2.25-2.48-2.25h-0.01
			c-1.07,0-2.25,0.71-2.48,2.27l-4.91,34.17c-0.15,1.01-0.89,1.46-1.49,1.54c-0.6,0.08-1.42-0.16-1.79-1.11l-5.18-13.14
			c-0.37-0.94-1.23-1.51-2.19-1.45c-0.96,0.06-1.75,0.74-2.01,1.72l-9.58,35.88c-0.26,0.98-1.05,1.33-1.65,1.33
			c-0.01,0-0.01,0-0.02,0c-0.61-0.01-1.4-0.37-1.64-1.37l-10.61-43.62c-0.25-1.02-1.05-1.72-2.04-1.77
			c-0.99-0.05-1.85,0.54-2.2,1.53l-8.88,25.09c-0.3,0.86-1.01,1.17-1.58,1.18c-0.56,0.01-1.28-0.28-1.61-1.13l-6.25-16.07
			c-0.34-0.86-1.09-1.42-1.96-1.46c-0.88-0.04-1.67,0.45-2.07,1.28c-0.3,0.61-0.88,0.99-1.53,0.99L31.5,31.5c0,0-32,0-32,0l0,0
			c0,0,32,0,32,0l103.03-0.07c0.84,0,1.6-0.49,1.98-1.28c0.31-0.64,0.92-1.02,1.6-0.99c0.68,0.03,1.26,0.46,1.51,1.13l6.25,16.07
			c0.35,0.91,1.14,1.46,2.05,1.46c0.01,0,0.03,0,0.04,0c0.93-0.02,1.72-0.6,2.05-1.53l8.88-25.09c0.27-0.76,0.93-1.22,1.7-1.18
			c0.76,0.04,1.38,0.58,1.57,1.37L172.78,65c0.26,1.07,1.1,1.76,2.13,1.78c1.04,0.02,1.89-0.66,2.17-1.72l9.58-35.88
			c0.25-0.92,0.96-1.29,1.55-1.32c0.59-0.04,1.34,0.24,1.69,1.12l5.18,13.14c0.4,1.01,1.31,1.57,2.33,1.43
			c1.02-0.13,1.77-0.92,1.93-1.99l4.91-34.17c0.18-1.25,1.12-1.81,1.97-1.81h0.01c0.85,0,1.79,0.55,1.98,1.79l9.48,62.93
			c0.23,1.55,1.41,2.24,2.47,2.25h0.02c1.06,0,2.23-0.68,2.48-2.22l5.67-34.72c0.17-1.07,0.98-1.48,1.62-1.51
			c0.63-0.03,1.47,0.31,1.73,1.36l1.19,4.8c0.26,1.06,1.1,1.76,2.14,1.77h0.02c1.02,0,1.86-0.68,2.14-1.73l7.63-28.9
			c0.26-0.98,1.05-1.33,1.64-1.33c0.6-0.01,1.39,0.34,1.66,1.31l13.14,47.26c0.28,1.02,1.11,1.69,2.11,1.7
			c1.01,0.01,1.84-0.64,2.15-1.65l12.51-41.73c0.23-0.77,0.87-1.27,1.64-1.27h0.01c0.76,0,1.41,0.51,1.63,1.28l3.74,12.8
			c0.29,1,1.15,1.67,2.13,1.67h76.29v-0.54H287.14z"/>
	</g>
	<g style="clip-path:url(#SVGID_00000112594061176812502200000002146101407468221592_);">
		
			<radialGradient id="SVGID_00000146489691219856756700000017507233718300618393_" cx="-4668.5801" cy="2714.8123" r="33.6624" gradientTransform="matrix(-0.5732 0 0 -0.1427 -2325.5754 418.3715)" gradientUnits="userSpaceOnUse">
			<stop  offset="0" style="stop-color:#00EDC1;stop-opacity:0.8"/>
			<stop  offset="0.0639" style="stop-color:#00DABA;stop-opacity:0.7355"/>
			<stop  offset="0.185" style="stop-color:#00BCAE;stop-opacity:0.6131"/>
			<stop  offset="0.3131" style="stop-color:#00A5A5;stop-opacity:0.4838"/>
			<stop  offset="0.4494" style="stop-color:#00949F;stop-opacity:0.346"/>
			<stop  offset="0.5999" style="stop-color:#008A9B;stop-opacity:0.194"/>
			<stop  offset="0.7919" style="stop-color:#00879A;stop-opacity:0"/>
		</radialGradient>
		
			<ellipse style="fill:url(#SVGID_00000146489691219856756700000017507233718300618393_);" cx="350.51" cy="31.03" rx="12.75" ry="3.17"/>
	</g>
</g>
</svg>
