<?xml version="1.0" encoding="UTF-8"?>
<svg id="Layer_1" data-name="Layer 1" xmlns="http://www.w3.org/2000/svg" xmlns:xlink="http://www.w3.org/1999/xlink" viewBox="0 0 1943.26 217.55">
  <defs>
    <style>
      .cls-1 {
        fill: none;
      }

      .cls-2 {
        clip-path: url(#clippath);
      }

      .cls-3 {
        clip-path: url(#clippath-3);
      }

      .cls-4 {
        clip-path: url(#clippath-2);
      }

      .cls-5 {
        clip-path: url(#clippath-7);
      }

      .cls-6 {
        clip-path: url(#clippath-8);
      }

      .cls-7 {
        clip-path: url(#clippath-5);
      }

      .cls-8 {
        fill: #f7ef8a;
        stroke: #f7ef8a;
        stroke-miterlimit: 10;
      }
    </style>
    <clipPath id="clippath">
      <rect class="cls-1" x="1338" y=".03" width="306" height="217"/>
    </clipPath>
    <clipPath id="clippath-2">
      <rect class="cls-1" x="426.43" y=".32" width="306" height="217"/>
    </clipPath>
    <clipPath id="clippath-3">
      <polygon class="cls-1" points="429.43 217.32 0 217.03 55 4.03 429.43 .32 429.43 217.32"/>
    </clipPath>
    <clipPath id="clippath-5">
      <rect class="cls-1" x="1032.37" y=".36" width="306" height="217"/>
    </clipPath>
    <clipPath id="clippath-7">
      <rect class="cls-1" x="727" y=".55" width="306" height="217"/>
    </clipPath>
    <clipPath id="clippath-8">
      <rect class="cls-1" x="1636.76" width="306" height="217"/>
    </clipPath>
  </defs>
  <g class="cls-2">
    <path class="cls-8" d="M1567.71,100.62c-.76,0-1.41-.52-1.64-1.28l-3.74-12.8c-.29-1.01-1.13-1.66-2.12-1.67h0c-.99,0-1.82,.65-2.12,1.65l-12.51,41.73c-.23,.78-.88,1.28-1.65,1.27-.77,0-1.41-.52-1.63-1.31l-13.14-47.26c-.29-1.04-1.14-1.71-2.15-1.7-1.02,0-1.85,.69-2.13,1.73l-7.63,28.9c-.26,.98-1.05,1.33-1.65,1.33h-.01c-.61,0-1.4-.36-1.65-1.36l-1.19-4.8c-.32-1.27-1.36-1.81-2.25-1.76-.89,.04-1.89,.66-2.1,1.96l-5.67,34.72c-.2,1.22-1.13,1.77-1.97,1.77h-.01c-.84,0-1.78-.56-1.97-1.79l-9.48-62.93c-.23-1.56-1.41-2.25-2.48-2.25h0c-1.07,0-2.25,.71-2.48,2.27l-4.91,34.17c-.15,1.01-.89,1.46-1.49,1.54-.6,.08-1.42-.16-1.79-1.11l-5.18-13.14c-.37-.94-1.23-1.51-2.19-1.45-.96,.06-1.75,.74-2.01,1.72l-9.58,35.88c-.26,.98-1.05,1.33-1.65,1.33,0,0-.01,0-.02,0-.61,0-1.4-.37-1.64-1.37l-10.61-43.62c-.25-1.02-1.05-1.72-2.04-1.77-.99-.05-1.85,.54-2.2,1.53l-8.88,25.09c-.3,.86-1.01,1.17-1.58,1.18-.56,0-1.28-.28-1.61-1.13l-6.25-16.07c-.34-.86-1.09-1.42-1.96-1.46-.88-.04-1.67,.45-2.07,1.28-.3,.61-.88,.99-1.53,.99h-77.1s0,0,0,0v.54s.5,.36,.5,.36l76.61-.36c.84,0,1.6-.49,1.98-1.28,.31-.64,.92-1.02,1.6-.99,.68,.03,1.26,.46,1.51,1.13l6.25,16.07c.35,.91,1.14,1.46,2.05,1.46,.01,0,.03,0,.04,0,.93-.02,1.72-.6,2.05-1.53l8.88-25.09c.27-.76,.93-1.22,1.7-1.18,.76,.04,1.38,.58,1.57,1.37l10.61,43.62c.26,1.07,1.1,1.76,2.13,1.78,1.04,.02,1.89-.66,2.17-1.72l9.58-35.88c.25-.92,.96-1.29,1.55-1.32,.59-.04,1.34,.24,1.69,1.12l5.18,13.14c.4,1.01,1.31,1.57,2.33,1.43,1.02-.13,1.77-.92,1.93-1.99l4.91-34.17c.18-1.25,1.12-1.81,1.97-1.81h0c.85,0,1.79,.55,1.98,1.79l9.48,62.93c.23,1.55,1.41,2.24,2.47,2.25h.02c1.06,0,2.23-.68,2.48-2.22l5.67-34.72c.17-1.07,.98-1.48,1.62-1.51,.63-.03,1.47,.31,1.73,1.36l1.19,4.8c.26,1.06,1.1,1.76,2.14,1.77h.02c1.02,0,1.86-.68,2.14-1.73l7.63-28.9c.26-.98,1.05-1.33,1.64-1.33,.6,0,1.39,.34,1.66,1.31l13.14,47.26c.28,1.02,1.11,1.69,2.11,1.7,1.01,0,1.84-.64,2.15-1.65l12.51-41.73c.23-.77,.87-1.27,1.64-1.27h0c.76,0,1.41,.51,1.63,1.28l3.74,12.8c.29,1,1.15,1.67,2.13,1.67h76.29v-.54h-76.29Z"/>
  </g>
  <g class="cls-4">
    <path class="cls-8" d="M656.14,100.92c-.76,0-1.41-.52-1.64-1.28l-3.74-12.8c-.29-1.01-1.13-1.66-2.12-1.67h0c-.99,0-1.82,.65-2.12,1.65l-12.51,41.73c-.23,.78-.88,1.28-1.65,1.27-.77,0-1.41-.52-1.63-1.31l-13.14-47.26c-.29-1.04-1.14-1.71-2.15-1.7-1.02,0-1.85,.69-2.13,1.73l-7.63,28.9c-.26,.98-1.05,1.33-1.65,1.33h-.01c-.61,0-1.4-.36-1.65-1.36l-1.19-4.8c-.32-1.27-1.36-1.81-2.25-1.76-.89,.04-1.89,.66-2.1,1.96l-5.67,34.72c-.2,1.22-1.13,1.77-1.97,1.77h-.01c-.84,0-1.78-.56-1.97-1.79l-9.48-62.93c-.23-1.56-1.41-2.25-2.48-2.25h0c-1.07,0-2.25,.71-2.48,2.27l-4.91,34.17c-.15,1.01-.89,1.46-1.49,1.54-.6,.08-1.42-.16-1.79-1.11l-5.18-13.14c-.37-.94-1.23-1.51-2.19-1.45-.96,.06-1.75,.74-2.01,1.72l-9.58,35.88c-.26,.98-1.05,1.33-1.65,1.33,0,0-.01,0-.02,0-.61,0-1.4-.37-1.64-1.37l-10.61-43.62c-.25-1.02-1.05-1.72-2.04-1.77-.99-.05-1.85,.54-2.2,1.53l-8.88,25.09c-.3,.86-1.01,1.17-1.58,1.18-.56,0-1.28-.28-1.61-1.13l-6.25-16.07c-.34-.86-1.09-1.42-1.96-1.46-.88-.04-1.67,.45-2.07,1.28-.3,.61-.88,.99-1.53,.99h-77.1s0,0,0,0v.54s0,0,0,0h77.1c.84,0,1.6-.49,1.98-1.28,.31-.64,.92-1.02,1.6-.99,.68,.03,1.26,.46,1.51,1.13l6.25,16.07c.35,.91,1.14,1.46,2.05,1.46,.01,0,.03,0,.04,0,.93-.02,1.72-.6,2.05-1.53l8.88-25.09c.27-.76,.93-1.22,1.7-1.18,.76,.04,1.38,.58,1.57,1.37l10.61,43.62c.26,1.07,1.1,1.76,2.13,1.78,1.04,.02,1.89-.66,2.17-1.72l9.58-35.88c.25-.92,.96-1.29,1.55-1.32,.59-.04,1.34,.24,1.69,1.12l5.18,13.14c.4,1.01,1.31,1.57,2.33,1.43,1.02-.13,1.77-.92,1.93-1.99l4.91-34.17c.18-1.25,1.12-1.81,1.97-1.81h0c.85,0,1.79,.55,1.98,1.79l9.48,62.93c.23,1.55,1.41,2.24,2.47,2.25h.02c1.06,0,2.23-.68,2.48-2.22l5.67-34.72c.17-1.07,.98-1.48,1.62-1.51,.63-.03,1.47,.31,1.73,1.36l1.19,4.8c.26,1.06,1.1,1.76,2.14,1.77h.02c1.02,0,1.86-.68,2.14-1.73l7.63-28.9c.26-.98,1.05-1.33,1.64-1.33,.6,0,1.39,.34,1.66,1.31l13.14,47.26c.28,1.02,1.11,1.69,2.11,1.7,1.01,0,1.84-.64,2.15-1.65l12.51-41.73c.23-.77,.87-1.27,1.64-1.27h0c.76,0,1.41,.51,1.63,1.28l3.74,12.8c.29,1,1.15,1.67,2.13,1.67h76.29v-.54h-76.29Z"/>
  </g>
  <g class="cls-3">
    <path class="cls-8" d="M353.14,100.92c-.76,0-1.41-.52-1.64-1.28l-3.74-12.8c-.29-1.01-1.13-1.66-2.12-1.67h0c-.99,0-1.82,.65-2.12,1.65l-12.51,41.73c-.23,.78-.88,1.28-1.65,1.27-.77,0-1.41-.52-1.63-1.31l-13.14-47.26c-.29-1.04-1.14-1.71-2.15-1.7-1.02,0-1.85,.69-2.13,1.73l-7.63,28.9c-.26,.98-1.05,1.33-1.65,1.33h-.01c-.61,0-1.4-.36-1.65-1.36l-1.19-4.8c-.32-1.27-1.36-1.81-2.25-1.76-.89,.04-1.89,.66-2.1,1.96l-5.67,34.72c-.2,1.22-1.13,1.77-1.97,1.77h-.01c-.84,0-1.78-.56-1.97-1.79l-9.48-62.93c-.23-1.56-1.41-2.25-2.48-2.25h0c-1.07,0-2.25,.71-2.48,2.27l-4.91,34.17c-.15,1.01-.89,1.46-1.49,1.54-.6,.08-1.42-.16-1.79-1.11l-5.18-13.14c-.37-.94-1.23-1.51-2.19-1.45-.96,.06-1.75,.74-2.01,1.72l-9.58,35.88c-.26,.98-1.05,1.33-1.65,1.33,0,0-.01,0-.02,0-.61,0-1.4-.37-1.64-1.37l-10.61-43.62c-.25-1.02-1.05-1.72-2.04-1.77-.99-.05-1.85,.54-2.2,1.53l-8.88,25.09c-.3,.86-1.01,1.17-1.58,1.18-.56,0-1.28-.28-1.61-1.13l-6.25-16.07c-.34-.86-1.09-1.42-1.96-1.46-.88-.04-1.67,.45-2.07,1.28-.3,.61-.88,.99-1.53,.99l-103.03,.61s-32,0-32,0h0s32,0,32,0l103.03-.07c.84,0,1.6-.49,1.98-1.28,.31-.64,.92-1.02,1.6-.99,.68,.03,1.26,.46,1.51,1.13l6.25,16.07c.35,.91,1.14,1.46,2.05,1.46,.01,0,.03,0,.04,0,.93-.02,1.72-.6,2.05-1.53l8.88-25.09c.27-.76,.93-1.22,1.7-1.18,.76,.04,1.38,.58,1.57,1.37l10.61,43.62c.26,1.07,1.1,1.76,2.13,1.78,1.04,.02,1.89-.66,2.17-1.72l9.58-35.88c.25-.92,.96-1.29,1.55-1.32,.59-.04,1.34,.24,1.69,1.12l5.18,13.14c.4,1.01,1.31,1.57,2.33,1.43,1.02-.13,1.77-.92,1.93-1.99l4.91-34.17c.18-1.25,1.12-1.81,1.97-1.81h0c.85,0,1.79,.55,1.98,1.79l9.48,62.93c.23,1.55,1.41,2.24,2.47,2.25h.02c1.06,0,2.23-.68,2.48-2.22l5.67-34.72c.17-1.07,.98-1.48,1.62-1.51,.63-.03,1.47,.31,1.73,1.36l1.19,4.8c.26,1.06,1.1,1.76,2.14,1.77h.02c1.02,0,1.86-.68,2.14-1.73l7.63-28.9c.26-.98,1.05-1.33,1.64-1.33,.6,0,1.39,.34,1.66,1.31l13.14,47.26c.28,1.02,1.11,1.69,2.11,1.7,1.01,0,1.84-.64,2.15-1.65l12.51-41.73c.23-.77,.87-1.27,1.64-1.27h0c.76,0,1.41,.51,1.63,1.28l3.74,12.8c.29,1,1.15,1.67,2.13,1.67h76.29v-.54h-76.29Z"/>
  </g>
  <g class="cls-7">
    <path class="cls-8" d="M1262.08,100.95c-.76,0-1.41-.52-1.64-1.28l-3.74-12.8c-.29-1.01-1.13-1.66-2.12-1.67h0c-.99,0-1.82,.65-2.12,1.65l-12.51,41.73c-.23,.78-.88,1.28-1.65,1.27-.77,0-1.41-.52-1.63-1.31l-13.14-47.26c-.29-1.04-1.14-1.71-2.15-1.7-1.02,0-1.85,.69-2.13,1.73l-7.63,28.9c-.26,.98-1.05,1.33-1.65,1.33h-.01c-.61,0-1.4-.36-1.65-1.36l-1.19-4.8c-.32-1.27-1.36-1.81-2.25-1.76-.89,.04-1.89,.66-2.1,1.96l-5.67,34.72c-.2,1.22-1.13,1.77-1.97,1.77h-.01c-.84,0-1.78-.56-1.97-1.79l-9.48-62.93c-.23-1.56-1.41-2.25-2.48-2.25h0c-1.07,0-2.25,.71-2.48,2.27l-4.91,34.17c-.15,1.01-.89,1.46-1.49,1.54-.6,.08-1.42-.16-1.79-1.11l-5.18-13.14c-.37-.94-1.23-1.51-2.19-1.45-.96,.06-1.75,.74-2.01,1.72l-9.58,35.88c-.26,.98-1.05,1.33-1.65,1.33,0,0-.01,0-.02,0-.61,0-1.4-.37-1.64-1.37l-10.61-43.62c-.25-1.02-1.05-1.72-2.04-1.77-.99-.05-1.85,.54-2.2,1.53l-8.88,25.09c-.3,.86-1.01,1.17-1.58,1.18-.56,0-1.28-.28-1.61-1.13l-6.25-16.07c-.34-.86-1.09-1.42-1.96-1.46-.88-.04-1.67,.45-2.07,1.28-.3,.61-.88,.99-1.53,.99h-77.1s0,0,0,0v.54s0,0,0,0h77.1c.84,0,1.6-.49,1.98-1.28,.31-.64,.92-1.02,1.6-.99,.68,.03,1.26,.46,1.51,1.13l6.25,16.07c.35,.91,1.14,1.46,2.05,1.46,.01,0,.03,0,.04,0,.93-.02,1.72-.6,2.05-1.53l8.88-25.09c.27-.76,.93-1.22,1.7-1.18,.76,.04,1.38,.58,1.57,1.37l10.61,43.62c.26,1.07,1.1,1.76,2.13,1.78,1.04,.02,1.89-.66,2.17-1.72l9.58-35.88c.25-.92,.96-1.29,1.55-1.32,.59-.04,1.34,.24,1.69,1.12l5.18,13.14c.4,1.01,1.31,1.57,2.33,1.43,1.02-.13,1.77-.92,1.93-1.99l4.91-34.17c.18-1.25,1.12-1.81,1.97-1.81h0c.85,0,1.79,.55,1.98,1.79l9.48,62.93c.23,1.55,1.41,2.24,2.47,2.25h.02c1.06,0,2.23-.68,2.48-2.22l5.67-34.72c.17-1.07,.98-1.48,1.62-1.51,.63-.03,1.47,.31,1.73,1.36l1.19,4.8c.26,1.06,1.1,1.76,2.14,1.77h.02c1.02,0,1.86-.68,2.14-1.73l7.63-28.9c.26-.98,1.05-1.33,1.64-1.33,.6,0,1.39,.34,1.66,1.31l13.14,47.26c.28,1.02,1.11,1.69,2.11,1.7,1.01,0,1.84-.64,2.15-1.65l12.51-41.73c.23-.77,.87-1.27,1.64-1.27h0c.76,0,1.41,.51,1.63,1.28l3.74,12.8c.29,1,1.15,1.67,2.13,1.67h76.29l.13-.97-76.42,.43Z"/>
  </g>
  <g class="cls-5">
    <path class="cls-8" d="M956.72,101.14c-.76,0-1.41-.52-1.64-1.28l-3.74-12.8c-.29-1.01-1.13-1.66-2.12-1.67h0c-.99,0-1.82,.65-2.12,1.65l-12.51,41.73c-.23,.78-.88,1.28-1.65,1.27-.77,0-1.41-.52-1.63-1.31l-13.14-47.26c-.29-1.04-1.14-1.71-2.15-1.7-1.02,0-1.85,.69-2.13,1.73l-7.63,28.9c-.26,.98-1.05,1.33-1.65,1.33h-.01c-.61,0-1.4-.36-1.65-1.36l-1.19-4.8c-.32-1.27-1.36-1.81-2.25-1.76-.89,.04-1.89,.66-2.1,1.96l-5.67,34.72c-.2,1.22-1.13,1.77-1.97,1.77h-.01c-.84,0-1.78-.56-1.97-1.79l-9.48-62.93c-.23-1.56-1.41-2.25-2.48-2.25h0c-1.07,0-2.25,.71-2.48,2.27l-4.91,34.17c-.15,1.01-.89,1.46-1.49,1.54-.6,.08-1.42-.16-1.79-1.11l-5.18-13.14c-.37-.94-1.23-1.51-2.19-1.45-.96,.06-1.75,.74-2.01,1.72l-9.58,35.88c-.26,.98-1.05,1.33-1.65,1.33,0,0-.01,0-.02,0-.61,0-1.4-.37-1.64-1.37l-10.61-43.62c-.25-1.02-1.05-1.72-2.04-1.77-.99-.05-1.85,.54-2.2,1.53l-8.88,25.09c-.3,.86-1.01,1.17-1.58,1.18-.56,0-1.28-.28-1.61-1.13l-6.25-16.07c-.34-.86-1.09-1.42-1.96-1.46-.88-.04-1.67,.45-2.07,1.28-.3,.61-.88,.99-1.53,.99h-77.1s0,0,0,0v.54s0,0,0,0h77.1c.84,0,1.6-.49,1.98-1.28,.31-.64,.92-1.02,1.6-.99,.68,.03,1.26,.46,1.51,1.13l6.25,16.07c.35,.91,1.14,1.46,2.05,1.46,.01,0,.03,0,.04,0,.93-.02,1.72-.6,2.05-1.53l8.88-25.09c.27-.76,.93-1.22,1.7-1.18,.76,.04,1.38,.58,1.57,1.37l10.61,43.62c.26,1.07,1.1,1.76,2.13,1.78,1.04,.02,1.89-.66,2.17-1.72l9.58-35.88c.25-.92,.96-1.29,1.55-1.32,.59-.04,1.34,.24,1.69,1.12l5.18,13.14c.4,1.01,1.31,1.57,2.33,1.43,1.02-.13,1.77-.92,1.93-1.99l4.91-34.17c.18-1.25,1.12-1.81,1.97-1.81h0c.85,0,1.79,.55,1.98,1.79l9.48,62.93c.23,1.55,1.41,2.24,2.47,2.25h.02c1.06,0,2.23-.68,2.48-2.22l5.67-34.72c.17-1.07,.98-1.48,1.62-1.51,.63-.03,1.47,.31,1.73,1.36l1.19,4.8c.26,1.06,1.1,1.76,2.14,1.77h.02c1.02,0,1.86-.68,2.14-1.73l7.63-28.9c.26-.98,1.05-1.33,1.64-1.33,.6,0,1.39,.34,1.66,1.31l13.14,47.26c.28,1.02,1.11,1.69,2.11,1.7,1.01,0,1.84-.64,2.15-1.65l12.51-41.73c.23-.77,.87-1.27,1.64-1.27h0c.76,0,1.41,.51,1.63,1.28l3.74,12.8c.29,1,1.15,1.67,2.13,1.67h76.29l.13-.97-76.42,.43Z"/>
  </g>
  <g class="cls-6">
    <path class="cls-8" d="M1866.47,100.6c-.76,0-1.41-.52-1.64-1.28l-3.74-12.8c-.29-1.01-1.13-1.66-2.12-1.67h0c-.99,0-1.82,.65-2.12,1.65l-12.51,41.73c-.23,.78-.88,1.28-1.65,1.27-.77,0-1.41-.52-1.63-1.31l-13.14-47.26c-.29-1.04-1.14-1.71-2.15-1.7-1.02,0-1.85,.69-2.13,1.73l-7.63,28.9c-.26,.98-1.05,1.33-1.65,1.33h-.01c-.61,0-1.4-.36-1.65-1.36l-1.19-4.8c-.32-1.27-1.36-1.81-2.25-1.76-.89,.04-1.89,.66-2.1,1.96l-5.67,34.72c-.2,1.22-1.13,1.77-1.97,1.77h-.01c-.84,0-1.78-.56-1.97-1.79l-9.48-62.93c-.23-1.56-1.41-2.25-2.48-2.25h0c-1.07,0-2.25,.71-2.48,2.27l-4.91,34.17c-.15,1.01-.89,1.46-1.49,1.54-.6,.08-1.42-.16-1.79-1.11l-5.18-13.14c-.37-.94-1.23-1.51-2.19-1.45-.96,.06-1.75,.74-2.01,1.72l-9.58,35.88c-.26,.98-1.05,1.33-1.65,1.33,0,0-.01,0-.02,0-.61,0-1.4-.37-1.64-1.37l-10.61-43.62c-.25-1.02-1.05-1.72-2.04-1.77-.99-.05-1.85,.54-2.2,1.53l-8.88,25.09c-.3,.86-1.01,1.17-1.58,1.18-.56,0-1.28-.28-1.61-1.13l-6.25-16.07c-.34-.86-1.09-1.42-1.96-1.46-.88-.04-1.67,.45-2.07,1.28-.3,.61-.88,.99-1.53,.99h-77.1s0,0,0,0v.54s.5,.36,.5,.36l76.61-.36c.84,0,1.6-.49,1.98-1.28,.31-.64,.92-1.02,1.6-.99,.68,.03,1.26,.46,1.51,1.13l6.25,16.07c.35,.91,1.14,1.46,2.05,1.46,.01,0,.03,0,.04,0,.93-.02,1.72-.6,2.05-1.53l8.88-25.09c.27-.76,.93-1.22,1.7-1.18,.76,.04,1.38,.58,1.57,1.37l10.61,43.62c.26,1.07,1.1,1.76,2.13,1.78,1.04,.02,1.89-.66,2.17-1.72l9.58-35.88c.25-.92,.96-1.29,1.55-1.32,.59-.04,1.34,.24,1.69,1.12l5.18,13.14c.4,1.01,1.31,1.57,2.33,1.43,1.02-.13,1.77-.92,1.93-1.99l4.91-34.17c.18-1.25,1.12-1.81,1.97-1.81h0c.85,0,1.79,.55,1.98,1.79l9.48,62.93c.23,1.55,1.41,2.24,2.47,2.25h.02c1.06,0,2.23-.68,2.48-2.22l5.67-34.72c.17-1.07,.98-1.48,1.62-1.51,.63-.03,1.47,.31,1.73,1.36l1.19,4.8c.26,1.06,1.1,1.76,2.14,1.77h.02c1.02,0,1.86-.68,2.14-1.73l7.63-28.9c.26-.98,1.05-1.33,1.64-1.33,.6,0,1.39,.34,1.66,1.31l13.14,47.26c.28,1.02,1.11,1.69,2.11,1.7,1.01,0,1.84-.64,2.15-1.65l12.51-41.73c.23-.77,.87-1.27,1.64-1.27h0c.76,0,1.41,.51,1.63,1.28l3.74,12.8c.29,1,1.15,1.67,2.13,1.67h76.29v-.54h-76.29Z"/>
  </g>
</svg>