<?xml version="1.0" encoding="utf-8"?>
<!-- Generator: Adobe Illustrator 26.0.2, SVG Export Plug-In . SVG Version: 6.00 Build 0)  -->
<svg version="1.1" id="Layer_1" xmlns="http://www.w3.org/2000/svg" xmlns:xlink="http://www.w3.org/1999/xlink" x="0px" y="0px"
	 viewBox="0 0 1995 78" style="enable-background:new 0 0 1995 78;" xml:space="preserve">
<style type="text/css">
	.st0{fill:none;}
	.st1{fill:#808080;}
	.st2{font-family:'ShreeDev0714';}
	.st3{font-size:49px;}
	.st4{fill:#F7EF8A;}
	.st5{font-family:'Copperplate';}
	.st6{font-size:63px;}
	.st7{clip-path:url(#SVGID_00000169549641652239710870000007217316609957618087_);}
	.st8{fill:#808080;stroke:#808080;stroke-miterlimit:10;}
	.st9{fill:url(#SVGID_00000143599941543664600030000000710370158351502982_);}
	.st10{clip-path:url(#SVGID_00000076591856347492940990000002593076276875413163_);}
	.st11{fill:url(#SVGID_00000122694959022559042010000003954516524702043550_);}
	.st12{clip-path:url(#SVGID_00000001645601364107759920000004667976648689097095_);}
	.st13{fill:url(#SVGID_00000171701193968265191640000003554826476664075919_);}
	.st14{clip-path:url(#SVGID_00000082345053879313430770000013755105947192940727_);}
	.st15{fill:url(#SVGID_00000044858465796369667220000002607592590310399624_);}
	.st16{clip-path:url(#SVGID_00000029733663385860774030000011958868981898014350_);}
	.st17{fill:url(#SVGID_00000129888938705198351750000006352236204606246552_);}
	.st18{clip-path:url(#SVGID_00000062883734178240883120000004368215533761739166_);}
	.st19{fill:url(#SVGID_00000023963270167817650390000001826068512184179884_);}
	.st20{clip-path:url(#SVGID_00000105419395027740010350000004988354996161354422_);}
	.st21{fill:url(#SVGID_00000091697295643194612080000005888568310256906132_);}
	.st22{clip-path:url(#SVGID_00000139993520831248571020000017287401000881533320_);}
	.st23{fill:url(#SVGID_00000018237950194848049980000009274773265954788027_);}
</style>
<rect x="1574.12" y="12.34" class="st0" width="138.88" height="43.66"/>
<text transform="matrix(1 0 0 1 1574.1189 48.4365)" class="st1 st2 st3">Pure</text>
<rect x="1688.12" y="18.34" class="st0" width="271" height="40.66"/>
<text transform="matrix(1 0 0 1 1688.1189 46.0605)" class="st4 st5 st6">Audio</text>
<g>
	<defs>
		<polygon id="SVGID_1_" points="1598.72,140.02 1263,147 1263,-70 1568.72,-71.98 		"/>
	</defs>
	<clipPath id="SVGID_00000053503306435672165250000013653927902771414160_">
		<use xlink:href="#SVGID_1_"  style="overflow:visible;"/>
	</clipPath>
	<g style="clip-path:url(#SVGID_00000053503306435672165250000013653927902771414160_);">
		<path class="st8" d="M1492.71,30.6c-0.76,0-1.41-0.52-1.64-1.28l-3.74-12.8c-0.29-1.01-1.13-1.66-2.12-1.67h-0.01
			c-0.99,0-1.82,0.65-2.12,1.65l-12.51,41.73c-0.23,0.78-0.88,1.28-1.65,1.27c-0.77-0.01-1.41-0.52-1.63-1.31l-13.14-47.26
			c-0.29-1.04-1.14-1.71-2.15-1.7c-1.02,0.01-1.85,0.69-2.13,1.73l-7.63,28.9c-0.26,0.98-1.05,1.33-1.65,1.33h-0.01
			c-0.61-0.01-1.4-0.36-1.65-1.36l-1.19-4.8c-0.32-1.27-1.36-1.81-2.25-1.76c-0.89,0.04-1.89,0.66-2.1,1.96l-5.67,34.72
			c-0.2,1.22-1.13,1.77-1.97,1.77h-0.01c-0.84-0.01-1.78-0.56-1.97-1.79l-9.48-62.93c-0.23-1.56-1.41-2.25-2.48-2.25h-0.01
			c-1.07,0-2.25,0.71-2.48,2.27l-4.91,34.17c-0.15,1.01-0.89,1.46-1.49,1.54c-0.6,0.08-1.42-0.16-1.79-1.11l-5.18-13.14
			c-0.37-0.94-1.23-1.51-2.19-1.45c-0.96,0.06-1.75,0.74-2.01,1.72l-9.58,35.88c-0.26,0.98-1.05,1.33-1.65,1.33
			c-0.01,0-0.01,0-0.02,0c-0.61-0.01-1.4-0.37-1.64-1.37l-10.61-43.62c-0.25-1.02-1.05-1.72-2.04-1.77
			c-0.99-0.05-1.85,0.54-2.2,1.53l-8.88,25.09c-0.3,0.86-1.01,1.17-1.58,1.18c-0.56,0.01-1.28-0.28-1.61-1.13l-6.25-16.07
			c-0.34-0.86-1.09-1.42-1.96-1.46c-0.88-0.04-1.67,0.45-2.07,1.28c-0.3,0.61-0.88,0.99-1.53,0.99h-77.1c0,0,0,0-0.01,0v0.54
			c0,0,0,0,0.01,0h77.1c0.84,0,1.6-0.49,1.98-1.28c0.31-0.64,0.92-1.02,1.6-0.99c0.68,0.03,1.26,0.46,1.51,1.13l6.25,16.07
			c0.35,0.91,1.14,1.46,2.05,1.46c0.01,0,0.03,0,0.04,0c0.93-0.02,1.72-0.6,2.05-1.53l8.88-25.09c0.27-0.76,0.93-1.22,1.7-1.18
			c0.76,0.04,1.38,0.58,1.57,1.37l10.61,43.62c0.26,1.07,1.1,1.76,2.13,1.78c1.04,0.02,1.89-0.66,2.17-1.72l9.58-35.88
			c0.25-0.92,0.96-1.29,1.55-1.32c0.59-0.04,1.34,0.24,1.69,1.12l5.18,13.14c0.4,1.01,1.31,1.57,2.33,1.43
			c1.02-0.13,1.77-0.92,1.93-1.99l4.91-34.17c0.18-1.25,1.12-1.81,1.97-1.81h0.01c0.85,0,1.79,0.55,1.98,1.79l9.48,62.93
			c0.23,1.55,1.41,2.24,2.47,2.25h0.02c1.06,0,2.23-0.68,2.48-2.22l5.67-34.72c0.17-1.07,0.98-1.48,1.62-1.51
			c0.63-0.03,1.47,0.31,1.73,1.36l1.19,4.8c0.26,1.06,1.1,1.76,2.14,1.77h0.02c1.02,0,1.86-0.68,2.14-1.73l7.63-28.9
			c0.26-0.98,1.05-1.33,1.64-1.33c0.6-0.01,1.39,0.34,1.66,1.31l13.14,47.26c0.28,1.02,1.11,1.69,2.11,1.7
			c1.01,0.01,1.84-0.64,2.15-1.65l12.51-41.73c0.23-0.77,0.87-1.27,1.64-1.27h0.01c0.76,0,1.41,0.51,1.63,1.28l3.74,12.8
			c0.29,1,1.15,1.67,2.13,1.67l86.79,0.36v-1L1492.71,30.6z"/>
	</g>
	<g style="clip-path:url(#SVGID_00000053503306435672165250000013653927902771414160_);">
		
			<radialGradient id="SVGID_00000028314373429497909640000011479885724086394813_" cx="-6771.8545" cy="2716.8899" r="33.6624" gradientTransform="matrix(-0.5732 0 0 -0.1427 -2325.5754 418.3715)" gradientUnits="userSpaceOnUse">
			<stop  offset="0" style="stop-color:#00EDC1;stop-opacity:0.8"/>
			<stop  offset="0.0639" style="stop-color:#00DABA;stop-opacity:0.7355"/>
			<stop  offset="0.185" style="stop-color:#00BCAE;stop-opacity:0.6131"/>
			<stop  offset="0.3131" style="stop-color:#00A5A5;stop-opacity:0.4838"/>
			<stop  offset="0.4494" style="stop-color:#00949F;stop-opacity:0.346"/>
			<stop  offset="0.5999" style="stop-color:#008A9B;stop-opacity:0.194"/>
			<stop  offset="0.7919" style="stop-color:#00879A;stop-opacity:0"/>
		</radialGradient>
		
			<ellipse style="fill:url(#SVGID_00000028314373429497909640000011479885724086394813_);" cx="1556.08" cy="30.73" rx="12.75" ry="3.17"/>
	</g>
</g>
<g>
	<defs>
		<rect id="SVGID_00000033335595798593009760000006563863630646128538_" x="962.25" y="-70.08" width="306" height="217"/>
	</defs>
	<clipPath id="SVGID_00000083058509267076779730000004963161247474608553_">
		<use xlink:href="#SVGID_00000033335595798593009760000006563863630646128538_"  style="overflow:visible;"/>
	</clipPath>
	<g style="clip-path:url(#SVGID_00000083058509267076779730000004963161247474608553_);">
		<path class="st8" d="M1191.96,30.52c-0.76,0-1.41-0.52-1.64-1.28l-3.74-12.8c-0.29-1.01-1.13-1.66-2.12-1.67h-0.01
			c-0.99,0-1.82,0.65-2.12,1.65l-12.51,41.73c-0.23,0.78-0.88,1.28-1.65,1.27c-0.77-0.01-1.41-0.52-1.63-1.31l-13.14-47.26
			c-0.29-1.04-1.14-1.71-2.15-1.7c-1.02,0.01-1.85,0.69-2.13,1.73l-7.63,28.9c-0.26,0.98-1.05,1.33-1.65,1.33h-0.01
			c-0.61-0.01-1.4-0.36-1.65-1.36l-1.19-4.8c-0.32-1.27-1.36-1.81-2.25-1.76c-0.89,0.04-1.89,0.66-2.1,1.96l-5.67,34.72
			c-0.2,1.22-1.13,1.77-1.97,1.77h-0.01c-0.84-0.01-1.78-0.56-1.97-1.79l-9.48-62.93c-0.23-1.56-1.41-2.25-2.48-2.25h-0.01
			c-1.07,0-2.25,0.71-2.48,2.27l-4.91,34.17c-0.15,1.01-0.89,1.46-1.49,1.54c-0.6,0.08-1.42-0.16-1.79-1.11l-5.18-13.14
			c-0.37-0.94-1.23-1.51-2.19-1.45c-0.96,0.06-1.75,0.74-2.01,1.72l-9.58,35.88c-0.26,0.98-1.05,1.33-1.65,1.33
			c-0.01,0-0.01,0-0.02,0c-0.61-0.01-1.4-0.37-1.64-1.37l-10.61-43.62c-0.25-1.02-1.05-1.72-2.04-1.77
			c-0.99-0.05-1.85,0.54-2.2,1.53l-8.88,25.09c-0.3,0.86-1.01,1.17-1.58,1.18c-0.56,0.01-1.28-0.28-1.61-1.13l-6.25-16.07
			c-0.34-0.86-1.09-1.42-1.96-1.46c-0.88-0.04-1.67,0.45-2.07,1.28c-0.3,0.61-0.88,0.99-1.53,0.99h-77.1c0,0,0,0-0.01,0v0.54
			c0,0,0,0,0.01,0h77.1c0.84,0,1.6-0.49,1.98-1.28c0.31-0.64,0.92-1.02,1.6-0.99c0.68,0.03,1.26,0.46,1.51,1.13l6.25,16.07
			c0.35,0.91,1.14,1.46,2.05,1.46c0.01,0,0.03,0,0.04,0c0.93-0.02,1.72-0.6,2.05-1.53l8.88-25.09c0.27-0.76,0.93-1.22,1.7-1.18
			c0.76,0.04,1.38,0.58,1.57,1.37l10.61,43.62c0.26,1.07,1.1,1.76,2.13,1.78c1.04,0.02,1.89-0.66,2.17-1.72l9.58-35.88
			c0.25-0.92,0.96-1.29,1.55-1.32c0.59-0.04,1.34,0.24,1.69,1.12l5.18,13.14c0.4,1.01,1.31,1.57,2.33,1.43
			c1.02-0.13,1.77-0.92,1.93-1.99l4.91-34.17c0.18-1.25,1.12-1.81,1.97-1.81h0.01c0.85,0,1.79,0.55,1.98,1.79l9.48,62.93
			c0.23,1.55,1.41,2.24,2.47,2.25h0.02c1.06,0,2.23-0.68,2.48-2.22l5.67-34.72c0.17-1.07,0.98-1.48,1.62-1.51
			c0.63-0.03,1.47,0.31,1.73,1.36l1.19,4.8c0.26,1.06,1.1,1.76,2.14,1.77h0.02c1.02,0,1.86-0.68,2.14-1.73l7.63-28.9
			c0.26-0.98,1.04-1.33,1.64-1.33c0.6-0.01,1.39,0.34,1.66,1.31l13.14,47.26c0.28,1.02,1.11,1.69,2.11,1.7
			c1.01,0.01,1.84-0.64,2.15-1.65l12.51-41.73c0.23-0.77,0.87-1.27,1.64-1.27h0.01c0.76,0,1.41,0.51,1.63,1.28l3.74,12.8
			c0.29,1,1.15,1.67,2.13,1.67h76.29v-0.54H1191.96z"/>
	</g>
	<g style="clip-path:url(#SVGID_00000083058509267076779730000004963161247474608553_);">
		
			<radialGradient id="SVGID_00000182501128049787996630000017541566959109117100_" cx="-6247.1582" cy="2717.4331" r="33.6624" gradientTransform="matrix(-0.5732 0 0 -0.1427 -2325.5754 418.3715)" gradientUnits="userSpaceOnUse">
			<stop  offset="0" style="stop-color:#00EDC1;stop-opacity:0.8"/>
			<stop  offset="0.0639" style="stop-color:#00DABA;stop-opacity:0.7355"/>
			<stop  offset="0.185" style="stop-color:#00BCAE;stop-opacity:0.6131"/>
			<stop  offset="0.3131" style="stop-color:#00A5A5;stop-opacity:0.4838"/>
			<stop  offset="0.4494" style="stop-color:#00949F;stop-opacity:0.346"/>
			<stop  offset="0.5999" style="stop-color:#008A9B;stop-opacity:0.194"/>
			<stop  offset="0.7919" style="stop-color:#00879A;stop-opacity:0"/>
		</radialGradient>
		
			<ellipse style="fill:url(#SVGID_00000182501128049787996630000017541566959109117100_);" cx="1255.33" cy="30.65" rx="12.75" ry="3.17"/>
	</g>
</g>
<g>
	<defs>
		<rect id="SVGID_00000181802643513172905720000015310320682945167294_" x="959.03" y="-69.66" width="306" height="216.66"/>
	</defs>
	<clipPath id="SVGID_00000095334692702707980620000013390256041954655156_">
		<use xlink:href="#SVGID_00000181802643513172905720000015310320682945167294_"  style="overflow:visible;"/>
	</clipPath>
	<g style="clip-path:url(#SVGID_00000095334692702707980620000013390256041954655156_);">
		<path class="st8" d="M1188.74,30.78c-0.76,0-1.41-0.51-1.64-1.28l-3.74-12.78c-0.29-1.01-1.13-1.66-2.12-1.66h-0.01
			c-0.99,0-1.82,0.65-2.12,1.65l-12.51,41.66c-0.23,0.78-0.88,1.28-1.65,1.27c-0.77-0.01-1.41-0.52-1.63-1.31l-13.14-47.19
			c-0.29-1.04-1.14-1.71-2.15-1.69c-1.02,0.01-1.85,0.69-2.13,1.73l-7.63,28.85c-0.26,0.98-1.05,1.33-1.65,1.33h-0.01
			c-0.61-0.01-1.4-0.36-1.65-1.36l-1.19-4.79c-0.32-1.27-1.36-1.81-2.25-1.76c-0.89,0.04-1.89,0.66-2.1,1.96l-5.67,34.67
			c-0.2,1.22-1.13,1.76-1.97,1.76h-0.01c-0.84-0.01-1.78-0.56-1.97-1.79l-9.48-62.83c-0.23-1.55-1.41-2.25-2.48-2.25h-0.01
			c-1.07,0-2.25,0.71-2.48,2.27l-4.91,34.12c-0.15,1.01-0.89,1.46-1.49,1.53c-0.6,0.08-1.42-0.16-1.79-1.1l-5.18-13.12
			c-0.37-0.94-1.23-1.51-2.19-1.45c-0.96,0.06-1.75,0.73-2.01,1.71l-9.58,35.82c-0.26,0.98-1.05,1.32-1.65,1.32
			c-0.01,0-0.01,0-0.02,0c-0.61-0.01-1.4-0.37-1.64-1.37l-10.61-43.55c-0.25-1.02-1.05-1.71-2.04-1.77
			c-0.99-0.05-1.85,0.54-2.2,1.53l-8.88,25.05c-0.3,0.86-1.01,1.17-1.58,1.18c-0.56,0.01-1.28-0.28-1.61-1.13l-6.25-16.04
			c-0.34-0.86-1.09-1.42-1.96-1.46c-0.88-0.04-1.67,0.45-2.07,1.28c-0.3,0.61-0.88,0.99-1.53,0.99h-77.1c0,0,0,0-0.01,0v0.54
			c0,0,0,0,0.01,0h77.1c0.84,0,1.6-0.49,1.98-1.28c0.31-0.64,0.92-1.02,1.6-0.99c0.68,0.03,1.26,0.46,1.51,1.12l6.25,16.04
			c0.35,0.9,1.14,1.46,2.05,1.46c0.01,0,0.03,0,0.04,0c0.93-0.02,1.72-0.6,2.05-1.53l8.88-25.05c0.27-0.76,0.93-1.22,1.7-1.18
			c0.76,0.04,1.38,0.58,1.57,1.36l10.61,43.55c0.26,1.06,1.1,1.76,2.13,1.77c1.04,0.02,1.89-0.66,2.17-1.72l9.58-35.82
			c0.25-0.92,0.96-1.28,1.55-1.32c0.59-0.04,1.34,0.24,1.69,1.11l5.18,13.12c0.4,1,1.31,1.57,2.33,1.43
			c1.02-0.13,1.77-0.91,1.93-1.99l4.91-34.12c0.18-1.24,1.12-1.8,1.97-1.81h0.01c0.85,0,1.79,0.55,1.98,1.79l9.48,62.83
			c0.23,1.54,1.41,2.24,2.47,2.25h0.02c1.06,0,2.23-0.68,2.48-2.21l5.67-34.67c0.17-1.07,0.98-1.48,1.62-1.51
			c0.63-0.03,1.47,0.31,1.73,1.36l1.19,4.79c0.26,1.06,1.1,1.75,2.14,1.76h0.02c1.02,0,1.86-0.68,2.14-1.73l7.63-28.85
			c0.26-0.97,1.05-1.33,1.64-1.33c0.6-0.01,1.39,0.34,1.66,1.31l13.14,47.19c0.28,1.02,1.11,1.68,2.11,1.69
			c1.01,0.01,1.84-0.63,2.15-1.65l12.51-41.66c0.23-0.77,0.87-1.27,1.64-1.27h0.01c0.76,0,1.41,0.51,1.63,1.28l3.74,12.78
			c0.29,0.99,1.15,1.66,2.13,1.66h76.29v-0.54H1188.74z"/>
	</g>
	<g style="clip-path:url(#SVGID_00000095334692702707980620000013390256041954655156_);">
		
			<radialGradient id="SVGID_00000145754713668595340640000002028000299702774705_" cx="-6241.542" cy="2714.5002" r="33.6624" gradientTransform="matrix(-0.5732 0 0 -0.1425 -2325.5754 417.6047)" gradientUnits="userSpaceOnUse">
			<stop  offset="0" style="stop-color:#00EDC1;stop-opacity:0.8"/>
			<stop  offset="0.0639" style="stop-color:#00DABA;stop-opacity:0.7355"/>
			<stop  offset="0.185" style="stop-color:#00BCAE;stop-opacity:0.6131"/>
			<stop  offset="0.3131" style="stop-color:#00A5A5;stop-opacity:0.4838"/>
			<stop  offset="0.4494" style="stop-color:#00949F;stop-opacity:0.346"/>
			<stop  offset="0.5999" style="stop-color:#008A9B;stop-opacity:0.194"/>
			<stop  offset="0.7919" style="stop-color:#00879A;stop-opacity:0"/>
		</radialGradient>
		
			<ellipse style="fill:url(#SVGID_00000145754713668595340640000002028000299702774705_);" cx="1252.11" cy="30.92" rx="12.75" ry="3.17"/>
	</g>
</g>
<g>
	<defs>
		<rect id="SVGID_00000152967234992611734090000003053282816430368391_" x="663.77" y="-69.49" width="306" height="217"/>
	</defs>
	<clipPath id="SVGID_00000129196053818561154310000010889177485793301423_">
		<use xlink:href="#SVGID_00000152967234992611734090000003053282816430368391_"  style="overflow:visible;"/>
	</clipPath>
	<g style="clip-path:url(#SVGID_00000129196053818561154310000010889177485793301423_);">
		<path class="st8" d="M893.48,31.11c-0.76,0-1.41-0.52-1.64-1.28l-3.74-12.8c-0.29-1.01-1.13-1.66-2.12-1.67h-0.01
			c-0.99,0-1.82,0.65-2.12,1.65l-12.51,41.73c-0.23,0.78-0.88,1.28-1.65,1.27c-0.77-0.01-1.41-0.52-1.63-1.31l-13.14-47.26
			c-0.29-1.04-1.14-1.71-2.15-1.7c-1.02,0.01-1.85,0.69-2.13,1.73l-7.63,28.9c-0.26,0.98-1.05,1.33-1.65,1.33h-0.01
			c-0.61-0.01-1.4-0.36-1.65-1.36l-1.19-4.8c-0.32-1.27-1.36-1.81-2.25-1.76c-0.89,0.04-1.89,0.66-2.1,1.96l-5.67,34.72
			c-0.2,1.22-1.13,1.77-1.97,1.77h-0.01c-0.84-0.01-1.78-0.56-1.97-1.79l-9.48-62.93c-0.23-1.56-1.41-2.25-2.48-2.25h-0.01
			c-1.07,0-2.25,0.71-2.48,2.27l-4.91,34.17c-0.15,1.01-0.89,1.46-1.49,1.54c-0.6,0.08-1.42-0.16-1.79-1.11l-5.18-13.14
			c-0.37-0.94-1.23-1.51-2.19-1.45c-0.96,0.06-1.75,0.74-2.01,1.72l-9.58,35.88c-0.26,0.98-1.05,1.33-1.65,1.33
			c-0.01,0-0.01,0-0.02,0c-0.61-0.01-1.4-0.37-1.64-1.37l-10.61-43.62c-0.25-1.02-1.05-1.72-2.04-1.77
			c-0.99-0.05-1.85,0.54-2.2,1.53l-8.88,25.09c-0.3,0.86-1.01,1.17-1.58,1.18c-0.56,0.01-1.28-0.28-1.61-1.13l-6.25-16.07
			c-0.34-0.86-1.09-1.42-1.96-1.46c-0.88-0.04-1.67,0.45-2.07,1.28c-0.3,0.61-0.88,0.99-1.53,0.99h-77.1c0,0,0,0-0.01,0v0.54
			c0,0,0,0,0.01,0h77.1c0.84,0,1.6-0.49,1.98-1.28c0.31-0.64,0.92-1.02,1.6-0.99c0.68,0.03,1.26,0.46,1.51,1.13l6.25,16.07
			c0.35,0.91,1.14,1.46,2.05,1.46c0.01,0,0.03,0,0.04,0c0.93-0.02,1.72-0.6,2.05-1.53l8.88-25.09c0.27-0.76,0.93-1.22,1.7-1.18
			c0.76,0.04,1.38,0.58,1.57,1.37l10.61,43.62c0.26,1.07,1.1,1.76,2.13,1.78c1.04,0.02,1.89-0.66,2.17-1.72L793,29.4
			c0.25-0.92,0.96-1.29,1.55-1.32c0.59-0.04,1.34,0.24,1.69,1.12l5.18,13.14c0.4,1.01,1.31,1.57,2.33,1.43
			c1.02-0.13,1.77-0.92,1.93-1.99l4.91-34.17c0.18-1.25,1.12-1.81,1.97-1.81h0.01c0.85,0,1.79,0.55,1.98,1.79l9.48,62.93
			c0.23,1.55,1.41,2.24,2.47,2.25h0.02c1.06,0,2.23-0.68,2.48-2.22l5.67-34.72c0.17-1.07,0.98-1.48,1.62-1.51
			c0.63-0.03,1.47,0.31,1.73,1.36l1.19,4.8c0.26,1.06,1.1,1.76,2.14,1.77h0.02c1.02,0,1.86-0.68,2.14-1.73l7.63-28.9
			c0.26-0.98,1.05-1.33,1.64-1.33c0.6-0.01,1.39,0.34,1.66,1.31l13.14,47.26c0.28,1.02,1.11,1.69,2.11,1.7
			c1.01,0.01,1.84-0.64,2.15-1.65l12.51-41.73c0.23-0.77,0.87-1.27,1.64-1.27h0.01c0.76,0,1.41,0.51,1.63,1.28l3.74,12.8
			c0.29,1,1.15,1.67,2.13,1.67h76.29v-0.54H893.48z"/>
	</g>
	<g style="clip-path:url(#SVGID_00000129196053818561154310000010889177485793301423_);">
		
			<radialGradient id="SVGID_00000123429225147809469640000004174821350592005263_" cx="-5726.4272" cy="2713.2876" r="33.6624" gradientTransform="matrix(-0.5732 0 0 -0.1427 -2325.5754 418.3715)" gradientUnits="userSpaceOnUse">
			<stop  offset="0" style="stop-color:#00EDC1;stop-opacity:0.8"/>
			<stop  offset="0.0639" style="stop-color:#00DABA;stop-opacity:0.7355"/>
			<stop  offset="0.185" style="stop-color:#00BCAE;stop-opacity:0.6131"/>
			<stop  offset="0.3131" style="stop-color:#00A5A5;stop-opacity:0.4838"/>
			<stop  offset="0.4494" style="stop-color:#00949F;stop-opacity:0.346"/>
			<stop  offset="0.5999" style="stop-color:#008A9B;stop-opacity:0.194"/>
			<stop  offset="0.7919" style="stop-color:#00879A;stop-opacity:0"/>
		</radialGradient>
		
			<ellipse style="fill:url(#SVGID_00000123429225147809469640000004174821350592005263_);" cx="956.85" cy="31.25" rx="12.75" ry="3.17"/>
	</g>
</g>
<g>
	<defs>
		<rect id="SVGID_00000174578694213675513800000011684978491598375077_" x="363.43" y="-69.7" width="306" height="217"/>
	</defs>
	<clipPath id="SVGID_00000021093230892032953950000008237461637310978957_">
		<use xlink:href="#SVGID_00000174578694213675513800000011684978491598375077_"  style="overflow:visible;"/>
	</clipPath>
	<g style="clip-path:url(#SVGID_00000021093230892032953950000008237461637310978957_);">
		<path class="st8" d="M593.14,30.89c-0.76,0-1.41-0.52-1.64-1.28l-3.74-12.8c-0.29-1.01-1.13-1.66-2.12-1.67h-0.01
			c-0.99,0-1.82,0.65-2.12,1.65L571,58.52c-0.23,0.78-0.88,1.28-1.65,1.27c-0.77-0.01-1.41-0.52-1.63-1.31l-13.14-47.26
			c-0.29-1.04-1.14-1.71-2.15-1.7c-1.02,0.01-1.85,0.69-2.13,1.73l-7.63,28.9c-0.26,0.98-1.05,1.33-1.65,1.33H541
			c-0.61-0.01-1.4-0.36-1.65-1.36l-1.19-4.8c-0.32-1.27-1.36-1.81-2.25-1.76c-0.89,0.04-1.89,0.66-2.1,1.96l-5.67,34.72
			c-0.2,1.22-1.13,1.77-1.97,1.77h-0.01c-0.84-0.01-1.78-0.56-1.97-1.79l-9.48-62.93c-0.23-1.56-1.41-2.25-2.48-2.25h-0.01
			c-1.07,0-2.25,0.71-2.48,2.27l-4.91,34.17c-0.15,1.01-0.89,1.46-1.49,1.54c-0.6,0.08-1.42-0.16-1.79-1.11l-5.18-13.14
			c-0.37-0.94-1.23-1.51-2.19-1.45c-0.96,0.06-1.75,0.74-2.01,1.72l-9.58,35.88c-0.26,0.98-1.05,1.33-1.65,1.33
			c-0.01,0-0.01,0-0.02,0c-0.61-0.01-1.4-0.37-1.64-1.37l-10.61-43.62c-0.25-1.02-1.05-1.72-2.04-1.77
			c-0.99-0.05-1.85,0.54-2.2,1.53l-8.88,25.09c-0.3,0.86-1.01,1.17-1.58,1.18c-0.56,0.01-1.28-0.28-1.61-1.13l-6.25-16.07
			c-0.34-0.86-1.09-1.42-1.96-1.46c-0.88-0.04-1.67,0.45-2.07,1.28c-0.3,0.61-0.88,0.99-1.53,0.99h-77.1c0,0,0,0-0.01,0v0.54
			c0,0,0,0,0.01,0h77.1c0.84,0,1.6-0.49,1.98-1.28c0.31-0.64,0.92-1.02,1.6-0.99c0.68,0.03,1.26,0.46,1.51,1.13l6.25,16.07
			c0.35,0.91,1.14,1.46,2.05,1.46c0.01,0,0.03,0,0.04,0c0.93-0.02,1.72-0.6,2.05-1.53l8.88-25.09c0.27-0.76,0.93-1.22,1.7-1.18
			c0.76,0.04,1.38,0.58,1.57,1.37L478.78,65c0.26,1.07,1.1,1.76,2.13,1.78c1.04,0.02,1.89-0.66,2.17-1.72l9.58-35.88
			c0.25-0.92,0.96-1.29,1.55-1.32c0.59-0.04,1.34,0.24,1.69,1.12l5.18,13.14c0.4,1.01,1.31,1.57,2.33,1.43
			c1.02-0.13,1.77-0.92,1.93-1.99l4.91-34.17c0.18-1.25,1.12-1.81,1.97-1.81h0.01c0.85,0,1.79,0.55,1.98,1.79l9.48,62.93
			c0.23,1.55,1.41,2.24,2.47,2.25h0.02c1.06,0,2.23-0.68,2.48-2.22l5.67-34.72c0.17-1.07,0.98-1.48,1.62-1.51
			c0.63-0.03,1.47,0.31,1.73,1.36l1.19,4.8c0.26,1.06,1.1,1.76,2.14,1.77h0.02c1.02,0,1.86-0.68,2.14-1.73l7.63-28.9
			c0.26-0.98,1.04-1.33,1.64-1.33c0.6-0.01,1.39,0.34,1.66,1.31l13.14,47.26c0.28,1.02,1.11,1.69,2.11,1.7
			c1.01,0.01,1.84-0.64,2.15-1.65l12.51-41.73c0.23-0.77,0.87-1.27,1.64-1.27h0.01c0.76,0,1.41,0.51,1.63,1.28l3.74,12.8
			c0.29,1,1.15,1.67,2.13,1.67h76.29v-0.54H593.14z"/>
	</g>
	<g style="clip-path:url(#SVGID_00000021093230892032953950000008237461637310978957_);">
		
			<radialGradient id="SVGID_00000145016537270810241410000006975128380815171254_" cx="-5202.4355" cy="2714.8123" r="33.6624" gradientTransform="matrix(-0.5732 0 0 -0.1427 -2325.5754 418.3715)" gradientUnits="userSpaceOnUse">
			<stop  offset="0" style="stop-color:#00EDC1;stop-opacity:0.8"/>
			<stop  offset="0.0639" style="stop-color:#00DABA;stop-opacity:0.7355"/>
			<stop  offset="0.185" style="stop-color:#00BCAE;stop-opacity:0.6131"/>
			<stop  offset="0.3131" style="stop-color:#00A5A5;stop-opacity:0.4838"/>
			<stop  offset="0.4494" style="stop-color:#00949F;stop-opacity:0.346"/>
			<stop  offset="0.5999" style="stop-color:#008A9B;stop-opacity:0.194"/>
			<stop  offset="0.7919" style="stop-color:#00879A;stop-opacity:0"/>
		</radialGradient>
		
			<ellipse style="fill:url(#SVGID_00000145016537270810241410000006975128380815171254_);" cx="656.51" cy="31.03" rx="12.75" ry="3.17"/>
	</g>
</g>
<g>
	<defs>
		<rect id="SVGID_00000116957298617731938450000012827546786100187268_" x="360.43" y="-69.7" width="306" height="217"/>
	</defs>
	<clipPath id="SVGID_00000080921091795378341580000003251150012982348970_">
		<use xlink:href="#SVGID_00000116957298617731938450000012827546786100187268_"  style="overflow:visible;"/>
	</clipPath>
	<g style="clip-path:url(#SVGID_00000080921091795378341580000003251150012982348970_);">
		<path class="st8" d="M590.14,30.89c-0.76,0-1.41-0.52-1.64-1.28l-3.74-12.8c-0.29-1.01-1.13-1.66-2.12-1.67h-0.01
			c-0.99,0-1.82,0.65-2.12,1.65L568,58.52c-0.23,0.78-0.88,1.28-1.65,1.27c-0.77-0.01-1.41-0.52-1.63-1.31l-13.14-47.26
			c-0.29-1.04-1.14-1.71-2.15-1.7c-1.02,0.01-1.85,0.69-2.13,1.73l-7.63,28.9c-0.26,0.98-1.05,1.33-1.65,1.33H538
			c-0.61-0.01-1.4-0.36-1.65-1.36l-1.19-4.8c-0.32-1.27-1.36-1.81-2.25-1.76c-0.89,0.04-1.89,0.66-2.1,1.96l-5.67,34.72
			c-0.2,1.22-1.13,1.77-1.97,1.77h-0.01c-0.84-0.01-1.78-0.56-1.97-1.79l-9.48-62.93c-0.23-1.56-1.41-2.25-2.48-2.25h-0.01
			c-1.07,0-2.25,0.71-2.48,2.27l-4.91,34.17c-0.15,1.01-0.89,1.46-1.49,1.54c-0.6,0.08-1.42-0.16-1.79-1.11l-5.18-13.14
			c-0.37-0.94-1.23-1.51-2.19-1.45c-0.96,0.06-1.75,0.74-2.01,1.72l-9.58,35.88c-0.26,0.98-1.05,1.33-1.65,1.33
			c-0.01,0-0.01,0-0.02,0c-0.61-0.01-1.4-0.37-1.64-1.37l-10.61-43.62c-0.25-1.02-1.05-1.72-2.04-1.77
			c-0.99-0.05-1.85,0.54-2.2,1.53l-8.88,25.09c-0.3,0.86-1.01,1.17-1.58,1.18c-0.56,0.01-1.28-0.28-1.61-1.13l-6.25-16.07
			c-0.34-0.86-1.09-1.42-1.96-1.46c-0.88-0.04-1.67,0.45-2.07,1.28c-0.3,0.61-0.88,0.99-1.53,0.99h-77.1c0,0,0,0-0.01,0v0.54
			c0,0,0,0,0.01,0h77.1c0.84,0,1.6-0.49,1.98-1.28c0.31-0.64,0.92-1.02,1.6-0.99c0.68,0.03,1.26,0.46,1.51,1.13l6.25,16.07
			c0.35,0.91,1.14,1.46,2.05,1.46c0.01,0,0.03,0,0.04,0c0.93-0.02,1.72-0.6,2.05-1.53l8.88-25.09c0.27-0.76,0.93-1.22,1.7-1.18
			c0.76,0.04,1.38,0.58,1.57,1.37L475.78,65c0.26,1.07,1.1,1.76,2.13,1.78c1.04,0.02,1.89-0.66,2.17-1.72l9.58-35.88
			c0.25-0.92,0.96-1.29,1.55-1.32c0.59-0.04,1.34,0.24,1.69,1.12l5.18,13.14c0.4,1.01,1.31,1.57,2.33,1.43
			c1.02-0.13,1.77-0.92,1.93-1.99l4.91-34.17c0.18-1.25,1.12-1.81,1.97-1.81h0.01c0.85,0,1.79,0.55,1.98,1.79l9.48,62.93
			c0.23,1.55,1.41,2.24,2.47,2.25h0.02c1.06,0,2.23-0.68,2.48-2.22l5.67-34.72c0.17-1.07,0.98-1.48,1.62-1.51
			c0.63-0.03,1.47,0.31,1.73,1.36l1.19,4.8c0.26,1.06,1.1,1.76,2.14,1.77h0.02c1.02,0,1.86-0.68,2.14-1.73l7.63-28.9
			c0.26-0.98,1.04-1.33,1.64-1.33c0.6-0.01,1.39,0.34,1.66,1.31l13.14,47.26c0.28,1.02,1.11,1.69,2.11,1.7
			c1.01,0.01,1.84-0.64,2.15-1.65l12.51-41.73c0.23-0.77,0.87-1.27,1.64-1.27h0.01c0.76,0,1.41,0.51,1.63,1.28l3.74,12.8
			c0.29,1,1.15,1.67,2.13,1.67h76.29v-0.54H590.14z"/>
	</g>
	<g style="clip-path:url(#SVGID_00000080921091795378341580000003251150012982348970_);">
		
			<radialGradient id="SVGID_00000036209897466874011350000018383023854634610072_" cx="-5197.2017" cy="2714.8123" r="33.6624" gradientTransform="matrix(-0.5732 0 0 -0.1427 -2325.5754 418.3715)" gradientUnits="userSpaceOnUse">
			<stop  offset="0" style="stop-color:#00EDC1;stop-opacity:0.8"/>
			<stop  offset="0.0639" style="stop-color:#00DABA;stop-opacity:0.7355"/>
			<stop  offset="0.185" style="stop-color:#00BCAE;stop-opacity:0.6131"/>
			<stop  offset="0.3131" style="stop-color:#00A5A5;stop-opacity:0.4838"/>
			<stop  offset="0.4494" style="stop-color:#00949F;stop-opacity:0.346"/>
			<stop  offset="0.5999" style="stop-color:#008A9B;stop-opacity:0.194"/>
			<stop  offset="0.7919" style="stop-color:#00879A;stop-opacity:0"/>
		</radialGradient>
		
			<ellipse style="fill:url(#SVGID_00000036209897466874011350000018383023854634610072_);" cx="653.51" cy="31.03" rx="12.75" ry="3.17"/>
	</g>
</g>
<g>
	<defs>
		<polygon id="SVGID_00000114070948376897227300000014877667358834066323_" points="363.43,147.3 -66,147 -11,-66 363.43,-69.7 		
			"/>
	</defs>
	<clipPath id="SVGID_00000049914248869681637610000011464603258349853060_">
		<use xlink:href="#SVGID_00000114070948376897227300000014877667358834066323_"  style="overflow:visible;"/>
	</clipPath>
	<g style="clip-path:url(#SVGID_00000049914248869681637610000011464603258349853060_);">
		<path class="st8" d="M287.14,30.89c-0.76,0-1.41-0.52-1.64-1.28l-3.74-12.8c-0.29-1.01-1.13-1.66-2.12-1.67h-0.01
			c-0.99,0-1.82,0.65-2.12,1.65L265,58.52c-0.23,0.78-0.88,1.28-1.65,1.27c-0.77-0.01-1.41-0.52-1.63-1.31l-13.14-47.26
			c-0.29-1.04-1.14-1.71-2.15-1.7c-1.02,0.01-1.85,0.69-2.13,1.73l-7.63,28.9c-0.26,0.98-1.05,1.33-1.65,1.33H235
			c-0.61-0.01-1.4-0.36-1.65-1.36l-1.19-4.8c-0.32-1.27-1.36-1.81-2.25-1.76c-0.89,0.04-1.89,0.66-2.1,1.96l-5.67,34.72
			c-0.2,1.22-1.13,1.77-1.97,1.77h-0.01c-0.84-0.01-1.78-0.56-1.97-1.79l-9.48-62.93c-0.23-1.56-1.41-2.25-2.48-2.25h-0.01
			c-1.07,0-2.25,0.71-2.48,2.27l-4.91,34.17c-0.15,1.01-0.89,1.46-1.49,1.54c-0.6,0.08-1.42-0.16-1.79-1.11l-5.18-13.14
			c-0.37-0.94-1.23-1.51-2.19-1.45c-0.96,0.06-1.75,0.74-2.01,1.72l-9.58,35.88c-0.26,0.98-1.05,1.33-1.65,1.33
			c-0.01,0-0.01,0-0.02,0c-0.61-0.01-1.4-0.37-1.64-1.37l-10.61-43.62c-0.25-1.02-1.05-1.72-2.04-1.77
			c-0.99-0.05-1.85,0.54-2.2,1.53l-8.88,25.09c-0.3,0.86-1.01,1.17-1.58,1.18c-0.56,0.01-1.28-0.28-1.61-1.13l-6.25-16.07
			c-0.34-0.86-1.09-1.42-1.96-1.46c-0.88-0.04-1.67,0.45-2.07,1.28c-0.3,0.61-0.88,0.99-1.53,0.99L31.5,31.5c0,0-32,0-32,0l0,0
			c0,0,32,0,32,0l103.03-0.07c0.84,0,1.6-0.49,1.98-1.28c0.31-0.64,0.92-1.02,1.6-0.99c0.68,0.03,1.26,0.46,1.51,1.13l6.25,16.07
			c0.35,0.91,1.14,1.46,2.05,1.46c0.01,0,0.03,0,0.04,0c0.93-0.02,1.72-0.6,2.05-1.53l8.88-25.09c0.27-0.76,0.93-1.22,1.7-1.18
			c0.76,0.04,1.38,0.58,1.57,1.37L172.78,65c0.26,1.07,1.1,1.76,2.13,1.78c1.04,0.02,1.89-0.66,2.17-1.72l9.58-35.88
			c0.25-0.92,0.96-1.29,1.55-1.32c0.59-0.04,1.34,0.24,1.69,1.12l5.18,13.14c0.4,1.01,1.31,1.57,2.33,1.43
			c1.02-0.13,1.77-0.92,1.93-1.99l4.91-34.17c0.18-1.25,1.12-1.81,1.97-1.81h0.01c0.85,0,1.79,0.55,1.98,1.79l9.48,62.93
			c0.23,1.55,1.41,2.24,2.47,2.25h0.02c1.06,0,2.23-0.68,2.48-2.22l5.67-34.72c0.17-1.07,0.98-1.48,1.62-1.51
			c0.63-0.03,1.47,0.31,1.73,1.36l1.19,4.8c0.26,1.06,1.1,1.76,2.14,1.77h0.02c1.02,0,1.86-0.68,2.14-1.73l7.63-28.9
			c0.26-0.98,1.05-1.33,1.64-1.33c0.6-0.01,1.39,0.34,1.66,1.31l13.14,47.26c0.28,1.02,1.11,1.69,2.11,1.7
			c1.01,0.01,1.84-0.64,2.15-1.65l12.51-41.73c0.23-0.77,0.87-1.27,1.64-1.27h0.01c0.76,0,1.41,0.51,1.63,1.28l3.74,12.8
			c0.29,1,1.15,1.67,2.13,1.67h76.29v-0.54H287.14z"/>
	</g>
	<g style="clip-path:url(#SVGID_00000049914248869681637610000011464603258349853060_);">
		
			<radialGradient id="SVGID_00000066498622919225818910000008001823208461311930_" cx="-4668.5801" cy="2714.8123" r="33.6624" gradientTransform="matrix(-0.5732 0 0 -0.1427 -2325.5754 418.3715)" gradientUnits="userSpaceOnUse">
			<stop  offset="0" style="stop-color:#00EDC1;stop-opacity:0.8"/>
			<stop  offset="0.0639" style="stop-color:#00DABA;stop-opacity:0.7355"/>
			<stop  offset="0.185" style="stop-color:#00BCAE;stop-opacity:0.6131"/>
			<stop  offset="0.3131" style="stop-color:#00A5A5;stop-opacity:0.4838"/>
			<stop  offset="0.4494" style="stop-color:#00949F;stop-opacity:0.346"/>
			<stop  offset="0.5999" style="stop-color:#008A9B;stop-opacity:0.194"/>
			<stop  offset="0.7919" style="stop-color:#00879A;stop-opacity:0"/>
		</radialGradient>
		
			<ellipse style="fill:url(#SVGID_00000066498622919225818910000008001823208461311930_);" cx="350.51" cy="31.03" rx="12.75" ry="3.17"/>
	</g>
</g>
<g>
	<defs>
		<polygon id="SVGID_00000178182001071216806790000006186334560351198340_" points="2440,140.41 1874,147.4 1874,-69.6 
			2389.42,-71.59 		"/>
	</defs>
	<clipPath id="SVGID_00000072965801300622284980000007679624801397273481_">
		<use xlink:href="#SVGID_00000178182001071216806790000006186334560351198340_"  style="overflow:visible;"/>
	</clipPath>
	<g style="clip-path:url(#SVGID_00000072965801300622284980000007679624801397273481_);">
		<path class="st8" d="M2261.28,30.99c-1.27,0-2.38-0.52-2.76-1.28l-6.31-12.8c-0.5-1.01-1.9-1.66-3.57-1.67h-0.01
			c-1.67,0-3.07,0.65-3.58,1.65l-21.09,41.73c-0.39,0.78-1.49,1.28-2.79,1.27c-1.3-0.01-2.38-0.52-2.74-1.31l-22.16-47.26
			c-0.49-1.04-1.92-1.71-3.63-1.7c-1.72,0.01-3.12,0.69-3.59,1.73l-12.86,28.9c-0.44,0.98-1.77,1.33-2.79,1.33h-0.02
			c-1.02-0.01-2.36-0.36-2.78-1.36l-2-4.8c-0.53-1.27-2.29-1.81-3.79-1.76c-1.5,0.04-3.18,0.66-3.54,1.96l-9.56,34.72
			c-0.34,1.22-1.91,1.77-3.33,1.77h-0.02c-1.42-0.01-3-0.56-3.31-1.79l-15.99-62.93c-0.4-1.56-2.38-2.25-4.19-2.25h-0.02
			c-1.81,0-3.8,0.71-4.18,2.27l-8.28,34.17c-0.24,1.01-1.5,1.46-2.51,1.54c-1,0.08-2.4-0.16-3.02-1.11l-8.74-13.14
			c-0.63-0.94-2.07-1.51-3.69-1.45c-1.61,0.06-2.94,0.74-3.39,1.72l-16.15,35.88c-0.44,0.98-1.77,1.33-2.79,1.33
			c-0.01,0-0.02,0-0.03,0c-1.02-0.01-2.36-0.37-2.77-1.37l-17.89-43.62c-0.42-1.02-1.77-1.72-3.43-1.77
			c-1.67-0.05-3.13,0.54-3.71,1.53l-14.98,25.09c-0.51,0.86-1.71,1.17-2.66,1.18c-0.95,0.01-2.17-0.28-2.72-1.13l-10.54-16.07
			c-0.57-0.86-1.83-1.42-3.31-1.46c-1.48-0.04-2.82,0.45-3.49,1.28c-0.5,0.61-1.48,0.99-2.57,0.99h-129.98c0,0-0.01,0-0.01,0v0.54
			c0,0,0.01,0,0.01,0h129.98c1.41,0,2.69-0.49,3.34-1.28c0.52-0.64,1.56-1.02,2.69-0.99c1.14,0.03,2.12,0.46,2.55,1.13l10.54,16.07
			c0.59,0.91,1.92,1.46,3.46,1.46c0.02,0,0.04,0,0.07,0c1.57-0.02,2.9-0.6,3.45-1.53l14.98-25.09c0.45-0.76,1.58-1.22,2.86-1.18
			c1.29,0.04,2.32,0.58,2.65,1.37l17.89,43.62c0.44,1.07,1.85,1.76,3.59,1.78c1.75,0.02,3.18-0.66,3.66-1.72l16.15-35.88
			c0.41-0.92,1.62-1.29,2.61-1.32c0.99-0.04,2.26,0.24,2.84,1.12l8.74,13.14c0.67,1.01,2.21,1.57,3.92,1.43
			c1.71-0.13,2.99-0.92,3.25-1.99l8.28-34.17c0.3-1.25,1.89-1.81,3.33-1.81h0.01c1.44,0,3.02,0.55,3.34,1.79l15.99,62.93
			c0.39,1.55,2.37,2.24,4.16,2.25h0.03c1.78,0,3.75-0.68,4.18-2.22l9.56-34.72c0.29-1.07,1.65-1.48,2.73-1.51
			c1.07-0.03,2.48,0.31,2.92,1.36l2,4.8c0.44,1.06,1.86,1.76,3.6,1.77h0.03c1.73,0,3.14-0.68,3.61-1.73l12.86-28.9
			c0.43-0.98,1.76-1.33,2.77-1.33c1.02-0.01,2.34,0.34,2.8,1.31l22.16,47.26c0.48,1.02,1.88,1.69,3.56,1.7
			c1.7,0.01,3.11-0.64,3.62-1.65l21.09-41.73c0.39-0.77,1.47-1.27,2.76-1.27h0.01c1.29,0,2.37,0.51,2.75,1.28l6.31,12.8
			c0.49,1,1.93,1.67,3.59,1.67l146.32,0.36v-1L2261.28,30.99z"/>
	</g>
	<g style="clip-path:url(#SVGID_00000072965801300622284980000007679624801397273481_);">
		
			<radialGradient id="SVGID_00000033356936411439264550000018324463671143034003_" cx="-7917.4375" cy="2714.1206" r="33.6624" gradientTransform="matrix(-0.9664 0 0 -0.1427 -5283.1411 418.3715)" gradientUnits="userSpaceOnUse">
			<stop  offset="0" style="stop-color:#00EDC1;stop-opacity:0.8"/>
			<stop  offset="0.0639" style="stop-color:#00DABA;stop-opacity:0.7355"/>
			<stop  offset="0.185" style="stop-color:#00BCAE;stop-opacity:0.6131"/>
			<stop  offset="0.3131" style="stop-color:#00A5A5;stop-opacity:0.4838"/>
			<stop  offset="0.4494" style="stop-color:#00949F;stop-opacity:0.346"/>
			<stop  offset="0.5999" style="stop-color:#008A9B;stop-opacity:0.194"/>
			<stop  offset="0.7919" style="stop-color:#00879A;stop-opacity:0"/>
		</radialGradient>
		
			<ellipse style="fill:url(#SVGID_00000033356936411439264550000018324463671143034003_);" cx="2368.11" cy="31.13" rx="21.5" ry="3.17"/>
	</g>
</g>
</svg>
