<?xml version="1.0" encoding="utf-8"?>
<!-- Generator: Fusion 360, Shaper Origin Export Add-In, Version 1.5.0  -->
<svg enable-background="new 0 0 27.2105409 7.3914109" height="7.3914109cm" shaper:fusionaddin="version:1.5.0" version="1.1" viewBox="0 0 27.2105409 7.3914109" width="27.2105409cm" x="0cm" xml:space="preserve" xmlns="http://www.w3.org/2000/svg" xmlns:shaper="http://www.shapertools.com/namespaces/shaper" xmlns:xlink="http://www.w3.org/1999/xlink" y="0cm"><path d="M0,-0.0000055 A3.6957055,3.6957055 270 1,0 0,7.3914055 L0,7.3914 19.89455,7.3914 A3.6964855,3.6964855 88.8188111 0,0 19.89455,-0 L0,0z" fill="rgb(0,0,0)" shaper:cutDepth="0.003" shaper:pathType="exterior" transform="matrix(1,0,0,-1,3.6957055,7.3914055)" vector-effect="non-scaling-stroke" /><path d="M16.1364117,3.7187556 a2.6999997,2.6999997 0 1,1 5.3999994,0 a2.6999997,2.6999997 0 1,1 -5.3999994,0z" fill="rgb(255,255,255)" shaper:cutDepth="0.003" shaper:pathType="interior" stroke="rgb(0,0,0)" transform="matrix(1,0,0,-1,3.6957055,7.3914055)" vector-effect="non-scaling-stroke" /><path d="M-1.6908907,3.7218849 a2.6999997,2.6999997 0 1,1 5.3999994,0 a2.6999997,2.6999997 0 1,1 -5.3999994,0z" fill="rgb(255,255,255)" shaper:cutDepth="0.003" shaper:pathType="interior" stroke="rgb(0,0,0)" transform="matrix(1,0,0,-1,3.6957055,7.3914055)" vector-effect="non-scaling-stroke" /></svg>